<?xml version="1.0" encoding="UTF-8" standalone="no"?>
<!DOCTYPE svg PUBLIC "-//W3C//DTD SVG 1.1//EN"
 "http://www.w3.org/Graphics/SVG/1.1/DTD/svg11.dtd">
<!-- Generated by graphviz version 2.43.0 (0)
 -->
<!-- Title: lemons::plugin::Parameter Pages: 1 -->
<svg width="1224pt" height="480pt"
 viewBox="0.00 0.00 1224.00 480.00" xmlns="http://www.w3.org/2000/svg" xmlns:xlink="http://www.w3.org/1999/xlink">
<g id="graph0" class="graph" transform="scale(1 1) rotate(0) translate(4 476)">
<title>lemons::plugin::Parameter</title>
<!-- Node1 -->
<g id="node1" class="node">
<title>Node1</title>
<g id="a_node1"><a xlink:title="A plugin parameter class that allows you to use my Serializing API, and has a few other cool bells an...">
<polygon fill="#bfbfbf" stroke="black" points="176,-18 176,-37 321,-37 321,-18 176,-18"/>
<text text-anchor="middle" x="248.5" y="-25" font-family="Helvetica,sans-Serif" font-size="10.00">lemons::plugin::Parameter</text>
</a>
</g>
</g>
<!-- Node3 -->
<g id="node3" class="node">
<title>Node3</title>
<g id="a_node3"><a xlink:href="classlemons_1_1plugin_1_1TypedParameter.html" target="_top" xlink:title="A parameter that can be stored as a type other than a float, but still inherits from my Parameter bas...">
<polygon fill="none" stroke="black" points="358,-196.5 358,-226.5 531,-226.5 531,-196.5 358,-196.5"/>
<text text-anchor="start" x="366" y="-214.5" font-family="Helvetica,sans-Serif" font-size="10.00">lemons::plugin::TypedParameter</text>
<text text-anchor="middle" x="444.5" y="-203.5" font-family="Helvetica,sans-Serif" font-size="10.00">&lt; ValueType &gt;</text>
</a>
</g>
</g>
<!-- Node1&#45;&gt;Node3 -->
<g id="edge2" class="edge">
<title>Node1&#45;&gt;Node3</title>
<path fill="none" stroke="midnightblue" d="M267.28,-44.37C304.8,-79.95 391.56,-162.24 427.48,-196.3"/>
<polygon fill="midnightblue" stroke="midnightblue" points="269.32,-41.48 259.66,-37.13 264.5,-46.55 269.32,-41.48"/>
</g>
<!-- Node14 -->
<g id="node14" class="node">
<title>Node14</title>
<g id="a_node14"><a xlink:href="classlemons_1_1plugin_1_1TypedParameter.html" target="_top" xlink:title=" ">
<polygon fill="none" stroke="black" points="620,-0.5 620,-30.5 793,-30.5 793,-0.5 620,-0.5"/>
<text text-anchor="start" x="628" y="-18.5" font-family="Helvetica,sans-Serif" font-size="10.00">lemons::plugin::TypedParameter</text>
<text text-anchor="middle" x="706.5" y="-7.5" font-family="Helvetica,sans-Serif" font-size="10.00">&lt; bool &gt;</text>
</a>
</g>
</g>
<!-- Node1&#45;&gt;Node14 -->
<g id="edge16" class="edge">
<title>Node1&#45;&gt;Node14</title>
<path fill="none" stroke="midnightblue" d="M331.2,-25.35C412.55,-23.21 536.93,-19.94 619.7,-17.76"/>
<polygon fill="midnightblue" stroke="midnightblue" points="330.91,-21.86 321,-25.62 331.09,-28.85 330.91,-21.86"/>
</g>
<!-- Node2 -->
<g id="node2" class="node">
<title>Node2</title>
<g id="a_node2"><a xlink:href="structlemons_1_1SerializableData.html" target="_top" xlink:title="Base class for any C++ object that needs to be serialized to binary and back.">
<polygon fill="none" stroke="black" points="0,-18 0,-37 139,-37 139,-18 0,-18"/>
<text text-anchor="middle" x="69.5" y="-25" font-family="Helvetica,sans-Serif" font-size="10.00">lemons::SerializableData</text>
</a>
</g>
</g>
<!-- Node2&#45;&gt;Node1 -->
<g id="edge1" class="edge">
<title>Node2&#45;&gt;Node1</title>
<path fill="none" stroke="midnightblue" d="M149.45,-27.5C158.27,-27.5 167.21,-27.5 175.93,-27.5"/>
<polygon fill="midnightblue" stroke="midnightblue" points="149.19,-24 139.19,-27.5 149.19,-31 149.19,-24"/>
</g>
<!-- Node4 -->
<g id="node4" class="node">
<title>Node4</title>
<g id="a_node4"><a xlink:href="structlemons_1_1plugin_1_1FloatAmountParameter.html" target="_top" xlink:title="A parameter that represents a value in a normalized 0.">
<polygon fill="none" stroke="black" points="627.5,-441.5 627.5,-471.5 785.5,-471.5 785.5,-441.5 627.5,-441.5"/>
<text text-anchor="start" x="635.5" y="-459.5" font-family="Helvetica,sans-Serif" font-size="10.00">lemons::plugin::FloatAmount</text>
<text text-anchor="middle" x="706.5" y="-448.5" font-family="Helvetica,sans-Serif" font-size="10.00">Parameter&lt; float &gt;</text>
</a>
</g>
</g>
<!-- Node3&#45;&gt;Node4 -->
<g id="edge3" class="edge">
<title>Node3&#45;&gt;Node4</title>
<path fill="none" stroke="midnightblue" d="M456.01,-235.78C477.8,-282.82 532.74,-385.87 614,-432.5 619.98,-435.93 626.46,-438.89 633.12,-441.42"/>
<polygon fill="midnightblue" stroke="midnightblue" points="459.18,-234.29 451.87,-226.63 452.81,-237.18 459.18,-234.29"/>
</g>
<!-- Node5 -->
<g id="node5" class="node">
<title>Node5</title>
<g id="a_node5"><a xlink:href="structlemons_1_1plugin_1_1FrequencyParameter.html" target="_top" xlink:title="A parameter that represents a frequency in Hz.">
<polygon fill="none" stroke="black" points="634,-392.5 634,-422.5 779,-422.5 779,-392.5 634,-392.5"/>
<text text-anchor="start" x="642" y="-410.5" font-family="Helvetica,sans-Serif" font-size="10.00">lemons::plugin::Frequency</text>
<text text-anchor="middle" x="706.5" y="-399.5" font-family="Helvetica,sans-Serif" font-size="10.00">Parameter&lt; float &gt;</text>
</a>
</g>
</g>
<!-- Node3&#45;&gt;Node5 -->
<g id="edge4" class="edge">
<title>Node3&#45;&gt;Node5</title>
<path fill="none" stroke="midnightblue" d="M461.24,-234.97C487.91,-272.74 545.79,-346.52 614,-383.5 620.35,-386.94 627.22,-389.91 634.25,-392.47"/>
<polygon fill="midnightblue" stroke="midnightblue" points="464.01,-232.83 455.44,-226.61 458.27,-236.82 464.01,-232.83"/>
</g>
<!-- Node6 -->
<g id="node6" class="node">
<title>Node6</title>
<g id="a_node6"><a xlink:href="structlemons_1_1plugin_1_1GainParameter.html" target="_top" xlink:title="A parameter that represents a gain value in decibels.">
<polygon fill="none" stroke="black" points="623,-343.5 623,-373.5 790,-373.5 790,-343.5 623,-343.5"/>
<text text-anchor="start" x="631" y="-361.5" font-family="Helvetica,sans-Serif" font-size="10.00">lemons::plugin::GainParameter</text>
<text text-anchor="middle" x="706.5" y="-350.5" font-family="Helvetica,sans-Serif" font-size="10.00">&lt; float &gt;</text>
</a>
</g>
</g>
<!-- Node3&#45;&gt;Node6 -->
<g id="edge5" class="edge">
<title>Node3&#45;&gt;Node6</title>
<path fill="none" stroke="midnightblue" d="M469.53,-233.63C500.63,-261.12 557.54,-307.68 614,-334.5 621.12,-337.88 628.79,-340.84 636.55,-343.41"/>
<polygon fill="midnightblue" stroke="midnightblue" points="471.62,-230.8 461.83,-226.74 466.95,-236.02 471.62,-230.8"/>
</g>
<!-- Node7 -->
<g id="node7" class="node">
<title>Node7</title>
<g id="a_node7"><a xlink:href="structlemons_1_1plugin_1_1MeterParameter.html" target="_top" xlink:title="A parameter that represents a general kind of meter, used for reporting things like level or gain red...">
<polygon fill="none" stroke="black" points="620,-294.5 620,-324.5 793,-324.5 793,-294.5 620,-294.5"/>
<text text-anchor="start" x="628" y="-312.5" font-family="Helvetica,sans-Serif" font-size="10.00">lemons::plugin::MeterParameter</text>
<text text-anchor="middle" x="706.5" y="-301.5" font-family="Helvetica,sans-Serif" font-size="10.00">&lt; float &gt;</text>
</a>
</g>
</g>
<!-- Node3&#45;&gt;Node7 -->
<g id="edge6" class="edge">
<title>Node3&#45;&gt;Node7</title>
<path fill="none" stroke="midnightblue" d="M485.03,-230.98C518.73,-247.07 568.77,-269.75 614,-285.5 623.15,-288.69 632.94,-291.68 642.6,-294.4"/>
<polygon fill="midnightblue" stroke="midnightblue" points="486.5,-227.8 475.97,-226.62 483.47,-234.11 486.5,-227.8"/>
</g>
<!-- Node9 -->
<g id="node9" class="node">
<title>Node9</title>
<g id="a_node9"><a xlink:href="structlemons_1_1plugin_1_1MidiPanParameter.html" target="_top" xlink:title="A parameter that represents a MIDI panning value in the range 0 to 127.">
<polygon fill="none" stroke="black" points="615,-245.5 615,-275.5 798,-275.5 798,-245.5 615,-245.5"/>
<text text-anchor="start" x="623" y="-263.5" font-family="Helvetica,sans-Serif" font-size="10.00">lemons::plugin::MidiPanParameter</text>
<text text-anchor="middle" x="706.5" y="-252.5" font-family="Helvetica,sans-Serif" font-size="10.00">&lt; int &gt;</text>
</a>
</g>
</g>
<!-- Node3&#45;&gt;Node9 -->
<g id="edge8" class="edge">
<title>Node3&#45;&gt;Node9</title>
<path fill="none" stroke="midnightblue" d="M535.15,-228.39C564.63,-233.95 597.19,-240.09 625.88,-245.49"/>
<polygon fill="midnightblue" stroke="midnightblue" points="535.75,-224.95 525.28,-226.53 534.45,-231.83 535.75,-224.95"/>
</g>
<!-- Node10 -->
<g id="node10" class="node">
<title>Node10</title>
<g id="a_node10"><a xlink:href="structlemons_1_1plugin_1_1MidiPitchParameter.html" target="_top" xlink:title="A parameter that represents a MIDI pitch.">
<polygon fill="none" stroke="black" points="636.5,-196.5 636.5,-226.5 776.5,-226.5 776.5,-196.5 636.5,-196.5"/>
<text text-anchor="start" x="644.5" y="-214.5" font-family="Helvetica,sans-Serif" font-size="10.00">lemons::plugin::MidiPitch</text>
<text text-anchor="middle" x="706.5" y="-203.5" font-family="Helvetica,sans-Serif" font-size="10.00">Parameter&lt; int &gt;</text>
</a>
</g>
</g>
<!-- Node3&#45;&gt;Node10 -->
<g id="edge9" class="edge">
<title>Node3&#45;&gt;Node10</title>
<path fill="none" stroke="midnightblue" d="M541.44,-211.5C572.85,-211.5 607.12,-211.5 636.17,-211.5"/>
<polygon fill="midnightblue" stroke="midnightblue" points="541.35,-208 531.35,-211.5 541.35,-215 541.35,-208"/>
</g>
<!-- Node11 -->
<g id="node11" class="node">
<title>Node11</title>
<g id="a_node11"><a xlink:href="structlemons_1_1plugin_1_1PercentParameter.html" target="_top" xlink:title="A parameter that represents an integer value in the range 0&#45;100.">
<polygon fill="none" stroke="black" points="615.5,-147.5 615.5,-177.5 797.5,-177.5 797.5,-147.5 615.5,-147.5"/>
<text text-anchor="start" x="623.5" y="-165.5" font-family="Helvetica,sans-Serif" font-size="10.00">lemons::plugin::PercentParameter</text>
<text text-anchor="middle" x="706.5" y="-154.5" font-family="Helvetica,sans-Serif" font-size="10.00">&lt; int &gt;</text>
</a>
</g>
</g>
<!-- Node3&#45;&gt;Node11 -->
<g id="edge10" class="edge">
<title>Node3&#45;&gt;Node11</title>
<path fill="none" stroke="midnightblue" d="M535.15,-194.61C564.63,-189.05 597.19,-182.91 625.88,-177.51"/>
<polygon fill="midnightblue" stroke="midnightblue" points="534.45,-191.17 525.28,-196.47 535.75,-198.05 534.45,-191.17"/>
</g>
<!-- Node12 -->
<g id="node12" class="node">
<title>Node12</title>
<g id="a_node12"><a xlink:href="structlemons_1_1plugin_1_1SecondsParameter.html" target="_top" xlink:title="A parameter that represents a time value in seconds, expressed as a float.">
<polygon fill="none" stroke="black" points="614,-98.5 614,-128.5 799,-128.5 799,-98.5 614,-98.5"/>
<text text-anchor="start" x="622" y="-116.5" font-family="Helvetica,sans-Serif" font-size="10.00">lemons::plugin::SecondsParameter</text>
<text text-anchor="middle" x="706.5" y="-105.5" font-family="Helvetica,sans-Serif" font-size="10.00">&lt; float &gt;</text>
</a>
</g>
</g>
<!-- Node3&#45;&gt;Node12 -->
<g id="edge11" class="edge">
<title>Node3&#45;&gt;Node12</title>
<path fill="none" stroke="midnightblue" d="M485.72,-192.15C519.46,-176.39 569.18,-154.24 614,-138.5 624.1,-134.95 634.97,-131.6 645.57,-128.56"/>
<polygon fill="midnightblue" stroke="midnightblue" points="484.2,-188.99 476.64,-196.42 487.18,-195.33 484.2,-188.99"/>
</g>
<!-- Node13 -->
<g id="node13" class="node">
<title>Node13</title>
<g id="a_node13"><a xlink:href="structlemons_1_1plugin_1_1SemitonesParameter.html" target="_top" xlink:title="A parameter that represents a number of semitones, as an integer.">
<polygon fill="none" stroke="black" points="633.5,-49.5 633.5,-79.5 779.5,-79.5 779.5,-49.5 633.5,-49.5"/>
<text text-anchor="start" x="641.5" y="-67.5" font-family="Helvetica,sans-Serif" font-size="10.00">lemons::plugin::Semitones</text>
<text text-anchor="middle" x="706.5" y="-56.5" font-family="Helvetica,sans-Serif" font-size="10.00">Parameter&lt; int &gt;</text>
</a>
</g>
</g>
<!-- Node3&#45;&gt;Node13 -->
<g id="edge12" class="edge">
<title>Node3&#45;&gt;Node13</title>
<path fill="none" stroke="midnightblue" d="M469.61,-189.66C500.79,-162.49 557.79,-116.43 614,-89.5 621.87,-85.73 630.41,-82.45 638.99,-79.62"/>
<polygon fill="midnightblue" stroke="midnightblue" points="467.08,-187.22 461.89,-196.46 471.71,-192.47 467.08,-187.22"/>
</g>
<!-- Node3&#45;&gt;Node14 -->
<g id="edge13" class="edge">
<title>Node3&#45;&gt;Node14</title>
<path fill="none" stroke="orange" stroke-dasharray="5,2" d="M460.14,-187.87C485.8,-148.89 542.98,-72.16 614,-39.5 621.31,-36.14 629.18,-33.18 637.11,-30.6"/>
<polygon fill="orange" stroke="orange" points="457.07,-186.18 454.59,-196.48 462.95,-189.97 457.07,-186.18"/>
<text text-anchor="middle" x="572.5" y="-85.5" font-family="Helvetica,sans-Serif" font-size="10.00"> &lt; bool &gt;</text>
</g>
<!-- Node8 -->
<g id="node8" class="node">
<title>Node8</title>
<g id="a_node8"><a xlink:href="structlemons_1_1plugin_1_1GainMeterParameter.html" target="_top" xlink:title="A parameter that represents a meter displaying values in decibels.">
<polygon fill="none" stroke="black" points="846.5,-294.5 846.5,-324.5 992.5,-324.5 992.5,-294.5 846.5,-294.5"/>
<text text-anchor="start" x="854.5" y="-312.5" font-family="Helvetica,sans-Serif" font-size="10.00">lemons::plugin::GainMeter</text>
<text text-anchor="middle" x="919.5" y="-301.5" font-family="Helvetica,sans-Serif" font-size="10.00">Parameter</text>
</a>
</g>
</g>
<!-- Node7&#45;&gt;Node8 -->
<g id="edge7" class="edge">
<title>Node7&#45;&gt;Node8</title>
<path fill="none" stroke="midnightblue" d="M803.05,-309.5C817.61,-309.5 832.43,-309.5 846.38,-309.5"/>
<polygon fill="midnightblue" stroke="midnightblue" points="803.02,-306 793.02,-309.5 803.02,-313 803.02,-306"/>
</g>
<!-- Node15 -->
<g id="node15" class="node">
<title>Node15</title>
<g id="a_node15"><a xlink:href="structlemons_1_1plugin_1_1BoolParameter.html" target="_top" xlink:title="Helper struct that simplifies the constructor for boolean parameters.">
<polygon fill="none" stroke="black" points="836,-6 836,-25 1003,-25 1003,-6 836,-6"/>
<text text-anchor="middle" x="919.5" y="-13" font-family="Helvetica,sans-Serif" font-size="10.00">lemons::plugin::BoolParameter</text>
</a>
</g>
</g>
<!-- Node14&#45;&gt;Node15 -->
<g id="edge14" class="edge">
<title>Node14&#45;&gt;Node15</title>
<path fill="none" stroke="midnightblue" d="M803.05,-15.5C814.03,-15.5 825.15,-15.5 835.94,-15.5"/>
<polygon fill="midnightblue" stroke="midnightblue" points="803.02,-12 793.02,-15.5 803.02,-19 803.02,-12"/>
</g>
<!-- Node16 -->
<g id="node16" class="node">
<title>Node16</title>
<g id="a_node16"><a xlink:href="structlemons_1_1plugin_1_1ToggleParameter.html" target="_top" xlink:title="A parameter that represents a boolean on/off toggle.">
<polygon fill="none" stroke="black" points="1040,-6 1040,-25 1216,-25 1216,-6 1040,-6"/>
<text text-anchor="middle" x="1128" y="-13" font-family="Helvetica,sans-Serif" font-size="10.00">lemons::plugin::ToggleParameter</text>
</a>
</g>
</g>
<!-- Node15&#45;&gt;Node16 -->
<g id="edge15" class="edge">
<title>Node15&#45;&gt;Node16</title>
<path fill="none" stroke="midnightblue" d="M1013.03,-15.5C1021.97,-15.5 1031.01,-15.5 1039.89,-15.5"/>
<polygon fill="midnightblue" stroke="midnightblue" points="1013,-12 1003,-15.5 1013,-19 1013,-12"/>
</g>
</g>
</svg>
