<?xml version="1.0" encoding="UTF-8" standalone="no"?>
<!DOCTYPE svg PUBLIC "-//W3C//DTD SVG 1.1//EN"
 "http://www.w3.org/Graphics/SVG/1.1/DTD/svg11.dtd">
<!-- Generated by graphviz version 2.43.0 (0)
 -->
<!-- Title: lemons::plugin::TypedParameter&lt; ValueType &gt; Pages: 1 -->
<!--zoomable 431 -->
<svg id="main" version="1.1" xmlns="http://www.w3.org/2000/svg" xmlns:xlink="http://www.w3.org/1999/xlink" xml:space="preserve" onload="init(evt)">
<style type="text/css"><![CDATA[
.edge:hover path { stroke: red; }
.edge:hover polygon { stroke: red; fill: red; }
]]></style>
<script type="text/javascript"><![CDATA[
var edges = document.getElementsByTagName('g');
if (edges && edges.length) {
  for (var i=0;i<edges.length;i++) {
    if (edges[i].id.substr(0,4)=='edge') {
      edges[i].setAttribute('class','edge');
    }
  }
}
]]></script>
        <defs>
                <circle id="rim" cx="0" cy="0" r="7"/>
                <circle id="rim2" cx="0" cy="0" r="3.5"/>
                <g id="zoomPlus">
                        <use xlink:href="#rim" fill="#404040">
                                <set attributeName="fill" to="#808080" begin="zoomplus.mouseover" end="zoomplus.mouseout"/>
                        </use>
                        <path d="M-4,0h8M0,-4v8" fill="none" stroke="white" stroke-width="1.5" pointer-events="none"/>
                </g>
                <g id="zoomMin">
                        <use xlink:href="#rim" fill="#404040">
                                <set attributeName="fill" to="#808080" begin="zoomminus.mouseover" end="zoomminus.mouseout"/>
                        </use>
                        <path d="M-4,0h8" fill="none" stroke="white" stroke-width="1.5" pointer-events="none"/>
                </g>
                <g id="dirArrow">
                        <path fill="none" stroke="white" stroke-width="1.5" d="M0,-3.0v7 M-2.5,-0.5L0,-3.0L2.5,-0.5"/>
                </g>
               <g id="resetDef">
                       <use xlink:href="#rim2" fill="#404040">
                               <set attributeName="fill" to="#808080" begin="reset.mouseover" end="reset.mouseout"/>
                       </use>
               </g>
        </defs>

<script type="text/javascript">
var viewWidth = 1307;
var viewHeight = 431;
var sectionId = 'dynsection-0';
</script>
<script xlink:href="svgpan.js"/>
<svg id="graph" class="graph">
<g id="viewport">
<title>lemons::plugin::TypedParameter&lt; ValueType &gt;</title>
<!-- Node1 -->
<g id="node1" class="node">
<title>Node1</title>
<g id="a_node1"><a xlink:title=" ">
<polygon fill="#bfbfbf" stroke="black" points="377,-196.5 377,-226.5 550,-226.5 550,-196.5 377,-196.5"/>
<text text-anchor="start" x="385" y="-214.5" font-family="Helvetica,sans-Serif" font-size="10.00">lemons::plugin::TypedParameter</text>
<text text-anchor="middle" x="463.5" y="-203.5" font-family="Helvetica,sans-Serif" font-size="10.00">&lt; ValueType &gt;</text>
</a>
</g>
</g>
<!-- Node4 -->
<g id="node4" class="node">
<title>Node4</title>
<g id="a_node4"><a xlink:href="structlemons_1_1plugin_1_1_float_amount_parameter.html" target="_top" xlink:title=" ">
<polygon fill="none" stroke="black" points="646.5,-392.5 646.5,-422.5 804.5,-422.5 804.5,-392.5 646.5,-392.5"/>
<text text-anchor="start" x="654.5" y="-410.5" font-family="Helvetica,sans-Serif" font-size="10.00">lemons::plugin::FloatAmount</text>
<text text-anchor="middle" x="725.5" y="-399.5" font-family="Helvetica,sans-Serif" font-size="10.00">Parameter&lt; float &gt;</text>
</a>
</g>
</g>
<!-- Node1&#45;&gt;Node4 -->
<g id="edge3" class="edge">
<title>Node1&#45;&gt;Node4</title>
<path fill="none" stroke="midnightblue" d="M480.36,-234.98C507.22,-272.77 565.5,-346.58 634,-383.5 640.3,-386.89 647.1,-389.83 654.05,-392.36"/>
<polygon fill="midnightblue" stroke="midnightblue" points="483.11,-232.81 474.51,-226.62 477.38,-236.82 483.11,-232.81"/>
</g>
<!-- Node5 -->
<g id="node5" class="node">
<title>Node5</title>
<g id="a_node5"><a xlink:href="classlemons_1_1plugin_1_1_meta_parameter.html" target="_top" xlink:title=" ">
<polygon fill="none" stroke="black" points="640.5,-343.5 640.5,-373.5 810.5,-373.5 810.5,-343.5 640.5,-343.5"/>
<text text-anchor="start" x="648.5" y="-361.5" font-family="Helvetica,sans-Serif" font-size="10.00">lemons::plugin::MetaParameter</text>
<text text-anchor="middle" x="725.5" y="-350.5" font-family="Helvetica,sans-Serif" font-size="10.00">&lt; ValueType &gt;</text>
</a>
</g>
</g>
<!-- Node1&#45;&gt;Node5 -->
<g id="edge4" class="edge">
<title>Node1&#45;&gt;Node5</title>
<path fill="none" stroke="midnightblue" d="M487.92,-233.8C518.82,-261.89 576.09,-309.5 634,-334.5 641.76,-337.85 650.1,-340.83 658.47,-343.45"/>
<polygon fill="midnightblue" stroke="midnightblue" points="490.02,-230.97 480.29,-226.77 485.27,-236.12 490.02,-230.97"/>
</g>
<!-- Node8 -->
<g id="node8" class="node">
<title>Node8</title>
<g id="a_node8"><a xlink:href="structlemons_1_1plugin_1_1_meter_parameter.html" target="_top" xlink:title=" ">
<polygon fill="none" stroke="black" points="639,-245.5 639,-275.5 812,-275.5 812,-245.5 639,-245.5"/>
<text text-anchor="start" x="647" y="-263.5" font-family="Helvetica,sans-Serif" font-size="10.00">lemons::plugin::MeterParameter</text>
<text text-anchor="middle" x="725.5" y="-252.5" font-family="Helvetica,sans-Serif" font-size="10.00">&lt; ValueType &gt;</text>
</a>
</g>
</g>
<!-- Node1&#45;&gt;Node8 -->
<g id="edge7" class="edge">
<title>Node1&#45;&gt;Node8</title>
<path fill="none" stroke="midnightblue" d="M554.15,-228.39C583.63,-233.95 616.19,-240.09 644.88,-245.49"/>
<polygon fill="midnightblue" stroke="midnightblue" points="554.75,-224.95 544.28,-226.53 553.45,-231.83 554.75,-224.95"/>
</g>
<!-- Node11 -->
<g id="node11" class="node">
<title>Node11</title>
<g id="a_node11"><a xlink:href="structlemons_1_1plugin_1_1_midi_pan_parameter.html" target="_top" xlink:title=" ">
<polygon fill="none" stroke="black" points="634,-196.5 634,-226.5 817,-226.5 817,-196.5 634,-196.5"/>
<text text-anchor="start" x="642" y="-214.5" font-family="Helvetica,sans-Serif" font-size="10.00">lemons::plugin::MidiPanParameter</text>
<text text-anchor="middle" x="725.5" y="-203.5" font-family="Helvetica,sans-Serif" font-size="10.00">&lt; int &gt;</text>
</a>
</g>
</g>
<!-- Node1&#45;&gt;Node11 -->
<g id="edge10" class="edge">
<title>Node1&#45;&gt;Node11</title>
<path fill="none" stroke="midnightblue" d="M560.52,-211.5C584.49,-211.5 610.12,-211.5 633.83,-211.5"/>
<polygon fill="midnightblue" stroke="midnightblue" points="560.35,-208 550.35,-211.5 560.35,-215 560.35,-208"/>
</g>
<!-- Node12 -->
<g id="node12" class="node">
<title>Node12</title>
<g id="a_node12"><a xlink:href="structlemons_1_1plugin_1_1_midi_pitch_parameter.html" target="_top" xlink:title=" ">
<polygon fill="none" stroke="black" points="655.5,-147.5 655.5,-177.5 795.5,-177.5 795.5,-147.5 655.5,-147.5"/>
<text text-anchor="start" x="663.5" y="-165.5" font-family="Helvetica,sans-Serif" font-size="10.00">lemons::plugin::MidiPitch</text>
<text text-anchor="middle" x="725.5" y="-154.5" font-family="Helvetica,sans-Serif" font-size="10.00">Parameter&lt; int &gt;</text>
</a>
</g>
</g>
<!-- Node1&#45;&gt;Node12 -->
<g id="edge11" class="edge">
<title>Node1&#45;&gt;Node12</title>
<path fill="none" stroke="midnightblue" d="M554.41,-194.55C587.51,-188.32 624.45,-181.36 655.42,-175.52"/>
<polygon fill="midnightblue" stroke="midnightblue" points="553.45,-191.17 544.28,-196.47 554.75,-198.05 553.45,-191.17"/>
</g>
<!-- Node13 -->
<g id="node13" class="node">
<title>Node13</title>
<g id="a_node13"><a xlink:href="structlemons_1_1plugin_1_1_percent_parameter.html" target="_top" xlink:title=" ">
<polygon fill="none" stroke="black" points="634.5,-98.5 634.5,-128.5 816.5,-128.5 816.5,-98.5 634.5,-98.5"/>
<text text-anchor="start" x="642.5" y="-116.5" font-family="Helvetica,sans-Serif" font-size="10.00">lemons::plugin::PercentParameter</text>
<text text-anchor="middle" x="725.5" y="-105.5" font-family="Helvetica,sans-Serif" font-size="10.00">&lt; int &gt;</text>
</a>
</g>
</g>
<!-- Node1&#45;&gt;Node13 -->
<g id="edge12" class="edge">
<title>Node1&#45;&gt;Node13</title>
<path fill="none" stroke="midnightblue" d="M504.29,-192.07C538.21,-176.01 588.55,-153.34 634,-137.5 643.21,-134.29 653.07,-131.27 662.78,-128.52"/>
<polygon fill="midnightblue" stroke="midnightblue" points="502.69,-188.95 495.17,-196.41 505.71,-195.27 502.69,-188.95"/>
</g>
<!-- Node14 -->
<g id="node14" class="node">
<title>Node14</title>
<g id="a_node14"><a xlink:href="structlemons_1_1plugin_1_1_semitones_parameter.html" target="_top" xlink:title=" ">
<polygon fill="none" stroke="black" points="652.5,-49.5 652.5,-79.5 798.5,-79.5 798.5,-49.5 652.5,-49.5"/>
<text text-anchor="start" x="660.5" y="-67.5" font-family="Helvetica,sans-Serif" font-size="10.00">lemons::plugin::Semitones</text>
<text text-anchor="middle" x="725.5" y="-56.5" font-family="Helvetica,sans-Serif" font-size="10.00">Parameter&lt; int &gt;</text>
</a>
</g>
</g>
<!-- Node1&#45;&gt;Node14 -->
<g id="edge13" class="edge">
<title>Node1&#45;&gt;Node14</title>
<path fill="none" stroke="midnightblue" d="M488.71,-189.41C520.03,-161.95 577.32,-115.42 634,-88.5 641.05,-85.15 648.63,-82.22 656.31,-79.65"/>
<polygon fill="midnightblue" stroke="midnightblue" points="486.12,-187.03 480.96,-196.28 490.76,-192.27 486.12,-187.03"/>
</g>
<!-- Node15 -->
<g id="node15" class="node">
<title>Node15</title>
<g id="a_node15"><a xlink:href="classlemons_1_1plugin_1_1_typed_parameter.html" target="_top" xlink:title=" ">
<polygon fill="none" stroke="black" points="639,-294.5 639,-324.5 812,-324.5 812,-294.5 639,-294.5"/>
<text text-anchor="start" x="647" y="-312.5" font-family="Helvetica,sans-Serif" font-size="10.00">lemons::plugin::TypedParameter</text>
<text text-anchor="middle" x="725.5" y="-301.5" font-family="Helvetica,sans-Serif" font-size="10.00">&lt; float &gt;</text>
</a>
</g>
</g>
<!-- Node1&#45;&gt;Node15 -->
<g id="edge14" class="edge">
<title>Node1&#45;&gt;Node15</title>
<path fill="none" stroke="orange" stroke-dasharray="5,2" d="M504.29,-230.93C538.21,-246.99 588.55,-269.66 634,-285.5 643.21,-288.71 653.07,-291.73 662.78,-294.48"/>
<polygon fill="orange" stroke="orange" points="505.71,-227.73 495.17,-226.59 502.69,-234.05 505.71,-227.73"/>
<text text-anchor="middle" x="592" y="-281.5" font-family="Helvetica,sans-Serif" font-size="10.00"> &lt; float &gt;</text>
</g>
<!-- Node19 -->
<g id="node19" class="node">
<title>Node19</title>
<g id="a_node19"><a xlink:href="classlemons_1_1plugin_1_1_typed_parameter.html" target="_top" xlink:title=" ">
<polygon fill="none" stroke="black" points="639,-0.5 639,-30.5 812,-30.5 812,-0.5 639,-0.5"/>
<text text-anchor="start" x="647" y="-18.5" font-family="Helvetica,sans-Serif" font-size="10.00">lemons::plugin::TypedParameter</text>
<text text-anchor="middle" x="725.5" y="-7.5" font-family="Helvetica,sans-Serif" font-size="10.00">&lt; bool &gt;</text>
</a>
</g>
</g>
<!-- Node1&#45;&gt;Node19 -->
<g id="edge20" class="edge">
<title>Node1&#45;&gt;Node19</title>
<path fill="none" stroke="orange" stroke-dasharray="5,2" d="M479.26,-187.86C505.12,-148.86 562.7,-72.1 634,-39.5 641.39,-36.12 649.35,-33.15 657.37,-30.55"/>
<polygon fill="orange" stroke="orange" points="476.18,-186.18 473.66,-196.47 482.05,-189.99 476.18,-186.18"/>
<text text-anchor="middle" x="592" y="-86.5" font-family="Helvetica,sans-Serif" font-size="10.00"> &lt; bool &gt;</text>
</g>
<!-- Node2 -->
<g id="node2" class="node">
<title>Node2</title>
<g id="a_node2"><a xlink:href="classlemons_1_1plugin_1_1_parameter.html" target="_top" xlink:title=" ">
<polygon fill="none" stroke="black" points="195,-202 195,-221 340,-221 340,-202 195,-202"/>
<text text-anchor="middle" x="267.5" y="-209" font-family="Helvetica,sans-Serif" font-size="10.00">lemons::plugin::Parameter</text>
</a>
</g>
</g>
<!-- Node2&#45;&gt;Node1 -->
<g id="edge1" class="edge">
<title>Node2&#45;&gt;Node1</title>
<path fill="none" stroke="midnightblue" d="M350.41,-211.5C359.2,-211.5 368.16,-211.5 376.99,-211.5"/>
<polygon fill="midnightblue" stroke="midnightblue" points="350.19,-208 340.19,-211.5 350.19,-215 350.19,-208"/>
</g>
<!-- Node3 -->
<g id="node3" class="node">
<title>Node3</title>
<g id="a_node3"><a xlink:title=" ">
<polygon fill="none" stroke="#bfbfbf" points="0,-202 0,-221 158,-221 158,-202 0,-202"/>
<text text-anchor="middle" x="79" y="-209" font-family="Helvetica,sans-Serif" font-size="10.00">juce::RangedAudioParameter</text>
</a>
</g>
</g>
<!-- Node3&#45;&gt;Node2 -->
<g id="edge2" class="edge">
<title>Node3&#45;&gt;Node2</title>
<path fill="none" stroke="midnightblue" d="M168.06,-211.5C177.01,-211.5 186.01,-211.5 194.75,-211.5"/>
<polygon fill="midnightblue" stroke="midnightblue" points="168.01,-208 158.01,-211.5 168.01,-215 168.01,-208"/>
</g>
<!-- Node6 -->
<g id="node6" class="node">
<title>Node6</title>
<g id="a_node6"><a xlink:href="classlemons_1_1plugin_1_1_meta_parameter.html" target="_top" xlink:title=" ">
<polygon fill="none" stroke="black" points="908.5,-382.5 908.5,-412.5 1078.5,-412.5 1078.5,-382.5 908.5,-382.5"/>
<text text-anchor="start" x="916.5" y="-400.5" font-family="Helvetica,sans-Serif" font-size="10.00">lemons::plugin::MetaParameter</text>
<text text-anchor="middle" x="993.5" y="-389.5" font-family="Helvetica,sans-Serif" font-size="10.00">&lt; float &gt;</text>
</a>
</g>
</g>
<!-- Node5&#45;&gt;Node6 -->
<g id="edge5" class="edge">
<title>Node5&#45;&gt;Node6</title>
<path fill="none" stroke="orange" stroke-dasharray="5,2" d="M820.62,-373.34C825.48,-374.08 830.3,-374.8 835,-375.5 858.76,-379.02 884.56,-382.69 908.27,-386"/>
<polygon fill="orange" stroke="orange" points="821,-369.86 810.59,-371.82 819.95,-376.78 821,-369.86"/>
<text text-anchor="middle" x="859" y="-384.5" font-family="Helvetica,sans-Serif" font-size="10.00"> &lt; float &gt;</text>
</g>
<!-- Node7 -->
<g id="node7" class="node">
<title>Node7</title>
<g id="a_node7"><a xlink:href="structlemons_1_1plugin_1_1_l_f_o.html" target="_top" xlink:title=" ">
<polygon fill="none" stroke="black" points="1154.5,-388 1154.5,-407 1267.5,-407 1267.5,-388 1154.5,-388"/>
<text text-anchor="middle" x="1211" y="-395" font-family="Helvetica,sans-Serif" font-size="10.00">lemons::plugin::LFO</text>
</a>
</g>
</g>
<!-- Node6&#45;&gt;Node7 -->
<g id="edge6" class="edge">
<title>Node6&#45;&gt;Node7</title>
<path fill="none" stroke="midnightblue" d="M1088.94,-397.5C1111.28,-397.5 1134.39,-397.5 1154.36,-397.5"/>
<polygon fill="midnightblue" stroke="midnightblue" points="1088.74,-394 1078.74,-397.5 1088.74,-401 1088.74,-394"/>
</g>
<!-- Node9 -->
<g id="node9" class="node">
<title>Node9</title>
<g id="a_node9"><a xlink:href="structlemons_1_1plugin_1_1_meter_parameter.html" target="_top" xlink:title=" ">
<polygon fill="none" stroke="black" points="907,-206.5 907,-236.5 1080,-236.5 1080,-206.5 907,-206.5"/>
<text text-anchor="start" x="915" y="-224.5" font-family="Helvetica,sans-Serif" font-size="10.00">lemons::plugin::MeterParameter</text>
<text text-anchor="middle" x="993.5" y="-213.5" font-family="Helvetica,sans-Serif" font-size="10.00">&lt; float &gt;</text>
</a>
</g>
</g>
<!-- Node8&#45;&gt;Node9 -->
<g id="edge8" class="edge">
<title>Node8&#45;&gt;Node9</title>
<path fill="none" stroke="orange" stroke-dasharray="5,2" d="M801.48,-242.07C806.82,-240.07 812.04,-237.88 817,-235.5 825.9,-231.23 825.62,-225.57 835,-222.5 857.61,-215.11 883.05,-212.63 906.77,-212.57"/>
<polygon fill="orange" stroke="orange" points="800.07,-238.86 791.8,-245.48 802.39,-245.46 800.07,-238.86"/>
<text text-anchor="middle" x="859" y="-225.5" font-family="Helvetica,sans-Serif" font-size="10.00"> &lt; float &gt;</text>
</g>
<!-- Node10 -->
<g id="node10" class="node">
<title>Node10</title>
<g id="a_node10"><a xlink:href="structlemons_1_1plugin_1_1_gain_meter_parameter.html" target="_top" xlink:title=" ">
<polygon fill="none" stroke="black" points="1138,-206.5 1138,-236.5 1284,-236.5 1284,-206.5 1138,-206.5"/>
<text text-anchor="start" x="1146" y="-224.5" font-family="Helvetica,sans-Serif" font-size="10.00">lemons::plugin::GainMeter</text>
<text text-anchor="middle" x="1211" y="-213.5" font-family="Helvetica,sans-Serif" font-size="10.00">Parameter</text>
</a>
</g>
</g>
<!-- Node9&#45;&gt;Node10 -->
<g id="edge9" class="edge">
<title>Node9&#45;&gt;Node10</title>
<path fill="none" stroke="midnightblue" d="M1090.62,-221.5C1106.43,-221.5 1122.58,-221.5 1137.69,-221.5"/>
<polygon fill="midnightblue" stroke="midnightblue" points="1090.29,-218 1080.29,-221.5 1090.29,-225 1090.29,-218"/>
</g>
<!-- Node15&#45;&gt;Node6 -->
<g id="edge18" class="edge">
<title>Node15&#45;&gt;Node6</title>
<path fill="none" stroke="midnightblue" d="M798.48,-327.69C804.81,-329.8 811.06,-332.07 817,-334.5 825.47,-337.97 826.78,-340.49 835,-344.5 863.63,-358.48 870.9,-362.06 901,-372.5 911.11,-376.01 921.99,-379.35 932.59,-382.38"/>
<polygon fill="midnightblue" stroke="midnightblue" points="799.09,-324.21 788.5,-324.51 796.97,-330.88 799.09,-324.21"/>
</g>
<!-- Node15&#45;&gt;Node9 -->
<g id="edge19" class="edge">
<title>Node15&#45;&gt;Node9</title>
<path fill="none" stroke="midnightblue" d="M798.94,-291.51C805.09,-289.61 811.18,-287.6 817,-285.5 855.71,-271.5 862.34,-260.64 901,-246.5 910.74,-242.94 921.23,-239.61 931.51,-236.63"/>
<polygon fill="midnightblue" stroke="midnightblue" points="797.84,-288.18 789.26,-294.39 799.84,-294.89 797.84,-288.18"/>
</g>
<!-- Node16 -->
<g id="node16" class="node">
<title>Node16</title>
<g id="a_node16"><a xlink:href="structlemons_1_1plugin_1_1_frequency_parameter.html" target="_top" xlink:title=" ">
<polygon fill="none" stroke="black" points="921,-294.5 921,-324.5 1066,-324.5 1066,-294.5 921,-294.5"/>
<text text-anchor="start" x="929" y="-312.5" font-family="Helvetica,sans-Serif" font-size="10.00">lemons::plugin::Frequency</text>
<text text-anchor="middle" x="993.5" y="-301.5" font-family="Helvetica,sans-Serif" font-size="10.00">Parameter</text>
</a>
</g>
</g>
<!-- Node15&#45;&gt;Node16 -->
<g id="edge15" class="edge">
<title>Node15&#45;&gt;Node16</title>
<path fill="none" stroke="midnightblue" d="M822.54,-309.5C854.99,-309.5 890.62,-309.5 920.85,-309.5"/>
<polygon fill="midnightblue" stroke="midnightblue" points="822.13,-306 812.13,-309.5 822.13,-313 822.13,-306"/>
</g>
<!-- Node17 -->
<g id="node17" class="node">
<title>Node17</title>
<g id="a_node17"><a xlink:href="structlemons_1_1plugin_1_1_gain_parameter.html" target="_top" xlink:title=" ">
<polygon fill="none" stroke="black" points="910,-256 910,-275 1077,-275 1077,-256 910,-256"/>
<text text-anchor="middle" x="993.5" y="-263" font-family="Helvetica,sans-Serif" font-size="10.00">lemons::plugin::GainParameter</text>
</a>
</g>
</g>
<!-- Node15&#45;&gt;Node17 -->
<g id="edge16" class="edge">
<title>Node15&#45;&gt;Node17</title>
<path fill="none" stroke="midnightblue" d="M822.12,-293.68C859.81,-287.45 901.87,-280.49 934.76,-275.05"/>
<polygon fill="midnightblue" stroke="midnightblue" points="821.42,-290.25 812.13,-295.34 822.57,-297.16 821.42,-290.25"/>
</g>
<!-- Node18 -->
<g id="node18" class="node">
<title>Node18</title>
<g id="a_node18"><a xlink:href="structlemons_1_1plugin_1_1_seconds_parameter.html" target="_top" xlink:title=" ">
<polygon fill="none" stroke="black" points="901,-344 901,-363 1086,-363 1086,-344 901,-344"/>
<text text-anchor="middle" x="993.5" y="-351" font-family="Helvetica,sans-Serif" font-size="10.00">lemons::plugin::SecondsParameter</text>
</a>
</g>
</g>
<!-- Node15&#45;&gt;Node18 -->
<g id="edge17" class="edge">
<title>Node15&#45;&gt;Node18</title>
<path fill="none" stroke="midnightblue" d="M822.12,-325.32C859.81,-331.55 901.87,-338.51 934.76,-343.95"/>
<polygon fill="midnightblue" stroke="midnightblue" points="822.57,-321.84 812.13,-323.66 821.42,-328.75 822.57,-321.84"/>
</g>
<!-- Node20 -->
<g id="node20" class="node">
<title>Node20</title>
<g id="a_node20"><a xlink:href="structlemons_1_1plugin_1_1_bool_parameter.html" target="_top" xlink:title=" ">
<polygon fill="none" stroke="black" points="910,-6 910,-25 1077,-25 1077,-6 910,-6"/>
<text text-anchor="middle" x="993.5" y="-13" font-family="Helvetica,sans-Serif" font-size="10.00">lemons::plugin::BoolParameter</text>
</a>
</g>
</g>
<!-- Node19&#45;&gt;Node20 -->
<g id="edge21" class="edge">
<title>Node19&#45;&gt;Node20</title>
<path fill="none" stroke="midnightblue" d="M822.15,-15.5C850.82,-15.5 882,-15.5 909.75,-15.5"/>
<polygon fill="midnightblue" stroke="midnightblue" points="822.13,-12 812.13,-15.5 822.13,-19 822.13,-12"/>
</g>
<!-- Node21 -->
<g id="node21" class="node">
<title>Node21</title>
<g id="a_node21"><a xlink:href="structlemons_1_1plugin_1_1_toggle_parameter.html" target="_top" xlink:title=" ">
<polygon fill="none" stroke="black" points="1123,-6 1123,-25 1299,-25 1299,-6 1123,-6"/>
<text text-anchor="middle" x="1211" y="-13" font-family="Helvetica,sans-Serif" font-size="10.00">lemons::plugin::ToggleParameter</text>
</a>
</g>
</g>
<!-- Node20&#45;&gt;Node21 -->
<g id="edge22" class="edge">
<title>Node20&#45;&gt;Node21</title>
<path fill="none" stroke="midnightblue" d="M1087.46,-15.5C1099.21,-15.5 1111.21,-15.5 1122.87,-15.5"/>
<polygon fill="midnightblue" stroke="midnightblue" points="1087.2,-12 1077.2,-15.5 1087.2,-19 1087.2,-12"/>
</g>
</g>
</svg>
        <g id="navigator" transform="translate(0 0)" fill="#404254">
                <rect fill="#f2f5e9" fill-opacity="0.5" stroke="#606060" stroke-width=".5" x="0" y="0" width="60" height="60"/>
                <use id="zoomplus" xlink:href="#zoomPlus" x="17" y="9" onmousedown="handleZoom(evt,'in')"/>
                <use id="zoomminus" xlink:href="#zoomMin" x="42" y="9" onmousedown="handleZoom(evt,'out')"/>
                <use id="reset" xlink:href="#resetDef" x="30" y="36" onmousedown="handleReset()"/>
                <g id="arrowUp" xlink:href="#dirArrow" transform="translate(30 24)" onmousedown="handlePan(0,-1)">
                  <use xlink:href="#rim" fill="#404040">
                        <set attributeName="fill" to="#808080" begin="arrowUp.mouseover" end="arrowUp.mouseout"/>
                  </use>
                  <path fill="none" stroke="white" stroke-width="1.5" d="M0,-3.0v7 M-2.5,-0.5L0,-3.0L2.5,-0.5"/>
                </g>
                <g id="arrowRight" xlink:href="#dirArrow" transform="rotate(90) translate(36 -43)" onmousedown="handlePan(1,0)">
                  <use xlink:href="#rim" fill="#404040">
                        <set attributeName="fill" to="#808080" begin="arrowRight.mouseover" end="arrowRight.mouseout"/>
                  </use>
                  <path fill="none" stroke="white" stroke-width="1.5" d="M0,-3.0v7 M-2.5,-0.5L0,-3.0L2.5,-0.5"/>
                </g>
                <g id="arrowDown" xlink:href="#dirArrow" transform="rotate(180) translate(-30 -48)" onmousedown="handlePan(0,1)">
                  <use xlink:href="#rim" fill="#404040">
                        <set attributeName="fill" to="#808080" begin="arrowDown.mouseover" end="arrowDown.mouseout"/>
                  </use>
                  <path fill="none" stroke="white" stroke-width="1.5" d="M0,-3.0v7 M-2.5,-0.5L0,-3.0L2.5,-0.5"/>
                </g>
                <g id="arrowLeft" xlink:href="#dirArrow" transform="rotate(270) translate(-36 17)" onmousedown="handlePan(-1,0)">
                  <use xlink:href="#rim" fill="#404040">
                        <set attributeName="fill" to="#808080" begin="arrowLeft.mouseover" end="arrowLeft.mouseout"/>
                  </use>
                  <path fill="none" stroke="white" stroke-width="1.5" d="M0,-3.0v7 M-2.5,-0.5L0,-3.0L2.5,-0.5"/>
                </g>
        </g>
        <svg viewBox="0 0 15 15" width="100%" height="30px" preserveAspectRatio="xMaxYMin meet">
         <g id="arrow_out" transform="scale(0.3 0.3)">
          <a xlink:href="classlemons_1_1plugin_1_1_typed_parameter__inherit__graph_org.svg" target="_base">
           <rect id="button" ry="5" rx="5" y="6" x="6" height="38" width="38"
                fill="#f2f5e9" fill-opacity="0.5" stroke="#606060" stroke-width="1.0"/>
           <path id="arrow"
             d="M 11.500037,31.436501 C 11.940474,20.09759 22.043105,11.32322 32.158766,21.979434 L 37.068811,17.246167 C 37.068811,17.246167 37.088388,32 37.088388,32 L 22.160133,31.978069 C 22.160133,31.978069 26.997745,27.140456 26.997745,27.140456 C 18.528582,18.264221 13.291696,25.230495 11.500037,31.436501 z"
             style="fill:#404040;"/>
          </a>
         </g>
        </svg>
</svg>
