<?xml version="1.0" encoding="UTF-8" standalone="no"?>
<!DOCTYPE svg PUBLIC "-//W3C//DTD SVG 1.1//EN"
 "http://www.w3.org/Graphics/SVG/1.1/DTD/svg11.dtd">
<!-- Generated by graphviz version 2.43.0 (0)
 -->
<!-- Title: lemons::plugin::TypedParameter&lt; ValueType &gt; Pages: 1 -->
<!--zoomable 284 -->
<svg id="main" version="1.1" xmlns="http://www.w3.org/2000/svg" xmlns:xlink="http://www.w3.org/1999/xlink" xml:space="preserve" onload="init(evt)">
<style type="text/css"><![CDATA[
.edge:hover path { stroke: red; }
.edge:hover polygon { stroke: red; fill: red; }
]]></style>
<script type="text/javascript"><![CDATA[
var edges = document.getElementsByTagName('g');
if (edges && edges.length) {
  for (var i=0;i<edges.length;i++) {
    if (edges[i].id.substr(0,4)=='edge') {
      edges[i].setAttribute('class','edge');
    }
  }
}
]]></script>
        <defs>
                <circle id="rim" cx="0" cy="0" r="7"/>
                <circle id="rim2" cx="0" cy="0" r="3.5"/>
                <g id="zoomPlus">
                        <use xlink:href="#rim" fill="#404040">
                                <set attributeName="fill" to="#808080" begin="zoomplus.mouseover" end="zoomplus.mouseout"/>
                        </use>
                        <path d="M-4,0h8M0,-4v8" fill="none" stroke="white" stroke-width="1.5" pointer-events="none"/>
                </g>
                <g id="zoomMin">
                        <use xlink:href="#rim" fill="#404040">
                                <set attributeName="fill" to="#808080" begin="zoomminus.mouseover" end="zoomminus.mouseout"/>
                        </use>
                        <path d="M-4,0h8" fill="none" stroke="white" stroke-width="1.5" pointer-events="none"/>
                </g>
                <g id="dirArrow">
                        <path fill="none" stroke="white" stroke-width="1.5" d="M0,-3.0v7 M-2.5,-0.5L0,-3.0L2.5,-0.5"/>
                </g>
               <g id="resetDef">
                       <use xlink:href="#rim2" fill="#404040">
                               <set attributeName="fill" to="#808080" begin="reset.mouseover" end="reset.mouseout"/>
                       </use>
               </g>
        </defs>

<script type="text/javascript">
var viewWidth = 1221;
var viewHeight = 284;
var sectionId = 'dynsection-0';
</script>
<script xlink:href="svgpan.js"/>
<svg id="graph" class="graph">
<g id="viewport">
<title>lemons::plugin::TypedParameter&lt; ValueType &gt;</title>
<!-- Node1 -->
<g id="node1" class="node">
<title>Node1</title>
<g id="a_node1"><a xlink:title=" ">
<polygon fill="#bfbfbf" stroke="black" points="358,-134.5 358,-164.5 531,-164.5 531,-134.5 358,-134.5"/>
<text text-anchor="start" x="366" y="-152.5" font-family="Helvetica,sans-Serif" font-size="10.00">lemons::plugin::TypedParameter</text>
<text text-anchor="middle" x="444.5" y="-141.5" font-family="Helvetica,sans-Serif" font-size="10.00">&lt; ValueType &gt;</text>
</a>
</g>
</g>
<!-- Node4 -->
<g id="node4" class="node">
<title>Node4</title>
<g id="a_node4"><a xlink:href="structlemons_1_1plugin_1_1FloatAmountParameter.html" target="_top" xlink:title=" ">
<polygon fill="none" stroke="black" points="626,-245.5 626,-275.5 784,-275.5 784,-245.5 626,-245.5"/>
<text text-anchor="start" x="634" y="-263.5" font-family="Helvetica,sans-Serif" font-size="10.00">lemons::plugin::FloatAmount</text>
<text text-anchor="middle" x="705" y="-252.5" font-family="Helvetica,sans-Serif" font-size="10.00">Parameter&lt; float &gt;</text>
</a>
</g>
</g>
<!-- Node1&#45;&gt;Node4 -->
<g id="edge3" class="edge">
<title>Node1&#45;&gt;Node4</title>
<path fill="none" stroke="midnightblue" d="M479.26,-169.7C512.58,-188.96 565.44,-217.74 614,-236.5 622.45,-239.76 631.51,-242.75 640.5,-245.42"/>
<polygon fill="midnightblue" stroke="midnightblue" points="480.8,-166.55 470.4,-164.53 477.27,-172.59 480.8,-166.55"/>
</g>
<!-- Node5 -->
<g id="node5" class="node">
<title>Node5</title>
<g id="a_node5"><a xlink:href="structlemons_1_1plugin_1_1FrequencyParameter.html" target="_top" xlink:title=" ">
<polygon fill="none" stroke="black" points="632.5,-196.5 632.5,-226.5 777.5,-226.5 777.5,-196.5 632.5,-196.5"/>
<text text-anchor="start" x="640.5" y="-214.5" font-family="Helvetica,sans-Serif" font-size="10.00">lemons::plugin::Frequency</text>
<text text-anchor="middle" x="705" y="-203.5" font-family="Helvetica,sans-Serif" font-size="10.00">Parameter&lt; float &gt;</text>
</a>
</g>
</g>
<!-- Node1&#45;&gt;Node5 -->
<g id="edge4" class="edge">
<title>Node1&#45;&gt;Node5</title>
<path fill="none" stroke="midnightblue" d="M518.23,-166.94C556.92,-176.22 604.01,-187.52 641.1,-196.41"/>
<polygon fill="midnightblue" stroke="midnightblue" points="518.62,-163.44 508.08,-164.51 516.98,-170.24 518.62,-163.44"/>
</g>
<!-- Node6 -->
<g id="node6" class="node">
<title>Node6</title>
<g id="a_node6"><a xlink:href="structlemons_1_1plugin_1_1GainParameter.html" target="_top" xlink:title=" ">
<polygon fill="none" stroke="black" points="621.5,-147.5 621.5,-177.5 788.5,-177.5 788.5,-147.5 621.5,-147.5"/>
<text text-anchor="start" x="629.5" y="-165.5" font-family="Helvetica,sans-Serif" font-size="10.00">lemons::plugin::GainParameter</text>
<text text-anchor="middle" x="705" y="-154.5" font-family="Helvetica,sans-Serif" font-size="10.00">&lt; float &gt;</text>
</a>
</g>
</g>
<!-- Node1&#45;&gt;Node6 -->
<g id="edge5" class="edge">
<title>Node1&#45;&gt;Node6</title>
<path fill="none" stroke="midnightblue" d="M541.52,-154.33C567.68,-155.64 595.79,-157.06 621.15,-158.33"/>
<polygon fill="midnightblue" stroke="midnightblue" points="541.38,-150.82 531.22,-153.81 541.03,-157.81 541.38,-150.82"/>
</g>
<!-- Node7 -->
<g id="node7" class="node">
<title>Node7</title>
<g id="a_node7"><a xlink:href="structlemons_1_1plugin_1_1MeterParameter.html" target="_top" xlink:title=" ">
<polygon fill="none" stroke="black" points="618.5,-98.5 618.5,-128.5 791.5,-128.5 791.5,-98.5 618.5,-98.5"/>
<text text-anchor="start" x="626.5" y="-116.5" font-family="Helvetica,sans-Serif" font-size="10.00">lemons::plugin::MeterParameter</text>
<text text-anchor="middle" x="705" y="-105.5" font-family="Helvetica,sans-Serif" font-size="10.00">&lt; float &gt;</text>
</a>
</g>
</g>
<!-- Node1&#45;&gt;Node7 -->
<g id="edge6" class="edge">
<title>Node1&#45;&gt;Node7</title>
<path fill="none" stroke="midnightblue" d="M541.15,-136.18C566.36,-132.67 593.41,-128.9 618.07,-125.47"/>
<polygon fill="midnightblue" stroke="midnightblue" points="540.64,-132.72 531.22,-137.56 541.6,-139.65 540.64,-132.72"/>
</g>
<!-- Node9 -->
<g id="node9" class="node">
<title>Node9</title>
<g id="a_node9"><a xlink:href="structlemons_1_1plugin_1_1PercentParameter.html" target="_top" xlink:title=" ">
<polygon fill="none" stroke="black" points="614,-49.5 614,-79.5 796,-79.5 796,-49.5 614,-49.5"/>
<text text-anchor="start" x="622" y="-67.5" font-family="Helvetica,sans-Serif" font-size="10.00">lemons::plugin::PercentParameter</text>
<text text-anchor="middle" x="705" y="-56.5" font-family="Helvetica,sans-Serif" font-size="10.00">&lt; int &gt;</text>
</a>
</g>
</g>
<!-- Node1&#45;&gt;Node9 -->
<g id="edge8" class="edge">
<title>Node1&#45;&gt;Node9</title>
<path fill="none" stroke="midnightblue" d="M493.54,-130.85C527.04,-118.16 572.93,-101.38 614,-88.5 623.87,-85.4 634.44,-82.35 644.73,-79.52"/>
<polygon fill="midnightblue" stroke="midnightblue" points="492.09,-127.66 483.99,-134.49 494.58,-134.2 492.09,-127.66"/>
</g>
<!-- Node10 -->
<g id="node10" class="node">
<title>Node10</title>
<g id="a_node10"><a xlink:href="classlemons_1_1plugin_1_1TypedParameter.html" target="_top" xlink:title=" ">
<polygon fill="none" stroke="black" points="618.5,-0.5 618.5,-30.5 791.5,-30.5 791.5,-0.5 618.5,-0.5"/>
<text text-anchor="start" x="626.5" y="-18.5" font-family="Helvetica,sans-Serif" font-size="10.00">lemons::plugin::TypedParameter</text>
<text text-anchor="middle" x="705" y="-7.5" font-family="Helvetica,sans-Serif" font-size="10.00">&lt; bool &gt;</text>
</a>
</g>
</g>
<!-- Node1&#45;&gt;Node10 -->
<g id="edge9" class="edge">
<title>Node1&#45;&gt;Node10</title>
<path fill="none" stroke="orange" stroke-dasharray="5,2" d="M471.92,-128.06C503.76,-103.25 559.79,-62.81 614,-39.5 621.72,-36.18 630.02,-33.22 638.35,-30.6"/>
<polygon fill="orange" stroke="orange" points="469.66,-125.38 463.98,-134.32 474,-130.88 469.66,-125.38"/>
<text text-anchor="middle" x="572.5" y="-76.5" font-family="Helvetica,sans-Serif" font-size="10.00"> &lt; bool &gt;</text>
</g>
<!-- Node2 -->
<g id="node2" class="node">
<title>Node2</title>
<g id="a_node2"><a xlink:href="classlemons_1_1plugin_1_1Parameter.html" target="_top" xlink:title=" ">
<polygon fill="none" stroke="black" points="176,-140 176,-159 321,-159 321,-140 176,-140"/>
<text text-anchor="middle" x="248.5" y="-147" font-family="Helvetica,sans-Serif" font-size="10.00">lemons::plugin::Parameter</text>
</a>
</g>
</g>
<!-- Node2&#45;&gt;Node1 -->
<g id="edge1" class="edge">
<title>Node2&#45;&gt;Node1</title>
<path fill="none" stroke="midnightblue" d="M331.41,-149.5C340.2,-149.5 349.16,-149.5 357.99,-149.5"/>
<polygon fill="midnightblue" stroke="midnightblue" points="331.19,-146 321.19,-149.5 331.19,-153 331.19,-146"/>
</g>
<!-- Node3 -->
<g id="node3" class="node">
<title>Node3</title>
<g id="a_node3"><a xlink:href="structlemons_1_1SerializableData.html" target="_top" xlink:title="Base class for any C++ object that needs to be serialized to binary and back.">
<polygon fill="none" stroke="black" points="0,-140 0,-159 139,-159 139,-140 0,-140"/>
<text text-anchor="middle" x="69.5" y="-147" font-family="Helvetica,sans-Serif" font-size="10.00">lemons::SerializableData</text>
</a>
</g>
</g>
<!-- Node3&#45;&gt;Node2 -->
<g id="edge2" class="edge">
<title>Node3&#45;&gt;Node2</title>
<path fill="none" stroke="midnightblue" d="M149.45,-149.5C158.27,-149.5 167.21,-149.5 175.93,-149.5"/>
<polygon fill="midnightblue" stroke="midnightblue" points="149.19,-146 139.19,-149.5 149.19,-153 149.19,-146"/>
</g>
<!-- Node8 -->
<g id="node8" class="node">
<title>Node8</title>
<g id="a_node8"><a xlink:href="structlemons_1_1plugin_1_1GainMeterParameter.html" target="_top" xlink:title=" ">
<polygon fill="none" stroke="black" points="843.5,-98.5 843.5,-128.5 989.5,-128.5 989.5,-98.5 843.5,-98.5"/>
<text text-anchor="start" x="851.5" y="-116.5" font-family="Helvetica,sans-Serif" font-size="10.00">lemons::plugin::GainMeter</text>
<text text-anchor="middle" x="916.5" y="-105.5" font-family="Helvetica,sans-Serif" font-size="10.00">Parameter</text>
</a>
</g>
</g>
<!-- Node7&#45;&gt;Node8 -->
<g id="edge7" class="edge">
<title>Node7&#45;&gt;Node8</title>
<path fill="none" stroke="midnightblue" d="M801.66,-113.5C815.66,-113.5 829.89,-113.5 843.31,-113.5"/>
<polygon fill="midnightblue" stroke="midnightblue" points="801.51,-110 791.51,-113.5 801.51,-117 801.51,-110"/>
</g>
<!-- Node11 -->
<g id="node11" class="node">
<title>Node11</title>
<g id="a_node11"><a xlink:href="structlemons_1_1plugin_1_1BoolParameter.html" target="_top" xlink:title=" ">
<polygon fill="none" stroke="black" points="833,-6 833,-25 1000,-25 1000,-6 833,-6"/>
<text text-anchor="middle" x="916.5" y="-13" font-family="Helvetica,sans-Serif" font-size="10.00">lemons::plugin::BoolParameter</text>
</a>
</g>
</g>
<!-- Node10&#45;&gt;Node11 -->
<g id="edge10" class="edge">
<title>Node10&#45;&gt;Node11</title>
<path fill="none" stroke="midnightblue" d="M801.53,-15.5C812.02,-15.5 822.65,-15.5 832.97,-15.5"/>
<polygon fill="midnightblue" stroke="midnightblue" points="801.51,-12 791.51,-15.5 801.51,-19 801.51,-12"/>
</g>
<!-- Node12 -->
<g id="node12" class="node">
<title>Node12</title>
<g id="a_node12"><a xlink:href="structlemons_1_1plugin_1_1ToggleParameter.html" target="_top" xlink:title=" ">
<polygon fill="none" stroke="black" points="1037,-6 1037,-25 1213,-25 1213,-6 1037,-6"/>
<text text-anchor="middle" x="1125" y="-13" font-family="Helvetica,sans-Serif" font-size="10.00">lemons::plugin::ToggleParameter</text>
</a>
</g>
</g>
<!-- Node11&#45;&gt;Node12 -->
<g id="edge11" class="edge">
<title>Node11&#45;&gt;Node12</title>
<path fill="none" stroke="midnightblue" d="M1010.03,-15.5C1018.97,-15.5 1028.01,-15.5 1036.89,-15.5"/>
<polygon fill="midnightblue" stroke="midnightblue" points="1010,-12 1000,-15.5 1010,-19 1010,-12"/>
</g>
</g>
</svg>
        <g id="navigator" transform="translate(0 0)" fill="#404254">
                <rect fill="#f2f5e9" fill-opacity="0.5" stroke="#606060" stroke-width=".5" x="0" y="0" width="60" height="60"/>
                <use id="zoomplus" xlink:href="#zoomPlus" x="17" y="9" onmousedown="handleZoom(evt,'in')"/>
                <use id="zoomminus" xlink:href="#zoomMin" x="42" y="9" onmousedown="handleZoom(evt,'out')"/>
                <use id="reset" xlink:href="#resetDef" x="30" y="36" onmousedown="handleReset()"/>
                <g id="arrowUp" xlink:href="#dirArrow" transform="translate(30 24)" onmousedown="handlePan(0,-1)">
                  <use xlink:href="#rim" fill="#404040">
                        <set attributeName="fill" to="#808080" begin="arrowUp.mouseover" end="arrowUp.mouseout"/>
                  </use>
                  <path fill="none" stroke="white" stroke-width="1.5" d="M0,-3.0v7 M-2.5,-0.5L0,-3.0L2.5,-0.5"/>
                </g>
                <g id="arrowRight" xlink:href="#dirArrow" transform="rotate(90) translate(36 -43)" onmousedown="handlePan(1,0)">
                  <use xlink:href="#rim" fill="#404040">
                        <set attributeName="fill" to="#808080" begin="arrowRight.mouseover" end="arrowRight.mouseout"/>
                  </use>
                  <path fill="none" stroke="white" stroke-width="1.5" d="M0,-3.0v7 M-2.5,-0.5L0,-3.0L2.5,-0.5"/>
                </g>
                <g id="arrowDown" xlink:href="#dirArrow" transform="rotate(180) translate(-30 -48)" onmousedown="handlePan(0,1)">
                  <use xlink:href="#rim" fill="#404040">
                        <set attributeName="fill" to="#808080" begin="arrowDown.mouseover" end="arrowDown.mouseout"/>
                  </use>
                  <path fill="none" stroke="white" stroke-width="1.5" d="M0,-3.0v7 M-2.5,-0.5L0,-3.0L2.5,-0.5"/>
                </g>
                <g id="arrowLeft" xlink:href="#dirArrow" transform="rotate(270) translate(-36 17)" onmousedown="handlePan(-1,0)">
                  <use xlink:href="#rim" fill="#404040">
                        <set attributeName="fill" to="#808080" begin="arrowLeft.mouseover" end="arrowLeft.mouseout"/>
                  </use>
                  <path fill="none" stroke="white" stroke-width="1.5" d="M0,-3.0v7 M-2.5,-0.5L0,-3.0L2.5,-0.5"/>
                </g>
        </g>
        <svg viewBox="0 0 15 15" width="100%" height="30px" preserveAspectRatio="xMaxYMin meet">
         <g id="arrow_out" transform="scale(0.3 0.3)">
          <a xlink:href="classlemons_1_1plugin_1_1TypedParameter__inherit__graph_org.svg" target="_base">
           <rect id="button" ry="5" rx="5" y="6" x="6" height="38" width="38"
                fill="#f2f5e9" fill-opacity="0.5" stroke="#606060" stroke-width="1.0"/>
           <path id="arrow"
             d="M 11.500037,31.436501 C 11.940474,20.09759 22.043105,11.32322 32.158766,21.979434 L 37.068811,17.246167 C 37.068811,17.246167 37.088388,32 37.088388,32 L 22.160133,31.978069 C 22.160133,31.978069 26.997745,27.140456 26.997745,27.140456 C 18.528582,18.264221 13.291696,25.230495 11.500037,31.436501 z"
             style="fill:#404040;"/>
          </a>
         </g>
        </svg>
</svg>
