<?xml version="1.0" encoding="UTF-8" standalone="no"?>
<!DOCTYPE svg PUBLIC "-//W3C//DTD SVG 1.1//EN"
 "http://www.w3.org/Graphics/SVG/1.1/DTD/svg11.dtd">
<!-- Generated by graphviz version 2.49.1 (20210923.0004)
 -->
<!-- Title: lemons::MotionManagerInterface Pages: 1 -->
<svg width="171pt" height="84pt"
 viewBox="0.00 0.00 171.00 84.00" xmlns="http://www.w3.org/2000/svg" xmlns:xlink="http://www.w3.org/1999/xlink">
<g id="graph0" class="graph" transform="scale(1 1) rotate(0) translate(4 80)">
<title>lemons::MotionManagerInterface</title>
<!-- Node1 -->
<g id="node1" class="node">
<title>Node1</title>
<g id="a_node1"><a xlink:title=" ">
<polygon fill="#bfbfbf" stroke="black" points="0,-56.5 0,-75.5 163,-75.5 163,-56.5 0,-56.5"/>
<text text-anchor="middle" x="81.5" y="-63.5" font-family="Helvetica,sans-Serif" font-size="10.00">lemons::MotionManagerInterface</text>
</a>
</g>
</g>
<!-- Node2 -->
<g id="node2" class="node">
<title>Node2</title>
<g id="a_node2"><a xlink:href="classlemons_1_1MotionManager.html" target="_top" xlink:title=" ">
<polygon fill="none" stroke="black" points="19.5,-0.5 19.5,-19.5 143.5,-19.5 143.5,-0.5 19.5,-0.5"/>
<text text-anchor="middle" x="81.5" y="-7.5" font-family="Helvetica,sans-Serif" font-size="10.00">lemons::MotionManager</text>
</a>
</g>
</g>
<!-- Node1&#45;&gt;Node2 -->
<g id="edge1" class="edge">
<title>Node1&#45;&gt;Node2</title>
<path fill="none" stroke="midnightblue" d="M68.6,-46.4C67.27,-37.36 68.15,-26.94 71.24,-19.75"/>
<polygon fill="midnightblue" stroke="midnightblue" points="65.22,-47.31 71.17,-56.08 71.99,-45.52 65.22,-47.31"/>
</g>
<!-- Node1&#45;&gt;Node2 -->
<g id="edge2" class="edge">
<title>Node1&#45;&gt;Node2</title>
<path fill="none" stroke="midnightblue" d="M81.5,-45.8C81.5,-36.91 81.5,-26.78 81.5,-19.75"/>
<polygon fill="midnightblue" stroke="midnightblue" points="78,-46.08 81.5,-56.08 85,-46.08 78,-46.08"/>
</g>
<!-- Node1&#45;&gt;Node2 -->
<g id="edge3" class="edge">
<title>Node1&#45;&gt;Node2</title>
<path fill="none" stroke="midnightblue" d="M94.4,-46.4C95.73,-37.36 94.85,-26.94 91.76,-19.75"/>
<polygon fill="midnightblue" stroke="midnightblue" points="91.01,-45.52 91.83,-56.08 97.78,-47.31 91.01,-45.52"/>
</g>
</g>
</svg>
