<?xml version="1.0" encoding="UTF-8" standalone="no"?>
<!DOCTYPE svg PUBLIC "-//W3C//DTD SVG 1.1//EN"
 "http://www.w3.org/Graphics/SVG/1.1/DTD/svg11.dtd">
<!-- Generated by graphviz version 2.50.0 (20211204.2007)
 -->
<!-- Title: lemons::dsp::Engine&lt; SampleType &gt; Pages: 1 -->
<!--zoomable 475 -->
<svg id="main" version="1.1" xmlns="http://www.w3.org/2000/svg" xmlns:xlink="http://www.w3.org/1999/xlink" xml:space="preserve" onload="init(evt)">
<style type="text/css"><![CDATA[
.edge:hover path { stroke: red; }
.edge:hover polygon { stroke: red; fill: red; }
]]></style>
<script type="text/javascript"><![CDATA[
var edges = document.getElementsByTagName('g');
if (edges && edges.length) {
  for (var i=0;i<edges.length;i++) {
    if (edges[i].id.substr(0,4)=='edge') {
      edges[i].setAttribute('class','edge');
    }
  }
}
]]></script>
        <defs>
                <circle id="rim" cx="0" cy="0" r="7"/>
                <circle id="rim2" cx="0" cy="0" r="3.5"/>
                <g id="zoomPlus">
                        <use xlink:href="#rim" fill="#404040">
                                <set attributeName="fill" to="#808080" begin="zoomplus.mouseover" end="zoomplus.mouseout"/>
                        </use>
                        <path d="M-4,0h8M0,-4v8" fill="none" stroke="white" stroke-width="1.5" pointer-events="none"/>
                </g>
                <g id="zoomMin">
                        <use xlink:href="#rim" fill="#404040">
                                <set attributeName="fill" to="#808080" begin="zoomminus.mouseover" end="zoomminus.mouseout"/>
                        </use>
                        <path d="M-4,0h8" fill="none" stroke="white" stroke-width="1.5" pointer-events="none"/>
                </g>
                <g id="dirArrow">
                        <path fill="none" stroke="white" stroke-width="1.5" d="M0,-3.0v7 M-2.5,-0.5L0,-3.0L2.5,-0.5"/>
                </g>
               <g id="resetDef">
                       <use xlink:href="#rim2" fill="#404040">
                               <set attributeName="fill" to="#808080" begin="reset.mouseover" end="reset.mouseout"/>
                       </use>
               </g>
        </defs>

<script type="text/javascript">
var viewWidth = 892;
var viewHeight = 475;
var sectionId = 'dynsection-0';
</script>
<script xlink:href="svgpan.js"/>
<svg id="graph" class="graph">
<g id="viewport">
<title>lemons::dsp::Engine&lt; SampleType &gt;</title>
<!-- Node1 -->
<g id="node1" class="node">
<title>Node1</title>
<g id="a_node1"><a xlink:title="Base class for an audio engine.">
<polygon fill="#bfbfbf" stroke="black" points="0,-239.5 0,-269.5 106,-269.5 106,-239.5 0,-239.5"/>
<text text-anchor="start" x="8" y="-257.5" font-family="Helvetica,sans-Serif" font-size="10.00">lemons::dsp::Engine</text>
<text text-anchor="middle" x="53" y="-246.5" font-family="Helvetica,sans-Serif" font-size="10.00">&lt; SampleType &gt;</text>
</a>
</g>
</g>
<!-- Node2 -->
<g id="node2" class="node">
<title>Node2</title>
<g id="a_node2"><a xlink:href="classlemons_1_1dsp_1_1_f_x_1_1_effect_engine.html" target="_top" xlink:title=" ">
<polygon fill="none" stroke="black" points="499,-400.5 499,-430.5 650,-430.5 650,-400.5 499,-400.5"/>
<text text-anchor="start" x="507" y="-418.5" font-family="Helvetica,sans-Serif" font-size="10.00">lemons::dsp::FX::EffectEngine</text>
<text text-anchor="middle" x="574.5" y="-407.5" font-family="Helvetica,sans-Serif" font-size="10.00">&lt; Filter, SampleType &gt;</text>
</a>
</g>
</g>
<!-- Node1&#45;&gt;Node2 -->
<g id="edge1" class="edge">
<title>Node1&#45;&gt;Node2</title>
<path fill="none" stroke="midnightblue" d="M58.69,-279.63C67.48,-318.68 90.51,-392.73 143,-424.5 266.27,-499.11 447.97,-456.26 530.22,-430.54"/>
<polygon fill="midnightblue" stroke="midnightblue" points="62.06,-278.67 56.58,-269.61 55.21,-280.12 62.06,-278.67"/>
</g>
<!-- Node4 -->
<g id="node4" class="node">
<title>Node4</title>
<g id="a_node4"><a xlink:href="classlemons_1_1dsp_1_1_stream_engine.html" target="_top" xlink:title=" ">
<polygon fill="none" stroke="black" points="506,-332.5 506,-362.5 643,-362.5 643,-332.5 506,-332.5"/>
<text text-anchor="start" x="514" y="-350.5" font-family="Helvetica,sans-Serif" font-size="10.00">lemons::dsp::StreamEngine</text>
<text text-anchor="middle" x="574.5" y="-339.5" font-family="Helvetica,sans-Serif" font-size="10.00">&lt; SampleType, OscType &gt;</text>
</a>
</g>
</g>
<!-- Node1&#45;&gt;Node4 -->
<g id="edge3" class="edge">
<title>Node1&#45;&gt;Node4</title>
<path fill="none" stroke="midnightblue" d="M71.12,-277.73C87.19,-297.45 113.18,-324.42 143,-336.5 263.22,-385.22 418.22,-372.95 505.64,-359.99"/>
<polygon fill="midnightblue" stroke="midnightblue" points="73.8,-275.47 64.86,-269.79 68.3,-279.81 73.8,-275.47"/>
</g>
<!-- Node6 -->
<g id="node6" class="node">
<title>Node6</title>
<g id="a_node6"><a xlink:href="classlemons_1_1dsp_1_1osc_1_1_choosable_oscillator.html" target="_top" xlink:title=" ">
<polygon fill="none" stroke="black" points="502.5,-235.5 502.5,-265.5 646.5,-265.5 646.5,-235.5 502.5,-235.5"/>
<text text-anchor="start" x="510.5" y="-253.5" font-family="Helvetica,sans-Serif" font-size="10.00">lemons::dsp::osc::Choosable</text>
<text text-anchor="middle" x="574.5" y="-242.5" font-family="Helvetica,sans-Serif" font-size="10.00">Oscillator&lt; float &gt;</text>
</a>
</g>
</g>
<!-- Node1&#45;&gt;Node6 -->
<g id="edge5" class="edge">
<title>Node1&#45;&gt;Node6</title>
<path fill="none" stroke="midnightblue" d="M116.59,-254.81C196.34,-255.1 338.42,-255.26 460,-253.5 473.7,-253.3 488.32,-252.99 502.36,-252.64"/>
<polygon fill="midnightblue" stroke="midnightblue" points="116.25,-251.31 106.24,-254.77 116.22,-258.31 116.25,-251.31"/>
</g>
<!-- Node7 -->
<g id="node7" class="node">
<title>Node7</title>
<g id="a_node7"><a xlink:href="classlemons_1_1dsp_1_1_f_x_1_1_effect_engine.html" target="_top" xlink:title="A class that wraps an AudioEffect into a dsp::Engine.">
<polygon fill="none" stroke="black" points="156.5,-384.5 156.5,-414.5 307.5,-414.5 307.5,-384.5 156.5,-384.5"/>
<text text-anchor="start" x="164.5" y="-402.5" font-family="Helvetica,sans-Serif" font-size="10.00">lemons::dsp::FX::EffectEngine</text>
<text text-anchor="middle" x="232" y="-391.5" font-family="Helvetica,sans-Serif" font-size="10.00">&lt; EffectType, SampleType, &gt;</text>
</a>
</g>
</g>
<!-- Node1&#45;&gt;Node7 -->
<g id="edge6" class="edge">
<title>Node1&#45;&gt;Node7</title>
<path fill="none" stroke="midnightblue" d="M62.75,-279.31C73.27,-305.56 93.42,-346.31 124,-369.5 133.61,-376.78 144.9,-382.3 156.49,-386.48"/>
<polygon fill="midnightblue" stroke="midnightblue" points="65.91,-277.79 59.07,-269.7 59.38,-280.29 65.91,-277.79"/>
</g>
<!-- Node8 -->
<g id="node8" class="node">
<title>Node8</title>
<g id="a_node8"><a xlink:href="classlemons_1_1dsp_1_1_latency_engine.html" target="_top" xlink:title="Base class for audio engines that require latency (ie, a consistent block size) for their processing.">
<polygon fill="none" stroke="black" points="162,-159.5 162,-189.5 302,-189.5 302,-159.5 162,-159.5"/>
<text text-anchor="start" x="170" y="-177.5" font-family="Helvetica,sans-Serif" font-size="10.00">lemons::dsp::LatencyEngine</text>
<text text-anchor="middle" x="232" y="-166.5" font-family="Helvetica,sans-Serif" font-size="10.00">&lt; SampleType &gt;</text>
</a>
</g>
</g>
<!-- Node1&#45;&gt;Node8 -->
<g id="edge8" class="edge">
<title>Node1&#45;&gt;Node8</title>
<path fill="none" stroke="midnightblue" d="M82.99,-233.73C99.86,-222.39 121.91,-208.8 143,-199.5 151.43,-195.78 160.56,-192.47 169.63,-189.56"/>
<polygon fill="midnightblue" stroke="midnightblue" points="80.94,-230.89 74.67,-239.43 84.9,-236.67 80.94,-230.89"/>
</g>
<!-- Node12 -->
<g id="node12" class="node">
<title>Node12</title>
<g id="a_node12"><a xlink:href="structlemons_1_1dsp_1_1_midi_processor_engine.html" target="_top" xlink:title=" ">
<polygon fill="none" stroke="black" points="143,-99 143,-140 321,-140 321,-99 143,-99"/>
<text text-anchor="start" x="151" y="-128" font-family="Helvetica,sans-Serif" font-size="10.00">lemons::dsp::MidiProcessor</text>
<text text-anchor="start" x="151" y="-117" font-family="Helvetica,sans-Serif" font-size="10.00">Engine&lt; SampleType, MidiProcessor</text>
<text text-anchor="middle" x="232" y="-106" font-family="Helvetica,sans-Serif" font-size="10.00">Type, &gt;</text>
</a>
</g>
</g>
<!-- Node1&#45;&gt;Node12 -->
<g id="edge12" class="edge">
<title>Node1&#45;&gt;Node12</title>
<path fill="none" stroke="midnightblue" d="M68.99,-230.57C84.78,-207.15 111.68,-171.97 143,-150.5 148.61,-146.65 154.75,-143.24 161.09,-140.21"/>
<polygon fill="midnightblue" stroke="midnightblue" points="65.88,-228.93 63.3,-239.21 71.73,-232.78 65.88,-228.93"/>
</g>
<!-- Node13 -->
<g id="node13" class="node">
<title>Node13</title>
<g id="a_node13"><a xlink:href="classlemons_1_1dsp_1_1_protector.html" target="_top" xlink:title="A DSP engine that, under normal conditions, simply passes the audio through; if any samples are inf o...">
<polygon fill="none" stroke="black" points="174,-49.5 174,-79.5 290,-79.5 290,-49.5 174,-49.5"/>
<text text-anchor="start" x="182" y="-67.5" font-family="Helvetica,sans-Serif" font-size="10.00">lemons::dsp::Protector</text>
<text text-anchor="middle" x="232" y="-56.5" font-family="Helvetica,sans-Serif" font-size="10.00">&lt; SampleType &gt;</text>
</a>
</g>
</g>
<!-- Node1&#45;&gt;Node13 -->
<g id="edge13" class="edge">
<title>Node1&#45;&gt;Node13</title>
<path fill="none" stroke="midnightblue" d="M60.76,-229.33C71.82,-193.01 97.26,-126.22 143,-89.5 151.92,-82.34 162.78,-77.23 173.79,-73.58"/>
<polygon fill="midnightblue" stroke="midnightblue" points="57.34,-228.56 57.9,-239.14 64.06,-230.52 57.34,-228.56"/>
</g>
<!-- Node14 -->
<g id="node14" class="node">
<title>Node14</title>
<g id="a_node14"><a xlink:href="classlemons_1_1dsp_1_1_stream_engine.html" target="_top" xlink:title="A utility class that wraps a SampleStream into a self&#45;contained dsp::Engine.">
<polygon fill="none" stroke="black" points="157,-296.5 157,-326.5 307,-326.5 307,-296.5 157,-296.5"/>
<text text-anchor="start" x="165" y="-314.5" font-family="Helvetica,sans-Serif" font-size="10.00">lemons::dsp::StreamEngine</text>
<text text-anchor="middle" x="232" y="-303.5" font-family="Helvetica,sans-Serif" font-size="10.00">&lt; SampleType, StreamType, &gt;</text>
</a>
</g>
</g>
<!-- Node1&#45;&gt;Node14 -->
<g id="edge14" class="edge">
<title>Node1&#45;&gt;Node14</title>
<path fill="none" stroke="midnightblue" d="M100.78,-273.25C108.49,-276.13 116.44,-278.99 124,-281.5 139.93,-286.79 157.39,-291.95 173.5,-296.46"/>
<polygon fill="midnightblue" stroke="midnightblue" points="101.77,-269.88 91.18,-269.59 99.28,-276.42 101.77,-269.88"/>
</g>
<!-- Node15 -->
<g id="node15" class="node">
<title>Node15</title>
<g id="a_node15"><a xlink:href="classlemons_1_1dsp_1_1osc_1_1_choosable_oscillator.html" target="_top" xlink:title="A class that encapsulates together all the kinds of oscillators, and allows you to seamlessly switch ...">
<polygon fill="none" stroke="black" points="160,-208.5 160,-238.5 304,-238.5 304,-208.5 160,-208.5"/>
<text text-anchor="start" x="168" y="-226.5" font-family="Helvetica,sans-Serif" font-size="10.00">lemons::dsp::osc::Choosable</text>
<text text-anchor="middle" x="232" y="-215.5" font-family="Helvetica,sans-Serif" font-size="10.00">Oscillator&lt; SampleType &gt;</text>
</a>
</g>
</g>
<!-- Node1&#45;&gt;Node15 -->
<g id="edge16" class="edge">
<title>Node1&#45;&gt;Node15</title>
<path fill="none" stroke="midnightblue" d="M116.23,-243.6C130.34,-241.13 145.43,-238.49 159.88,-235.96"/>
<polygon fill="midnightblue" stroke="midnightblue" points="115.39,-240.19 106.15,-245.37 116.6,-247.09 115.39,-240.19"/>
</g>
<!-- Node16 -->
<g id="node16" class="node">
<title>Node16</title>
<g id="a_node16"><a xlink:href="classlemons_1_1plugin_1_1_processor_engine.html" target="_top" xlink:title="A kind of dsp::Engine that holds a ProcessorHolder.">
<polygon fill="none" stroke="black" points="167,-0.5 167,-30.5 297,-30.5 297,-0.5 167,-0.5"/>
<text text-anchor="start" x="175" y="-18.5" font-family="Helvetica,sans-Serif" font-size="10.00">lemons::plugin::Processor</text>
<text text-anchor="middle" x="232" y="-7.5" font-family="Helvetica,sans-Serif" font-size="10.00">Engine&lt; SampleType &gt;</text>
</a>
</g>
</g>
<!-- Node1&#45;&gt;Node16 -->
<g id="edge18" class="edge">
<title>Node1&#45;&gt;Node16</title>
<path fill="none" stroke="midnightblue" d="M57.32,-229.18C64.55,-184.42 85.91,-91.26 143,-40.5 149.88,-34.38 158.17,-29.75 166.86,-26.25"/>
<polygon fill="midnightblue" stroke="midnightblue" points="53.84,-228.81 55.81,-239.22 60.76,-229.85 53.84,-228.81"/>
</g>
<!-- Node3 -->
<g id="node3" class="node">
<title>Node3</title>
<g id="a_node3"><a xlink:href="structlemons_1_1dsp_1_1_f_x_1_1_filter_engine.html" target="_top" xlink:title="A class that represents an audio engine holding a filter effect.">
<polygon fill="none" stroke="black" points="723,-400.5 723,-430.5 869,-430.5 869,-400.5 723,-400.5"/>
<text text-anchor="start" x="731" y="-418.5" font-family="Helvetica,sans-Serif" font-size="10.00">lemons::dsp::FX::FilterEngine</text>
<text text-anchor="middle" x="796" y="-407.5" font-family="Helvetica,sans-Serif" font-size="10.00">&lt; SampleType &gt;</text>
</a>
</g>
</g>
<!-- Node2&#45;&gt;Node3 -->
<g id="edge2" class="edge">
<title>Node2&#45;&gt;Node3</title>
<path fill="none" stroke="midnightblue" d="M660.16,-415.5C680.84,-415.5 702.78,-415.5 722.82,-415.5"/>
<polygon fill="midnightblue" stroke="midnightblue" points="660.12,-412 650.12,-415.5 660.12,-419 660.12,-412"/>
</g>
<!-- Node5 -->
<g id="node5" class="node">
<title>Node5</title>
<g id="a_node5"><a xlink:href="classlemons_1_1dsp_1_1osc_1_1_engine.html" target="_top" xlink:title=" ">
<polygon fill="none" stroke="black" points="727.5,-332.5 727.5,-362.5 864.5,-362.5 864.5,-332.5 727.5,-332.5"/>
<text text-anchor="start" x="735.5" y="-350.5" font-family="Helvetica,sans-Serif" font-size="10.00">lemons::dsp::osc::Engine</text>
<text text-anchor="middle" x="796" y="-339.5" font-family="Helvetica,sans-Serif" font-size="10.00">&lt; SampleType, OscType, &gt;</text>
</a>
</g>
</g>
<!-- Node4&#45;&gt;Node5 -->
<g id="edge4" class="edge">
<title>Node4&#45;&gt;Node5</title>
<path fill="none" stroke="midnightblue" d="M653.33,-347.5C677.45,-347.5 703.82,-347.5 727.2,-347.5"/>
<polygon fill="midnightblue" stroke="midnightblue" points="653.15,-344 643.15,-347.5 653.15,-351 653.15,-344"/>
</g>
<!-- Node7&#45;&gt;Node2 -->
<g id="edge7" class="edge">
<title>Node7&#45;&gt;Node2</title>
<path fill="none" stroke="orange" stroke-dasharray="5,2" d="M317.91,-403.49C373.53,-406.1 445.55,-409.49 498.95,-412"/>
<polygon fill="orange" stroke="orange" points="317.88,-399.98 307.72,-403.01 317.55,-406.98 317.88,-399.98"/>
<text text-anchor="middle" x="399.5" y="-412.5" font-family="Helvetica,sans-Serif" font-size="10.00"> &lt; Filter, SampleType &gt;</text>
</g>
<!-- Node9 -->
<g id="node9" class="node">
<title>Node9</title>
<g id="a_node9"><a xlink:href="classlemons_1_1dsp_1_1_audio_file_player.html" target="_top" xlink:title="A kind of AudioEngine that plays audio from an AudioFile object.">
<polygon fill="none" stroke="black" points="502.5,-168.5 502.5,-198.5 646.5,-198.5 646.5,-168.5 502.5,-168.5"/>
<text text-anchor="start" x="510.5" y="-186.5" font-family="Helvetica,sans-Serif" font-size="10.00">lemons::dsp::AudioFilePlayer</text>
<text text-anchor="middle" x="574.5" y="-175.5" font-family="Helvetica,sans-Serif" font-size="10.00">&lt; SampleType &gt;</text>
</a>
</g>
</g>
<!-- Node8&#45;&gt;Node9 -->
<g id="edge9" class="edge">
<title>Node8&#45;&gt;Node9</title>
<path fill="none" stroke="midnightblue" d="M312.44,-176.6C369.87,-178.12 446.78,-180.15 502.23,-181.62"/>
<polygon fill="midnightblue" stroke="midnightblue" points="312.4,-173.1 302.32,-176.33 312.22,-180.1 312.4,-173.1"/>
</g>
<!-- Node10 -->
<g id="node10" class="node">
<title>Node10</title>
<g id="a_node10"><a xlink:href="classlemons_1_1dsp_1_1_engine_chain.html" target="_top" xlink:title="A kind of engine that contains a chain of other Engine objects.">
<polygon fill="none" stroke="black" points="509,-119.5 509,-149.5 640,-149.5 640,-119.5 509,-119.5"/>
<text text-anchor="start" x="517" y="-137.5" font-family="Helvetica,sans-Serif" font-size="10.00">lemons::dsp::EngineChain</text>
<text text-anchor="middle" x="574.5" y="-126.5" font-family="Helvetica,sans-Serif" font-size="10.00">&lt; SampleType &gt;</text>
</a>
</g>
</g>
<!-- Node8&#45;&gt;Node10 -->
<g id="edge10" class="edge">
<title>Node8&#45;&gt;Node10</title>
<path fill="none" stroke="midnightblue" d="M312.47,-165.16C372.23,-158.14 453.08,-148.65 508.89,-142.09"/>
<polygon fill="midnightblue" stroke="midnightblue" points="311.84,-161.71 302.32,-166.36 312.66,-168.67 311.84,-161.71"/>
</g>
<!-- Node11 -->
<g id="node11" class="node">
<title>Node11</title>
<g id="a_node11"><a xlink:href="classlemons_1_1dsp_1_1_built_engine_chain.html" target="_top" xlink:title="An EngineChain that you can pass templated Engine types to and it will instantiate them all and add t...">
<polygon fill="none" stroke="black" points="708,-119.5 708,-149.5 884,-149.5 884,-119.5 708,-119.5"/>
<text text-anchor="start" x="716" y="-137.5" font-family="Helvetica,sans-Serif" font-size="10.00">lemons::dsp::BuiltEngine</text>
<text text-anchor="middle" x="796" y="-126.5" font-family="Helvetica,sans-Serif" font-size="10.00">Chain&lt; SampleType, EngineTypes &gt;</text>
</a>
</g>
</g>
<!-- Node10&#45;&gt;Node11 -->
<g id="edge11" class="edge">
<title>Node10&#45;&gt;Node11</title>
<path fill="none" stroke="midnightblue" d="M650.25,-134.5C668.7,-134.5 688.62,-134.5 707.61,-134.5"/>
<polygon fill="midnightblue" stroke="midnightblue" points="650.17,-131 640.17,-134.5 650.17,-138 650.17,-131"/>
</g>
<!-- Node14&#45;&gt;Node4 -->
<g id="edge15" class="edge">
<title>Node14&#45;&gt;Node4</title>
<path fill="none" stroke="orange" stroke-dasharray="5,2" d="M317.34,-317.24C360.14,-320.49 412.91,-325.01 460,-330.5 474.84,-332.23 490.73,-334.41 505.78,-336.62"/>
<polygon fill="orange" stroke="orange" points="317.48,-313.75 307.24,-316.49 316.95,-320.73 317.48,-313.75"/>
<text text-anchor="middle" x="399.5" y="-333.5" font-family="Helvetica,sans-Serif" font-size="10.00"> &lt; SampleType, OscType &gt;</text>
</g>
<!-- Node15&#45;&gt;Node6 -->
<g id="edge17" class="edge">
<title>Node15&#45;&gt;Node6</title>
<path fill="none" stroke="orange" stroke-dasharray="5,2" d="M314.47,-229.96C371.67,-234.5 447.42,-240.5 502.21,-244.85"/>
<polygon fill="orange" stroke="orange" points="314.63,-226.46 304.38,-229.16 314.07,-233.44 314.63,-226.46"/>
<text text-anchor="middle" x="399.5" y="-243.5" font-family="Helvetica,sans-Serif" font-size="10.00"> &lt; float &gt;</text>
</g>
<!-- Node17 -->
<g id="node17" class="node">
<title>Node17</title>
<g id="a_node17"><a xlink:href="structlemons_1_1plugin_1_1_typed_processor_engine.html" target="_top" xlink:title="A ProcessorEngine that instantiates a custom subclass of AudioProcessor and automatically creates a P...">
<polygon fill="none" stroke="black" points="478,-0.5 478,-30.5 671,-30.5 671,-0.5 478,-0.5"/>
<text text-anchor="start" x="486" y="-18.5" font-family="Helvetica,sans-Serif" font-size="10.00">lemons::plugin::TypedProcessor</text>
<text text-anchor="middle" x="574.5" y="-7.5" font-family="Helvetica,sans-Serif" font-size="10.00">Engine&lt; SampleType, ProcessorType, &gt;</text>
</a>
</g>
</g>
<!-- Node16&#45;&gt;Node17 -->
<g id="edge19" class="edge">
<title>Node16&#45;&gt;Node17</title>
<path fill="none" stroke="midnightblue" d="M307.15,-15.5C357.23,-15.5 423.81,-15.5 477.87,-15.5"/>
<polygon fill="midnightblue" stroke="midnightblue" points="307.05,-12 297.05,-15.5 307.05,-19 307.05,-12"/>
</g>
</g>
</svg>
        <g id="navigator" transform="translate(0 0)" fill="#404254">
                <rect fill="#f2f5e9" fill-opacity="0.5" stroke="#606060" stroke-width=".5" x="0" y="0" width="60" height="60"/>
                <use id="zoomplus" xlink:href="#zoomPlus" x="17" y="9" onmousedown="handleZoom(evt,'in')"/>
                <use id="zoomminus" xlink:href="#zoomMin" x="42" y="9" onmousedown="handleZoom(evt,'out')"/>
                <use id="reset" xlink:href="#resetDef" x="30" y="36" onmousedown="handleReset()"/>
                <g id="arrowUp" xlink:href="#dirArrow" transform="translate(30 24)" onmousedown="handlePan(0,-1)">
                  <use xlink:href="#rim" fill="#404040">
                        <set attributeName="fill" to="#808080" begin="arrowUp.mouseover" end="arrowUp.mouseout"/>
                  </use>
                  <path fill="none" stroke="white" stroke-width="1.5" d="M0,-3.0v7 M-2.5,-0.5L0,-3.0L2.5,-0.5"/>
                </g>
                <g id="arrowRight" xlink:href="#dirArrow" transform="rotate(90) translate(36 -43)" onmousedown="handlePan(1,0)">
                  <use xlink:href="#rim" fill="#404040">
                        <set attributeName="fill" to="#808080" begin="arrowRight.mouseover" end="arrowRight.mouseout"/>
                  </use>
                  <path fill="none" stroke="white" stroke-width="1.5" d="M0,-3.0v7 M-2.5,-0.5L0,-3.0L2.5,-0.5"/>
                </g>
                <g id="arrowDown" xlink:href="#dirArrow" transform="rotate(180) translate(-30 -48)" onmousedown="handlePan(0,1)">
                  <use xlink:href="#rim" fill="#404040">
                        <set attributeName="fill" to="#808080" begin="arrowDown.mouseover" end="arrowDown.mouseout"/>
                  </use>
                  <path fill="none" stroke="white" stroke-width="1.5" d="M0,-3.0v7 M-2.5,-0.5L0,-3.0L2.5,-0.5"/>
                </g>
                <g id="arrowLeft" xlink:href="#dirArrow" transform="rotate(270) translate(-36 17)" onmousedown="handlePan(-1,0)">
                  <use xlink:href="#rim" fill="#404040">
                        <set attributeName="fill" to="#808080" begin="arrowLeft.mouseover" end="arrowLeft.mouseout"/>
                  </use>
                  <path fill="none" stroke="white" stroke-width="1.5" d="M0,-3.0v7 M-2.5,-0.5L0,-3.0L2.5,-0.5"/>
                </g>
        </g>
        <svg viewBox="0 0 15 15" width="100%" height="30px" preserveAspectRatio="xMaxYMin meet">
         <g id="arrow_out" transform="scale(0.3 0.3)">
          <a xlink:href="classlemons_1_1dsp_1_1_engine__inherit__graph_org.svg" target="_base">
           <rect id="button" ry="5" rx="5" y="6" x="6" height="38" width="38"
                fill="#f2f5e9" fill-opacity="0.5" stroke="#606060" stroke-width="1.0"/>
           <path id="arrow"
             d="M 11.500037,31.436501 C 11.940474,20.09759 22.043105,11.32322 32.158766,21.979434 L 37.068811,17.246167 C 37.068811,17.246167 37.088388,32 37.088388,32 L 22.160133,31.978069 C 22.160133,31.978069 26.997745,27.140456 26.997745,27.140456 C 18.528582,18.264221 13.291696,25.230495 11.500037,31.436501 z"
             style="fill:#404040;"/>
          </a>
         </g>
        </svg>
</svg>
