<?xml version="1.0" encoding="UTF-8" standalone="no"?>
<!DOCTYPE svg PUBLIC "-//W3C//DTD SVG 1.1//EN"
 "http://www.w3.org/Graphics/SVG/1.1/DTD/svg11.dtd">
<!-- Generated by graphviz version 2.43.0 (0)
 -->
<!-- Title: lemons::dsp::osc::OscEngine&lt; SampleType, OscType &gt; Pages: 1 -->
<svg width="642pt" height="587pt"
 viewBox="0.00 0.00 642.00 587.00" xmlns="http://www.w3.org/2000/svg" xmlns:xlink="http://www.w3.org/1999/xlink">
<g id="graph0" class="graph" transform="scale(1 1) rotate(0) translate(4 583)">
<title>lemons::dsp::osc::OscEngine&lt; SampleType, OscType &gt;</title>
<!-- Node1 -->
<g id="node1" class="node">
<title>Node1</title>
<g id="a_node1"><a xlink:title=" ">
<polygon fill="#bfbfbf" stroke="black" points="152,-276 152,-306 307,-306 307,-276 152,-276"/>
<text text-anchor="start" x="160" y="-294" font-family="Helvetica,sans-Serif" font-size="10.00">lemons::dsp::osc::OscEngine</text>
<text text-anchor="middle" x="229.5" y="-283" font-family="Helvetica,sans-Serif" font-size="10.00">&lt; SampleType, OscType &gt;</text>
</a>
</g>
</g>
<!-- Node3 -->
<g id="node3" class="node">
<title>Node3</title>
<g id="a_node3"><a xlink:href="classlemons_1_1dsp_1_1osc_1_1OscEngine.html" target="_top" xlink:title=" ">
<polygon fill="none" stroke="black" points="469,-530.5 469,-571.5 624,-571.5 624,-530.5 469,-530.5"/>
<text text-anchor="start" x="477" y="-559.5" font-family="Helvetica,sans-Serif" font-size="10.00">lemons::dsp::osc::OscEngine</text>
<text text-anchor="start" x="477" y="-548.5" font-family="Helvetica,sans-Serif" font-size="10.00">&lt; SampleType, lemons::dsp</text>
<text text-anchor="middle" x="546.5" y="-537.5" font-family="Helvetica,sans-Serif" font-size="10.00">::osc::Sine &gt;</text>
</a>
</g>
</g>
<!-- Node1&#45;&gt;Node3 -->
<g id="edge2" class="edge">
<title>Node1&#45;&gt;Node3</title>
<path fill="none" stroke="orange" stroke-dasharray="5,2" d="M232.89,-316.22C238.91,-364.34 259.25,-469.02 325,-520 365.33,-551.27 422.69,-558.53 468.8,-558.23"/>
<polygon fill="orange" stroke="orange" points="236.35,-315.59 231.73,-306.05 229.39,-316.38 236.35,-315.59"/>
<text text-anchor="start" x="325" y="-571" font-family="Helvetica,sans-Serif" font-size="10.00"> &lt; SampleType, lemons</text>
<text text-anchor="middle" x="383" y="-560" font-family="Helvetica,sans-Serif" font-size="10.00">::dsp::osc::Sine &gt;</text>
</g>
<!-- Node4 -->
<g id="node4" class="node">
<title>Node4</title>
<g id="a_node4"><a xlink:href="classlemons_1_1dsp_1_1osc_1_1OscEngine.html" target="_top" xlink:title=" ">
<polygon fill="none" stroke="black" points="459,-481 459,-511 634,-511 634,-481 459,-481"/>
<text text-anchor="start" x="467" y="-499" font-family="Helvetica,sans-Serif" font-size="10.00">lemons::dsp::osc::OscEngine</text>
<text text-anchor="middle" x="546.5" y="-488" font-family="Helvetica,sans-Serif" font-size="10.00">&lt; float, lemons::dsp::osc::Saw &gt;</text>
</a>
</g>
</g>
<!-- Node1&#45;&gt;Node4 -->
<g id="edge3" class="edge">
<title>Node1&#45;&gt;Node4</title>
<path fill="none" stroke="orange" stroke-dasharray="5,2" d="M237.4,-315.96C248.99,-352.88 276.04,-421.41 325,-456 363.61,-483.28 415.24,-493.67 458.83,-497.07"/>
<polygon fill="orange" stroke="orange" points="240.65,-314.58 234.42,-306.01 233.94,-316.59 240.65,-314.58"/>
<text text-anchor="start" x="332" y="-508" font-family="Helvetica,sans-Serif" font-size="10.00"> &lt; float, lemons::dsp</text>
<text text-anchor="middle" x="383" y="-497" font-family="Helvetica,sans-Serif" font-size="10.00">::osc::Saw &gt;</text>
</g>
<!-- Node5 -->
<g id="node5" class="node">
<title>Node5</title>
<g id="a_node5"><a xlink:href="classlemons_1_1dsp_1_1osc_1_1OscEngine.html" target="_top" xlink:title=" ">
<polygon fill="none" stroke="black" points="469,-420.5 469,-461.5 624,-461.5 624,-420.5 469,-420.5"/>
<text text-anchor="start" x="477" y="-449.5" font-family="Helvetica,sans-Serif" font-size="10.00">lemons::dsp::osc::OscEngine</text>
<text text-anchor="start" x="477" y="-438.5" font-family="Helvetica,sans-Serif" font-size="10.00">&lt; SampleType, lemons::dsp</text>
<text text-anchor="middle" x="546.5" y="-427.5" font-family="Helvetica,sans-Serif" font-size="10.00">::osc::Saw &gt;</text>
</a>
</g>
</g>
<!-- Node1&#45;&gt;Node5 -->
<g id="edge4" class="edge">
<title>Node1&#45;&gt;Node5</title>
<path fill="none" stroke="orange" stroke-dasharray="5,2" d="M246.24,-314.44C263.01,-337.52 291.7,-372.01 325,-391 368.9,-416.04 424.42,-428.54 468.76,-434.78"/>
<polygon fill="orange" stroke="orange" points="249.04,-312.34 240.41,-306.2 243.33,-316.39 249.04,-312.34"/>
<text text-anchor="start" x="325" y="-444" font-family="Helvetica,sans-Serif" font-size="10.00"> &lt; SampleType, lemons</text>
<text text-anchor="middle" x="383" y="-433" font-family="Helvetica,sans-Serif" font-size="10.00">::dsp::osc::Saw &gt;</text>
</g>
<!-- Node6 -->
<g id="node6" class="node">
<title>Node6</title>
<g id="a_node6"><a xlink:href="classlemons_1_1dsp_1_1osc_1_1OscEngine.html" target="_top" xlink:title=" ">
<polygon fill="none" stroke="black" points="469,-360.5 469,-401.5 624,-401.5 624,-360.5 469,-360.5"/>
<text text-anchor="start" x="477" y="-389.5" font-family="Helvetica,sans-Serif" font-size="10.00">lemons::dsp::osc::OscEngine</text>
<text text-anchor="start" x="477" y="-378.5" font-family="Helvetica,sans-Serif" font-size="10.00">&lt; float, lemons::dsp::osc</text>
<text text-anchor="middle" x="546.5" y="-367.5" font-family="Helvetica,sans-Serif" font-size="10.00">::SuperSaw &gt;</text>
</a>
</g>
</g>
<!-- Node1&#45;&gt;Node6 -->
<g id="edge5" class="edge">
<title>Node1&#45;&gt;Node6</title>
<path fill="none" stroke="orange" stroke-dasharray="5,2" d="M266.18,-311.06C283.5,-320.09 304.87,-330.22 325,-337 371.7,-352.74 425.97,-363.65 468.98,-370.68"/>
<polygon fill="orange" stroke="orange" points="267.49,-307.79 257.01,-306.19 264.2,-313.97 267.49,-307.79"/>
<text text-anchor="start" x="332" y="-379" font-family="Helvetica,sans-Serif" font-size="10.00"> &lt; float, lemons::dsp</text>
<text text-anchor="middle" x="383" y="-368" font-family="Helvetica,sans-Serif" font-size="10.00">::osc::SuperSaw &gt;</text>
</g>
<!-- Node7 -->
<g id="node7" class="node">
<title>Node7</title>
<g id="a_node7"><a xlink:href="classlemons_1_1dsp_1_1osc_1_1OscEngine.html" target="_top" xlink:title=" ">
<polygon fill="none" stroke="black" points="469,-300.5 469,-341.5 624,-341.5 624,-300.5 469,-300.5"/>
<text text-anchor="start" x="477" y="-329.5" font-family="Helvetica,sans-Serif" font-size="10.00">lemons::dsp::osc::OscEngine</text>
<text text-anchor="start" x="477" y="-318.5" font-family="Helvetica,sans-Serif" font-size="10.00">&lt; float, lemons::dsp::osc</text>
<text text-anchor="middle" x="546.5" y="-307.5" font-family="Helvetica,sans-Serif" font-size="10.00">::Square &gt;</text>
</a>
</g>
</g>
<!-- Node1&#45;&gt;Node7 -->
<g id="edge6" class="edge">
<title>Node1&#45;&gt;Node7</title>
<path fill="none" stroke="orange" stroke-dasharray="5,2" d="M317.11,-299.25C364.6,-303.77 422.94,-309.33 468.77,-313.69"/>
<polygon fill="orange" stroke="orange" points="317.44,-295.76 307.15,-298.3 316.78,-302.73 317.44,-295.76"/>
<text text-anchor="start" x="332" y="-325" font-family="Helvetica,sans-Serif" font-size="10.00"> &lt; float, lemons::dsp</text>
<text text-anchor="middle" x="383" y="-314" font-family="Helvetica,sans-Serif" font-size="10.00">::osc::Square &gt;</text>
</g>
<!-- Node8 -->
<g id="node8" class="node">
<title>Node8</title>
<g id="a_node8"><a xlink:href="classlemons_1_1dsp_1_1osc_1_1OscEngine.html" target="_top" xlink:title=" ">
<polygon fill="none" stroke="black" points="469,-240.5 469,-281.5 624,-281.5 624,-240.5 469,-240.5"/>
<text text-anchor="start" x="477" y="-269.5" font-family="Helvetica,sans-Serif" font-size="10.00">lemons::dsp::osc::OscEngine</text>
<text text-anchor="start" x="477" y="-258.5" font-family="Helvetica,sans-Serif" font-size="10.00">&lt; SampleType, lemons::dsp</text>
<text text-anchor="middle" x="546.5" y="-247.5" font-family="Helvetica,sans-Serif" font-size="10.00">::osc::Triangle &gt;</text>
</a>
</g>
</g>
<!-- Node1&#45;&gt;Node8 -->
<g id="edge7" class="edge">
<title>Node1&#45;&gt;Node8</title>
<path fill="none" stroke="orange" stroke-dasharray="5,2" d="M317.31,-275.94C319.9,-275.61 322.47,-275.29 325,-275 372.63,-269.47 426.32,-266 468.79,-263.9"/>
<polygon fill="orange" stroke="orange" points="316.68,-272.5 307.25,-277.32 317.63,-279.43 316.68,-272.5"/>
<text text-anchor="start" x="325" y="-289" font-family="Helvetica,sans-Serif" font-size="10.00"> &lt; SampleType, lemons</text>
<text text-anchor="middle" x="383" y="-278" font-family="Helvetica,sans-Serif" font-size="10.00">::dsp::osc::Triangle &gt;</text>
</g>
<!-- Node9 -->
<g id="node9" class="node">
<title>Node9</title>
<g id="a_node9"><a xlink:href="classlemons_1_1dsp_1_1osc_1_1OscEngine.html" target="_top" xlink:title=" ">
<polygon fill="none" stroke="black" points="469,-180.5 469,-221.5 624,-221.5 624,-180.5 469,-180.5"/>
<text text-anchor="start" x="477" y="-209.5" font-family="Helvetica,sans-Serif" font-size="10.00">lemons::dsp::osc::OscEngine</text>
<text text-anchor="start" x="477" y="-198.5" font-family="Helvetica,sans-Serif" font-size="10.00">&lt; float, lemons::dsp::osc</text>
<text text-anchor="middle" x="546.5" y="-187.5" font-family="Helvetica,sans-Serif" font-size="10.00">::Sine &gt;</text>
</a>
</g>
</g>
<!-- Node1&#45;&gt;Node9 -->
<g id="edge8" class="edge">
<title>Node1&#45;&gt;Node9</title>
<path fill="none" stroke="orange" stroke-dasharray="5,2" d="M262.41,-270.45C280.19,-259.87 303.11,-247.62 325,-240 371.44,-223.83 425.83,-214.12 468.97,-208.43"/>
<polygon fill="orange" stroke="orange" points="260.34,-267.61 253.61,-275.8 263.97,-273.6 260.34,-267.61"/>
<text text-anchor="start" x="332" y="-254" font-family="Helvetica,sans-Serif" font-size="10.00"> &lt; float, lemons::dsp</text>
<text text-anchor="middle" x="383" y="-243" font-family="Helvetica,sans-Serif" font-size="10.00">::osc::Sine &gt;</text>
</g>
<!-- Node10 -->
<g id="node10" class="node">
<title>Node10</title>
<g id="a_node10"><a xlink:href="classlemons_1_1dsp_1_1osc_1_1OscEngine.html" target="_top" xlink:title=" ">
<polygon fill="none" stroke="black" points="469,-120.5 469,-161.5 624,-161.5 624,-120.5 469,-120.5"/>
<text text-anchor="start" x="477" y="-149.5" font-family="Helvetica,sans-Serif" font-size="10.00">lemons::dsp::osc::OscEngine</text>
<text text-anchor="start" x="477" y="-138.5" font-family="Helvetica,sans-Serif" font-size="10.00">&lt; SampleType, lemons::dsp</text>
<text text-anchor="middle" x="546.5" y="-127.5" font-family="Helvetica,sans-Serif" font-size="10.00">::osc::SuperSaw &gt;</text>
</a>
</g>
</g>
<!-- Node1&#45;&gt;Node10 -->
<g id="edge9" class="edge">
<title>Node1&#45;&gt;Node10</title>
<path fill="none" stroke="orange" stroke-dasharray="5,2" d="M245.75,-267.15C262.31,-243.3 291,-207.43 325,-188 368.84,-162.95 424.49,-151.21 468.91,-145.73"/>
<polygon fill="orange" stroke="orange" points="242.71,-265.4 240.01,-275.65 248.51,-269.32 242.71,-265.4"/>
<text text-anchor="start" x="325" y="-202" font-family="Helvetica,sans-Serif" font-size="10.00"> &lt; SampleType, lemons</text>
<text text-anchor="middle" x="383" y="-191" font-family="Helvetica,sans-Serif" font-size="10.00">::dsp::osc::SuperSaw &gt;</text>
</g>
<!-- Node11 -->
<g id="node11" class="node">
<title>Node11</title>
<g id="a_node11"><a xlink:href="classlemons_1_1dsp_1_1osc_1_1OscEngine.html" target="_top" xlink:title=" ">
<polygon fill="none" stroke="black" points="469,-60.5 469,-101.5 624,-101.5 624,-60.5 469,-60.5"/>
<text text-anchor="start" x="477" y="-89.5" font-family="Helvetica,sans-Serif" font-size="10.00">lemons::dsp::osc::OscEngine</text>
<text text-anchor="start" x="477" y="-78.5" font-family="Helvetica,sans-Serif" font-size="10.00">&lt; SampleType, lemons::dsp</text>
<text text-anchor="middle" x="546.5" y="-67.5" font-family="Helvetica,sans-Serif" font-size="10.00">::osc::Square &gt;</text>
</a>
</g>
</g>
<!-- Node1&#45;&gt;Node11 -->
<g id="edge10" class="edge">
<title>Node1&#45;&gt;Node11</title>
<path fill="none" stroke="orange" stroke-dasharray="5,2" d="M237.37,-265.83C248.92,-228.57 275.92,-159.35 325,-124 366.46,-94.14 423.23,-83.58 468.78,-80.39"/>
<polygon fill="orange" stroke="orange" points="233.88,-265.28 234.4,-275.86 240.59,-267.27 233.88,-265.28"/>
<text text-anchor="start" x="325" y="-138" font-family="Helvetica,sans-Serif" font-size="10.00"> &lt; SampleType, lemons</text>
<text text-anchor="middle" x="383" y="-127" font-family="Helvetica,sans-Serif" font-size="10.00">::dsp::osc::Square &gt;</text>
</g>
<!-- Node12 -->
<g id="node12" class="node">
<title>Node12</title>
<g id="a_node12"><a xlink:href="classlemons_1_1dsp_1_1osc_1_1OscEngine.html" target="_top" xlink:title=" ">
<polygon fill="none" stroke="black" points="469,-0.5 469,-41.5 624,-41.5 624,-0.5 469,-0.5"/>
<text text-anchor="start" x="477" y="-29.5" font-family="Helvetica,sans-Serif" font-size="10.00">lemons::dsp::osc::OscEngine</text>
<text text-anchor="start" x="477" y="-18.5" font-family="Helvetica,sans-Serif" font-size="10.00">&lt; float, lemons::dsp::osc</text>
<text text-anchor="middle" x="546.5" y="-7.5" font-family="Helvetica,sans-Serif" font-size="10.00">::Triangle &gt;</text>
</a>
</g>
</g>
<!-- Node1&#45;&gt;Node12 -->
<g id="edge11" class="edge">
<title>Node1&#45;&gt;Node12</title>
<path fill="none" stroke="orange" stroke-dasharray="5,2" d="M232.83,-265.82C238.76,-217.29 258.99,-110.93 325,-58 365.05,-25.89 422.57,-17.08 468.81,-16.07"/>
<polygon fill="orange" stroke="orange" points="229.35,-265.47 231.72,-275.79 236.31,-266.24 229.35,-265.47"/>
<text text-anchor="start" x="332" y="-72" font-family="Helvetica,sans-Serif" font-size="10.00"> &lt; float, lemons::dsp</text>
<text text-anchor="middle" x="383" y="-61" font-family="Helvetica,sans-Serif" font-size="10.00">::osc::Triangle &gt;</text>
</g>
<!-- Node2 -->
<g id="node2" class="node">
<title>Node2</title>
<g id="a_node2"><a xlink:href="classlemons_1_1dsp_1_1Engine.html" target="_top" xlink:title="Base class for an audio engine.">
<polygon fill="none" stroke="black" points="0,-276 0,-306 115,-306 115,-276 0,-276"/>
<text text-anchor="start" x="8" y="-294" font-family="Helvetica,sans-Serif" font-size="10.00">lemons::dsp::Engine</text>
<text text-anchor="middle" x="57.5" y="-283" font-family="Helvetica,sans-Serif" font-size="10.00">&lt; SampleType &gt;</text>
</a>
</g>
</g>
<!-- Node2&#45;&gt;Node1 -->
<g id="edge1" class="edge">
<title>Node2&#45;&gt;Node1</title>
<path fill="none" stroke="midnightblue" d="M125.22,-291C133.96,-291 142.98,-291 151.87,-291"/>
<polygon fill="midnightblue" stroke="midnightblue" points="125.11,-287.5 115.11,-291 125.11,-294.5 125.11,-287.5"/>
</g>
</g>
</svg>
