<?xml version="1.0" encoding="UTF-8" standalone="no"?>
<!DOCTYPE svg PUBLIC "-//W3C//DTD SVG 1.1//EN"
 "http://www.w3.org/Graphics/SVG/1.1/DTD/svg11.dtd">
<!-- Generated by graphviz version 2.43.0 (0)
 -->
<!-- Title: lemons::plugin::Parameter Pages: 1 -->
<svg width="1089pt" height="504pt"
 viewBox="0.00 0.00 1089.00 504.00" xmlns="http://www.w3.org/2000/svg" xmlns:xlink="http://www.w3.org/1999/xlink">
<g id="graph0" class="graph" transform="scale(1 1) rotate(0) translate(4 500)">
<title>lemons::plugin::Parameter</title>
<!-- Node1 -->
<g id="node1" class="node">
<title>Node1</title>
<g id="a_node1"><a xlink:title="A plugin parameter class.">
<polygon fill="#bfbfbf" stroke="black" points="0,-226 0,-245 145,-245 145,-226 0,-226"/>
<text text-anchor="middle" x="72.5" y="-233" font-family="Helvetica,sans-Serif" font-size="10.00">lemons::plugin::Parameter</text>
</a>
</g>
</g>
<!-- Node2 -->
<g id="node2" class="node">
<title>Node2</title>
<g id="a_node2"><a xlink:href="classlemons_1_1plugin_1_1_typed_parameter.html" target="_top" xlink:title="A parameter that can be stored as a type other than a float, but still inherits from my Parameter bas...">
<polygon fill="none" stroke="black" points="182,-220.5 182,-250.5 355,-250.5 355,-220.5 182,-220.5"/>
<text text-anchor="start" x="190" y="-238.5" font-family="Helvetica,sans-Serif" font-size="10.00">lemons::plugin::TypedParameter</text>
<text text-anchor="middle" x="268.5" y="-227.5" font-family="Helvetica,sans-Serif" font-size="10.00">&lt; ValueType &gt;</text>
</a>
</g>
</g>
<!-- Node1&#45;&gt;Node2 -->
<g id="edge1" class="edge">
<title>Node1&#45;&gt;Node2</title>
<path fill="none" stroke="midnightblue" d="M155.41,-235.5C164.2,-235.5 173.16,-235.5 181.99,-235.5"/>
<polygon fill="midnightblue" stroke="midnightblue" points="155.19,-232 145.19,-235.5 155.19,-239 155.19,-232"/>
</g>
<!-- Node14 -->
<g id="node14" class="node">
<title>Node14</title>
<g id="a_node14"><a xlink:href="classlemons_1_1plugin_1_1_typed_parameter.html" target="_top" xlink:title=" ">
<polygon fill="none" stroke="black" points="444,-441.5 444,-471.5 617,-471.5 617,-441.5 444,-441.5"/>
<text text-anchor="start" x="452" y="-459.5" font-family="Helvetica,sans-Serif" font-size="10.00">lemons::plugin::TypedParameter</text>
<text text-anchor="middle" x="530.5" y="-448.5" font-family="Helvetica,sans-Serif" font-size="10.00">&lt; int &gt;</text>
</a>
</g>
</g>
<!-- Node1&#45;&gt;Node14 -->
<g id="edge21" class="edge">
<title>Node1&#45;&gt;Node14</title>
<path fill="none" stroke="midnightblue" d="M91.89,-251.82C136.49,-290.38 255.39,-387.29 373,-432.5 395.19,-441.03 420.26,-446.54 443.72,-450.09"/>
<polygon fill="midnightblue" stroke="midnightblue" points="94.05,-249.06 84.22,-245.12 89.45,-254.33 94.05,-249.06"/>
</g>
<!-- Node17 -->
<g id="node17" class="node">
<title>Node17</title>
<g id="a_node17"><a xlink:href="classlemons_1_1plugin_1_1_typed_parameter.html" target="_top" xlink:title=" ">
<polygon fill="none" stroke="black" points="444,-0.5 444,-30.5 617,-30.5 617,-0.5 444,-0.5"/>
<text text-anchor="start" x="452" y="-18.5" font-family="Helvetica,sans-Serif" font-size="10.00">lemons::plugin::TypedParameter</text>
<text text-anchor="middle" x="530.5" y="-7.5" font-family="Helvetica,sans-Serif" font-size="10.00">&lt; bool &gt;</text>
</a>
</g>
</g>
<!-- Node1&#45;&gt;Node17 -->
<g id="edge20" class="edge">
<title>Node1&#45;&gt;Node17</title>
<path fill="none" stroke="midnightblue" d="M92.75,-219.56C138.32,-182.69 257.65,-91.22 373,-45.5 395.25,-36.68 420.33,-30.4 443.79,-25.94"/>
<polygon fill="midnightblue" stroke="midnightblue" points="90.42,-216.94 84.88,-225.98 94.84,-222.37 90.42,-216.94"/>
</g>
<!-- Node3 -->
<g id="node3" class="node">
<title>Node3</title>
<g id="a_node3"><a xlink:href="structlemons_1_1plugin_1_1_float_amount_parameter.html" target="_top" xlink:title="A parameter that represents a value in a normalized 0&#45;1 range.">
<polygon fill="none" stroke="black" points="451.5,-392.5 451.5,-422.5 609.5,-422.5 609.5,-392.5 451.5,-392.5"/>
<text text-anchor="start" x="459.5" y="-410.5" font-family="Helvetica,sans-Serif" font-size="10.00">lemons::plugin::FloatAmount</text>
<text text-anchor="middle" x="530.5" y="-399.5" font-family="Helvetica,sans-Serif" font-size="10.00">Parameter&lt; float &gt;</text>
</a>
</g>
</g>
<!-- Node2&#45;&gt;Node3 -->
<g id="edge2" class="edge">
<title>Node2&#45;&gt;Node3</title>
<path fill="none" stroke="midnightblue" d="M288.91,-258.47C317.93,-291.29 375.9,-351.22 438,-383.5 444.56,-386.91 451.64,-389.86 458.85,-392.41"/>
<polygon fill="midnightblue" stroke="midnightblue" points="291.38,-255.98 282.17,-250.74 286.1,-260.58 291.38,-255.98"/>
</g>
<!-- Node4 -->
<g id="node4" class="node">
<title>Node4</title>
<g id="a_node4"><a xlink:href="structlemons_1_1plugin_1_1_frequency_parameter.html" target="_top" xlink:title="A parameter that represents a frequency in Hz.">
<polygon fill="none" stroke="black" points="458,-343.5 458,-373.5 603,-373.5 603,-343.5 458,-343.5"/>
<text text-anchor="start" x="466" y="-361.5" font-family="Helvetica,sans-Serif" font-size="10.00">lemons::plugin::Frequency</text>
<text text-anchor="middle" x="530.5" y="-350.5" font-family="Helvetica,sans-Serif" font-size="10.00">Parameter&lt; float &gt;</text>
</a>
</g>
</g>
<!-- Node2&#45;&gt;Node4 -->
<g id="edge3" class="edge">
<title>Node2&#45;&gt;Node4</title>
<path fill="none" stroke="midnightblue" d="M299.46,-256.55C332.17,-278.68 386.74,-313.2 438,-334.5 446.04,-337.84 454.67,-340.83 463.3,-343.46"/>
<polygon fill="midnightblue" stroke="midnightblue" points="301.07,-253.41 290.84,-250.66 297.12,-259.19 301.07,-253.41"/>
</g>
<!-- Node5 -->
<g id="node5" class="node">
<title>Node5</title>
<g id="a_node5"><a xlink:href="structlemons_1_1plugin_1_1_gain_parameter.html" target="_top" xlink:title="A parameter that represents a gain value in decibels.">
<polygon fill="none" stroke="black" points="447,-294.5 447,-324.5 614,-324.5 614,-294.5 447,-294.5"/>
<text text-anchor="start" x="455" y="-312.5" font-family="Helvetica,sans-Serif" font-size="10.00">lemons::plugin::GainParameter</text>
<text text-anchor="middle" x="530.5" y="-301.5" font-family="Helvetica,sans-Serif" font-size="10.00">&lt; float &gt;</text>
</a>
</g>
</g>
<!-- Node2&#45;&gt;Node5 -->
<g id="edge4" class="edge">
<title>Node2&#45;&gt;Node5</title>
<path fill="none" stroke="midnightblue" d="M328.51,-253.51C360.78,-263.24 401.51,-275.3 438,-285.5 448.6,-288.46 459.92,-291.52 470.85,-294.41"/>
<polygon fill="midnightblue" stroke="midnightblue" points="329.36,-250.11 318.78,-250.57 327.34,-256.82 329.36,-250.11"/>
</g>
<!-- Node6 -->
<g id="node6" class="node">
<title>Node6</title>
<g id="a_node6"><a xlink:href="classlemons_1_1plugin_1_1_meta_parameter.html" target="_top" xlink:title=" ">
<polygon fill="none" stroke="black" points="445.5,-245.5 445.5,-275.5 615.5,-275.5 615.5,-245.5 445.5,-245.5"/>
<text text-anchor="start" x="453.5" y="-263.5" font-family="Helvetica,sans-Serif" font-size="10.00">lemons::plugin::MetaParameter</text>
<text text-anchor="middle" x="530.5" y="-252.5" font-family="Helvetica,sans-Serif" font-size="10.00">&lt; ValueType &gt;</text>
</a>
</g>
</g>
<!-- Node2&#45;&gt;Node6 -->
<g id="edge5" class="edge">
<title>Node2&#45;&gt;Node6</title>
<path fill="none" stroke="midnightblue" d="M365.62,-244.74C391.68,-247.25 419.7,-249.94 445.06,-252.38"/>
<polygon fill="midnightblue" stroke="midnightblue" points="365.64,-241.23 355.35,-243.76 364.97,-248.2 365.64,-241.23"/>
</g>
<!-- Node9 -->
<g id="node9" class="node">
<title>Node9</title>
<g id="a_node9"><a xlink:href="structlemons_1_1plugin_1_1_meter_parameter.html" target="_top" xlink:title="A parameter that represents a general kind of meter, used for reporting things like level or gain red...">
<polygon fill="none" stroke="black" points="444,-196.5 444,-226.5 617,-226.5 617,-196.5 444,-196.5"/>
<text text-anchor="start" x="452" y="-214.5" font-family="Helvetica,sans-Serif" font-size="10.00">lemons::plugin::MeterParameter</text>
<text text-anchor="middle" x="530.5" y="-203.5" font-family="Helvetica,sans-Serif" font-size="10.00">&lt; float &gt;</text>
</a>
</g>
</g>
<!-- Node2&#45;&gt;Node9 -->
<g id="edge8" class="edge">
<title>Node2&#45;&gt;Node9</title>
<path fill="none" stroke="midnightblue" d="M365.46,-226.64C391.11,-224.27 418.67,-221.73 443.74,-219.42"/>
<polygon fill="midnightblue" stroke="midnightblue" points="364.99,-223.17 355.35,-227.57 365.63,-230.14 364.99,-223.17"/>
</g>
<!-- Node11 -->
<g id="node11" class="node">
<title>Node11</title>
<g id="a_node11"><a xlink:href="structlemons_1_1plugin_1_1_midi_pan_parameter.html" target="_top" xlink:title="A parameter that represents a MIDI panning value in the range 0 to 127.">
<polygon fill="none" stroke="black" points="439,-147.5 439,-177.5 622,-177.5 622,-147.5 439,-147.5"/>
<text text-anchor="start" x="447" y="-165.5" font-family="Helvetica,sans-Serif" font-size="10.00">lemons::plugin::MidiPanParameter</text>
<text text-anchor="middle" x="530.5" y="-154.5" font-family="Helvetica,sans-Serif" font-size="10.00">&lt; int &gt;</text>
</a>
</g>
</g>
<!-- Node2&#45;&gt;Node11 -->
<g id="edge10" class="edge">
<title>Node2&#45;&gt;Node11</title>
<path fill="none" stroke="midnightblue" d="M331.45,-217.68C363.27,-208.57 402.69,-197.35 438,-187.5 449.58,-184.27 461.99,-180.85 473.83,-177.61"/>
<polygon fill="midnightblue" stroke="midnightblue" points="330.48,-214.32 321.83,-220.44 332.41,-221.05 330.48,-214.32"/>
</g>
<!-- Node12 -->
<g id="node12" class="node">
<title>Node12</title>
<g id="a_node12"><a xlink:href="structlemons_1_1plugin_1_1_percent_parameter.html" target="_top" xlink:title="A parameter that represents an integer value in the range 0&#45;100.">
<polygon fill="none" stroke="black" points="439.5,-98.5 439.5,-128.5 621.5,-128.5 621.5,-98.5 439.5,-98.5"/>
<text text-anchor="start" x="447.5" y="-116.5" font-family="Helvetica,sans-Serif" font-size="10.00">lemons::plugin::PercentParameter</text>
<text text-anchor="middle" x="530.5" y="-105.5" font-family="Helvetica,sans-Serif" font-size="10.00">&lt; int &gt;</text>
</a>
</g>
</g>
<!-- Node2&#45;&gt;Node12 -->
<g id="edge11" class="edge">
<title>Node2&#45;&gt;Node12</title>
<path fill="none" stroke="midnightblue" d="M300.13,-214.65C332.98,-193.07 387.3,-159.61 438,-138.5 446.82,-134.83 456.34,-131.54 465.79,-128.64"/>
<polygon fill="midnightblue" stroke="midnightblue" points="297.85,-211.96 291.45,-220.4 301.72,-217.8 297.85,-211.96"/>
</g>
<!-- Node13 -->
<g id="node13" class="node">
<title>Node13</title>
<g id="a_node13"><a xlink:href="structlemons_1_1plugin_1_1_seconds_parameter.html" target="_top" xlink:title="A parameter that represents a time value in seconds, expressed as a float.">
<polygon fill="none" stroke="black" points="438,-49.5 438,-79.5 623,-79.5 623,-49.5 438,-49.5"/>
<text text-anchor="start" x="446" y="-67.5" font-family="Helvetica,sans-Serif" font-size="10.00">lemons::plugin::SecondsParameter</text>
<text text-anchor="middle" x="530.5" y="-56.5" font-family="Helvetica,sans-Serif" font-size="10.00">&lt; float &gt;</text>
</a>
</g>
</g>
<!-- Node2&#45;&gt;Node13 -->
<g id="edge12" class="edge">
<title>Node2&#45;&gt;Node13</title>
<path fill="none" stroke="midnightblue" d="M288.97,-212.84C318.07,-180.46 376.13,-121.35 438,-89.5 445.47,-85.66 453.59,-82.35 461.81,-79.52"/>
<polygon fill="midnightblue" stroke="midnightblue" points="286.23,-210.66 282.21,-220.47 291.46,-215.3 286.23,-210.66"/>
</g>
<!-- Node2&#45;&gt;Node14 -->
<g id="edge13" class="edge">
<title>Node2&#45;&gt;Node14</title>
<path fill="none" stroke="orange" stroke-dasharray="5,2" d="M282.39,-259.64C306.61,-302.38 363.29,-390.79 438,-432.5 444.17,-435.94 450.84,-438.91 457.68,-441.45"/>
<polygon fill="orange" stroke="orange" points="285.37,-257.8 277.46,-250.76 279.26,-261.2 285.37,-257.8"/>
<text text-anchor="middle" x="396.5" y="-420.5" font-family="Helvetica,sans-Serif" font-size="10.00"> &lt; int &gt;</text>
</g>
<!-- Node2&#45;&gt;Node17 -->
<g id="edge17" class="edge">
<title>Node2&#45;&gt;Node17</title>
<path fill="none" stroke="orange" stroke-dasharray="5,2" d="M281.36,-211.37C304.45,-167.49 360.11,-75.81 438,-39.5 445.29,-36.1 453.15,-33.12 461.08,-30.53"/>
<polygon fill="orange" stroke="orange" points="278.15,-209.97 276.68,-220.46 284.37,-213.17 278.15,-209.97"/>
<text text-anchor="middle" x="396.5" y="-85.5" font-family="Helvetica,sans-Serif" font-size="10.00"> &lt; bool &gt;</text>
</g>
<!-- Node7 -->
<g id="node7" class="node">
<title>Node7</title>
<g id="a_node7"><a xlink:href="classlemons_1_1plugin_1_1_meta_parameter.html" target="_top" xlink:title=" ">
<polygon fill="none" stroke="black" points="698,-312.5 698,-342.5 868,-342.5 868,-312.5 698,-312.5"/>
<text text-anchor="start" x="706" y="-330.5" font-family="Helvetica,sans-Serif" font-size="10.00">lemons::plugin::MetaParameter</text>
<text text-anchor="middle" x="783" y="-319.5" font-family="Helvetica,sans-Serif" font-size="10.00">&lt; int &gt;</text>
</a>
</g>
</g>
<!-- Node6&#45;&gt;Node7 -->
<g id="edge6" class="edge">
<title>Node6&#45;&gt;Node7</title>
<path fill="none" stroke="orange" stroke-dasharray="5,2" d="M597.6,-278.18C637.42,-288.83 687.59,-302.25 725.54,-312.4"/>
<polygon fill="orange" stroke="orange" points="598.28,-274.74 587.72,-275.54 596.47,-281.5 598.28,-274.74"/>
<text text-anchor="middle" x="660.5" y="-302.5" font-family="Helvetica,sans-Serif" font-size="10.00"> &lt; int &gt;</text>
</g>
<!-- Node8 -->
<g id="node8" class="node">
<title>Node8</title>
<g id="a_node8"><a xlink:href="structlemons_1_1plugin_1_1_default_meta_parameter.html" target="_top" xlink:title=" ">
<polygon fill="none" stroke="black" points="915.5,-312.5 915.5,-342.5 1070.5,-342.5 1070.5,-312.5 915.5,-312.5"/>
<text text-anchor="start" x="923.5" y="-330.5" font-family="Helvetica,sans-Serif" font-size="10.00">lemons::plugin::DefaultMeta</text>
<text text-anchor="middle" x="993" y="-319.5" font-family="Helvetica,sans-Serif" font-size="10.00">Parameter</text>
</a>
</g>
</g>
<!-- Node7&#45;&gt;Node8 -->
<g id="edge7" class="edge">
<title>Node7&#45;&gt;Node8</title>
<path fill="none" stroke="midnightblue" d="M878.36,-327.5C890.76,-327.5 903.35,-327.5 915.41,-327.5"/>
<polygon fill="midnightblue" stroke="midnightblue" points="878,-324 868,-327.5 878,-331 878,-324"/>
</g>
<!-- Node10 -->
<g id="node10" class="node">
<title>Node10</title>
<g id="a_node10"><a xlink:href="structlemons_1_1plugin_1_1_gain_meter_parameter.html" target="_top" xlink:title="A parameter that represents a meter displaying values in decibels.">
<polygon fill="none" stroke="black" points="710,-196.5 710,-226.5 856,-226.5 856,-196.5 710,-196.5"/>
<text text-anchor="start" x="718" y="-214.5" font-family="Helvetica,sans-Serif" font-size="10.00">lemons::plugin::GainMeter</text>
<text text-anchor="middle" x="783" y="-203.5" font-family="Helvetica,sans-Serif" font-size="10.00">Parameter</text>
</a>
</g>
</g>
<!-- Node9&#45;&gt;Node10 -->
<g id="edge9" class="edge">
<title>Node9&#45;&gt;Node10</title>
<path fill="none" stroke="midnightblue" d="M627.03,-211.5C654.5,-211.5 683.99,-211.5 709.8,-211.5"/>
<polygon fill="midnightblue" stroke="midnightblue" points="627.01,-208 617.01,-211.5 627.01,-215 627.01,-208"/>
</g>
<!-- Node14&#45;&gt;Node7 -->
<g id="edge16" class="edge">
<title>Node14&#45;&gt;Node7</title>
<path fill="none" stroke="midnightblue" d="M609.16,-438.06C613.9,-436.34 618.55,-434.49 623,-432.5 677.97,-407.95 735.14,-365.23 763.6,-342.59"/>
<polygon fill="midnightblue" stroke="midnightblue" points="607.67,-434.86 599.33,-441.39 609.92,-441.49 607.67,-434.86"/>
</g>
<!-- Node15 -->
<g id="node15" class="node">
<title>Node15</title>
<g id="a_node15"><a xlink:href="structlemons_1_1plugin_1_1_midi_pitch_parameter.html" target="_top" xlink:title="A parameter that represents a MIDI pitch.">
<polygon fill="none" stroke="black" points="713,-465.5 713,-495.5 853,-495.5 853,-465.5 713,-465.5"/>
<text text-anchor="start" x="721" y="-483.5" font-family="Helvetica,sans-Serif" font-size="10.00">lemons::plugin::MidiPitch</text>
<text text-anchor="middle" x="783" y="-472.5" font-family="Helvetica,sans-Serif" font-size="10.00">Parameter</text>
</a>
</g>
</g>
<!-- Node14&#45;&gt;Node15 -->
<g id="edge14" class="edge">
<title>Node14&#45;&gt;Node15</title>
<path fill="none" stroke="midnightblue" d="M626.99,-465.65C655.48,-468.38 686.16,-471.32 712.64,-473.85"/>
<polygon fill="midnightblue" stroke="midnightblue" points="627.3,-462.16 617.01,-464.69 626.63,-469.13 627.3,-462.16"/>
</g>
<!-- Node16 -->
<g id="node16" class="node">
<title>Node16</title>
<g id="a_node16"><a xlink:href="structlemons_1_1plugin_1_1_semitones_parameter.html" target="_top" xlink:title="A parameter that represents a number of semitones, as an integer.">
<polygon fill="none" stroke="black" points="710,-416.5 710,-446.5 856,-446.5 856,-416.5 710,-416.5"/>
<text text-anchor="start" x="718" y="-434.5" font-family="Helvetica,sans-Serif" font-size="10.00">lemons::plugin::Semitones</text>
<text text-anchor="middle" x="783" y="-423.5" font-family="Helvetica,sans-Serif" font-size="10.00">Parameter</text>
</a>
</g>
</g>
<!-- Node14&#45;&gt;Node16 -->
<g id="edge15" class="edge">
<title>Node14&#45;&gt;Node16</title>
<path fill="none" stroke="midnightblue" d="M627.03,-446.97C654.5,-444.22 683.99,-441.28 709.8,-438.71"/>
<polygon fill="midnightblue" stroke="midnightblue" points="626.61,-443.49 617.01,-447.97 627.31,-450.46 626.61,-443.49"/>
</g>
<!-- Node18 -->
<g id="node18" class="node">
<title>Node18</title>
<g id="a_node18"><a xlink:href="structlemons_1_1plugin_1_1_bool_parameter.html" target="_top" xlink:title="Helper struct that simplifies the constructor for boolean parameters.">
<polygon fill="none" stroke="black" points="699.5,-6 699.5,-25 866.5,-25 866.5,-6 699.5,-6"/>
<text text-anchor="middle" x="783" y="-13" font-family="Helvetica,sans-Serif" font-size="10.00">lemons::plugin::BoolParameter</text>
</a>
</g>
</g>
<!-- Node17&#45;&gt;Node18 -->
<g id="edge18" class="edge">
<title>Node17&#45;&gt;Node18</title>
<path fill="none" stroke="midnightblue" d="M627.11,-15.5C650.94,-15.5 676.28,-15.5 699.42,-15.5"/>
<polygon fill="midnightblue" stroke="midnightblue" points="627.01,-12 617.01,-15.5 627.01,-19 627.01,-12"/>
</g>
<!-- Node19 -->
<g id="node19" class="node">
<title>Node19</title>
<g id="a_node19"><a xlink:href="structlemons_1_1plugin_1_1_toggle_parameter.html" target="_top" xlink:title="A parameter that represents a boolean on/off toggle.">
<polygon fill="none" stroke="black" points="905,-6 905,-25 1081,-25 1081,-6 905,-6"/>
<text text-anchor="middle" x="993" y="-13" font-family="Helvetica,sans-Serif" font-size="10.00">lemons::plugin::ToggleParameter</text>
</a>
</g>
</g>
<!-- Node18&#45;&gt;Node19 -->
<g id="edge19" class="edge">
<title>Node18&#45;&gt;Node19</title>
<path fill="none" stroke="midnightblue" d="M876.62,-15.5C885.99,-15.5 895.49,-15.5 904.81,-15.5"/>
<polygon fill="midnightblue" stroke="midnightblue" points="876.51,-12 866.51,-15.5 876.51,-19 876.51,-12"/>
</g>
</g>
</svg>
