<?xml version="1.0" encoding="UTF-8" standalone="no"?>
<!DOCTYPE svg PUBLIC "-//W3C//DTD SVG 1.1//EN"
 "http://www.w3.org/Graphics/SVG/1.1/DTD/svg11.dtd">
<!-- Generated by graphviz version 2.50.0 (20211204.2007)
 -->
<!-- Title: lemons::gui::components::PopupComponentBase Pages: 1 -->
<svg width="448pt" height="149pt"
 viewBox="0.00 0.00 448.00 148.50" xmlns="http://www.w3.org/2000/svg" xmlns:xlink="http://www.w3.org/1999/xlink">
<g id="graph0" class="graph" transform="scale(1 1) rotate(0) translate(4 144.5)">
<title>lemons::gui::components::PopupComponentBase</title>
<!-- Node1 -->
<g id="node1" class="node">
<title>Node1</title>
<g id="a_node1"><a xlink:title="Base class for a kind of component that can be displayed as a popup.">
<polygon fill="#bfbfbf" stroke="black" points="103,-49.5 103,-79.5 229,-79.5 229,-49.5 103,-49.5"/>
<text text-anchor="start" x="111" y="-67.5" font-family="Helvetica,sans-Serif" font-size="10.00">lemons::gui::components</text>
<text text-anchor="middle" x="166" y="-56.5" font-family="Helvetica,sans-Serif" font-size="10.00">::PopupComponentBase</text>
</a>
</g>
</g>
<!-- Node3 -->
<g id="node3" class="node">
<title>Node3</title>
<g id="a_node3"><a xlink:href="classlemons_1_1gui_1_1components_1_1_popup_component.html" target="_top" xlink:title="A kind of PopupComponentBase that owns and displays a kind of Component.">
<polygon fill="none" stroke="black" points="265,-99 265,-140 440,-140 440,-99 265,-99"/>
<text text-anchor="start" x="273" y="-128" font-family="Helvetica,sans-Serif" font-size="10.00">lemons::gui::components</text>
<text text-anchor="start" x="273" y="-117" font-family="Helvetica,sans-Serif" font-size="10.00">::PopupComponent&lt; OwnedContent</text>
<text text-anchor="middle" x="352.5" y="-106" font-family="Helvetica,sans-Serif" font-size="10.00">Type, &gt;</text>
</a>
</g>
</g>
<!-- Node1&#45;&gt;Node3 -->
<g id="edge2" class="edge">
<title>Node1&#45;&gt;Node3</title>
<path fill="none" stroke="midnightblue" d="M227.04,-82.4C244.74,-87.68 264.25,-93.49 282.47,-98.92"/>
<polygon fill="midnightblue" stroke="midnightblue" points="228,-79.03 217.42,-79.53 226,-85.74 228,-79.03"/>
</g>
<!-- Node4 -->
<g id="node4" class="node">
<title>Node4</title>
<g id="a_node4"><a xlink:href="classlemons_1_1gui_1_1components_1_1_save_to_file_prompt.html" target="_top" xlink:title=" ">
<polygon fill="none" stroke="black" points="289.5,-49.5 289.5,-79.5 415.5,-79.5 415.5,-49.5 289.5,-49.5"/>
<text text-anchor="start" x="297.5" y="-67.5" font-family="Helvetica,sans-Serif" font-size="10.00">lemons::gui::components</text>
<text text-anchor="middle" x="352.5" y="-56.5" font-family="Helvetica,sans-Serif" font-size="10.00">::SaveToFilePrompt</text>
</a>
</g>
</g>
<!-- Node1&#45;&gt;Node4 -->
<g id="edge3" class="edge">
<title>Node1&#45;&gt;Node4</title>
<path fill="none" stroke="midnightblue" d="M239.34,-64.5C255.83,-64.5 273.22,-64.5 289.25,-64.5"/>
<polygon fill="midnightblue" stroke="midnightblue" points="239.21,-61 229.21,-64.5 239.21,-68 239.21,-61"/>
</g>
<!-- Node5 -->
<g id="node5" class="node">
<title>Node5</title>
<g id="a_node5"><a xlink:href="classlemons_1_1gui_1_1components_1_1_version_bump_prompt.html" target="_top" xlink:title=" ">
<polygon fill="none" stroke="black" points="289.5,-0.5 289.5,-30.5 415.5,-30.5 415.5,-0.5 289.5,-0.5"/>
<text text-anchor="start" x="297.5" y="-18.5" font-family="Helvetica,sans-Serif" font-size="10.00">lemons::gui::components</text>
<text text-anchor="middle" x="352.5" y="-7.5" font-family="Helvetica,sans-Serif" font-size="10.00">::VersionBumpPrompt</text>
</a>
</g>
</g>
<!-- Node1&#45;&gt;Node5 -->
<g id="edge4" class="edge">
<title>Node1&#45;&gt;Node5</title>
<path fill="none" stroke="midnightblue" d="M233.36,-46.88C253.54,-41.52 275.53,-35.68 295,-30.51"/>
<polygon fill="midnightblue" stroke="midnightblue" points="232.38,-43.52 223.61,-49.47 234.17,-50.28 232.38,-43.52"/>
</g>
<!-- Node2 -->
<g id="node2" class="node">
<title>Node2</title>
<g id="a_node2"><a xlink:title=" ">
<polygon fill="none" stroke="black" points="0,-55 0,-74 67,-74 67,-55 0,-55"/>
<text text-anchor="middle" x="33.5" y="-62" font-family="Helvetica,sans-Serif" font-size="10.00">Component</text>
</a>
</g>
</g>
<!-- Node2&#45;&gt;Node1 -->
<g id="edge1" class="edge">
<title>Node2&#45;&gt;Node1</title>
<path fill="none" stroke="midnightblue" d="M77.16,-64.5C85.37,-64.5 94.13,-64.5 102.82,-64.5"/>
<polygon fill="midnightblue" stroke="midnightblue" points="77.09,-61 67.09,-64.5 77.09,-68 77.09,-61"/>
</g>
</g>
</svg>
