<?xml version="1.0" encoding="UTF-8" standalone="no"?>
<!DOCTYPE svg PUBLIC "-//W3C//DTD SVG 1.1//EN"
 "http://www.w3.org/Graphics/SVG/1.1/DTD/svg11.dtd">
<!-- Generated by graphviz version 2.43.0 (0)
 -->
<!-- Title: lemons::dsp::FX::StereoPanner&lt; SampleType &gt; Pages: 1 -->
<svg width="340pt" height="162pt"
 viewBox="0.00 0.00 340.00 162.00" xmlns="http://www.w3.org/2000/svg" xmlns:xlink="http://www.w3.org/1999/xlink">
<g id="graph0" class="graph" transform="scale(1 1) rotate(0) translate(4 158)">
<title>lemons::dsp::FX::StereoPanner&lt; SampleType &gt;</title>
<!-- Node1 -->
<g id="node1" class="node">
<title>Node1</title>
<g id="a_node1"><a xlink:title=" ">
<polygon fill="#bfbfbf" stroke="black" points="83.5,-0.5 83.5,-30.5 248.5,-30.5 248.5,-0.5 83.5,-0.5"/>
<text text-anchor="start" x="91.5" y="-18.5" font-family="Helvetica,sans-Serif" font-size="10.00">lemons::dsp::FX::StereoPanner</text>
<text text-anchor="middle" x="166" y="-7.5" font-family="Helvetica,sans-Serif" font-size="10.00">&lt; SampleType &gt;</text>
</a>
</g>
</g>
<!-- Node2 -->
<g id="node2" class="node">
<title>Node2</title>
<g id="a_node2"><a xlink:href="classlemons_1_1dsp_1_1_f_x_1_1_panner_base.html" target="_top" xlink:title=" ">
<polygon fill="none" stroke="black" points="0,-73 0,-92 158,-92 158,-73 0,-73"/>
<text text-anchor="middle" x="79" y="-80" font-family="Helvetica,sans-Serif" font-size="10.00">lemons::dsp::FX::PannerBase</text>
</a>
</g>
</g>
<!-- Node2&#45;&gt;Node1 -->
<g id="edge1" class="edge">
<title>Node2&#45;&gt;Node1</title>
<path fill="none" stroke="midnightblue" d="M99.02,-66.54C113.5,-55.73 132.94,-41.2 147.14,-30.59"/>
<polygon fill="midnightblue" stroke="midnightblue" points="96.65,-63.94 90.73,-72.73 100.84,-69.55 96.65,-63.94"/>
</g>
<!-- Node3 -->
<g id="node3" class="node">
<title>Node3</title>
<g id="a_node3"><a xlink:href="structlemons_1_1dsp_1_1_f_x_1_1_audio_effect.html" target="_top" xlink:title="Base class for any kind of audio effect.">
<polygon fill="none" stroke="black" points="176,-67.5 176,-97.5 332,-97.5 332,-67.5 176,-67.5"/>
<text text-anchor="start" x="184" y="-85.5" font-family="Helvetica,sans-Serif" font-size="10.00">lemons::dsp::FX::AudioEffect</text>
<text text-anchor="middle" x="254" y="-74.5" font-family="Helvetica,sans-Serif" font-size="10.00">&lt; SampleType &gt;</text>
</a>
</g>
</g>
<!-- Node3&#45;&gt;Node1 -->
<g id="edge2" class="edge">
<title>Node3&#45;&gt;Node1</title>
<path fill="none" stroke="midnightblue" d="M226.86,-61.45C213.32,-51.45 197.27,-39.6 185.06,-30.58"/>
<polygon fill="midnightblue" stroke="midnightblue" points="224.78,-64.27 234.91,-67.4 228.94,-58.64 224.78,-64.27"/>
</g>
<!-- Node4 -->
<g id="node4" class="node">
<title>Node4</title>
<g id="a_node4"><a xlink:href="structlemons_1_1_serializable_data.html" target="_top" xlink:title="Base class for any C++ object that needs to be serialized to binary and back.">
<polygon fill="none" stroke="black" points="184.5,-134.5 184.5,-153.5 323.5,-153.5 323.5,-134.5 184.5,-134.5"/>
<text text-anchor="middle" x="254" y="-141.5" font-family="Helvetica,sans-Serif" font-size="10.00">lemons::SerializableData</text>
</a>
</g>
</g>
<!-- Node4&#45;&gt;Node3 -->
<g id="edge3" class="edge">
<title>Node4&#45;&gt;Node3</title>
<path fill="none" stroke="midnightblue" d="M254,-124.23C254,-115.59 254,-105.5 254,-97.52"/>
<polygon fill="midnightblue" stroke="midnightblue" points="250.5,-124.48 254,-134.48 257.5,-124.48 250.5,-124.48"/>
</g>
</g>
</svg>
