<?xml version="1.0" encoding="UTF-8" standalone="no"?>
<!DOCTYPE svg PUBLIC "-//W3C//DTD SVG 1.1//EN"
 "http://www.w3.org/Graphics/SVG/1.1/DTD/svg11.dtd">
<!-- Generated by graphviz version 2.50.0 (20211204.2007)
 -->
<!-- Title: lemons::dsp::psola::Shifter&lt; SampleType &gt; Pages: 1 -->
<svg width="498pt" height="137pt"
 viewBox="0.00 0.00 498.00 137.00" xmlns="http://www.w3.org/2000/svg" xmlns:xlink="http://www.w3.org/1999/xlink">
<g id="graph0" class="graph" transform="scale(1 1) rotate(0) translate(4 133)">
<title>lemons::dsp::psola::Shifter&lt; SampleType &gt;</title>
<!-- Node1 -->
<g id="node1" class="node">
<title>Node1</title>
<g id="a_node1"><a xlink:title="A class that repitches a stream of monophonic audio using PSOLA&#45;like techniques.">
<polygon fill="#bfbfbf" stroke="black" points="176,-49.5 176,-79.5 299,-79.5 299,-49.5 176,-49.5"/>
<text text-anchor="start" x="184" y="-67.5" font-family="Helvetica,sans-Serif" font-size="10.00">lemons::dsp::psola</text>
<text text-anchor="middle" x="237.5" y="-56.5" font-family="Helvetica,sans-Serif" font-size="10.00">::Shifter&lt; SampleType &gt;</text>
</a>
</g>
</g>
<!-- Node3 -->
<g id="node3" class="node">
<title>Node3</title>
<g id="a_node3"><a xlink:href="classlemons_1_1dsp_1_1psola_1_1_interval_shifter.html" target="_top" xlink:title=" ">
<polygon fill="none" stroke="black" points="335,-98.5 335,-128.5 490,-128.5 490,-98.5 335,-98.5"/>
<text text-anchor="start" x="343" y="-116.5" font-family="Helvetica,sans-Serif" font-size="10.00">lemons::dsp::psola</text>
<text text-anchor="middle" x="412.5" y="-105.5" font-family="Helvetica,sans-Serif" font-size="10.00">::IntervalShifter&lt; SampleType &gt;</text>
</a>
</g>
</g>
<!-- Node1&#45;&gt;Node3 -->
<g id="edge2" class="edge">
<title>Node1&#45;&gt;Node3</title>
<path fill="none" stroke="midnightblue" d="M301.68,-82.39C320.28,-87.66 340.45,-93.38 358.36,-98.45"/>
<polygon fill="midnightblue" stroke="midnightblue" points="302.39,-78.96 291.82,-79.6 300.49,-85.69 302.39,-78.96"/>
</g>
<!-- Node4 -->
<g id="node4" class="node">
<title>Node4</title>
<g id="a_node4"><a xlink:href="classlemons_1_1dsp_1_1psola_1_1_midi_shifter.html" target="_top" xlink:title=" ">
<polygon fill="none" stroke="black" points="342,-49.5 342,-79.5 483,-79.5 483,-49.5 342,-49.5"/>
<text text-anchor="start" x="350" y="-67.5" font-family="Helvetica,sans-Serif" font-size="10.00">lemons::dsp::psola</text>
<text text-anchor="middle" x="412.5" y="-56.5" font-family="Helvetica,sans-Serif" font-size="10.00">::MidiShifter&lt; SampleType &gt;</text>
</a>
</g>
</g>
<!-- Node1&#45;&gt;Node4 -->
<g id="edge3" class="edge">
<title>Node1&#45;&gt;Node4</title>
<path fill="none" stroke="midnightblue" d="M309.21,-64.5C319.98,-64.5 331.09,-64.5 341.84,-64.5"/>
<polygon fill="midnightblue" stroke="midnightblue" points="309.01,-61 299.01,-64.5 309.01,-68 309.01,-61"/>
</g>
<!-- Node5 -->
<g id="node5" class="node">
<title>Node5</title>
<g id="a_node5"><a xlink:href="classlemons_1_1dsp_1_1psola_1_1_ratio_shifter.html" target="_top" xlink:title=" ">
<polygon fill="none" stroke="black" points="339.5,-0.5 339.5,-30.5 485.5,-30.5 485.5,-0.5 339.5,-0.5"/>
<text text-anchor="start" x="347.5" y="-18.5" font-family="Helvetica,sans-Serif" font-size="10.00">lemons::dsp::psola</text>
<text text-anchor="middle" x="412.5" y="-7.5" font-family="Helvetica,sans-Serif" font-size="10.00">::RatioShifter&lt; SampleType &gt;</text>
</a>
</g>
</g>
<!-- Node1&#45;&gt;Node5 -->
<g id="edge4" class="edge">
<title>Node1&#45;&gt;Node5</title>
<path fill="none" stroke="midnightblue" d="M301.68,-46.61C320.28,-41.34 340.45,-35.62 358.36,-30.55"/>
<polygon fill="midnightblue" stroke="midnightblue" points="300.49,-43.31 291.82,-49.4 302.39,-50.04 300.49,-43.31"/>
</g>
<!-- Node2 -->
<g id="node2" class="node">
<title>Node2</title>
<g id="a_node2"><a xlink:href="structlemons_1_1dsp_1_1_sample_stream.html" target="_top" xlink:title="Base class for any object that can output a stream of audio samples, with no audio or MIDI input.">
<polygon fill="none" stroke="black" points="0,-49.5 0,-79.5 140,-79.5 140,-49.5 0,-49.5"/>
<text text-anchor="start" x="8" y="-67.5" font-family="Helvetica,sans-Serif" font-size="10.00">lemons::dsp::SampleStream</text>
<text text-anchor="middle" x="70" y="-56.5" font-family="Helvetica,sans-Serif" font-size="10.00">&lt; SampleType &gt;</text>
</a>
</g>
</g>
<!-- Node2&#45;&gt;Node1 -->
<g id="edge1" class="edge">
<title>Node2&#45;&gt;Node1</title>
<path fill="none" stroke="midnightblue" d="M150.31,-64.5C158.94,-64.5 167.62,-64.5 175.97,-64.5"/>
<polygon fill="midnightblue" stroke="midnightblue" points="150.23,-61 140.23,-64.5 150.23,-68 150.23,-61"/>
</g>
</g>
</svg>
