<?xml version="1.0" encoding="UTF-8" standalone="no"?>
<!DOCTYPE svg PUBLIC "-//W3C//DTD SVG 1.1//EN"
 "http://www.w3.org/Graphics/SVG/1.1/DTD/svg11.dtd">
<!-- Generated by graphviz version 2.49.3 (20211023.0002)
 -->
<!-- Title: lemons::gui::components::PopupComponentBase Pages: 1 -->
<svg width="445pt" height="149pt"
 viewBox="0.00 0.00 445.00 148.50" xmlns="http://www.w3.org/2000/svg" xmlns:xlink="http://www.w3.org/1999/xlink">
<g id="graph0" class="graph" transform="scale(1 1) rotate(0) translate(4 144.5)">
<title>lemons::gui::components::PopupComponentBase</title>
<!-- Node1 -->
<g id="node1" class="node">
<title>Node1</title>
<g id="a_node1"><a xlink:title="Base class for a kind of component that can be displayed as a popup.">
<polygon fill="#bfbfbf" stroke="black" points="102,-49.5 102,-79.5 228,-79.5 228,-49.5 102,-49.5"/>
<text text-anchor="start" x="110" y="-67.5" font-family="Helvetica,sans-Serif" font-size="10.00">lemons::gui::components</text>
<text text-anchor="middle" x="165" y="-56.5" font-family="Helvetica,sans-Serif" font-size="10.00">::PopupComponentBase</text>
</a>
</g>
</g>
<!-- Node3 -->
<g id="node3" class="node">
<title>Node3</title>
<g id="a_node3"><a xlink:href="classlemons_1_1gui_1_1components_1_1_popup_component.html" target="_top" xlink:title="A kind of PopupComponentBase that owns and displays a kind of Component.">
<polygon fill="none" stroke="black" points="264,-99 264,-140 437,-140 437,-99 264,-99"/>
<text text-anchor="start" x="272" y="-128" font-family="Helvetica,sans-Serif" font-size="10.00">lemons::gui::components</text>
<text text-anchor="start" x="272" y="-117" font-family="Helvetica,sans-Serif" font-size="10.00">::PopupComponent&lt; OwnedContent</text>
<text text-anchor="middle" x="350.5" y="-106" font-family="Helvetica,sans-Serif" font-size="10.00">Type, &gt;</text>
</a>
</g>
</g>
<!-- Node1&#45;&gt;Node3 -->
<g id="edge2" class="edge">
<title>Node1&#45;&gt;Node3</title>
<path fill="none" stroke="midnightblue" d="M226.21,-82.55C243.68,-87.78 262.89,-93.54 280.85,-98.92"/>
<polygon fill="midnightblue" stroke="midnightblue" points="226.73,-79.05 216.14,-79.53 224.72,-85.75 226.73,-79.05"/>
</g>
<!-- Node4 -->
<g id="node4" class="node">
<title>Node4</title>
<g id="a_node4"><a xlink:href="classlemons_1_1gui_1_1components_1_1_save_to_file_prompt.html" target="_top" xlink:title=" ">
<polygon fill="none" stroke="black" points="287.5,-49.5 287.5,-79.5 413.5,-79.5 413.5,-49.5 287.5,-49.5"/>
<text text-anchor="start" x="295.5" y="-67.5" font-family="Helvetica,sans-Serif" font-size="10.00">lemons::gui::components</text>
<text text-anchor="middle" x="350.5" y="-56.5" font-family="Helvetica,sans-Serif" font-size="10.00">::SaveToFilePrompt</text>
</a>
</g>
</g>
<!-- Node1&#45;&gt;Node4 -->
<g id="edge3" class="edge">
<title>Node1&#45;&gt;Node4</title>
<path fill="none" stroke="midnightblue" d="M238.14,-64.5C254.44,-64.5 271.6,-64.5 287.44,-64.5"/>
<polygon fill="midnightblue" stroke="midnightblue" points="238.12,-61 228.12,-64.5 238.12,-68 238.12,-61"/>
</g>
<!-- Node5 -->
<g id="node5" class="node">
<title>Node5</title>
<g id="a_node5"><a xlink:href="classlemons_1_1gui_1_1components_1_1_version_bump_prompt.html" target="_top" xlink:title=" ">
<polygon fill="none" stroke="black" points="287.5,-0.5 287.5,-30.5 413.5,-30.5 413.5,-0.5 287.5,-0.5"/>
<text text-anchor="start" x="295.5" y="-18.5" font-family="Helvetica,sans-Serif" font-size="10.00">lemons::gui::components</text>
<text text-anchor="middle" x="350.5" y="-7.5" font-family="Helvetica,sans-Serif" font-size="10.00">::VersionBumpPrompt</text>
</a>
</g>
</g>
<!-- Node1&#45;&gt;Node5 -->
<g id="edge4" class="edge">
<title>Node1&#45;&gt;Node5</title>
<path fill="none" stroke="midnightblue" d="M232,-46.88C252.07,-41.52 273.94,-35.68 293.3,-30.51"/>
<polygon fill="midnightblue" stroke="midnightblue" points="231.06,-43.5 222.3,-49.47 232.87,-50.27 231.06,-43.5"/>
</g>
<!-- Node2 -->
<g id="node2" class="node">
<title>Node2</title>
<g id="a_node2"><a xlink:title=" ">
<polygon fill="none" stroke="black" points="0,-55 0,-74 66,-74 66,-55 0,-55"/>
<text text-anchor="middle" x="33" y="-62" font-family="Helvetica,sans-Serif" font-size="10.00">Component</text>
</a>
</g>
</g>
<!-- Node2&#45;&gt;Node1 -->
<g id="edge1" class="edge">
<title>Node2&#45;&gt;Node1</title>
<path fill="none" stroke="midnightblue" d="M76.17,-64.5C84.36,-64.5 93.1,-64.5 101.78,-64.5"/>
<polygon fill="midnightblue" stroke="midnightblue" points="76.13,-61 66.13,-64.5 76.13,-68 76.13,-61"/>
</g>
</g>
</svg>
