<?xml version="1.0" encoding="UTF-8" standalone="no"?>
<!DOCTYPE svg PUBLIC "-//W3C//DTD SVG 1.1//EN"
 "http://www.w3.org/Graphics/SVG/1.1/DTD/svg11.dtd">
<!-- Generated by graphviz version 2.50.0 (20211204.2007)
 -->
<!-- Title: lemons::midi::ChoppingProcessor&lt; SampleType &gt; Pages: 1 -->
<svg width="589pt" height="151pt"
 viewBox="0.00 0.00 589.00 150.50" xmlns="http://www.w3.org/2000/svg" xmlns:xlink="http://www.w3.org/1999/xlink">
<g id="graph0" class="graph" transform="scale(1 1) rotate(0) translate(4 146.5)">
<title>lemons::midi::ChoppingProcessor&lt; SampleType &gt;</title>
<!-- Node1 -->
<g id="node1" class="node">
<title>Node1</title>
<g id="a_node1"><a xlink:title=" ">
<polygon fill="#bfbfbf" stroke="black" points="0,-63 0,-93 164,-93 164,-63 0,-63"/>
<text text-anchor="start" x="8" y="-81" font-family="Helvetica,sans-Serif" font-size="10.00">lemons::midi::ChoppingProcessor</text>
<text text-anchor="middle" x="82" y="-70" font-family="Helvetica,sans-Serif" font-size="10.00">&lt; SampleType &gt;</text>
</a>
</g>
</g>
<!-- Node2 -->
<g id="node2" class="node">
<title>Node2</title>
<g id="a_node2"><a xlink:href="classlemons_1_1dsp_1_1synth_1_1_midi_manager.html" target="_top" xlink:title=" ">
<polygon fill="none" stroke="black" points="257,-112 257,-142 407,-142 407,-112 257,-112"/>
<text text-anchor="start" x="265" y="-130" font-family="Helvetica,sans-Serif" font-size="10.00">lemons::dsp::synth</text>
<text text-anchor="middle" x="332" y="-119" font-family="Helvetica,sans-Serif" font-size="10.00">::MidiManager&lt; SampleType &gt;</text>
</a>
</g>
</g>
<!-- Node1&#45;&gt;Node2 -->
<g id="edge1" class="edge">
<title>Node1&#45;&gt;Node2</title>
<path fill="none" stroke="midnightblue" d="M169.06,-95C197.62,-100.65 229.16,-106.88 256.75,-112.33"/>
<polygon fill="midnightblue" stroke="midnightblue" points="169.58,-91.54 159.09,-93.03 168.23,-98.41 169.58,-91.54"/>
</g>
<!-- Node3 -->
<g id="node3" class="node">
<title>Node3</title>
<g id="a_node3"><a xlink:href="classlemons_1_1midi_1_1_chopping_processor.html" target="_top" xlink:title=" ">
<polygon fill="none" stroke="black" points="250,-63 250,-93 414,-93 414,-63 250,-63"/>
<text text-anchor="start" x="258" y="-81" font-family="Helvetica,sans-Serif" font-size="10.00">lemons::midi::ChoppingProcessor</text>
<text text-anchor="middle" x="332" y="-70" font-family="Helvetica,sans-Serif" font-size="10.00">&lt; float &gt;</text>
</a>
</g>
</g>
<!-- Node1&#45;&gt;Node3 -->
<g id="edge2" class="edge">
<title>Node1&#45;&gt;Node3</title>
<path fill="none" stroke="orange" stroke-dasharray="5,2" d="M174.29,-78C198.97,-78 225.51,-78 249.61,-78"/>
<polygon fill="orange" stroke="orange" points="174.2,-74.5 164.2,-78 174.2,-81.5 174.2,-74.5"/>
<text text-anchor="middle" x="207" y="-81" font-family="Helvetica,sans-Serif" font-size="10.00"> &lt; float &gt;</text>
</g>
<!-- Node5 -->
<g id="node5" class="node">
<title>Node5</title>
<g id="a_node5"><a xlink:href="classlemons_1_1midi_1_1_chopping_processor.html" target="_top" xlink:title=" ">
<polygon fill="none" stroke="black" points="250,-9 250,-39 414,-39 414,-9 250,-9"/>
<text text-anchor="start" x="258" y="-27" font-family="Helvetica,sans-Serif" font-size="10.00">lemons::midi::ChoppingProcessor</text>
<text text-anchor="middle" x="332" y="-16" font-family="Helvetica,sans-Serif" font-size="10.00">&lt; double &gt;</text>
</a>
</g>
</g>
<!-- Node1&#45;&gt;Node5 -->
<g id="edge4" class="edge">
<title>Node1&#45;&gt;Node5</title>
<path fill="none" stroke="orange" stroke-dasharray="5,2" d="M161.89,-60.82C194.01,-53.83 230.81,-45.82 261.86,-39.05"/>
<polygon fill="orange" stroke="orange" points="161.11,-57.41 152.08,-62.96 162.6,-64.25 161.11,-57.41"/>
<text text-anchor="middle" x="207" y="-58" font-family="Helvetica,sans-Serif" font-size="10.00"> &lt; double &gt;</text>
</g>
<!-- Node4 -->
<g id="node4" class="node">
<title>Node4</title>
<g id="a_node4"><a xlink:title=" ">
<polygon fill="none" stroke="black" points="451,-60.5 451,-101.5 581,-101.5 581,-60.5 451,-60.5"/>
<text text-anchor="start" x="459" y="-89.5" font-family="Helvetica,sans-Serif" font-size="10.00">lemons::plugin::Processor</text>
<text text-anchor="start" x="459" y="-78.5" font-family="Helvetica,sans-Serif" font-size="10.00">Base::InternalProcessor</text>
<text text-anchor="middle" x="516" y="-67.5" font-family="Helvetica,sans-Serif" font-size="10.00">&lt; float &gt;</text>
</a>
</g>
</g>
<!-- Node3&#45;&gt;Node4 -->
<g id="edge3" class="edge">
<title>Node3&#45;&gt;Node4</title>
<path fill="none" stroke="midnightblue" d="M424.3,-79.5C433.3,-79.65 442.29,-79.8 450.93,-79.94"/>
<polygon fill="midnightblue" stroke="midnightblue" points="424.21,-76 414.15,-79.34 424.09,-83 424.21,-76"/>
</g>
<!-- Node6 -->
<g id="node6" class="node">
<title>Node6</title>
<g id="a_node6"><a xlink:title=" ">
<polygon fill="none" stroke="black" points="451,-0.5 451,-41.5 581,-41.5 581,-0.5 451,-0.5"/>
<text text-anchor="start" x="459" y="-29.5" font-family="Helvetica,sans-Serif" font-size="10.00">lemons::plugin::Processor</text>
<text text-anchor="start" x="459" y="-18.5" font-family="Helvetica,sans-Serif" font-size="10.00">Base::InternalProcessor</text>
<text text-anchor="middle" x="516" y="-7.5" font-family="Helvetica,sans-Serif" font-size="10.00">&lt; double &gt;</text>
</a>
</g>
</g>
<!-- Node5&#45;&gt;Node6 -->
<g id="edge5" class="edge">
<title>Node5&#45;&gt;Node6</title>
<path fill="none" stroke="midnightblue" d="M424.3,-22.5C433.3,-22.35 442.29,-22.2 450.93,-22.06"/>
<polygon fill="midnightblue" stroke="midnightblue" points="424.09,-19 414.15,-22.66 424.21,-26 424.09,-19"/>
</g>
</g>
</svg>
