<?xml version="1.0" encoding="UTF-8" standalone="no"?>
<!DOCTYPE svg PUBLIC "-//W3C//DTD SVG 1.1//EN"
 "http://www.w3.org/Graphics/SVG/1.1/DTD/svg11.dtd">
<!-- Generated by graphviz version 2.43.0 (0)
 -->
<!-- Title: lemons::gui::components::PopupComponentBase Pages: 1 -->
<svg width="485pt" height="149pt"
 viewBox="0.00 0.00 485.00 148.50" xmlns="http://www.w3.org/2000/svg" xmlns:xlink="http://www.w3.org/1999/xlink">
<g id="graph0" class="graph" transform="scale(1 1) rotate(0) translate(4 144.5)">
<title>lemons::gui::components::PopupComponentBase</title>
<!-- Node1 -->
<g id="node1" class="node">
<title>Node1</title>
<g id="a_node1"><a xlink:title="Base class for a kind of component that can be displayed as a popup.">
<polygon fill="#bfbfbf" stroke="black" points="109,-49.5 109,-79.5 249,-79.5 249,-49.5 109,-49.5"/>
<text text-anchor="start" x="117" y="-67.5" font-family="Helvetica,sans-Serif" font-size="10.00">lemons::gui::components</text>
<text text-anchor="middle" x="179" y="-56.5" font-family="Helvetica,sans-Serif" font-size="10.00">::PopupComponentBase</text>
</a>
</g>
</g>
<!-- Node3 -->
<g id="node3" class="node">
<title>Node3</title>
<g id="a_node3"><a xlink:href="classlemons_1_1gui_1_1components_1_1_popup_component.html" target="_top" xlink:title="A kind of PopupComponentBase that owns and displays a kind of Component.">
<polygon fill="none" stroke="black" points="285,-99 285,-140 477,-140 477,-99 285,-99"/>
<text text-anchor="start" x="293" y="-128" font-family="Helvetica,sans-Serif" font-size="10.00">lemons::gui::components</text>
<text text-anchor="start" x="293" y="-117" font-family="Helvetica,sans-Serif" font-size="10.00">::PopupComponent&lt; OwnedContent</text>
<text text-anchor="middle" x="381" y="-106" font-family="Helvetica,sans-Serif" font-size="10.00">Type, &gt;</text>
</a>
</g>
</g>
<!-- Node1&#45;&gt;Node3 -->
<g id="edge2" class="edge">
<title>Node1&#45;&gt;Node3</title>
<path fill="none" stroke="midnightblue" d="M244.56,-82.25C263.88,-87.57 285.24,-93.44 305.17,-98.92"/>
<polygon fill="midnightblue" stroke="midnightblue" points="245.22,-78.81 234.65,-79.53 243.36,-85.56 245.22,-78.81"/>
</g>
<!-- Node4 -->
<g id="node4" class="node">
<title>Node4</title>
<g id="a_node4"><a xlink:href="classlemons_1_1gui_1_1components_1_1_save_to_file_prompt.html" target="_top" xlink:title=" ">
<polygon fill="none" stroke="black" points="311,-49.5 311,-79.5 451,-79.5 451,-49.5 311,-49.5"/>
<text text-anchor="start" x="319" y="-67.5" font-family="Helvetica,sans-Serif" font-size="10.00">lemons::gui::components</text>
<text text-anchor="middle" x="381" y="-56.5" font-family="Helvetica,sans-Serif" font-size="10.00">::SaveToFilePrompt</text>
</a>
</g>
</g>
<!-- Node1&#45;&gt;Node4 -->
<g id="edge3" class="edge">
<title>Node1&#45;&gt;Node4</title>
<path fill="none" stroke="midnightblue" d="M259.56,-64.5C276.54,-64.5 294.34,-64.5 310.89,-64.5"/>
<polygon fill="midnightblue" stroke="midnightblue" points="259.11,-61 249.11,-64.5 259.11,-68 259.11,-61"/>
</g>
<!-- Node5 -->
<g id="node5" class="node">
<title>Node5</title>
<g id="a_node5"><a xlink:href="classlemons_1_1gui_1_1components_1_1_version_bump_prompt.html" target="_top" xlink:title=" ">
<polygon fill="none" stroke="black" points="311,-0.5 311,-30.5 451,-30.5 451,-0.5 311,-0.5"/>
<text text-anchor="start" x="319" y="-18.5" font-family="Helvetica,sans-Serif" font-size="10.00">lemons::gui::components</text>
<text text-anchor="middle" x="381" y="-7.5" font-family="Helvetica,sans-Serif" font-size="10.00">::VersionBumpPrompt</text>
</a>
</g>
</g>
<!-- Node1&#45;&gt;Node5 -->
<g id="edge4" class="edge">
<title>Node1&#45;&gt;Node5</title>
<path fill="none" stroke="midnightblue" d="M251.33,-47.02C273.38,-41.62 297.45,-35.72 318.75,-30.51"/>
<polygon fill="midnightblue" stroke="midnightblue" points="250.25,-43.69 241.37,-49.47 251.91,-50.49 250.25,-43.69"/>
</g>
<!-- Node2 -->
<g id="node2" class="node">
<title>Node2</title>
<g id="a_node2"><a xlink:title=" ">
<polygon fill="none" stroke="#bfbfbf" points="0,-55 0,-74 73,-74 73,-55 0,-55"/>
<text text-anchor="middle" x="36.5" y="-62" font-family="Helvetica,sans-Serif" font-size="10.00">Component</text>
</a>
</g>
</g>
<!-- Node2&#45;&gt;Node1 -->
<g id="edge1" class="edge">
<title>Node2&#45;&gt;Node1</title>
<path fill="none" stroke="midnightblue" d="M83.37,-64.5C91.55,-64.5 100.23,-64.5 108.89,-64.5"/>
<polygon fill="midnightblue" stroke="midnightblue" points="83.32,-61 73.32,-64.5 83.32,-68 83.32,-61"/>
</g>
</g>
</svg>
