<?xml version="1.0" encoding="UTF-8" standalone="no"?>
<!DOCTYPE svg PUBLIC "-//W3C//DTD SVG 1.1//EN"
 "http://www.w3.org/Graphics/SVG/1.1/DTD/svg11.dtd">
<!-- Generated by graphviz version 2.43.0 (0)
 -->
<!-- Title: lemons::dsp::MidiChoppingProcessor&lt; SampleType &gt; Pages: 1 -->
<!--zoomable 186 -->
<svg id="main" version="1.1" xmlns="http://www.w3.org/2000/svg" xmlns:xlink="http://www.w3.org/1999/xlink" xml:space="preserve" onload="init(evt)">
<style type="text/css"><![CDATA[
.edge:hover path { stroke: red; }
.edge:hover polygon { stroke: red; fill: red; }
]]></style>
<script type="text/javascript"><![CDATA[
var edges = document.getElementsByTagName('g');
if (edges && edges.length) {
  for (var i=0;i<edges.length;i++) {
    if (edges[i].id.substr(0,4)=='edge') {
      edges[i].setAttribute('class','edge');
    }
  }
}
]]></script>
        <defs>
                <circle id="rim" cx="0" cy="0" r="7"/>
                <circle id="rim2" cx="0" cy="0" r="3.5"/>
                <g id="zoomPlus">
                        <use xlink:href="#rim" fill="#404040">
                                <set attributeName="fill" to="#808080" begin="zoomplus.mouseover" end="zoomplus.mouseout"/>
                        </use>
                        <path d="M-4,0h8M0,-4v8" fill="none" stroke="white" stroke-width="1.5" pointer-events="none"/>
                </g>
                <g id="zoomMin">
                        <use xlink:href="#rim" fill="#404040">
                                <set attributeName="fill" to="#808080" begin="zoomminus.mouseover" end="zoomminus.mouseout"/>
                        </use>
                        <path d="M-4,0h8" fill="none" stroke="white" stroke-width="1.5" pointer-events="none"/>
                </g>
                <g id="dirArrow">
                        <path fill="none" stroke="white" stroke-width="1.5" d="M0,-3.0v7 M-2.5,-0.5L0,-3.0L2.5,-0.5"/>
                </g>
               <g id="resetDef">
                       <use xlink:href="#rim2" fill="#404040">
                               <set attributeName="fill" to="#808080" begin="reset.mouseover" end="reset.mouseout"/>
                       </use>
               </g>
        </defs>

<script type="text/javascript">
var viewWidth = 660;
var viewHeight = 186;
var sectionId = 'dynsection-0';
</script>
<script xlink:href="svgpan.js"/>
<svg id="graph" class="graph">
<g id="viewport">
<title>lemons::dsp::MidiChoppingProcessor&lt; SampleType &gt;</title>
<!-- Node1 -->
<g id="node1" class="node">
<title>Node1</title>
<g id="a_node1"><a xlink:title=" ">
<polygon fill="#bfbfbf" stroke="black" points="0,-69.5 0,-99.5 149,-99.5 149,-69.5 0,-69.5"/>
<text text-anchor="start" x="8" y="-87.5" font-family="Helvetica,sans-Serif" font-size="10.00">lemons::dsp::MidiChopping</text>
<text text-anchor="middle" x="74.5" y="-76.5" font-family="Helvetica,sans-Serif" font-size="10.00">Processor&lt; SampleType &gt;</text>
</a>
</g>
</g>
<!-- Node2 -->
<g id="node2" class="node">
<title>Node2</title>
<g id="a_node2"><a xlink:href="classlemons_1_1dsp_1_1synth_1_1MidiManager.html" target="_top" xlink:title=" ">
<polygon fill="none" stroke="black" points="244,-147.5 244,-177.5 412,-177.5 412,-147.5 244,-147.5"/>
<text text-anchor="start" x="252" y="-165.5" font-family="Helvetica,sans-Serif" font-size="10.00">lemons::dsp::synth</text>
<text text-anchor="middle" x="328" y="-154.5" font-family="Helvetica,sans-Serif" font-size="10.00">::MidiManager&lt; SampleType &gt;</text>
</a>
</g>
</g>
<!-- Node1&#45;&gt;Node2 -->
<g id="edge1" class="edge">
<title>Node1&#45;&gt;Node2</title>
<path fill="none" stroke="midnightblue" d="M126.97,-103.07C139.98,-107.61 153.97,-112.35 167,-116.5 201.56,-127.5 240.69,-138.77 271.6,-147.4"/>
<polygon fill="midnightblue" stroke="midnightblue" points="127.84,-99.67 117.24,-99.66 125.52,-106.27 127.84,-99.67"/>
</g>
<!-- Node3 -->
<g id="node3" class="node">
<title>Node3</title>
<g id="a_node3"><a xlink:href="classlemons_1_1plugin_1_1ParameterProcessor.html" target="_top" xlink:title="This class processes incoming MIDI messages and quantizes the audio output with any MIDI CC messages ...">
<polygon fill="none" stroke="black" points="255,-49.5 255,-79.5 401,-79.5 401,-49.5 255,-49.5"/>
<text text-anchor="start" x="263" y="-67.5" font-family="Helvetica,sans-Serif" font-size="10.00">lemons::plugin::Parameter</text>
<text text-anchor="middle" x="328" y="-56.5" font-family="Helvetica,sans-Serif" font-size="10.00">Processor&lt; SampleType &gt;</text>
</a>
</g>
</g>
<!-- Node1&#45;&gt;Node3 -->
<g id="edge2" class="edge">
<title>Node1&#45;&gt;Node3</title>
<path fill="none" stroke="midnightblue" d="M159.59,-77.81C190.51,-75.35 225.21,-72.59 254.98,-70.23"/>
<polygon fill="midnightblue" stroke="midnightblue" points="158.95,-74.35 149.26,-78.63 159.5,-81.33 158.95,-74.35"/>
</g>
<!-- Node6 -->
<g id="node6" class="node">
<title>Node6</title>
<g id="a_node6"><a xlink:href="classlemons_1_1dsp_1_1MidiChoppingProcessor.html" target="_top" xlink:title=" ">
<polygon fill="none" stroke="black" points="253.5,-98.5 253.5,-128.5 402.5,-128.5 402.5,-98.5 253.5,-98.5"/>
<text text-anchor="start" x="261.5" y="-116.5" font-family="Helvetica,sans-Serif" font-size="10.00">lemons::dsp::MidiChopping</text>
<text text-anchor="middle" x="328" y="-105.5" font-family="Helvetica,sans-Serif" font-size="10.00">Processor&lt; double &gt;</text>
</a>
</g>
</g>
<!-- Node1&#45;&gt;Node6 -->
<g id="edge5" class="edge">
<title>Node1&#45;&gt;Node6</title>
<path fill="none" stroke="orange" stroke-dasharray="5,2" d="M159.4,-94.17C189.77,-97.68 223.81,-101.6 253.24,-105"/>
<polygon fill="orange" stroke="orange" points="159.59,-90.67 149.26,-93.01 158.79,-97.63 159.59,-90.67"/>
<text text-anchor="middle" x="196.5" y="-104.5" font-family="Helvetica,sans-Serif" font-size="10.00"> &lt; double &gt;</text>
</g>
<!-- Node7 -->
<g id="node7" class="node">
<title>Node7</title>
<g id="a_node7"><a xlink:href="classlemons_1_1dsp_1_1MidiChoppingProcessor.html" target="_top" xlink:title=" ">
<polygon fill="none" stroke="black" points="253.5,-0.5 253.5,-30.5 402.5,-30.5 402.5,-0.5 253.5,-0.5"/>
<text text-anchor="start" x="261.5" y="-18.5" font-family="Helvetica,sans-Serif" font-size="10.00">lemons::dsp::MidiChopping</text>
<text text-anchor="middle" x="328" y="-7.5" font-family="Helvetica,sans-Serif" font-size="10.00">Processor&lt; float &gt;</text>
</a>
</g>
</g>
<!-- Node1&#45;&gt;Node7 -->
<g id="edge7" class="edge">
<title>Node1&#45;&gt;Node7</title>
<path fill="none" stroke="orange" stroke-dasharray="5,2" d="M135.64,-66.47C146.08,-63.42 156.84,-60.33 167,-57.5 200.34,-48.21 237.74,-38.36 267.99,-30.53"/>
<polygon fill="orange" stroke="orange" points="134.37,-63.2 125.76,-69.37 136.34,-69.91 134.37,-63.2"/>
<text text-anchor="middle" x="196.5" y="-60.5" font-family="Helvetica,sans-Serif" font-size="10.00"> &lt; float &gt;</text>
</g>
<!-- Node4 -->
<g id="node4" class="node">
<title>Node4</title>
<g id="a_node4"><a xlink:href="classlemons_1_1plugin_1_1ParameterProcessor.html" target="_top" xlink:title=" ">
<polygon fill="none" stroke="black" points="507,-83.5 507,-113.5 652,-113.5 652,-83.5 507,-83.5"/>
<text text-anchor="start" x="515" y="-101.5" font-family="Helvetica,sans-Serif" font-size="10.00">lemons::plugin::Parameter</text>
<text text-anchor="middle" x="579.5" y="-90.5" font-family="Helvetica,sans-Serif" font-size="10.00">Processor&lt; double &gt;</text>
</a>
</g>
</g>
<!-- Node3&#45;&gt;Node4 -->
<g id="edge3" class="edge">
<title>Node3&#45;&gt;Node4</title>
<path fill="none" stroke="orange" stroke-dasharray="5,2" d="M411.47,-75.74C442.34,-79.95 477.12,-84.69 506.93,-88.75"/>
<polygon fill="orange" stroke="orange" points="411.55,-72.22 401.17,-74.33 410.6,-79.15 411.55,-72.22"/>
<text text-anchor="middle" x="459.5" y="-88.5" font-family="Helvetica,sans-Serif" font-size="10.00"> &lt; double &gt;</text>
</g>
<!-- Node5 -->
<g id="node5" class="node">
<title>Node5</title>
<g id="a_node5"><a xlink:href="classlemons_1_1plugin_1_1ParameterProcessor.html" target="_top" xlink:title=" ">
<polygon fill="none" stroke="black" points="507,-25.5 507,-55.5 652,-55.5 652,-25.5 507,-25.5"/>
<text text-anchor="start" x="515" y="-43.5" font-family="Helvetica,sans-Serif" font-size="10.00">lemons::plugin::Parameter</text>
<text text-anchor="middle" x="579.5" y="-32.5" font-family="Helvetica,sans-Serif" font-size="10.00">Processor&lt; float &gt;</text>
</a>
</g>
</g>
<!-- Node3&#45;&gt;Node5 -->
<g id="edge4" class="edge">
<title>Node3&#45;&gt;Node5</title>
<path fill="none" stroke="orange" stroke-dasharray="5,2" d="M411.24,-55.4C417.58,-54.74 423.89,-54.1 430,-53.5 454.98,-51.05 482.35,-48.59 506.72,-46.48"/>
<polygon fill="orange" stroke="orange" points="410.84,-51.92 401.26,-56.44 411.57,-58.88 410.84,-51.92"/>
<text text-anchor="middle" x="459.5" y="-56.5" font-family="Helvetica,sans-Serif" font-size="10.00"> &lt; float &gt;</text>
</g>
<!-- Node6&#45;&gt;Node4 -->
<g id="edge6" class="edge">
<title>Node6&#45;&gt;Node4</title>
<path fill="none" stroke="midnightblue" d="M412.7,-108.47C443.22,-106.63 477.43,-104.58 506.8,-102.81"/>
<polygon fill="midnightblue" stroke="midnightblue" points="412.28,-104.99 402.51,-109.08 412.7,-111.97 412.28,-104.99"/>
</g>
<!-- Node7&#45;&gt;Node5 -->
<g id="edge8" class="edge">
<title>Node7&#45;&gt;Node5</title>
<path fill="none" stroke="midnightblue" d="M412.7,-23.89C443.22,-26.94 477.43,-30.37 506.8,-33.32"/>
<polygon fill="midnightblue" stroke="midnightblue" points="412.81,-20.38 402.51,-22.87 412.11,-27.35 412.81,-20.38"/>
</g>
</g>
</svg>
        <g id="navigator" transform="translate(0 0)" fill="#404254">
                <rect fill="#f2f5e9" fill-opacity="0.5" stroke="#606060" stroke-width=".5" x="0" y="0" width="60" height="60"/>
                <use id="zoomplus" xlink:href="#zoomPlus" x="17" y="9" onmousedown="handleZoom(evt,'in')"/>
                <use id="zoomminus" xlink:href="#zoomMin" x="42" y="9" onmousedown="handleZoom(evt,'out')"/>
                <use id="reset" xlink:href="#resetDef" x="30" y="36" onmousedown="handleReset()"/>
                <g id="arrowUp" xlink:href="#dirArrow" transform="translate(30 24)" onmousedown="handlePan(0,-1)">
                  <use xlink:href="#rim" fill="#404040">
                        <set attributeName="fill" to="#808080" begin="arrowUp.mouseover" end="arrowUp.mouseout"/>
                  </use>
                  <path fill="none" stroke="white" stroke-width="1.5" d="M0,-3.0v7 M-2.5,-0.5L0,-3.0L2.5,-0.5"/>
                </g>
                <g id="arrowRight" xlink:href="#dirArrow" transform="rotate(90) translate(36 -43)" onmousedown="handlePan(1,0)">
                  <use xlink:href="#rim" fill="#404040">
                        <set attributeName="fill" to="#808080" begin="arrowRight.mouseover" end="arrowRight.mouseout"/>
                  </use>
                  <path fill="none" stroke="white" stroke-width="1.5" d="M0,-3.0v7 M-2.5,-0.5L0,-3.0L2.5,-0.5"/>
                </g>
                <g id="arrowDown" xlink:href="#dirArrow" transform="rotate(180) translate(-30 -48)" onmousedown="handlePan(0,1)">
                  <use xlink:href="#rim" fill="#404040">
                        <set attributeName="fill" to="#808080" begin="arrowDown.mouseover" end="arrowDown.mouseout"/>
                  </use>
                  <path fill="none" stroke="white" stroke-width="1.5" d="M0,-3.0v7 M-2.5,-0.5L0,-3.0L2.5,-0.5"/>
                </g>
                <g id="arrowLeft" xlink:href="#dirArrow" transform="rotate(270) translate(-36 17)" onmousedown="handlePan(-1,0)">
                  <use xlink:href="#rim" fill="#404040">
                        <set attributeName="fill" to="#808080" begin="arrowLeft.mouseover" end="arrowLeft.mouseout"/>
                  </use>
                  <path fill="none" stroke="white" stroke-width="1.5" d="M0,-3.0v7 M-2.5,-0.5L0,-3.0L2.5,-0.5"/>
                </g>
        </g>
        <svg viewBox="0 0 15 15" width="100%" height="30px" preserveAspectRatio="xMaxYMin meet">
         <g id="arrow_out" transform="scale(0.3 0.3)">
          <a xlink:href="classlemons_1_1dsp_1_1MidiChoppingProcessor__inherit__graph_org.svg" target="_base">
           <rect id="button" ry="5" rx="5" y="6" x="6" height="38" width="38"
                fill="#f2f5e9" fill-opacity="0.5" stroke="#606060" stroke-width="1.0"/>
           <path id="arrow"
             d="M 11.500037,31.436501 C 11.940474,20.09759 22.043105,11.32322 32.158766,21.979434 L 37.068811,17.246167 C 37.068811,17.246167 37.088388,32 37.088388,32 L 22.160133,31.978069 C 22.160133,31.978069 26.997745,27.140456 26.997745,27.140456 C 18.528582,18.264221 13.291696,25.230495 11.500037,31.436501 z"
             style="fill:#404040;"/>
          </a>
         </g>
        </svg>
</svg>
