<?xml version="1.0" encoding="UTF-8" standalone="no"?>
<!DOCTYPE svg PUBLIC "-//W3C//DTD SVG 1.1//EN"
 "http://www.w3.org/Graphics/SVG/1.1/DTD/svg11.dtd">
<!-- Generated by graphviz version 2.43.0 (0)
 -->
<!-- Title: lemons::dsp::Engine&lt; SampleType &gt; Pages: 1 -->
<!--zoomable 1014 -->
<svg id="main" version="1.1" xmlns="http://www.w3.org/2000/svg" xmlns:xlink="http://www.w3.org/1999/xlink" xml:space="preserve" onload="init(evt)">
<style type="text/css"><![CDATA[
.edge:hover path { stroke: red; }
.edge:hover polygon { stroke: red; fill: red; }
]]></style>
<script type="text/javascript"><![CDATA[
var edges = document.getElementsByTagName('g');
if (edges && edges.length) {
  for (var i=0;i<edges.length;i++) {
    if (edges[i].id.substr(0,4)=='edge') {
      edges[i].setAttribute('class','edge');
    }
  }
}
]]></script>
        <defs>
                <circle id="rim" cx="0" cy="0" r="7"/>
                <circle id="rim2" cx="0" cy="0" r="3.5"/>
                <g id="zoomPlus">
                        <use xlink:href="#rim" fill="#404040">
                                <set attributeName="fill" to="#808080" begin="zoomplus.mouseover" end="zoomplus.mouseout"/>
                        </use>
                        <path d="M-4,0h8M0,-4v8" fill="none" stroke="white" stroke-width="1.5" pointer-events="none"/>
                </g>
                <g id="zoomMin">
                        <use xlink:href="#rim" fill="#404040">
                                <set attributeName="fill" to="#808080" begin="zoomminus.mouseover" end="zoomminus.mouseout"/>
                        </use>
                        <path d="M-4,0h8" fill="none" stroke="white" stroke-width="1.5" pointer-events="none"/>
                </g>
                <g id="dirArrow">
                        <path fill="none" stroke="white" stroke-width="1.5" d="M0,-3.0v7 M-2.5,-0.5L0,-3.0L2.5,-0.5"/>
                </g>
               <g id="resetDef">
                       <use xlink:href="#rim2" fill="#404040">
                               <set attributeName="fill" to="#808080" begin="reset.mouseover" end="reset.mouseout"/>
                       </use>
               </g>
        </defs>

<script type="text/javascript">
var viewWidth = 907;
var viewHeight = 1014;
var sectionId = 'dynsection-0';
</script>
<script xlink:href="svgpan.js"/>
<svg id="graph" class="graph">
<g id="viewport">
<title>lemons::dsp::Engine&lt; SampleType &gt;</title>
<!-- Node1 -->
<g id="node1" class="node">
<title>Node1</title>
<g id="a_node1"><a xlink:title="Base class for an audio engine.">
<polygon fill="#bfbfbf" stroke="black" points="0,-673.5 0,-703.5 115,-703.5 115,-673.5 0,-673.5"/>
<text text-anchor="start" x="8" y="-691.5" font-family="Helvetica,sans-Serif" font-size="10.00">lemons::dsp::Engine</text>
<text text-anchor="middle" x="57.5" y="-680.5" font-family="Helvetica,sans-Serif" font-size="10.00">&lt; SampleType &gt;</text>
</a>
</g>
</g>
<!-- Node2 -->
<g id="node2" class="node">
<title>Node2</title>
<g id="a_node2"><a xlink:href="classlemons_1_1dsp_1_1_f_x_1_1_effect_engine.html" target="_top" xlink:title=" ">
<polygon fill="none" stroke="black" points="395,-975.5 395,-1005.5 511,-1005.5 511,-975.5 395,-975.5"/>
<text text-anchor="start" x="403" y="-993.5" font-family="Helvetica,sans-Serif" font-size="10.00">EffectEngine&lt; Filter,</text>
<text text-anchor="middle" x="453" y="-982.5" font-family="Helvetica,sans-Serif" font-size="10.00"> SampleType &gt;</text>
</a>
</g>
</g>
<!-- Node1&#45;&gt;Node2 -->
<g id="edge1" class="edge">
<title>Node1&#45;&gt;Node2</title>
<path fill="none" stroke="midnightblue" d="M62.12,-713.85C72.3,-773.99 107.47,-923.85 210,-971.5 268.66,-998.77 343.98,-1000.17 394.89,-996.91"/>
<polygon fill="midnightblue" stroke="midnightblue" points="65.53,-713.03 60.5,-703.71 58.62,-714.13 65.53,-713.03"/>
</g>
<!-- Node4 -->
<g id="node4" class="node">
<title>Node4</title>
<g id="a_node4"><a xlink:href="classlemons_1_1dsp_1_1osc_1_1_engine.html" target="_top" xlink:title=" ">
<polygon fill="none" stroke="black" points="224,-882.5 224,-912.5 363,-912.5 363,-882.5 224,-882.5"/>
<text text-anchor="start" x="232" y="-900.5" font-family="Helvetica,sans-Serif" font-size="10.00">Engine&lt; SampleType,</text>
<text text-anchor="middle" x="293.5" y="-889.5" font-family="Helvetica,sans-Serif" font-size="10.00"> lemons::dsp::osc::Saw &gt;</text>
</a>
</g>
</g>
<!-- Node1&#45;&gt;Node4 -->
<g id="edge3" class="edge">
<title>Node1&#45;&gt;Node4</title>
<path fill="none" stroke="midnightblue" d="M70.28,-712.5C91.76,-753.39 141.49,-835.78 210,-873.5 216.14,-876.88 222.81,-879.83 229.6,-882.39"/>
<polygon fill="midnightblue" stroke="midnightblue" points="73.35,-710.81 65.66,-703.51 67.12,-714 73.35,-710.81"/>
</g>
<!-- Node5 -->
<g id="node5" class="node">
<title>Node5</title>
<g id="a_node5"><a xlink:href="classlemons_1_1dsp_1_1osc_1_1_engine.html" target="_top" xlink:title=" ">
<polygon fill="none" stroke="black" points="223.5,-833.5 223.5,-863.5 363.5,-863.5 363.5,-833.5 223.5,-833.5"/>
<text text-anchor="start" x="231.5" y="-851.5" font-family="Helvetica,sans-Serif" font-size="10.00">Engine&lt; SampleType,</text>
<text text-anchor="middle" x="293.5" y="-840.5" font-family="Helvetica,sans-Serif" font-size="10.00"> lemons::dsp::osc::Sine &gt;</text>
</a>
</g>
</g>
<!-- Node1&#45;&gt;Node5 -->
<g id="edge4" class="edge">
<title>Node1&#45;&gt;Node5</title>
<path fill="none" stroke="midnightblue" d="M77.22,-711.53C103.53,-742.27 154.48,-796.12 210,-824.5 216.64,-827.89 223.84,-830.88 231.11,-833.48"/>
<polygon fill="midnightblue" stroke="midnightblue" points="79.59,-708.91 70.47,-703.51 74.24,-713.42 79.59,-708.91"/>
</g>
<!-- Node6 -->
<g id="node6" class="node">
<title>Node6</title>
<g id="a_node6"><a xlink:href="classlemons_1_1dsp_1_1osc_1_1_engine.html" target="_top" xlink:title=" ">
<polygon fill="none" stroke="black" points="217.5,-784.5 217.5,-814.5 369.5,-814.5 369.5,-784.5 217.5,-784.5"/>
<text text-anchor="start" x="225.5" y="-802.5" font-family="Helvetica,sans-Serif" font-size="10.00">Engine&lt; SampleType,</text>
<text text-anchor="middle" x="293.5" y="-791.5" font-family="Helvetica,sans-Serif" font-size="10.00"> lemons::dsp::osc::Square &gt;</text>
</a>
</g>
</g>
<!-- Node1&#45;&gt;Node6 -->
<g id="edge5" class="edge">
<title>Node1&#45;&gt;Node6</title>
<path fill="none" stroke="midnightblue" d="M89.41,-709.19C119.26,-728.44 166.24,-756.89 210,-775.5 217.69,-778.77 225.96,-781.76 234.19,-784.43"/>
<polygon fill="midnightblue" stroke="midnightblue" points="91.01,-706.05 80.72,-703.53 87.19,-711.92 91.01,-706.05"/>
</g>
<!-- Node7 -->
<g id="node7" class="node">
<title>Node7</title>
<g id="a_node7"><a xlink:href="classlemons_1_1dsp_1_1osc_1_1_engine.html" target="_top" xlink:title=" ">
<polygon fill="none" stroke="black" points="210,-735.5 210,-765.5 377,-765.5 377,-735.5 210,-735.5"/>
<text text-anchor="start" x="218" y="-753.5" font-family="Helvetica,sans-Serif" font-size="10.00">Engine&lt; SampleType,</text>
<text text-anchor="middle" x="293.5" y="-742.5" font-family="Helvetica,sans-Serif" font-size="10.00"> lemons::dsp::osc::SuperSaw &gt;</text>
</a>
</g>
</g>
<!-- Node1&#45;&gt;Node7 -->
<g id="edge6" class="edge">
<title>Node1&#45;&gt;Node7</title>
<path fill="none" stroke="midnightblue" d="M125.23,-706.18C160.08,-715.41 202.27,-726.59 235.57,-735.41"/>
<polygon fill="midnightblue" stroke="midnightblue" points="125.71,-702.69 115.14,-703.51 123.91,-709.45 125.71,-702.69"/>
</g>
<!-- Node8 -->
<g id="node8" class="node">
<title>Node8</title>
<g id="a_node8"><a xlink:href="classlemons_1_1dsp_1_1osc_1_1_engine.html" target="_top" xlink:title=" ">
<polygon fill="none" stroke="black" points="215,-686.5 215,-716.5 372,-716.5 372,-686.5 215,-686.5"/>
<text text-anchor="start" x="223" y="-704.5" font-family="Helvetica,sans-Serif" font-size="10.00">Engine&lt; SampleType,</text>
<text text-anchor="middle" x="293.5" y="-693.5" font-family="Helvetica,sans-Serif" font-size="10.00"> lemons::dsp::osc::Triangle &gt;</text>
</a>
</g>
</g>
<!-- Node1&#45;&gt;Node8 -->
<g id="edge7" class="edge">
<title>Node1&#45;&gt;Node8</title>
<path fill="none" stroke="midnightblue" d="M125.2,-692.21C153.1,-693.76 185.73,-695.57 214.72,-697.18"/>
<polygon fill="midnightblue" stroke="midnightblue" points="125.32,-688.71 115.14,-691.65 124.94,-695.7 125.32,-688.71"/>
</g>
<!-- Node9 -->
<g id="node9" class="node">
<title>Node9</title>
<g id="a_node9"><a xlink:href="classlemons_1_1dsp_1_1_f_x_1_1_effect_engine.html" target="_top" xlink:title="A class that wraps an AudioEffect into a dsp::Engine.">
<polygon fill="none" stroke="black" points="213,-931.5 213,-961.5 374,-961.5 374,-931.5 213,-931.5"/>
<text text-anchor="start" x="221" y="-949.5" font-family="Helvetica,sans-Serif" font-size="10.00">lemons::dsp::FX::EffectEngine</text>
<text text-anchor="middle" x="293.5" y="-938.5" font-family="Helvetica,sans-Serif" font-size="10.00">&lt; SampleType &gt;</text>
</a>
</g>
</g>
<!-- Node1&#45;&gt;Node9 -->
<g id="edge8" class="edge">
<title>Node1&#45;&gt;Node9</title>
<path fill="none" stroke="midnightblue" d="M66.78,-713.28C78.44,-746.09 101.81,-804.86 133,-848.5 160.6,-887.12 168.91,-898.74 210,-922.5 215.94,-925.94 222.41,-928.91 229.03,-931.48"/>
<polygon fill="midnightblue" stroke="midnightblue" points="70,-711.89 63.41,-703.6 63.39,-714.19 70,-711.89"/>
</g>
<!-- Node11 -->
<g id="node11" class="node">
<title>Node11</title>
<g id="a_node11"><a xlink:href="classlemons_1_1dsp_1_1_latency_engine.html" target="_top" xlink:title="Base class for audio engines that require latency (ie, a consistent block size) for their processing.">
<polygon fill="none" stroke="black" points="217,-637.5 217,-667.5 370,-667.5 370,-637.5 217,-637.5"/>
<text text-anchor="start" x="225" y="-655.5" font-family="Helvetica,sans-Serif" font-size="10.00">lemons::dsp::LatencyEngine</text>
<text text-anchor="middle" x="293.5" y="-644.5" font-family="Helvetica,sans-Serif" font-size="10.00">&lt; SampleType &gt;</text>
</a>
</g>
</g>
<!-- Node1&#45;&gt;Node11 -->
<g id="edge11" class="edge">
<title>Node1&#45;&gt;Node11</title>
<path fill="none" stroke="midnightblue" d="M125.05,-678.26C153.7,-673.85 187.34,-668.68 216.92,-664.13"/>
<polygon fill="midnightblue" stroke="midnightblue" points="124.5,-674.81 115.14,-679.79 125.56,-681.72 124.5,-674.81"/>
</g>
<!-- Node14 -->
<g id="node14" class="node">
<title>Node14</title>
<g id="a_node14"><a xlink:href="classlemons_1_1dsp_1_1osc_1_1_choosable_oscillator.html" target="_top" xlink:title="A class that encapsulates together all the kinds of oscillators, and allows you to seamlessly switch ...">
<polygon fill="none" stroke="black" points="216,-588.5 216,-618.5 371,-618.5 371,-588.5 216,-588.5"/>
<text text-anchor="start" x="224" y="-606.5" font-family="Helvetica,sans-Serif" font-size="10.00">lemons::dsp::osc::Choosable</text>
<text text-anchor="middle" x="293.5" y="-595.5" font-family="Helvetica,sans-Serif" font-size="10.00">Oscillator&lt; SampleType &gt;</text>
</a>
</g>
</g>
<!-- Node1&#45;&gt;Node14 -->
<g id="edge14" class="edge">
<title>Node1&#45;&gt;Node14</title>
<path fill="none" stroke="midnightblue" d="M103.34,-669.61C133.3,-657.27 173.73,-641.15 210,-628.5 219.75,-625.1 230.24,-621.71 240.36,-618.59"/>
<polygon fill="midnightblue" stroke="midnightblue" points="101.9,-666.42 94,-673.47 104.58,-672.88 101.9,-666.42"/>
</g>
<!-- Node16 -->
<g id="node16" class="node">
<title>Node16</title>
<g id="a_node16"><a xlink:href="classlemons_1_1dsp_1_1osc_1_1_engine.html" target="_top" xlink:title="A utility class that wraps an Oscillator into a self&#45;contained dsp::Engine.">
<polygon fill="none" stroke="black" points="225,-362.5 225,-392.5 362,-392.5 362,-362.5 225,-362.5"/>
<text text-anchor="start" x="233" y="-380.5" font-family="Helvetica,sans-Serif" font-size="10.00">lemons::dsp::osc::Engine</text>
<text text-anchor="middle" x="293.5" y="-369.5" font-family="Helvetica,sans-Serif" font-size="10.00">&lt; SampleType &gt;</text>
</a>
</g>
</g>
<!-- Node1&#45;&gt;Node16 -->
<g id="edge16" class="edge">
<title>Node1&#45;&gt;Node16</title>
<path fill="none" stroke="midnightblue" d="M74.55,-664.98C89.42,-643.34 112.31,-610.47 133,-582.5 186.37,-510.36 253.15,-426.5 280.24,-392.73"/>
<polygon fill="midnightblue" stroke="midnightblue" points="71.65,-663.01 68.88,-673.24 77.42,-666.97 71.65,-663.01"/>
</g>
<!-- Node27 -->
<g id="node27" class="node">
<title>Node27</title>
<g id="a_node27"><a xlink:href="classlemons_1_1dsp_1_1_protector.html" target="_top" xlink:title="A DSP engine that, under normal conditions, simply passes the audio through; if any samples are inf o...">
<polygon fill="none" stroke="black" points="230.5,-313.5 230.5,-343.5 356.5,-343.5 356.5,-313.5 230.5,-313.5"/>
<text text-anchor="start" x="238.5" y="-331.5" font-family="Helvetica,sans-Serif" font-size="10.00">lemons::dsp::Protector</text>
<text text-anchor="middle" x="293.5" y="-320.5" font-family="Helvetica,sans-Serif" font-size="10.00">&lt; SampleType &gt;</text>
</a>
</g>
</g>
<!-- Node1&#45;&gt;Node27 -->
<g id="edge27" class="edge">
<title>Node1&#45;&gt;Node27</title>
<path fill="none" stroke="midnightblue" d="M62.3,-663.19C73.09,-600.5 109.9,-437.02 210,-353.5 215.98,-348.51 222.93,-344.52 230.21,-341.33"/>
<polygon fill="midnightblue" stroke="midnightblue" points="58.8,-662.92 60.63,-673.36 65.71,-664.06 58.8,-662.92"/>
</g>
<!-- Node28 -->
<g id="node28" class="node">
<title>Node28</title>
<g id="a_node28"><a xlink:href="classlemons_1_1plugin_1_1_processor_engine.html" target="_top" xlink:title="A kind of dsp::Engine that holds a ProcessorHolder.">
<polygon fill="none" stroke="black" points="222.5,-264.5 222.5,-294.5 364.5,-294.5 364.5,-264.5 222.5,-264.5"/>
<text text-anchor="start" x="230.5" y="-282.5" font-family="Helvetica,sans-Serif" font-size="10.00">lemons::plugin::Processor</text>
<text text-anchor="middle" x="293.5" y="-271.5" font-family="Helvetica,sans-Serif" font-size="10.00">Engine&lt; SampleType &gt;</text>
</a>
</g>
</g>
<!-- Node1&#45;&gt;Node28 -->
<g id="edge28" class="edge">
<title>Node1&#45;&gt;Node28</title>
<path fill="none" stroke="midnightblue" d="M59.12,-663.04C61.57,-606.2 73.68,-466.34 133,-369.5 156.39,-331.31 170.65,-325.88 210,-304.5 216.97,-300.71 224.59,-297.42 232.29,-294.59"/>
<polygon fill="midnightblue" stroke="midnightblue" points="55.61,-663.15 58.74,-673.27 62.61,-663.4 55.61,-663.15"/>
</g>
<!-- Node30 -->
<g id="node30" class="node">
<title>Node30</title>
<g id="a_node30"><a xlink:href="classlemons_1_1dsp_1_1_engine.html" target="_top" xlink:title=" ">
<polygon fill="none" stroke="black" points="236,-215.5 236,-245.5 351,-245.5 351,-215.5 236,-215.5"/>
<text text-anchor="start" x="244" y="-233.5" font-family="Helvetica,sans-Serif" font-size="10.00">lemons::dsp::Engine</text>
<text text-anchor="middle" x="293.5" y="-222.5" font-family="Helvetica,sans-Serif" font-size="10.00">&lt; double &gt;</text>
</a>
</g>
</g>
<!-- Node1&#45;&gt;Node30 -->
<g id="edge30" class="edge">
<title>Node1&#45;&gt;Node30</title>
<path fill="none" stroke="orange" stroke-dasharray="5,2" d="M60.58,-663.31C67.33,-586.81 90.61,-358.82 133,-299.5 156.86,-266.11 200.38,-248.73 235.94,-239.76"/>
<polygon fill="orange" stroke="orange" points="57.08,-663.19 59.71,-673.46 64.05,-663.79 57.08,-663.19"/>
<text text-anchor="middle" x="162.5" y="-302.5" font-family="Helvetica,sans-Serif" font-size="10.00"> &lt; double &gt;</text>
</g>
<!-- Node31 -->
<g id="node31" class="node">
<title>Node31</title>
<g id="a_node31"><a xlink:href="classlemons_1_1dsp_1_1_engine.html" target="_top" xlink:title=" ">
<polygon fill="none" stroke="black" points="236,-539.5 236,-569.5 351,-569.5 351,-539.5 236,-539.5"/>
<text text-anchor="start" x="244" y="-557.5" font-family="Helvetica,sans-Serif" font-size="10.00">lemons::dsp::Engine</text>
<text text-anchor="middle" x="293.5" y="-546.5" font-family="Helvetica,sans-Serif" font-size="10.00">&lt; float &gt;</text>
</a>
</g>
</g>
<!-- Node1&#45;&gt;Node31 -->
<g id="edge31" class="edge">
<title>Node1&#45;&gt;Node31</title>
<path fill="none" stroke="orange" stroke-dasharray="5,2" d="M80.29,-665.89C94.51,-651.84 113.93,-633.96 133,-620.5 164.68,-598.14 174.17,-594.3 210,-579.5 218.71,-575.9 228.14,-572.56 237.39,-569.56"/>
<polygon fill="orange" stroke="orange" points="77.54,-663.69 72.96,-673.25 82.49,-668.64 77.54,-663.69"/>
<text text-anchor="middle" x="162.5" y="-623.5" font-family="Helvetica,sans-Serif" font-size="10.00"> &lt; float &gt;</text>
</g>
<!-- Node3 -->
<g id="node3" class="node">
<title>Node3</title>
<g id="a_node3"><a xlink:href="structlemons_1_1dsp_1_1_f_x_1_1_filter_engine.html" target="_top" xlink:title="A class that represents an audio engine holding a filter effect.">
<polygon fill="none" stroke="black" points="741,-957.5 741,-987.5 899,-987.5 899,-957.5 741,-957.5"/>
<text text-anchor="start" x="749" y="-975.5" font-family="Helvetica,sans-Serif" font-size="10.00">lemons::dsp::FX::FilterEngine</text>
<text text-anchor="middle" x="820" y="-964.5" font-family="Helvetica,sans-Serif" font-size="10.00">&lt; SampleType &gt;</text>
</a>
</g>
</g>
<!-- Node2&#45;&gt;Node3 -->
<g id="edge2" class="edge">
<title>Node2&#45;&gt;Node3</title>
<path fill="none" stroke="midnightblue" d="M521.1,-987.19C583.13,-984.13 675.33,-979.59 740.7,-976.36"/>
<polygon fill="midnightblue" stroke="midnightblue" points="520.85,-983.7 511.03,-987.69 521.19,-990.69 520.85,-983.7"/>
</g>
<!-- Node10 -->
<g id="node10" class="node">
<title>Node10</title>
<g id="a_node10"><a xlink:href="classlemons_1_1dsp_1_1_f_x_1_1_effect_engine.html" target="_top" xlink:title=" ">
<polygon fill="none" stroke="black" points="536,-931.5 536,-961.5 697,-961.5 697,-931.5 536,-931.5"/>
<text text-anchor="start" x="544" y="-949.5" font-family="Helvetica,sans-Serif" font-size="10.00">lemons::dsp::FX::EffectEngine</text>
<text text-anchor="middle" x="616.5" y="-938.5" font-family="Helvetica,sans-Serif" font-size="10.00">&lt; Filter, SampleType &gt;</text>
</a>
</g>
</g>
<!-- Node9&#45;&gt;Node10 -->
<g id="edge9" class="edge">
<title>Node9&#45;&gt;Node10</title>
<path fill="none" stroke="orange" stroke-dasharray="5,2" d="M384.55,-946.5C432.11,-946.5 489.97,-946.5 535.87,-946.5"/>
<polygon fill="orange" stroke="orange" points="384.26,-943 374.26,-946.5 384.26,-950 384.26,-943"/>
<text text-anchor="middle" x="453" y="-949.5" font-family="Helvetica,sans-Serif" font-size="10.00"> &lt; Filter, SampleType &gt;</text>
</g>
<!-- Node10&#45;&gt;Node3 -->
<g id="edge10" class="edge">
<title>Node10&#45;&gt;Node3</title>
<path fill="none" stroke="midnightblue" d="M707.35,-958.09C718.55,-959.54 729.93,-961.01 740.93,-962.43"/>
<polygon fill="midnightblue" stroke="midnightblue" points="707.5,-954.58 697.14,-956.78 706.61,-961.53 707.5,-954.58"/>
</g>
<!-- Node12 -->
<g id="node12" class="node">
<title>Node12</title>
<g id="a_node12"><a xlink:href="classlemons_1_1dsp_1_1_audio_file_player.html" target="_top" xlink:title="A kind of AudioEngine that plays audio from an AudioFile object.">
<polygon fill="none" stroke="black" points="537.5,-767.5 537.5,-797.5 695.5,-797.5 695.5,-767.5 537.5,-767.5"/>
<text text-anchor="start" x="545.5" y="-785.5" font-family="Helvetica,sans-Serif" font-size="10.00">lemons::dsp::AudioFilePlayer</text>
<text text-anchor="middle" x="616.5" y="-774.5" font-family="Helvetica,sans-Serif" font-size="10.00">&lt; SampleType &gt;</text>
</a>
</g>
</g>
<!-- Node11&#45;&gt;Node12 -->
<g id="edge12" class="edge">
<title>Node11&#45;&gt;Node12</title>
<path fill="none" stroke="midnightblue" d="M372.57,-673.37C374.12,-674.67 375.6,-676.04 377,-677.5 399.23,-700.69 371.24,-725.88 395,-747.5 432.91,-782 490.5,-790.19 537.32,-790.06"/>
<polygon fill="midnightblue" stroke="midnightblue" points="374.49,-670.44 364.31,-667.54 370.46,-676.16 374.49,-670.44"/>
</g>
<!-- Node13 -->
<g id="node13" class="node">
<title>Node13</title>
<g id="a_node13"><a xlink:href="classlemons_1_1dsp_1_1_engine_chain.html" target="_top" xlink:title="A kind of engine that contains a chain of other Engine objects.">
<polygon fill="none" stroke="black" points="545,-718.5 545,-748.5 688,-748.5 688,-718.5 545,-718.5"/>
<text text-anchor="start" x="553" y="-736.5" font-family="Helvetica,sans-Serif" font-size="10.00">lemons::dsp::EngineChain</text>
<text text-anchor="middle" x="616.5" y="-725.5" font-family="Helvetica,sans-Serif" font-size="10.00">&lt; SampleType &gt;</text>
</a>
</g>
</g>
<!-- Node11&#45;&gt;Node13 -->
<g id="edge13" class="edge">
<title>Node11&#45;&gt;Node13</title>
<path fill="none" stroke="midnightblue" d="M371.43,-673.05C373.37,-674.44 375.23,-675.92 377,-677.5 392.13,-691.04 378.41,-707.79 395,-719.5 438.01,-749.86 498.28,-751.69 544.94,-746.86"/>
<polygon fill="midnightblue" stroke="midnightblue" points="372.82,-669.8 362.46,-667.55 369.15,-675.76 372.82,-669.8"/>
</g>
<!-- Node15 -->
<g id="node15" class="node">
<title>Node15</title>
<g id="a_node15"><a xlink:href="classlemons_1_1dsp_1_1osc_1_1_choosable_oscillator.html" target="_top" xlink:title=" ">
<polygon fill="none" stroke="black" points="539,-669.5 539,-699.5 694,-699.5 694,-669.5 539,-669.5"/>
<text text-anchor="start" x="547" y="-687.5" font-family="Helvetica,sans-Serif" font-size="10.00">lemons::dsp::osc::Choosable</text>
<text text-anchor="middle" x="616.5" y="-676.5" font-family="Helvetica,sans-Serif" font-size="10.00">Oscillator&lt; float &gt;</text>
</a>
</g>
</g>
<!-- Node14&#45;&gt;Node15 -->
<g id="edge15" class="edge">
<title>Node14&#45;&gt;Node15</title>
<path fill="none" stroke="orange" stroke-dasharray="5,2" d="M372.34,-624.37C373.96,-625.67 375.52,-627.04 377,-628.5 395.89,-647.18 373.57,-669.8 395,-685.5 417.27,-701.82 484.45,-699.43 538.86,-694.24"/>
<polygon fill="orange" stroke="orange" points="373.93,-621.22 363.68,-618.54 370.02,-627.03 373.93,-621.22"/>
<text text-anchor="middle" x="453" y="-700.5" font-family="Helvetica,sans-Serif" font-size="10.00"> &lt; float &gt;</text>
</g>
<!-- Node17 -->
<g id="node17" class="node">
<title>Node17</title>
<g id="a_node17"><a xlink:href="classlemons_1_1dsp_1_1osc_1_1_engine.html" target="_top" xlink:title=" ">
<polygon fill="none" stroke="black" points="540.5,-290 540.5,-331 692.5,-331 692.5,-290 540.5,-290"/>
<text text-anchor="start" x="548.5" y="-319" font-family="Helvetica,sans-Serif" font-size="10.00">lemons::dsp::osc::Engine</text>
<text text-anchor="start" x="548.5" y="-308" font-family="Helvetica,sans-Serif" font-size="10.00">&lt; SampleType, lemons::dsp</text>
<text text-anchor="middle" x="616.5" y="-297" font-family="Helvetica,sans-Serif" font-size="10.00">::osc::Sine &gt;</text>
</a>
</g>
</g>
<!-- Node16&#45;&gt;Node17 -->
<g id="edge17" class="edge">
<title>Node16&#45;&gt;Node17</title>
<path fill="none" stroke="orange" stroke-dasharray="5,2" d="M370.89,-358.7C373.04,-357.11 375.09,-355.38 377,-353.5 396.25,-334.59 373.27,-311.51 395,-295.5 417.47,-278.94 485.63,-286.05 540.28,-295.27"/>
<polygon fill="orange" stroke="orange" points="368.71,-355.94 362.1,-364.22 372.43,-361.87 368.71,-355.94"/>
<text text-anchor="start" x="395" y="-309.5" font-family="Helvetica,sans-Serif" font-size="10.00"> &lt; SampleType, lemons</text>
<text text-anchor="middle" x="453" y="-298.5" font-family="Helvetica,sans-Serif" font-size="10.00">::dsp::osc::Sine &gt;</text>
</g>
<!-- Node18 -->
<g id="node18" class="node">
<title>Node18</title>
<g id="a_node18"><a xlink:href="classlemons_1_1dsp_1_1osc_1_1_engine.html" target="_top" xlink:title=" ">
<polygon fill="none" stroke="black" points="529,-492.5 529,-522.5 704,-522.5 704,-492.5 529,-492.5"/>
<text text-anchor="start" x="537" y="-510.5" font-family="Helvetica,sans-Serif" font-size="10.00">lemons::dsp::osc::Engine</text>
<text text-anchor="middle" x="616.5" y="-499.5" font-family="Helvetica,sans-Serif" font-size="10.00">&lt; float, lemons::dsp::osc::Saw &gt;</text>
</a>
</g>
</g>
<!-- Node16&#45;&gt;Node18 -->
<g id="edge18" class="edge">
<title>Node16&#45;&gt;Node18</title>
<path fill="none" stroke="orange" stroke-dasharray="5,2" d="M333.52,-397.12C351.98,-406.15 374.44,-416.78 395,-425.5 453.51,-450.33 469.41,-453.36 529,-475.5 543.86,-481.02 560.16,-487.06 574.57,-492.38"/>
<polygon fill="orange" stroke="orange" points="335.05,-393.97 324.53,-392.7 331.95,-400.26 335.05,-393.97"/>
<text text-anchor="start" x="402" y="-481.5" font-family="Helvetica,sans-Serif" font-size="10.00"> &lt; float, lemons::dsp</text>
<text text-anchor="middle" x="453" y="-470.5" font-family="Helvetica,sans-Serif" font-size="10.00">::osc::Saw &gt;</text>
</g>
<!-- Node19 -->
<g id="node19" class="node">
<title>Node19</title>
<g id="a_node19"><a xlink:href="classlemons_1_1dsp_1_1osc_1_1_engine.html" target="_top" xlink:title=" ">
<polygon fill="none" stroke="black" points="540.5,-230 540.5,-271 692.5,-271 692.5,-230 540.5,-230"/>
<text text-anchor="start" x="548.5" y="-259" font-family="Helvetica,sans-Serif" font-size="10.00">lemons::dsp::osc::Engine</text>
<text text-anchor="start" x="548.5" y="-248" font-family="Helvetica,sans-Serif" font-size="10.00">&lt; SampleType, lemons::dsp</text>
<text text-anchor="middle" x="616.5" y="-237" font-family="Helvetica,sans-Serif" font-size="10.00">::osc::Saw &gt;</text>
</a>
</g>
</g>
<!-- Node16&#45;&gt;Node19 -->
<g id="edge19" class="edge">
<title>Node16&#45;&gt;Node19</title>
<path fill="none" stroke="orange" stroke-dasharray="5,2" d="M371.02,-359.09C373.15,-357.39 375.15,-355.53 377,-353.5 405.63,-322.04 362.77,-287.27 395,-259.5 434.11,-225.8 493.14,-225.08 540.28,-231.97"/>
<polygon fill="orange" stroke="orange" points="368.61,-356.49 362.23,-364.94 372.49,-362.32 368.61,-356.49"/>
<text text-anchor="start" x="395" y="-273.5" font-family="Helvetica,sans-Serif" font-size="10.00"> &lt; SampleType, lemons</text>
<text text-anchor="middle" x="453" y="-262.5" font-family="Helvetica,sans-Serif" font-size="10.00">::dsp::osc::Saw &gt;</text>
</g>
<!-- Node20 -->
<g id="node20" class="node">
<title>Node20</title>
<g id="a_node20"><a xlink:href="classlemons_1_1dsp_1_1osc_1_1_engine.html" target="_top" xlink:title=" ">
<polygon fill="none" stroke="black" points="548,-425 548,-466 685,-466 685,-425 548,-425"/>
<text text-anchor="start" x="556" y="-454" font-family="Helvetica,sans-Serif" font-size="10.00">lemons::dsp::osc::Engine</text>
<text text-anchor="start" x="556" y="-443" font-family="Helvetica,sans-Serif" font-size="10.00">&lt; float, lemons::dsp::osc</text>
<text text-anchor="middle" x="616.5" y="-432" font-family="Helvetica,sans-Serif" font-size="10.00">::SuperSaw &gt;</text>
</a>
</g>
</g>
<!-- Node16&#45;&gt;Node20 -->
<g id="edge20" class="edge">
<title>Node16&#45;&gt;Node20</title>
<path fill="none" stroke="orange" stroke-dasharray="5,2" d="M372.23,-381.87C413.87,-385.45 465.77,-391.91 511,-403.5 531.55,-408.77 553.45,-417.11 571.87,-424.98"/>
<polygon fill="orange" stroke="orange" points="372.4,-378.38 362.15,-381.05 371.83,-385.35 372.4,-378.38"/>
<text text-anchor="start" x="402" y="-417.5" font-family="Helvetica,sans-Serif" font-size="10.00"> &lt; float, lemons::dsp</text>
<text text-anchor="middle" x="453" y="-406.5" font-family="Helvetica,sans-Serif" font-size="10.00">::osc::SuperSaw &gt;</text>
</g>
<!-- Node21 -->
<g id="node21" class="node">
<title>Node21</title>
<g id="a_node21"><a xlink:href="classlemons_1_1dsp_1_1osc_1_1_engine.html" target="_top" xlink:title=" ">
<polygon fill="none" stroke="black" points="548,-351 548,-392 685,-392 685,-351 548,-351"/>
<text text-anchor="start" x="556" y="-380" font-family="Helvetica,sans-Serif" font-size="10.00">lemons::dsp::osc::Engine</text>
<text text-anchor="start" x="556" y="-369" font-family="Helvetica,sans-Serif" font-size="10.00">&lt; float, lemons::dsp::osc</text>
<text text-anchor="middle" x="616.5" y="-358" font-family="Helvetica,sans-Serif" font-size="10.00">::Square &gt;</text>
</a>
</g>
</g>
<!-- Node16&#45;&gt;Node21 -->
<g id="edge21" class="edge">
<title>Node16&#45;&gt;Node21</title>
<path fill="none" stroke="orange" stroke-dasharray="5,2" d="M368.79,-358.13C371.62,-356.69 374.37,-355.15 377,-353.5 387.13,-347.14 384.08,-338.37 395,-333.5 442.1,-312.53 460.33,-323.99 511,-333.5 519.44,-335.08 520.96,-337.5 529,-340.5 538.12,-343.91 547.8,-347.45 557.26,-350.87"/>
<polygon fill="orange" stroke="orange" points="367.15,-355.04 359.52,-362.39 370.07,-361.4 367.15,-355.04"/>
<text text-anchor="start" x="402" y="-347.5" font-family="Helvetica,sans-Serif" font-size="10.00"> &lt; float, lemons::dsp</text>
<text text-anchor="middle" x="453" y="-336.5" font-family="Helvetica,sans-Serif" font-size="10.00">::osc::Square &gt;</text>
</g>
<!-- Node22 -->
<g id="node22" class="node">
<title>Node22</title>
<g id="a_node22"><a xlink:href="classlemons_1_1dsp_1_1osc_1_1_engine.html" target="_top" xlink:title=" ">
<polygon fill="none" stroke="black" points="540.5,-50 540.5,-91 692.5,-91 692.5,-50 540.5,-50"/>
<text text-anchor="start" x="548.5" y="-79" font-family="Helvetica,sans-Serif" font-size="10.00">lemons::dsp::osc::Engine</text>
<text text-anchor="start" x="548.5" y="-68" font-family="Helvetica,sans-Serif" font-size="10.00">&lt; SampleType, lemons::dsp</text>
<text text-anchor="middle" x="616.5" y="-57" font-family="Helvetica,sans-Serif" font-size="10.00">::osc::Triangle &gt;</text>
</a>
</g>
</g>
<!-- Node16&#45;&gt;Node22 -->
<g id="edge22" class="edge">
<title>Node16&#45;&gt;Node22</title>
<path fill="none" stroke="orange" stroke-dasharray="5,2" d="M370.59,-360.02C372.92,-358.06 375.07,-355.9 377,-353.5 414.68,-306.63 352.32,-125.86 395,-83.5 432.09,-46.7 492.16,-45.39 540.24,-52.21"/>
<polygon fill="orange" stroke="orange" points="368.31,-357.35 362.07,-365.91 372.28,-363.11 368.31,-357.35"/>
<text text-anchor="start" x="395" y="-97.5" font-family="Helvetica,sans-Serif" font-size="10.00"> &lt; SampleType, lemons</text>
<text text-anchor="middle" x="453" y="-86.5" font-family="Helvetica,sans-Serif" font-size="10.00">::dsp::osc::Triangle &gt;</text>
</g>
<!-- Node23 -->
<g id="node23" class="node">
<title>Node23</title>
<g id="a_node23"><a xlink:href="classlemons_1_1dsp_1_1osc_1_1_engine.html" target="_top" xlink:title=" ">
<polygon fill="none" stroke="black" points="548,-546 548,-587 685,-587 685,-546 548,-546"/>
<text text-anchor="start" x="556" y="-575" font-family="Helvetica,sans-Serif" font-size="10.00">lemons::dsp::osc::Engine</text>
<text text-anchor="start" x="556" y="-564" font-family="Helvetica,sans-Serif" font-size="10.00">&lt; float, lemons::dsp::osc</text>
<text text-anchor="middle" x="616.5" y="-553" font-family="Helvetica,sans-Serif" font-size="10.00">::Sine &gt;</text>
</a>
</g>
</g>
<!-- Node16&#45;&gt;Node23 -->
<g id="edge23" class="edge">
<title>Node16&#45;&gt;Node23</title>
<path fill="none" stroke="orange" stroke-dasharray="5,2" d="M309.27,-401.15C326.73,-427.27 358.12,-468.9 395,-493.5 420.41,-510.45 492.97,-532.91 547.97,-548.41"/>
<polygon fill="orange" stroke="orange" points="312.09,-399.06 303.69,-392.61 306.22,-402.89 312.09,-399.06"/>
<text text-anchor="start" x="402" y="-550.5" font-family="Helvetica,sans-Serif" font-size="10.00"> &lt; float, lemons::dsp</text>
<text text-anchor="middle" x="453" y="-539.5" font-family="Helvetica,sans-Serif" font-size="10.00">::osc::Sine &gt;</text>
</g>
<!-- Node24 -->
<g id="node24" class="node">
<title>Node24</title>
<g id="a_node24"><a xlink:href="classlemons_1_1dsp_1_1osc_1_1_engine.html" target="_top" xlink:title=" ">
<polygon fill="none" stroke="black" points="540.5,-170 540.5,-211 692.5,-211 692.5,-170 540.5,-170"/>
<text text-anchor="start" x="548.5" y="-199" font-family="Helvetica,sans-Serif" font-size="10.00">lemons::dsp::osc::Engine</text>
<text text-anchor="start" x="548.5" y="-188" font-family="Helvetica,sans-Serif" font-size="10.00">&lt; SampleType, lemons::dsp</text>
<text text-anchor="middle" x="616.5" y="-177" font-family="Helvetica,sans-Serif" font-size="10.00">::osc::SuperSaw &gt;</text>
</a>
</g>
</g>
<!-- Node16&#45;&gt;Node24 -->
<g id="edge24" class="edge">
<title>Node16&#45;&gt;Node24</title>
<path fill="none" stroke="orange" stroke-dasharray="5,2" d="M370.6,-359.76C372.91,-357.87 375.06,-355.79 377,-353.5 420.7,-301.95 345.7,-248.73 395,-202.5 432.96,-166.9 492.67,-165.68 540.38,-172.39"/>
<polygon fill="orange" stroke="orange" points="368.5,-356.96 362.19,-365.47 372.43,-362.75 368.5,-356.96"/>
<text text-anchor="start" x="395" y="-216.5" font-family="Helvetica,sans-Serif" font-size="10.00"> &lt; SampleType, lemons</text>
<text text-anchor="middle" x="453" y="-205.5" font-family="Helvetica,sans-Serif" font-size="10.00">::dsp::osc::SuperSaw &gt;</text>
</g>
<!-- Node25 -->
<g id="node25" class="node">
<title>Node25</title>
<g id="a_node25"><a xlink:href="classlemons_1_1dsp_1_1osc_1_1_engine.html" target="_top" xlink:title=" ">
<polygon fill="none" stroke="black" points="540.5,-110 540.5,-151 692.5,-151 692.5,-110 540.5,-110"/>
<text text-anchor="start" x="548.5" y="-139" font-family="Helvetica,sans-Serif" font-size="10.00">lemons::dsp::osc::Engine</text>
<text text-anchor="start" x="548.5" y="-128" font-family="Helvetica,sans-Serif" font-size="10.00">&lt; SampleType, lemons::dsp</text>
<text text-anchor="middle" x="616.5" y="-117" font-family="Helvetica,sans-Serif" font-size="10.00">::osc::Square &gt;</text>
</a>
</g>
</g>
<!-- Node16&#45;&gt;Node25 -->
<g id="edge25" class="edge">
<title>Node16&#45;&gt;Node25</title>
<path fill="none" stroke="orange" stroke-dasharray="5,2" d="M370.69,-359.84C372.98,-357.93 375.09,-355.83 377,-353.5 406.69,-317.28 361.44,-176.18 395,-143.5 432.43,-107.05 492.48,-105.72 540.47,-112.45"/>
<polygon fill="orange" stroke="orange" points="368.59,-357.04 362.35,-365.61 372.57,-362.8 368.59,-357.04"/>
<text text-anchor="start" x="395" y="-157.5" font-family="Helvetica,sans-Serif" font-size="10.00"> &lt; SampleType, lemons</text>
<text text-anchor="middle" x="453" y="-146.5" font-family="Helvetica,sans-Serif" font-size="10.00">::dsp::osc::Square &gt;</text>
</g>
<!-- Node26 -->
<g id="node26" class="node">
<title>Node26</title>
<g id="a_node26"><a xlink:href="classlemons_1_1dsp_1_1osc_1_1_engine.html" target="_top" xlink:title=" ">
<polygon fill="none" stroke="black" points="548,-608 548,-649 685,-649 685,-608 548,-608"/>
<text text-anchor="start" x="556" y="-637" font-family="Helvetica,sans-Serif" font-size="10.00">lemons::dsp::osc::Engine</text>
<text text-anchor="start" x="556" y="-626" font-family="Helvetica,sans-Serif" font-size="10.00">&lt; float, lemons::dsp::osc</text>
<text text-anchor="middle" x="616.5" y="-615" font-family="Helvetica,sans-Serif" font-size="10.00">::Triangle &gt;</text>
</a>
</g>
</g>
<!-- Node16&#45;&gt;Node26 -->
<g id="edge26" class="edge">
<title>Node16&#45;&gt;Node26</title>
<path fill="none" stroke="orange" stroke-dasharray="5,2" d="M307.47,-401.65C334.23,-451.46 393.25,-561.08 395,-562.5 418.61,-581.67 492.13,-601.39 547.84,-614.21"/>
<polygon fill="orange" stroke="orange" points="310.53,-399.96 302.72,-392.81 304.37,-403.28 310.53,-399.96"/>
<text text-anchor="start" x="402" y="-618.5" font-family="Helvetica,sans-Serif" font-size="10.00"> &lt; float, lemons::dsp</text>
<text text-anchor="middle" x="453" y="-607.5" font-family="Helvetica,sans-Serif" font-size="10.00">::osc::Triangle &gt;</text>
</g>
<!-- Node29 -->
<g id="node29" class="node">
<title>Node29</title>
<g id="a_node29"><a xlink:href="structlemons_1_1plugin_1_1_typed_processor_engine.html" target="_top" xlink:title="A ProcessorEngine that instantiates a custom subclass of AudioProcessor and automatically creates a P...">
<polygon fill="none" stroke="black" points="531.5,-0.5 531.5,-30.5 701.5,-30.5 701.5,-0.5 531.5,-0.5"/>
<text text-anchor="start" x="539.5" y="-18.5" font-family="Helvetica,sans-Serif" font-size="10.00">lemons::plugin::TypedProcessor</text>
<text text-anchor="middle" x="616.5" y="-7.5" font-family="Helvetica,sans-Serif" font-size="10.00">Engine&lt; SampleType &gt;</text>
</a>
</g>
</g>
<!-- Node28&#45;&gt;Node29 -->
<g id="edge29" class="edge">
<title>Node28&#45;&gt;Node29</title>
<path fill="none" stroke="midnightblue" d="M372.78,-260C374.27,-258.6 375.69,-257.1 377,-255.5 406.29,-219.81 363.37,-82.14 395,-48.5 429.07,-12.26 484.49,-4.09 531.25,-4.93"/>
<polygon fill="midnightblue" stroke="midnightblue" points="370.45,-257.37 364.64,-266.23 374.71,-262.93 370.45,-257.37"/>
</g>
<!-- Node31&#45;&gt;Node15 -->
<g id="edge32" class="edge">
<title>Node31&#45;&gt;Node15</title>
<path fill="none" stroke="midnightblue" d="M360.6,-567.28C366.7,-570.5 372.33,-574.5 377,-579.5 401.29,-605.49 368.56,-633.7 395,-657.5 415.78,-676.21 483.76,-682.38 538.81,-684.22"/>
<polygon fill="midnightblue" stroke="midnightblue" points="361.94,-564.05 351.39,-563.12 359.06,-570.42 361.94,-564.05"/>
</g>
<!-- Node31&#45;&gt;Node18 -->
<g id="edge33" class="edge">
<title>Node31&#45;&gt;Node18</title>
<path fill="none" stroke="midnightblue" d="M361.11,-554.33C404.2,-553.21 461.3,-549.81 511,-540.5 522.83,-538.28 548.48,-530.2 571.41,-522.59"/>
<polygon fill="midnightblue" stroke="midnightblue" points="360.95,-550.83 351.04,-554.56 361.11,-557.83 360.95,-550.83"/>
</g>
<!-- Node31&#45;&gt;Node20 -->
<g id="edge36" class="edge">
<title>Node31&#45;&gt;Node20</title>
<path fill="none" stroke="midnightblue" d="M326.22,-533.88C345.47,-522.12 370.91,-507.9 395,-498.5 395.93,-498.14 483.44,-477.14 547.92,-461.69"/>
<polygon fill="midnightblue" stroke="midnightblue" points="324.22,-531 317.57,-539.25 327.91,-536.95 324.22,-531"/>
</g>
<!-- Node31&#45;&gt;Node21 -->
<g id="edge35" class="edge">
<title>Node31&#45;&gt;Node21</title>
<path fill="none" stroke="midnightblue" d="M307.12,-530.4C323.47,-501.62 354.71,-454.16 395,-428.5 439.73,-400.01 459.66,-413.82 511,-400.5 522.94,-397.4 535.61,-393.99 547.85,-390.63"/>
<polygon fill="midnightblue" stroke="midnightblue" points="303.93,-528.94 302.15,-539.39 310.05,-532.33 303.93,-528.94"/>
</g>
<!-- Node31&#45;&gt;Node23 -->
<g id="edge34" class="edge">
<title>Node31&#45;&gt;Node23</title>
<path fill="none" stroke="midnightblue" d="M360.46,-569.39C366.37,-572.2 371.99,-575.54 377,-579.5 389.49,-589.39 381.19,-602.55 395,-610.5 439.68,-636.22 461.66,-625.44 511,-610.5 520.2,-607.71 520.43,-602.86 529,-598.5 536.99,-594.43 545.62,-590.61 554.24,-587.12"/>
<polygon fill="midnightblue" stroke="midnightblue" points="361.58,-566.07 351.01,-565.4 358.86,-572.52 361.58,-566.07"/>
</g>
<!-- Node31&#45;&gt;Node26 -->
<g id="edge37" class="edge">
<title>Node31&#45;&gt;Node26</title>
<path fill="none" stroke="midnightblue" d="M360.35,-567.94C366.45,-571.03 372.14,-574.83 377,-579.5 394.63,-596.45 375.08,-617.31 395,-631.5 438.74,-662.64 500.73,-658.76 547.85,-648.89"/>
<polygon fill="midnightblue" stroke="midnightblue" points="361.75,-564.73 351.19,-563.89 358.92,-571.13 361.75,-564.73"/>
</g>
</g>
</svg>
        <g id="navigator" transform="translate(0 0)" fill="#404254">
                <rect fill="#f2f5e9" fill-opacity="0.5" stroke="#606060" stroke-width=".5" x="0" y="0" width="60" height="60"/>
                <use id="zoomplus" xlink:href="#zoomPlus" x="17" y="9" onmousedown="handleZoom(evt,'in')"/>
                <use id="zoomminus" xlink:href="#zoomMin" x="42" y="9" onmousedown="handleZoom(evt,'out')"/>
                <use id="reset" xlink:href="#resetDef" x="30" y="36" onmousedown="handleReset()"/>
                <g id="arrowUp" xlink:href="#dirArrow" transform="translate(30 24)" onmousedown="handlePan(0,-1)">
                  <use xlink:href="#rim" fill="#404040">
                        <set attributeName="fill" to="#808080" begin="arrowUp.mouseover" end="arrowUp.mouseout"/>
                  </use>
                  <path fill="none" stroke="white" stroke-width="1.5" d="M0,-3.0v7 M-2.5,-0.5L0,-3.0L2.5,-0.5"/>
                </g>
                <g id="arrowRight" xlink:href="#dirArrow" transform="rotate(90) translate(36 -43)" onmousedown="handlePan(1,0)">
                  <use xlink:href="#rim" fill="#404040">
                        <set attributeName="fill" to="#808080" begin="arrowRight.mouseover" end="arrowRight.mouseout"/>
                  </use>
                  <path fill="none" stroke="white" stroke-width="1.5" d="M0,-3.0v7 M-2.5,-0.5L0,-3.0L2.5,-0.5"/>
                </g>
                <g id="arrowDown" xlink:href="#dirArrow" transform="rotate(180) translate(-30 -48)" onmousedown="handlePan(0,1)">
                  <use xlink:href="#rim" fill="#404040">
                        <set attributeName="fill" to="#808080" begin="arrowDown.mouseover" end="arrowDown.mouseout"/>
                  </use>
                  <path fill="none" stroke="white" stroke-width="1.5" d="M0,-3.0v7 M-2.5,-0.5L0,-3.0L2.5,-0.5"/>
                </g>
                <g id="arrowLeft" xlink:href="#dirArrow" transform="rotate(270) translate(-36 17)" onmousedown="handlePan(-1,0)">
                  <use xlink:href="#rim" fill="#404040">
                        <set attributeName="fill" to="#808080" begin="arrowLeft.mouseover" end="arrowLeft.mouseout"/>
                  </use>
                  <path fill="none" stroke="white" stroke-width="1.5" d="M0,-3.0v7 M-2.5,-0.5L0,-3.0L2.5,-0.5"/>
                </g>
        </g>
        <svg viewBox="0 0 15 15" width="100%" height="30px" preserveAspectRatio="xMaxYMin meet">
         <g id="arrow_out" transform="scale(0.3 0.3)">
          <a xlink:href="classlemons_1_1dsp_1_1_engine__inherit__graph_org.svg" target="_base">
           <rect id="button" ry="5" rx="5" y="6" x="6" height="38" width="38"
                fill="#f2f5e9" fill-opacity="0.5" stroke="#606060" stroke-width="1.0"/>
           <path id="arrow"
             d="M 11.500037,31.436501 C 11.940474,20.09759 22.043105,11.32322 32.158766,21.979434 L 37.068811,17.246167 C 37.068811,17.246167 37.088388,32 37.088388,32 L 22.160133,31.978069 C 22.160133,31.978069 26.997745,27.140456 26.997745,27.140456 C 18.528582,18.264221 13.291696,25.230495 11.500037,31.436501 z"
             style="fill:#404040;"/>
          </a>
         </g>
        </svg>
</svg>
