<?xml version="1.0" encoding="UTF-8" standalone="no"?>
<!DOCTYPE svg PUBLIC "-//W3C//DTD SVG 1.1//EN"
 "http://www.w3.org/Graphics/SVG/1.1/DTD/svg11.dtd">
<!-- Generated by graphviz version 2.49.1 (20210923.0004)
 -->
<!-- Title: lemons::dsp::FX::EffectEngine&lt; EffectType, SampleType, &gt; Pages: 1 -->
<svg width="260pt" height="253pt"
 viewBox="0.00 0.00 260.00 253.00" xmlns="http://www.w3.org/2000/svg" xmlns:xlink="http://www.w3.org/1999/xlink">
<g id="graph0" class="graph" transform="scale(1 1) rotate(0) translate(4 249)">
<title>lemons::dsp::FX::EffectEngine&lt; EffectType, SampleType, &gt;</title>
<!-- Node1 -->
<g id="node1" class="node">
<title>Node1</title>
<g id="a_node1"><a xlink:title="A class that wraps an AudioEffect into a dsp::Engine.">
<polygon fill="#bfbfbf" stroke="black" points="45,-146.5 45,-176.5 196,-176.5 196,-146.5 45,-146.5"/>
<text text-anchor="start" x="53" y="-164.5" font-family="Helvetica,sans-Serif" font-size="10.00">lemons::dsp::FX::EffectEngine</text>
<text text-anchor="middle" x="120.5" y="-153.5" font-family="Helvetica,sans-Serif" font-size="10.00">&lt; EffectType, SampleType, &gt;</text>
</a>
</g>
</g>
<!-- Node4 -->
<g id="node4" class="node">
<title>Node4</title>
<g id="a_node4"><a xlink:href="classlemons_1_1dsp_1_1FX_1_1EffectEngine.html" target="_top" xlink:title=" ">
<polygon fill="none" stroke="black" points="45,-68.5 45,-98.5 196,-98.5 196,-68.5 45,-68.5"/>
<text text-anchor="start" x="53" y="-86.5" font-family="Helvetica,sans-Serif" font-size="10.00">lemons::dsp::FX::EffectEngine</text>
<text text-anchor="middle" x="120.5" y="-75.5" font-family="Helvetica,sans-Serif" font-size="10.00">&lt; Filter, SampleType &gt;</text>
</a>
</g>
</g>
<!-- Node1&#45;&gt;Node4 -->
<g id="edge3" class="edge">
<title>Node1&#45;&gt;Node4</title>
<path fill="none" stroke="orange" stroke-dasharray="5,2" d="M120.5,-136.09C120.5,-123.76 120.5,-109.22 120.5,-98.73"/>
<polygon fill="orange" stroke="orange" points="117,-136.2 120.5,-146.2 124,-136.21 117,-136.2"/>
<text text-anchor="middle" x="172" y="-120" font-family="Helvetica,sans-Serif" font-size="10.00"> &lt; Filter, SampleType &gt;</text>
</g>
<!-- Node2 -->
<g id="node2" class="node">
<title>Node2</title>
<g id="a_node2"><a xlink:href="classlemons_1_1dsp_1_1Engine.html" target="_top" xlink:title="Base class for an audio engine.">
<polygon fill="none" stroke="black" points="0,-214.5 0,-244.5 107,-244.5 107,-214.5 0,-214.5"/>
<text text-anchor="start" x="8" y="-232.5" font-family="Helvetica,sans-Serif" font-size="10.00">lemons::dsp::Engine</text>
<text text-anchor="middle" x="53.5" y="-221.5" font-family="Helvetica,sans-Serif" font-size="10.00">&lt; SampleType &gt;</text>
</a>
</g>
</g>
<!-- Node2&#45;&gt;Node1 -->
<g id="edge1" class="edge">
<title>Node2&#45;&gt;Node1</title>
<path fill="none" stroke="midnightblue" d="M75.34,-206.99C85.39,-197.09 97.04,-185.61 105.99,-176.79"/>
<polygon fill="midnightblue" stroke="midnightblue" points="72.71,-204.67 68.04,-214.18 77.62,-209.65 72.71,-204.67"/>
</g>
<!-- Node3 -->
<g id="node3" class="node">
<title>Node3</title>
<g id="a_node3"><a xlink:href="structlemons_1_1SerializableData.html" target="_top" xlink:title="Base class for any C++ object that needs to be serialized to binary and back.">
<polygon fill="none" stroke="black" points="125,-220 125,-239 252,-239 252,-220 125,-220"/>
<text text-anchor="middle" x="188.5" y="-227" font-family="Helvetica,sans-Serif" font-size="10.00">lemons::SerializableData</text>
</a>
</g>
</g>
<!-- Node3&#45;&gt;Node1 -->
<g id="edge2" class="edge">
<title>Node3&#45;&gt;Node1</title>
<path fill="none" stroke="midnightblue" d="M172.14,-212.62C160.86,-201.67 145.99,-187.24 135.11,-176.68"/>
<polygon fill="midnightblue" stroke="midnightblue" points="170,-215.42 179.61,-219.87 174.87,-210.4 170,-215.42"/>
</g>
<!-- Node5 -->
<g id="node5" class="node">
<title>Node5</title>
<g id="a_node5"><a xlink:href="structlemons_1_1dsp_1_1FX_1_1FilterEngine.html" target="_top" xlink:title="A class that represents an audio engine holding a filter effect.">
<polygon fill="none" stroke="black" points="46.5,-0.5 46.5,-30.5 194.5,-30.5 194.5,-0.5 46.5,-0.5"/>
<text text-anchor="start" x="54.5" y="-18.5" font-family="Helvetica,sans-Serif" font-size="10.00">lemons::dsp::FX::FilterEngine</text>
<text text-anchor="middle" x="120.5" y="-7.5" font-family="Helvetica,sans-Serif" font-size="10.00">&lt; SampleType &gt;</text>
</a>
</g>
</g>
<!-- Node4&#45;&gt;Node5 -->
<g id="edge4" class="edge">
<title>Node4&#45;&gt;Node5</title>
<path fill="none" stroke="midnightblue" d="M120.5,-58.03C120.5,-48.86 120.5,-38.74 120.5,-30.79"/>
<polygon fill="midnightblue" stroke="midnightblue" points="117,-58.18 120.5,-68.18 124,-58.18 117,-58.18"/>
</g>
</g>
</svg>
