<?xml version="1.0" encoding="UTF-8" standalone="no"?>
<!DOCTYPE svg PUBLIC "-//W3C//DTD SVG 1.1//EN"
 "http://www.w3.org/Graphics/SVG/1.1/DTD/svg11.dtd">
<!-- Generated by graphviz version 2.43.0 (0)
 -->
<!-- Title: lemons::midi::MidiChoppingProcessor&lt; SampleType &gt; Pages: 1 -->
<!--zoomable 186 -->
<svg id="main" version="1.1" xmlns="http://www.w3.org/2000/svg" xmlns:xlink="http://www.w3.org/1999/xlink" xml:space="preserve" onload="init(evt)">
<style type="text/css"><![CDATA[
.edge:hover path { stroke: red; }
.edge:hover polygon { stroke: red; fill: red; }
]]></style>
<script type="text/javascript"><![CDATA[
var edges = document.getElementsByTagName('g');
if (edges && edges.length) {
  for (var i=0;i<edges.length;i++) {
    if (edges[i].id.substr(0,4)=='edge') {
      edges[i].setAttribute('class','edge');
    }
  }
}
]]></script>
        <defs>
                <circle id="rim" cx="0" cy="0" r="7"/>
                <circle id="rim2" cx="0" cy="0" r="3.5"/>
                <g id="zoomPlus">
                        <use xlink:href="#rim" fill="#404040">
                                <set attributeName="fill" to="#808080" begin="zoomplus.mouseover" end="zoomplus.mouseout"/>
                        </use>
                        <path d="M-4,0h8M0,-4v8" fill="none" stroke="white" stroke-width="1.5" pointer-events="none"/>
                </g>
                <g id="zoomMin">
                        <use xlink:href="#rim" fill="#404040">
                                <set attributeName="fill" to="#808080" begin="zoomminus.mouseover" end="zoomminus.mouseout"/>
                        </use>
                        <path d="M-4,0h8" fill="none" stroke="white" stroke-width="1.5" pointer-events="none"/>
                </g>
                <g id="dirArrow">
                        <path fill="none" stroke="white" stroke-width="1.5" d="M0,-3.0v7 M-2.5,-0.5L0,-3.0L2.5,-0.5"/>
                </g>
               <g id="resetDef">
                       <use xlink:href="#rim2" fill="#404040">
                               <set attributeName="fill" to="#808080" begin="reset.mouseover" end="reset.mouseout"/>
                       </use>
               </g>
        </defs>

<script type="text/javascript">
var viewWidth = 664;
var viewHeight = 186;
var sectionId = 'dynsection-0';
</script>
<script xlink:href="svgpan.js"/>
<svg id="graph" class="graph">
<g id="viewport">
<title>lemons::midi::MidiChoppingProcessor&lt; SampleType &gt;</title>
<!-- Node1 -->
<g id="node1" class="node">
<title>Node1</title>
<g id="a_node1"><a xlink:title=" ">
<polygon fill="#bfbfbf" stroke="black" points="0,-69.5 0,-99.5 153,-99.5 153,-69.5 0,-69.5"/>
<text text-anchor="start" x="8" y="-87.5" font-family="Helvetica,sans-Serif" font-size="10.00">lemons::midi::MidiChopping</text>
<text text-anchor="middle" x="76.5" y="-76.5" font-family="Helvetica,sans-Serif" font-size="10.00">Processor&lt; SampleType &gt;</text>
</a>
</g>
</g>
<!-- Node2 -->
<g id="node2" class="node">
<title>Node2</title>
<g id="a_node2"><a xlink:href="classlemons_1_1dsp_1_1synth_1_1_midi_manager.html" target="_top" xlink:title=" ">
<polygon fill="none" stroke="black" points="248,-147.5 248,-177.5 416,-177.5 416,-147.5 248,-147.5"/>
<text text-anchor="start" x="256" y="-165.5" font-family="Helvetica,sans-Serif" font-size="10.00">lemons::dsp::synth</text>
<text text-anchor="middle" x="332" y="-154.5" font-family="Helvetica,sans-Serif" font-size="10.00">::MidiManager&lt; SampleType &gt;</text>
</a>
</g>
</g>
<!-- Node1&#45;&gt;Node2 -->
<g id="edge1" class="edge">
<title>Node1&#45;&gt;Node2</title>
<path fill="none" stroke="midnightblue" d="M129.73,-102.89C143.14,-107.47 157.57,-112.27 171,-116.5 205.74,-127.43 245.04,-138.75 276,-147.42"/>
<polygon fill="midnightblue" stroke="midnightblue" points="130.77,-99.55 120.18,-99.61 128.5,-106.17 130.77,-99.55"/>
</g>
<!-- Node3 -->
<g id="node3" class="node">
<title>Node3</title>
<g id="a_node3"><a xlink:href="classlemons_1_1plugin_1_1_parameter_processor.html" target="_top" xlink:title="This class processes incoming MIDI messages and quantizes the audio output with any MIDI CC messages ...">
<polygon fill="none" stroke="black" points="259,-49.5 259,-79.5 405,-79.5 405,-49.5 259,-49.5"/>
<text text-anchor="start" x="267" y="-67.5" font-family="Helvetica,sans-Serif" font-size="10.00">lemons::plugin::Parameter</text>
<text text-anchor="middle" x="332" y="-56.5" font-family="Helvetica,sans-Serif" font-size="10.00">Processor&lt; SampleType &gt;</text>
</a>
</g>
</g>
<!-- Node1&#45;&gt;Node3 -->
<g id="edge2" class="edge">
<title>Node1&#45;&gt;Node3</title>
<path fill="none" stroke="midnightblue" d="M163.56,-77.71C194.5,-75.27 229.07,-72.54 258.72,-70.2"/>
<polygon fill="midnightblue" stroke="midnightblue" points="162.91,-74.25 153.21,-78.53 163.46,-81.23 162.91,-74.25"/>
</g>
<!-- Node6 -->
<g id="node6" class="node">
<title>Node6</title>
<g id="a_node6"><a xlink:href="classlemons_1_1midi_1_1_midi_chopping_processor.html" target="_top" xlink:title=" ">
<polygon fill="none" stroke="black" points="255.5,-98.5 255.5,-128.5 408.5,-128.5 408.5,-98.5 255.5,-98.5"/>
<text text-anchor="start" x="263.5" y="-116.5" font-family="Helvetica,sans-Serif" font-size="10.00">lemons::midi::MidiChopping</text>
<text text-anchor="middle" x="332" y="-105.5" font-family="Helvetica,sans-Serif" font-size="10.00">Processor&lt; double &gt;</text>
</a>
</g>
</g>
<!-- Node1&#45;&gt;Node6 -->
<g id="edge5" class="edge">
<title>Node1&#45;&gt;Node6</title>
<path fill="none" stroke="orange" stroke-dasharray="5,2" d="M163.19,-94.3C193.03,-97.72 226.26,-101.52 255.24,-104.83"/>
<polygon fill="orange" stroke="orange" points="163.55,-90.82 153.21,-93.16 162.75,-97.78 163.55,-90.82"/>
<text text-anchor="middle" x="200.5" y="-104.5" font-family="Helvetica,sans-Serif" font-size="10.00"> &lt; double &gt;</text>
</g>
<!-- Node7 -->
<g id="node7" class="node">
<title>Node7</title>
<g id="a_node7"><a xlink:href="classlemons_1_1midi_1_1_midi_chopping_processor.html" target="_top" xlink:title=" ">
<polygon fill="none" stroke="black" points="255.5,-0.5 255.5,-30.5 408.5,-30.5 408.5,-0.5 255.5,-0.5"/>
<text text-anchor="start" x="263.5" y="-18.5" font-family="Helvetica,sans-Serif" font-size="10.00">lemons::midi::MidiChopping</text>
<text text-anchor="middle" x="332" y="-7.5" font-family="Helvetica,sans-Serif" font-size="10.00">Processor&lt; float &gt;</text>
</a>
</g>
</g>
<!-- Node1&#45;&gt;Node7 -->
<g id="edge7" class="edge">
<title>Node1&#45;&gt;Node7</title>
<path fill="none" stroke="orange" stroke-dasharray="5,2" d="M138.64,-66.61C149.41,-63.53 160.52,-60.39 171,-57.5 204.5,-48.27 242.08,-38.38 272.39,-30.52"/>
<polygon fill="orange" stroke="orange" points="137.52,-63.29 128.88,-69.42 139.45,-70.02 137.52,-63.29"/>
<text text-anchor="middle" x="200.5" y="-60.5" font-family="Helvetica,sans-Serif" font-size="10.00"> &lt; float &gt;</text>
</g>
<!-- Node4 -->
<g id="node4" class="node">
<title>Node4</title>
<g id="a_node4"><a xlink:href="classlemons_1_1plugin_1_1_parameter_processor.html" target="_top" xlink:title=" ">
<polygon fill="none" stroke="black" points="511,-83.5 511,-113.5 656,-113.5 656,-83.5 511,-83.5"/>
<text text-anchor="start" x="519" y="-101.5" font-family="Helvetica,sans-Serif" font-size="10.00">lemons::plugin::Parameter</text>
<text text-anchor="middle" x="583.5" y="-90.5" font-family="Helvetica,sans-Serif" font-size="10.00">Processor&lt; double &gt;</text>
</a>
</g>
</g>
<!-- Node3&#45;&gt;Node4 -->
<g id="edge3" class="edge">
<title>Node3&#45;&gt;Node4</title>
<path fill="none" stroke="orange" stroke-dasharray="5,2" d="M415.47,-75.74C446.34,-79.95 481.12,-84.69 510.93,-88.75"/>
<polygon fill="orange" stroke="orange" points="415.55,-72.22 405.17,-74.33 414.6,-79.15 415.55,-72.22"/>
<text text-anchor="middle" x="463.5" y="-88.5" font-family="Helvetica,sans-Serif" font-size="10.00"> &lt; double &gt;</text>
</g>
<!-- Node5 -->
<g id="node5" class="node">
<title>Node5</title>
<g id="a_node5"><a xlink:href="classlemons_1_1plugin_1_1_parameter_processor.html" target="_top" xlink:title=" ">
<polygon fill="none" stroke="black" points="511,-25.5 511,-55.5 656,-55.5 656,-25.5 511,-25.5"/>
<text text-anchor="start" x="519" y="-43.5" font-family="Helvetica,sans-Serif" font-size="10.00">lemons::plugin::Parameter</text>
<text text-anchor="middle" x="583.5" y="-32.5" font-family="Helvetica,sans-Serif" font-size="10.00">Processor&lt; float &gt;</text>
</a>
</g>
</g>
<!-- Node3&#45;&gt;Node5 -->
<g id="edge4" class="edge">
<title>Node3&#45;&gt;Node5</title>
<path fill="none" stroke="orange" stroke-dasharray="5,2" d="M415.24,-55.4C421.58,-54.74 427.89,-54.1 434,-53.5 458.98,-51.05 486.35,-48.59 510.72,-46.48"/>
<polygon fill="orange" stroke="orange" points="414.84,-51.92 405.26,-56.44 415.57,-58.88 414.84,-51.92"/>
<text text-anchor="middle" x="463.5" y="-56.5" font-family="Helvetica,sans-Serif" font-size="10.00"> &lt; float &gt;</text>
</g>
<!-- Node6&#45;&gt;Node4 -->
<g id="edge6" class="edge">
<title>Node6&#45;&gt;Node4</title>
<path fill="none" stroke="midnightblue" d="M418.56,-108.36C448.55,-106.55 481.89,-104.55 510.64,-102.82"/>
<polygon fill="midnightblue" stroke="midnightblue" points="418.31,-104.86 408.54,-108.96 418.73,-111.85 418.31,-104.86"/>
</g>
<!-- Node7&#45;&gt;Node5 -->
<g id="edge8" class="edge">
<title>Node7&#45;&gt;Node5</title>
<path fill="none" stroke="midnightblue" d="M418.56,-24.07C448.55,-27.08 481.89,-30.42 510.64,-33.3"/>
<polygon fill="midnightblue" stroke="midnightblue" points="418.83,-20.58 408.54,-23.07 418.14,-27.55 418.83,-20.58"/>
</g>
</g>
</svg>
        <g id="navigator" transform="translate(0 0)" fill="#404254">
                <rect fill="#f2f5e9" fill-opacity="0.5" stroke="#606060" stroke-width=".5" x="0" y="0" width="60" height="60"/>
                <use id="zoomplus" xlink:href="#zoomPlus" x="17" y="9" onmousedown="handleZoom(evt,'in')"/>
                <use id="zoomminus" xlink:href="#zoomMin" x="42" y="9" onmousedown="handleZoom(evt,'out')"/>
                <use id="reset" xlink:href="#resetDef" x="30" y="36" onmousedown="handleReset()"/>
                <g id="arrowUp" xlink:href="#dirArrow" transform="translate(30 24)" onmousedown="handlePan(0,-1)">
                  <use xlink:href="#rim" fill="#404040">
                        <set attributeName="fill" to="#808080" begin="arrowUp.mouseover" end="arrowUp.mouseout"/>
                  </use>
                  <path fill="none" stroke="white" stroke-width="1.5" d="M0,-3.0v7 M-2.5,-0.5L0,-3.0L2.5,-0.5"/>
                </g>
                <g id="arrowRight" xlink:href="#dirArrow" transform="rotate(90) translate(36 -43)" onmousedown="handlePan(1,0)">
                  <use xlink:href="#rim" fill="#404040">
                        <set attributeName="fill" to="#808080" begin="arrowRight.mouseover" end="arrowRight.mouseout"/>
                  </use>
                  <path fill="none" stroke="white" stroke-width="1.5" d="M0,-3.0v7 M-2.5,-0.5L0,-3.0L2.5,-0.5"/>
                </g>
                <g id="arrowDown" xlink:href="#dirArrow" transform="rotate(180) translate(-30 -48)" onmousedown="handlePan(0,1)">
                  <use xlink:href="#rim" fill="#404040">
                        <set attributeName="fill" to="#808080" begin="arrowDown.mouseover" end="arrowDown.mouseout"/>
                  </use>
                  <path fill="none" stroke="white" stroke-width="1.5" d="M0,-3.0v7 M-2.5,-0.5L0,-3.0L2.5,-0.5"/>
                </g>
                <g id="arrowLeft" xlink:href="#dirArrow" transform="rotate(270) translate(-36 17)" onmousedown="handlePan(-1,0)">
                  <use xlink:href="#rim" fill="#404040">
                        <set attributeName="fill" to="#808080" begin="arrowLeft.mouseover" end="arrowLeft.mouseout"/>
                  </use>
                  <path fill="none" stroke="white" stroke-width="1.5" d="M0,-3.0v7 M-2.5,-0.5L0,-3.0L2.5,-0.5"/>
                </g>
        </g>
        <svg viewBox="0 0 15 15" width="100%" height="30px" preserveAspectRatio="xMaxYMin meet">
         <g id="arrow_out" transform="scale(0.3 0.3)">
          <a xlink:href="classlemons_1_1midi_1_1_midi_chopping_processor__inherit__graph_org.svg" target="_base">
           <rect id="button" ry="5" rx="5" y="6" x="6" height="38" width="38"
                fill="#f2f5e9" fill-opacity="0.5" stroke="#606060" stroke-width="1.0"/>
           <path id="arrow"
             d="M 11.500037,31.436501 C 11.940474,20.09759 22.043105,11.32322 32.158766,21.979434 L 37.068811,17.246167 C 37.068811,17.246167 37.088388,32 37.088388,32 L 22.160133,31.978069 C 22.160133,31.978069 26.997745,27.140456 26.997745,27.140456 C 18.528582,18.264221 13.291696,25.230495 11.500037,31.436501 z"
             style="fill:#404040;"/>
          </a>
         </g>
        </svg>
</svg>
