<?xml version="1.0" encoding="UTF-8" standalone="no"?>
<!DOCTYPE svg PUBLIC "-//W3C//DTD SVG 1.1//EN"
 "http://www.w3.org/Graphics/SVG/1.1/DTD/svg11.dtd">
<!-- Generated by graphviz version 2.43.0 (0)
 -->
<!-- Title: lemons::dsp::Engine&lt; SampleType &gt; Pages: 1 -->
<!--zoomable 1058 -->
<svg id="main" version="1.1" xmlns="http://www.w3.org/2000/svg" xmlns:xlink="http://www.w3.org/1999/xlink" xml:space="preserve" onload="init(evt)">
<style type="text/css"><![CDATA[
.edge:hover path { stroke: red; }
.edge:hover polygon { stroke: red; fill: red; }
]]></style>
<script type="text/javascript"><![CDATA[
var edges = document.getElementsByTagName('g');
if (edges && edges.length) {
  for (var i=0;i<edges.length;i++) {
    if (edges[i].id.substr(0,4)=='edge') {
      edges[i].setAttribute('class','edge');
    }
  }
}
]]></script>
        <defs>
                <circle id="rim" cx="0" cy="0" r="7"/>
                <circle id="rim2" cx="0" cy="0" r="3.5"/>
                <g id="zoomPlus">
                        <use xlink:href="#rim" fill="#404040">
                                <set attributeName="fill" to="#808080" begin="zoomplus.mouseover" end="zoomplus.mouseout"/>
                        </use>
                        <path d="M-4,0h8M0,-4v8" fill="none" stroke="white" stroke-width="1.5" pointer-events="none"/>
                </g>
                <g id="zoomMin">
                        <use xlink:href="#rim" fill="#404040">
                                <set attributeName="fill" to="#808080" begin="zoomminus.mouseover" end="zoomminus.mouseout"/>
                        </use>
                        <path d="M-4,0h8" fill="none" stroke="white" stroke-width="1.5" pointer-events="none"/>
                </g>
                <g id="dirArrow">
                        <path fill="none" stroke="white" stroke-width="1.5" d="M0,-3.0v7 M-2.5,-0.5L0,-3.0L2.5,-0.5"/>
                </g>
               <g id="resetDef">
                       <use xlink:href="#rim2" fill="#404040">
                               <set attributeName="fill" to="#808080" begin="reset.mouseover" end="reset.mouseout"/>
                       </use>
               </g>
        </defs>

<script type="text/javascript">
var viewWidth = 907;
var viewHeight = 1058;
var sectionId = 'dynsection-0';
</script>
<script xlink:href="svgpan.js"/>
<svg id="graph" class="graph">
<g id="viewport">
<title>lemons::dsp::Engine&lt; SampleType &gt;</title>
<!-- Node1 -->
<g id="node1" class="node">
<title>Node1</title>
<g id="a_node1"><a xlink:title=" ">
<polygon fill="#bfbfbf" stroke="black" points="0,-686.5 0,-716.5 115,-716.5 115,-686.5 0,-686.5"/>
<text text-anchor="start" x="8" y="-704.5" font-family="Helvetica,sans-Serif" font-size="10.00">lemons::dsp::Engine</text>
<text text-anchor="middle" x="57.5" y="-693.5" font-family="Helvetica,sans-Serif" font-size="10.00">&lt; SampleType &gt;</text>
</a>
</g>
</g>
<!-- Node2 -->
<g id="node2" class="node">
<title>Node2</title>
<g id="a_node2"><a xlink:href="classlemons_1_1dsp_1_1_f_x_1_1_effect_engine.html" target="_top" xlink:title=" ">
<polygon fill="none" stroke="black" points="395,-975.5 395,-1005.5 511,-1005.5 511,-975.5 395,-975.5"/>
<text text-anchor="start" x="403" y="-993.5" font-family="Helvetica,sans-Serif" font-size="10.00">EffectEngine&lt; Filter,</text>
<text text-anchor="middle" x="453" y="-982.5" font-family="Helvetica,sans-Serif" font-size="10.00"> SampleType &gt;</text>
</a>
</g>
</g>
<!-- Node1&#45;&gt;Node2 -->
<g id="edge1" class="edge">
<title>Node1&#45;&gt;Node2</title>
<path fill="none" stroke="midnightblue" d="M62.82,-726.78C74.32,-784.77 111.78,-925.85 210,-971.5 268.66,-998.77 343.98,-1000.17 394.89,-996.91"/>
<polygon fill="midnightblue" stroke="midnightblue" points="66.2,-725.83 60.91,-716.65 59.32,-727.13 66.2,-725.83"/>
</g>
<!-- Node4 -->
<g id="node4" class="node">
<title>Node4</title>
<g id="a_node4"><a xlink:href="classlemons_1_1dsp_1_1osc_1_1_engine.html" target="_top" xlink:title=" ">
<polygon fill="none" stroke="black" points="224,-931.5 224,-961.5 363,-961.5 363,-931.5 224,-931.5"/>
<text text-anchor="start" x="232" y="-949.5" font-family="Helvetica,sans-Serif" font-size="10.00">Engine&lt; SampleType,</text>
<text text-anchor="middle" x="293.5" y="-938.5" font-family="Helvetica,sans-Serif" font-size="10.00"> lemons::dsp::osc::Saw &gt;</text>
</a>
</g>
</g>
<!-- Node1&#45;&gt;Node4 -->
<g id="edge3" class="edge">
<title>Node1&#45;&gt;Node4</title>
<path fill="none" stroke="midnightblue" d="M67.17,-726.32C85.26,-773.93 131.97,-877.37 210,-922.5 215.94,-925.94 222.41,-928.91 229.03,-931.48"/>
<polygon fill="midnightblue" stroke="midnightblue" points="70.4,-724.95 63.65,-716.79 63.83,-727.38 70.4,-724.95"/>
</g>
<!-- Node5 -->
<g id="node5" class="node">
<title>Node5</title>
<g id="a_node5"><a xlink:href="classlemons_1_1dsp_1_1osc_1_1_engine.html" target="_top" xlink:title=" ">
<polygon fill="none" stroke="black" points="223.5,-882.5 223.5,-912.5 363.5,-912.5 363.5,-882.5 223.5,-882.5"/>
<text text-anchor="start" x="231.5" y="-900.5" font-family="Helvetica,sans-Serif" font-size="10.00">Engine&lt; SampleType,</text>
<text text-anchor="middle" x="293.5" y="-889.5" font-family="Helvetica,sans-Serif" font-size="10.00"> lemons::dsp::osc::Sine &gt;</text>
</a>
</g>
</g>
<!-- Node1&#45;&gt;Node5 -->
<g id="edge4" class="edge">
<title>Node1&#45;&gt;Node5</title>
<path fill="none" stroke="midnightblue" d="M71.94,-725.58C94.8,-764.01 145.15,-838.42 210,-873.5 216.3,-876.91 223.13,-879.88 230.09,-882.46"/>
<polygon fill="midnightblue" stroke="midnightblue" points="74.79,-723.52 66.73,-716.64 68.74,-727.04 74.79,-723.52"/>
</g>
<!-- Node6 -->
<g id="node6" class="node">
<title>Node6</title>
<g id="a_node6"><a xlink:href="classlemons_1_1dsp_1_1osc_1_1_engine.html" target="_top" xlink:title=" ">
<polygon fill="none" stroke="black" points="217.5,-833.5 217.5,-863.5 369.5,-863.5 369.5,-833.5 217.5,-833.5"/>
<text text-anchor="start" x="225.5" y="-851.5" font-family="Helvetica,sans-Serif" font-size="10.00">Engine&lt; SampleType,</text>
<text text-anchor="middle" x="293.5" y="-840.5" font-family="Helvetica,sans-Serif" font-size="10.00"> lemons::dsp::osc::Square &gt;</text>
</a>
</g>
</g>
<!-- Node1&#45;&gt;Node6 -->
<g id="edge5" class="edge">
<title>Node1&#45;&gt;Node6</title>
<path fill="none" stroke="midnightblue" d="M79.5,-723.81C106.9,-751.58 157.56,-798.51 210,-824.5 216.82,-827.88 224.19,-830.86 231.63,-833.48"/>
<polygon fill="midnightblue" stroke="midnightblue" points="81.89,-721.25 72.41,-716.52 76.88,-726.13 81.89,-721.25"/>
</g>
<!-- Node7 -->
<g id="node7" class="node">
<title>Node7</title>
<g id="a_node7"><a xlink:href="classlemons_1_1dsp_1_1osc_1_1_engine.html" target="_top" xlink:title=" ">
<polygon fill="none" stroke="black" points="210,-784.5 210,-814.5 377,-814.5 377,-784.5 210,-784.5"/>
<text text-anchor="start" x="218" y="-802.5" font-family="Helvetica,sans-Serif" font-size="10.00">Engine&lt; SampleType,</text>
<text text-anchor="middle" x="293.5" y="-791.5" font-family="Helvetica,sans-Serif" font-size="10.00"> lemons::dsp::osc::SuperSaw &gt;</text>
</a>
</g>
</g>
<!-- Node1&#45;&gt;Node7 -->
<g id="edge6" class="edge">
<title>Node1&#45;&gt;Node7</title>
<path fill="none" stroke="midnightblue" d="M94.68,-721.36C124.89,-737.4 169.42,-759.82 210,-775.5 218.21,-778.67 227.02,-781.66 235.71,-784.37"/>
<polygon fill="midnightblue" stroke="midnightblue" points="96.25,-718.23 85.79,-716.6 92.95,-724.4 96.25,-718.23"/>
</g>
<!-- Node8 -->
<g id="node8" class="node">
<title>Node8</title>
<g id="a_node8"><a xlink:href="classlemons_1_1dsp_1_1osc_1_1_engine.html" target="_top" xlink:title=" ">
<polygon fill="none" stroke="black" points="215,-735.5 215,-765.5 372,-765.5 372,-735.5 215,-735.5"/>
<text text-anchor="start" x="223" y="-753.5" font-family="Helvetica,sans-Serif" font-size="10.00">Engine&lt; SampleType,</text>
<text text-anchor="middle" x="293.5" y="-742.5" font-family="Helvetica,sans-Serif" font-size="10.00"> lemons::dsp::osc::Triangle &gt;</text>
</a>
</g>
</g>
<!-- Node1&#45;&gt;Node8 -->
<g id="edge7" class="edge">
<title>Node1&#45;&gt;Node8</title>
<path fill="none" stroke="midnightblue" d="M125.07,-715.44C154.99,-721.7 190.35,-729.11 220.85,-735.5"/>
<polygon fill="midnightblue" stroke="midnightblue" points="125.65,-711.99 115.14,-713.36 124.22,-718.84 125.65,-711.99"/>
</g>
<!-- Node9 -->
<g id="node9" class="node">
<title>Node9</title>
<g id="a_node9"><a xlink:href="classlemons_1_1dsp_1_1_f_x_1_1_effect_engine.html" target="_top" xlink:title="A class that wraps an AudioEffect into a dsp::Engine.">
<polygon fill="none" stroke="black" points="213,-1019.5 213,-1049.5 374,-1049.5 374,-1019.5 213,-1019.5"/>
<text text-anchor="start" x="221" y="-1037.5" font-family="Helvetica,sans-Serif" font-size="10.00">lemons::dsp::FX::EffectEngine</text>
<text text-anchor="middle" x="293.5" y="-1026.5" font-family="Helvetica,sans-Serif" font-size="10.00">&lt; SampleType &gt;</text>
</a>
</g>
</g>
<!-- Node1&#45;&gt;Node9 -->
<g id="edge8" class="edge">
<title>Node1&#45;&gt;Node9</title>
<path fill="none" stroke="midnightblue" d="M61.27,-727.2C68.91,-793.19 92.46,-966.14 133,-1004.5 154.18,-1024.54 184.31,-1033.28 212.68,-1036.59"/>
<polygon fill="midnightblue" stroke="midnightblue" points="64.7,-726.41 60.1,-716.86 57.75,-727.19 64.7,-726.41"/>
</g>
<!-- Node11 -->
<g id="node11" class="node">
<title>Node11</title>
<g id="a_node11"><a xlink:href="classlemons_1_1dsp_1_1_latency_engine.html" target="_top" xlink:title=" ">
<polygon fill="none" stroke="black" points="217,-686.5 217,-716.5 370,-716.5 370,-686.5 217,-686.5"/>
<text text-anchor="start" x="225" y="-704.5" font-family="Helvetica,sans-Serif" font-size="10.00">lemons::dsp::LatencyEngine</text>
<text text-anchor="middle" x="293.5" y="-693.5" font-family="Helvetica,sans-Serif" font-size="10.00">&lt; SampleType &gt;</text>
</a>
</g>
</g>
<!-- Node1&#45;&gt;Node11 -->
<g id="edge11" class="edge">
<title>Node1&#45;&gt;Node11</title>
<path fill="none" stroke="midnightblue" d="M125.43,-701.5C154,-701.5 187.47,-701.5 216.92,-701.5"/>
<polygon fill="midnightblue" stroke="midnightblue" points="125.14,-698 115.14,-701.5 125.14,-705 125.14,-698"/>
</g>
<!-- Node15 -->
<g id="node15" class="node">
<title>Node15</title>
<g id="a_node15"><a xlink:href="structlemons_1_1dsp_1_1_midi_processor_engine.html" target="_top" xlink:title=" ">
<polygon fill="none" stroke="black" points="218.5,-637.5 218.5,-667.5 368.5,-667.5 368.5,-637.5 218.5,-637.5"/>
<text text-anchor="start" x="226.5" y="-655.5" font-family="Helvetica,sans-Serif" font-size="10.00">lemons::dsp::MidiProcessor</text>
<text text-anchor="middle" x="293.5" y="-644.5" font-family="Helvetica,sans-Serif" font-size="10.00">Engine&lt; SampleType &gt;</text>
</a>
</g>
</g>
<!-- Node1&#45;&gt;Node15 -->
<g id="edge15" class="edge">
<title>Node1&#45;&gt;Node15</title>
<path fill="none" stroke="midnightblue" d="M125.07,-687.56C154.99,-681.3 190.35,-673.89 220.85,-667.5"/>
<polygon fill="midnightblue" stroke="midnightblue" points="124.22,-684.16 115.14,-689.64 125.65,-691.01 124.22,-684.16"/>
</g>
<!-- Node16 -->
<g id="node16" class="node">
<title>Node16</title>
<g id="a_node16"><a xlink:href="classlemons_1_1dsp_1_1osc_1_1_choosable_oscillator.html" target="_top" xlink:title=" ">
<polygon fill="none" stroke="black" points="216,-588.5 216,-618.5 371,-618.5 371,-588.5 216,-588.5"/>
<text text-anchor="start" x="224" y="-606.5" font-family="Helvetica,sans-Serif" font-size="10.00">lemons::dsp::osc::Choosable</text>
<text text-anchor="middle" x="293.5" y="-595.5" font-family="Helvetica,sans-Serif" font-size="10.00">Oscillator&lt; SampleType &gt;</text>
</a>
</g>
</g>
<!-- Node1&#45;&gt;Node16 -->
<g id="edge16" class="edge">
<title>Node1&#45;&gt;Node16</title>
<path fill="none" stroke="midnightblue" d="M95.32,-681.77C125.56,-666.05 169.82,-644.16 210,-628.5 219.06,-624.97 228.84,-621.62 238.39,-618.58"/>
<polygon fill="midnightblue" stroke="midnightblue" points="93.64,-678.7 86.4,-686.44 96.88,-684.9 93.64,-678.7"/>
</g>
<!-- Node18 -->
<g id="node18" class="node">
<title>Node18</title>
<g id="a_node18"><a xlink:href="classlemons_1_1dsp_1_1osc_1_1_engine.html" target="_top" xlink:title=" ">
<polygon fill="none" stroke="black" points="225,-362.5 225,-392.5 362,-392.5 362,-362.5 225,-362.5"/>
<text text-anchor="start" x="233" y="-380.5" font-family="Helvetica,sans-Serif" font-size="10.00">lemons::dsp::osc::Engine</text>
<text text-anchor="middle" x="293.5" y="-369.5" font-family="Helvetica,sans-Serif" font-size="10.00">&lt; SampleType &gt;</text>
</a>
</g>
</g>
<!-- Node1&#45;&gt;Node18 -->
<g id="edge18" class="edge">
<title>Node1&#45;&gt;Node18</title>
<path fill="none" stroke="midnightblue" d="M72.7,-677.23C87.2,-652.85 110.68,-614.42 133,-582.5 184.43,-508.96 252.28,-425.88 279.95,-392.53"/>
<polygon fill="midnightblue" stroke="midnightblue" points="69.5,-675.76 67.43,-686.15 75.53,-679.33 69.5,-675.76"/>
</g>
<!-- Node29 -->
<g id="node29" class="node">
<title>Node29</title>
<g id="a_node29"><a xlink:href="classlemons_1_1dsp_1_1_protector.html" target="_top" xlink:title=" ">
<polygon fill="none" stroke="black" points="230.5,-313.5 230.5,-343.5 356.5,-343.5 356.5,-313.5 230.5,-313.5"/>
<text text-anchor="start" x="238.5" y="-331.5" font-family="Helvetica,sans-Serif" font-size="10.00">lemons::dsp::Protector</text>
<text text-anchor="middle" x="293.5" y="-320.5" font-family="Helvetica,sans-Serif" font-size="10.00">&lt; SampleType &gt;</text>
</a>
</g>
</g>
<!-- Node1&#45;&gt;Node29 -->
<g id="edge29" class="edge">
<title>Node1&#45;&gt;Node29</title>
<path fill="none" stroke="midnightblue" d="M61.71,-676.44C71.32,-612.15 105.98,-440.3 210,-353.5 215.98,-348.51 222.93,-344.52 230.21,-341.33"/>
<polygon fill="midnightblue" stroke="midnightblue" points="58.22,-676.09 60.28,-686.49 65.15,-677.08 58.22,-676.09"/>
</g>
<!-- Node30 -->
<g id="node30" class="node">
<title>Node30</title>
<g id="a_node30"><a xlink:href="classlemons_1_1plugin_1_1_processor_engine.html" target="_top" xlink:title=" ">
<polygon fill="none" stroke="black" points="222.5,-264.5 222.5,-294.5 364.5,-294.5 364.5,-264.5 222.5,-264.5"/>
<text text-anchor="start" x="230.5" y="-282.5" font-family="Helvetica,sans-Serif" font-size="10.00">lemons::plugin::Processor</text>
<text text-anchor="middle" x="293.5" y="-271.5" font-family="Helvetica,sans-Serif" font-size="10.00">Engine&lt; SampleType &gt;</text>
</a>
</g>
</g>
<!-- Node1&#45;&gt;Node30 -->
<g id="edge30" class="edge">
<title>Node1&#45;&gt;Node30</title>
<path fill="none" stroke="midnightblue" d="M58.81,-676.21C60.61,-617.85 71.41,-471.04 133,-369.5 156.23,-331.21 170.65,-325.88 210,-304.5 216.97,-300.71 224.59,-297.42 232.29,-294.59"/>
<polygon fill="midnightblue" stroke="midnightblue" points="55.31,-676.27 58.56,-686.35 62.31,-676.44 55.31,-676.27"/>
</g>
<!-- Node32 -->
<g id="node32" class="node">
<title>Node32</title>
<g id="a_node32"><a xlink:href="classlemons_1_1dsp_1_1_engine.html" target="_top" xlink:title=" ">
<polygon fill="none" stroke="black" points="236,-215.5 236,-245.5 351,-245.5 351,-215.5 236,-215.5"/>
<text text-anchor="start" x="244" y="-233.5" font-family="Helvetica,sans-Serif" font-size="10.00">lemons::dsp::Engine</text>
<text text-anchor="middle" x="293.5" y="-222.5" font-family="Helvetica,sans-Serif" font-size="10.00">&lt; double &gt;</text>
</a>
</g>
</g>
<!-- Node1&#45;&gt;Node32 -->
<g id="edge32" class="edge">
<title>Node1&#45;&gt;Node32</title>
<path fill="none" stroke="orange" stroke-dasharray="5,2" d="M60.44,-676C66.82,-597.49 89.33,-361 133,-299.5 156.76,-266.04 200.29,-248.66 235.88,-239.72"/>
<polygon fill="orange" stroke="orange" points="56.91,-676.15 59.61,-686.4 63.89,-676.71 56.91,-676.15"/>
<text text-anchor="middle" x="162.5" y="-302.5" font-family="Helvetica,sans-Serif" font-size="10.00"> &lt; double &gt;</text>
</g>
<!-- Node33 -->
<g id="node33" class="node">
<title>Node33</title>
<g id="a_node33"><a xlink:href="classlemons_1_1dsp_1_1_engine.html" target="_top" xlink:title=" ">
<polygon fill="none" stroke="black" points="236,-539.5 236,-569.5 351,-569.5 351,-539.5 236,-539.5"/>
<text text-anchor="start" x="244" y="-557.5" font-family="Helvetica,sans-Serif" font-size="10.00">lemons::dsp::Engine</text>
<text text-anchor="middle" x="293.5" y="-546.5" font-family="Helvetica,sans-Serif" font-size="10.00">&lt; float &gt;</text>
</a>
</g>
</g>
<!-- Node1&#45;&gt;Node33 -->
<g id="edge33" class="edge">
<title>Node1&#45;&gt;Node33</title>
<path fill="none" stroke="orange" stroke-dasharray="5,2" d="M76.55,-678.41C90.68,-661.32 111.49,-638.2 133,-621.5 163.79,-597.59 174.05,-594.57 210,-579.5 218.56,-575.91 227.81,-572.6 236.92,-569.63"/>
<polygon fill="orange" stroke="orange" points="73.76,-676.29 70.17,-686.26 79.2,-680.71 73.76,-676.29"/>
<text text-anchor="middle" x="162.5" y="-624.5" font-family="Helvetica,sans-Serif" font-size="10.00"> &lt; float &gt;</text>
</g>
<!-- Node3 -->
<g id="node3" class="node">
<title>Node3</title>
<g id="a_node3"><a xlink:href="structlemons_1_1dsp_1_1_f_x_1_1_filter_engine.html" target="_top" xlink:title="A class that represents an audio engine holding a filter effect.">
<polygon fill="none" stroke="black" points="741,-987.5 741,-1017.5 899,-1017.5 899,-987.5 741,-987.5"/>
<text text-anchor="start" x="749" y="-1005.5" font-family="Helvetica,sans-Serif" font-size="10.00">lemons::dsp::FX::FilterEngine</text>
<text text-anchor="middle" x="820" y="-994.5" font-family="Helvetica,sans-Serif" font-size="10.00">&lt; SampleType &gt;</text>
</a>
</g>
</g>
<!-- Node2&#45;&gt;Node3 -->
<g id="edge2" class="edge">
<title>Node2&#45;&gt;Node3</title>
<path fill="none" stroke="midnightblue" d="M521.1,-992.71C583.13,-994.75 675.33,-997.78 740.7,-999.93"/>
<polygon fill="midnightblue" stroke="midnightblue" points="521.14,-989.21 511.03,-992.38 520.91,-996.2 521.14,-989.21"/>
</g>
<!-- Node10 -->
<g id="node10" class="node">
<title>Node10</title>
<g id="a_node10"><a xlink:href="classlemons_1_1dsp_1_1_f_x_1_1_effect_engine.html" target="_top" xlink:title=" ">
<polygon fill="none" stroke="black" points="536,-1019.5 536,-1049.5 697,-1049.5 697,-1019.5 536,-1019.5"/>
<text text-anchor="start" x="544" y="-1037.5" font-family="Helvetica,sans-Serif" font-size="10.00">lemons::dsp::FX::EffectEngine</text>
<text text-anchor="middle" x="616.5" y="-1026.5" font-family="Helvetica,sans-Serif" font-size="10.00">&lt; Filter, SampleType &gt;</text>
</a>
</g>
</g>
<!-- Node9&#45;&gt;Node10 -->
<g id="edge9" class="edge">
<title>Node9&#45;&gt;Node10</title>
<path fill="none" stroke="orange" stroke-dasharray="5,2" d="M384.55,-1034.5C432.11,-1034.5 489.97,-1034.5 535.87,-1034.5"/>
<polygon fill="orange" stroke="orange" points="384.26,-1031 374.26,-1034.5 384.26,-1038 384.26,-1031"/>
<text text-anchor="middle" x="453" y="-1037.5" font-family="Helvetica,sans-Serif" font-size="10.00"> &lt; Filter, SampleType &gt;</text>
</g>
<!-- Node10&#45;&gt;Node3 -->
<g id="edge10" class="edge">
<title>Node10&#45;&gt;Node3</title>
<path fill="none" stroke="midnightblue" d="M707.35,-1020.23C718.55,-1018.45 729.93,-1016.65 740.93,-1014.9"/>
<polygon fill="midnightblue" stroke="midnightblue" points="706.47,-1016.83 697.14,-1021.85 707.56,-1023.74 706.47,-1016.83"/>
</g>
<!-- Node12 -->
<g id="node12" class="node">
<title>Node12</title>
<g id="a_node12"><a xlink:href="classlemons_1_1dsp_1_1_audio_file_player.html" target="_top" xlink:title=" ">
<polygon fill="none" stroke="black" points="537.5,-762.5 537.5,-792.5 695.5,-792.5 695.5,-762.5 537.5,-762.5"/>
<text text-anchor="start" x="545.5" y="-780.5" font-family="Helvetica,sans-Serif" font-size="10.00">lemons::dsp::AudioFilePlayer</text>
<text text-anchor="middle" x="616.5" y="-769.5" font-family="Helvetica,sans-Serif" font-size="10.00">&lt; SampleType &gt;</text>
</a>
</g>
</g>
<!-- Node11&#45;&gt;Node12 -->
<g id="edge12" class="edge">
<title>Node11&#45;&gt;Node12</title>
<path fill="none" stroke="midnightblue" d="M359.94,-719.92C365.77,-721.98 371.53,-724.18 377,-726.5 385.43,-730.07 386.39,-733.4 395,-736.5 440.8,-752.98 494.44,-763.14 537.35,-769.23"/>
<polygon fill="midnightblue" stroke="midnightblue" points="360.7,-716.48 350.11,-716.58 358.45,-723.11 360.7,-716.48"/>
</g>
<!-- Node13 -->
<g id="node13" class="node">
<title>Node13</title>
<g id="a_node13"><a xlink:href="classlemons_1_1dsp_1_1_engine_chain.html" target="_top" xlink:title=" ">
<polygon fill="none" stroke="black" points="545,-713.5 545,-743.5 688,-743.5 688,-713.5 545,-713.5"/>
<text text-anchor="start" x="553" y="-731.5" font-family="Helvetica,sans-Serif" font-size="10.00">lemons::dsp::EngineChain</text>
<text text-anchor="middle" x="616.5" y="-720.5" font-family="Helvetica,sans-Serif" font-size="10.00">&lt; SampleType &gt;</text>
</a>
</g>
</g>
<!-- Node11&#45;&gt;Node13 -->
<g id="edge13" class="edge">
<title>Node11&#45;&gt;Node13</title>
<path fill="none" stroke="midnightblue" d="M380.29,-717.67C385.26,-718.35 390.19,-718.97 395,-719.5 444.89,-724.96 501.46,-727.19 544.81,-728.06"/>
<polygon fill="midnightblue" stroke="midnightblue" points="380.47,-714.16 370.07,-716.17 379.46,-721.08 380.47,-714.16"/>
</g>
<!-- Node14 -->
<g id="node14" class="node">
<title>Node14</title>
<g id="a_node14"><a xlink:href="classlemons_1_1dsp_1_1_built_engine_chain.html" target="_top" xlink:title=" ">
<polygon fill="none" stroke="black" points="751.5,-713.5 751.5,-743.5 888.5,-743.5 888.5,-713.5 751.5,-713.5"/>
<text text-anchor="start" x="759.5" y="-731.5" font-family="Helvetica,sans-Serif" font-size="10.00">lemons::dsp::BuiltEngine</text>
<text text-anchor="middle" x="820" y="-720.5" font-family="Helvetica,sans-Serif" font-size="10.00">Chain&lt; SampleType &gt;</text>
</a>
</g>
</g>
<!-- Node13&#45;&gt;Node14 -->
<g id="edge14" class="edge">
<title>Node13&#45;&gt;Node14</title>
<path fill="none" stroke="midnightblue" d="M698.49,-728.5C716.06,-728.5 734.47,-728.5 751.46,-728.5"/>
<polygon fill="midnightblue" stroke="midnightblue" points="698.26,-725 688.26,-728.5 698.26,-732 698.26,-725"/>
</g>
<!-- Node17 -->
<g id="node17" class="node">
<title>Node17</title>
<g id="a_node17"><a xlink:href="classlemons_1_1dsp_1_1osc_1_1_choosable_oscillator.html" target="_top" xlink:title=" ">
<polygon fill="none" stroke="black" points="539,-664.5 539,-694.5 694,-694.5 694,-664.5 539,-664.5"/>
<text text-anchor="start" x="547" y="-682.5" font-family="Helvetica,sans-Serif" font-size="10.00">lemons::dsp::osc::Choosable</text>
<text text-anchor="middle" x="616.5" y="-671.5" font-family="Helvetica,sans-Serif" font-size="10.00">Oscillator&lt; float &gt;</text>
</a>
</g>
</g>
<!-- Node16&#45;&gt;Node17 -->
<g id="edge17" class="edge">
<title>Node16&#45;&gt;Node17</title>
<path fill="none" stroke="orange" stroke-dasharray="5,2" d="M372.34,-624.37C373.96,-625.67 375.52,-627.04 377,-628.5 395.89,-647.18 373.57,-669.8 395,-685.5 417.28,-701.83 484.46,-697.85 538.87,-691.27"/>
<polygon fill="orange" stroke="orange" points="373.93,-621.22 363.68,-618.54 370.02,-627.03 373.93,-621.22"/>
<text text-anchor="middle" x="453" y="-699.5" font-family="Helvetica,sans-Serif" font-size="10.00"> &lt; float &gt;</text>
</g>
<!-- Node19 -->
<g id="node19" class="node">
<title>Node19</title>
<g id="a_node19"><a xlink:href="classlemons_1_1dsp_1_1osc_1_1_engine.html" target="_top" xlink:title=" ">
<polygon fill="none" stroke="black" points="540.5,-290 540.5,-331 692.5,-331 692.5,-290 540.5,-290"/>
<text text-anchor="start" x="548.5" y="-319" font-family="Helvetica,sans-Serif" font-size="10.00">lemons::dsp::osc::Engine</text>
<text text-anchor="start" x="548.5" y="-308" font-family="Helvetica,sans-Serif" font-size="10.00">&lt; SampleType, lemons::dsp</text>
<text text-anchor="middle" x="616.5" y="-297" font-family="Helvetica,sans-Serif" font-size="10.00">::osc::Sine &gt;</text>
</a>
</g>
</g>
<!-- Node18&#45;&gt;Node19 -->
<g id="edge19" class="edge">
<title>Node18&#45;&gt;Node19</title>
<path fill="none" stroke="orange" stroke-dasharray="5,2" d="M370.89,-358.7C373.04,-357.11 375.09,-355.38 377,-353.5 396.25,-334.59 373.27,-311.51 395,-295.5 417.47,-278.94 485.63,-286.05 540.28,-295.27"/>
<polygon fill="orange" stroke="orange" points="368.71,-355.94 362.1,-364.22 372.43,-361.87 368.71,-355.94"/>
<text text-anchor="start" x="395" y="-309.5" font-family="Helvetica,sans-Serif" font-size="10.00"> &lt; SampleType, lemons</text>
<text text-anchor="middle" x="453" y="-298.5" font-family="Helvetica,sans-Serif" font-size="10.00">::dsp::osc::Sine &gt;</text>
</g>
<!-- Node20 -->
<g id="node20" class="node">
<title>Node20</title>
<g id="a_node20"><a xlink:href="classlemons_1_1dsp_1_1osc_1_1_engine.html" target="_top" xlink:title=" ">
<polygon fill="none" stroke="black" points="529,-489.5 529,-519.5 704,-519.5 704,-489.5 529,-489.5"/>
<text text-anchor="start" x="537" y="-507.5" font-family="Helvetica,sans-Serif" font-size="10.00">lemons::dsp::osc::Engine</text>
<text text-anchor="middle" x="616.5" y="-496.5" font-family="Helvetica,sans-Serif" font-size="10.00">&lt; float, lemons::dsp::osc::Saw &gt;</text>
</a>
</g>
</g>
<!-- Node18&#45;&gt;Node20 -->
<g id="edge20" class="edge">
<title>Node18&#45;&gt;Node20</title>
<path fill="none" stroke="orange" stroke-dasharray="5,2" d="M333.06,-397.04C351.59,-406.15 374.23,-416.85 395,-425.5 454.31,-450.21 524.4,-474.51 569.37,-489.5"/>
<polygon fill="orange" stroke="orange" points="334.56,-393.88 324.04,-392.59 331.46,-400.16 334.56,-393.88"/>
<text text-anchor="start" x="402" y="-482.5" font-family="Helvetica,sans-Serif" font-size="10.00"> &lt; float, lemons::dsp</text>
<text text-anchor="middle" x="453" y="-471.5" font-family="Helvetica,sans-Serif" font-size="10.00">::osc::Saw &gt;</text>
</g>
<!-- Node21 -->
<g id="node21" class="node">
<title>Node21</title>
<g id="a_node21"><a xlink:href="classlemons_1_1dsp_1_1osc_1_1_engine.html" target="_top" xlink:title=" ">
<polygon fill="none" stroke="black" points="540.5,-230 540.5,-271 692.5,-271 692.5,-230 540.5,-230"/>
<text text-anchor="start" x="548.5" y="-259" font-family="Helvetica,sans-Serif" font-size="10.00">lemons::dsp::osc::Engine</text>
<text text-anchor="start" x="548.5" y="-248" font-family="Helvetica,sans-Serif" font-size="10.00">&lt; SampleType, lemons::dsp</text>
<text text-anchor="middle" x="616.5" y="-237" font-family="Helvetica,sans-Serif" font-size="10.00">::osc::Saw &gt;</text>
</a>
</g>
</g>
<!-- Node18&#45;&gt;Node21 -->
<g id="edge21" class="edge">
<title>Node18&#45;&gt;Node21</title>
<path fill="none" stroke="orange" stroke-dasharray="5,2" d="M371.02,-359.09C373.15,-357.39 375.15,-355.53 377,-353.5 405.63,-322.04 362.77,-287.27 395,-259.5 434.11,-225.8 493.14,-225.08 540.28,-231.97"/>
<polygon fill="orange" stroke="orange" points="368.61,-356.49 362.23,-364.94 372.49,-362.32 368.61,-356.49"/>
<text text-anchor="start" x="395" y="-273.5" font-family="Helvetica,sans-Serif" font-size="10.00"> &lt; SampleType, lemons</text>
<text text-anchor="middle" x="453" y="-262.5" font-family="Helvetica,sans-Serif" font-size="10.00">::dsp::osc::Saw &gt;</text>
</g>
<!-- Node22 -->
<g id="node22" class="node">
<title>Node22</title>
<g id="a_node22"><a xlink:href="classlemons_1_1dsp_1_1osc_1_1_engine.html" target="_top" xlink:title=" ">
<polygon fill="none" stroke="black" points="548,-423 548,-464 685,-464 685,-423 548,-423"/>
<text text-anchor="start" x="556" y="-452" font-family="Helvetica,sans-Serif" font-size="10.00">lemons::dsp::osc::Engine</text>
<text text-anchor="start" x="556" y="-441" font-family="Helvetica,sans-Serif" font-size="10.00">&lt; float, lemons::dsp::osc</text>
<text text-anchor="middle" x="616.5" y="-430" font-family="Helvetica,sans-Serif" font-size="10.00">::SuperSaw &gt;</text>
</a>
</g>
</g>
<!-- Node18&#45;&gt;Node22 -->
<g id="edge22" class="edge">
<title>Node18&#45;&gt;Node22</title>
<path fill="none" stroke="orange" stroke-dasharray="5,2" d="M372.15,-382.18C413.78,-385.84 465.68,-392.29 511,-403.5 530.52,-408.33 551.33,-415.79 569.21,-422.97"/>
<polygon fill="orange" stroke="orange" points="372.34,-378.68 362.08,-381.32 371.75,-385.65 372.34,-378.68"/>
<text text-anchor="start" x="402" y="-417.5" font-family="Helvetica,sans-Serif" font-size="10.00"> &lt; float, lemons::dsp</text>
<text text-anchor="middle" x="453" y="-406.5" font-family="Helvetica,sans-Serif" font-size="10.00">::osc::SuperSaw &gt;</text>
</g>
<!-- Node23 -->
<g id="node23" class="node">
<title>Node23</title>
<g id="a_node23"><a xlink:href="classlemons_1_1dsp_1_1osc_1_1_engine.html" target="_top" xlink:title=" ">
<polygon fill="none" stroke="black" points="548,-351 548,-392 685,-392 685,-351 548,-351"/>
<text text-anchor="start" x="556" y="-380" font-family="Helvetica,sans-Serif" font-size="10.00">lemons::dsp::osc::Engine</text>
<text text-anchor="start" x="556" y="-369" font-family="Helvetica,sans-Serif" font-size="10.00">&lt; float, lemons::dsp::osc</text>
<text text-anchor="middle" x="616.5" y="-358" font-family="Helvetica,sans-Serif" font-size="10.00">::Square &gt;</text>
</a>
</g>
</g>
<!-- Node18&#45;&gt;Node23 -->
<g id="edge23" class="edge">
<title>Node18&#45;&gt;Node23</title>
<path fill="none" stroke="orange" stroke-dasharray="5,2" d="M368.79,-358.13C371.62,-356.69 374.37,-355.15 377,-353.5 387.13,-347.14 384.08,-338.37 395,-333.5 442.1,-312.53 460.33,-323.99 511,-333.5 519.44,-335.08 520.96,-337.5 529,-340.5 538.12,-343.91 547.8,-347.45 557.26,-350.87"/>
<polygon fill="orange" stroke="orange" points="367.15,-355.04 359.52,-362.39 370.07,-361.4 367.15,-355.04"/>
<text text-anchor="start" x="402" y="-347.5" font-family="Helvetica,sans-Serif" font-size="10.00"> &lt; float, lemons::dsp</text>
<text text-anchor="middle" x="453" y="-336.5" font-family="Helvetica,sans-Serif" font-size="10.00">::osc::Square &gt;</text>
</g>
<!-- Node24 -->
<g id="node24" class="node">
<title>Node24</title>
<g id="a_node24"><a xlink:href="classlemons_1_1dsp_1_1osc_1_1_engine.html" target="_top" xlink:title=" ">
<polygon fill="none" stroke="black" points="540.5,-50 540.5,-91 692.5,-91 692.5,-50 540.5,-50"/>
<text text-anchor="start" x="548.5" y="-79" font-family="Helvetica,sans-Serif" font-size="10.00">lemons::dsp::osc::Engine</text>
<text text-anchor="start" x="548.5" y="-68" font-family="Helvetica,sans-Serif" font-size="10.00">&lt; SampleType, lemons::dsp</text>
<text text-anchor="middle" x="616.5" y="-57" font-family="Helvetica,sans-Serif" font-size="10.00">::osc::Triangle &gt;</text>
</a>
</g>
</g>
<!-- Node18&#45;&gt;Node24 -->
<g id="edge24" class="edge">
<title>Node18&#45;&gt;Node24</title>
<path fill="none" stroke="orange" stroke-dasharray="5,2" d="M370.59,-360.02C372.92,-358.06 375.07,-355.9 377,-353.5 414.68,-306.63 352.32,-125.86 395,-83.5 432.09,-46.7 492.16,-45.39 540.24,-52.21"/>
<polygon fill="orange" stroke="orange" points="368.31,-357.35 362.07,-365.91 372.28,-363.11 368.31,-357.35"/>
<text text-anchor="start" x="395" y="-97.5" font-family="Helvetica,sans-Serif" font-size="10.00"> &lt; SampleType, lemons</text>
<text text-anchor="middle" x="453" y="-86.5" font-family="Helvetica,sans-Serif" font-size="10.00">::dsp::osc::Triangle &gt;</text>
</g>
<!-- Node25 -->
<g id="node25" class="node">
<title>Node25</title>
<g id="a_node25"><a xlink:href="classlemons_1_1dsp_1_1osc_1_1_engine.html" target="_top" xlink:title=" ">
<polygon fill="none" stroke="black" points="548,-542 548,-583 685,-583 685,-542 548,-542"/>
<text text-anchor="start" x="556" y="-571" font-family="Helvetica,sans-Serif" font-size="10.00">lemons::dsp::osc::Engine</text>
<text text-anchor="start" x="556" y="-560" font-family="Helvetica,sans-Serif" font-size="10.00">&lt; float, lemons::dsp::osc</text>
<text text-anchor="middle" x="616.5" y="-549" font-family="Helvetica,sans-Serif" font-size="10.00">::Sine &gt;</text>
</a>
</g>
</g>
<!-- Node18&#45;&gt;Node25 -->
<g id="edge25" class="edge">
<title>Node18&#45;&gt;Node25</title>
<path fill="none" stroke="orange" stroke-dasharray="5,2" d="M309.13,-401.5C326.46,-427.98 357.74,-470.08 395,-494.5 441.24,-524.8 501.7,-542.19 547.62,-551.79"/>
<polygon fill="orange" stroke="orange" points="311.92,-399.38 303.59,-392.84 306.03,-403.15 311.92,-399.38"/>
<text text-anchor="start" x="402" y="-556.5" font-family="Helvetica,sans-Serif" font-size="10.00"> &lt; float, lemons::dsp</text>
<text text-anchor="middle" x="453" y="-545.5" font-family="Helvetica,sans-Serif" font-size="10.00">::osc::Sine &gt;</text>
</g>
<!-- Node26 -->
<g id="node26" class="node">
<title>Node26</title>
<g id="a_node26"><a xlink:href="classlemons_1_1dsp_1_1osc_1_1_engine.html" target="_top" xlink:title=" ">
<polygon fill="none" stroke="black" points="540.5,-170 540.5,-211 692.5,-211 692.5,-170 540.5,-170"/>
<text text-anchor="start" x="548.5" y="-199" font-family="Helvetica,sans-Serif" font-size="10.00">lemons::dsp::osc::Engine</text>
<text text-anchor="start" x="548.5" y="-188" font-family="Helvetica,sans-Serif" font-size="10.00">&lt; SampleType, lemons::dsp</text>
<text text-anchor="middle" x="616.5" y="-177" font-family="Helvetica,sans-Serif" font-size="10.00">::osc::SuperSaw &gt;</text>
</a>
</g>
</g>
<!-- Node18&#45;&gt;Node26 -->
<g id="edge26" class="edge">
<title>Node18&#45;&gt;Node26</title>
<path fill="none" stroke="orange" stroke-dasharray="5,2" d="M370.6,-359.76C372.91,-357.87 375.06,-355.79 377,-353.5 420.7,-301.95 345.7,-248.73 395,-202.5 432.96,-166.9 492.67,-165.68 540.38,-172.39"/>
<polygon fill="orange" stroke="orange" points="368.5,-356.96 362.19,-365.47 372.43,-362.75 368.5,-356.96"/>
<text text-anchor="start" x="395" y="-216.5" font-family="Helvetica,sans-Serif" font-size="10.00"> &lt; SampleType, lemons</text>
<text text-anchor="middle" x="453" y="-205.5" font-family="Helvetica,sans-Serif" font-size="10.00">::dsp::osc::SuperSaw &gt;</text>
</g>
<!-- Node27 -->
<g id="node27" class="node">
<title>Node27</title>
<g id="a_node27"><a xlink:href="classlemons_1_1dsp_1_1osc_1_1_engine.html" target="_top" xlink:title=" ">
<polygon fill="none" stroke="black" points="540.5,-110 540.5,-151 692.5,-151 692.5,-110 540.5,-110"/>
<text text-anchor="start" x="548.5" y="-139" font-family="Helvetica,sans-Serif" font-size="10.00">lemons::dsp::osc::Engine</text>
<text text-anchor="start" x="548.5" y="-128" font-family="Helvetica,sans-Serif" font-size="10.00">&lt; SampleType, lemons::dsp</text>
<text text-anchor="middle" x="616.5" y="-117" font-family="Helvetica,sans-Serif" font-size="10.00">::osc::Square &gt;</text>
</a>
</g>
</g>
<!-- Node18&#45;&gt;Node27 -->
<g id="edge27" class="edge">
<title>Node18&#45;&gt;Node27</title>
<path fill="none" stroke="orange" stroke-dasharray="5,2" d="M370.69,-359.84C372.98,-357.93 375.09,-355.83 377,-353.5 406.69,-317.28 361.44,-176.18 395,-143.5 432.43,-107.05 492.48,-105.72 540.47,-112.45"/>
<polygon fill="orange" stroke="orange" points="368.59,-357.04 362.35,-365.61 372.57,-362.8 368.59,-357.04"/>
<text text-anchor="start" x="395" y="-157.5" font-family="Helvetica,sans-Serif" font-size="10.00"> &lt; SampleType, lemons</text>
<text text-anchor="middle" x="453" y="-146.5" font-family="Helvetica,sans-Serif" font-size="10.00">::dsp::osc::Square &gt;</text>
</g>
<!-- Node28 -->
<g id="node28" class="node">
<title>Node28</title>
<g id="a_node28"><a xlink:href="classlemons_1_1dsp_1_1osc_1_1_engine.html" target="_top" xlink:title=" ">
<polygon fill="none" stroke="black" points="548,-603 548,-644 685,-644 685,-603 548,-603"/>
<text text-anchor="start" x="556" y="-632" font-family="Helvetica,sans-Serif" font-size="10.00">lemons::dsp::osc::Engine</text>
<text text-anchor="start" x="556" y="-621" font-family="Helvetica,sans-Serif" font-size="10.00">&lt; float, lemons::dsp::osc</text>
<text text-anchor="middle" x="616.5" y="-610" font-family="Helvetica,sans-Serif" font-size="10.00">::Triangle &gt;</text>
</a>
</g>
</g>
<!-- Node18&#45;&gt;Node28 -->
<g id="edge28" class="edge">
<title>Node18&#45;&gt;Node28</title>
<path fill="none" stroke="orange" stroke-dasharray="5,2" d="M307.66,-401.57C324.07,-431.64 352.89,-484.72 377,-530.5 385.15,-545.98 381.36,-554.55 395,-565.5 418.5,-584.37 492.04,-601.31 547.78,-611.94"/>
<polygon fill="orange" stroke="orange" points="310.66,-399.75 302.8,-392.65 304.52,-403.1 310.66,-399.75"/>
<text text-anchor="start" x="402" y="-617.5" font-family="Helvetica,sans-Serif" font-size="10.00"> &lt; float, lemons::dsp</text>
<text text-anchor="middle" x="453" y="-606.5" font-family="Helvetica,sans-Serif" font-size="10.00">::osc::Triangle &gt;</text>
</g>
<!-- Node31 -->
<g id="node31" class="node">
<title>Node31</title>
<g id="a_node31"><a xlink:href="structlemons_1_1plugin_1_1_typed_processor_engine.html" target="_top" xlink:title=" ">
<polygon fill="none" stroke="black" points="531.5,-0.5 531.5,-30.5 701.5,-30.5 701.5,-0.5 531.5,-0.5"/>
<text text-anchor="start" x="539.5" y="-18.5" font-family="Helvetica,sans-Serif" font-size="10.00">lemons::plugin::TypedProcessor</text>
<text text-anchor="middle" x="616.5" y="-7.5" font-family="Helvetica,sans-Serif" font-size="10.00">Engine&lt; SampleType &gt;</text>
</a>
</g>
</g>
<!-- Node30&#45;&gt;Node31 -->
<g id="edge31" class="edge">
<title>Node30&#45;&gt;Node31</title>
<path fill="none" stroke="midnightblue" d="M372.78,-260C374.27,-258.6 375.69,-257.1 377,-255.5 406.29,-219.81 363.37,-82.14 395,-48.5 429.07,-12.26 484.49,-4.09 531.25,-4.93"/>
<polygon fill="midnightblue" stroke="midnightblue" points="370.45,-257.37 364.64,-266.23 374.71,-262.93 370.45,-257.37"/>
</g>
<!-- Node33&#45;&gt;Node17 -->
<g id="edge34" class="edge">
<title>Node33&#45;&gt;Node17</title>
<path fill="none" stroke="midnightblue" d="M360.6,-567.28C366.7,-570.5 372.33,-574.5 377,-579.5 401.29,-605.49 368.29,-633.99 395,-657.5 415.94,-675.93 483.9,-680.54 538.89,-681.07"/>
<polygon fill="midnightblue" stroke="midnightblue" points="361.94,-564.05 351.39,-563.12 359.06,-570.42 361.94,-564.05"/>
</g>
<!-- Node33&#45;&gt;Node20 -->
<g id="edge35" class="edge">
<title>Node33&#45;&gt;Node20</title>
<path fill="none" stroke="midnightblue" d="M361.52,-556.21C404.77,-555.85 461.9,-552.59 511,-540.5 519.5,-538.41 520.82,-535.63 529,-532.5 540.79,-527.99 553.66,-523.56 565.78,-519.6"/>
<polygon fill="midnightblue" stroke="midnightblue" points="361.39,-552.72 351.4,-556.25 361.41,-559.71 361.39,-552.72"/>
</g>
<!-- Node33&#45;&gt;Node22 -->
<g id="edge38" class="edge">
<title>Node33&#45;&gt;Node22</title>
<path fill="none" stroke="midnightblue" d="M326.22,-533.89C345.48,-522.13 370.91,-507.92 395,-498.5 444.4,-479.19 459.55,-483.36 511,-470.5 522.91,-467.52 535.56,-464.3 547.8,-461.16"/>
<polygon fill="midnightblue" stroke="midnightblue" points="324.22,-531.01 317.57,-539.26 327.91,-536.96 324.22,-531.01"/>
</g>
<!-- Node33&#45;&gt;Node23 -->
<g id="edge37" class="edge">
<title>Node33&#45;&gt;Node23</title>
<path fill="none" stroke="midnightblue" d="M307.12,-530.4C323.47,-501.62 354.71,-454.16 395,-428.5 439.73,-400.01 459.66,-413.82 511,-400.5 522.94,-397.4 535.61,-393.99 547.85,-390.63"/>
<polygon fill="midnightblue" stroke="midnightblue" points="303.93,-528.94 302.15,-539.39 310.05,-532.33 303.93,-528.94"/>
</g>
<!-- Node33&#45;&gt;Node25 -->
<g id="edge36" class="edge">
<title>Node33&#45;&gt;Node25</title>
<path fill="none" stroke="midnightblue" d="M360.46,-569.39C366.37,-572.2 371.99,-575.54 377,-579.5 389.49,-589.39 381.19,-602.55 395,-610.5 439.68,-636.22 463.09,-629.55 511,-610.5 521.23,-606.43 519.62,-599.26 529,-593.5 535.25,-589.66 542.05,-586.2 549,-583.11"/>
<polygon fill="midnightblue" stroke="midnightblue" points="361.58,-566.07 351.01,-565.4 358.86,-572.52 361.58,-566.07"/>
</g>
<!-- Node33&#45;&gt;Node28 -->
<g id="edge39" class="edge">
<title>Node33&#45;&gt;Node28</title>
<path fill="none" stroke="midnightblue" d="M360.38,-567.91C366.47,-571.01 372.16,-574.82 377,-579.5 394.88,-596.8 374.78,-618.01 395,-632.5 441.72,-665.97 509.39,-657.13 557.42,-644.07"/>
<polygon fill="midnightblue" stroke="midnightblue" points="361.78,-564.7 351.22,-563.86 358.95,-571.1 361.78,-564.7"/>
</g>
</g>
</svg>
        <g id="navigator" transform="translate(0 0)" fill="#404254">
                <rect fill="#f2f5e9" fill-opacity="0.5" stroke="#606060" stroke-width=".5" x="0" y="0" width="60" height="60"/>
                <use id="zoomplus" xlink:href="#zoomPlus" x="17" y="9" onmousedown="handleZoom(evt,'in')"/>
                <use id="zoomminus" xlink:href="#zoomMin" x="42" y="9" onmousedown="handleZoom(evt,'out')"/>
                <use id="reset" xlink:href="#resetDef" x="30" y="36" onmousedown="handleReset()"/>
                <g id="arrowUp" xlink:href="#dirArrow" transform="translate(30 24)" onmousedown="handlePan(0,-1)">
                  <use xlink:href="#rim" fill="#404040">
                        <set attributeName="fill" to="#808080" begin="arrowUp.mouseover" end="arrowUp.mouseout"/>
                  </use>
                  <path fill="none" stroke="white" stroke-width="1.5" d="M0,-3.0v7 M-2.5,-0.5L0,-3.0L2.5,-0.5"/>
                </g>
                <g id="arrowRight" xlink:href="#dirArrow" transform="rotate(90) translate(36 -43)" onmousedown="handlePan(1,0)">
                  <use xlink:href="#rim" fill="#404040">
                        <set attributeName="fill" to="#808080" begin="arrowRight.mouseover" end="arrowRight.mouseout"/>
                  </use>
                  <path fill="none" stroke="white" stroke-width="1.5" d="M0,-3.0v7 M-2.5,-0.5L0,-3.0L2.5,-0.5"/>
                </g>
                <g id="arrowDown" xlink:href="#dirArrow" transform="rotate(180) translate(-30 -48)" onmousedown="handlePan(0,1)">
                  <use xlink:href="#rim" fill="#404040">
                        <set attributeName="fill" to="#808080" begin="arrowDown.mouseover" end="arrowDown.mouseout"/>
                  </use>
                  <path fill="none" stroke="white" stroke-width="1.5" d="M0,-3.0v7 M-2.5,-0.5L0,-3.0L2.5,-0.5"/>
                </g>
                <g id="arrowLeft" xlink:href="#dirArrow" transform="rotate(270) translate(-36 17)" onmousedown="handlePan(-1,0)">
                  <use xlink:href="#rim" fill="#404040">
                        <set attributeName="fill" to="#808080" begin="arrowLeft.mouseover" end="arrowLeft.mouseout"/>
                  </use>
                  <path fill="none" stroke="white" stroke-width="1.5" d="M0,-3.0v7 M-2.5,-0.5L0,-3.0L2.5,-0.5"/>
                </g>
        </g>
        <svg viewBox="0 0 15 15" width="100%" height="30px" preserveAspectRatio="xMaxYMin meet">
         <g id="arrow_out" transform="scale(0.3 0.3)">
          <a xlink:href="classlemons_1_1dsp_1_1_engine__inherit__graph_org.svg" target="_base">
           <rect id="button" ry="5" rx="5" y="6" x="6" height="38" width="38"
                fill="#f2f5e9" fill-opacity="0.5" stroke="#606060" stroke-width="1.0"/>
           <path id="arrow"
             d="M 11.500037,31.436501 C 11.940474,20.09759 22.043105,11.32322 32.158766,21.979434 L 37.068811,17.246167 C 37.068811,17.246167 37.088388,32 37.088388,32 L 22.160133,31.978069 C 22.160133,31.978069 26.997745,27.140456 26.997745,27.140456 C 18.528582,18.264221 13.291696,25.230495 11.500037,31.436501 z"
             style="fill:#404040;"/>
          </a>
         </g>
        </svg>
</svg>
