<?xml version="1.0" encoding="UTF-8" standalone="no"?>
<!DOCTYPE svg PUBLIC "-//W3C//DTD SVG 1.1//EN"
 "http://www.w3.org/Graphics/SVG/1.1/DTD/svg11.dtd">
<!-- Generated by graphviz version 2.43.0 (0)
 -->
<!-- Title: lemons::dsp::osc::Engine&lt; SampleType, Osctype, &gt; Pages: 1 -->
<svg width="634pt" height="461pt"
 viewBox="0.00 0.00 634.00 461.00" xmlns="http://www.w3.org/2000/svg" xmlns:xlink="http://www.w3.org/1999/xlink">
<g id="graph0" class="graph" transform="scale(1 1) rotate(0) translate(4 457)">
<title>lemons::dsp::osc::Engine&lt; SampleType, Osctype, &gt;</title>
<!-- Node1 -->
<g id="node1" class="node">
<title>Node1</title>
<g id="a_node1"><a xlink:title="A utility class that wraps an Oscillator into a self&#45;contained dsp::Engine.">
<polygon fill="#bfbfbf" stroke="black" points="152,-216 152,-246 299,-246 299,-216 152,-216"/>
<text text-anchor="start" x="160" y="-234" font-family="Helvetica,sans-Serif" font-size="10.00">lemons::dsp::osc::Engine</text>
<text text-anchor="middle" x="225.5" y="-223" font-family="Helvetica,sans-Serif" font-size="10.00">&lt; SampleType, Osctype, &gt;</text>
</a>
</g>
</g>
<!-- Node3 -->
<g id="node3" class="node">
<title>Node3</title>
<g id="a_node3"><a xlink:href="classlemons_1_1dsp_1_1osc_1_1_engine.html" target="_top" xlink:title=" ">
<polygon fill="none" stroke="black" points="462.5,-410.5 462.5,-451.5 614.5,-451.5 614.5,-410.5 462.5,-410.5"/>
<text text-anchor="start" x="470.5" y="-439.5" font-family="Helvetica,sans-Serif" font-size="10.00">lemons::dsp::osc::Engine</text>
<text text-anchor="start" x="470.5" y="-428.5" font-family="Helvetica,sans-Serif" font-size="10.00">&lt; SampleType, lemons::dsp</text>
<text text-anchor="middle" x="538.5" y="-417.5" font-family="Helvetica,sans-Serif" font-size="10.00">::osc::Sine &gt;</text>
</a>
</g>
</g>
<!-- Node1&#45;&gt;Node3 -->
<g id="edge2" class="edge">
<title>Node1&#45;&gt;Node3</title>
<path fill="none" stroke="orange" stroke-dasharray="5,2" d="M232.91,-256C243.69,-292.62 269.12,-360.17 317,-394 359.01,-423.68 416.6,-432.55 462.39,-434.2"/>
<polygon fill="orange" stroke="orange" points="236.21,-254.8 230.14,-246.12 229.47,-256.69 236.21,-254.8"/>
<text text-anchor="start" x="317" y="-445" font-family="Helvetica,sans-Serif" font-size="10.00"> &lt; SampleType, lemons</text>
<text text-anchor="middle" x="375" y="-434" font-family="Helvetica,sans-Serif" font-size="10.00">::dsp::osc::Sine &gt;</text>
</g>
<!-- Node4 -->
<g id="node4" class="node">
<title>Node4</title>
<g id="a_node4"><a xlink:href="classlemons_1_1dsp_1_1osc_1_1_engine.html" target="_top" xlink:title=" ">
<polygon fill="none" stroke="black" points="451,-361 451,-391 626,-391 626,-361 451,-361"/>
<text text-anchor="start" x="459" y="-379" font-family="Helvetica,sans-Serif" font-size="10.00">lemons::dsp::osc::Engine</text>
<text text-anchor="middle" x="538.5" y="-368" font-family="Helvetica,sans-Serif" font-size="10.00">&lt; float, lemons::dsp::osc::Saw &gt;</text>
</a>
</g>
</g>
<!-- Node1&#45;&gt;Node4 -->
<g id="edge3" class="edge">
<title>Node1&#45;&gt;Node4</title>
<path fill="none" stroke="orange" stroke-dasharray="5,2" d="M241.47,-254.9C257.31,-278.11 284.5,-312.47 317,-331 357.56,-354.13 408.3,-365.47 450.88,-370.99"/>
<polygon fill="orange" stroke="orange" points="244.22,-252.71 235.77,-246.31 238.38,-256.58 244.22,-252.71"/>
<text text-anchor="start" x="324" y="-382" font-family="Helvetica,sans-Serif" font-size="10.00"> &lt; float, lemons::dsp</text>
<text text-anchor="middle" x="375" y="-371" font-family="Helvetica,sans-Serif" font-size="10.00">::osc::Saw &gt;</text>
</g>
<!-- Node5 -->
<g id="node5" class="node">
<title>Node5</title>
<g id="a_node5"><a xlink:href="classlemons_1_1dsp_1_1osc_1_1_engine.html" target="_top" xlink:title=" ">
<polygon fill="none" stroke="black" points="462.5,-300.5 462.5,-341.5 614.5,-341.5 614.5,-300.5 462.5,-300.5"/>
<text text-anchor="start" x="470.5" y="-329.5" font-family="Helvetica,sans-Serif" font-size="10.00">lemons::dsp::osc::Engine</text>
<text text-anchor="start" x="470.5" y="-318.5" font-family="Helvetica,sans-Serif" font-size="10.00">&lt; SampleType, lemons::dsp</text>
<text text-anchor="middle" x="538.5" y="-307.5" font-family="Helvetica,sans-Serif" font-size="10.00">::osc::Saw &gt;</text>
</a>
</g>
</g>
<!-- Node1&#45;&gt;Node5 -->
<g id="edge4" class="edge">
<title>Node1&#45;&gt;Node5</title>
<path fill="none" stroke="orange" stroke-dasharray="5,2" d="M260.22,-250.92C276.84,-260.01 297.47,-270.23 317,-277 364.12,-293.33 419.12,-304.32 462.4,-311.23"/>
<polygon fill="orange" stroke="orange" points="261.86,-247.83 251.43,-246.02 258.45,-253.94 261.86,-247.83"/>
<text text-anchor="start" x="317" y="-319" font-family="Helvetica,sans-Serif" font-size="10.00"> &lt; SampleType, lemons</text>
<text text-anchor="middle" x="375" y="-308" font-family="Helvetica,sans-Serif" font-size="10.00">::dsp::osc::Saw &gt;</text>
</g>
<!-- Node6 -->
<g id="node6" class="node">
<title>Node6</title>
<g id="a_node6"><a xlink:href="classlemons_1_1dsp_1_1osc_1_1_engine.html" target="_top" xlink:title=" ">
<polygon fill="none" stroke="black" points="470,-240.5 470,-281.5 607,-281.5 607,-240.5 470,-240.5"/>
<text text-anchor="start" x="478" y="-269.5" font-family="Helvetica,sans-Serif" font-size="10.00">lemons::dsp::osc::Engine</text>
<text text-anchor="start" x="478" y="-258.5" font-family="Helvetica,sans-Serif" font-size="10.00">&lt; float, lemons::dsp::osc</text>
<text text-anchor="middle" x="538.5" y="-247.5" font-family="Helvetica,sans-Serif" font-size="10.00">::Square &gt;</text>
</a>
</g>
</g>
<!-- Node1&#45;&gt;Node6 -->
<g id="edge5" class="edge">
<title>Node1&#45;&gt;Node6</title>
<path fill="none" stroke="orange" stroke-dasharray="5,2" d="M309.21,-238.98C359.42,-243.82 422.72,-249.93 469.92,-254.48"/>
<polygon fill="orange" stroke="orange" points="309.31,-235.47 299.02,-238 308.64,-242.44 309.31,-235.47"/>
<text text-anchor="start" x="324" y="-265" font-family="Helvetica,sans-Serif" font-size="10.00"> &lt; float, lemons::dsp</text>
<text text-anchor="middle" x="375" y="-254" font-family="Helvetica,sans-Serif" font-size="10.00">::osc::Square &gt;</text>
</g>
<!-- Node7 -->
<g id="node7" class="node">
<title>Node7</title>
<g id="a_node7"><a xlink:href="classlemons_1_1dsp_1_1osc_1_1_engine.html" target="_top" xlink:title=" ">
<polygon fill="none" stroke="black" points="462.5,-180.5 462.5,-221.5 614.5,-221.5 614.5,-180.5 462.5,-180.5"/>
<text text-anchor="start" x="470.5" y="-209.5" font-family="Helvetica,sans-Serif" font-size="10.00">lemons::dsp::osc::Engine</text>
<text text-anchor="start" x="470.5" y="-198.5" font-family="Helvetica,sans-Serif" font-size="10.00">&lt; SampleType, lemons::dsp</text>
<text text-anchor="middle" x="538.5" y="-187.5" font-family="Helvetica,sans-Serif" font-size="10.00">::osc::Triangle &gt;</text>
</a>
</g>
</g>
<!-- Node1&#45;&gt;Node7 -->
<g id="edge6" class="edge">
<title>Node1&#45;&gt;Node7</title>
<path fill="none" stroke="orange" stroke-dasharray="5,2" d="M309.41,-215C311.97,-214.64 314.5,-214.31 317,-214 365.15,-208.08 419.55,-204.84 462.27,-203.07"/>
<polygon fill="orange" stroke="orange" points="308.86,-211.54 299.48,-216.47 309.88,-218.46 308.86,-211.54"/>
<text text-anchor="start" x="317" y="-228" font-family="Helvetica,sans-Serif" font-size="10.00"> &lt; SampleType, lemons</text>
<text text-anchor="middle" x="375" y="-217" font-family="Helvetica,sans-Serif" font-size="10.00">::dsp::osc::Triangle &gt;</text>
</g>
<!-- Node8 -->
<g id="node8" class="node">
<title>Node8</title>
<g id="a_node8"><a xlink:href="classlemons_1_1dsp_1_1osc_1_1_engine.html" target="_top" xlink:title=" ">
<polygon fill="none" stroke="black" points="470,-120.5 470,-161.5 607,-161.5 607,-120.5 470,-120.5"/>
<text text-anchor="start" x="478" y="-149.5" font-family="Helvetica,sans-Serif" font-size="10.00">lemons::dsp::osc::Engine</text>
<text text-anchor="start" x="478" y="-138.5" font-family="Helvetica,sans-Serif" font-size="10.00">&lt; float, lemons::dsp::osc</text>
<text text-anchor="middle" x="538.5" y="-127.5" font-family="Helvetica,sans-Serif" font-size="10.00">::Sine &gt;</text>
</a>
</g>
</g>
<!-- Node1&#45;&gt;Node8 -->
<g id="edge7" class="edge">
<title>Node1&#45;&gt;Node8</title>
<path fill="none" stroke="orange" stroke-dasharray="5,2" d="M256.18,-210.39C273.25,-199.47 295.52,-186.75 317,-179 366.51,-161.14 425.39,-151.55 469.84,-146.46"/>
<polygon fill="orange" stroke="orange" points="254.21,-207.5 247.76,-215.9 258.04,-213.35 254.21,-207.5"/>
<text text-anchor="start" x="324" y="-193" font-family="Helvetica,sans-Serif" font-size="10.00"> &lt; float, lemons::dsp</text>
<text text-anchor="middle" x="375" y="-182" font-family="Helvetica,sans-Serif" font-size="10.00">::osc::Sine &gt;</text>
</g>
<!-- Node9 -->
<g id="node9" class="node">
<title>Node9</title>
<g id="a_node9"><a xlink:href="classlemons_1_1dsp_1_1osc_1_1_engine.html" target="_top" xlink:title=" ">
<polygon fill="none" stroke="black" points="462.5,-60.5 462.5,-101.5 614.5,-101.5 614.5,-60.5 462.5,-60.5"/>
<text text-anchor="start" x="470.5" y="-89.5" font-family="Helvetica,sans-Serif" font-size="10.00">lemons::dsp::osc::Engine</text>
<text text-anchor="start" x="470.5" y="-78.5" font-family="Helvetica,sans-Serif" font-size="10.00">&lt; SampleType, lemons::dsp</text>
<text text-anchor="middle" x="538.5" y="-67.5" font-family="Helvetica,sans-Serif" font-size="10.00">::osc::Square &gt;</text>
</a>
</g>
</g>
<!-- Node1&#45;&gt;Node9 -->
<g id="edge8" class="edge">
<title>Node1&#45;&gt;Node9</title>
<path fill="none" stroke="orange" stroke-dasharray="5,2" d="M240.46,-207.02C255.97,-182.65 283.31,-145.75 317,-126 361.07,-100.16 417.64,-88.98 462.45,-84.22"/>
<polygon fill="orange" stroke="orange" points="237.39,-205.34 235.11,-215.69 243.35,-209.02 237.39,-205.34"/>
<text text-anchor="start" x="317" y="-140" font-family="Helvetica,sans-Serif" font-size="10.00"> &lt; SampleType, lemons</text>
<text text-anchor="middle" x="375" y="-129" font-family="Helvetica,sans-Serif" font-size="10.00">::dsp::osc::Square &gt;</text>
</g>
<!-- Node10 -->
<g id="node10" class="node">
<title>Node10</title>
<g id="a_node10"><a xlink:href="classlemons_1_1dsp_1_1osc_1_1_engine.html" target="_top" xlink:title=" ">
<polygon fill="none" stroke="black" points="470,-0.5 470,-41.5 607,-41.5 607,-0.5 470,-0.5"/>
<text text-anchor="start" x="478" y="-29.5" font-family="Helvetica,sans-Serif" font-size="10.00">lemons::dsp::osc::Engine</text>
<text text-anchor="start" x="478" y="-18.5" font-family="Helvetica,sans-Serif" font-size="10.00">&lt; float, lemons::dsp::osc</text>
<text text-anchor="middle" x="538.5" y="-7.5" font-family="Helvetica,sans-Serif" font-size="10.00">::Triangle &gt;</text>
</a>
</g>
</g>
<!-- Node1&#45;&gt;Node10 -->
<g id="edge9" class="edge">
<title>Node1&#45;&gt;Node10</title>
<path fill="none" stroke="orange" stroke-dasharray="5,2" d="M232.7,-205.68C243.26,-168.19 268.48,-98.56 317,-63 361,-30.75 422.82,-21.21 469.81,-19.19"/>
<polygon fill="orange" stroke="orange" points="229.2,-205.21 229.99,-215.77 235.96,-207.02 229.2,-205.21"/>
<text text-anchor="start" x="324" y="-77" font-family="Helvetica,sans-Serif" font-size="10.00"> &lt; float, lemons::dsp</text>
<text text-anchor="middle" x="375" y="-66" font-family="Helvetica,sans-Serif" font-size="10.00">::osc::Triangle &gt;</text>
</g>
<!-- Node2 -->
<g id="node2" class="node">
<title>Node2</title>
<g id="a_node2"><a xlink:href="classlemons_1_1dsp_1_1_engine.html" target="_top" xlink:title="Base class for an audio engine.">
<polygon fill="none" stroke="black" points="0,-216 0,-246 115,-246 115,-216 0,-216"/>
<text text-anchor="start" x="8" y="-234" font-family="Helvetica,sans-Serif" font-size="10.00">lemons::dsp::Engine</text>
<text text-anchor="middle" x="57.5" y="-223" font-family="Helvetica,sans-Serif" font-size="10.00">&lt; SampleType &gt;</text>
</a>
</g>
</g>
<!-- Node2&#45;&gt;Node1 -->
<g id="edge1" class="edge">
<title>Node2&#45;&gt;Node1</title>
<path fill="none" stroke="midnightblue" d="M125.31,-231C134.08,-231 143.09,-231 151.95,-231"/>
<polygon fill="midnightblue" stroke="midnightblue" points="125.16,-227.5 115.16,-231 125.16,-234.5 125.16,-227.5"/>
</g>
</g>
</svg>
