<?xml version="1.0" encoding="UTF-8" standalone="no"?>
<!DOCTYPE svg PUBLIC "-//W3C//DTD SVG 1.1//EN"
 "http://www.w3.org/Graphics/SVG/1.1/DTD/svg11.dtd">
<!-- Generated by graphviz version 2.43.0 (0)
 -->
<!-- Title: lemons::dsp::osc::Detunable&lt; SampleType, OscillatorType, &gt; Pages: 1 -->
<svg width="184pt" height="229pt"
 viewBox="0.00 0.00 184.00 229.00" xmlns="http://www.w3.org/2000/svg" xmlns:xlink="http://www.w3.org/1999/xlink">
<g id="graph0" class="graph" transform="scale(1 1) rotate(0) translate(4 225)">
<title>lemons::dsp::osc::Detunable&lt; SampleType, OscillatorType, &gt;</title>
<!-- Node1 -->
<g id="node1" class="node">
<title>Node1</title>
<g id="a_node1"><a xlink:title=" ">
<polygon fill="#bfbfbf" stroke="black" points="0,-0.5 0,-30.5 176,-30.5 176,-0.5 0,-0.5"/>
<text text-anchor="start" x="8" y="-18.5" font-family="Helvetica,sans-Serif" font-size="10.00">lemons::dsp::osc::Detunable</text>
<text text-anchor="middle" x="88" y="-7.5" font-family="Helvetica,sans-Serif" font-size="10.00">&lt; SampleType, OscillatorType, &gt;</text>
</a>
</g>
</g>
<!-- Node2 -->
<g id="node2" class="node">
<title>Node2</title>
<g id="a_node2"><a xlink:href="classlemons_1_1dsp_1_1osc_1_1_detunable_base.html" target="_top" xlink:title=" ">
<polygon fill="none" stroke="black" points="10.5,-67.5 10.5,-97.5 165.5,-97.5 165.5,-67.5 10.5,-67.5"/>
<text text-anchor="start" x="18.5" y="-85.5" font-family="Helvetica,sans-Serif" font-size="10.00">lemons::dsp::osc::Detunable</text>
<text text-anchor="middle" x="88" y="-74.5" font-family="Helvetica,sans-Serif" font-size="10.00">Base&lt; SampleType &gt;</text>
</a>
</g>
</g>
<!-- Node2&#45;&gt;Node1 -->
<g id="edge1" class="edge">
<title>Node2&#45;&gt;Node1</title>
<path fill="none" stroke="midnightblue" d="M88,-57.11C88,-48.15 88,-38.32 88,-30.58"/>
<polygon fill="midnightblue" stroke="midnightblue" points="84.5,-57.4 88,-67.4 91.5,-57.4 84.5,-57.4"/>
</g>
<!-- Node3 -->
<g id="node3" class="node">
<title>Node3</title>
<g id="a_node3"><a xlink:href="structlemons_1_1dsp_1_1_oscillator.html" target="_top" xlink:title="Base class for any kind of oscillator.">
<polygon fill="none" stroke="black" points="15.5,-134.5 15.5,-153.5 160.5,-153.5 160.5,-134.5 15.5,-134.5"/>
<text text-anchor="middle" x="88" y="-141.5" font-family="Helvetica,sans-Serif" font-size="10.00">Oscillator&lt; SampleType &gt;</text>
</a>
</g>
</g>
<!-- Node3&#45;&gt;Node2 -->
<g id="edge2" class="edge">
<title>Node3&#45;&gt;Node2</title>
<path fill="none" stroke="midnightblue" d="M88,-124.23C88,-115.59 88,-105.5 88,-97.52"/>
<polygon fill="midnightblue" stroke="midnightblue" points="84.5,-124.48 88,-134.48 91.5,-124.48 84.5,-124.48"/>
</g>
<!-- Node4 -->
<g id="node4" class="node">
<title>Node4</title>
<g id="a_node4"><a xlink:href="structlemons_1_1dsp_1_1_sample_stream.html" target="_top" xlink:title="Base class for any object that can output a stream of audio samples, with no audio or MIDI input.">
<polygon fill="none" stroke="black" points="11,-190.5 11,-220.5 165,-220.5 165,-190.5 11,-190.5"/>
<text text-anchor="start" x="19" y="-208.5" font-family="Helvetica,sans-Serif" font-size="10.00">lemons::dsp::SampleStream</text>
<text text-anchor="middle" x="88" y="-197.5" font-family="Helvetica,sans-Serif" font-size="10.00">&lt; SampleType &gt;</text>
</a>
</g>
</g>
<!-- Node4&#45;&gt;Node3 -->
<g id="edge3" class="edge">
<title>Node4&#45;&gt;Node3</title>
<path fill="none" stroke="midnightblue" d="M88,-180.29C88,-170.86 88,-160.65 88,-153.66"/>
<polygon fill="midnightblue" stroke="midnightblue" points="84.5,-180.4 88,-190.4 91.5,-180.4 84.5,-180.4"/>
</g>
</g>
</svg>
