<?xml version="1.0" encoding="UTF-8" standalone="no"?>
<!DOCTYPE svg PUBLIC "-//W3C//DTD SVG 1.1//EN"
 "http://www.w3.org/Graphics/SVG/1.1/DTD/svg11.dtd">
<!-- Generated by graphviz version 2.49.3 (20211023.0002)
 -->
<!-- Title: lemons::GuiApp&lt; ContentComponentType, &gt; Pages: 1 -->
<svg width="278pt" height="106pt"
 viewBox="0.00 0.00 277.50 106.00" xmlns="http://www.w3.org/2000/svg" xmlns:xlink="http://www.w3.org/1999/xlink">
<g id="graph0" class="graph" transform="scale(1 1) rotate(0) translate(4 102)">
<title>lemons::GuiApp&lt; ContentComponentType, &gt;</title>
<!-- Node1 -->
<g id="node1" class="node">
<title>Node1</title>
<g id="a_node1"><a xlink:title="Represents the base for a generic GUI app.">
<polygon fill="#bfbfbf" stroke="black" points="39,-0.5 39,-30.5 218,-30.5 218,-0.5 39,-0.5"/>
<text text-anchor="start" x="47" y="-18.5" font-family="Helvetica,sans-Serif" font-size="10.00">lemons::GuiApp&lt; ContentComponent</text>
<text text-anchor="middle" x="128.5" y="-7.5" font-family="Helvetica,sans-Serif" font-size="10.00">Type, &gt;</text>
</a>
</g>
</g>
<!-- Node2 -->
<g id="node2" class="node">
<title>Node2</title>
<g id="a_node2"><a xlink:title=" ">
<polygon fill="none" stroke="black" points="0,-73 0,-92 113,-92 113,-73 0,-73"/>
<text text-anchor="middle" x="56.5" y="-80" font-family="Helvetica,sans-Serif" font-size="10.00">juce::JUCEApplication</text>
</a>
</g>
</g>
<!-- Node2&#45;&gt;Node1 -->
<g id="edge1" class="edge">
<title>Node2&#45;&gt;Node1</title>
<path fill="none" stroke="midnightblue" d="M73.75,-65.93C85.66,-55.18 101.36,-41 112.89,-30.59"/>
<polygon fill="midnightblue" stroke="midnightblue" points="71.29,-63.43 66.21,-72.73 75.98,-68.63 71.29,-63.43"/>
</g>
<!-- Node3 -->
<g id="node3" class="node">
<title>Node3</title>
<g id="a_node3"><a xlink:href="structlemons_1_1locale_1_1_translations_initializer.html" target="_top" xlink:title="A struct whose constructor simply calls initializeDefaultTranslations().">
<polygon fill="none" stroke="black" points="131.5,-67.5 131.5,-97.5 269.5,-97.5 269.5,-67.5 131.5,-67.5"/>
<text text-anchor="start" x="139.5" y="-85.5" font-family="Helvetica,sans-Serif" font-size="10.00">lemons::locale::Translations</text>
<text text-anchor="middle" x="200.5" y="-74.5" font-family="Helvetica,sans-Serif" font-size="10.00">Initializer</text>
</a>
</g>
</g>
<!-- Node3&#45;&gt;Node1 -->
<g id="edge2" class="edge">
<title>Node3&#45;&gt;Node1</title>
<path fill="none" stroke="#8b1a1a" d="M177.35,-60.6C166.48,-50.78 153.8,-39.34 144.09,-30.58"/>
<polygon fill="#8b1a1a" stroke="#8b1a1a" points="175.11,-63.29 184.88,-67.4 179.8,-58.1 175.11,-63.29"/>
</g>
</g>
</svg>
