<?xml version="1.0" encoding="UTF-8" standalone="no"?>
<!DOCTYPE svg PUBLIC "-//W3C//DTD SVG 1.1//EN"
 "http://www.w3.org/Graphics/SVG/1.1/DTD/svg11.dtd">
<!-- Generated by graphviz version 2.43.0 (0)
 -->
<!-- Title: lemons::plugin::TypedParameter&lt; ValueType &gt; Pages: 1 -->
<svg width="937pt" height="235pt"
 viewBox="0.00 0.00 937.00 235.00" xmlns="http://www.w3.org/2000/svg" xmlns:xlink="http://www.w3.org/1999/xlink">
<g id="graph0" class="graph" transform="scale(1 1) rotate(0) translate(4 231)">
<title>lemons::plugin::TypedParameter&lt; ValueType &gt;</title>
<!-- Node1 -->
<g id="node1" class="node">
<title>Node1</title>
<g id="a_node1"><a xlink:title=" ">
<polygon fill="#bfbfbf" stroke="black" points="356,-98.5 356,-128.5 529,-128.5 529,-98.5 356,-98.5"/>
<text text-anchor="start" x="364" y="-116.5" font-family="Helvetica,sans-Serif" font-size="10.00">lemons::plugin::TypedParameter</text>
<text text-anchor="middle" x="442.5" y="-105.5" font-family="Helvetica,sans-Serif" font-size="10.00">&lt; ValueType &gt;</text>
</a>
</g>
</g>
<!-- Node4 -->
<g id="node4" class="node">
<title>Node4</title>
<g id="a_node4"><a xlink:href="structlemons_1_1plugin_1_1FloatAmountParameter.html" target="_top" xlink:title=" ">
<polygon fill="none" stroke="black" points="577,-196.5 577,-226.5 735,-226.5 735,-196.5 577,-196.5"/>
<text text-anchor="start" x="585" y="-214.5" font-family="Helvetica,sans-Serif" font-size="10.00">lemons::plugin::FloatAmount</text>
<text text-anchor="middle" x="656" y="-203.5" font-family="Helvetica,sans-Serif" font-size="10.00">Parameter&lt; float &gt;</text>
</a>
</g>
</g>
<!-- Node1&#45;&gt;Node4 -->
<g id="edge3" class="edge">
<title>Node1&#45;&gt;Node4</title>
<path fill="none" stroke="midnightblue" d="M472.26,-134.28C496.1,-150.7 531.42,-173.15 565,-187.5 572.73,-190.8 581.04,-193.76 589.36,-196.36"/>
<polygon fill="midnightblue" stroke="midnightblue" points="474.22,-131.38 464.01,-128.53 470.21,-137.12 474.22,-131.38"/>
</g>
<!-- Node5 -->
<g id="node5" class="node">
<title>Node5</title>
<g id="a_node5"><a xlink:href="structlemons_1_1plugin_1_1FrequencyParameter.html" target="_top" xlink:title=" ">
<polygon fill="none" stroke="black" points="583.5,-147.5 583.5,-177.5 728.5,-177.5 728.5,-147.5 583.5,-147.5"/>
<text text-anchor="start" x="591.5" y="-165.5" font-family="Helvetica,sans-Serif" font-size="10.00">lemons::plugin::Frequency</text>
<text text-anchor="middle" x="656" y="-154.5" font-family="Helvetica,sans-Serif" font-size="10.00">Parameter&lt; float &gt;</text>
</a>
</g>
</g>
<!-- Node1&#45;&gt;Node5 -->
<g id="edge4" class="edge">
<title>Node1&#45;&gt;Node5</title>
<path fill="none" stroke="midnightblue" d="M518.31,-130.83C541.79,-136.27 567.5,-142.23 590.23,-147.49"/>
<polygon fill="midnightblue" stroke="midnightblue" points="518.93,-127.38 508.39,-128.53 517.35,-134.2 518.93,-127.38"/>
</g>
<!-- Node6 -->
<g id="node6" class="node">
<title>Node6</title>
<g id="a_node6"><a xlink:href="structlemons_1_1plugin_1_1GainParameter.html" target="_top" xlink:title=" ">
<polygon fill="none" stroke="black" points="572.5,-98.5 572.5,-128.5 739.5,-128.5 739.5,-98.5 572.5,-98.5"/>
<text text-anchor="start" x="580.5" y="-116.5" font-family="Helvetica,sans-Serif" font-size="10.00">lemons::plugin::GainParameter</text>
<text text-anchor="middle" x="656" y="-105.5" font-family="Helvetica,sans-Serif" font-size="10.00">&lt; float &gt;</text>
</a>
</g>
</g>
<!-- Node1&#45;&gt;Node6 -->
<g id="edge5" class="edge">
<title>Node1&#45;&gt;Node6</title>
<path fill="none" stroke="midnightblue" d="M539.27,-113.5C550.28,-113.5 561.43,-113.5 572.24,-113.5"/>
<polygon fill="midnightblue" stroke="midnightblue" points="539.22,-110 529.22,-113.5 539.22,-117 539.22,-110"/>
</g>
<!-- Node7 -->
<g id="node7" class="node">
<title>Node7</title>
<g id="a_node7"><a xlink:href="structlemons_1_1plugin_1_1MeterParameter.html" target="_top" xlink:title=" ">
<polygon fill="none" stroke="black" points="569.5,-49.5 569.5,-79.5 742.5,-79.5 742.5,-49.5 569.5,-49.5"/>
<text text-anchor="start" x="577.5" y="-67.5" font-family="Helvetica,sans-Serif" font-size="10.00">lemons::plugin::MeterParameter</text>
<text text-anchor="middle" x="656" y="-56.5" font-family="Helvetica,sans-Serif" font-size="10.00">&lt; float &gt;</text>
</a>
</g>
</g>
<!-- Node1&#45;&gt;Node7 -->
<g id="edge6" class="edge">
<title>Node1&#45;&gt;Node7</title>
<path fill="none" stroke="midnightblue" d="M518.31,-96.17C541.79,-90.73 567.5,-84.77 590.23,-79.51"/>
<polygon fill="midnightblue" stroke="midnightblue" points="517.35,-92.8 508.39,-98.47 518.93,-99.62 517.35,-92.8"/>
</g>
<!-- Node9 -->
<g id="node9" class="node">
<title>Node9</title>
<g id="a_node9"><a xlink:href="structlemons_1_1plugin_1_1PercentParameter.html" target="_top" xlink:title=" ">
<polygon fill="none" stroke="black" points="565,-0.5 565,-30.5 747,-30.5 747,-0.5 565,-0.5"/>
<text text-anchor="start" x="573" y="-18.5" font-family="Helvetica,sans-Serif" font-size="10.00">lemons::plugin::PercentParameter</text>
<text text-anchor="middle" x="656" y="-7.5" font-family="Helvetica,sans-Serif" font-size="10.00">&lt; int &gt;</text>
</a>
</g>
</g>
<!-- Node1&#45;&gt;Node9 -->
<g id="edge8" class="edge">
<title>Node1&#45;&gt;Node9</title>
<path fill="none" stroke="midnightblue" d="M472.26,-92.72C496.1,-76.3 531.42,-53.85 565,-39.5 572.73,-36.2 581.04,-33.24 589.36,-30.64"/>
<polygon fill="midnightblue" stroke="midnightblue" points="470.21,-89.88 464.01,-98.47 474.22,-95.62 470.21,-89.88"/>
</g>
<!-- Node2 -->
<g id="node2" class="node">
<title>Node2</title>
<g id="a_node2"><a xlink:href="classlemons_1_1plugin_1_1Parameter.html" target="_top" xlink:title=" ">
<polygon fill="none" stroke="black" points="175,-104 175,-123 320,-123 320,-104 175,-104"/>
<text text-anchor="middle" x="247.5" y="-111" font-family="Helvetica,sans-Serif" font-size="10.00">lemons::plugin::Parameter</text>
</a>
</g>
</g>
<!-- Node2&#45;&gt;Node1 -->
<g id="edge1" class="edge">
<title>Node2&#45;&gt;Node1</title>
<path fill="none" stroke="midnightblue" d="M330.35,-113.5C338.83,-113.5 347.47,-113.5 355.99,-113.5"/>
<polygon fill="midnightblue" stroke="midnightblue" points="330.09,-110 320.09,-113.5 330.09,-117 330.09,-110"/>
</g>
<!-- Node3 -->
<g id="node3" class="node">
<title>Node3</title>
<g id="a_node3"><a xlink:href="structlemons_1_1SerializableData.html" target="_top" xlink:title=" ">
<polygon fill="none" stroke="black" points="0,-104 0,-123 139,-123 139,-104 0,-104"/>
<text text-anchor="middle" x="69.5" y="-111" font-family="Helvetica,sans-Serif" font-size="10.00">lemons::SerializableData</text>
</a>
</g>
</g>
<!-- Node3&#45;&gt;Node2 -->
<g id="edge2" class="edge">
<title>Node3&#45;&gt;Node2</title>
<path fill="none" stroke="midnightblue" d="M149.08,-113.5C157.69,-113.5 166.42,-113.5 174.94,-113.5"/>
<polygon fill="midnightblue" stroke="midnightblue" points="149.05,-110 139.05,-113.5 149.05,-117 149.05,-110"/>
</g>
<!-- Node8 -->
<g id="node8" class="node">
<title>Node8</title>
<g id="a_node8"><a xlink:href="structlemons_1_1plugin_1_1GainMeterParameter.html" target="_top" xlink:title=" ">
<polygon fill="none" stroke="black" points="783,-49.5 783,-79.5 929,-79.5 929,-49.5 783,-49.5"/>
<text text-anchor="start" x="791" y="-67.5" font-family="Helvetica,sans-Serif" font-size="10.00">lemons::plugin::GainMeter</text>
<text text-anchor="middle" x="856" y="-56.5" font-family="Helvetica,sans-Serif" font-size="10.00">Parameter</text>
</a>
</g>
</g>
<!-- Node7&#45;&gt;Node8 -->
<g id="edge7" class="edge">
<title>Node7&#45;&gt;Node8</title>
<path fill="none" stroke="midnightblue" d="M752.77,-64.5C762.88,-64.5 773.04,-64.5 782.82,-64.5"/>
<polygon fill="midnightblue" stroke="midnightblue" points="752.69,-61 742.69,-64.5 752.69,-68 752.69,-61"/>
</g>
</g>
</svg>
