<?xml version="1.0" encoding="UTF-8" standalone="no"?>
<!DOCTYPE svg PUBLIC "-//W3C//DTD SVG 1.1//EN"
 "http://www.w3.org/Graphics/SVG/1.1/DTD/svg11.dtd">
<!-- Generated by graphviz version 2.43.0 (0)
 -->
<!-- Title: lemons::dsp::StreamEngine&lt; SampleType, StreamType, &gt; Pages: 1 -->
<svg width="1335pt" height="770pt"
 viewBox="0.00 0.00 1335.00 770.46" xmlns="http://www.w3.org/2000/svg" xmlns:xlink="http://www.w3.org/1999/xlink">
<g id="graph0" class="graph" transform="scale(1 1) rotate(0) translate(4 766.46)">
<title>lemons::dsp::StreamEngine&lt; SampleType, StreamType, &gt;</title>
<!-- Node1 -->
<g id="node1" class="node">
<title>Node1</title>
<g id="a_node1"><a xlink:title=" ">
<polygon fill="#bfbfbf" stroke="black" points="152,-375.46 152,-405.46 317,-405.46 317,-375.46 152,-375.46"/>
<text text-anchor="start" x="160" y="-393.46" font-family="Helvetica,sans-Serif" font-size="10.00">lemons::dsp::StreamEngine</text>
<text text-anchor="middle" x="234.5" y="-382.46" font-family="Helvetica,sans-Serif" font-size="10.00">&lt; SampleType, StreamType, &gt;</text>
</a>
</g>
</g>
<!-- Node3 -->
<g id="node3" class="node">
<title>Node3</title>
<g id="a_node3"><a xlink:href="classlemons_1_1dsp_1_1_stream_engine.html" target="_top" xlink:title=" ">
<polygon fill="none" stroke="black" points="666.5,-619.96 666.5,-660.96 818.5,-660.96 818.5,-619.96 666.5,-619.96"/>
<text text-anchor="start" x="674.5" y="-648.96" font-family="Helvetica,sans-Serif" font-size="10.00">lemons::dsp::StreamEngine</text>
<text text-anchor="start" x="674.5" y="-637.96" font-family="Helvetica,sans-Serif" font-size="10.00">&lt; SampleType, lemons::dsp</text>
<text text-anchor="middle" x="742.5" y="-626.96" font-family="Helvetica,sans-Serif" font-size="10.00">::osc::Sine &gt;</text>
</a>
</g>
</g>
<!-- Node1&#45;&gt;Node3 -->
<g id="edge2" class="edge">
<title>Node1&#45;&gt;Node3</title>
<path fill="none" stroke="orange" stroke-dasharray="5,2" d="M239.49,-415.85C248.05,-461 272.72,-554.58 335,-598.46 432.87,-667.42 578.35,-663.72 666.14,-653.18"/>
<polygon fill="orange" stroke="orange" points="242.89,-414.96 237.69,-405.73 236,-416.19 242.89,-414.96"/>
<text text-anchor="start" x="343" y="-663.46" font-family="Helvetica,sans-Serif" font-size="10.00"> &lt; SampleType, lemons</text>
<text text-anchor="middle" x="401" y="-652.46" font-family="Helvetica,sans-Serif" font-size="10.00">::dsp::osc::Sine &gt;</text>
</g>
<!-- Node5 -->
<g id="node5" class="node">
<title>Node5</title>
<g id="a_node5"><a xlink:href="classlemons_1_1dsp_1_1_stream_engine.html" target="_top" xlink:title=" ">
<polygon fill="none" stroke="black" points="655,-466.46 655,-496.46 830,-496.46 830,-466.46 655,-466.46"/>
<text text-anchor="start" x="663" y="-484.46" font-family="Helvetica,sans-Serif" font-size="10.00">lemons::dsp::StreamEngine</text>
<text text-anchor="middle" x="742.5" y="-473.46" font-family="Helvetica,sans-Serif" font-size="10.00">&lt; float, lemons::dsp::osc::Saw &gt;</text>
</a>
</g>
</g>
<!-- Node1&#45;&gt;Node5 -->
<g id="edge4" class="edge">
<title>Node1&#45;&gt;Node5</title>
<path fill="none" stroke="orange" stroke-dasharray="5,2" d="M327.17,-406.95C421.39,-423.89 566.84,-450.05 657.98,-466.44"/>
<polygon fill="orange" stroke="orange" points="327.54,-403.46 317.08,-405.13 326.3,-410.35 327.54,-403.46"/>
<text text-anchor="start" x="350" y="-446.46" font-family="Helvetica,sans-Serif" font-size="10.00"> &lt; float, lemons::dsp</text>
<text text-anchor="middle" x="401" y="-435.46" font-family="Helvetica,sans-Serif" font-size="10.00">::osc::Saw &gt;</text>
</g>
<!-- Node7 -->
<g id="node7" class="node">
<title>Node7</title>
<g id="a_node7"><a xlink:href="classlemons_1_1dsp_1_1_stream_engine.html" target="_top" xlink:title=" ">
<polygon fill="none" stroke="black" points="486,-375.46 486,-405.46 636,-405.46 636,-375.46 486,-375.46"/>
<text text-anchor="start" x="494" y="-393.46" font-family="Helvetica,sans-Serif" font-size="10.00">lemons::dsp::StreamEngine</text>
<text text-anchor="middle" x="561" y="-382.46" font-family="Helvetica,sans-Serif" font-size="10.00">&lt; SampleType, OscType &gt;</text>
</a>
</g>
</g>
<!-- Node1&#45;&gt;Node7 -->
<g id="edge6" class="edge">
<title>Node1&#45;&gt;Node7</title>
<path fill="none" stroke="orange" stroke-dasharray="5,2" d="M327.58,-390.46C377.7,-390.46 438.9,-390.46 485.91,-390.46"/>
<polygon fill="orange" stroke="orange" points="327.39,-386.96 317.39,-390.46 327.39,-393.96 327.39,-386.96"/>
<text text-anchor="middle" x="401" y="-393.46" font-family="Helvetica,sans-Serif" font-size="10.00"> &lt; SampleType, OscType &gt;</text>
</g>
<!-- Node17 -->
<g id="node17" class="node">
<title>Node17</title>
<g id="a_node17"><a xlink:href="classlemons_1_1dsp_1_1_stream_engine.html" target="_top" xlink:title=" ">
<polygon fill="none" stroke="black" points="848,-534.96 848,-575.96 1000,-575.96 1000,-534.96 848,-534.96"/>
<text text-anchor="start" x="856" y="-563.96" font-family="Helvetica,sans-Serif" font-size="10.00">lemons::dsp::StreamEngine</text>
<text text-anchor="start" x="856" y="-552.96" font-family="Helvetica,sans-Serif" font-size="10.00">&lt; SampleType, lemons::dsp</text>
<text text-anchor="middle" x="924" y="-541.96" font-family="Helvetica,sans-Serif" font-size="10.00">::osc::Saw &gt;</text>
</a>
</g>
</g>
<!-- Node1&#45;&gt;Node17 -->
<g id="edge18" class="edge">
<title>Node1&#45;&gt;Node17</title>
<path fill="none" stroke="orange" stroke-dasharray="5,2" d="M260.37,-412.05C279.49,-427.45 307.26,-447.33 335,-458.46 509.77,-528.57 733.23,-548.02 847.82,-553.41"/>
<polygon fill="orange" stroke="orange" points="262.42,-409.2 252.48,-405.55 257.97,-414.6 262.42,-409.2"/>
<text text-anchor="start" x="503" y="-547.46" font-family="Helvetica,sans-Serif" font-size="10.00"> &lt; SampleType, lemons</text>
<text text-anchor="middle" x="561" y="-536.46" font-family="Helvetica,sans-Serif" font-size="10.00">::dsp::osc::Saw &gt;</text>
</g>
<!-- Node18 -->
<g id="node18" class="node">
<title>Node18</title>
<g id="a_node18"><a xlink:href="classlemons_1_1dsp_1_1_stream_engine.html" target="_top" xlink:title=" ">
<polygon fill="none" stroke="black" points="667.5,-720.96 667.5,-761.96 817.5,-761.96 817.5,-720.96 667.5,-720.96"/>
<text text-anchor="start" x="675.5" y="-749.96" font-family="Helvetica,sans-Serif" font-size="10.00">lemons::dsp::StreamEngine</text>
<text text-anchor="start" x="675.5" y="-738.96" font-family="Helvetica,sans-Serif" font-size="10.00">&lt; float, lemons::dsp::osc</text>
<text text-anchor="middle" x="742.5" y="-727.96" font-family="Helvetica,sans-Serif" font-size="10.00">::Detunable &gt;</text>
</a>
</g>
</g>
<!-- Node1&#45;&gt;Node18 -->
<g id="edge20" class="edge">
<title>Node1&#45;&gt;Node18</title>
<path fill="none" stroke="orange" stroke-dasharray="5,2" d="M236.17,-415.61C239.11,-471.83 254.63,-608.05 335,-675.46 428.54,-753.91 578.14,-757.07 667.41,-750.48"/>
<polygon fill="orange" stroke="orange" points="239.66,-415.31 235.73,-405.47 232.66,-415.61 239.66,-415.31"/>
<text text-anchor="start" x="350" y="-749.46" font-family="Helvetica,sans-Serif" font-size="10.00"> &lt; float, lemons::dsp</text>
<text text-anchor="middle" x="401" y="-738.46" font-family="Helvetica,sans-Serif" font-size="10.00">::osc::Detunable &gt;</text>
</g>
<!-- Node19 -->
<g id="node19" class="node">
<title>Node19</title>
<g id="a_node19"><a xlink:href="classlemons_1_1dsp_1_1_stream_engine.html" target="_top" xlink:title=" ">
<polygon fill="none" stroke="black" points="849,-604.96 849,-645.96 999,-645.96 999,-604.96 849,-604.96"/>
<text text-anchor="start" x="857" y="-633.96" font-family="Helvetica,sans-Serif" font-size="10.00">lemons::dsp::StreamEngine</text>
<text text-anchor="start" x="857" y="-622.96" font-family="Helvetica,sans-Serif" font-size="10.00">&lt; float, lemons::dsp::osc</text>
<text text-anchor="middle" x="924" y="-611.96" font-family="Helvetica,sans-Serif" font-size="10.00">::Square &gt;</text>
</a>
</g>
</g>
<!-- Node1&#45;&gt;Node19 -->
<g id="edge22" class="edge">
<title>Node1&#45;&gt;Node19</title>
<path fill="none" stroke="orange" stroke-dasharray="5,2" d="M253.35,-413.62C271.8,-436.34 302.44,-470.77 335,-493.46 520.47,-622.7 606.59,-575.93 830,-610.46 836.14,-611.41 842.51,-612.41 848.9,-613.42"/>
<polygon fill="orange" stroke="orange" points="255.87,-411.17 246.89,-405.54 250.4,-415.54 255.87,-411.17"/>
<text text-anchor="start" x="510" y="-607.46" font-family="Helvetica,sans-Serif" font-size="10.00"> &lt; float, lemons::dsp</text>
<text text-anchor="middle" x="561" y="-596.46" font-family="Helvetica,sans-Serif" font-size="10.00">::osc::Square &gt;</text>
</g>
<!-- Node20 -->
<g id="node20" class="node">
<title>Node20</title>
<g id="a_node20"><a xlink:href="classlemons_1_1dsp_1_1_stream_engine.html" target="_top" xlink:title=" ">
<polygon fill="none" stroke="black" points="666.5,-135.96 666.5,-176.96 818.5,-176.96 818.5,-135.96 666.5,-135.96"/>
<text text-anchor="start" x="674.5" y="-164.96" font-family="Helvetica,sans-Serif" font-size="10.00">lemons::dsp::StreamEngine</text>
<text text-anchor="start" x="674.5" y="-153.96" font-family="Helvetica,sans-Serif" font-size="10.00">&lt; SampleType, lemons::dsp</text>
<text text-anchor="middle" x="742.5" y="-142.96" font-family="Helvetica,sans-Serif" font-size="10.00">::osc::Triangle &gt;</text>
</a>
</g>
</g>
<!-- Node1&#45;&gt;Node20 -->
<g id="edge24" class="edge">
<title>Node1&#45;&gt;Node20</title>
<path fill="none" stroke="orange" stroke-dasharray="5,2" d="M244.28,-366.07C258.01,-331.61 287.96,-269.33 335,-237.46 435.24,-169.55 579.3,-155.92 666.29,-154.55"/>
<polygon fill="orange" stroke="orange" points="241.01,-364.82 240.68,-375.41 247.54,-367.33 241.01,-364.82"/>
<text text-anchor="start" x="343" y="-251.46" font-family="Helvetica,sans-Serif" font-size="10.00"> &lt; SampleType, lemons</text>
<text text-anchor="middle" x="401" y="-240.46" font-family="Helvetica,sans-Serif" font-size="10.00">::dsp::osc::Triangle &gt;</text>
</g>
<!-- Node21 -->
<g id="node21" class="node">
<title>Node21</title>
<g id="a_node21"><a xlink:href="classlemons_1_1dsp_1_1_stream_engine.html" target="_top" xlink:title=" ">
<polygon fill="none" stroke="black" points="849,-10.96 849,-51.96 999,-51.96 999,-10.96 849,-10.96"/>
<text text-anchor="start" x="857" y="-39.96" font-family="Helvetica,sans-Serif" font-size="10.00">lemons::dsp::StreamEngine</text>
<text text-anchor="start" x="857" y="-28.96" font-family="Helvetica,sans-Serif" font-size="10.00">&lt; float, lemons::dsp::osc</text>
<text text-anchor="middle" x="924" y="-17.96" font-family="Helvetica,sans-Serif" font-size="10.00">::Sine &gt;</text>
</a>
</g>
</g>
<!-- Node1&#45;&gt;Node21 -->
<g id="edge26" class="edge">
<title>Node1&#45;&gt;Node21</title>
<path fill="none" stroke="orange" stroke-dasharray="5,2" d="M236.47,-365.09C240.04,-308.92 256.77,-173.44 335,-102.46 477.4,26.74 725.51,5.07 848.91,-16"/>
<polygon fill="orange" stroke="orange" points="232.97,-365.05 235.92,-375.22 239.96,-365.43 232.97,-365.05"/>
<text text-anchor="start" x="510" y="-36.46" font-family="Helvetica,sans-Serif" font-size="10.00"> &lt; float, lemons::dsp</text>
<text text-anchor="middle" x="561" y="-25.46" font-family="Helvetica,sans-Serif" font-size="10.00">::osc::Sine &gt;</text>
</g>
<!-- Node22 -->
<g id="node22" class="node">
<title>Node22</title>
<g id="a_node22"><a xlink:href="classlemons_1_1dsp_1_1_stream_engine.html" target="_top" xlink:title=" ">
<polygon fill="none" stroke="black" points="485,-218.96 485,-259.96 637,-259.96 637,-218.96 485,-218.96"/>
<text text-anchor="start" x="493" y="-247.96" font-family="Helvetica,sans-Serif" font-size="10.00">lemons::dsp::StreamEngine</text>
<text text-anchor="start" x="493" y="-236.96" font-family="Helvetica,sans-Serif" font-size="10.00">&lt; SampleType, lemons::dsp</text>
<text text-anchor="middle" x="561" y="-225.96" font-family="Helvetica,sans-Serif" font-size="10.00">::osc::Detunable &gt;</text>
</a>
</g>
</g>
<!-- Node1&#45;&gt;Node22 -->
<g id="edge28" class="edge">
<title>Node1&#45;&gt;Node22</title>
<path fill="none" stroke="orange" stroke-dasharray="5,2" d="M259.24,-368.69C278.49,-351.98 306.93,-329.33 335,-314.46 382.4,-289.36 439.81,-270.39 484.77,-257.8"/>
<polygon fill="orange" stroke="orange" points="256.77,-366.21 251.58,-375.45 261.4,-371.46 256.77,-366.21"/>
<text text-anchor="start" x="343" y="-328.46" font-family="Helvetica,sans-Serif" font-size="10.00"> &lt; SampleType, lemons</text>
<text text-anchor="middle" x="401" y="-317.46" font-family="Helvetica,sans-Serif" font-size="10.00">::dsp::osc::Detunable &gt;</text>
</g>
<!-- Node23 -->
<g id="node23" class="node">
<title>Node23</title>
<g id="a_node23"><a xlink:href="classlemons_1_1dsp_1_1_stream_engine.html" target="_top" xlink:title=" ">
<polygon fill="none" stroke="black" points="485,-302.96 485,-343.96 637,-343.96 637,-302.96 485,-302.96"/>
<text text-anchor="start" x="493" y="-331.96" font-family="Helvetica,sans-Serif" font-size="10.00">lemons::dsp::StreamEngine</text>
<text text-anchor="start" x="493" y="-320.96" font-family="Helvetica,sans-Serif" font-size="10.00">&lt; SampleType, lemons::dsp</text>
<text text-anchor="middle" x="561" y="-309.96" font-family="Helvetica,sans-Serif" font-size="10.00">::osc::Square &gt;</text>
</a>
</g>
</g>
<!-- Node1&#45;&gt;Node23 -->
<g id="edge30" class="edge">
<title>Node1&#45;&gt;Node23</title>
<path fill="none" stroke="orange" stroke-dasharray="5,2" d="M299.76,-372.91C311.45,-369.94 323.56,-366.99 335,-364.46 384.72,-353.45 441.09,-343.18 484.97,-335.68"/>
<polygon fill="orange" stroke="orange" points="298.87,-369.53 290.06,-375.41 300.62,-376.31 298.87,-369.53"/>
<text text-anchor="start" x="343" y="-378.46" font-family="Helvetica,sans-Serif" font-size="10.00"> &lt; SampleType, lemons</text>
<text text-anchor="middle" x="401" y="-367.46" font-family="Helvetica,sans-Serif" font-size="10.00">::dsp::osc::Square &gt;</text>
</g>
<!-- Node24 -->
<g id="node24" class="node">
<title>Node24</title>
<g id="a_node24"><a xlink:href="classlemons_1_1dsp_1_1_stream_engine.html" target="_top" xlink:title=" ">
<polygon fill="none" stroke="black" points="486,-97.96 486,-138.96 636,-138.96 636,-97.96 486,-97.96"/>
<text text-anchor="start" x="494" y="-126.96" font-family="Helvetica,sans-Serif" font-size="10.00">lemons::dsp::StreamEngine</text>
<text text-anchor="start" x="494" y="-115.96" font-family="Helvetica,sans-Serif" font-size="10.00">&lt; float, lemons::dsp::osc</text>
<text text-anchor="middle" x="561" y="-104.96" font-family="Helvetica,sans-Serif" font-size="10.00">::Triangle &gt;</text>
</a>
</g>
</g>
<!-- Node1&#45;&gt;Node24 -->
<g id="edge32" class="edge">
<title>Node1&#45;&gt;Node24</title>
<path fill="none" stroke="orange" stroke-dasharray="5,2" d="M237.15,-365.43C242.02,-313.61 261.11,-194.84 335,-139.46 377.62,-107.52 438.3,-103.55 485.91,-106.86"/>
<polygon fill="orange" stroke="orange" points="233.66,-365.16 236.31,-375.42 240.63,-365.75 233.66,-365.16"/>
<text text-anchor="start" x="350" y="-153.46" font-family="Helvetica,sans-Serif" font-size="10.00"> &lt; float, lemons::dsp</text>
<text text-anchor="middle" x="401" y="-142.46" font-family="Helvetica,sans-Serif" font-size="10.00">::osc::Triangle &gt;</text>
</g>
<!-- Node2 -->
<g id="node2" class="node">
<title>Node2</title>
<g id="a_node2"><a xlink:href="classlemons_1_1dsp_1_1_engine.html" target="_top" xlink:title=" ">
<polygon fill="none" stroke="black" points="0,-375.46 0,-405.46 115,-405.46 115,-375.46 0,-375.46"/>
<text text-anchor="start" x="8" y="-393.46" font-family="Helvetica,sans-Serif" font-size="10.00">lemons::dsp::Engine</text>
<text text-anchor="middle" x="57.5" y="-382.46" font-family="Helvetica,sans-Serif" font-size="10.00">&lt; SampleType &gt;</text>
</a>
</g>
</g>
<!-- Node2&#45;&gt;Node1 -->
<g id="edge1" class="edge">
<title>Node2&#45;&gt;Node1</title>
<path fill="none" stroke="midnightblue" d="M125.35,-390.46C134.02,-390.46 142.98,-390.46 151.86,-390.46"/>
<polygon fill="midnightblue" stroke="midnightblue" points="125.32,-386.96 115.32,-390.46 125.32,-393.96 125.32,-386.96"/>
</g>
<!-- Node4 -->
<g id="node4" class="node">
<title>Node4</title>
<g id="a_node4"><a xlink:href="classlemons_1_1dsp_1_1osc_1_1_engine.html" target="_top" xlink:title=" ">
<polygon fill="none" stroke="black" points="1163.5,-582.96 1163.5,-623.96 1315.5,-623.96 1315.5,-582.96 1163.5,-582.96"/>
<text text-anchor="start" x="1171.5" y="-611.96" font-family="Helvetica,sans-Serif" font-size="10.00">lemons::dsp::osc::Engine</text>
<text text-anchor="start" x="1171.5" y="-600.96" font-family="Helvetica,sans-Serif" font-size="10.00">&lt; SampleType, lemons::dsp</text>
<text text-anchor="middle" x="1239.5" y="-589.96" font-family="Helvetica,sans-Serif" font-size="10.00">::osc::Sine &gt;</text>
</a>
</g>
</g>
<!-- Node3&#45;&gt;Node4 -->
<g id="edge3" class="edge">
<title>Node3&#45;&gt;Node4</title>
<path fill="none" stroke="midnightblue" d="M800.83,-664.71C878.78,-693.99 1021.39,-734.28 1134,-691.46 1144,-687.66 1143.89,-682.44 1152,-675.46 1172.44,-657.88 1195.98,-638.33 1213.34,-624.04"/>
<polygon fill="midnightblue" stroke="midnightblue" points="801.79,-661.33 791.19,-661.02 799.28,-667.87 801.79,-661.33"/>
</g>
<!-- Node6 -->
<g id="node6" class="node">
<title>Node6</title>
<g id="a_node6"><a xlink:href="classlemons_1_1dsp_1_1osc_1_1_engine.html" target="_top" xlink:title=" ">
<polygon fill="none" stroke="black" points="1152,-402.46 1152,-432.46 1327,-432.46 1327,-402.46 1152,-402.46"/>
<text text-anchor="start" x="1160" y="-420.46" font-family="Helvetica,sans-Serif" font-size="10.00">lemons::dsp::osc::Engine</text>
<text text-anchor="middle" x="1239.5" y="-409.46" font-family="Helvetica,sans-Serif" font-size="10.00">&lt; float, lemons::dsp::osc::Saw &gt;</text>
</a>
</g>
</g>
<!-- Node5&#45;&gt;Node6 -->
<g id="edge5" class="edge">
<title>Node5&#45;&gt;Node6</title>
<path fill="none" stroke="midnightblue" d="M840.4,-492.7C939.86,-502.29 1086.58,-510.4 1134,-481.46 1148.93,-472.35 1138.73,-457.86 1152,-446.46 1158.61,-440.79 1166.37,-436.21 1174.48,-432.52"/>
<polygon fill="midnightblue" stroke="midnightblue" points="840.62,-489.21 830.32,-491.71 839.93,-496.17 840.62,-489.21"/>
</g>
<!-- Node8 -->
<g id="node8" class="node">
<title>Node8</title>
<g id="a_node8"><a xlink:href="classlemons_1_1dsp_1_1osc_1_1_engine.html" target="_top" xlink:title=" ">
<polygon fill="none" stroke="black" points="850,-375.46 850,-405.46 998,-405.46 998,-375.46 850,-375.46"/>
<text text-anchor="start" x="858" y="-393.46" font-family="Helvetica,sans-Serif" font-size="10.00">lemons::dsp::osc::Engine</text>
<text text-anchor="middle" x="924" y="-382.46" font-family="Helvetica,sans-Serif" font-size="10.00">&lt; SampleType, OscType, &gt;</text>
</a>
</g>
</g>
<!-- Node7&#45;&gt;Node8 -->
<g id="edge7" class="edge">
<title>Node7&#45;&gt;Node8</title>
<path fill="none" stroke="midnightblue" d="M646.47,-390.46C708.2,-390.46 791.09,-390.46 849.97,-390.46"/>
<polygon fill="midnightblue" stroke="midnightblue" points="646.36,-386.96 636.36,-390.46 646.36,-393.96 646.36,-386.96"/>
</g>
<!-- Node8&#45;&gt;Node4 -->
<g id="edge8" class="edge">
<title>Node8&#45;&gt;Node4</title>
<path fill="none" stroke="orange" stroke-dasharray="5,2" d="M938.27,-414.59C963.19,-459.83 1014.8,-553.1 1018,-555.46 1059.84,-586.35 1117.58,-598.11 1163.48,-602.28"/>
<polygon fill="orange" stroke="orange" points="941.27,-412.78 933.38,-405.71 935.14,-416.16 941.27,-412.78"/>
<text text-anchor="start" x="1018" y="-612.46" font-family="Helvetica,sans-Serif" font-size="10.00"> &lt; SampleType, lemons</text>
<text text-anchor="middle" x="1076" y="-601.46" font-family="Helvetica,sans-Serif" font-size="10.00">::dsp::osc::Sine &gt;</text>
</g>
<!-- Node8&#45;&gt;Node6 -->
<g id="edge9" class="edge">
<title>Node8&#45;&gt;Node6</title>
<path fill="none" stroke="orange" stroke-dasharray="5,2" d="M1008.27,-397.63C1052.61,-401.45 1107.08,-406.14 1151.9,-410"/>
<polygon fill="orange" stroke="orange" points="1008.37,-394.13 998.11,-396.76 1007.77,-401.1 1008.37,-394.13"/>
<text text-anchor="start" x="1025" y="-422.46" font-family="Helvetica,sans-Serif" font-size="10.00"> &lt; float, lemons::dsp</text>
<text text-anchor="middle" x="1076" y="-411.46" font-family="Helvetica,sans-Serif" font-size="10.00">::osc::Saw &gt;</text>
</g>
<!-- Node9 -->
<g id="node9" class="node">
<title>Node9</title>
<g id="a_node9"><a xlink:href="classlemons_1_1dsp_1_1osc_1_1_engine.html" target="_top" xlink:title=" ">
<polygon fill="none" stroke="black" points="1163.5,-455.96 1163.5,-496.96 1315.5,-496.96 1315.5,-455.96 1163.5,-455.96"/>
<text text-anchor="start" x="1171.5" y="-484.96" font-family="Helvetica,sans-Serif" font-size="10.00">lemons::dsp::osc::Engine</text>
<text text-anchor="start" x="1171.5" y="-473.96" font-family="Helvetica,sans-Serif" font-size="10.00">&lt; SampleType, lemons::dsp</text>
<text text-anchor="middle" x="1239.5" y="-462.96" font-family="Helvetica,sans-Serif" font-size="10.00">::osc::Saw &gt;</text>
</a>
</g>
</g>
<!-- Node8&#45;&gt;Node9 -->
<g id="edge10" class="edge">
<title>Node8&#45;&gt;Node9</title>
<path fill="none" stroke="orange" stroke-dasharray="5,2" d="M961.27,-410.25C978.11,-418.75 998.66,-428.16 1018,-434.46 1065.24,-449.86 1120.12,-460.34 1163.31,-466.98"/>
<polygon fill="orange" stroke="orange" points="962.82,-407.11 952.32,-405.65 959.61,-413.34 962.82,-407.11"/>
<text text-anchor="start" x="1018" y="-476.46" font-family="Helvetica,sans-Serif" font-size="10.00"> &lt; SampleType, lemons</text>
<text text-anchor="middle" x="1076" y="-465.46" font-family="Helvetica,sans-Serif" font-size="10.00">::dsp::osc::Saw &gt;</text>
</g>
<!-- Node10 -->
<g id="node10" class="node">
<title>Node10</title>
<g id="a_node10"><a xlink:href="classlemons_1_1dsp_1_1osc_1_1_engine.html" target="_top" xlink:title=" ">
<polygon fill="none" stroke="black" points="1171,-684.96 1171,-725.96 1308,-725.96 1308,-684.96 1171,-684.96"/>
<text text-anchor="start" x="1179" y="-713.96" font-family="Helvetica,sans-Serif" font-size="10.00">lemons::dsp::osc::Engine</text>
<text text-anchor="start" x="1179" y="-702.96" font-family="Helvetica,sans-Serif" font-size="10.00">&lt; float, lemons::dsp::osc</text>
<text text-anchor="middle" x="1239.5" y="-691.96" font-family="Helvetica,sans-Serif" font-size="10.00">::Detunable &gt;</text>
</a>
</g>
</g>
<!-- Node8&#45;&gt;Node10 -->
<g id="edge11" class="edge">
<title>Node8&#45;&gt;Node10</title>
<path fill="none" stroke="orange" stroke-dasharray="5,2" d="M941.17,-413.91C958.38,-439.98 985.14,-483.91 1000,-525.46 1015.06,-567.57 989.21,-590.24 1018,-624.46 1055.87,-669.48 1121.07,-689.48 1170.78,-698.37"/>
<polygon fill="orange" stroke="orange" points="943.99,-411.83 935.52,-405.47 938.17,-415.72 943.99,-411.83"/>
<text text-anchor="start" x="1025" y="-702.46" font-family="Helvetica,sans-Serif" font-size="10.00"> &lt; float, lemons::dsp</text>
<text text-anchor="middle" x="1076" y="-691.46" font-family="Helvetica,sans-Serif" font-size="10.00">::osc::Detunable &gt;</text>
</g>
<!-- Node11 -->
<g id="node11" class="node">
<title>Node11</title>
<g id="a_node11"><a xlink:href="classlemons_1_1dsp_1_1osc_1_1_engine.html" target="_top" xlink:title=" ">
<polygon fill="none" stroke="black" points="1171,-520.96 1171,-561.96 1308,-561.96 1308,-520.96 1171,-520.96"/>
<text text-anchor="start" x="1179" y="-549.96" font-family="Helvetica,sans-Serif" font-size="10.00">lemons::dsp::osc::Engine</text>
<text text-anchor="start" x="1179" y="-538.96" font-family="Helvetica,sans-Serif" font-size="10.00">&lt; float, lemons::dsp::osc</text>
<text text-anchor="middle" x="1239.5" y="-527.96" font-family="Helvetica,sans-Serif" font-size="10.00">::Square &gt;</text>
</a>
</g>
</g>
<!-- Node8&#45;&gt;Node11 -->
<g id="edge12" class="edge">
<title>Node8&#45;&gt;Node11</title>
<path fill="none" stroke="orange" stroke-dasharray="5,2" d="M941.06,-414.02C957.68,-436.56 985.72,-469.82 1018,-488.46 1064.88,-515.54 1125.01,-528.82 1170.64,-535.31"/>
<polygon fill="orange" stroke="orange" points="943.73,-411.74 935.06,-405.66 938.05,-415.83 943.73,-411.74"/>
<text text-anchor="start" x="1025" y="-543.46" font-family="Helvetica,sans-Serif" font-size="10.00"> &lt; float, lemons::dsp</text>
<text text-anchor="middle" x="1076" y="-532.46" font-family="Helvetica,sans-Serif" font-size="10.00">::osc::Square &gt;</text>
</g>
<!-- Node12 -->
<g id="node12" class="node">
<title>Node12</title>
<g id="a_node12"><a xlink:href="classlemons_1_1dsp_1_1osc_1_1_engine.html" target="_top" xlink:title=" ">
<polygon fill="none" stroke="black" points="1163.5,-160.96 1163.5,-201.96 1315.5,-201.96 1315.5,-160.96 1163.5,-160.96"/>
<text text-anchor="start" x="1171.5" y="-189.96" font-family="Helvetica,sans-Serif" font-size="10.00">lemons::dsp::osc::Engine</text>
<text text-anchor="start" x="1171.5" y="-178.96" font-family="Helvetica,sans-Serif" font-size="10.00">&lt; SampleType, lemons::dsp</text>
<text text-anchor="middle" x="1239.5" y="-167.96" font-family="Helvetica,sans-Serif" font-size="10.00">::osc::Triangle &gt;</text>
</a>
</g>
</g>
<!-- Node8&#45;&gt;Node12 -->
<g id="edge13" class="edge">
<title>Node8&#45;&gt;Node12</title>
<path fill="none" stroke="orange" stroke-dasharray="5,2" d="M935.94,-365.7C950.49,-335.5 978.99,-284.85 1018,-255.46 1041.38,-237.85 1109.02,-216.44 1163.27,-201.2"/>
<polygon fill="orange" stroke="orange" points="932.61,-364.56 931.55,-375.1 938.95,-367.52 932.61,-364.56"/>
<text text-anchor="start" x="1018" y="-269.46" font-family="Helvetica,sans-Serif" font-size="10.00"> &lt; SampleType, lemons</text>
<text text-anchor="middle" x="1076" y="-258.46" font-family="Helvetica,sans-Serif" font-size="10.00">::dsp::osc::Triangle &gt;</text>
</g>
<!-- Node13 -->
<g id="node13" class="node">
<title>Node13</title>
<g id="a_node13"><a xlink:href="classlemons_1_1dsp_1_1osc_1_1_engine.html" target="_top" xlink:title=" ">
<polygon fill="none" stroke="black" points="1171,-16.96 1171,-57.96 1308,-57.96 1308,-16.96 1171,-16.96"/>
<text text-anchor="start" x="1179" y="-45.96" font-family="Helvetica,sans-Serif" font-size="10.00">lemons::dsp::osc::Engine</text>
<text text-anchor="start" x="1179" y="-34.96" font-family="Helvetica,sans-Serif" font-size="10.00">&lt; float, lemons::dsp::osc</text>
<text text-anchor="middle" x="1239.5" y="-23.96" font-family="Helvetica,sans-Serif" font-size="10.00">::Sine &gt;</text>
</a>
</g>
</g>
<!-- Node8&#45;&gt;Node13 -->
<g id="edge14" class="edge">
<title>Node8&#45;&gt;Node13</title>
<path fill="none" stroke="orange" stroke-dasharray="5,2" d="M926.51,-365.23C931.01,-312.16 948.78,-188.06 1018,-117.46 1058.63,-76.03 1122.35,-55.93 1170.86,-46.26"/>
<polygon fill="orange" stroke="orange" points="923,-365.2 925.73,-375.44 929.98,-365.73 923,-365.2"/>
<text text-anchor="start" x="1025" y="-131.46" font-family="Helvetica,sans-Serif" font-size="10.00"> &lt; float, lemons::dsp</text>
<text text-anchor="middle" x="1076" y="-120.46" font-family="Helvetica,sans-Serif" font-size="10.00">::osc::Sine &gt;</text>
</g>
<!-- Node14 -->
<g id="node14" class="node">
<title>Node14</title>
<g id="a_node14"><a xlink:href="classlemons_1_1dsp_1_1osc_1_1_engine.html" target="_top" xlink:title=" ">
<polygon fill="none" stroke="black" points="1163.5,-221.96 1163.5,-262.96 1315.5,-262.96 1315.5,-221.96 1163.5,-221.96"/>
<text text-anchor="start" x="1171.5" y="-250.96" font-family="Helvetica,sans-Serif" font-size="10.00">lemons::dsp::osc::Engine</text>
<text text-anchor="start" x="1171.5" y="-239.96" font-family="Helvetica,sans-Serif" font-size="10.00">&lt; SampleType, lemons::dsp</text>
<text text-anchor="middle" x="1239.5" y="-228.96" font-family="Helvetica,sans-Serif" font-size="10.00">::osc::Detunable &gt;</text>
</a>
</g>
</g>
<!-- Node8&#45;&gt;Node14 -->
<g id="edge15" class="edge">
<title>Node8&#45;&gt;Node14</title>
<path fill="none" stroke="orange" stroke-dasharray="5,2" d="M951.54,-368.78C969.52,-354.84 994.24,-337.03 1018,-324.46 1032.94,-316.56 1120.72,-284.6 1180.91,-263"/>
<polygon fill="orange" stroke="orange" points="948.99,-366.34 943.3,-375.28 953.32,-371.84 948.99,-366.34"/>
<text text-anchor="start" x="1018" y="-338.46" font-family="Helvetica,sans-Serif" font-size="10.00"> &lt; SampleType, lemons</text>
<text text-anchor="middle" x="1076" y="-327.46" font-family="Helvetica,sans-Serif" font-size="10.00">::dsp::osc::Detunable &gt;</text>
</g>
<!-- Node15 -->
<g id="node15" class="node">
<title>Node15</title>
<g id="a_node15"><a xlink:href="classlemons_1_1dsp_1_1osc_1_1_engine.html" target="_top" xlink:title=" ">
<polygon fill="none" stroke="black" points="1163.5,-307.96 1163.5,-348.96 1315.5,-348.96 1315.5,-307.96 1163.5,-307.96"/>
<text text-anchor="start" x="1171.5" y="-336.96" font-family="Helvetica,sans-Serif" font-size="10.00">lemons::dsp::osc::Engine</text>
<text text-anchor="start" x="1171.5" y="-325.96" font-family="Helvetica,sans-Serif" font-size="10.00">&lt; SampleType, lemons::dsp</text>
<text text-anchor="middle" x="1239.5" y="-314.96" font-family="Helvetica,sans-Serif" font-size="10.00">::osc::Square &gt;</text>
</a>
</g>
</g>
<!-- Node8&#45;&gt;Node15 -->
<g id="edge16" class="edge">
<title>Node8&#45;&gt;Node15</title>
<path fill="none" stroke="orange" stroke-dasharray="5,2" d="M1008.2,-374.01C1056.4,-364.47 1116.61,-352.57 1163.37,-343.32"/>
<polygon fill="orange" stroke="orange" points="1007.24,-370.63 998.11,-376 1008.6,-377.5 1007.24,-370.63"/>
<text text-anchor="start" x="1018" y="-384.46" font-family="Helvetica,sans-Serif" font-size="10.00"> &lt; SampleType, lemons</text>
<text text-anchor="middle" x="1076" y="-373.46" font-family="Helvetica,sans-Serif" font-size="10.00">::dsp::osc::Square &gt;</text>
</g>
<!-- Node16 -->
<g id="node16" class="node">
<title>Node16</title>
<g id="a_node16"><a xlink:href="classlemons_1_1dsp_1_1osc_1_1_engine.html" target="_top" xlink:title=" ">
<polygon fill="none" stroke="black" points="1171,-99.96 1171,-140.96 1308,-140.96 1308,-99.96 1171,-99.96"/>
<text text-anchor="start" x="1179" y="-128.96" font-family="Helvetica,sans-Serif" font-size="10.00">lemons::dsp::osc::Engine</text>
<text text-anchor="start" x="1179" y="-117.96" font-family="Helvetica,sans-Serif" font-size="10.00">&lt; float, lemons::dsp::osc</text>
<text text-anchor="middle" x="1239.5" y="-106.96" font-family="Helvetica,sans-Serif" font-size="10.00">::Triangle &gt;</text>
</a>
</g>
</g>
<!-- Node8&#45;&gt;Node16 -->
<g id="edge17" class="edge">
<title>Node8&#45;&gt;Node16</title>
<path fill="none" stroke="orange" stroke-dasharray="5,2" d="M929.33,-365.17C938.11,-321.73 962.12,-232.94 1018,-184.46 1040.96,-164.54 1114.81,-145.64 1170.78,-133.62"/>
<polygon fill="orange" stroke="orange" points="925.86,-364.71 927.42,-375.19 932.73,-366.02 925.86,-364.71"/>
<text text-anchor="start" x="1025" y="-198.46" font-family="Helvetica,sans-Serif" font-size="10.00"> &lt; float, lemons::dsp</text>
<text text-anchor="middle" x="1076" y="-187.46" font-family="Helvetica,sans-Serif" font-size="10.00">::osc::Triangle &gt;</text>
</g>
<!-- Node17&#45;&gt;Node9 -->
<g id="edge19" class="edge">
<title>Node17&#45;&gt;Node9</title>
<path fill="none" stroke="midnightblue" d="M1010.57,-573.8C1051.07,-577.75 1098.26,-575.06 1134,-551.46 1150.27,-540.72 1137.95,-524.98 1152,-511.46 1157.84,-505.84 1164.69,-501.09 1171.95,-497.07"/>
<polygon fill="midnightblue" stroke="midnightblue" points="1010.75,-570.3 1000.43,-572.66 1009.97,-577.25 1010.75,-570.3"/>
</g>
<!-- Node18&#45;&gt;Node10 -->
<g id="edge21" class="edge">
<title>Node18&#45;&gt;Node10</title>
<path fill="none" stroke="midnightblue" d="M828.17,-738.57C907.36,-735.42 1028.87,-729.45 1134,-719.46 1145.94,-718.33 1158.6,-716.86 1170.85,-715.3"/>
<polygon fill="midnightblue" stroke="midnightblue" points="827.62,-735.09 817.76,-738.98 827.89,-742.08 827.62,-735.09"/>
</g>
<!-- Node19&#45;&gt;Node11 -->
<g id="edge23" class="edge">
<title>Node19&#45;&gt;Node11</title>
<path fill="none" stroke="midnightblue" d="M1009.08,-644.55C1050.22,-649.06 1098.42,-646.63 1134,-621.46 1152.6,-608.3 1135.85,-589.54 1152,-573.46 1157.45,-568.04 1163.89,-563.52 1170.77,-559.77"/>
<polygon fill="midnightblue" stroke="midnightblue" points="1009.41,-641.07 999.06,-643.31 1008.55,-648.02 1009.41,-641.07"/>
</g>
<!-- Node20&#45;&gt;Node12 -->
<g id="edge25" class="edge">
<title>Node20&#45;&gt;Node12</title>
<path fill="none" stroke="midnightblue" d="M828.95,-154.76C908.19,-154 1029.3,-154.92 1134,-164.46 1143.52,-165.33 1153.48,-166.55 1163.32,-167.93"/>
<polygon fill="midnightblue" stroke="midnightblue" points="828.5,-151.27 818.54,-154.87 828.57,-158.27 828.5,-151.27"/>
</g>
<!-- Node21&#45;&gt;Node13 -->
<g id="edge27" class="edge">
<title>Node21&#45;&gt;Node13</title>
<path fill="none" stroke="midnightblue" d="M1009.56,-33.08C1060.17,-34.05 1123.63,-35.26 1170.89,-36.17"/>
<polygon fill="midnightblue" stroke="midnightblue" points="1009.36,-29.58 999.3,-32.88 1009.23,-36.57 1009.36,-29.58"/>
</g>
<!-- Node22&#45;&gt;Node14 -->
<g id="edge29" class="edge">
<title>Node22&#45;&gt;Node14</title>
<path fill="none" stroke="midnightblue" d="M647.66,-236.21C759.54,-232.53 961.5,-227.87 1134,-234.46 1143.55,-234.83 1153.57,-235.38 1163.48,-236.02"/>
<polygon fill="midnightblue" stroke="midnightblue" points="647.32,-232.72 637.45,-236.55 647.56,-239.71 647.32,-232.72"/>
</g>
<!-- Node23&#45;&gt;Node15 -->
<g id="edge31" class="edge">
<title>Node23&#45;&gt;Node15</title>
<path fill="none" stroke="midnightblue" d="M647.46,-312.88C759.55,-300.78 962.15,-284.98 1134,-304.46 1143.53,-305.54 1153.45,-307.16 1163.22,-309.05"/>
<polygon fill="midnightblue" stroke="midnightblue" points="646.79,-309.43 637.23,-314 647.55,-316.39 646.79,-309.43"/>
</g>
<!-- Node24&#45;&gt;Node16 -->
<g id="edge33" class="edge">
<title>Node24&#45;&gt;Node16</title>
<path fill="none" stroke="midnightblue" d="M646.57,-106.31C758.5,-92.19 961.8,-73.36 1134,-94.46 1146.06,-95.94 1158.74,-98.34 1170.93,-101.11"/>
<polygon fill="midnightblue" stroke="midnightblue" points="645.83,-102.88 636.35,-107.62 646.72,-109.82 645.83,-102.88"/>
</g>
</g>
</svg>
