<?xml version="1.0" encoding="UTF-8" standalone="no"?>
<!DOCTYPE svg PUBLIC "-//W3C//DTD SVG 1.1//EN"
 "http://www.w3.org/Graphics/SVG/1.1/DTD/svg11.dtd">
<!-- Generated by graphviz version 2.43.0 (0)
 -->
<!-- Title: lemons::gui::components::FloatSlider Pages: 1 -->
<svg width="312pt" height="162pt"
 viewBox="0.00 0.00 311.50 162.00" xmlns="http://www.w3.org/2000/svg" xmlns:xlink="http://www.w3.org/1999/xlink">
<g id="graph0" class="graph" transform="scale(1 1) rotate(0) translate(4 158)">
<title>lemons::gui::components::FloatSlider</title>
<!-- Node1 -->
<g id="node1" class="node">
<title>Node1</title>
<g id="a_node1"><a xlink:title="Plugin slider that attaches to a float parameter.">
<polygon fill="#bfbfbf" stroke="black" points="80,-0.5 80,-30.5 220,-30.5 220,-0.5 80,-0.5"/>
<text text-anchor="start" x="88" y="-18.5" font-family="Helvetica,sans-Serif" font-size="10.00">lemons::gui::components</text>
<text text-anchor="middle" x="150" y="-7.5" font-family="Helvetica,sans-Serif" font-size="10.00">::FloatSlider</text>
</a>
</g>
</g>
<!-- Node2 -->
<g id="node2" class="node">
<title>Node2</title>
<g id="a_node2"><a xlink:href="classlemons_1_1gui_1_1components_1_1_slider_base.html" target="_top" xlink:title="Base class for plugin sliders that handles some logic common to both int and float parameter sliders.">
<polygon fill="none" stroke="black" points="0,-67.5 0,-97.5 140,-97.5 140,-67.5 0,-67.5"/>
<text text-anchor="start" x="8" y="-85.5" font-family="Helvetica,sans-Serif" font-size="10.00">lemons::gui::components</text>
<text text-anchor="middle" x="70" y="-74.5" font-family="Helvetica,sans-Serif" font-size="10.00">::SliderBase</text>
</a>
</g>
</g>
<!-- Node2&#45;&gt;Node1 -->
<g id="edge1" class="edge">
<title>Node2&#45;&gt;Node1</title>
<path fill="none" stroke="midnightblue" d="M95.37,-60.88C107.53,-51.01 121.78,-39.43 132.68,-30.58"/>
<polygon fill="midnightblue" stroke="midnightblue" points="92.91,-58.37 87.36,-67.4 97.33,-63.81 92.91,-58.37"/>
</g>
<!-- Node3 -->
<g id="node3" class="node">
<title>Node3</title>
<g id="a_node3"><a xlink:title=" ">
<polygon fill="none" stroke="#bfbfbf" points="34.5,-134.5 34.5,-153.5 105.5,-153.5 105.5,-134.5 34.5,-134.5"/>
<text text-anchor="middle" x="70" y="-141.5" font-family="Helvetica,sans-Serif" font-size="10.00">juce::Slider</text>
</a>
</g>
</g>
<!-- Node3&#45;&gt;Node2 -->
<g id="edge2" class="edge">
<title>Node3&#45;&gt;Node2</title>
<path fill="none" stroke="midnightblue" d="M70,-124.23C70,-115.59 70,-105.5 70,-97.52"/>
<polygon fill="midnightblue" stroke="midnightblue" points="66.5,-124.48 70,-134.48 73.5,-124.48 66.5,-124.48"/>
</g>
<!-- Node4 -->
<g id="node4" class="node">
<title>Node4</title>
<g id="a_node4"><a xlink:href="structlemons_1_1plugin_1_1_parameter_1_1_listener.html" target="_top" xlink:title="A Listener class that will be notified when aspects of a Parameter change.">
<polygon fill="none" stroke="black" points="158.5,-67.5 158.5,-97.5 303.5,-97.5 303.5,-67.5 158.5,-67.5"/>
<text text-anchor="start" x="166.5" y="-85.5" font-family="Helvetica,sans-Serif" font-size="10.00">lemons::plugin::Parameter</text>
<text text-anchor="middle" x="231" y="-74.5" font-family="Helvetica,sans-Serif" font-size="10.00">::Listener</text>
</a>
</g>
</g>
<!-- Node4&#45;&gt;Node1 -->
<g id="edge3" class="edge">
<title>Node4&#45;&gt;Node1</title>
<path fill="none" stroke="#8b1a1a" d="M205.31,-60.88C193,-51.01 178.57,-39.43 167.54,-30.58"/>
<polygon fill="#8b1a1a" stroke="#8b1a1a" points="203.43,-63.87 213.42,-67.4 207.82,-58.41 203.43,-63.87"/>
</g>
</g>
</svg>
