<?xml version="1.0" encoding="UTF-8" standalone="no"?>
<!DOCTYPE svg PUBLIC "-//W3C//DTD SVG 1.1//EN"
 "http://www.w3.org/Graphics/SVG/1.1/DTD/svg11.dtd">
<!-- Generated by graphviz version 2.43.0 (0)
 -->
<!-- Title: lemons::plugin::Processor&lt; EngineType, StateType,, &gt; Pages: 1 -->
<svg width="345pt" height="162pt"
 viewBox="0.00 0.00 345.00 162.00" xmlns="http://www.w3.org/2000/svg" xmlns:xlink="http://www.w3.org/1999/xlink">
<g id="graph0" class="graph" transform="scale(1 1) rotate(0) translate(4 158)">
<title>lemons::plugin::Processor&lt; EngineType, StateType,, &gt;</title>
<!-- Node1 -->
<g id="node1" class="node">
<title>Node1</title>
<g id="a_node1"><a xlink:title=" ">
<polygon fill="#bfbfbf" stroke="black" points="94.5,-0.5 94.5,-30.5 249.5,-30.5 249.5,-0.5 94.5,-0.5"/>
<text text-anchor="start" x="102.5" y="-18.5" font-family="Helvetica,sans-Serif" font-size="10.00">lemons::plugin::Processor</text>
<text text-anchor="middle" x="172" y="-7.5" font-family="Helvetica,sans-Serif" font-size="10.00">&lt; EngineType, StateType,, &gt;</text>
</a>
</g>
</g>
<!-- Node2 -->
<g id="node2" class="node">
<title>Node2</title>
<g id="a_node2"><a xlink:href="classlemons_1_1plugin_1_1_processor_base.html" target="_top" xlink:title=" ">
<polygon fill="none" stroke="black" points="1,-73 1,-92 167,-92 167,-73 1,-73"/>
<text text-anchor="middle" x="84" y="-80" font-family="Helvetica,sans-Serif" font-size="10.00">lemons::plugin::ProcessorBase</text>
</a>
</g>
</g>
<!-- Node2&#45;&gt;Node1 -->
<g id="edge1" class="edge">
<title>Node2&#45;&gt;Node1</title>
<path fill="none" stroke="midnightblue" d="M104.25,-66.54C118.89,-55.73 138.56,-41.2 152.93,-30.59"/>
<polygon fill="midnightblue" stroke="midnightblue" points="101.83,-63.98 95.87,-72.73 105.99,-69.61 101.83,-63.98"/>
</g>
<!-- Node3 -->
<g id="node3" class="node">
<title>Node3</title>
<g id="a_node3"><a xlink:href="classlemons_1_1plugin_1_1_basic_processor.html" target="_top" xlink:title=" ">
<polygon fill="none" stroke="black" points="0,-134.5 0,-153.5 168,-153.5 168,-134.5 0,-134.5"/>
<text text-anchor="middle" x="84" y="-141.5" font-family="Helvetica,sans-Serif" font-size="10.00">lemons::plugin::BasicProcessor</text>
</a>
</g>
</g>
<!-- Node3&#45;&gt;Node2 -->
<g id="edge2" class="edge">
<title>Node3&#45;&gt;Node2</title>
<path fill="none" stroke="midnightblue" d="M84,-124.32C84,-113.5 84,-100.4 84,-92.01"/>
<polygon fill="midnightblue" stroke="midnightblue" points="80.5,-124.48 84,-134.48 87.5,-124.48 80.5,-124.48"/>
</g>
<!-- Node4 -->
<g id="node4" class="node">
<title>Node4</title>
<g id="a_node4"><a xlink:href="structlemons_1_1locale_1_1_translations_initializer.html" target="_top" xlink:title=" ">
<polygon fill="none" stroke="black" points="185,-67.5 185,-97.5 337,-97.5 337,-67.5 185,-67.5"/>
<text text-anchor="start" x="193" y="-85.5" font-family="Helvetica,sans-Serif" font-size="10.00">lemons::locale::Translations</text>
<text text-anchor="middle" x="261" y="-74.5" font-family="Helvetica,sans-Serif" font-size="10.00">Initializer</text>
</a>
</g>
</g>
<!-- Node4&#45;&gt;Node1 -->
<g id="edge3" class="edge">
<title>Node4&#45;&gt;Node1</title>
<path fill="none" stroke="#8b1a1a" d="M233.55,-61.45C219.86,-51.45 203.63,-39.6 191.27,-30.58"/>
<polygon fill="#8b1a1a" stroke="#8b1a1a" points="231.55,-64.32 241.69,-67.4 235.68,-58.67 231.55,-64.32"/>
</g>
</g>
</svg>
