<?xml version="1.0" encoding="UTF-8" standalone="no"?>
<!DOCTYPE svg PUBLIC "-//W3C//DTD SVG 1.1//EN"
 "http://www.w3.org/Graphics/SVG/1.1/DTD/svg11.dtd">
<!-- Generated by graphviz version 2.49.3 (20211023.0002)
 -->
<!-- Title: lemons::gui::components::PopupComponent&lt; OwnedContentType, &gt; Pages: 1 -->
<svg width="181pt" height="173pt"
 viewBox="0.00 0.00 181.00 173.00" xmlns="http://www.w3.org/2000/svg" xmlns:xlink="http://www.w3.org/1999/xlink">
<g id="graph0" class="graph" transform="scale(1 1) rotate(0) translate(4 169)">
<title>lemons::gui::components::PopupComponent&lt; OwnedContentType, &gt;</title>
<!-- Node1 -->
<g id="node1" class="node">
<title>Node1</title>
<g id="a_node1"><a xlink:title="A kind of PopupComponentBase that owns and displays a kind of Component.">
<polygon fill="#bfbfbf" stroke="black" points="0,-0.5 0,-41.5 173,-41.5 173,-0.5 0,-0.5"/>
<text text-anchor="start" x="8" y="-29.5" font-family="Helvetica,sans-Serif" font-size="10.00">lemons::gui::components</text>
<text text-anchor="start" x="8" y="-18.5" font-family="Helvetica,sans-Serif" font-size="10.00">::PopupComponent&lt; OwnedContent</text>
<text text-anchor="middle" x="86.5" y="-7.5" font-family="Helvetica,sans-Serif" font-size="10.00">Type, &gt;</text>
</a>
</g>
</g>
<!-- Node2 -->
<g id="node2" class="node">
<title>Node2</title>
<g id="a_node2"><a xlink:href="classlemons_1_1gui_1_1components_1_1_popup_component_base.html" target="_top" xlink:title="Base class for a kind of component that can be displayed as a popup.">
<polygon fill="none" stroke="black" points="23.5,-78.5 23.5,-108.5 149.5,-108.5 149.5,-78.5 23.5,-78.5"/>
<text text-anchor="start" x="31.5" y="-96.5" font-family="Helvetica,sans-Serif" font-size="10.00">lemons::gui::components</text>
<text text-anchor="middle" x="86.5" y="-85.5" font-family="Helvetica,sans-Serif" font-size="10.00">::PopupComponentBase</text>
</a>
</g>
</g>
<!-- Node2&#45;&gt;Node1 -->
<g id="edge1" class="edge">
<title>Node2&#45;&gt;Node1</title>
<path fill="none" stroke="midnightblue" d="M86.5,-67.98C86.5,-59.35 86.5,-49.76 86.5,-41.59"/>
<polygon fill="midnightblue" stroke="midnightblue" points="83,-68.23 86.5,-78.23 90,-68.23 83,-68.23"/>
</g>
<!-- Node3 -->
<g id="node3" class="node">
<title>Node3</title>
<g id="a_node3"><a xlink:title=" ">
<polygon fill="none" stroke="black" points="53.5,-145.5 53.5,-164.5 119.5,-164.5 119.5,-145.5 53.5,-145.5"/>
<text text-anchor="middle" x="86.5" y="-152.5" font-family="Helvetica,sans-Serif" font-size="10.00">Component</text>
</a>
</g>
</g>
<!-- Node3&#45;&gt;Node2 -->
<g id="edge2" class="edge">
<title>Node3&#45;&gt;Node2</title>
<path fill="none" stroke="midnightblue" d="M86.5,-135.23C86.5,-126.59 86.5,-116.5 86.5,-108.52"/>
<polygon fill="midnightblue" stroke="midnightblue" points="83,-135.48 86.5,-145.48 90,-135.48 83,-135.48"/>
</g>
</g>
</svg>
