<?xml version="1.0" encoding="UTF-8" standalone="no"?>
<!DOCTYPE svg PUBLIC "-//W3C//DTD SVG 1.1//EN"
 "http://www.w3.org/Graphics/SVG/1.1/DTD/svg11.dtd">
<!-- Generated by graphviz version 2.43.0 (0)
 -->
<!-- Title: lemons::plugin::TypedParameter&lt; ValueType &gt; Pages: 1 -->
<!--zoomable 431 -->
<svg id="main" version="1.1" xmlns="http://www.w3.org/2000/svg" xmlns:xlink="http://www.w3.org/1999/xlink" xml:space="preserve" onload="init(evt)">
<style type="text/css"><![CDATA[
.edge:hover path { stroke: red; }
.edge:hover polygon { stroke: red; fill: red; }
]]></style>
<script type="text/javascript"><![CDATA[
var edges = document.getElementsByTagName('g');
if (edges && edges.length) {
  for (var i=0;i<edges.length;i++) {
    if (edges[i].id.substr(0,4)=='edge') {
      edges[i].setAttribute('class','edge');
    }
  }
}
]]></script>
        <defs>
                <circle id="rim" cx="0" cy="0" r="7"/>
                <circle id="rim2" cx="0" cy="0" r="3.5"/>
                <g id="zoomPlus">
                        <use xlink:href="#rim" fill="#404040">
                                <set attributeName="fill" to="#808080" begin="zoomplus.mouseover" end="zoomplus.mouseout"/>
                        </use>
                        <path d="M-4,0h8M0,-4v8" fill="none" stroke="white" stroke-width="1.5" pointer-events="none"/>
                </g>
                <g id="zoomMin">
                        <use xlink:href="#rim" fill="#404040">
                                <set attributeName="fill" to="#808080" begin="zoomminus.mouseover" end="zoomminus.mouseout"/>
                        </use>
                        <path d="M-4,0h8" fill="none" stroke="white" stroke-width="1.5" pointer-events="none"/>
                </g>
                <g id="dirArrow">
                        <path fill="none" stroke="white" stroke-width="1.5" d="M0,-3.0v7 M-2.5,-0.5L0,-3.0L2.5,-0.5"/>
                </g>
               <g id="resetDef">
                       <use xlink:href="#rim2" fill="#404040">
                               <set attributeName="fill" to="#808080" begin="reset.mouseover" end="reset.mouseout"/>
                       </use>
               </g>
        </defs>

<script type="text/javascript">
var viewWidth = 1102;
var viewHeight = 431;
var sectionId = 'dynsection-0';
</script>
<script xlink:href="svgpan.js"/>
<svg id="graph" class="graph">
<g id="viewport">
<title>lemons::plugin::TypedParameter&lt; ValueType &gt;</title>
<!-- Node1 -->
<g id="node1" class="node">
<title>Node1</title>
<g id="a_node1"><a xlink:title="A parameter that can be stored as a type other than a float, but still inherits from my Parameter bas...">
<polygon fill="#bfbfbf" stroke="black" points="182,-196.5 182,-226.5 355,-226.5 355,-196.5 182,-196.5"/>
<text text-anchor="start" x="190" y="-214.5" font-family="Helvetica,sans-Serif" font-size="10.00">lemons::plugin::TypedParameter</text>
<text text-anchor="middle" x="268.5" y="-203.5" font-family="Helvetica,sans-Serif" font-size="10.00">&lt; ValueType &gt;</text>
</a>
</g>
</g>
<!-- Node3 -->
<g id="node3" class="node">
<title>Node3</title>
<g id="a_node3"><a xlink:href="structlemons_1_1plugin_1_1_float_amount_parameter.html" target="_top" xlink:title="A parameter that represents a value in a normalized 0&#45;1 range.">
<polygon fill="none" stroke="black" points="451.5,-392.5 451.5,-422.5 609.5,-422.5 609.5,-392.5 451.5,-392.5"/>
<text text-anchor="start" x="459.5" y="-410.5" font-family="Helvetica,sans-Serif" font-size="10.00">lemons::plugin::FloatAmount</text>
<text text-anchor="middle" x="530.5" y="-399.5" font-family="Helvetica,sans-Serif" font-size="10.00">Parameter&lt; float &gt;</text>
</a>
</g>
</g>
<!-- Node1&#45;&gt;Node3 -->
<g id="edge2" class="edge">
<title>Node1&#45;&gt;Node3</title>
<path fill="none" stroke="midnightblue" d="M285.24,-234.97C311.91,-272.74 369.79,-346.52 438,-383.5 444.35,-386.94 451.22,-389.91 458.25,-392.47"/>
<polygon fill="midnightblue" stroke="midnightblue" points="288.01,-232.83 279.44,-226.61 282.27,-236.82 288.01,-232.83"/>
</g>
<!-- Node4 -->
<g id="node4" class="node">
<title>Node4</title>
<g id="a_node4"><a xlink:href="structlemons_1_1plugin_1_1_frequency_parameter.html" target="_top" xlink:title="A parameter that represents a frequency in Hz.">
<polygon fill="none" stroke="black" points="458,-343.5 458,-373.5 603,-373.5 603,-343.5 458,-343.5"/>
<text text-anchor="start" x="466" y="-361.5" font-family="Helvetica,sans-Serif" font-size="10.00">lemons::plugin::Frequency</text>
<text text-anchor="middle" x="530.5" y="-350.5" font-family="Helvetica,sans-Serif" font-size="10.00">Parameter&lt; float &gt;</text>
</a>
</g>
</g>
<!-- Node1&#45;&gt;Node4 -->
<g id="edge3" class="edge">
<title>Node1&#45;&gt;Node4</title>
<path fill="none" stroke="midnightblue" d="M293.53,-233.63C324.63,-261.12 381.54,-307.68 438,-334.5 445.12,-337.88 452.79,-340.84 460.55,-343.41"/>
<polygon fill="midnightblue" stroke="midnightblue" points="295.62,-230.8 285.83,-226.74 290.95,-236.02 295.62,-230.8"/>
</g>
<!-- Node5 -->
<g id="node5" class="node">
<title>Node5</title>
<g id="a_node5"><a xlink:href="structlemons_1_1plugin_1_1_gain_parameter.html" target="_top" xlink:title="A parameter that represents a gain value in decibels.">
<polygon fill="none" stroke="black" points="447,-294.5 447,-324.5 614,-324.5 614,-294.5 447,-294.5"/>
<text text-anchor="start" x="455" y="-312.5" font-family="Helvetica,sans-Serif" font-size="10.00">lemons::plugin::GainParameter</text>
<text text-anchor="middle" x="530.5" y="-301.5" font-family="Helvetica,sans-Serif" font-size="10.00">&lt; float &gt;</text>
</a>
</g>
</g>
<!-- Node1&#45;&gt;Node5 -->
<g id="edge4" class="edge">
<title>Node1&#45;&gt;Node5</title>
<path fill="none" stroke="midnightblue" d="M309.03,-230.98C342.73,-247.07 392.77,-269.75 438,-285.5 447.15,-288.69 456.94,-291.68 466.6,-294.4"/>
<polygon fill="midnightblue" stroke="midnightblue" points="310.5,-227.8 299.97,-226.62 307.47,-234.11 310.5,-227.8"/>
</g>
<!-- Node6 -->
<g id="node6" class="node">
<title>Node6</title>
<g id="a_node6"><a xlink:href="classlemons_1_1plugin_1_1_meta_parameter.html" target="_top" xlink:title=" ">
<polygon fill="none" stroke="black" points="445.5,-245.5 445.5,-275.5 615.5,-275.5 615.5,-245.5 445.5,-245.5"/>
<text text-anchor="start" x="453.5" y="-263.5" font-family="Helvetica,sans-Serif" font-size="10.00">lemons::plugin::MetaParameter</text>
<text text-anchor="middle" x="530.5" y="-252.5" font-family="Helvetica,sans-Serif" font-size="10.00">&lt; ValueType &gt;</text>
</a>
</g>
</g>
<!-- Node1&#45;&gt;Node6 -->
<g id="edge5" class="edge">
<title>Node1&#45;&gt;Node6</title>
<path fill="none" stroke="midnightblue" d="M359.15,-228.39C388.63,-233.95 421.19,-240.09 449.88,-245.49"/>
<polygon fill="midnightblue" stroke="midnightblue" points="359.75,-224.95 349.28,-226.53 358.45,-231.83 359.75,-224.95"/>
</g>
<!-- Node9 -->
<g id="node9" class="node">
<title>Node9</title>
<g id="a_node9"><a xlink:href="structlemons_1_1plugin_1_1_meter_parameter.html" target="_top" xlink:title="A parameter that represents a general kind of meter, used for reporting things like level or gain red...">
<polygon fill="none" stroke="black" points="444,-147.5 444,-177.5 617,-177.5 617,-147.5 444,-147.5"/>
<text text-anchor="start" x="452" y="-165.5" font-family="Helvetica,sans-Serif" font-size="10.00">lemons::plugin::MeterParameter</text>
<text text-anchor="middle" x="530.5" y="-154.5" font-family="Helvetica,sans-Serif" font-size="10.00">&lt; float &gt;</text>
</a>
</g>
</g>
<!-- Node1&#45;&gt;Node9 -->
<g id="edge8" class="edge">
<title>Node1&#45;&gt;Node9</title>
<path fill="none" stroke="midnightblue" d="M359.15,-194.61C388.63,-189.05 421.19,-182.91 449.88,-177.51"/>
<polygon fill="midnightblue" stroke="midnightblue" points="358.45,-191.17 349.28,-196.47 359.75,-198.05 358.45,-191.17"/>
</g>
<!-- Node11 -->
<g id="node11" class="node">
<title>Node11</title>
<g id="a_node11"><a xlink:href="structlemons_1_1plugin_1_1_seconds_parameter.html" target="_top" xlink:title="A parameter that represents a time value in seconds, expressed as a float.">
<polygon fill="none" stroke="black" points="438,-98.5 438,-128.5 623,-128.5 623,-98.5 438,-98.5"/>
<text text-anchor="start" x="446" y="-116.5" font-family="Helvetica,sans-Serif" font-size="10.00">lemons::plugin::SecondsParameter</text>
<text text-anchor="middle" x="530.5" y="-105.5" font-family="Helvetica,sans-Serif" font-size="10.00">&lt; float &gt;</text>
</a>
</g>
</g>
<!-- Node1&#45;&gt;Node11 -->
<g id="edge10" class="edge">
<title>Node1&#45;&gt;Node11</title>
<path fill="none" stroke="midnightblue" d="M309.03,-192.02C342.73,-175.93 392.77,-153.25 438,-137.5 447.15,-134.31 456.94,-131.32 466.6,-128.6"/>
<polygon fill="midnightblue" stroke="midnightblue" points="307.47,-188.89 299.97,-196.38 310.5,-195.2 307.47,-188.89"/>
</g>
<!-- Node12 -->
<g id="node12" class="node">
<title>Node12</title>
<g id="a_node12"><a xlink:href="structlemons_1_1plugin_1_1_semitones_parameter.html" target="_top" xlink:title="A parameter that represents a number of semitones, as an integer.">
<polygon fill="none" stroke="black" points="457.5,-49.5 457.5,-79.5 603.5,-79.5 603.5,-49.5 457.5,-49.5"/>
<text text-anchor="start" x="465.5" y="-67.5" font-family="Helvetica,sans-Serif" font-size="10.00">lemons::plugin::Semitones</text>
<text text-anchor="middle" x="530.5" y="-56.5" font-family="Helvetica,sans-Serif" font-size="10.00">Parameter&lt; int &gt;</text>
</a>
</g>
</g>
<!-- Node1&#45;&gt;Node12 -->
<g id="edge11" class="edge">
<title>Node1&#45;&gt;Node12</title>
<path fill="none" stroke="midnightblue" d="M293.53,-189.37C324.63,-161.88 381.54,-115.32 438,-88.5 445.12,-85.12 452.79,-82.16 460.55,-79.59"/>
<polygon fill="midnightblue" stroke="midnightblue" points="290.95,-186.98 285.83,-196.26 295.62,-192.2 290.95,-186.98"/>
</g>
<!-- Node13 -->
<g id="node13" class="node">
<title>Node13</title>
<g id="a_node13"><a xlink:href="classlemons_1_1plugin_1_1_typed_parameter.html" target="_top" xlink:title=" ">
<polygon fill="none" stroke="black" points="444,-196.5 444,-226.5 617,-226.5 617,-196.5 444,-196.5"/>
<text text-anchor="start" x="452" y="-214.5" font-family="Helvetica,sans-Serif" font-size="10.00">lemons::plugin::TypedParameter</text>
<text text-anchor="middle" x="530.5" y="-203.5" font-family="Helvetica,sans-Serif" font-size="10.00">&lt; int &gt;</text>
</a>
</g>
</g>
<!-- Node1&#45;&gt;Node13 -->
<g id="edge12" class="edge">
<title>Node1&#45;&gt;Node13</title>
<path fill="none" stroke="orange" stroke-dasharray="5,2" d="M365.46,-211.5C391.11,-211.5 418.67,-211.5 443.74,-211.5"/>
<polygon fill="orange" stroke="orange" points="365.35,-208 355.35,-211.5 365.35,-215 365.35,-208"/>
<text text-anchor="middle" x="396.5" y="-214.5" font-family="Helvetica,sans-Serif" font-size="10.00"> &lt; int &gt;</text>
</g>
<!-- Node17 -->
<g id="node17" class="node">
<title>Node17</title>
<g id="a_node17"><a xlink:href="classlemons_1_1plugin_1_1_typed_parameter.html" target="_top" xlink:title=" ">
<polygon fill="none" stroke="black" points="444,-0.5 444,-30.5 617,-30.5 617,-0.5 444,-0.5"/>
<text text-anchor="start" x="452" y="-18.5" font-family="Helvetica,sans-Serif" font-size="10.00">lemons::plugin::TypedParameter</text>
<text text-anchor="middle" x="530.5" y="-7.5" font-family="Helvetica,sans-Serif" font-size="10.00">&lt; bool &gt;</text>
</a>
</g>
</g>
<!-- Node1&#45;&gt;Node17 -->
<g id="edge17" class="edge">
<title>Node1&#45;&gt;Node17</title>
<path fill="none" stroke="orange" stroke-dasharray="5,2" d="M284.14,-187.87C309.8,-148.89 366.98,-72.16 438,-39.5 445.31,-36.14 453.18,-33.18 461.11,-30.6"/>
<polygon fill="orange" stroke="orange" points="281.07,-186.18 278.59,-196.48 286.95,-189.97 281.07,-186.18"/>
<text text-anchor="middle" x="396.5" y="-86.5" font-family="Helvetica,sans-Serif" font-size="10.00"> &lt; bool &gt;</text>
</g>
<!-- Node2 -->
<g id="node2" class="node">
<title>Node2</title>
<g id="a_node2"><a xlink:href="classlemons_1_1plugin_1_1_parameter.html" target="_top" xlink:title="A plugin parameter class that allows you to use my Serializing API, and has a few other cool bells an...">
<polygon fill="none" stroke="black" points="0,-202 0,-221 145,-221 145,-202 0,-202"/>
<text text-anchor="middle" x="72.5" y="-209" font-family="Helvetica,sans-Serif" font-size="10.00">lemons::plugin::Parameter</text>
</a>
</g>
</g>
<!-- Node2&#45;&gt;Node1 -->
<g id="edge1" class="edge">
<title>Node2&#45;&gt;Node1</title>
<path fill="none" stroke="midnightblue" d="M155.41,-211.5C164.2,-211.5 173.16,-211.5 181.99,-211.5"/>
<polygon fill="midnightblue" stroke="midnightblue" points="155.19,-208 145.19,-211.5 155.19,-215 155.19,-208"/>
</g>
<!-- Node7 -->
<g id="node7" class="node">
<title>Node7</title>
<g id="a_node7"><a xlink:href="classlemons_1_1plugin_1_1_meta_parameter.html" target="_top" xlink:title=" ">
<polygon fill="none" stroke="black" points="704.5,-269.5 704.5,-299.5 874.5,-299.5 874.5,-269.5 704.5,-269.5"/>
<text text-anchor="start" x="712.5" y="-287.5" font-family="Helvetica,sans-Serif" font-size="10.00">lemons::plugin::MetaParameter</text>
<text text-anchor="middle" x="789.5" y="-276.5" font-family="Helvetica,sans-Serif" font-size="10.00">&lt; int &gt;</text>
</a>
</g>
</g>
<!-- Node6&#45;&gt;Node7 -->
<g id="edge6" class="edge">
<title>Node6&#45;&gt;Node7</title>
<path fill="none" stroke="orange" stroke-dasharray="5,2" d="M625.76,-269.3C651.43,-271.7 679.07,-274.28 704.16,-276.62"/>
<polygon fill="orange" stroke="orange" points="625.93,-265.8 615.65,-268.36 625.28,-272.77 625.93,-265.8"/>
<text text-anchor="middle" x="660.5" y="-276.5" font-family="Helvetica,sans-Serif" font-size="10.00"> &lt; int &gt;</text>
</g>
<!-- Node8 -->
<g id="node8" class="node">
<title>Node8</title>
<g id="a_node8"><a xlink:href="structlemons_1_1plugin_1_1_default_meta_parameter.html" target="_top" xlink:title=" ">
<polygon fill="none" stroke="black" points="928.5,-269.5 928.5,-299.5 1083.5,-299.5 1083.5,-269.5 928.5,-269.5"/>
<text text-anchor="start" x="936.5" y="-287.5" font-family="Helvetica,sans-Serif" font-size="10.00">lemons::plugin::DefaultMeta</text>
<text text-anchor="middle" x="1006" y="-276.5" font-family="Helvetica,sans-Serif" font-size="10.00">Parameter</text>
</a>
</g>
</g>
<!-- Node7&#45;&gt;Node8 -->
<g id="edge7" class="edge">
<title>Node7&#45;&gt;Node8</title>
<path fill="none" stroke="midnightblue" d="M884.71,-284.5C899.32,-284.5 914.26,-284.5 928.42,-284.5"/>
<polygon fill="midnightblue" stroke="midnightblue" points="884.66,-281 874.66,-284.5 884.66,-288 884.66,-281"/>
</g>
<!-- Node10 -->
<g id="node10" class="node">
<title>Node10</title>
<g id="a_node10"><a xlink:href="structlemons_1_1plugin_1_1_gain_meter_parameter.html" target="_top" xlink:title="A parameter that represents a meter displaying values in decibels.">
<polygon fill="none" stroke="black" points="716.5,-93.5 716.5,-123.5 862.5,-123.5 862.5,-93.5 716.5,-93.5"/>
<text text-anchor="start" x="724.5" y="-111.5" font-family="Helvetica,sans-Serif" font-size="10.00">lemons::plugin::GainMeter</text>
<text text-anchor="middle" x="789.5" y="-100.5" font-family="Helvetica,sans-Serif" font-size="10.00">Parameter</text>
</a>
</g>
</g>
<!-- Node9&#45;&gt;Node10 -->
<g id="edge9" class="edge">
<title>Node9&#45;&gt;Node10</title>
<path fill="none" stroke="midnightblue" d="M609.02,-145.36C619.76,-143.03 630.65,-140.69 641,-138.5 665.54,-133.31 692.42,-127.8 716.43,-122.93"/>
<polygon fill="midnightblue" stroke="midnightblue" points="608.25,-141.94 599.22,-147.49 609.74,-148.78 608.25,-141.94"/>
</g>
<!-- Node13&#45;&gt;Node7 -->
<g id="edge16" class="edge">
<title>Node13&#45;&gt;Node7</title>
<path fill="none" stroke="midnightblue" d="M597.39,-229.24C606.01,-231.64 614.73,-234.1 623,-236.5 656.49,-246.21 664.53,-249.75 698,-259.5 709.27,-262.78 721.36,-266.2 732.91,-269.41"/>
<polygon fill="midnightblue" stroke="midnightblue" points="598.28,-225.86 587.71,-226.56 596.41,-232.6 598.28,-225.86"/>
</g>
<!-- Node14 -->
<g id="node14" class="node">
<title>Node14</title>
<g id="a_node14"><a xlink:href="structlemons_1_1plugin_1_1_midi_pan_parameter.html" target="_top" xlink:title="A parameter that represents a MIDI panning value in the range 0 to 127.">
<polygon fill="none" stroke="black" points="698,-231 698,-250 881,-250 881,-231 698,-231"/>
<text text-anchor="middle" x="789.5" y="-238" font-family="Helvetica,sans-Serif" font-size="10.00">lemons::plugin::MidiPanParameter</text>
</a>
</g>
</g>
<!-- Node13&#45;&gt;Node14 -->
<g id="edge13" class="edge">
<title>Node13&#45;&gt;Node14</title>
<path fill="none" stroke="midnightblue" d="M627.05,-222.28C652.36,-225.14 679.5,-228.2 704.17,-230.98"/>
<polygon fill="midnightblue" stroke="midnightblue" points="627.41,-218.8 617.08,-221.16 626.62,-225.76 627.41,-218.8"/>
</g>
<!-- Node15 -->
<g id="node15" class="node">
<title>Node15</title>
<g id="a_node15"><a xlink:href="structlemons_1_1plugin_1_1_midi_pitch_parameter.html" target="_top" xlink:title="A parameter that represents a MIDI pitch.">
<polygon fill="none" stroke="black" points="719.5,-181.5 719.5,-211.5 859.5,-211.5 859.5,-181.5 719.5,-181.5"/>
<text text-anchor="start" x="727.5" y="-199.5" font-family="Helvetica,sans-Serif" font-size="10.00">lemons::plugin::MidiPitch</text>
<text text-anchor="middle" x="789.5" y="-188.5" font-family="Helvetica,sans-Serif" font-size="10.00">Parameter</text>
</a>
</g>
</g>
<!-- Node13&#45;&gt;Node15 -->
<g id="edge14" class="edge">
<title>Node13&#45;&gt;Node15</title>
<path fill="none" stroke="midnightblue" d="M627.3,-205.91C657.77,-204.13 690.87,-202.2 719.1,-200.55"/>
<polygon fill="midnightblue" stroke="midnightblue" points="626.86,-202.43 617.08,-206.51 627.26,-209.42 626.86,-202.43"/>
</g>
<!-- Node16 -->
<g id="node16" class="node">
<title>Node16</title>
<g id="a_node16"><a xlink:href="structlemons_1_1plugin_1_1_percent_parameter.html" target="_top" xlink:title="A parameter that represents an integer value in the range 0&#45;100.">
<polygon fill="none" stroke="black" points="698.5,-143 698.5,-162 880.5,-162 880.5,-143 698.5,-143"/>
<text text-anchor="middle" x="789.5" y="-150" font-family="Helvetica,sans-Serif" font-size="10.00">lemons::plugin::PercentParameter</text>
</a>
</g>
</g>
<!-- Node13&#45;&gt;Node16 -->
<g id="edge15" class="edge">
<title>Node13&#45;&gt;Node16</title>
<path fill="none" stroke="midnightblue" d="M602.11,-194.06C631.69,-186.88 666.47,-178.6 698,-171.5 712.25,-168.29 727.81,-164.96 741.94,-162.01"/>
<polygon fill="midnightblue" stroke="midnightblue" points="601.18,-190.68 592.29,-196.45 602.84,-197.49 601.18,-190.68"/>
</g>
<!-- Node18 -->
<g id="node18" class="node">
<title>Node18</title>
<g id="a_node18"><a xlink:href="structlemons_1_1plugin_1_1_bool_parameter.html" target="_top" xlink:title="Helper struct that simplifies the constructor for boolean parameters.">
<polygon fill="none" stroke="black" points="706,-6 706,-25 873,-25 873,-6 706,-6"/>
<text text-anchor="middle" x="789.5" y="-13" font-family="Helvetica,sans-Serif" font-size="10.00">lemons::plugin::BoolParameter</text>
</a>
</g>
</g>
<!-- Node17&#45;&gt;Node18 -->
<g id="edge18" class="edge">
<title>Node17&#45;&gt;Node18</title>
<path fill="none" stroke="midnightblue" d="M627.26,-15.5C653.11,-15.5 680.85,-15.5 705.91,-15.5"/>
<polygon fill="midnightblue" stroke="midnightblue" points="627.08,-12 617.08,-15.5 627.08,-19 627.08,-12"/>
</g>
<!-- Node19 -->
<g id="node19" class="node">
<title>Node19</title>
<g id="a_node19"><a xlink:href="structlemons_1_1plugin_1_1_toggle_parameter.html" target="_top" xlink:title="A parameter that represents a boolean on/off toggle.">
<polygon fill="none" stroke="black" points="918,-6 918,-25 1094,-25 1094,-6 918,-6"/>
<text text-anchor="middle" x="1006" y="-13" font-family="Helvetica,sans-Serif" font-size="10.00">lemons::plugin::ToggleParameter</text>
</a>
</g>
</g>
<!-- Node18&#45;&gt;Node19 -->
<g id="edge19" class="edge">
<title>Node18&#45;&gt;Node19</title>
<path fill="none" stroke="midnightblue" d="M883.16,-15.5C894.66,-15.5 906.38,-15.5 917.8,-15.5"/>
<polygon fill="midnightblue" stroke="midnightblue" points="883.12,-12 873.12,-15.5 883.12,-19 883.12,-12"/>
</g>
</g>
</svg>
        <g id="navigator" transform="translate(0 0)" fill="#404254">
                <rect fill="#f2f5e9" fill-opacity="0.5" stroke="#606060" stroke-width=".5" x="0" y="0" width="60" height="60"/>
                <use id="zoomplus" xlink:href="#zoomPlus" x="17" y="9" onmousedown="handleZoom(evt,'in')"/>
                <use id="zoomminus" xlink:href="#zoomMin" x="42" y="9" onmousedown="handleZoom(evt,'out')"/>
                <use id="reset" xlink:href="#resetDef" x="30" y="36" onmousedown="handleReset()"/>
                <g id="arrowUp" xlink:href="#dirArrow" transform="translate(30 24)" onmousedown="handlePan(0,-1)">
                  <use xlink:href="#rim" fill="#404040">
                        <set attributeName="fill" to="#808080" begin="arrowUp.mouseover" end="arrowUp.mouseout"/>
                  </use>
                  <path fill="none" stroke="white" stroke-width="1.5" d="M0,-3.0v7 M-2.5,-0.5L0,-3.0L2.5,-0.5"/>
                </g>
                <g id="arrowRight" xlink:href="#dirArrow" transform="rotate(90) translate(36 -43)" onmousedown="handlePan(1,0)">
                  <use xlink:href="#rim" fill="#404040">
                        <set attributeName="fill" to="#808080" begin="arrowRight.mouseover" end="arrowRight.mouseout"/>
                  </use>
                  <path fill="none" stroke="white" stroke-width="1.5" d="M0,-3.0v7 M-2.5,-0.5L0,-3.0L2.5,-0.5"/>
                </g>
                <g id="arrowDown" xlink:href="#dirArrow" transform="rotate(180) translate(-30 -48)" onmousedown="handlePan(0,1)">
                  <use xlink:href="#rim" fill="#404040">
                        <set attributeName="fill" to="#808080" begin="arrowDown.mouseover" end="arrowDown.mouseout"/>
                  </use>
                  <path fill="none" stroke="white" stroke-width="1.5" d="M0,-3.0v7 M-2.5,-0.5L0,-3.0L2.5,-0.5"/>
                </g>
                <g id="arrowLeft" xlink:href="#dirArrow" transform="rotate(270) translate(-36 17)" onmousedown="handlePan(-1,0)">
                  <use xlink:href="#rim" fill="#404040">
                        <set attributeName="fill" to="#808080" begin="arrowLeft.mouseover" end="arrowLeft.mouseout"/>
                  </use>
                  <path fill="none" stroke="white" stroke-width="1.5" d="M0,-3.0v7 M-2.5,-0.5L0,-3.0L2.5,-0.5"/>
                </g>
        </g>
        <svg viewBox="0 0 15 15" width="100%" height="30px" preserveAspectRatio="xMaxYMin meet">
         <g id="arrow_out" transform="scale(0.3 0.3)">
          <a xlink:href="classlemons_1_1plugin_1_1_typed_parameter__inherit__graph_org.svg" target="_base">
           <rect id="button" ry="5" rx="5" y="6" x="6" height="38" width="38"
                fill="#f2f5e9" fill-opacity="0.5" stroke="#606060" stroke-width="1.0"/>
           <path id="arrow"
             d="M 11.500037,31.436501 C 11.940474,20.09759 22.043105,11.32322 32.158766,21.979434 L 37.068811,17.246167 C 37.068811,17.246167 37.088388,32 37.088388,32 L 22.160133,31.978069 C 22.160133,31.978069 26.997745,27.140456 26.997745,27.140456 C 18.528582,18.264221 13.291696,25.230495 11.500037,31.436501 z"
             style="fill:#404040;"/>
          </a>
         </g>
        </svg>
</svg>
