<?xml version="1.0" encoding="UTF-8" standalone="no"?>
<!DOCTYPE svg PUBLIC "-//W3C//DTD SVG 1.1//EN"
 "http://www.w3.org/Graphics/SVG/1.1/DTD/svg11.dtd">
<!-- Generated by graphviz version 2.43.0 (0)
 -->
<!-- Title: lemons::GuiApp&lt; ContentComponentType, &gt; Pages: 1 -->
<svg width="300pt" height="106pt"
 viewBox="0.00 0.00 299.50 106.00" xmlns="http://www.w3.org/2000/svg" xmlns:xlink="http://www.w3.org/1999/xlink">
<g id="graph0" class="graph" transform="scale(1 1) rotate(0) translate(4 102)">
<title>lemons::GuiApp&lt; ContentComponentType, &gt;</title>
<!-- Node1 -->
<g id="node1" class="node">
<title>Node1</title>
<g id="a_node1"><a xlink:title=" ">
<polygon fill="#bfbfbf" stroke="black" points="37.5,-0.5 37.5,-30.5 237.5,-30.5 237.5,-0.5 37.5,-0.5"/>
<text text-anchor="start" x="45.5" y="-18.5" font-family="Helvetica,sans-Serif" font-size="10.00">lemons::GuiApp&lt; ContentComponent</text>
<text text-anchor="middle" x="137.5" y="-7.5" font-family="Helvetica,sans-Serif" font-size="10.00">Type, &gt;</text>
</a>
</g>
</g>
<!-- Node2 -->
<g id="node2" class="node">
<title>Node2</title>
<g id="a_node2"><a xlink:title=" ">
<polygon fill="none" stroke="#bfbfbf" points="0,-73 0,-92 121,-92 121,-73 0,-73"/>
<text text-anchor="middle" x="60.5" y="-80" font-family="Helvetica,sans-Serif" font-size="10.00">juce::JUCEApplication</text>
</a>
</g>
</g>
<!-- Node2&#45;&gt;Node1 -->
<g id="edge1" class="edge">
<title>Node2&#45;&gt;Node1</title>
<path fill="none" stroke="midnightblue" d="M78.58,-66.24C91.36,-55.45 108.36,-41.1 120.81,-30.59"/>
<polygon fill="midnightblue" stroke="midnightblue" points="76.27,-63.61 70.88,-72.73 80.78,-68.96 76.27,-63.61"/>
</g>
<!-- Node3 -->
<g id="node3" class="node">
<title>Node3</title>
<g id="a_node3"><a xlink:href="structlemons_1_1locale_1_1_translations_initializer.html" target="_top" xlink:title=" ">
<polygon fill="none" stroke="black" points="139.5,-67.5 139.5,-97.5 291.5,-97.5 291.5,-67.5 139.5,-67.5"/>
<text text-anchor="start" x="147.5" y="-85.5" font-family="Helvetica,sans-Serif" font-size="10.00">lemons::locale::Translations</text>
<text text-anchor="middle" x="215.5" y="-74.5" font-family="Helvetica,sans-Serif" font-size="10.00">Initializer</text>
</a>
</g>
</g>
<!-- Node3&#45;&gt;Node1 -->
<g id="edge2" class="edge">
<title>Node3&#45;&gt;Node1</title>
<path fill="none" stroke="#8b1a1a" d="M190.76,-60.88C178.91,-51.01 165.02,-39.43 154.39,-30.58"/>
<polygon fill="#8b1a1a" stroke="#8b1a1a" points="188.65,-63.68 198.58,-67.4 193.13,-58.31 188.65,-63.68"/>
</g>
</g>
</svg>
