<?xml version="1.0" encoding="UTF-8" standalone="no"?>
<!DOCTYPE svg PUBLIC "-//W3C//DTD SVG 1.1//EN"
 "http://www.w3.org/Graphics/SVG/1.1/DTD/svg11.dtd">
<!-- Generated by graphviz version 2.49.1 (20210923.0004)
 -->
<!-- Title: lemons::dsp::FX::DeEsser&lt; SampleType &gt; Pages: 1 -->
<svg width="170pt" height="296pt"
 viewBox="0.00 0.00 170.00 296.00" xmlns="http://www.w3.org/2000/svg" xmlns:xlink="http://www.w3.org/1999/xlink">
<g id="graph0" class="graph" transform="scale(1 1) rotate(0) translate(4 292)">
<title>lemons::dsp::FX::DeEsser&lt; SampleType &gt;</title>
<!-- Node1 -->
<g id="node1" class="node">
<title>Node1</title>
<g id="a_node1"><a xlink:title="A basic &quot;de&#45;esser&quot; effect class.">
<polygon fill="#bfbfbf" stroke="black" points="14.5,-0.5 14.5,-30.5 147.5,-30.5 147.5,-0.5 14.5,-0.5"/>
<text text-anchor="start" x="22.5" y="-18.5" font-family="Helvetica,sans-Serif" font-size="10.00">lemons::dsp::FX::DeEsser</text>
<text text-anchor="middle" x="81" y="-7.5" font-family="Helvetica,sans-Serif" font-size="10.00">&lt; SampleType &gt;</text>
</a>
</g>
</g>
<!-- Node2 -->
<g id="node2" class="node">
<title>Node2</title>
<g id="a_node2"><a xlink:href="structlemons_1_1dsp_1_1FX_1_1LevelReportingAudioEffect.html" target="_top" xlink:title="Base class for audio effects that can report their level or gain reduction.">
<polygon fill="none" stroke="black" points="0,-67.5 0,-97.5 162,-97.5 162,-67.5 0,-67.5"/>
<text text-anchor="start" x="8" y="-85.5" font-family="Helvetica,sans-Serif" font-size="10.00">lemons::dsp::FX::LevelReporting</text>
<text text-anchor="middle" x="81" y="-74.5" font-family="Helvetica,sans-Serif" font-size="10.00">AudioEffect&lt; SampleType &gt;</text>
</a>
</g>
</g>
<!-- Node2&#45;&gt;Node1 -->
<g id="edge1" class="edge">
<title>Node2&#45;&gt;Node1</title>
<path fill="none" stroke="midnightblue" d="M81,-57.11C81,-48.15 81,-38.32 81,-30.58"/>
<polygon fill="midnightblue" stroke="midnightblue" points="77.5,-57.4 81,-67.4 84.5,-57.4 77.5,-57.4"/>
</g>
<!-- Node3 -->
<g id="node3" class="node">
<title>Node3</title>
<g id="a_node3"><a xlink:href="structlemons_1_1dsp_1_1FX_1_1SidechainableAudioEffect.html" target="_top" xlink:title="Base class for audio effects that accept a sidechain signal.">
<polygon fill="none" stroke="black" points="2.5,-134.5 2.5,-164.5 159.5,-164.5 159.5,-134.5 2.5,-134.5"/>
<text text-anchor="start" x="10.5" y="-152.5" font-family="Helvetica,sans-Serif" font-size="10.00">lemons::dsp::FX::Sidechainable</text>
<text text-anchor="middle" x="81" y="-141.5" font-family="Helvetica,sans-Serif" font-size="10.00">AudioEffect&lt; SampleType &gt;</text>
</a>
</g>
</g>
<!-- Node3&#45;&gt;Node2 -->
<g id="edge2" class="edge">
<title>Node3&#45;&gt;Node2</title>
<path fill="none" stroke="midnightblue" d="M81,-124.11C81,-115.15 81,-105.32 81,-97.58"/>
<polygon fill="midnightblue" stroke="midnightblue" points="77.5,-124.4 81,-134.4 84.5,-124.4 77.5,-124.4"/>
</g>
<!-- Node4 -->
<g id="node4" class="node">
<title>Node4</title>
<g id="a_node4"><a xlink:href="structlemons_1_1dsp_1_1FX_1_1AudioEffect.html" target="_top" xlink:title="Base class for any kind of audio effect.">
<polygon fill="none" stroke="black" points="8.5,-201.5 8.5,-231.5 153.5,-231.5 153.5,-201.5 8.5,-201.5"/>
<text text-anchor="start" x="16.5" y="-219.5" font-family="Helvetica,sans-Serif" font-size="10.00">lemons::dsp::FX::AudioEffect</text>
<text text-anchor="middle" x="81" y="-208.5" font-family="Helvetica,sans-Serif" font-size="10.00">&lt; SampleType &gt;</text>
</a>
</g>
</g>
<!-- Node4&#45;&gt;Node3 -->
<g id="edge3" class="edge">
<title>Node4&#45;&gt;Node3</title>
<path fill="none" stroke="midnightblue" d="M81,-191.11C81,-182.15 81,-172.32 81,-164.58"/>
<polygon fill="midnightblue" stroke="midnightblue" points="77.5,-191.4 81,-201.4 84.5,-191.4 77.5,-191.4"/>
</g>
<!-- Node5 -->
<g id="node5" class="node">
<title>Node5</title>
<g id="a_node5"><a xlink:href="structlemons_1_1SerializableData.html" target="_top" xlink:title="Base class for any C++ object that needs to be serialized to binary and back.">
<polygon fill="none" stroke="black" points="17.5,-268.5 17.5,-287.5 144.5,-287.5 144.5,-268.5 17.5,-268.5"/>
<text text-anchor="middle" x="81" y="-275.5" font-family="Helvetica,sans-Serif" font-size="10.00">lemons::SerializableData</text>
</a>
</g>
</g>
<!-- Node5&#45;&gt;Node4 -->
<g id="edge4" class="edge">
<title>Node5&#45;&gt;Node4</title>
<path fill="none" stroke="midnightblue" d="M81,-258.23C81,-249.59 81,-239.5 81,-231.52"/>
<polygon fill="midnightblue" stroke="midnightblue" points="77.5,-258.48 81,-268.48 84.5,-258.48 77.5,-258.48"/>
</g>
</g>
</svg>
