<?xml version="1.0" encoding="UTF-8" standalone="no"?>
<!DOCTYPE svg PUBLIC "-//W3C//DTD SVG 1.1//EN"
 "http://www.w3.org/Graphics/SVG/1.1/DTD/svg11.dtd">
<!-- Generated by graphviz version 2.43.0 (0)
 -->
<!-- Title: lemons::plugin::TypedParameter&lt; ValueType &gt; Pages: 1 -->
<svg width="1297pt" height="470pt"
 viewBox="0.00 0.00 1297.00 470.00" xmlns="http://www.w3.org/2000/svg" xmlns:xlink="http://www.w3.org/1999/xlink">
<g id="graph0" class="graph" transform="scale(1 1) rotate(0) translate(4 466)">
<title>lemons::plugin::TypedParameter&lt; ValueType &gt;</title>
<!-- Node1 -->
<g id="node1" class="node">
<title>Node1</title>
<g id="a_node1"><a xlink:title=" ">
<polygon fill="#bfbfbf" stroke="black" points="377,-210.5 377,-240.5 550,-240.5 550,-210.5 377,-210.5"/>
<text text-anchor="start" x="385" y="-228.5" font-family="Helvetica,sans-Serif" font-size="10.00">lemons::plugin::TypedParameter</text>
<text text-anchor="middle" x="463.5" y="-217.5" font-family="Helvetica,sans-Serif" font-size="10.00">&lt; ValueType &gt;</text>
</a>
</g>
</g>
<!-- Node4 -->
<g id="node4" class="node">
<title>Node4</title>
<g id="a_node4"><a xlink:href="structlemons_1_1plugin_1_1_frequency_parameter.html" target="_top" xlink:title=" ">
<polygon fill="none" stroke="black" points="654,-431.5 654,-461.5 799,-461.5 799,-431.5 654,-431.5"/>
<text text-anchor="start" x="662" y="-449.5" font-family="Helvetica,sans-Serif" font-size="10.00">lemons::plugin::Frequency</text>
<text text-anchor="middle" x="726.5" y="-438.5" font-family="Helvetica,sans-Serif" font-size="10.00">Parameter</text>
</a>
</g>
</g>
<!-- Node1&#45;&gt;Node4 -->
<g id="edge3" class="edge">
<title>Node1&#45;&gt;Node4</title>
<path fill="none" stroke="midnightblue" d="M477.31,-249.36C501.6,-292.04 558.76,-380.87 634,-422.5 640.18,-425.92 646.86,-428.87 653.71,-431.4"/>
<polygon fill="midnightblue" stroke="midnightblue" points="480.3,-247.53 472.36,-240.51 474.18,-250.95 480.3,-247.53"/>
</g>
<!-- Node5 -->
<g id="node5" class="node">
<title>Node5</title>
<g id="a_node5"><a xlink:href="classlemons_1_1plugin_1_1_meta_parameter.html" target="_top" xlink:title=" ">
<polygon fill="none" stroke="black" points="641.5,-333.5 641.5,-363.5 811.5,-363.5 811.5,-333.5 641.5,-333.5"/>
<text text-anchor="start" x="649.5" y="-351.5" font-family="Helvetica,sans-Serif" font-size="10.00">lemons::plugin::MetaParameter</text>
<text text-anchor="middle" x="726.5" y="-340.5" font-family="Helvetica,sans-Serif" font-size="10.00">&lt; ValueType &gt;</text>
</a>
</g>
</g>
<!-- Node1&#45;&gt;Node5 -->
<g id="edge4" class="edge">
<title>Node1&#45;&gt;Node5</title>
<path fill="none" stroke="midnightblue" d="M494.66,-246.54C527.58,-268.66 582.48,-303.17 634,-324.5 642.04,-327.83 650.68,-330.81 659.31,-333.44"/>
<polygon fill="midnightblue" stroke="midnightblue" points="496.22,-243.37 485.98,-240.65 492.29,-249.16 496.22,-243.37"/>
</g>
<!-- Node8 -->
<g id="node8" class="node">
<title>Node8</title>
<g id="a_node8"><a xlink:href="structlemons_1_1plugin_1_1_meter_parameter.html" target="_top" xlink:title=" ">
<polygon fill="none" stroke="black" points="640,-382.5 640,-412.5 813,-412.5 813,-382.5 640,-382.5"/>
<text text-anchor="start" x="648" y="-400.5" font-family="Helvetica,sans-Serif" font-size="10.00">lemons::plugin::MeterParameter</text>
<text text-anchor="middle" x="726.5" y="-389.5" font-family="Helvetica,sans-Serif" font-size="10.00">&lt; ValueType &gt;</text>
</a>
</g>
</g>
<!-- Node1&#45;&gt;Node8 -->
<g id="edge7" class="edge">
<title>Node1&#45;&gt;Node8</title>
<path fill="none" stroke="midnightblue" d="M484.03,-248.5C513.24,-281.37 571.57,-341.34 634,-373.5 640.57,-376.88 647.66,-379.82 654.88,-382.36"/>
<polygon fill="midnightblue" stroke="midnightblue" points="486.47,-245.98 477.25,-240.76 481.21,-250.59 486.47,-245.98"/>
</g>
<!-- Node11 -->
<g id="node11" class="node">
<title>Node11</title>
<g id="a_node11"><a xlink:href="structlemons_1_1plugin_1_1_midi_pan_parameter.html" target="_top" xlink:title=" ">
<polygon fill="none" stroke="black" points="635,-235.5 635,-265.5 818,-265.5 818,-235.5 635,-235.5"/>
<text text-anchor="start" x="643" y="-253.5" font-family="Helvetica,sans-Serif" font-size="10.00">lemons::plugin::MidiPanParameter</text>
<text text-anchor="middle" x="726.5" y="-242.5" font-family="Helvetica,sans-Serif" font-size="10.00">&lt; int &gt;</text>
</a>
</g>
</g>
<!-- Node1&#45;&gt;Node11 -->
<g id="edge10" class="edge">
<title>Node1&#45;&gt;Node11</title>
<path fill="none" stroke="midnightblue" d="M560.59,-234.7C584.81,-237.02 610.74,-239.51 634.69,-241.8"/>
<polygon fill="midnightblue" stroke="midnightblue" points="560.61,-231.19 550.32,-233.72 559.94,-238.16 560.61,-231.19"/>
</g>
<!-- Node12 -->
<g id="node12" class="node">
<title>Node12</title>
<g id="a_node12"><a xlink:href="structlemons_1_1plugin_1_1_midi_pitch_parameter.html" target="_top" xlink:title=" ">
<polygon fill="none" stroke="black" points="656.5,-186.5 656.5,-216.5 796.5,-216.5 796.5,-186.5 656.5,-186.5"/>
<text text-anchor="start" x="664.5" y="-204.5" font-family="Helvetica,sans-Serif" font-size="10.00">lemons::plugin::MidiPitch</text>
<text text-anchor="middle" x="726.5" y="-193.5" font-family="Helvetica,sans-Serif" font-size="10.00">Parameter</text>
</a>
</g>
</g>
<!-- Node1&#45;&gt;Node12 -->
<g id="edge11" class="edge">
<title>Node1&#45;&gt;Node12</title>
<path fill="none" stroke="midnightblue" d="M560.5,-216.67C592.2,-213.76 626.83,-210.57 656.14,-207.88"/>
<polygon fill="midnightblue" stroke="midnightblue" points="559.96,-213.21 550.32,-217.61 560.6,-220.18 559.96,-213.21"/>
</g>
<!-- Node13 -->
<g id="node13" class="node">
<title>Node13</title>
<g id="a_node13"><a xlink:href="structlemons_1_1plugin_1_1_percent_parameter.html" target="_top" xlink:title=" ">
<polygon fill="none" stroke="black" points="635.5,-137.5 635.5,-167.5 817.5,-167.5 817.5,-137.5 635.5,-137.5"/>
<text text-anchor="start" x="643.5" y="-155.5" font-family="Helvetica,sans-Serif" font-size="10.00">lemons::plugin::PercentParameter</text>
<text text-anchor="middle" x="726.5" y="-144.5" font-family="Helvetica,sans-Serif" font-size="10.00">&lt; int &gt;</text>
</a>
</g>
</g>
<!-- Node1&#45;&gt;Node13 -->
<g id="edge12" class="edge">
<title>Node1&#45;&gt;Node13</title>
<path fill="none" stroke="midnightblue" d="M524.96,-207.63C557.26,-198.18 597.74,-186.5 634,-176.5 644.77,-173.53 656.27,-170.45 667.36,-167.52"/>
<polygon fill="midnightblue" stroke="midnightblue" points="523.83,-204.31 515.21,-210.48 525.79,-211.03 523.83,-204.31"/>
</g>
<!-- Node14 -->
<g id="node14" class="node">
<title>Node14</title>
<g id="a_node14"><a xlink:href="structlemons_1_1plugin_1_1_seconds_parameter.html" target="_top" xlink:title=" ">
<polygon fill="none" stroke="black" points="634,-99 634,-118 819,-118 819,-99 634,-99"/>
<text text-anchor="middle" x="726.5" y="-106" font-family="Helvetica,sans-Serif" font-size="10.00">lemons::plugin::SecondsParameter</text>
</a>
</g>
</g>
<!-- Node1&#45;&gt;Node14 -->
<g id="edge13" class="edge">
<title>Node1&#45;&gt;Node14</title>
<path fill="none" stroke="midnightblue" d="M493.94,-204.54C526.65,-182.23 581.75,-147.44 634,-127.5 644,-123.68 654.93,-120.57 665.64,-118.05"/>
<polygon fill="midnightblue" stroke="midnightblue" points="491.57,-201.92 485.33,-210.48 495.55,-207.68 491.57,-201.92"/>
</g>
<!-- Node15 -->
<g id="node15" class="node">
<title>Node15</title>
<g id="a_node15"><a xlink:href="structlemons_1_1plugin_1_1_semitones_parameter.html" target="_top" xlink:title=" ">
<polygon fill="none" stroke="black" points="653.5,-49.5 653.5,-79.5 799.5,-79.5 799.5,-49.5 653.5,-49.5"/>
<text text-anchor="start" x="661.5" y="-67.5" font-family="Helvetica,sans-Serif" font-size="10.00">lemons::plugin::Semitones</text>
<text text-anchor="middle" x="726.5" y="-56.5" font-family="Helvetica,sans-Serif" font-size="10.00">Parameter</text>
</a>
</g>
</g>
<!-- Node1&#45;&gt;Node15 -->
<g id="edge14" class="edge">
<title>Node1&#45;&gt;Node15</title>
<path fill="none" stroke="midnightblue" d="M485.09,-202.94C514.77,-171.97 572.76,-117 634,-89.5 642.41,-85.72 651.52,-82.4 660.62,-79.52"/>
<polygon fill="midnightblue" stroke="midnightblue" points="482.5,-200.59 478.17,-210.26 487.59,-205.4 482.5,-200.59"/>
</g>
<!-- Node16 -->
<g id="node16" class="node">
<title>Node16</title>
<g id="a_node16"><a xlink:href="classlemons_1_1plugin_1_1_typed_parameter.html" target="_top" xlink:title=" ">
<polygon fill="none" stroke="black" points="640,-284.5 640,-314.5 813,-314.5 813,-284.5 640,-284.5"/>
<text text-anchor="start" x="648" y="-302.5" font-family="Helvetica,sans-Serif" font-size="10.00">lemons::plugin::TypedParameter</text>
<text text-anchor="middle" x="726.5" y="-291.5" font-family="Helvetica,sans-Serif" font-size="10.00">&lt; float &gt;</text>
</a>
</g>
</g>
<!-- Node1&#45;&gt;Node16 -->
<g id="edge15" class="edge">
<title>Node1&#45;&gt;Node16</title>
<path fill="none" stroke="orange" stroke-dasharray="5,2" d="M523.87,-243.49C556.34,-253.21 597.31,-265.28 634,-275.5 644.6,-278.45 655.92,-281.5 666.85,-284.4"/>
<polygon fill="orange" stroke="orange" points="524.66,-240.08 514.08,-240.56 522.65,-246.78 524.66,-240.08"/>
<text text-anchor="middle" x="592" y="-272.5" font-family="Helvetica,sans-Serif" font-size="10.00"> &lt; float &gt;</text>
</g>
<!-- Node19 -->
<g id="node19" class="node">
<title>Node19</title>
<g id="a_node19"><a xlink:href="classlemons_1_1plugin_1_1_typed_parameter.html" target="_top" xlink:title=" ">
<polygon fill="none" stroke="black" points="640,-0.5 640,-30.5 813,-30.5 813,-0.5 640,-0.5"/>
<text text-anchor="start" x="648" y="-18.5" font-family="Helvetica,sans-Serif" font-size="10.00">lemons::plugin::TypedParameter</text>
<text text-anchor="middle" x="726.5" y="-7.5" font-family="Helvetica,sans-Serif" font-size="10.00">&lt; bool &gt;</text>
</a>
</g>
</g>
<!-- Node1&#45;&gt;Node19 -->
<g id="edge20" class="edge">
<title>Node1&#45;&gt;Node19</title>
<path fill="none" stroke="orange" stroke-dasharray="5,2" d="M477.57,-201.54C501.94,-159.65 558.75,-74.25 634,-39.5 641.31,-36.13 649.17,-33.16 657.1,-30.58"/>
<polygon fill="orange" stroke="orange" points="474.38,-200.07 472.47,-210.49 480.46,-203.54 474.38,-200.07"/>
<text text-anchor="middle" x="592" y="-84.5" font-family="Helvetica,sans-Serif" font-size="10.00"> &lt; bool &gt;</text>
</g>
<!-- Node2 -->
<g id="node2" class="node">
<title>Node2</title>
<g id="a_node2"><a xlink:href="classlemons_1_1plugin_1_1_parameter.html" target="_top" xlink:title=" ">
<polygon fill="none" stroke="black" points="195,-216 195,-235 340,-235 340,-216 195,-216"/>
<text text-anchor="middle" x="267.5" y="-223" font-family="Helvetica,sans-Serif" font-size="10.00">lemons::plugin::Parameter</text>
</a>
</g>
</g>
<!-- Node2&#45;&gt;Node1 -->
<g id="edge1" class="edge">
<title>Node2&#45;&gt;Node1</title>
<path fill="none" stroke="midnightblue" d="M350.41,-225.5C359.2,-225.5 368.16,-225.5 376.99,-225.5"/>
<polygon fill="midnightblue" stroke="midnightblue" points="350.19,-222 340.19,-225.5 350.19,-229 350.19,-222"/>
</g>
<!-- Node3 -->
<g id="node3" class="node">
<title>Node3</title>
<g id="a_node3"><a xlink:title=" ">
<polygon fill="none" stroke="#bfbfbf" points="0,-216 0,-235 158,-235 158,-216 0,-216"/>
<text text-anchor="middle" x="79" y="-223" font-family="Helvetica,sans-Serif" font-size="10.00">juce::RangedAudioParameter</text>
</a>
</g>
</g>
<!-- Node3&#45;&gt;Node2 -->
<g id="edge2" class="edge">
<title>Node3&#45;&gt;Node2</title>
<path fill="none" stroke="midnightblue" d="M168.06,-225.5C177.01,-225.5 186.01,-225.5 194.75,-225.5"/>
<polygon fill="midnightblue" stroke="midnightblue" points="168.01,-222 158.01,-225.5 168.01,-229 168.01,-222"/>
</g>
<!-- Node6 -->
<g id="node6" class="node">
<title>Node6</title>
<g id="a_node6"><a xlink:href="classlemons_1_1plugin_1_1_meta_parameter.html" target="_top" xlink:title=" ">
<polygon fill="none" stroke="black" points="904.5,-318.5 904.5,-348.5 1074.5,-348.5 1074.5,-318.5 904.5,-318.5"/>
<text text-anchor="start" x="912.5" y="-336.5" font-family="Helvetica,sans-Serif" font-size="10.00">lemons::plugin::MetaParameter</text>
<text text-anchor="middle" x="989.5" y="-325.5" font-family="Helvetica,sans-Serif" font-size="10.00">&lt; float &gt;</text>
</a>
</g>
</g>
<!-- Node5&#45;&gt;Node6 -->
<g id="edge5" class="edge">
<title>Node5&#45;&gt;Node6</title>
<path fill="none" stroke="orange" stroke-dasharray="5,2" d="M821.73,-343.08C848.68,-341.54 877.87,-339.86 904.19,-338.35"/>
<polygon fill="orange" stroke="orange" points="821.3,-339.6 811.52,-343.67 821.7,-346.59 821.3,-339.6"/>
<text text-anchor="middle" x="861" y="-344.5" font-family="Helvetica,sans-Serif" font-size="10.00"> &lt; float &gt;</text>
</g>
<!-- Node7 -->
<g id="node7" class="node">
<title>Node7</title>
<g id="a_node7"><a xlink:href="structlemons_1_1plugin_1_1_l_f_o.html" target="_top" xlink:title=" ">
<polygon fill="none" stroke="black" points="1144.5,-324 1144.5,-343 1257.5,-343 1257.5,-324 1144.5,-324"/>
<text text-anchor="middle" x="1201" y="-331" font-family="Helvetica,sans-Serif" font-size="10.00">lemons::plugin::LFO</text>
</a>
</g>
</g>
<!-- Node6&#45;&gt;Node7 -->
<g id="edge6" class="edge">
<title>Node6&#45;&gt;Node7</title>
<path fill="none" stroke="midnightblue" d="M1084.75,-333.5C1105.08,-333.5 1125.94,-333.5 1144.23,-333.5"/>
<polygon fill="midnightblue" stroke="midnightblue" points="1084.5,-330 1074.5,-333.5 1084.5,-337 1084.5,-330"/>
</g>
<!-- Node9 -->
<g id="node9" class="node">
<title>Node9</title>
<g id="a_node9"><a xlink:href="structlemons_1_1plugin_1_1_meter_parameter.html" target="_top" xlink:title=" ">
<polygon fill="none" stroke="black" points="903,-372.5 903,-402.5 1076,-402.5 1076,-372.5 903,-372.5"/>
<text text-anchor="start" x="911" y="-390.5" font-family="Helvetica,sans-Serif" font-size="10.00">lemons::plugin::MeterParameter</text>
<text text-anchor="middle" x="989.5" y="-379.5" font-family="Helvetica,sans-Serif" font-size="10.00">&lt; float &gt;</text>
</a>
</g>
</g>
<!-- Node8&#45;&gt;Node9 -->
<g id="edge8" class="edge">
<title>Node8&#45;&gt;Node9</title>
<path fill="none" stroke="orange" stroke-dasharray="5,2" d="M823.53,-393.82C849.44,-392.83 877.31,-391.76 902.63,-390.79"/>
<polygon fill="orange" stroke="orange" points="823.18,-390.33 813.32,-394.21 823.45,-397.33 823.18,-390.33"/>
<text text-anchor="middle" x="861" y="-395.5" font-family="Helvetica,sans-Serif" font-size="10.00"> &lt; float &gt;</text>
</g>
<!-- Node10 -->
<g id="node10" class="node">
<title>Node10</title>
<g id="a_node10"><a xlink:href="structlemons_1_1plugin_1_1_gain_meter_parameter.html" target="_top" xlink:title=" ">
<polygon fill="none" stroke="black" points="1128,-372.5 1128,-402.5 1274,-402.5 1274,-372.5 1128,-372.5"/>
<text text-anchor="start" x="1136" y="-390.5" font-family="Helvetica,sans-Serif" font-size="10.00">lemons::plugin::GainMeter</text>
<text text-anchor="middle" x="1201" y="-379.5" font-family="Helvetica,sans-Serif" font-size="10.00">Parameter</text>
</a>
</g>
</g>
<!-- Node9&#45;&gt;Node10 -->
<g id="edge9" class="edge">
<title>Node9&#45;&gt;Node10</title>
<path fill="none" stroke="midnightblue" d="M1086.16,-387.5C1100.16,-387.5 1114.39,-387.5 1127.81,-387.5"/>
<polygon fill="midnightblue" stroke="midnightblue" points="1086.01,-384 1076.01,-387.5 1086.01,-391 1086.01,-384"/>
</g>
<!-- Node16&#45;&gt;Node6 -->
<g id="edge18" class="edge">
<title>Node16&#45;&gt;Node6</title>
<path fill="none" stroke="midnightblue" d="M823.04,-307.26C843.52,-309.3 865.01,-311.72 885,-314.5 893.32,-315.66 902,-317.01 910.63,-318.46"/>
<polygon fill="midnightblue" stroke="midnightblue" points="823.37,-303.78 813.08,-306.29 822.69,-310.74 823.37,-303.78"/>
</g>
<!-- Node16&#45;&gt;Node9 -->
<g id="edge19" class="edge">
<title>Node16&#45;&gt;Node9</title>
<path fill="none" stroke="midnightblue" d="M822.84,-314.56C844.2,-320.38 866.11,-328.42 885,-339.5 895.03,-345.39 893.21,-352.23 903,-358.5 911.58,-364 921.31,-368.57 931.06,-372.34"/>
<polygon fill="midnightblue" stroke="midnightblue" points="823.63,-311.15 813.07,-312.04 821.88,-317.93 823.63,-311.15"/>
</g>
<!-- Node17 -->
<g id="node17" class="node">
<title>Node17</title>
<g id="a_node17"><a xlink:href="structlemons_1_1plugin_1_1_float_amount_parameter.html" target="_top" xlink:title=" ">
<polygon fill="none" stroke="black" points="910.5,-260.5 910.5,-290.5 1068.5,-290.5 1068.5,-260.5 910.5,-260.5"/>
<text text-anchor="start" x="918.5" y="-278.5" font-family="Helvetica,sans-Serif" font-size="10.00">lemons::plugin::FloatAmount</text>
<text text-anchor="middle" x="989.5" y="-267.5" font-family="Helvetica,sans-Serif" font-size="10.00">Parameter</text>
</a>
</g>
</g>
<!-- Node16&#45;&gt;Node17 -->
<g id="edge16" class="edge">
<title>Node16&#45;&gt;Node17</title>
<path fill="none" stroke="midnightblue" d="M823.31,-290.69C851.87,-288.06 882.82,-285.22 910.12,-282.71"/>
<polygon fill="midnightblue" stroke="midnightblue" points="822.96,-287.21 813.32,-291.61 823.6,-294.18 822.96,-287.21"/>
</g>
<!-- Node18 -->
<g id="node18" class="node">
<title>Node18</title>
<g id="a_node18"><a xlink:href="structlemons_1_1plugin_1_1_gain_parameter.html" target="_top" xlink:title=" ">
<polygon fill="none" stroke="black" points="906,-222 906,-241 1073,-241 1073,-222 906,-222"/>
<text text-anchor="middle" x="989.5" y="-229" font-family="Helvetica,sans-Serif" font-size="10.00">lemons::plugin::GainParameter</text>
</a>
</g>
</g>
<!-- Node16&#45;&gt;Node18 -->
<g id="edge17" class="edge">
<title>Node16&#45;&gt;Node18</title>
<path fill="none" stroke="midnightblue" d="M795.33,-281.89C803.31,-279.76 811.34,-277.6 819,-275.5 856.45,-265.24 865.42,-261.26 903,-251.5 916.87,-247.9 932.08,-244.25 945.78,-241.06"/>
<polygon fill="midnightblue" stroke="midnightblue" points="794.41,-278.51 785.64,-284.45 796.2,-285.28 794.41,-278.51"/>
</g>
<!-- Node20 -->
<g id="node20" class="node">
<title>Node20</title>
<g id="a_node20"><a xlink:href="structlemons_1_1plugin_1_1_bool_parameter.html" target="_top" xlink:title=" ">
<polygon fill="none" stroke="black" points="906,-6 906,-25 1073,-25 1073,-6 906,-6"/>
<text text-anchor="middle" x="989.5" y="-13" font-family="Helvetica,sans-Serif" font-size="10.00">lemons::plugin::BoolParameter</text>
</a>
</g>
</g>
<!-- Node19&#45;&gt;Node20 -->
<g id="edge21" class="edge">
<title>Node19&#45;&gt;Node20</title>
<path fill="none" stroke="midnightblue" d="M823.55,-15.5C850.52,-15.5 879.61,-15.5 905.73,-15.5"/>
<polygon fill="midnightblue" stroke="midnightblue" points="823.32,-12 813.32,-15.5 823.32,-19 823.32,-12"/>
</g>
<!-- Node21 -->
<g id="node21" class="node">
<title>Node21</title>
<g id="a_node21"><a xlink:href="structlemons_1_1plugin_1_1_toggle_parameter.html" target="_top" xlink:title=" ">
<polygon fill="none" stroke="black" points="1113,-6 1113,-25 1289,-25 1289,-6 1113,-6"/>
<text text-anchor="middle" x="1201" y="-13" font-family="Helvetica,sans-Serif" font-size="10.00">lemons::plugin::ToggleParameter</text>
</a>
</g>
</g>
<!-- Node20&#45;&gt;Node21 -->
<g id="edge22" class="edge">
<title>Node20&#45;&gt;Node21</title>
<path fill="none" stroke="midnightblue" d="M1083.46,-15.5C1093.28,-15.5 1103.24,-15.5 1112.98,-15.5"/>
<polygon fill="midnightblue" stroke="midnightblue" points="1083.3,-12 1073.3,-15.5 1083.3,-19 1083.3,-12"/>
</g>
</g>
</svg>
