<?xml version="1.0" encoding="UTF-8" standalone="no"?>
<!DOCTYPE svg PUBLIC "-//W3C//DTD SVG 1.1//EN"
 "http://www.w3.org/Graphics/SVG/1.1/DTD/svg11.dtd">
<!-- Generated by graphviz version 2.43.0 (0)
 -->
<!-- Title: lemons::dsp::BuiltEngineChain&lt; SampleType, EngineTypes &gt; Pages: 1 -->
<svg width="201pt" height="240pt"
 viewBox="0.00 0.00 201.00 240.00" xmlns="http://www.w3.org/2000/svg" xmlns:xlink="http://www.w3.org/1999/xlink">
<g id="graph0" class="graph" transform="scale(1 1) rotate(0) translate(4 236)">
<title>lemons::dsp::BuiltEngineChain&lt; SampleType, EngineTypes &gt;</title>
<!-- Node1 -->
<g id="node1" class="node">
<title>Node1</title>
<g id="a_node1"><a xlink:title=" ">
<polygon fill="#bfbfbf" stroke="black" points="0,-0.5 0,-30.5 193,-30.5 193,-0.5 0,-0.5"/>
<text text-anchor="start" x="8" y="-18.5" font-family="Helvetica,sans-Serif" font-size="10.00">lemons::dsp::BuiltEngine</text>
<text text-anchor="middle" x="96.5" y="-7.5" font-family="Helvetica,sans-Serif" font-size="10.00">Chain&lt; SampleType, EngineTypes &gt;</text>
</a>
</g>
</g>
<!-- Node2 -->
<g id="node2" class="node">
<title>Node2</title>
<g id="a_node2"><a xlink:href="classlemons_1_1dsp_1_1_engine_chain.html" target="_top" xlink:title=" ">
<polygon fill="none" stroke="black" points="25,-67.5 25,-97.5 168,-97.5 168,-67.5 25,-67.5"/>
<text text-anchor="start" x="33" y="-85.5" font-family="Helvetica,sans-Serif" font-size="10.00">lemons::dsp::EngineChain</text>
<text text-anchor="middle" x="96.5" y="-74.5" font-family="Helvetica,sans-Serif" font-size="10.00">&lt; SampleType &gt;</text>
</a>
</g>
</g>
<!-- Node2&#45;&gt;Node1 -->
<g id="edge1" class="edge">
<title>Node2&#45;&gt;Node1</title>
<path fill="none" stroke="midnightblue" d="M96.5,-57.11C96.5,-48.15 96.5,-38.32 96.5,-30.58"/>
<polygon fill="midnightblue" stroke="midnightblue" points="93,-57.4 96.5,-67.4 100,-57.4 93,-57.4"/>
</g>
<!-- Node3 -->
<g id="node3" class="node">
<title>Node3</title>
<g id="a_node3"><a xlink:href="classlemons_1_1dsp_1_1_latency_engine.html" target="_top" xlink:title=" ">
<polygon fill="none" stroke="black" points="20,-134.5 20,-164.5 173,-164.5 173,-134.5 20,-134.5"/>
<text text-anchor="start" x="28" y="-152.5" font-family="Helvetica,sans-Serif" font-size="10.00">lemons::dsp::LatencyEngine</text>
<text text-anchor="middle" x="96.5" y="-141.5" font-family="Helvetica,sans-Serif" font-size="10.00">&lt; SampleType &gt;</text>
</a>
</g>
</g>
<!-- Node3&#45;&gt;Node2 -->
<g id="edge2" class="edge">
<title>Node3&#45;&gt;Node2</title>
<path fill="none" stroke="midnightblue" d="M96.5,-124.11C96.5,-115.15 96.5,-105.32 96.5,-97.58"/>
<polygon fill="midnightblue" stroke="midnightblue" points="93,-124.4 96.5,-134.4 100,-124.4 93,-124.4"/>
</g>
<!-- Node4 -->
<g id="node4" class="node">
<title>Node4</title>
<g id="a_node4"><a xlink:href="classlemons_1_1dsp_1_1_engine.html" target="_top" xlink:title=" ">
<polygon fill="none" stroke="black" points="39,-201.5 39,-231.5 154,-231.5 154,-201.5 39,-201.5"/>
<text text-anchor="start" x="47" y="-219.5" font-family="Helvetica,sans-Serif" font-size="10.00">lemons::dsp::Engine</text>
<text text-anchor="middle" x="96.5" y="-208.5" font-family="Helvetica,sans-Serif" font-size="10.00">&lt; SampleType &gt;</text>
</a>
</g>
</g>
<!-- Node4&#45;&gt;Node3 -->
<g id="edge3" class="edge">
<title>Node4&#45;&gt;Node3</title>
<path fill="none" stroke="midnightblue" d="M96.5,-191.11C96.5,-182.15 96.5,-172.32 96.5,-164.58"/>
<polygon fill="midnightblue" stroke="midnightblue" points="93,-191.4 96.5,-201.4 100,-191.4 93,-191.4"/>
</g>
</g>
</svg>
