<?xml version="1.0" encoding="UTF-8" standalone="no"?>
<!DOCTYPE svg PUBLIC "-//W3C//DTD SVG 1.1//EN"
 "http://www.w3.org/Graphics/SVG/1.1/DTD/svg11.dtd">
<!-- Generated by graphviz version 2.43.0 (0)
 -->
<!-- Title: lemons::plugin::Parameter Pages: 1 -->
<!--zoomable 482 -->
<svg id="main" version="1.1" xmlns="http://www.w3.org/2000/svg" xmlns:xlink="http://www.w3.org/1999/xlink" xml:space="preserve" onload="init(evt)">
<style type="text/css"><![CDATA[
.edge:hover path { stroke: red; }
.edge:hover polygon { stroke: red; fill: red; }
]]></style>
<script type="text/javascript"><![CDATA[
var edges = document.getElementsByTagName('g');
if (edges && edges.length) {
  for (var i=0;i<edges.length;i++) {
    if (edges[i].id.substr(0,4)=='edge') {
      edges[i].setAttribute('class','edge');
    }
  }
}
]]></script>
        <defs>
                <circle id="rim" cx="0" cy="0" r="7"/>
                <circle id="rim2" cx="0" cy="0" r="3.5"/>
                <g id="zoomPlus">
                        <use xlink:href="#rim" fill="#404040">
                                <set attributeName="fill" to="#808080" begin="zoomplus.mouseover" end="zoomplus.mouseout"/>
                        </use>
                        <path d="M-4,0h8M0,-4v8" fill="none" stroke="white" stroke-width="1.5" pointer-events="none"/>
                </g>
                <g id="zoomMin">
                        <use xlink:href="#rim" fill="#404040">
                                <set attributeName="fill" to="#808080" begin="zoomminus.mouseover" end="zoomminus.mouseout"/>
                        </use>
                        <path d="M-4,0h8" fill="none" stroke="white" stroke-width="1.5" pointer-events="none"/>
                </g>
                <g id="dirArrow">
                        <path fill="none" stroke="white" stroke-width="1.5" d="M0,-3.0v7 M-2.5,-0.5L0,-3.0L2.5,-0.5"/>
                </g>
               <g id="resetDef">
                       <use xlink:href="#rim2" fill="#404040">
                               <set attributeName="fill" to="#808080" begin="reset.mouseover" end="reset.mouseout"/>
                       </use>
               </g>
        </defs>

<script type="text/javascript">
var viewWidth = 1297;
var viewHeight = 482;
var sectionId = 'dynsection-0';
</script>
<script xlink:href="svgpan.js"/>
<svg id="graph" class="graph">
<g id="viewport">
<title>lemons::plugin::Parameter</title>
<!-- Node1 -->
<g id="node1" class="node">
<title>Node1</title>
<g id="a_node1"><a xlink:title=" ">
<polygon fill="#bfbfbf" stroke="black" points="195,-202 195,-221 340,-221 340,-202 195,-202"/>
<text text-anchor="middle" x="267.5" y="-209" font-family="Helvetica,sans-Serif" font-size="10.00">lemons::plugin::Parameter</text>
</a>
</g>
</g>
<!-- Node3 -->
<g id="node3" class="node">
<title>Node3</title>
<g id="a_node3"><a xlink:href="classlemons_1_1plugin_1_1_typed_parameter.html" target="_top" xlink:title=" ">
<polygon fill="none" stroke="black" points="377,-196.5 377,-226.5 550,-226.5 550,-196.5 377,-196.5"/>
<text text-anchor="start" x="385" y="-214.5" font-family="Helvetica,sans-Serif" font-size="10.00">lemons::plugin::TypedParameter</text>
<text text-anchor="middle" x="463.5" y="-203.5" font-family="Helvetica,sans-Serif" font-size="10.00">&lt; ValueType &gt;</text>
</a>
</g>
</g>
<!-- Node1&#45;&gt;Node3 -->
<g id="edge2" class="edge">
<title>Node1&#45;&gt;Node3</title>
<path fill="none" stroke="midnightblue" d="M350.41,-211.5C359.2,-211.5 368.16,-211.5 376.99,-211.5"/>
<polygon fill="midnightblue" stroke="midnightblue" points="350.19,-208 340.19,-211.5 350.19,-215 350.19,-208"/>
</g>
<!-- Node15 -->
<g id="node15" class="node">
<title>Node15</title>
<g id="a_node15"><a xlink:href="classlemons_1_1plugin_1_1_typed_parameter.html" target="_top" xlink:title=" ">
<polygon fill="none" stroke="black" points="640,-382.5 640,-412.5 813,-412.5 813,-382.5 640,-382.5"/>
<text text-anchor="start" x="648" y="-400.5" font-family="Helvetica,sans-Serif" font-size="10.00">lemons::plugin::TypedParameter</text>
<text text-anchor="middle" x="726.5" y="-389.5" font-family="Helvetica,sans-Serif" font-size="10.00">&lt; float &gt;</text>
</a>
</g>
</g>
<!-- Node1&#45;&gt;Node15 -->
<g id="edge24" class="edge">
<title>Node1&#45;&gt;Node15</title>
<path fill="none" stroke="midnightblue" d="M290,-226.91C337.52,-260.12 456.19,-338.46 568,-375.5 590.67,-383.01 616,-387.96 639.61,-391.21"/>
<polygon fill="midnightblue" stroke="midnightblue" points="291.9,-223.97 281.71,-221.07 287.87,-229.69 291.9,-223.97"/>
</g>
<!-- Node19 -->
<g id="node19" class="node">
<title>Node19</title>
<g id="a_node19"><a xlink:href="classlemons_1_1plugin_1_1_typed_parameter.html" target="_top" xlink:title=" ">
<polygon fill="none" stroke="black" points="640,-0.5 640,-30.5 813,-30.5 813,-0.5 640,-0.5"/>
<text text-anchor="start" x="648" y="-18.5" font-family="Helvetica,sans-Serif" font-size="10.00">lemons::plugin::TypedParameter</text>
<text text-anchor="middle" x="726.5" y="-7.5" font-family="Helvetica,sans-Serif" font-size="10.00">&lt; bool &gt;</text>
</a>
</g>
</g>
<!-- Node1&#45;&gt;Node19 -->
<g id="edge23" class="edge">
<title>Node1&#45;&gt;Node19</title>
<path fill="none" stroke="midnightblue" d="M290.89,-196.3C339.29,-164.16 458.13,-88.91 568,-48.5 590.68,-40.16 616.02,-33.69 639.62,-28.77"/>
<polygon fill="midnightblue" stroke="midnightblue" points="288.8,-193.49 282.44,-201.96 292.69,-199.31 288.8,-193.49"/>
</g>
<!-- Node2 -->
<g id="node2" class="node">
<title>Node2</title>
<g id="a_node2"><a xlink:title=" ">
<polygon fill="none" stroke="#bfbfbf" points="0,-202 0,-221 158,-221 158,-202 0,-202"/>
<text text-anchor="middle" x="79" y="-209" font-family="Helvetica,sans-Serif" font-size="10.00">juce::RangedAudioParameter</text>
</a>
</g>
</g>
<!-- Node2&#45;&gt;Node1 -->
<g id="edge1" class="edge">
<title>Node2&#45;&gt;Node1</title>
<path fill="none" stroke="midnightblue" d="M168.06,-211.5C177.01,-211.5 186.01,-211.5 194.75,-211.5"/>
<polygon fill="midnightblue" stroke="midnightblue" points="168.01,-208 158.01,-211.5 168.01,-215 168.01,-208"/>
</g>
<!-- Node4 -->
<g id="node4" class="node">
<title>Node4</title>
<g id="a_node4"><a xlink:href="classlemons_1_1plugin_1_1_meta_parameter.html" target="_top" xlink:title=" ">
<polygon fill="none" stroke="black" points="641.5,-284.5 641.5,-314.5 811.5,-314.5 811.5,-284.5 641.5,-284.5"/>
<text text-anchor="start" x="649.5" y="-302.5" font-family="Helvetica,sans-Serif" font-size="10.00">lemons::plugin::MetaParameter</text>
<text text-anchor="middle" x="726.5" y="-291.5" font-family="Helvetica,sans-Serif" font-size="10.00">&lt; ValueType &gt;</text>
</a>
</g>
</g>
<!-- Node3&#45;&gt;Node4 -->
<g id="edge3" class="edge">
<title>Node3&#45;&gt;Node4</title>
<path fill="none" stroke="midnightblue" d="M511.81,-230.37C545.58,-243.53 592.25,-261.07 634,-274.5 644.66,-277.93 656.11,-281.3 667.18,-284.4"/>
<polygon fill="midnightblue" stroke="midnightblue" points="512.78,-227 502.2,-226.61 510.23,-233.52 512.78,-227"/>
</g>
<!-- Node7 -->
<g id="node7" class="node">
<title>Node7</title>
<g id="a_node7"><a xlink:href="structlemons_1_1plugin_1_1_meter_parameter.html" target="_top" xlink:title=" ">
<polygon fill="none" stroke="black" points="640,-147.5 640,-177.5 813,-177.5 813,-147.5 640,-147.5"/>
<text text-anchor="start" x="648" y="-165.5" font-family="Helvetica,sans-Serif" font-size="10.00">lemons::plugin::MeterParameter</text>
<text text-anchor="middle" x="726.5" y="-154.5" font-family="Helvetica,sans-Serif" font-size="10.00">&lt; ValueType &gt;</text>
</a>
</g>
</g>
<!-- Node3&#45;&gt;Node7 -->
<g id="edge6" class="edge">
<title>Node3&#45;&gt;Node7</title>
<path fill="none" stroke="midnightblue" d="M554.49,-194.61C584.09,-189.05 616.77,-182.91 645.57,-177.51"/>
<polygon fill="midnightblue" stroke="midnightblue" points="553.76,-191.18 544.58,-196.47 555.06,-198.06 553.76,-191.18"/>
</g>
<!-- Node10 -->
<g id="node10" class="node">
<title>Node10</title>
<g id="a_node10"><a xlink:href="structlemons_1_1plugin_1_1_midi_pan_parameter.html" target="_top" xlink:title=" ">
<polygon fill="none" stroke="black" points="635,-98.5 635,-128.5 818,-128.5 818,-98.5 635,-98.5"/>
<text text-anchor="start" x="643" y="-116.5" font-family="Helvetica,sans-Serif" font-size="10.00">lemons::plugin::MidiPanParameter</text>
<text text-anchor="middle" x="726.5" y="-105.5" font-family="Helvetica,sans-Serif" font-size="10.00">&lt; int &gt;</text>
</a>
</g>
</g>
<!-- Node3&#45;&gt;Node10 -->
<g id="edge9" class="edge">
<title>Node3&#45;&gt;Node10</title>
<path fill="none" stroke="midnightblue" d="M504.28,-192.04C538.19,-175.96 588.53,-153.28 634,-137.5 643.15,-134.32 652.95,-131.34 662.6,-128.62"/>
<polygon fill="midnightblue" stroke="midnightblue" points="502.68,-188.92 495.16,-196.39 505.7,-195.24 502.68,-188.92"/>
</g>
<!-- Node11 -->
<g id="node11" class="node">
<title>Node11</title>
<g id="a_node11"><a xlink:href="structlemons_1_1plugin_1_1_midi_pitch_parameter.html" target="_top" xlink:title=" ">
<polygon fill="none" stroke="black" points="656.5,-49.5 656.5,-79.5 796.5,-79.5 796.5,-49.5 656.5,-49.5"/>
<text text-anchor="start" x="664.5" y="-67.5" font-family="Helvetica,sans-Serif" font-size="10.00">lemons::plugin::MidiPitch</text>
<text text-anchor="middle" x="726.5" y="-56.5" font-family="Helvetica,sans-Serif" font-size="10.00">Parameter</text>
</a>
</g>
</g>
<!-- Node3&#45;&gt;Node11 -->
<g id="edge10" class="edge">
<title>Node3&#45;&gt;Node11</title>
<path fill="none" stroke="midnightblue" d="M488.7,-189.38C520.01,-161.9 577.29,-115.35 634,-88.5 641.12,-85.13 648.79,-82.18 656.55,-79.61"/>
<polygon fill="midnightblue" stroke="midnightblue" points="486.1,-187.01 480.95,-196.27 490.75,-192.24 486.1,-187.01"/>
</g>
<!-- Node12 -->
<g id="node12" class="node">
<title>Node12</title>
<g id="a_node12"><a xlink:href="structlemons_1_1plugin_1_1_percent_parameter.html" target="_top" xlink:title=" ">
<polygon fill="none" stroke="black" points="635.5,-333.5 635.5,-363.5 817.5,-363.5 817.5,-333.5 635.5,-333.5"/>
<text text-anchor="start" x="643.5" y="-351.5" font-family="Helvetica,sans-Serif" font-size="10.00">lemons::plugin::PercentParameter</text>
<text text-anchor="middle" x="726.5" y="-340.5" font-family="Helvetica,sans-Serif" font-size="10.00">&lt; int &gt;</text>
</a>
</g>
</g>
<!-- Node3&#45;&gt;Node12 -->
<g id="edge11" class="edge">
<title>Node3&#45;&gt;Node12</title>
<path fill="none" stroke="midnightblue" d="M491.16,-233.03C523.29,-258.02 579.73,-298.92 634,-323.5 642.25,-327.24 651.18,-330.52 660.11,-333.38"/>
<polygon fill="midnightblue" stroke="midnightblue" points="493.18,-230.17 483.15,-226.74 488.85,-235.67 493.18,-230.17"/>
</g>
<!-- Node13 -->
<g id="node13" class="node">
<title>Node13</title>
<g id="a_node13"><a xlink:href="structlemons_1_1plugin_1_1_seconds_parameter.html" target="_top" xlink:title=" ">
<polygon fill="none" stroke="black" points="634,-246 634,-265 819,-265 819,-246 634,-246"/>
<text text-anchor="middle" x="726.5" y="-253" font-family="Helvetica,sans-Serif" font-size="10.00">lemons::plugin::SecondsParameter</text>
</a>
</g>
</g>
<!-- Node3&#45;&gt;Node13 -->
<g id="edge12" class="edge">
<title>Node3&#45;&gt;Node13</title>
<path fill="none" stroke="midnightblue" d="M560.48,-227.68C596.9,-233.82 637.18,-240.61 668.83,-245.95"/>
<polygon fill="midnightblue" stroke="midnightblue" points="560.77,-224.18 550.32,-225.97 559.6,-231.08 560.77,-224.18"/>
</g>
<!-- Node14 -->
<g id="node14" class="node">
<title>Node14</title>
<g id="a_node14"><a xlink:href="structlemons_1_1plugin_1_1_semitones_parameter.html" target="_top" xlink:title=" ">
<polygon fill="none" stroke="black" points="653.5,-196.5 653.5,-226.5 799.5,-226.5 799.5,-196.5 653.5,-196.5"/>
<text text-anchor="start" x="661.5" y="-214.5" font-family="Helvetica,sans-Serif" font-size="10.00">lemons::plugin::Semitones</text>
<text text-anchor="middle" x="726.5" y="-203.5" font-family="Helvetica,sans-Serif" font-size="10.00">Parameter</text>
</a>
</g>
</g>
<!-- Node3&#45;&gt;Node14 -->
<g id="edge13" class="edge">
<title>Node3&#45;&gt;Node14</title>
<path fill="none" stroke="midnightblue" d="M560.59,-211.5C591.2,-211.5 624.53,-211.5 653.17,-211.5"/>
<polygon fill="midnightblue" stroke="midnightblue" points="560.32,-208 550.32,-211.5 560.32,-215 560.32,-208"/>
</g>
<!-- Node3&#45;&gt;Node15 -->
<g id="edge14" class="edge">
<title>Node3&#45;&gt;Node15</title>
<path fill="none" stroke="orange" stroke-dasharray="5,2" d="M481.8,-234.8C509.68,-270.55 568.12,-338.47 634,-373.5 640.38,-376.89 647.27,-379.83 654.31,-382.36"/>
<polygon fill="orange" stroke="orange" points="484.57,-232.65 475.7,-226.85 479.02,-236.91 484.57,-232.65"/>
<text text-anchor="middle" x="592" y="-363.5" font-family="Helvetica,sans-Serif" font-size="10.00"> &lt; float &gt;</text>
</g>
<!-- Node3&#45;&gt;Node19 -->
<g id="edge20" class="edge">
<title>Node3&#45;&gt;Node19</title>
<path fill="none" stroke="orange" stroke-dasharray="5,2" d="M479.25,-187.84C505.09,-148.8 562.65,-72 634,-39.5 641.32,-36.16 649.19,-33.23 657.14,-30.66"/>
<polygon fill="orange" stroke="orange" points="476.17,-186.16 473.66,-196.46 482.04,-189.97 476.17,-186.16"/>
<text text-anchor="middle" x="592" y="-86.5" font-family="Helvetica,sans-Serif" font-size="10.00"> &lt; bool &gt;</text>
</g>
<!-- Node5 -->
<g id="node5" class="node">
<title>Node5</title>
<g id="a_node5"><a xlink:href="classlemons_1_1plugin_1_1_meta_parameter.html" target="_top" xlink:title=" ">
<polygon fill="none" stroke="black" points="904.5,-290.5 904.5,-320.5 1074.5,-320.5 1074.5,-290.5 904.5,-290.5"/>
<text text-anchor="start" x="912.5" y="-308.5" font-family="Helvetica,sans-Serif" font-size="10.00">lemons::plugin::MetaParameter</text>
<text text-anchor="middle" x="989.5" y="-297.5" font-family="Helvetica,sans-Serif" font-size="10.00">&lt; float &gt;</text>
</a>
</g>
</g>
<!-- Node4&#45;&gt;Node5 -->
<g id="edge4" class="edge">
<title>Node4&#45;&gt;Node5</title>
<path fill="none" stroke="orange" stroke-dasharray="5,2" d="M821.73,-301.67C848.68,-302.29 877.87,-302.96 904.19,-303.56"/>
<polygon fill="orange" stroke="orange" points="821.6,-298.16 811.52,-301.43 821.44,-305.16 821.6,-298.16"/>
<text text-anchor="middle" x="861" y="-306.5" font-family="Helvetica,sans-Serif" font-size="10.00"> &lt; float &gt;</text>
</g>
<!-- Node6 -->
<g id="node6" class="node">
<title>Node6</title>
<g id="a_node6"><a xlink:href="structlemons_1_1plugin_1_1_l_f_o.html" target="_top" xlink:title=" ">
<polygon fill="none" stroke="black" points="1144.5,-296 1144.5,-315 1257.5,-315 1257.5,-296 1144.5,-296"/>
<text text-anchor="middle" x="1201" y="-303" font-family="Helvetica,sans-Serif" font-size="10.00">lemons::plugin::LFO</text>
</a>
</g>
</g>
<!-- Node5&#45;&gt;Node6 -->
<g id="edge5" class="edge">
<title>Node5&#45;&gt;Node6</title>
<path fill="none" stroke="midnightblue" d="M1084.75,-305.5C1105.08,-305.5 1125.94,-305.5 1144.23,-305.5"/>
<polygon fill="midnightblue" stroke="midnightblue" points="1084.5,-302 1074.5,-305.5 1084.5,-309 1084.5,-302"/>
</g>
<!-- Node8 -->
<g id="node8" class="node">
<title>Node8</title>
<g id="a_node8"><a xlink:href="structlemons_1_1plugin_1_1_meter_parameter.html" target="_top" xlink:title=" ">
<polygon fill="none" stroke="black" points="903,-217.5 903,-247.5 1076,-247.5 1076,-217.5 903,-217.5"/>
<text text-anchor="start" x="911" y="-235.5" font-family="Helvetica,sans-Serif" font-size="10.00">lemons::plugin::MeterParameter</text>
<text text-anchor="middle" x="989.5" y="-224.5" font-family="Helvetica,sans-Serif" font-size="10.00">&lt; float &gt;</text>
</a>
</g>
</g>
<!-- Node7&#45;&gt;Node8 -->
<g id="edge7" class="edge">
<title>Node7&#45;&gt;Node8</title>
<path fill="none" stroke="orange" stroke-dasharray="5,2" d="M794.95,-180.12C803.06,-182.26 811.22,-184.42 819,-186.5 857.3,-196.72 900.41,-208.42 933.57,-217.47"/>
<polygon fill="orange" stroke="orange" points="795.68,-176.69 785.12,-177.53 793.89,-183.46 795.68,-176.69"/>
<text text-anchor="middle" x="861" y="-207.5" font-family="Helvetica,sans-Serif" font-size="10.00"> &lt; float &gt;</text>
</g>
<!-- Node9 -->
<g id="node9" class="node">
<title>Node9</title>
<g id="a_node9"><a xlink:href="structlemons_1_1plugin_1_1_gain_meter_parameter.html" target="_top" xlink:title=" ">
<polygon fill="none" stroke="black" points="1128,-217.5 1128,-247.5 1274,-247.5 1274,-217.5 1128,-217.5"/>
<text text-anchor="start" x="1136" y="-235.5" font-family="Helvetica,sans-Serif" font-size="10.00">lemons::plugin::GainMeter</text>
<text text-anchor="middle" x="1201" y="-224.5" font-family="Helvetica,sans-Serif" font-size="10.00">Parameter</text>
</a>
</g>
</g>
<!-- Node8&#45;&gt;Node9 -->
<g id="edge8" class="edge">
<title>Node8&#45;&gt;Node9</title>
<path fill="none" stroke="midnightblue" d="M1086.16,-232.5C1100.16,-232.5 1114.39,-232.5 1127.81,-232.5"/>
<polygon fill="midnightblue" stroke="midnightblue" points="1086.01,-229 1076.01,-232.5 1086.01,-236 1086.01,-229"/>
</g>
<!-- Node15&#45;&gt;Node5 -->
<g id="edge18" class="edge">
<title>Node15&#45;&gt;Node5</title>
<path fill="none" stroke="midnightblue" d="M799.19,-379.62C805.92,-377.66 812.61,-375.61 819,-373.5 866.87,-357.69 920.66,-335.29 954.55,-320.58"/>
<polygon fill="midnightblue" stroke="midnightblue" points="798,-376.32 789.33,-382.41 799.91,-383.05 798,-376.32"/>
</g>
<!-- Node15&#45;&gt;Node8 -->
<g id="edge19" class="edge">
<title>Node15&#45;&gt;Node8</title>
<path fill="none" stroke="midnightblue" d="M813.16,-377.43C815.17,-376.19 817.12,-374.89 819,-373.5 831.2,-364.49 826.53,-355.47 837,-344.5 854.87,-325.77 867.4,-330.49 885,-311.5 895.83,-299.81 891.65,-291.68 903,-280.5 916.94,-266.76 935.61,-255.68 951.95,-247.64"/>
<polygon fill="midnightblue" stroke="midnightblue" points="811.14,-374.53 804,-382.36 814.46,-380.7 811.14,-374.53"/>
</g>
<!-- Node16 -->
<g id="node16" class="node">
<title>Node16</title>
<g id="a_node16"><a xlink:href="structlemons_1_1plugin_1_1_float_amount_parameter.html" target="_top" xlink:title=" ">
<polygon fill="none" stroke="black" points="910.5,-443.5 910.5,-473.5 1068.5,-473.5 1068.5,-443.5 910.5,-443.5"/>
<text text-anchor="start" x="918.5" y="-461.5" font-family="Helvetica,sans-Serif" font-size="10.00">lemons::plugin::FloatAmount</text>
<text text-anchor="middle" x="989.5" y="-450.5" font-family="Helvetica,sans-Serif" font-size="10.00">Parameter</text>
</a>
</g>
</g>
<!-- Node15&#45;&gt;Node16 -->
<g id="edge15" class="edge">
<title>Node15&#45;&gt;Node16</title>
<path fill="none" stroke="midnightblue" d="M801.82,-414.87C840.4,-423.89 887.08,-434.8 924.11,-443.45"/>
<polygon fill="midnightblue" stroke="midnightblue" points="802.22,-411.37 791.68,-412.5 800.62,-418.18 802.22,-411.37"/>
</g>
<!-- Node17 -->
<g id="node17" class="node">
<title>Node17</title>
<g id="a_node17"><a xlink:href="structlemons_1_1plugin_1_1_frequency_parameter.html" target="_top" xlink:title=" ">
<polygon fill="none" stroke="black" points="917,-394.5 917,-424.5 1062,-424.5 1062,-394.5 917,-394.5"/>
<text text-anchor="start" x="925" y="-412.5" font-family="Helvetica,sans-Serif" font-size="10.00">lemons::plugin::Frequency</text>
<text text-anchor="middle" x="989.5" y="-401.5" font-family="Helvetica,sans-Serif" font-size="10.00">Parameter</text>
</a>
</g>
</g>
<!-- Node15&#45;&gt;Node17 -->
<g id="edge16" class="edge">
<title>Node15&#45;&gt;Node17</title>
<path fill="none" stroke="midnightblue" d="M823.64,-401.92C854.39,-403.33 887.88,-404.87 916.59,-406.19"/>
<polygon fill="midnightblue" stroke="midnightblue" points="823.47,-398.41 813.32,-401.45 823.15,-405.4 823.47,-398.41"/>
</g>
<!-- Node18 -->
<g id="node18" class="node">
<title>Node18</title>
<g id="a_node18"><a xlink:href="structlemons_1_1plugin_1_1_gain_parameter.html" target="_top" xlink:title=" ">
<polygon fill="none" stroke="black" points="906,-356 906,-375 1073,-375 1073,-356 906,-356"/>
<text text-anchor="middle" x="989.5" y="-363" font-family="Helvetica,sans-Serif" font-size="10.00">lemons::plugin::GainParameter</text>
</a>
</g>
</g>
<!-- Node15&#45;&gt;Node18 -->
<g id="edge17" class="edge">
<title>Node15&#45;&gt;Node18</title>
<path fill="none" stroke="midnightblue" d="M823.41,-385.74C852.25,-382.21 883.51,-378.37 910.99,-375"/>
<polygon fill="midnightblue" stroke="midnightblue" points="822.82,-382.29 813.32,-386.98 823.67,-389.23 822.82,-382.29"/>
</g>
<!-- Node20 -->
<g id="node20" class="node">
<title>Node20</title>
<g id="a_node20"><a xlink:href="structlemons_1_1plugin_1_1_bool_parameter.html" target="_top" xlink:title=" ">
<polygon fill="none" stroke="black" points="906,-6 906,-25 1073,-25 1073,-6 906,-6"/>
<text text-anchor="middle" x="989.5" y="-13" font-family="Helvetica,sans-Serif" font-size="10.00">lemons::plugin::BoolParameter</text>
</a>
</g>
</g>
<!-- Node19&#45;&gt;Node20 -->
<g id="edge21" class="edge">
<title>Node19&#45;&gt;Node20</title>
<path fill="none" stroke="midnightblue" d="M823.55,-15.5C850.52,-15.5 879.61,-15.5 905.73,-15.5"/>
<polygon fill="midnightblue" stroke="midnightblue" points="823.32,-12 813.32,-15.5 823.32,-19 823.32,-12"/>
</g>
<!-- Node21 -->
<g id="node21" class="node">
<title>Node21</title>
<g id="a_node21"><a xlink:href="structlemons_1_1plugin_1_1_toggle_parameter.html" target="_top" xlink:title=" ">
<polygon fill="none" stroke="black" points="1113,-6 1113,-25 1289,-25 1289,-6 1113,-6"/>
<text text-anchor="middle" x="1201" y="-13" font-family="Helvetica,sans-Serif" font-size="10.00">lemons::plugin::ToggleParameter</text>
</a>
</g>
</g>
<!-- Node20&#45;&gt;Node21 -->
<g id="edge22" class="edge">
<title>Node20&#45;&gt;Node21</title>
<path fill="none" stroke="midnightblue" d="M1083.46,-15.5C1093.28,-15.5 1103.24,-15.5 1112.98,-15.5"/>
<polygon fill="midnightblue" stroke="midnightblue" points="1083.3,-12 1073.3,-15.5 1083.3,-19 1083.3,-12"/>
</g>
</g>
</svg>
        <g id="navigator" transform="translate(0 0)" fill="#404254">
                <rect fill="#f2f5e9" fill-opacity="0.5" stroke="#606060" stroke-width=".5" x="0" y="0" width="60" height="60"/>
                <use id="zoomplus" xlink:href="#zoomPlus" x="17" y="9" onmousedown="handleZoom(evt,'in')"/>
                <use id="zoomminus" xlink:href="#zoomMin" x="42" y="9" onmousedown="handleZoom(evt,'out')"/>
                <use id="reset" xlink:href="#resetDef" x="30" y="36" onmousedown="handleReset()"/>
                <g id="arrowUp" xlink:href="#dirArrow" transform="translate(30 24)" onmousedown="handlePan(0,-1)">
                  <use xlink:href="#rim" fill="#404040">
                        <set attributeName="fill" to="#808080" begin="arrowUp.mouseover" end="arrowUp.mouseout"/>
                  </use>
                  <path fill="none" stroke="white" stroke-width="1.5" d="M0,-3.0v7 M-2.5,-0.5L0,-3.0L2.5,-0.5"/>
                </g>
                <g id="arrowRight" xlink:href="#dirArrow" transform="rotate(90) translate(36 -43)" onmousedown="handlePan(1,0)">
                  <use xlink:href="#rim" fill="#404040">
                        <set attributeName="fill" to="#808080" begin="arrowRight.mouseover" end="arrowRight.mouseout"/>
                  </use>
                  <path fill="none" stroke="white" stroke-width="1.5" d="M0,-3.0v7 M-2.5,-0.5L0,-3.0L2.5,-0.5"/>
                </g>
                <g id="arrowDown" xlink:href="#dirArrow" transform="rotate(180) translate(-30 -48)" onmousedown="handlePan(0,1)">
                  <use xlink:href="#rim" fill="#404040">
                        <set attributeName="fill" to="#808080" begin="arrowDown.mouseover" end="arrowDown.mouseout"/>
                  </use>
                  <path fill="none" stroke="white" stroke-width="1.5" d="M0,-3.0v7 M-2.5,-0.5L0,-3.0L2.5,-0.5"/>
                </g>
                <g id="arrowLeft" xlink:href="#dirArrow" transform="rotate(270) translate(-36 17)" onmousedown="handlePan(-1,0)">
                  <use xlink:href="#rim" fill="#404040">
                        <set attributeName="fill" to="#808080" begin="arrowLeft.mouseover" end="arrowLeft.mouseout"/>
                  </use>
                  <path fill="none" stroke="white" stroke-width="1.5" d="M0,-3.0v7 M-2.5,-0.5L0,-3.0L2.5,-0.5"/>
                </g>
        </g>
        <svg viewBox="0 0 15 15" width="100%" height="30px" preserveAspectRatio="xMaxYMin meet">
         <g id="arrow_out" transform="scale(0.3 0.3)">
          <a xlink:href="classlemons_1_1plugin_1_1_parameter__inherit__graph_org.svg" target="_base">
           <rect id="button" ry="5" rx="5" y="6" x="6" height="38" width="38"
                fill="#f2f5e9" fill-opacity="0.5" stroke="#606060" stroke-width="1.0"/>
           <path id="arrow"
             d="M 11.500037,31.436501 C 11.940474,20.09759 22.043105,11.32322 32.158766,21.979434 L 37.068811,17.246167 C 37.068811,17.246167 37.088388,32 37.088388,32 L 22.160133,31.978069 C 22.160133,31.978069 26.997745,27.140456 26.997745,27.140456 C 18.528582,18.264221 13.291696,25.230495 11.500037,31.436501 z"
             style="fill:#404040;"/>
          </a>
         </g>
        </svg>
</svg>
