<?xml version="1.0" encoding="UTF-8" standalone="no"?>
<!DOCTYPE svg PUBLIC "-//W3C//DTD SVG 1.1//EN"
 "http://www.w3.org/Graphics/SVG/1.1/DTD/svg11.dtd">
<!-- Generated by graphviz version 2.43.0 (0)
 -->
<!-- Title: lemons::plugin::Parameter Pages: 1 -->
<svg width="1307pt" height="475pt"
 viewBox="0.00 0.00 1307.00 475.00" xmlns="http://www.w3.org/2000/svg" xmlns:xlink="http://www.w3.org/1999/xlink">
<g id="graph0" class="graph" transform="scale(1 1) rotate(0) translate(4 471)">
<title>lemons::plugin::Parameter</title>
<!-- Node1 -->
<g id="node1" class="node">
<title>Node1</title>
<g id="a_node1"><a xlink:title=" ">
<polygon fill="#bfbfbf" stroke="black" points="195,-202 195,-221 340,-221 340,-202 195,-202"/>
<text text-anchor="middle" x="267.5" y="-209" font-family="Helvetica,sans-Serif" font-size="10.00">lemons::plugin::Parameter</text>
</a>
</g>
</g>
<!-- Node3 -->
<g id="node3" class="node">
<title>Node3</title>
<g id="a_node3"><a xlink:href="classlemons_1_1plugin_1_1_typed_parameter.html" target="_top" xlink:title=" ">
<polygon fill="none" stroke="black" points="377,-196.5 377,-226.5 550,-226.5 550,-196.5 377,-196.5"/>
<text text-anchor="start" x="385" y="-214.5" font-family="Helvetica,sans-Serif" font-size="10.00">lemons::plugin::TypedParameter</text>
<text text-anchor="middle" x="463.5" y="-203.5" font-family="Helvetica,sans-Serif" font-size="10.00">&lt; ValueType &gt;</text>
</a>
</g>
</g>
<!-- Node1&#45;&gt;Node3 -->
<g id="edge2" class="edge">
<title>Node1&#45;&gt;Node3</title>
<path fill="none" stroke="midnightblue" d="M350.41,-211.5C359.2,-211.5 368.16,-211.5 376.99,-211.5"/>
<polygon fill="midnightblue" stroke="midnightblue" points="350.19,-208 340.19,-211.5 350.19,-215 350.19,-208"/>
</g>
<!-- Node15 -->
<g id="node15" class="node">
<title>Node15</title>
<g id="a_node15"><a xlink:href="classlemons_1_1plugin_1_1_typed_parameter.html" target="_top" xlink:title=" ">
<polygon fill="none" stroke="black" points="639,-392.5 639,-422.5 812,-422.5 812,-392.5 639,-392.5"/>
<text text-anchor="start" x="647" y="-410.5" font-family="Helvetica,sans-Serif" font-size="10.00">lemons::plugin::TypedParameter</text>
<text text-anchor="middle" x="725.5" y="-399.5" font-family="Helvetica,sans-Serif" font-size="10.00">&lt; float &gt;</text>
</a>
</g>
</g>
<!-- Node1&#45;&gt;Node15 -->
<g id="edge24" class="edge">
<title>Node1&#45;&gt;Node15</title>
<path fill="none" stroke="midnightblue" d="M289.2,-227.24C336.01,-261.95 454.78,-345.1 568,-384.5 590.31,-392.26 615.29,-397.4 638.63,-400.81"/>
<polygon fill="midnightblue" stroke="midnightblue" points="291.17,-224.34 281.07,-221.16 286.98,-229.95 291.17,-224.34"/>
</g>
<!-- Node19 -->
<g id="node19" class="node">
<title>Node19</title>
<g id="a_node19"><a xlink:href="classlemons_1_1plugin_1_1_typed_parameter.html" target="_top" xlink:title=" ">
<polygon fill="none" stroke="black" points="639,-0.5 639,-30.5 812,-30.5 812,-0.5 639,-0.5"/>
<text text-anchor="start" x="647" y="-18.5" font-family="Helvetica,sans-Serif" font-size="10.00">lemons::plugin::TypedParameter</text>
<text text-anchor="middle" x="725.5" y="-7.5" font-family="Helvetica,sans-Serif" font-size="10.00">&lt; bool &gt;</text>
</a>
</g>
</g>
<!-- Node1&#45;&gt;Node19 -->
<g id="edge23" class="edge">
<title>Node1&#45;&gt;Node19</title>
<path fill="none" stroke="midnightblue" d="M290.9,-196.31C339.3,-164.19 458.16,-88.98 568,-48.5 590.41,-40.24 615.42,-33.81 638.76,-28.9"/>
<polygon fill="midnightblue" stroke="midnightblue" points="288.81,-193.5 282.44,-201.97 292.7,-199.32 288.81,-193.5"/>
</g>
<!-- Node2 -->
<g id="node2" class="node">
<title>Node2</title>
<g id="a_node2"><a xlink:title=" ">
<polygon fill="none" stroke="#bfbfbf" points="0,-202 0,-221 158,-221 158,-202 0,-202"/>
<text text-anchor="middle" x="79" y="-209" font-family="Helvetica,sans-Serif" font-size="10.00">juce::RangedAudioParameter</text>
</a>
</g>
</g>
<!-- Node2&#45;&gt;Node1 -->
<g id="edge1" class="edge">
<title>Node2&#45;&gt;Node1</title>
<path fill="none" stroke="midnightblue" d="M168.06,-211.5C177.01,-211.5 186.01,-211.5 194.75,-211.5"/>
<polygon fill="midnightblue" stroke="midnightblue" points="168.01,-208 158.01,-211.5 168.01,-215 168.01,-208"/>
</g>
<!-- Node4 -->
<g id="node4" class="node">
<title>Node4</title>
<g id="a_node4"><a xlink:href="structlemons_1_1plugin_1_1_float_amount_parameter.html" target="_top" xlink:title=" ">
<polygon fill="none" stroke="black" points="646.5,-294.5 646.5,-324.5 804.5,-324.5 804.5,-294.5 646.5,-294.5"/>
<text text-anchor="start" x="654.5" y="-312.5" font-family="Helvetica,sans-Serif" font-size="10.00">lemons::plugin::FloatAmount</text>
<text text-anchor="middle" x="725.5" y="-301.5" font-family="Helvetica,sans-Serif" font-size="10.00">Parameter&lt; float &gt;</text>
</a>
</g>
</g>
<!-- Node3&#45;&gt;Node4 -->
<g id="edge3" class="edge">
<title>Node3&#45;&gt;Node4</title>
<path fill="none" stroke="midnightblue" d="M504.98,-230.8C538.94,-246.54 588.97,-268.67 634,-284.5 644,-288.01 654.75,-291.36 665.23,-294.39"/>
<polygon fill="midnightblue" stroke="midnightblue" points="506.39,-227.6 495.85,-226.54 503.43,-233.94 506.39,-227.6"/>
</g>
<!-- Node5 -->
<g id="node5" class="node">
<title>Node5</title>
<g id="a_node5"><a xlink:href="classlemons_1_1plugin_1_1_meta_parameter.html" target="_top" xlink:title=" ">
<polygon fill="none" stroke="black" points="640.5,-245.5 640.5,-275.5 810.5,-275.5 810.5,-245.5 640.5,-245.5"/>
<text text-anchor="start" x="648.5" y="-263.5" font-family="Helvetica,sans-Serif" font-size="10.00">lemons::plugin::MetaParameter</text>
<text text-anchor="middle" x="725.5" y="-252.5" font-family="Helvetica,sans-Serif" font-size="10.00">&lt; ValueType &gt;</text>
</a>
</g>
</g>
<!-- Node3&#45;&gt;Node5 -->
<g id="edge4" class="edge">
<title>Node3&#45;&gt;Node5</title>
<path fill="none" stroke="midnightblue" d="M554.15,-228.39C583.63,-233.95 616.19,-240.09 644.88,-245.49"/>
<polygon fill="midnightblue" stroke="midnightblue" points="554.75,-224.95 544.28,-226.53 553.45,-231.83 554.75,-224.95"/>
</g>
<!-- Node8 -->
<g id="node8" class="node">
<title>Node8</title>
<g id="a_node8"><a xlink:href="structlemons_1_1plugin_1_1_meter_parameter.html" target="_top" xlink:title=" ">
<polygon fill="none" stroke="black" points="639,-196.5 639,-226.5 812,-226.5 812,-196.5 639,-196.5"/>
<text text-anchor="start" x="647" y="-214.5" font-family="Helvetica,sans-Serif" font-size="10.00">lemons::plugin::MeterParameter</text>
<text text-anchor="middle" x="725.5" y="-203.5" font-family="Helvetica,sans-Serif" font-size="10.00">&lt; ValueType &gt;</text>
</a>
</g>
</g>
<!-- Node3&#45;&gt;Node8 -->
<g id="edge7" class="edge">
<title>Node3&#45;&gt;Node8</title>
<path fill="none" stroke="midnightblue" d="M560.46,-211.5C586.11,-211.5 613.67,-211.5 638.74,-211.5"/>
<polygon fill="midnightblue" stroke="midnightblue" points="560.35,-208 550.35,-211.5 560.35,-215 560.35,-208"/>
</g>
<!-- Node11 -->
<g id="node11" class="node">
<title>Node11</title>
<g id="a_node11"><a xlink:href="structlemons_1_1plugin_1_1_midi_pan_parameter.html" target="_top" xlink:title=" ">
<polygon fill="none" stroke="black" points="634,-147.5 634,-177.5 817,-177.5 817,-147.5 634,-147.5"/>
<text text-anchor="start" x="642" y="-165.5" font-family="Helvetica,sans-Serif" font-size="10.00">lemons::plugin::MidiPanParameter</text>
<text text-anchor="middle" x="725.5" y="-154.5" font-family="Helvetica,sans-Serif" font-size="10.00">&lt; int &gt;</text>
</a>
</g>
</g>
<!-- Node3&#45;&gt;Node11 -->
<g id="edge10" class="edge">
<title>Node3&#45;&gt;Node11</title>
<path fill="none" stroke="midnightblue" d="M554.15,-194.61C583.63,-189.05 616.19,-182.91 644.88,-177.51"/>
<polygon fill="midnightblue" stroke="midnightblue" points="553.45,-191.17 544.28,-196.47 554.75,-198.05 553.45,-191.17"/>
</g>
<!-- Node12 -->
<g id="node12" class="node">
<title>Node12</title>
<g id="a_node12"><a xlink:href="structlemons_1_1plugin_1_1_midi_pitch_parameter.html" target="_top" xlink:title=" ">
<polygon fill="none" stroke="black" points="655.5,-98.5 655.5,-128.5 795.5,-128.5 795.5,-98.5 655.5,-98.5"/>
<text text-anchor="start" x="663.5" y="-116.5" font-family="Helvetica,sans-Serif" font-size="10.00">lemons::plugin::MidiPitch</text>
<text text-anchor="middle" x="725.5" y="-105.5" font-family="Helvetica,sans-Serif" font-size="10.00">Parameter&lt; int &gt;</text>
</a>
</g>
</g>
<!-- Node3&#45;&gt;Node12 -->
<g id="edge11" class="edge">
<title>Node3&#45;&gt;Node12</title>
<path fill="none" stroke="midnightblue" d="M504.29,-192.07C538.21,-176.01 588.55,-153.34 634,-137.5 643.21,-134.29 653.07,-131.27 662.78,-128.52"/>
<polygon fill="midnightblue" stroke="midnightblue" points="502.69,-188.95 495.17,-196.41 505.71,-195.27 502.69,-188.95"/>
</g>
<!-- Node13 -->
<g id="node13" class="node">
<title>Node13</title>
<g id="a_node13"><a xlink:href="structlemons_1_1plugin_1_1_percent_parameter.html" target="_top" xlink:title=" ">
<polygon fill="none" stroke="black" points="634.5,-49.5 634.5,-79.5 816.5,-79.5 816.5,-49.5 634.5,-49.5"/>
<text text-anchor="start" x="642.5" y="-67.5" font-family="Helvetica,sans-Serif" font-size="10.00">lemons::plugin::PercentParameter</text>
<text text-anchor="middle" x="725.5" y="-56.5" font-family="Helvetica,sans-Serif" font-size="10.00">&lt; int &gt;</text>
</a>
</g>
</g>
<!-- Node3&#45;&gt;Node13 -->
<g id="edge12" class="edge">
<title>Node3&#45;&gt;Node13</title>
<path fill="none" stroke="midnightblue" d="M488.71,-189.41C520.03,-161.95 577.32,-115.42 634,-88.5 641.05,-85.15 648.63,-82.22 656.31,-79.65"/>
<polygon fill="midnightblue" stroke="midnightblue" points="486.12,-187.03 480.96,-196.28 490.76,-192.27 486.12,-187.03"/>
</g>
<!-- Node14 -->
<g id="node14" class="node">
<title>Node14</title>
<g id="a_node14"><a xlink:href="structlemons_1_1plugin_1_1_semitones_parameter.html" target="_top" xlink:title=" ">
<polygon fill="none" stroke="black" points="652.5,-343.5 652.5,-373.5 798.5,-373.5 798.5,-343.5 652.5,-343.5"/>
<text text-anchor="start" x="660.5" y="-361.5" font-family="Helvetica,sans-Serif" font-size="10.00">lemons::plugin::Semitones</text>
<text text-anchor="middle" x="725.5" y="-350.5" font-family="Helvetica,sans-Serif" font-size="10.00">Parameter&lt; int &gt;</text>
</a>
</g>
</g>
<!-- Node3&#45;&gt;Node14 -->
<g id="edge13" class="edge">
<title>Node3&#45;&gt;Node14</title>
<path fill="none" stroke="midnightblue" d="M488.79,-233.31C520.19,-260.44 577.57,-306.47 634,-333.5 641.94,-337.3 650.55,-340.61 659.21,-343.47"/>
<polygon fill="midnightblue" stroke="midnightblue" points="490.85,-230.46 481.01,-226.52 486.24,-235.73 490.85,-230.46"/>
</g>
<!-- Node3&#45;&gt;Node15 -->
<g id="edge14" class="edge">
<title>Node3&#45;&gt;Node15</title>
<path fill="none" stroke="orange" stroke-dasharray="5,2" d="M480.61,-235.09C507.64,-272.69 565.9,-345.72 634,-382.5 641.03,-386.3 648.68,-389.55 656.46,-392.34"/>
<polygon fill="orange" stroke="orange" points="483.36,-232.91 474.72,-226.76 477.64,-236.95 483.36,-232.91"/>
<text text-anchor="middle" x="592" y="-372.5" font-family="Helvetica,sans-Serif" font-size="10.00"> &lt; float &gt;</text>
</g>
<!-- Node3&#45;&gt;Node19 -->
<g id="edge20" class="edge">
<title>Node3&#45;&gt;Node19</title>
<path fill="none" stroke="orange" stroke-dasharray="5,2" d="M479.26,-187.86C505.12,-148.86 562.7,-72.1 634,-39.5 641.39,-36.12 649.35,-33.15 657.37,-30.55"/>
<polygon fill="orange" stroke="orange" points="476.18,-186.18 473.66,-196.47 482.05,-189.99 476.18,-186.18"/>
<text text-anchor="middle" x="592" y="-86.5" font-family="Helvetica,sans-Serif" font-size="10.00"> &lt; bool &gt;</text>
</g>
<!-- Node6 -->
<g id="node6" class="node">
<title>Node6</title>
<g id="a_node6"><a xlink:href="classlemons_1_1plugin_1_1_meta_parameter.html" target="_top" xlink:title=" ">
<polygon fill="none" stroke="black" points="908.5,-301.5 908.5,-331.5 1078.5,-331.5 1078.5,-301.5 908.5,-301.5"/>
<text text-anchor="start" x="916.5" y="-319.5" font-family="Helvetica,sans-Serif" font-size="10.00">lemons::plugin::MetaParameter</text>
<text text-anchor="middle" x="993.5" y="-308.5" font-family="Helvetica,sans-Serif" font-size="10.00">&lt; float &gt;</text>
</a>
</g>
</g>
<!-- Node5&#45;&gt;Node6 -->
<g id="edge5" class="edge">
<title>Node5&#45;&gt;Node6</title>
<path fill="none" stroke="orange" stroke-dasharray="5,2" d="M807.8,-277.62C843.94,-285.22 886.11,-294.1 921.02,-301.45"/>
<polygon fill="orange" stroke="orange" points="808.29,-274.14 797.78,-275.51 806.85,-280.99 808.29,-274.14"/>
<text text-anchor="middle" x="859" y="-295.5" font-family="Helvetica,sans-Serif" font-size="10.00"> &lt; float &gt;</text>
</g>
<!-- Node7 -->
<g id="node7" class="node">
<title>Node7</title>
<g id="a_node7"><a xlink:href="structlemons_1_1plugin_1_1_l_f_o.html" target="_top" xlink:title=" ">
<polygon fill="none" stroke="black" points="1154.5,-307 1154.5,-326 1267.5,-326 1267.5,-307 1154.5,-307"/>
<text text-anchor="middle" x="1211" y="-314" font-family="Helvetica,sans-Serif" font-size="10.00">lemons::plugin::LFO</text>
</a>
</g>
</g>
<!-- Node6&#45;&gt;Node7 -->
<g id="edge6" class="edge">
<title>Node6&#45;&gt;Node7</title>
<path fill="none" stroke="midnightblue" d="M1088.94,-316.5C1111.28,-316.5 1134.39,-316.5 1154.36,-316.5"/>
<polygon fill="midnightblue" stroke="midnightblue" points="1088.74,-313 1078.74,-316.5 1088.74,-320 1088.74,-313"/>
</g>
<!-- Node9 -->
<g id="node9" class="node">
<title>Node9</title>
<g id="a_node9"><a xlink:href="structlemons_1_1plugin_1_1_meter_parameter.html" target="_top" xlink:title=" ">
<polygon fill="none" stroke="black" points="907,-220.5 907,-250.5 1080,-250.5 1080,-220.5 907,-220.5"/>
<text text-anchor="start" x="915" y="-238.5" font-family="Helvetica,sans-Serif" font-size="10.00">lemons::plugin::MeterParameter</text>
<text text-anchor="middle" x="993.5" y="-227.5" font-family="Helvetica,sans-Serif" font-size="10.00">&lt; float &gt;</text>
</a>
</g>
</g>
<!-- Node8&#45;&gt;Node9 -->
<g id="edge8" class="edge">
<title>Node8&#45;&gt;Node9</title>
<path fill="none" stroke="orange" stroke-dasharray="5,2" d="M822.17,-220.13C849.74,-222.62 879.64,-225.32 906.58,-227.75"/>
<polygon fill="orange" stroke="orange" points="822.4,-216.64 812.13,-219.23 821.77,-223.61 822.4,-216.64"/>
<text text-anchor="middle" x="859" y="-228.5" font-family="Helvetica,sans-Serif" font-size="10.00"> &lt; float &gt;</text>
</g>
<!-- Node10 -->
<g id="node10" class="node">
<title>Node10</title>
<g id="a_node10"><a xlink:href="structlemons_1_1plugin_1_1_gain_meter_parameter.html" target="_top" xlink:title=" ">
<polygon fill="none" stroke="black" points="1138,-220.5 1138,-250.5 1284,-250.5 1284,-220.5 1138,-220.5"/>
<text text-anchor="start" x="1146" y="-238.5" font-family="Helvetica,sans-Serif" font-size="10.00">lemons::plugin::GainMeter</text>
<text text-anchor="middle" x="1211" y="-227.5" font-family="Helvetica,sans-Serif" font-size="10.00">Parameter</text>
</a>
</g>
</g>
<!-- Node9&#45;&gt;Node10 -->
<g id="edge9" class="edge">
<title>Node9&#45;&gt;Node10</title>
<path fill="none" stroke="midnightblue" d="M1090.62,-235.5C1106.43,-235.5 1122.58,-235.5 1137.69,-235.5"/>
<polygon fill="midnightblue" stroke="midnightblue" points="1090.29,-232 1080.29,-235.5 1090.29,-239 1090.29,-232"/>
</g>
<!-- Node15&#45;&gt;Node6 -->
<g id="edge18" class="edge">
<title>Node15&#45;&gt;Node6</title>
<path fill="none" stroke="midnightblue" d="M794.02,-389.61C801.8,-387.32 809.59,-384.93 817,-382.5 854.96,-370.06 863.61,-364.57 901,-350.5 917.5,-344.29 935.69,-337.52 951.48,-331.66"/>
<polygon fill="midnightblue" stroke="midnightblue" points="792.83,-386.31 784.19,-392.44 794.77,-393.03 792.83,-386.31"/>
</g>
<!-- Node15&#45;&gt;Node9 -->
<g id="edge19" class="edge">
<title>Node15&#45;&gt;Node9</title>
<path fill="none" stroke="midnightblue" d="M809,-387.71C811.78,-386.1 814.46,-384.37 817,-382.5 828.91,-373.73 825.58,-365.91 835,-354.5 860.81,-323.22 868.86,-316.22 901,-291.5 921.08,-276.06 945.65,-261.22 964.27,-250.7"/>
<polygon fill="midnightblue" stroke="midnightblue" points="807.15,-384.72 799.85,-392.39 810.34,-390.95 807.15,-384.72"/>
</g>
<!-- Node16 -->
<g id="node16" class="node">
<title>Node16</title>
<g id="a_node16"><a xlink:href="structlemons_1_1plugin_1_1_frequency_parameter.html" target="_top" xlink:title=" ">
<polygon fill="none" stroke="black" points="921,-436.5 921,-466.5 1066,-466.5 1066,-436.5 921,-436.5"/>
<text text-anchor="start" x="929" y="-454.5" font-family="Helvetica,sans-Serif" font-size="10.00">lemons::plugin::Frequency</text>
<text text-anchor="middle" x="993.5" y="-443.5" font-family="Helvetica,sans-Serif" font-size="10.00">Parameter</text>
</a>
</g>
</g>
<!-- Node15&#45;&gt;Node16 -->
<g id="edge15" class="edge">
<title>Node15&#45;&gt;Node16</title>
<path fill="none" stroke="midnightblue" d="M822.12,-423.32C854.68,-428.7 890.49,-434.63 920.85,-439.65"/>
<polygon fill="midnightblue" stroke="midnightblue" points="822.57,-419.84 812.13,-421.66 821.42,-426.75 822.57,-419.84"/>
</g>
<!-- Node17 -->
<g id="node17" class="node">
<title>Node17</title>
<g id="a_node17"><a xlink:href="structlemons_1_1plugin_1_1_gain_parameter.html" target="_top" xlink:title=" ">
<polygon fill="none" stroke="black" points="910,-398 910,-417 1077,-417 1077,-398 910,-398"/>
<text text-anchor="middle" x="993.5" y="-405" font-family="Helvetica,sans-Serif" font-size="10.00">lemons::plugin::GainParameter</text>
</a>
</g>
</g>
<!-- Node15&#45;&gt;Node17 -->
<g id="edge16" class="edge">
<title>Node15&#45;&gt;Node17</title>
<path fill="none" stroke="midnightblue" d="M822.15,-407.5C850.82,-407.5 882,-407.5 909.75,-407.5"/>
<polygon fill="midnightblue" stroke="midnightblue" points="822.13,-404 812.13,-407.5 822.13,-411 822.13,-404"/>
</g>
<!-- Node18 -->
<g id="node18" class="node">
<title>Node18</title>
<g id="a_node18"><a xlink:href="structlemons_1_1plugin_1_1_seconds_parameter.html" target="_top" xlink:title=" ">
<polygon fill="none" stroke="black" points="901,-360 901,-379 1086,-379 1086,-360 901,-360"/>
<text text-anchor="middle" x="993.5" y="-367" font-family="Helvetica,sans-Serif" font-size="10.00">lemons::plugin::SecondsParameter</text>
</a>
</g>
</g>
<!-- Node15&#45;&gt;Node18 -->
<g id="edge17" class="edge">
<title>Node15&#45;&gt;Node18</title>
<path fill="none" stroke="midnightblue" d="M822.16,-393.83C856.42,-388.94 894.28,-383.53 925.59,-379.06"/>
<polygon fill="midnightblue" stroke="midnightblue" points="821.53,-390.39 812.13,-395.27 822.52,-397.32 821.53,-390.39"/>
</g>
<!-- Node20 -->
<g id="node20" class="node">
<title>Node20</title>
<g id="a_node20"><a xlink:href="structlemons_1_1plugin_1_1_bool_parameter.html" target="_top" xlink:title=" ">
<polygon fill="none" stroke="black" points="910,-6 910,-25 1077,-25 1077,-6 910,-6"/>
<text text-anchor="middle" x="993.5" y="-13" font-family="Helvetica,sans-Serif" font-size="10.00">lemons::plugin::BoolParameter</text>
</a>
</g>
</g>
<!-- Node19&#45;&gt;Node20 -->
<g id="edge21" class="edge">
<title>Node19&#45;&gt;Node20</title>
<path fill="none" stroke="midnightblue" d="M822.15,-15.5C850.82,-15.5 882,-15.5 909.75,-15.5"/>
<polygon fill="midnightblue" stroke="midnightblue" points="822.13,-12 812.13,-15.5 822.13,-19 822.13,-12"/>
</g>
<!-- Node21 -->
<g id="node21" class="node">
<title>Node21</title>
<g id="a_node21"><a xlink:href="structlemons_1_1plugin_1_1_toggle_parameter.html" target="_top" xlink:title=" ">
<polygon fill="none" stroke="black" points="1123,-6 1123,-25 1299,-25 1299,-6 1123,-6"/>
<text text-anchor="middle" x="1211" y="-13" font-family="Helvetica,sans-Serif" font-size="10.00">lemons::plugin::ToggleParameter</text>
</a>
</g>
</g>
<!-- Node20&#45;&gt;Node21 -->
<g id="edge22" class="edge">
<title>Node20&#45;&gt;Node21</title>
<path fill="none" stroke="midnightblue" d="M1087.46,-15.5C1099.21,-15.5 1111.21,-15.5 1122.87,-15.5"/>
<polygon fill="midnightblue" stroke="midnightblue" points="1087.2,-12 1077.2,-15.5 1087.2,-19 1087.2,-12"/>
</g>
</g>
</svg>
