<?xml version="1.0" encoding="UTF-8" standalone="no"?>
<!DOCTYPE svg PUBLIC "-//W3C//DTD SVG 1.1//EN"
 "http://www.w3.org/Graphics/SVG/1.1/DTD/svg11.dtd">
<!-- Generated by graphviz version 2.43.0 (0)
 -->
<!-- Title: lemons::plugin::TypedParameter&lt; ValueType &gt; Pages: 1 -->
<svg width="1224pt" height="480pt"
 viewBox="0.00 0.00 1224.00 480.00" xmlns="http://www.w3.org/2000/svg" xmlns:xlink="http://www.w3.org/1999/xlink">
<g id="graph0" class="graph" transform="scale(1 1) rotate(0) translate(4 476)">
<title>lemons::plugin::TypedParameter&lt; ValueType &gt;</title>
<!-- Node1 -->
<g id="node1" class="node">
<title>Node1</title>
<g id="a_node1"><a xlink:title="A parameter that can be stored as a type other than a float, but still inherits from my Parameter bas...">
<polygon fill="#bfbfbf" stroke="black" points="358,-220.5 358,-250.5 531,-250.5 531,-220.5 358,-220.5"/>
<text text-anchor="start" x="366" y="-238.5" font-family="Helvetica,sans-Serif" font-size="10.00">lemons::plugin::TypedParameter</text>
<text text-anchor="middle" x="444.5" y="-227.5" font-family="Helvetica,sans-Serif" font-size="10.00">&lt; ValueType &gt;</text>
</a>
</g>
</g>
<!-- Node4 -->
<g id="node4" class="node">
<title>Node4</title>
<g id="a_node4"><a xlink:href="structlemons_1_1plugin_1_1FloatAmountParameter.html" target="_top" xlink:title="A parameter that represents a value in a normalized 0&#45;1 range.">
<polygon fill="none" stroke="black" points="627.5,-441.5 627.5,-471.5 785.5,-471.5 785.5,-441.5 627.5,-441.5"/>
<text text-anchor="start" x="635.5" y="-459.5" font-family="Helvetica,sans-Serif" font-size="10.00">lemons::plugin::FloatAmount</text>
<text text-anchor="middle" x="706.5" y="-448.5" font-family="Helvetica,sans-Serif" font-size="10.00">Parameter&lt; float &gt;</text>
</a>
</g>
</g>
<!-- Node1&#45;&gt;Node4 -->
<g id="edge3" class="edge">
<title>Node1&#45;&gt;Node4</title>
<path fill="none" stroke="midnightblue" d="M458.39,-259.64C482.61,-302.38 539.29,-390.79 614,-432.5 620.17,-435.94 626.84,-438.91 633.68,-441.45"/>
<polygon fill="midnightblue" stroke="midnightblue" points="461.37,-257.8 453.46,-250.76 455.26,-261.2 461.37,-257.8"/>
</g>
<!-- Node5 -->
<g id="node5" class="node">
<title>Node5</title>
<g id="a_node5"><a xlink:href="structlemons_1_1plugin_1_1FrequencyParameter.html" target="_top" xlink:title="A parameter that represents a frequency in Hz.">
<polygon fill="none" stroke="black" points="634,-392.5 634,-422.5 779,-422.5 779,-392.5 634,-392.5"/>
<text text-anchor="start" x="642" y="-410.5" font-family="Helvetica,sans-Serif" font-size="10.00">lemons::plugin::Frequency</text>
<text text-anchor="middle" x="706.5" y="-399.5" font-family="Helvetica,sans-Serif" font-size="10.00">Parameter&lt; float &gt;</text>
</a>
</g>
</g>
<!-- Node1&#45;&gt;Node5 -->
<g id="edge4" class="edge">
<title>Node1&#45;&gt;Node5</title>
<path fill="none" stroke="midnightblue" d="M464.91,-258.47C493.93,-291.29 551.9,-351.22 614,-383.5 620.56,-386.91 627.64,-389.86 634.85,-392.41"/>
<polygon fill="midnightblue" stroke="midnightblue" points="467.38,-255.98 458.17,-250.74 462.1,-260.58 467.38,-255.98"/>
</g>
<!-- Node6 -->
<g id="node6" class="node">
<title>Node6</title>
<g id="a_node6"><a xlink:href="structlemons_1_1plugin_1_1GainParameter.html" target="_top" xlink:title="A parameter that represents a gain value in decibels.">
<polygon fill="none" stroke="black" points="623,-343.5 623,-373.5 790,-373.5 790,-343.5 623,-343.5"/>
<text text-anchor="start" x="631" y="-361.5" font-family="Helvetica,sans-Serif" font-size="10.00">lemons::plugin::GainParameter</text>
<text text-anchor="middle" x="706.5" y="-350.5" font-family="Helvetica,sans-Serif" font-size="10.00">&lt; float &gt;</text>
</a>
</g>
</g>
<!-- Node1&#45;&gt;Node6 -->
<g id="edge5" class="edge">
<title>Node1&#45;&gt;Node6</title>
<path fill="none" stroke="midnightblue" d="M475.46,-256.55C508.17,-278.68 562.74,-313.2 614,-334.5 622.04,-337.84 630.67,-340.83 639.3,-343.46"/>
<polygon fill="midnightblue" stroke="midnightblue" points="477.07,-253.41 466.84,-250.66 473.12,-259.19 477.07,-253.41"/>
</g>
<!-- Node7 -->
<g id="node7" class="node">
<title>Node7</title>
<g id="a_node7"><a xlink:href="structlemons_1_1plugin_1_1MeterParameter.html" target="_top" xlink:title="A parameter that represents a general kind of meter, used for reporting things like level or gain red...">
<polygon fill="none" stroke="black" points="620,-294.5 620,-324.5 793,-324.5 793,-294.5 620,-294.5"/>
<text text-anchor="start" x="628" y="-312.5" font-family="Helvetica,sans-Serif" font-size="10.00">lemons::plugin::MeterParameter</text>
<text text-anchor="middle" x="706.5" y="-301.5" font-family="Helvetica,sans-Serif" font-size="10.00">&lt; float &gt;</text>
</a>
</g>
</g>
<!-- Node1&#45;&gt;Node7 -->
<g id="edge6" class="edge">
<title>Node1&#45;&gt;Node7</title>
<path fill="none" stroke="midnightblue" d="M504.51,-253.51C536.78,-263.24 577.51,-275.3 614,-285.5 624.6,-288.46 635.92,-291.52 646.85,-294.41"/>
<polygon fill="midnightblue" stroke="midnightblue" points="505.36,-250.11 494.78,-250.57 503.34,-256.82 505.36,-250.11"/>
</g>
<!-- Node9 -->
<g id="node9" class="node">
<title>Node9</title>
<g id="a_node9"><a xlink:href="structlemons_1_1plugin_1_1MidiPanParameter.html" target="_top" xlink:title="A parameter that represents a MIDI panning value in the range 0 to 127.">
<polygon fill="none" stroke="black" points="615,-245.5 615,-275.5 798,-275.5 798,-245.5 615,-245.5"/>
<text text-anchor="start" x="623" y="-263.5" font-family="Helvetica,sans-Serif" font-size="10.00">lemons::plugin::MidiPanParameter</text>
<text text-anchor="middle" x="706.5" y="-252.5" font-family="Helvetica,sans-Serif" font-size="10.00">&lt; int &gt;</text>
</a>
</g>
</g>
<!-- Node1&#45;&gt;Node9 -->
<g id="edge8" class="edge">
<title>Node1&#45;&gt;Node9</title>
<path fill="none" stroke="midnightblue" d="M541.52,-244.73C565.49,-247.04 591.12,-249.5 614.83,-251.78"/>
<polygon fill="midnightblue" stroke="midnightblue" points="541.64,-241.23 531.35,-243.76 540.97,-248.2 541.64,-241.23"/>
</g>
<!-- Node10 -->
<g id="node10" class="node">
<title>Node10</title>
<g id="a_node10"><a xlink:href="structlemons_1_1plugin_1_1MidiPitchParameter.html" target="_top" xlink:title="A parameter that represents a MIDI pitch.">
<polygon fill="none" stroke="black" points="636.5,-196.5 636.5,-226.5 776.5,-226.5 776.5,-196.5 636.5,-196.5"/>
<text text-anchor="start" x="644.5" y="-214.5" font-family="Helvetica,sans-Serif" font-size="10.00">lemons::plugin::MidiPitch</text>
<text text-anchor="middle" x="706.5" y="-203.5" font-family="Helvetica,sans-Serif" font-size="10.00">Parameter&lt; int &gt;</text>
</a>
</g>
</g>
<!-- Node1&#45;&gt;Node10 -->
<g id="edge9" class="edge">
<title>Node1&#45;&gt;Node10</title>
<path fill="none" stroke="midnightblue" d="M541.44,-226.64C572.85,-223.74 607.12,-220.58 636.17,-217.9"/>
<polygon fill="midnightblue" stroke="midnightblue" points="540.99,-223.17 531.35,-227.57 541.63,-230.14 540.99,-223.17"/>
</g>
<!-- Node11 -->
<g id="node11" class="node">
<title>Node11</title>
<g id="a_node11"><a xlink:href="structlemons_1_1plugin_1_1PercentParameter.html" target="_top" xlink:title="A parameter that represents an integer value in the range 0&#45;100.">
<polygon fill="none" stroke="black" points="615.5,-147.5 615.5,-177.5 797.5,-177.5 797.5,-147.5 615.5,-147.5"/>
<text text-anchor="start" x="623.5" y="-165.5" font-family="Helvetica,sans-Serif" font-size="10.00">lemons::plugin::PercentParameter</text>
<text text-anchor="middle" x="706.5" y="-154.5" font-family="Helvetica,sans-Serif" font-size="10.00">&lt; int &gt;</text>
</a>
</g>
</g>
<!-- Node1&#45;&gt;Node11 -->
<g id="edge10" class="edge">
<title>Node1&#45;&gt;Node11</title>
<path fill="none" stroke="midnightblue" d="M505.6,-217.6C537.71,-208.15 577.94,-196.47 614,-186.5 624.76,-183.52 636.27,-180.44 647.35,-177.5"/>
<polygon fill="midnightblue" stroke="midnightblue" points="504.51,-214.28 495.91,-220.46 506.49,-220.99 504.51,-214.28"/>
</g>
<!-- Node12 -->
<g id="node12" class="node">
<title>Node12</title>
<g id="a_node12"><a xlink:href="structlemons_1_1plugin_1_1SecondsParameter.html" target="_top" xlink:title="A parameter that represents a time value in seconds, expressed as a float.">
<polygon fill="none" stroke="black" points="614,-98.5 614,-128.5 799,-128.5 799,-98.5 614,-98.5"/>
<text text-anchor="start" x="622" y="-116.5" font-family="Helvetica,sans-Serif" font-size="10.00">lemons::plugin::SecondsParameter</text>
<text text-anchor="middle" x="706.5" y="-105.5" font-family="Helvetica,sans-Serif" font-size="10.00">&lt; float &gt;</text>
</a>
</g>
</g>
<!-- Node1&#45;&gt;Node12 -->
<g id="edge11" class="edge">
<title>Node1&#45;&gt;Node12</title>
<path fill="none" stroke="midnightblue" d="M475.77,-214.5C508.54,-192.6 562.97,-158.58 614,-137.5 622.05,-134.18 630.68,-131.2 639.32,-128.57"/>
<polygon fill="midnightblue" stroke="midnightblue" points="473.46,-211.84 467.13,-220.33 477.37,-217.64 473.46,-211.84"/>
</g>
<!-- Node13 -->
<g id="node13" class="node">
<title>Node13</title>
<g id="a_node13"><a xlink:href="structlemons_1_1plugin_1_1SemitonesParameter.html" target="_top" xlink:title="A parameter that represents a number of semitones, as an integer.">
<polygon fill="none" stroke="black" points="633.5,-49.5 633.5,-79.5 779.5,-79.5 779.5,-49.5 633.5,-49.5"/>
<text text-anchor="start" x="641.5" y="-67.5" font-family="Helvetica,sans-Serif" font-size="10.00">lemons::plugin::Semitones</text>
<text text-anchor="middle" x="706.5" y="-56.5" font-family="Helvetica,sans-Serif" font-size="10.00">Parameter&lt; int &gt;</text>
</a>
</g>
</g>
<!-- Node1&#45;&gt;Node13 -->
<g id="edge12" class="edge">
<title>Node1&#45;&gt;Node13</title>
<path fill="none" stroke="midnightblue" d="M464.92,-212.65C493.95,-179.99 551.93,-120.41 614,-88.5 620.57,-85.12 627.66,-82.19 634.88,-79.65"/>
<polygon fill="midnightblue" stroke="midnightblue" points="462.14,-210.51 458.17,-220.33 467.4,-215.12 462.14,-210.51"/>
</g>
<!-- Node14 -->
<g id="node14" class="node">
<title>Node14</title>
<g id="a_node14"><a xlink:href="classlemons_1_1plugin_1_1TypedParameter.html" target="_top" xlink:title=" ">
<polygon fill="none" stroke="black" points="620,-0.5 620,-30.5 793,-30.5 793,-0.5 620,-0.5"/>
<text text-anchor="start" x="628" y="-18.5" font-family="Helvetica,sans-Serif" font-size="10.00">lemons::plugin::TypedParameter</text>
<text text-anchor="middle" x="706.5" y="-7.5" font-family="Helvetica,sans-Serif" font-size="10.00">&lt; bool &gt;</text>
</a>
</g>
</g>
<!-- Node1&#45;&gt;Node14 -->
<g id="edge13" class="edge">
<title>Node1&#45;&gt;Node14</title>
<path fill="none" stroke="orange" stroke-dasharray="5,2" d="M457.36,-211.37C480.45,-167.49 536.11,-75.81 614,-39.5 621.29,-36.1 629.15,-33.12 637.08,-30.53"/>
<polygon fill="orange" stroke="orange" points="454.15,-209.97 452.68,-220.46 460.37,-213.17 454.15,-209.97"/>
<text text-anchor="middle" x="572.5" y="-86.5" font-family="Helvetica,sans-Serif" font-size="10.00"> &lt; bool &gt;</text>
</g>
<!-- Node2 -->
<g id="node2" class="node">
<title>Node2</title>
<g id="a_node2"><a xlink:href="classlemons_1_1plugin_1_1Parameter.html" target="_top" xlink:title="A plugin parameter class that allows you to use my Serializing API, and has a few other cool bells an...">
<polygon fill="none" stroke="black" points="176,-226 176,-245 321,-245 321,-226 176,-226"/>
<text text-anchor="middle" x="248.5" y="-233" font-family="Helvetica,sans-Serif" font-size="10.00">lemons::plugin::Parameter</text>
</a>
</g>
</g>
<!-- Node2&#45;&gt;Node1 -->
<g id="edge1" class="edge">
<title>Node2&#45;&gt;Node1</title>
<path fill="none" stroke="midnightblue" d="M331.41,-235.5C340.2,-235.5 349.16,-235.5 357.99,-235.5"/>
<polygon fill="midnightblue" stroke="midnightblue" points="331.19,-232 321.19,-235.5 331.19,-239 331.19,-232"/>
</g>
<!-- Node3 -->
<g id="node3" class="node">
<title>Node3</title>
<g id="a_node3"><a xlink:href="structlemons_1_1SerializableData.html" target="_top" xlink:title="Base class for any C++ object that needs to be serialized to binary and back.">
<polygon fill="none" stroke="black" points="0,-226 0,-245 139,-245 139,-226 0,-226"/>
<text text-anchor="middle" x="69.5" y="-233" font-family="Helvetica,sans-Serif" font-size="10.00">lemons::SerializableData</text>
</a>
</g>
</g>
<!-- Node3&#45;&gt;Node2 -->
<g id="edge2" class="edge">
<title>Node3&#45;&gt;Node2</title>
<path fill="none" stroke="midnightblue" d="M149.45,-235.5C158.27,-235.5 167.21,-235.5 175.93,-235.5"/>
<polygon fill="midnightblue" stroke="midnightblue" points="149.19,-232 139.19,-235.5 149.19,-239 149.19,-232"/>
</g>
<!-- Node8 -->
<g id="node8" class="node">
<title>Node8</title>
<g id="a_node8"><a xlink:href="structlemons_1_1plugin_1_1GainMeterParameter.html" target="_top" xlink:title="A parameter that represents a meter displaying values in decibels.">
<polygon fill="none" stroke="black" points="846.5,-294.5 846.5,-324.5 992.5,-324.5 992.5,-294.5 846.5,-294.5"/>
<text text-anchor="start" x="854.5" y="-312.5" font-family="Helvetica,sans-Serif" font-size="10.00">lemons::plugin::GainMeter</text>
<text text-anchor="middle" x="919.5" y="-301.5" font-family="Helvetica,sans-Serif" font-size="10.00">Parameter</text>
</a>
</g>
</g>
<!-- Node7&#45;&gt;Node8 -->
<g id="edge7" class="edge">
<title>Node7&#45;&gt;Node8</title>
<path fill="none" stroke="midnightblue" d="M803.05,-309.5C817.61,-309.5 832.43,-309.5 846.38,-309.5"/>
<polygon fill="midnightblue" stroke="midnightblue" points="803.02,-306 793.02,-309.5 803.02,-313 803.02,-306"/>
</g>
<!-- Node15 -->
<g id="node15" class="node">
<title>Node15</title>
<g id="a_node15"><a xlink:href="structlemons_1_1plugin_1_1BoolParameter.html" target="_top" xlink:title="Helper struct that simplifies the constructor for boolean parameters.">
<polygon fill="none" stroke="black" points="836,-6 836,-25 1003,-25 1003,-6 836,-6"/>
<text text-anchor="middle" x="919.5" y="-13" font-family="Helvetica,sans-Serif" font-size="10.00">lemons::plugin::BoolParameter</text>
</a>
</g>
</g>
<!-- Node14&#45;&gt;Node15 -->
<g id="edge14" class="edge">
<title>Node14&#45;&gt;Node15</title>
<path fill="none" stroke="midnightblue" d="M803.05,-15.5C814.03,-15.5 825.15,-15.5 835.94,-15.5"/>
<polygon fill="midnightblue" stroke="midnightblue" points="803.02,-12 793.02,-15.5 803.02,-19 803.02,-12"/>
</g>
<!-- Node16 -->
<g id="node16" class="node">
<title>Node16</title>
<g id="a_node16"><a xlink:href="structlemons_1_1plugin_1_1ToggleParameter.html" target="_top" xlink:title="A parameter that represents a boolean on/off toggle.">
<polygon fill="none" stroke="black" points="1040,-6 1040,-25 1216,-25 1216,-6 1040,-6"/>
<text text-anchor="middle" x="1128" y="-13" font-family="Helvetica,sans-Serif" font-size="10.00">lemons::plugin::ToggleParameter</text>
</a>
</g>
</g>
<!-- Node15&#45;&gt;Node16 -->
<g id="edge15" class="edge">
<title>Node15&#45;&gt;Node16</title>
<path fill="none" stroke="midnightblue" d="M1013.03,-15.5C1021.97,-15.5 1031.01,-15.5 1039.89,-15.5"/>
<polygon fill="midnightblue" stroke="midnightblue" points="1013,-12 1003,-15.5 1013,-19 1013,-12"/>
</g>
</g>
</svg>
