<?xml version="1.0" encoding="UTF-8" standalone="no"?>
<!DOCTYPE svg PUBLIC "-//W3C//DTD SVG 1.1//EN"
 "http://www.w3.org/Graphics/SVG/1.1/DTD/svg11.dtd">
<!-- Generated by graphviz version 2.49.3 (20211023.0002)
 -->
<!-- Title: lemons::dsp::LatencyEngine&lt; SampleType &gt; Pages: 1 -->
<svg width="324pt" height="240pt"
 viewBox="0.00 0.00 324.00 240.00" xmlns="http://www.w3.org/2000/svg" xmlns:xlink="http://www.w3.org/1999/xlink">
<g id="graph0" class="graph" transform="scale(1 1) rotate(0) translate(4 236)">
<title>lemons::dsp::LatencyEngine&lt; SampleType &gt;</title>
<!-- Node1 -->
<g id="node1" class="node">
<title>Node1</title>
<g id="a_node1"><a xlink:title="Base class for audio engines that require latency (ie, a consistent block size) for their processing.">
<polygon fill="#bfbfbf" stroke="black" points="80,-134.5 80,-164.5 220,-164.5 220,-134.5 80,-134.5"/>
<text text-anchor="start" x="88" y="-152.5" font-family="Helvetica,sans-Serif" font-size="10.00">lemons::dsp::LatencyEngine</text>
<text text-anchor="middle" x="150" y="-141.5" font-family="Helvetica,sans-Serif" font-size="10.00">&lt; SampleType &gt;</text>
</a>
</g>
</g>
<!-- Node3 -->
<g id="node3" class="node">
<title>Node3</title>
<g id="a_node3"><a xlink:href="classlemons_1_1dsp_1_1_audio_file_player.html" target="_top" xlink:title="A kind of AudioEngine that plays audio from an AudioFile object.">
<polygon fill="none" stroke="black" points="0,-67.5 0,-97.5 144,-97.5 144,-67.5 0,-67.5"/>
<text text-anchor="start" x="8" y="-85.5" font-family="Helvetica,sans-Serif" font-size="10.00">lemons::dsp::AudioFilePlayer</text>
<text text-anchor="middle" x="72" y="-74.5" font-family="Helvetica,sans-Serif" font-size="10.00">&lt; SampleType &gt;</text>
</a>
</g>
</g>
<!-- Node1&#45;&gt;Node3 -->
<g id="edge2" class="edge">
<title>Node1&#45;&gt;Node3</title>
<path fill="none" stroke="midnightblue" d="M125.26,-127.88C113.41,-118.01 99.52,-106.43 88.89,-97.58"/>
<polygon fill="midnightblue" stroke="midnightblue" points="123.15,-130.68 133.08,-134.4 127.63,-125.31 123.15,-130.68"/>
</g>
<!-- Node4 -->
<g id="node4" class="node">
<title>Node4</title>
<g id="a_node4"><a xlink:href="classlemons_1_1dsp_1_1_engine_chain.html" target="_top" xlink:title="A kind of engine that contains a chain of other Engine objects.">
<polygon fill="none" stroke="black" points="162.5,-67.5 162.5,-97.5 293.5,-97.5 293.5,-67.5 162.5,-67.5"/>
<text text-anchor="start" x="170.5" y="-85.5" font-family="Helvetica,sans-Serif" font-size="10.00">lemons::dsp::EngineChain</text>
<text text-anchor="middle" x="228" y="-74.5" font-family="Helvetica,sans-Serif" font-size="10.00">&lt; SampleType &gt;</text>
</a>
</g>
</g>
<!-- Node1&#45;&gt;Node4 -->
<g id="edge3" class="edge">
<title>Node1&#45;&gt;Node4</title>
<path fill="none" stroke="midnightblue" d="M174.74,-127.88C186.59,-118.01 200.48,-106.43 211.11,-97.58"/>
<polygon fill="midnightblue" stroke="midnightblue" points="172.37,-125.31 166.92,-134.4 176.85,-130.68 172.37,-125.31"/>
</g>
<!-- Node2 -->
<g id="node2" class="node">
<title>Node2</title>
<g id="a_node2"><a xlink:href="classlemons_1_1dsp_1_1_engine.html" target="_top" xlink:title="Base class for an audio engine.">
<polygon fill="none" stroke="black" points="97,-201.5 97,-231.5 203,-231.5 203,-201.5 97,-201.5"/>
<text text-anchor="start" x="105" y="-219.5" font-family="Helvetica,sans-Serif" font-size="10.00">lemons::dsp::Engine</text>
<text text-anchor="middle" x="150" y="-208.5" font-family="Helvetica,sans-Serif" font-size="10.00">&lt; SampleType &gt;</text>
</a>
</g>
</g>
<!-- Node2&#45;&gt;Node1 -->
<g id="edge1" class="edge">
<title>Node2&#45;&gt;Node1</title>
<path fill="none" stroke="midnightblue" d="M150,-191.11C150,-182.15 150,-172.32 150,-164.58"/>
<polygon fill="midnightblue" stroke="midnightblue" points="146.5,-191.4 150,-201.4 153.5,-191.4 146.5,-191.4"/>
</g>
<!-- Node5 -->
<g id="node5" class="node">
<title>Node5</title>
<g id="a_node5"><a xlink:href="classlemons_1_1dsp_1_1_built_engine_chain.html" target="_top" xlink:title="An EngineChain that you can pass templated Engine types to and it will instantiate them all and add t...">
<polygon fill="none" stroke="black" points="140,-0.5 140,-30.5 316,-30.5 316,-0.5 140,-0.5"/>
<text text-anchor="start" x="148" y="-18.5" font-family="Helvetica,sans-Serif" font-size="10.00">lemons::dsp::BuiltEngine</text>
<text text-anchor="middle" x="228" y="-7.5" font-family="Helvetica,sans-Serif" font-size="10.00">Chain&lt; SampleType, EngineTypes &gt;</text>
</a>
</g>
</g>
<!-- Node4&#45;&gt;Node5 -->
<g id="edge4" class="edge">
<title>Node4&#45;&gt;Node5</title>
<path fill="none" stroke="midnightblue" d="M228,-57.11C228,-48.15 228,-38.32 228,-30.58"/>
<polygon fill="midnightblue" stroke="midnightblue" points="224.5,-57.4 228,-67.4 231.5,-57.4 224.5,-57.4"/>
</g>
</g>
</svg>
