<?xml version="1.0" encoding="UTF-8" standalone="no"?>
<!DOCTYPE svg PUBLIC "-//W3C//DTD SVG 1.1//EN"
 "http://www.w3.org/Graphics/SVG/1.1/DTD/svg11.dtd">
<!-- Generated by graphviz version 2.43.0 (0)
 -->
<!-- Title: lemons::plugin::Parameter Pages: 1 -->
<svg width="967pt" height="274pt"
 viewBox="0.00 0.00 967.00 273.50" xmlns="http://www.w3.org/2000/svg" xmlns:xlink="http://www.w3.org/1999/xlink">
<g id="graph0" class="graph" transform="scale(1 1) rotate(0) translate(4 269.5)">
<title>lemons::plugin::Parameter</title>
<!-- Node1 -->
<g id="node1" class="node">
<title>Node1</title>
<g id="a_node1"><a xlink:title=" ">
<polygon fill="#bfbfbf" stroke="black" points="175,-70.5 175,-89.5 320,-89.5 320,-70.5 175,-70.5"/>
<text text-anchor="middle" x="247.5" y="-77.5" font-family="Helvetica,sans-Serif" font-size="10.00">lemons::plugin::Parameter</text>
</a>
</g>
</g>
<!-- Node3 -->
<g id="node3" class="node">
<title>Node3</title>
<g id="a_node3"><a xlink:href="classlemons_1_1plugin_1_1TypedParameter.html" target="_top" xlink:title=" ">
<polygon fill="none" stroke="black" points="356,-112 356,-142 529,-142 529,-112 356,-112"/>
<text text-anchor="start" x="364" y="-130" font-family="Helvetica,sans-Serif" font-size="10.00">lemons::plugin::TypedParameter</text>
<text text-anchor="middle" x="442.5" y="-119" font-family="Helvetica,sans-Serif" font-size="10.00">&lt; ValueType &gt;</text>
</a>
</g>
</g>
<!-- Node1&#45;&gt;Node3 -->
<g id="edge2" class="edge">
<title>Node1&#45;&gt;Node3</title>
<path fill="none" stroke="midnightblue" d="M297.53,-91.94C322.51,-98.02 353.13,-105.48 379.7,-111.95"/>
<polygon fill="midnightblue" stroke="midnightblue" points="298.1,-88.48 287.56,-89.51 296.44,-95.28 298.1,-88.48"/>
</g>
<!-- Node10 -->
<g id="node10" class="node">
<title>Node10</title>
<g id="a_node10"><a xlink:href="classlemons_1_1plugin_1_1TypedParameter.html" target="_top" xlink:title=" ">
<polygon fill="none" stroke="black" points="356,-41 356,-71 529,-71 529,-41 356,-41"/>
<text text-anchor="start" x="364" y="-59" font-family="Helvetica,sans-Serif" font-size="10.00">lemons::plugin::TypedParameter</text>
<text text-anchor="middle" x="442.5" y="-48" font-family="Helvetica,sans-Serif" font-size="10.00">&lt; bool &gt;</text>
</a>
</g>
</g>
<!-- Node1&#45;&gt;Node10 -->
<g id="edge9" class="edge">
<title>Node1&#45;&gt;Node10</title>
<path fill="none" stroke="midnightblue" d="M330.07,-69.86C338.64,-68.79 347.37,-67.7 355.99,-66.63"/>
<polygon fill="midnightblue" stroke="midnightblue" points="329.58,-66.39 320.09,-71.1 330.45,-73.34 329.58,-66.39"/>
</g>
<!-- Node2 -->
<g id="node2" class="node">
<title>Node2</title>
<g id="a_node2"><a xlink:href="structlemons_1_1SerializableData.html" target="_top" xlink:title=" ">
<polygon fill="none" stroke="black" points="0,-70.5 0,-89.5 139,-89.5 139,-70.5 0,-70.5"/>
<text text-anchor="middle" x="69.5" y="-77.5" font-family="Helvetica,sans-Serif" font-size="10.00">lemons::SerializableData</text>
</a>
</g>
</g>
<!-- Node2&#45;&gt;Node1 -->
<g id="edge1" class="edge">
<title>Node2&#45;&gt;Node1</title>
<path fill="none" stroke="midnightblue" d="M149.08,-80C157.69,-80 166.42,-80 174.94,-80"/>
<polygon fill="midnightblue" stroke="midnightblue" points="149.05,-76.5 139.05,-80 149.05,-83.5 149.05,-76.5"/>
</g>
<!-- Node4 -->
<g id="node4" class="node">
<title>Node4</title>
<g id="a_node4"><a xlink:href="structlemons_1_1plugin_1_1FloatAmountParameter.html" target="_top" xlink:title=" ">
<polygon fill="none" stroke="black" points="577,-235 577,-265 735,-265 735,-235 577,-235"/>
<text text-anchor="start" x="585" y="-253" font-family="Helvetica,sans-Serif" font-size="10.00">lemons::plugin::FloatAmount</text>
<text text-anchor="middle" x="656" y="-242" font-family="Helvetica,sans-Serif" font-size="10.00">Parameter&lt; float &gt;</text>
</a>
</g>
</g>
<!-- Node3&#45;&gt;Node4 -->
<g id="edge3" class="edge">
<title>Node3&#45;&gt;Node4</title>
<path fill="none" stroke="midnightblue" d="M464.85,-149.25C487.65,-171.75 525.81,-205.99 565,-226 571.62,-229.38 578.77,-232.33 586.05,-234.88"/>
<polygon fill="midnightblue" stroke="midnightblue" points="467.27,-146.72 457.73,-142.11 462.31,-151.66 467.27,-146.72"/>
</g>
<!-- Node5 -->
<g id="node5" class="node">
<title>Node5</title>
<g id="a_node5"><a xlink:href="structlemons_1_1plugin_1_1FrequencyParameter.html" target="_top" xlink:title=" ">
<polygon fill="none" stroke="black" points="583.5,-186 583.5,-216 728.5,-216 728.5,-186 583.5,-186"/>
<text text-anchor="start" x="591.5" y="-204" font-family="Helvetica,sans-Serif" font-size="10.00">lemons::plugin::Frequency</text>
<text text-anchor="middle" x="656" y="-193" font-family="Helvetica,sans-Serif" font-size="10.00">Parameter&lt; float &gt;</text>
</a>
</g>
</g>
<!-- Node3&#45;&gt;Node5 -->
<g id="edge4" class="edge">
<title>Node3&#45;&gt;Node5</title>
<path fill="none" stroke="midnightblue" d="M486.01,-146.08C509.1,-156.04 538.31,-167.99 565,-177 574.35,-180.15 584.35,-183.17 594.16,-185.93"/>
<polygon fill="midnightblue" stroke="midnightblue" points="487.4,-142.87 476.84,-142.09 484.61,-149.29 487.4,-142.87"/>
</g>
<!-- Node6 -->
<g id="node6" class="node">
<title>Node6</title>
<g id="a_node6"><a xlink:href="structlemons_1_1plugin_1_1GainParameter.html" target="_top" xlink:title=" ">
<polygon fill="none" stroke="black" points="572.5,-137 572.5,-167 739.5,-167 739.5,-137 572.5,-137"/>
<text text-anchor="start" x="580.5" y="-155" font-family="Helvetica,sans-Serif" font-size="10.00">lemons::plugin::GainParameter</text>
<text text-anchor="middle" x="656" y="-144" font-family="Helvetica,sans-Serif" font-size="10.00">&lt; float &gt;</text>
</a>
</g>
</g>
<!-- Node3&#45;&gt;Node6 -->
<g id="edge5" class="edge">
<title>Node3&#45;&gt;Node6</title>
<path fill="none" stroke="midnightblue" d="M539.27,-138.32C550.28,-139.62 561.43,-140.94 572.24,-142.22"/>
<polygon fill="midnightblue" stroke="midnightblue" points="539.56,-134.83 529.22,-137.13 538.74,-141.78 539.56,-134.83"/>
</g>
<!-- Node7 -->
<g id="node7" class="node">
<title>Node7</title>
<g id="a_node7"><a xlink:href="structlemons_1_1plugin_1_1MeterParameter.html" target="_top" xlink:title=" ">
<polygon fill="none" stroke="black" points="569.5,-88 569.5,-118 742.5,-118 742.5,-88 569.5,-88"/>
<text text-anchor="start" x="577.5" y="-106" font-family="Helvetica,sans-Serif" font-size="10.00">lemons::plugin::MeterParameter</text>
<text text-anchor="middle" x="656" y="-95" font-family="Helvetica,sans-Serif" font-size="10.00">&lt; float &gt;</text>
</a>
</g>
</g>
<!-- Node3&#45;&gt;Node7 -->
<g id="edge6" class="edge">
<title>Node3&#45;&gt;Node7</title>
<path fill="none" stroke="midnightblue" d="M539.16,-116.14C549.16,-115.01 559.28,-113.86 569.16,-112.74"/>
<polygon fill="midnightblue" stroke="midnightblue" points="538.76,-112.67 529.22,-117.27 539.55,-119.62 538.76,-112.67"/>
</g>
<!-- Node9 -->
<g id="node9" class="node">
<title>Node9</title>
<g id="a_node9"><a xlink:href="structlemons_1_1plugin_1_1PercentParameter.html" target="_top" xlink:title=" ">
<polygon fill="none" stroke="black" points="565,-39 565,-69 747,-69 747,-39 565,-39"/>
<text text-anchor="start" x="573" y="-57" font-family="Helvetica,sans-Serif" font-size="10.00">lemons::plugin::PercentParameter</text>
<text text-anchor="middle" x="656" y="-46" font-family="Helvetica,sans-Serif" font-size="10.00">&lt; int &gt;</text>
</a>
</g>
</g>
<!-- Node3&#45;&gt;Node9 -->
<g id="edge8" class="edge">
<title>Node3&#45;&gt;Node9</title>
<path fill="none" stroke="midnightblue" d="M487.09,-107.91C510.03,-98.25 538.76,-86.75 565,-78 574.36,-74.88 584.37,-71.88 594.18,-69.13"/>
<polygon fill="midnightblue" stroke="midnightblue" points="485.48,-104.79 477.65,-111.92 488.22,-111.23 485.48,-104.79"/>
</g>
<!-- Node8 -->
<g id="node8" class="node">
<title>Node8</title>
<g id="a_node8"><a xlink:href="structlemons_1_1plugin_1_1GainMeterParameter.html" target="_top" xlink:title=" ">
<polygon fill="none" stroke="black" points="798,-88 798,-118 944,-118 944,-88 798,-88"/>
<text text-anchor="start" x="806" y="-106" font-family="Helvetica,sans-Serif" font-size="10.00">lemons::plugin::GainMeter</text>
<text text-anchor="middle" x="871" y="-95" font-family="Helvetica,sans-Serif" font-size="10.00">Parameter</text>
</a>
</g>
</g>
<!-- Node7&#45;&gt;Node8 -->
<g id="edge7" class="edge">
<title>Node7&#45;&gt;Node8</title>
<path fill="none" stroke="midnightblue" d="M753.06,-103C768.1,-103 783.41,-103 797.79,-103"/>
<polygon fill="midnightblue" stroke="midnightblue" points="752.71,-99.5 742.71,-103 752.71,-106.5 752.71,-99.5"/>
</g>
<!-- Node11 -->
<g id="node11" class="node">
<title>Node11</title>
<g id="a_node11"><a xlink:href="structlemons_1_1plugin_1_1BoolParameter.html" target="_top" xlink:title=" ">
<polygon fill="none" stroke="black" points="572.5,-0.5 572.5,-19.5 739.5,-19.5 739.5,-0.5 572.5,-0.5"/>
<text text-anchor="middle" x="656" y="-7.5" font-family="Helvetica,sans-Serif" font-size="10.00">lemons::plugin::BoolParameter</text>
</a>
</g>
</g>
<!-- Node10&#45;&gt;Node11 -->
<g id="edge10" class="edge">
<title>Node10&#45;&gt;Node11</title>
<path fill="none" stroke="midnightblue" d="M520.7,-38.71C535.41,-35.46 550.67,-32.1 565,-29 579.36,-25.89 595.02,-22.56 609.19,-19.57"/>
<polygon fill="midnightblue" stroke="midnightblue" points="519.64,-35.37 510.63,-40.95 521.15,-42.2 519.64,-35.37"/>
</g>
<!-- Node12 -->
<g id="node12" class="node">
<title>Node12</title>
<g id="a_node12"><a xlink:href="structlemons_1_1plugin_1_1ToggleParameter.html" target="_top" xlink:title=" ">
<polygon fill="none" stroke="black" points="783,-0.5 783,-19.5 959,-19.5 959,-0.5 783,-0.5"/>
<text text-anchor="middle" x="871" y="-7.5" font-family="Helvetica,sans-Serif" font-size="10.00">lemons::plugin::ToggleParameter</text>
</a>
</g>
</g>
<!-- Node11&#45;&gt;Node12 -->
<g id="edge11" class="edge">
<title>Node11&#45;&gt;Node12</title>
<path fill="none" stroke="midnightblue" d="M749.69,-10C760.69,-10 771.89,-10 782.81,-10"/>
<polygon fill="midnightblue" stroke="midnightblue" points="749.66,-6.5 739.66,-10 749.66,-13.5 749.66,-6.5"/>
</g>
</g>
</svg>
