<?xml version="1.0" encoding="UTF-8" standalone="no"?>
<!DOCTYPE svg PUBLIC "-//W3C//DTD SVG 1.1//EN"
 "http://www.w3.org/Graphics/SVG/1.1/DTD/svg11.dtd">
<!-- Generated by graphviz version 2.49.1 (20210923.0004)
 -->
<!-- Title: lemons::dsp::Engine&lt; SampleType &gt; Pages: 1 -->
<!--zoomable 164 -->
<svg id="main" version="1.1" xmlns="http://www.w3.org/2000/svg" xmlns:xlink="http://www.w3.org/1999/xlink" xml:space="preserve" onload="init(evt)">
<style type="text/css"><![CDATA[
.edge:hover path { stroke: red; }
.edge:hover polygon { stroke: red; fill: red; }
]]></style>
<script type="text/javascript"><![CDATA[
var edges = document.getElementsByTagName('g');
if (edges && edges.length) {
  for (var i=0;i<edges.length;i++) {
    if (edges[i].id.substr(0,4)=='edge') {
      edges[i].setAttribute('class','edge');
    }
  }
}
]]></script>
        <defs>
                <circle id="rim" cx="0" cy="0" r="7"/>
                <circle id="rim2" cx="0" cy="0" r="3.5"/>
                <g id="zoomPlus">
                        <use xlink:href="#rim" fill="#404040">
                                <set attributeName="fill" to="#808080" begin="zoomplus.mouseover" end="zoomplus.mouseout"/>
                        </use>
                        <path d="M-4,0h8M0,-4v8" fill="none" stroke="white" stroke-width="1.5" pointer-events="none"/>
                </g>
                <g id="zoomMin">
                        <use xlink:href="#rim" fill="#404040">
                                <set attributeName="fill" to="#808080" begin="zoomminus.mouseover" end="zoomminus.mouseout"/>
                        </use>
                        <path d="M-4,0h8" fill="none" stroke="white" stroke-width="1.5" pointer-events="none"/>
                </g>
                <g id="dirArrow">
                        <path fill="none" stroke="white" stroke-width="1.5" d="M0,-3.0v7 M-2.5,-0.5L0,-3.0L2.5,-0.5"/>
                </g>
               <g id="resetDef">
                       <use xlink:href="#rim2" fill="#404040">
                               <set attributeName="fill" to="#808080" begin="reset.mouseover" end="reset.mouseout"/>
                       </use>
               </g>
        </defs>

<script type="text/javascript">
var viewWidth = 778;
var viewHeight = 164;
var sectionId = 'dynsection-0';
</script>
<script xlink:href="svgpan.js"/>
<svg id="graph" class="graph">
<g id="viewport">
<title>lemons::dsp::Engine&lt; SampleType &gt;</title>
<!-- Node1 -->
<g id="node1" class="node">
<title>Node1</title>
<g id="a_node1"><a xlink:title="Base class for an audio engine.">
<polygon fill="#bfbfbf" stroke="black" points="0,-73.5 0,-103.5 107,-103.5 107,-73.5 0,-73.5"/>
<text text-anchor="start" x="8" y="-91.5" font-family="Helvetica,sans-Serif" font-size="10.00">lemons::dsp::Engine</text>
<text text-anchor="middle" x="53.5" y="-80.5" font-family="Helvetica,sans-Serif" font-size="10.00">&lt; SampleType &gt;</text>
</a>
</g>
</g>
<!-- Node2 -->
<g id="node2" class="node">
<title>Node2</title>
<g id="a_node2"><a xlink:href="classlemons_1_1dsp_1_1FX_1_1EffectEngine.html" target="_top" xlink:title=" ">
<polygon fill="none" stroke="black" points="434,-120.5 434,-150.5 585,-150.5 585,-120.5 434,-120.5"/>
<text text-anchor="start" x="442" y="-138.5" font-family="Helvetica,sans-Serif" font-size="10.00">lemons::dsp::FX::EffectEngine</text>
<text text-anchor="middle" x="509.5" y="-127.5" font-family="Helvetica,sans-Serif" font-size="10.00">&lt; Filter, SampleType &gt;</text>
</a>
</g>
</g>
<!-- Node1&#45;&gt;Node2 -->
<g id="edge1" class="edge">
<title>Node1&#45;&gt;Node2</title>
<path fill="none" stroke="midnightblue" d="M84.1,-109.28C100.85,-119.84 122.67,-131.64 144,-137.5 241.33,-164.25 358.87,-156.89 433.66,-147.54"/>
<polygon fill="midnightblue" stroke="midnightblue" points="85.64,-106.11 75.35,-103.6 81.83,-111.98 85.64,-106.11"/>
</g>
<!-- Node4 -->
<g id="node4" class="node">
<title>Node4</title>
<g id="a_node4"><a xlink:href="classlemons_1_1dsp_1_1FX_1_1EffectEngine.html" target="_top" xlink:title="A class that wraps an AudioEffect into a dsp::Engine.">
<polygon fill="none" stroke="black" points="144,-98.5 144,-128.5 295,-128.5 295,-98.5 144,-98.5"/>
<text text-anchor="start" x="152" y="-116.5" font-family="Helvetica,sans-Serif" font-size="10.00">lemons::dsp::FX::EffectEngine</text>
<text text-anchor="middle" x="219.5" y="-105.5" font-family="Helvetica,sans-Serif" font-size="10.00">&lt; EffectType, SampleType, &gt;</text>
</a>
</g>
</g>
<!-- Node1&#45;&gt;Node4 -->
<g id="edge3" class="edge">
<title>Node1&#45;&gt;Node4</title>
<path fill="none" stroke="midnightblue" d="M117.28,-98.07C125.92,-99.39 134.87,-100.75 143.71,-102.1"/>
<polygon fill="midnightblue" stroke="midnightblue" points="117.71,-94.59 107.29,-96.55 116.65,-101.51 117.71,-94.59"/>
</g>
<!-- Node5 -->
<g id="node5" class="node">
<title>Node5</title>
<g id="a_node5"><a xlink:href="classlemons_1_1dsp_1_1LatencyEngine.html" target="_top" xlink:title="Base class for audio engines that require latency (ie, a consistent block size) for their processing.">
<polygon fill="none" stroke="black" points="148.5,-49.5 148.5,-79.5 290.5,-79.5 290.5,-49.5 148.5,-49.5"/>
<text text-anchor="start" x="156.5" y="-67.5" font-family="Helvetica,sans-Serif" font-size="10.00">lemons::dsp::LatencyEngine</text>
<text text-anchor="middle" x="219.5" y="-56.5" font-family="Helvetica,sans-Serif" font-size="10.00">&lt; SampleType &gt;</text>
</a>
</g>
</g>
<!-- Node1&#45;&gt;Node5 -->
<g id="edge5" class="edge">
<title>Node1&#45;&gt;Node5</title>
<path fill="none" stroke="midnightblue" d="M117.31,-79.31C127.5,-77.82 138.11,-76.26 148.45,-74.75"/>
<polygon fill="midnightblue" stroke="midnightblue" points="116.68,-75.86 107.29,-80.77 117.69,-82.79 116.68,-75.86"/>
</g>
<!-- Node6 -->
<g id="node6" class="node">
<title>Node6</title>
<g id="a_node6"><a xlink:href="classlemons_1_1dsp_1_1osc_1_1OscEngine.html" target="_top" xlink:title="A utility class that wraps an Oscillator into a self&#45;contained dsp::Engine.">
<polygon fill="none" stroke="black" points="146.5,-0.5 146.5,-30.5 292.5,-30.5 292.5,-0.5 146.5,-0.5"/>
<text text-anchor="start" x="154.5" y="-18.5" font-family="Helvetica,sans-Serif" font-size="10.00">lemons::dsp::osc::OscEngine</text>
<text text-anchor="middle" x="219.5" y="-7.5" font-family="Helvetica,sans-Serif" font-size="10.00">&lt; SampleType, Osctype &gt;</text>
</a>
</g>
</g>
<!-- Node1&#45;&gt;Node6 -->
<g id="edge6" class="edge">
<title>Node1&#45;&gt;Node6</title>
<path fill="none" stroke="midnightblue" d="M87.69,-68.37C104.24,-58.84 124.78,-47.77 144,-39.5 151.36,-36.33 159.29,-33.35 167.13,-30.63"/>
<polygon fill="midnightblue" stroke="midnightblue" points="85.82,-65.41 78.94,-73.47 89.34,-71.45 85.82,-65.41"/>
</g>
<!-- Node3 -->
<g id="node3" class="node">
<title>Node3</title>
<g id="a_node3"><a xlink:href="structlemons_1_1dsp_1_1FX_1_1FilterEngine.html" target="_top" xlink:title="A class that represents an audio engine holding a filter effect.">
<polygon fill="none" stroke="black" points="622,-120.5 622,-150.5 770,-150.5 770,-120.5 622,-120.5"/>
<text text-anchor="start" x="630" y="-138.5" font-family="Helvetica,sans-Serif" font-size="10.00">lemons::dsp::FX::FilterEngine</text>
<text text-anchor="middle" x="696" y="-127.5" font-family="Helvetica,sans-Serif" font-size="10.00">&lt; SampleType &gt;</text>
</a>
</g>
</g>
<!-- Node2&#45;&gt;Node3 -->
<g id="edge2" class="edge">
<title>Node2&#45;&gt;Node3</title>
<path fill="none" stroke="midnightblue" d="M595.02,-135.5C603.93,-135.5 612.94,-135.5 621.71,-135.5"/>
<polygon fill="midnightblue" stroke="midnightblue" points="595.01,-132 585.01,-135.5 595.01,-139 595.01,-132"/>
</g>
<!-- Node4&#45;&gt;Node2 -->
<g id="edge4" class="edge">
<title>Node4&#45;&gt;Node2</title>
<path fill="none" stroke="orange" stroke-dasharray="5,2" d="M305.23,-119.97C345.98,-123.09 394.41,-126.78 433.77,-129.79"/>
<polygon fill="orange" stroke="orange" points="305.28,-116.47 295.04,-119.19 304.75,-123.45 305.28,-116.47"/>
<text text-anchor="middle" x="364.5" y="-131.5" font-family="Helvetica,sans-Serif" font-size="10.00"> &lt; Filter, SampleType &gt;</text>
</g>
</g>
</svg>
        <g id="navigator" transform="translate(0 0)" fill="#404254">
                <rect fill="#f2f5e9" fill-opacity="0.5" stroke="#606060" stroke-width=".5" x="0" y="0" width="60" height="60"/>
                <use id="zoomplus" xlink:href="#zoomPlus" x="17" y="9" onmousedown="handleZoom(evt,'in')"/>
                <use id="zoomminus" xlink:href="#zoomMin" x="42" y="9" onmousedown="handleZoom(evt,'out')"/>
                <use id="reset" xlink:href="#resetDef" x="30" y="36" onmousedown="handleReset()"/>
                <g id="arrowUp" xlink:href="#dirArrow" transform="translate(30 24)" onmousedown="handlePan(0,-1)">
                  <use xlink:href="#rim" fill="#404040">
                        <set attributeName="fill" to="#808080" begin="arrowUp.mouseover" end="arrowUp.mouseout"/>
                  </use>
                  <path fill="none" stroke="white" stroke-width="1.5" d="M0,-3.0v7 M-2.5,-0.5L0,-3.0L2.5,-0.5"/>
                </g>
                <g id="arrowRight" xlink:href="#dirArrow" transform="rotate(90) translate(36 -43)" onmousedown="handlePan(1,0)">
                  <use xlink:href="#rim" fill="#404040">
                        <set attributeName="fill" to="#808080" begin="arrowRight.mouseover" end="arrowRight.mouseout"/>
                  </use>
                  <path fill="none" stroke="white" stroke-width="1.5" d="M0,-3.0v7 M-2.5,-0.5L0,-3.0L2.5,-0.5"/>
                </g>
                <g id="arrowDown" xlink:href="#dirArrow" transform="rotate(180) translate(-30 -48)" onmousedown="handlePan(0,1)">
                  <use xlink:href="#rim" fill="#404040">
                        <set attributeName="fill" to="#808080" begin="arrowDown.mouseover" end="arrowDown.mouseout"/>
                  </use>
                  <path fill="none" stroke="white" stroke-width="1.5" d="M0,-3.0v7 M-2.5,-0.5L0,-3.0L2.5,-0.5"/>
                </g>
                <g id="arrowLeft" xlink:href="#dirArrow" transform="rotate(270) translate(-36 17)" onmousedown="handlePan(-1,0)">
                  <use xlink:href="#rim" fill="#404040">
                        <set attributeName="fill" to="#808080" begin="arrowLeft.mouseover" end="arrowLeft.mouseout"/>
                  </use>
                  <path fill="none" stroke="white" stroke-width="1.5" d="M0,-3.0v7 M-2.5,-0.5L0,-3.0L2.5,-0.5"/>
                </g>
        </g>
        <svg viewBox="0 0 15 15" width="100%" height="30px" preserveAspectRatio="xMaxYMin meet">
         <g id="arrow_out" transform="scale(0.3 0.3)">
          <a xlink:href="classlemons_1_1dsp_1_1Engine__inherit__graph_org.svg" target="_base">
           <rect id="button" ry="5" rx="5" y="6" x="6" height="38" width="38"
                fill="#f2f5e9" fill-opacity="0.5" stroke="#606060" stroke-width="1.0"/>
           <path id="arrow"
             d="M 11.500037,31.436501 C 11.940474,20.09759 22.043105,11.32322 32.158766,21.979434 L 37.068811,17.246167 C 37.068811,17.246167 37.088388,32 37.088388,32 L 22.160133,31.978069 C 22.160133,31.978069 26.997745,27.140456 26.997745,27.140456 C 18.528582,18.264221 13.291696,25.230495 11.500037,31.436501 z"
             style="fill:#404040;"/>
          </a>
         </g>
        </svg>
</svg>
