<?xml version="1.0" encoding="UTF-8" standalone="no"?>
<!DOCTYPE svg PUBLIC "-//W3C//DTD SVG 1.1//EN"
 "http://www.w3.org/Graphics/SVG/1.1/DTD/svg11.dtd">
<!-- Generated by graphviz version 2.43.0 (0)
 -->
<!-- Title: lemons::plugin::ProcessorBase Pages: 1 -->
<svg width="346pt" height="151pt"
 viewBox="0.00 0.00 346.00 151.00" xmlns="http://www.w3.org/2000/svg" xmlns:xlink="http://www.w3.org/1999/xlink">
<g id="graph0" class="graph" transform="scale(1 1) rotate(0) translate(4 147)">
<title>lemons::plugin::ProcessorBase</title>
<!-- Node1 -->
<g id="node1" class="node">
<title>Node1</title>
<g id="a_node1"><a xlink:title="Base class for a plugin processor.">
<polygon fill="#bfbfbf" stroke="black" points="95.5,-67.5 95.5,-86.5 261.5,-86.5 261.5,-67.5 95.5,-67.5"/>
<text text-anchor="middle" x="178.5" y="-74.5" font-family="Helvetica,sans-Serif" font-size="10.00">lemons::plugin::ProcessorBase</text>
</a>
</g>
</g>
<!-- Node4 -->
<g id="node4" class="node">
<title>Node4</title>
<g id="a_node4"><a xlink:href="classlemons_1_1plugin_1_1_processor.html" target="_top" xlink:title="A processor class for a plugin that can simply be told the state type and engine type,...">
<polygon fill="none" stroke="black" points="101,-0.5 101,-30.5 256,-30.5 256,-0.5 101,-0.5"/>
<text text-anchor="start" x="109" y="-18.5" font-family="Helvetica,sans-Serif" font-size="10.00">lemons::plugin::Processor</text>
<text text-anchor="middle" x="178.5" y="-7.5" font-family="Helvetica,sans-Serif" font-size="10.00">&lt; StateType, EngineType,, &gt;</text>
</a>
</g>
</g>
<!-- Node1&#45;&gt;Node4 -->
<g id="edge3" class="edge">
<title>Node1&#45;&gt;Node4</title>
<path fill="none" stroke="midnightblue" d="M178.5,-57.23C178.5,-48.59 178.5,-38.5 178.5,-30.52"/>
<polygon fill="midnightblue" stroke="midnightblue" points="175,-57.48 178.5,-67.48 182,-57.48 175,-57.48"/>
</g>
<!-- Node2 -->
<g id="node2" class="node">
<title>Node2</title>
<g id="a_node2"><a xlink:href="classlemons_1_1dsp_1_1_basic_processor_base.html" target="_top" xlink:title="A default implementation of a basic, generic juce AudioProcessor.">
<polygon fill="none" stroke="black" points="0,-123.5 0,-142.5 179,-142.5 179,-123.5 0,-123.5"/>
<text text-anchor="middle" x="89.5" y="-130.5" font-family="Helvetica,sans-Serif" font-size="10.00">lemons::dsp::BasicProcessorBase</text>
</a>
</g>
</g>
<!-- Node2&#45;&gt;Node1 -->
<g id="edge1" class="edge">
<title>Node2&#45;&gt;Node1</title>
<path fill="none" stroke="midnightblue" d="M112.74,-117.9C129.06,-108 150.37,-95.07 164.24,-86.65"/>
<polygon fill="midnightblue" stroke="midnightblue" points="110.53,-115.14 103.8,-123.32 114.16,-121.13 110.53,-115.14"/>
</g>
<!-- Node3 -->
<g id="node3" class="node">
<title>Node3</title>
<g id="a_node3"><a xlink:href="structlemons_1_1_system_initializer.html" target="_top" xlink:title=" ">
<polygon fill="none" stroke="black" points="197,-123.5 197,-142.5 338,-142.5 338,-123.5 197,-123.5"/>
<text text-anchor="middle" x="267.5" y="-130.5" font-family="Helvetica,sans-Serif" font-size="10.00">lemons::SystemInitializer</text>
</a>
</g>
</g>
<!-- Node3&#45;&gt;Node1 -->
<g id="edge2" class="edge">
<title>Node3&#45;&gt;Node1</title>
<path fill="none" stroke="#8b1a1a" d="M244.26,-117.9C227.94,-108 206.63,-95.07 192.76,-86.65"/>
<polygon fill="#8b1a1a" stroke="#8b1a1a" points="242.84,-121.13 253.2,-123.32 246.47,-115.14 242.84,-121.13"/>
</g>
</g>
</svg>
