<?xml version="1.0" encoding="UTF-8" standalone="no"?>
<!DOCTYPE svg PUBLIC "-//W3C//DTD SVG 1.1//EN"
 "http://www.w3.org/Graphics/SVG/1.1/DTD/svg11.dtd">
<!-- Generated by graphviz version 2.49.1 (20210923.0004)
 -->
<!-- Title: lemons::plugin::presets::SubLibrary Pages: 1 -->
<svg width="301pt" height="137pt"
 viewBox="0.00 0.00 301.00 137.00" xmlns="http://www.w3.org/2000/svg" xmlns:xlink="http://www.w3.org/1999/xlink">
<g id="graph0" class="graph" transform="scale(1 1) rotate(0) translate(4 133)">
<title>lemons::plugin::presets::SubLibrary</title>
<!-- Node1 -->
<g id="node1" class="node">
<title>Node1</title>
<g id="a_node1"><a xlink:title=" ">
<polygon fill="#bfbfbf" stroke="black" points="0,-49.5 0,-79.5 119,-79.5 119,-49.5 0,-49.5"/>
<text text-anchor="start" x="8" y="-67.5" font-family="Helvetica,sans-Serif" font-size="10.00">lemons::plugin::presets</text>
<text text-anchor="middle" x="59.5" y="-56.5" font-family="Helvetica,sans-Serif" font-size="10.00">::SubLibrary</text>
</a>
</g>
</g>
<!-- Node2 -->
<g id="node2" class="node">
<title>Node2</title>
<g id="a_node2"><a xlink:href="classlemons_1_1plugin_1_1presets_1_1DatabasePresetsManager.html" target="_top" xlink:title=" ">
<polygon fill="none" stroke="black" points="155,-98.5 155,-128.5 293,-128.5 293,-98.5 155,-98.5"/>
<text text-anchor="start" x="163" y="-116.5" font-family="Helvetica,sans-Serif" font-size="10.00">lemons::plugin::presets</text>
<text text-anchor="middle" x="224" y="-105.5" font-family="Helvetica,sans-Serif" font-size="10.00">::DatabasePresetsManager</text>
</a>
</g>
</g>
<!-- Node1&#45;&gt;Node2 -->
<g id="edge1" class="edge">
<title>Node1&#45;&gt;Node2</title>
<path fill="none" stroke="midnightblue" d="M120.57,-82.61C137.84,-87.82 156.49,-93.45 173.08,-98.45"/>
<polygon fill="midnightblue" stroke="midnightblue" points="121.17,-79.14 110.58,-79.6 119.15,-85.84 121.17,-79.14"/>
</g>
<!-- Node3 -->
<g id="node3" class="node">
<title>Node3</title>
<g id="a_node3"><a xlink:href="classlemons_1_1plugin_1_1presets_1_1FactoryPresetsManager.html" target="_top" xlink:title=" ">
<polygon fill="none" stroke="black" points="159.5,-49.5 159.5,-79.5 288.5,-79.5 288.5,-49.5 159.5,-49.5"/>
<text text-anchor="start" x="167.5" y="-67.5" font-family="Helvetica,sans-Serif" font-size="10.00">lemons::plugin::presets</text>
<text text-anchor="middle" x="224" y="-56.5" font-family="Helvetica,sans-Serif" font-size="10.00">::FactoryPresetsManager</text>
</a>
</g>
</g>
<!-- Node1&#45;&gt;Node3 -->
<g id="edge2" class="edge">
<title>Node1&#45;&gt;Node3</title>
<path fill="none" stroke="midnightblue" d="M129.43,-64.5C139.4,-64.5 149.62,-64.5 159.48,-64.5"/>
<polygon fill="midnightblue" stroke="midnightblue" points="129.17,-61 119.17,-64.5 129.17,-68 129.17,-61"/>
</g>
<!-- Node4 -->
<g id="node4" class="node">
<title>Node4</title>
<g id="a_node4"><a xlink:href="classlemons_1_1plugin_1_1presets_1_1LocalPresetsManager.html" target="_top" xlink:title=" ">
<polygon fill="none" stroke="black" points="164.5,-0.5 164.5,-30.5 283.5,-30.5 283.5,-0.5 164.5,-0.5"/>
<text text-anchor="start" x="172.5" y="-18.5" font-family="Helvetica,sans-Serif" font-size="10.00">lemons::plugin::presets</text>
<text text-anchor="middle" x="224" y="-7.5" font-family="Helvetica,sans-Serif" font-size="10.00">::LocalPresetsManager</text>
</a>
</g>
</g>
<!-- Node1&#45;&gt;Node4 -->
<g id="edge3" class="edge">
<title>Node1&#45;&gt;Node4</title>
<path fill="none" stroke="midnightblue" d="M120.57,-46.39C137.84,-41.18 156.49,-35.55 173.08,-30.55"/>
<polygon fill="midnightblue" stroke="midnightblue" points="119.15,-43.16 110.58,-49.4 121.17,-49.86 119.15,-43.16"/>
</g>
</g>
</svg>
