<?xml version="1.0" encoding="UTF-8" standalone="no"?>
<!DOCTYPE svg PUBLIC "-//W3C//DTD SVG 1.1//EN"
 "http://www.w3.org/Graphics/SVG/1.1/DTD/svg11.dtd">
<!-- Generated by graphviz version 2.50.0 (20211204.2007)
 -->
<!-- Title: lemons::dsp::osc::Engine&lt; SampleType, OscType, &gt; Pages: 1 -->
<svg width="1069pt" height="580pt"
 viewBox="0.00 0.00 1069.00 580.00" xmlns="http://www.w3.org/2000/svg" xmlns:xlink="http://www.w3.org/1999/xlink">
<g id="graph0" class="graph" transform="scale(1 1) rotate(0) translate(4 576)">
<title>lemons::dsp::osc::Engine&lt; SampleType, OscType, &gt;</title>
<!-- Node1 -->
<g id="node1" class="node">
<title>Node1</title>
<g id="a_node1"><a xlink:title=" ">
<polygon fill="#bfbfbf" stroke="black" points="624,-266 624,-296 761,-296 761,-266 624,-266"/>
<text text-anchor="start" x="632" y="-284" font-family="Helvetica,sans-Serif" font-size="10.00">lemons::dsp::osc::Engine</text>
<text text-anchor="middle" x="692.5" y="-273" font-family="Helvetica,sans-Serif" font-size="10.00">&lt; SampleType, OscType, &gt;</text>
</a>
</g>
</g>
<!-- Node5 -->
<g id="node5" class="node">
<title>Node5</title>
<g id="a_node5"><a xlink:href="classlemons_1_1dsp_1_1osc_1_1_engine.html" target="_top" xlink:title=" ">
<polygon fill="none" stroke="black" points="911.5,-530.5 911.5,-571.5 1050.5,-571.5 1050.5,-530.5 911.5,-530.5"/>
<text text-anchor="start" x="919.5" y="-559.5" font-family="Helvetica,sans-Serif" font-size="10.00">lemons::dsp::osc::Engine</text>
<text text-anchor="start" x="919.5" y="-548.5" font-family="Helvetica,sans-Serif" font-size="10.00">&lt; SampleType, lemons::dsp</text>
<text text-anchor="middle" x="981" y="-537.5" font-family="Helvetica,sans-Serif" font-size="10.00">::osc::Sine &gt;</text>
</a>
</g>
</g>
<!-- Node1&#45;&gt;Node5 -->
<g id="edge5" class="edge">
<title>Node1&#45;&gt;Node5</title>
<path fill="none" stroke="orange" stroke-dasharray="5,2" d="M695.18,-306.13C699.77,-353.68 716.76,-456.79 779,-510 815.27,-541.01 868.65,-550.79 911.28,-553.07"/>
<polygon fill="orange" stroke="orange" points="698.66,-305.75 694.31,-296.08 691.68,-306.35 698.66,-305.75"/>
<text text-anchor="start" x="779" y="-564" font-family="Helvetica,sans-Serif" font-size="10.00"> &lt; SampleType, lemons</text>
<text text-anchor="middle" x="831" y="-553" font-family="Helvetica,sans-Serif" font-size="10.00">::dsp::osc::Sine &gt;</text>
</g>
<!-- Node6 -->
<g id="node6" class="node">
<title>Node6</title>
<g id="a_node6"><a xlink:href="classlemons_1_1dsp_1_1osc_1_1_engine.html" target="_top" xlink:title=" ">
<polygon fill="none" stroke="black" points="911.5,-470.5 911.5,-511.5 1050.5,-511.5 1050.5,-470.5 911.5,-470.5"/>
<text text-anchor="start" x="919.5" y="-499.5" font-family="Helvetica,sans-Serif" font-size="10.00">lemons::dsp::osc::Engine</text>
<text text-anchor="start" x="919.5" y="-488.5" font-family="Helvetica,sans-Serif" font-size="10.00">&lt; SampleType, lemons::dsp</text>
<text text-anchor="middle" x="981" y="-477.5" font-family="Helvetica,sans-Serif" font-size="10.00">::osc::Saw &gt;</text>
</a>
</g>
</g>
<!-- Node1&#45;&gt;Node6 -->
<g id="edge6" class="edge">
<title>Node1&#45;&gt;Node6</title>
<path fill="none" stroke="orange" stroke-dasharray="5,2" d="M699.64,-305.95C709.82,-341.92 733.72,-407.87 779,-443 816.7,-472.25 869.48,-484.06 911.5,-488.66"/>
<polygon fill="orange" stroke="orange" points="703,-304.98 697.02,-296.24 696.24,-306.8 703,-304.98"/>
<text text-anchor="start" x="779" y="-498" font-family="Helvetica,sans-Serif" font-size="10.00"> &lt; SampleType, lemons</text>
<text text-anchor="middle" x="831" y="-487" font-family="Helvetica,sans-Serif" font-size="10.00">::dsp::osc::Saw &gt;</text>
</g>
<!-- Node7 -->
<g id="node7" class="node">
<title>Node7</title>
<g id="a_node7"><a xlink:href="classlemons_1_1dsp_1_1osc_1_1_engine.html" target="_top" xlink:title=" ">
<polygon fill="none" stroke="black" points="911.5,-410.5 911.5,-451.5 1050.5,-451.5 1050.5,-410.5 911.5,-410.5"/>
<text text-anchor="start" x="919.5" y="-439.5" font-family="Helvetica,sans-Serif" font-size="10.00">lemons::dsp::osc::Engine</text>
<text text-anchor="start" x="919.5" y="-428.5" font-family="Helvetica,sans-Serif" font-size="10.00">&lt; SampleType, lemons::dsp</text>
<text text-anchor="middle" x="981" y="-417.5" font-family="Helvetica,sans-Serif" font-size="10.00">::osc::Square &gt;</text>
</a>
</g>
</g>
<!-- Node1&#45;&gt;Node7 -->
<g id="edge7" class="edge">
<title>Node1&#45;&gt;Node7</title>
<path fill="none" stroke="orange" stroke-dasharray="5,2" d="M708.02,-305.04C723,-327.76 748.44,-361.11 779,-380 818.97,-404.7 870.42,-417.47 911.26,-424.05"/>
<polygon fill="orange" stroke="orange" points="710.78,-302.85 702.44,-296.31 704.88,-306.62 710.78,-302.85"/>
<text text-anchor="start" x="779" y="-431" font-family="Helvetica,sans-Serif" font-size="10.00"> &lt; SampleType, lemons</text>
<text text-anchor="middle" x="831" y="-420" font-family="Helvetica,sans-Serif" font-size="10.00">::dsp::osc::Square &gt;</text>
</g>
<!-- Node8 -->
<g id="node8" class="node">
<title>Node8</title>
<g id="a_node8"><a xlink:href="classlemons_1_1dsp_1_1osc_1_1_engine.html" target="_top" xlink:title=" ">
<polygon fill="none" stroke="black" points="911.5,-350.5 911.5,-391.5 1050.5,-391.5 1050.5,-350.5 911.5,-350.5"/>
<text text-anchor="start" x="919.5" y="-379.5" font-family="Helvetica,sans-Serif" font-size="10.00">lemons::dsp::osc::Engine</text>
<text text-anchor="start" x="919.5" y="-368.5" font-family="Helvetica,sans-Serif" font-size="10.00">&lt; SampleType, lemons::dsp</text>
<text text-anchor="middle" x="981" y="-357.5" font-family="Helvetica,sans-Serif" font-size="10.00">::osc::Triangle &gt;</text>
</a>
</g>
</g>
<!-- Node1&#45;&gt;Node8 -->
<g id="edge8" class="edge">
<title>Node1&#45;&gt;Node8</title>
<path fill="none" stroke="orange" stroke-dasharray="5,2" d="M727.23,-301.4C742.59,-309.99 761.27,-319.48 779,-326 821.79,-341.74 871.82,-352.96 911.26,-360.26"/>
<polygon fill="orange" stroke="orange" points="728.55,-298.12 718.13,-296.2 725.08,-304.2 728.55,-298.12"/>
<text text-anchor="start" x="779" y="-368" font-family="Helvetica,sans-Serif" font-size="10.00"> &lt; SampleType, lemons</text>
<text text-anchor="middle" x="831" y="-357" font-family="Helvetica,sans-Serif" font-size="10.00">::dsp::osc::Triangle &gt;</text>
</g>
<!-- Node9 -->
<g id="node9" class="node">
<title>Node9</title>
<g id="a_node9"><a xlink:href="classlemons_1_1dsp_1_1osc_1_1_engine.html" target="_top" xlink:title=" ">
<polygon fill="none" stroke="black" points="911.5,-290.5 911.5,-331.5 1050.5,-331.5 1050.5,-290.5 911.5,-290.5"/>
<text text-anchor="start" x="919.5" y="-319.5" font-family="Helvetica,sans-Serif" font-size="10.00">lemons::dsp::osc::Engine</text>
<text text-anchor="start" x="919.5" y="-308.5" font-family="Helvetica,sans-Serif" font-size="10.00">&lt; SampleType, lemons::dsp</text>
<text text-anchor="middle" x="981" y="-297.5" font-family="Helvetica,sans-Serif" font-size="10.00">::osc::Detunable &gt;</text>
</a>
</g>
</g>
<!-- Node1&#45;&gt;Node9 -->
<g id="edge9" class="edge">
<title>Node1&#45;&gt;Node9</title>
<path fill="none" stroke="orange" stroke-dasharray="5,2" d="M771.07,-289.12C814.89,-293.71 869.18,-299.4 911.43,-303.82"/>
<polygon fill="orange" stroke="orange" points="771.34,-285.63 761.03,-288.07 770.61,-292.59 771.34,-285.63"/>
<text text-anchor="start" x="779" y="-314" font-family="Helvetica,sans-Serif" font-size="10.00"> &lt; SampleType, lemons</text>
<text text-anchor="middle" x="831" y="-303" font-family="Helvetica,sans-Serif" font-size="10.00">::dsp::osc::Detunable &gt;</text>
</g>
<!-- Node10 -->
<g id="node10" class="node">
<title>Node10</title>
<g id="a_node10"><a xlink:href="classlemons_1_1dsp_1_1osc_1_1_engine.html" target="_top" xlink:title=" ">
<polygon fill="none" stroke="black" points="917,-230.5 917,-271.5 1045,-271.5 1045,-230.5 917,-230.5"/>
<text text-anchor="start" x="925" y="-259.5" font-family="Helvetica,sans-Serif" font-size="10.00">lemons::dsp::osc::Engine</text>
<text text-anchor="start" x="925" y="-248.5" font-family="Helvetica,sans-Serif" font-size="10.00">&lt; float, lemons::dsp::osc</text>
<text text-anchor="middle" x="981" y="-237.5" font-family="Helvetica,sans-Serif" font-size="10.00">::Sine &gt;</text>
</a>
</g>
</g>
<!-- Node1&#45;&gt;Node10 -->
<g id="edge10" class="edge">
<title>Node1&#45;&gt;Node10</title>
<path fill="none" stroke="orange" stroke-dasharray="5,2" d="M770.94,-265.14C773.66,-264.73 776.35,-264.35 779,-264 824.94,-257.97 877.17,-254.7 916.87,-252.95"/>
<polygon fill="orange" stroke="orange" points="770.36,-261.68 761.04,-266.72 771.46,-268.6 770.36,-261.68"/>
<text text-anchor="start" x="785.5" y="-278" font-family="Helvetica,sans-Serif" font-size="10.00"> &lt; float, lemons::dsp</text>
<text text-anchor="middle" x="831" y="-267" font-family="Helvetica,sans-Serif" font-size="10.00">::osc::Sine &gt;</text>
</g>
<!-- Node11 -->
<g id="node11" class="node">
<title>Node11</title>
<g id="a_node11"><a xlink:href="classlemons_1_1dsp_1_1osc_1_1_engine.html" target="_top" xlink:title=" ">
<polygon fill="none" stroke="black" points="901,-181 901,-211 1061,-211 1061,-181 901,-181"/>
<text text-anchor="start" x="909" y="-199" font-family="Helvetica,sans-Serif" font-size="10.00">lemons::dsp::osc::Engine</text>
<text text-anchor="middle" x="981" y="-188" font-family="Helvetica,sans-Serif" font-size="10.00">&lt; float, lemons::dsp::osc::Saw &gt;</text>
</a>
</g>
</g>
<!-- Node1&#45;&gt;Node11 -->
<g id="edge11" class="edge">
<title>Node1&#45;&gt;Node11</title>
<path fill="none" stroke="orange" stroke-dasharray="5,2" d="M721.8,-259.98C737.81,-249.09 758.65,-236.53 779,-229 817.8,-214.64 863.12,-206.51 900.89,-201.92"/>
<polygon fill="orange" stroke="orange" points="719.64,-257.22 713.44,-265.81 723.64,-262.96 719.64,-257.22"/>
<text text-anchor="start" x="785.5" y="-243" font-family="Helvetica,sans-Serif" font-size="10.00"> &lt; float, lemons::dsp</text>
<text text-anchor="middle" x="831" y="-232" font-family="Helvetica,sans-Serif" font-size="10.00">::osc::Saw &gt;</text>
</g>
<!-- Node12 -->
<g id="node12" class="node">
<title>Node12</title>
<g id="a_node12"><a xlink:href="classlemons_1_1dsp_1_1osc_1_1_engine.html" target="_top" xlink:title=" ">
<polygon fill="none" stroke="black" points="917,-120.5 917,-161.5 1045,-161.5 1045,-120.5 917,-120.5"/>
<text text-anchor="start" x="925" y="-149.5" font-family="Helvetica,sans-Serif" font-size="10.00">lemons::dsp::osc::Engine</text>
<text text-anchor="start" x="925" y="-138.5" font-family="Helvetica,sans-Serif" font-size="10.00">&lt; float, lemons::dsp::osc</text>
<text text-anchor="middle" x="981" y="-127.5" font-family="Helvetica,sans-Serif" font-size="10.00">::Square &gt;</text>
</a>
</g>
</g>
<!-- Node1&#45;&gt;Node12 -->
<g id="edge12" class="edge">
<title>Node1&#45;&gt;Node12</title>
<path fill="none" stroke="orange" stroke-dasharray="5,2" d="M706.91,-256.91C721.46,-233.16 746.97,-197.77 779,-179 820.83,-154.49 875.19,-145.32 916.84,-142.09"/>
<polygon fill="orange" stroke="orange" points="703.8,-255.3 701.71,-265.69 709.82,-258.87 703.8,-255.3"/>
<text text-anchor="start" x="785.5" y="-193" font-family="Helvetica,sans-Serif" font-size="10.00"> &lt; float, lemons::dsp</text>
<text text-anchor="middle" x="831" y="-182" font-family="Helvetica,sans-Serif" font-size="10.00">::osc::Square &gt;</text>
</g>
<!-- Node13 -->
<g id="node13" class="node">
<title>Node13</title>
<g id="a_node13"><a xlink:href="classlemons_1_1dsp_1_1osc_1_1_engine.html" target="_top" xlink:title=" ">
<polygon fill="none" stroke="black" points="917,-60.5 917,-101.5 1045,-101.5 1045,-60.5 917,-60.5"/>
<text text-anchor="start" x="925" y="-89.5" font-family="Helvetica,sans-Serif" font-size="10.00">lemons::dsp::osc::Engine</text>
<text text-anchor="start" x="925" y="-78.5" font-family="Helvetica,sans-Serif" font-size="10.00">&lt; float, lemons::dsp::osc</text>
<text text-anchor="middle" x="981" y="-67.5" font-family="Helvetica,sans-Serif" font-size="10.00">::Triangle &gt;</text>
</a>
</g>
</g>
<!-- Node1&#45;&gt;Node13 -->
<g id="edge13" class="edge">
<title>Node1&#45;&gt;Node13</title>
<path fill="none" stroke="orange" stroke-dasharray="5,2" d="M699.56,-256.12C709.64,-220.31 733.42,-154.81 779,-121 818.58,-91.64 874.16,-82.34 916.85,-79.99"/>
<polygon fill="orange" stroke="orange" points="696.17,-255.24 696.97,-265.8 702.93,-257.05 696.17,-255.24"/>
<text text-anchor="start" x="785.5" y="-135" font-family="Helvetica,sans-Serif" font-size="10.00"> &lt; float, lemons::dsp</text>
<text text-anchor="middle" x="831" y="-124" font-family="Helvetica,sans-Serif" font-size="10.00">::osc::Triangle &gt;</text>
</g>
<!-- Node14 -->
<g id="node14" class="node">
<title>Node14</title>
<g id="a_node14"><a xlink:href="classlemons_1_1dsp_1_1osc_1_1_engine.html" target="_top" xlink:title=" ">
<polygon fill="none" stroke="black" points="917,-0.5 917,-41.5 1045,-41.5 1045,-0.5 917,-0.5"/>
<text text-anchor="start" x="925" y="-29.5" font-family="Helvetica,sans-Serif" font-size="10.00">lemons::dsp::osc::Engine</text>
<text text-anchor="start" x="925" y="-18.5" font-family="Helvetica,sans-Serif" font-size="10.00">&lt; float, lemons::dsp::osc</text>
<text text-anchor="middle" x="981" y="-7.5" font-family="Helvetica,sans-Serif" font-size="10.00">::Detunable &gt;</text>
</a>
</g>
</g>
<!-- Node1&#45;&gt;Node14 -->
<g id="edge14" class="edge">
<title>Node1&#45;&gt;Node14</title>
<path fill="none" stroke="orange" stroke-dasharray="5,2" d="M695.37,-255.77C700.27,-208.98 717.74,-108.91 779,-58 817.07,-26.36 873.33,-18.22 916.66,-17.36"/>
<polygon fill="orange" stroke="orange" points="691.87,-255.66 694.42,-265.94 698.84,-256.31 691.87,-255.66"/>
<text text-anchor="start" x="785.5" y="-72" font-family="Helvetica,sans-Serif" font-size="10.00"> &lt; float, lemons::dsp</text>
<text text-anchor="middle" x="831" y="-61" font-family="Helvetica,sans-Serif" font-size="10.00">::osc::Detunable &gt;</text>
</g>
<!-- Node2 -->
<g id="node2" class="node">
<title>Node2</title>
<g id="a_node2"><a xlink:href="classlemons_1_1dsp_1_1_stream_engine.html" target="_top" xlink:title=" ">
<polygon fill="none" stroke="black" points="450,-266 450,-296 587,-296 587,-266 450,-266"/>
<text text-anchor="start" x="458" y="-284" font-family="Helvetica,sans-Serif" font-size="10.00">lemons::dsp::StreamEngine</text>
<text text-anchor="middle" x="518.5" y="-273" font-family="Helvetica,sans-Serif" font-size="10.00">&lt; SampleType, OscType &gt;</text>
</a>
</g>
</g>
<!-- Node2&#45;&gt;Node1 -->
<g id="edge1" class="edge">
<title>Node2&#45;&gt;Node1</title>
<path fill="none" stroke="midnightblue" d="M597.63,-281C606.35,-281 615.17,-281 623.73,-281"/>
<polygon fill="midnightblue" stroke="midnightblue" points="597.48,-277.5 587.48,-281 597.48,-284.5 597.48,-277.5"/>
</g>
<!-- Node3 -->
<g id="node3" class="node">
<title>Node3</title>
<g id="a_node3"><a xlink:href="classlemons_1_1dsp_1_1_engine.html" target="_top" xlink:title="Base class for an audio engine.">
<polygon fill="none" stroke="black" points="0,-262 0,-292 106,-292 106,-262 0,-262"/>
<text text-anchor="start" x="8" y="-280" font-family="Helvetica,sans-Serif" font-size="10.00">lemons::dsp::Engine</text>
<text text-anchor="middle" x="53" y="-269" font-family="Helvetica,sans-Serif" font-size="10.00">&lt; SampleType &gt;</text>
</a>
</g>
</g>
<!-- Node3&#45;&gt;Node2 -->
<g id="edge2" class="edge">
<title>Node3&#45;&gt;Node2</title>
<path fill="none" stroke="midnightblue" d="M116.37,-281.63C118.94,-281.77 121.5,-281.89 124,-282 260.76,-287.98 295.14,-288.2 432,-285 437.79,-284.86 443.81,-284.68 449.84,-284.46"/>
<polygon fill="midnightblue" stroke="midnightblue" points="116.53,-278.13 106.35,-281.06 116.13,-285.12 116.53,-278.13"/>
</g>
<!-- Node4 -->
<g id="node4" class="node">
<title>Node4</title>
<g id="a_node4"><a xlink:href="classlemons_1_1dsp_1_1_stream_engine.html" target="_top" xlink:title="A utility class that wraps a SampleStream into a self&#45;contained dsp::Engine.">
<polygon fill="none" stroke="black" points="143,-240 143,-270 293,-270 293,-240 143,-240"/>
<text text-anchor="start" x="151" y="-258" font-family="Helvetica,sans-Serif" font-size="10.00">lemons::dsp::StreamEngine</text>
<text text-anchor="middle" x="218" y="-247" font-family="Helvetica,sans-Serif" font-size="10.00">&lt; SampleType, StreamType, &gt;</text>
</a>
</g>
</g>
<!-- Node3&#45;&gt;Node4 -->
<g id="edge4" class="edge">
<title>Node3&#45;&gt;Node4</title>
<path fill="none" stroke="midnightblue" d="M116.13,-268.62C124.88,-267.43 133.95,-266.21 142.89,-265"/>
<polygon fill="midnightblue" stroke="midnightblue" points="115.46,-265.17 106.02,-269.98 116.4,-272.11 115.46,-265.17"/>
</g>
<!-- Node4&#45;&gt;Node2 -->
<g id="edge3" class="edge">
<title>Node4&#45;&gt;Node2</title>
<path fill="none" stroke="orange" stroke-dasharray="5,2" d="M303.2,-262.33C349.58,-266.37 406.37,-271.32 449.84,-275.11"/>
<polygon fill="orange" stroke="orange" points="303.44,-258.84 293.17,-261.46 302.83,-265.81 303.44,-258.84"/>
<text text-anchor="middle" x="371.5" y="-277" font-family="Helvetica,sans-Serif" font-size="10.00"> &lt; SampleType, OscType &gt;</text>
</g>
</g>
</svg>
