<?xml version="1.0" encoding="UTF-8" standalone="no"?>
<!DOCTYPE svg PUBLIC "-//W3C//DTD SVG 1.1//EN"
 "http://www.w3.org/Graphics/SVG/1.1/DTD/svg11.dtd">
<!-- Generated by graphviz version 2.43.0 (0)
 -->
<!-- Title: lemons::dsp::Engine&lt; SampleType &gt; Pages: 1 -->
<!--zoomable 706 -->
<svg id="main" version="1.1" xmlns="http://www.w3.org/2000/svg" xmlns:xlink="http://www.w3.org/1999/xlink" xml:space="preserve" onload="init(evt)">
<style type="text/css"><![CDATA[
.edge:hover path { stroke: red; }
.edge:hover polygon { stroke: red; fill: red; }
]]></style>
<script type="text/javascript"><![CDATA[
var edges = document.getElementsByTagName('g');
if (edges && edges.length) {
  for (var i=0;i<edges.length;i++) {
    if (edges[i].id.substr(0,4)=='edge') {
      edges[i].setAttribute('class','edge');
    }
  }
}
]]></script>
        <defs>
                <circle id="rim" cx="0" cy="0" r="7"/>
                <circle id="rim2" cx="0" cy="0" r="3.5"/>
                <g id="zoomPlus">
                        <use xlink:href="#rim" fill="#404040">
                                <set attributeName="fill" to="#808080" begin="zoomplus.mouseover" end="zoomplus.mouseout"/>
                        </use>
                        <path d="M-4,0h8M0,-4v8" fill="none" stroke="white" stroke-width="1.5" pointer-events="none"/>
                </g>
                <g id="zoomMin">
                        <use xlink:href="#rim" fill="#404040">
                                <set attributeName="fill" to="#808080" begin="zoomminus.mouseover" end="zoomminus.mouseout"/>
                        </use>
                        <path d="M-4,0h8" fill="none" stroke="white" stroke-width="1.5" pointer-events="none"/>
                </g>
                <g id="dirArrow">
                        <path fill="none" stroke="white" stroke-width="1.5" d="M0,-3.0v7 M-2.5,-0.5L0,-3.0L2.5,-0.5"/>
                </g>
               <g id="resetDef">
                       <use xlink:href="#rim2" fill="#404040">
                               <set attributeName="fill" to="#808080" begin="reset.mouseover" end="reset.mouseout"/>
                       </use>
               </g>
        </defs>

<script type="text/javascript">
var viewWidth = 907;
var viewHeight = 706;
var sectionId = 'dynsection-0';
</script>
<script xlink:href="svgpan.js"/>
<svg id="graph" class="graph">
<g id="viewport">
<title>lemons::dsp::Engine&lt; SampleType &gt;</title>
<!-- Node1 -->
<g id="node1" class="node">
<title>Node1</title>
<g id="a_node1"><a xlink:title="Base class for an audio engine.">
<polygon fill="#bfbfbf" stroke="black" points="0,-296.35 0,-326.35 115,-326.35 115,-296.35 0,-296.35"/>
<text text-anchor="start" x="8" y="-314.35" font-family="Helvetica,sans-Serif" font-size="10.00">lemons::dsp::Engine</text>
<text text-anchor="middle" x="57.5" y="-303.35" font-family="Helvetica,sans-Serif" font-size="10.00">&lt; SampleType &gt;</text>
</a>
</g>
</g>
<!-- Node2 -->
<g id="node2" class="node">
<title>Node2</title>
<g id="a_node2"><a xlink:href="classlemons_1_1dsp_1_1_f_x_1_1_effect_engine.html" target="_top" xlink:title=" ">
<polygon fill="none" stroke="black" points="395,-667.35 395,-697.35 511,-697.35 511,-667.35 395,-667.35"/>
<text text-anchor="start" x="403" y="-685.35" font-family="Helvetica,sans-Serif" font-size="10.00">EffectEngine&lt; Filter,</text>
<text text-anchor="middle" x="453" y="-674.35" font-family="Helvetica,sans-Serif" font-size="10.00"> SampleType &gt;</text>
</a>
</g>
</g>
<!-- Node1&#45;&gt;Node2 -->
<g id="edge1" class="edge">
<title>Node1&#45;&gt;Node2</title>
<path fill="none" stroke="midnightblue" d="M63.25,-336.55C75.74,-395.38 115.32,-542.18 210,-613.35 264.39,-654.24 342.17,-670.91 394.75,-677.7"/>
<polygon fill="midnightblue" stroke="midnightblue" points="66.65,-335.72 61.22,-326.63 59.79,-337.12 66.65,-335.72"/>
</g>
<!-- Node4 -->
<g id="node4" class="node">
<title>Node4</title>
<g id="a_node4"><a xlink:href="classlemons_1_1dsp_1_1_f_x_1_1_effect_engine.html" target="_top" xlink:title="A class that wraps an AudioEffect into a dsp::Engine.">
<polygon fill="none" stroke="black" points="213,-573.35 213,-603.35 374,-603.35 374,-573.35 213,-573.35"/>
<text text-anchor="start" x="221" y="-591.35" font-family="Helvetica,sans-Serif" font-size="10.00">lemons::dsp::FX::EffectEngine</text>
<text text-anchor="middle" x="293.5" y="-580.35" font-family="Helvetica,sans-Serif" font-size="10.00">&lt; SampleType &gt;</text>
</a>
</g>
</g>
<!-- Node1&#45;&gt;Node4 -->
<g id="edge3" class="edge">
<title>Node1&#45;&gt;Node4</title>
<path fill="none" stroke="midnightblue" d="M68.95,-335.95C81.73,-364.52 105.14,-412.34 133,-448.35 161.67,-485.41 174.79,-489.43 210,-520.35 231.34,-539.09 256.64,-559.72 273.54,-573.28"/>
<polygon fill="midnightblue" stroke="midnightblue" points="72.11,-334.44 64.88,-326.69 65.7,-337.26 72.11,-334.44"/>
</g>
<!-- Node6 -->
<g id="node6" class="node">
<title>Node6</title>
<g id="a_node6"><a xlink:href="classlemons_1_1dsp_1_1_latency_engine.html" target="_top" xlink:title="Base class for audio engines that require latency (ie, a consistent block size) for their processing.">
<polygon fill="none" stroke="black" points="217,-480.35 217,-510.35 370,-510.35 370,-480.35 217,-480.35"/>
<text text-anchor="start" x="225" y="-498.35" font-family="Helvetica,sans-Serif" font-size="10.00">lemons::dsp::LatencyEngine</text>
<text text-anchor="middle" x="293.5" y="-487.35" font-family="Helvetica,sans-Serif" font-size="10.00">&lt; SampleType &gt;</text>
</a>
</g>
</g>
<!-- Node1&#45;&gt;Node6 -->
<g id="edge6" class="edge">
<title>Node1&#45;&gt;Node6</title>
<path fill="none" stroke="midnightblue" d="M73.72,-334.89C98.01,-370.43 149.07,-437.23 210,-471.35 216.12,-474.78 222.77,-477.75 229.55,-480.33"/>
<polygon fill="midnightblue" stroke="midnightblue" points="76.61,-332.92 68.13,-326.57 70.8,-336.82 76.61,-332.92"/>
</g>
<!-- Node7 -->
<g id="node7" class="node">
<title>Node7</title>
<g id="a_node7"><a xlink:href="classlemons_1_1dsp_1_1osc_1_1_osc_engine.html" target="_top" xlink:title="A utility class that wraps an Oscillator into a self&#45;contained dsp::Engine.">
<polygon fill="none" stroke="black" points="216,-345.35 216,-375.35 371,-375.35 371,-345.35 216,-345.35"/>
<text text-anchor="start" x="224" y="-363.35" font-family="Helvetica,sans-Serif" font-size="10.00">lemons::dsp::osc::OscEngine</text>
<text text-anchor="middle" x="293.5" y="-352.35" font-family="Helvetica,sans-Serif" font-size="10.00">&lt; SampleType &gt;</text>
</a>
</g>
</g>
<!-- Node1&#45;&gt;Node7 -->
<g id="edge7" class="edge">
<title>Node1&#45;&gt;Node7</title>
<path fill="none" stroke="midnightblue" d="M125.07,-325.29C154.99,-331.55 190.35,-338.96 220.85,-345.35"/>
<polygon fill="midnightblue" stroke="midnightblue" points="125.65,-321.84 115.14,-323.21 124.22,-328.69 125.65,-321.84"/>
</g>
<!-- Node18 -->
<g id="node18" class="node">
<title>Node18</title>
<g id="a_node18"><a xlink:href="classlemons_1_1dsp_1_1osc_1_1_osc_engine.html" target="_top" xlink:title=" ">
<polygon fill="none" stroke="black" points="223,-296.35 223,-326.35 364,-326.35 364,-296.35 223,-296.35"/>
<text text-anchor="start" x="231" y="-314.35" font-family="Helvetica,sans-Serif" font-size="10.00">OscEngine&lt; SampleType,</text>
<text text-anchor="middle" x="293.5" y="-303.35" font-family="Helvetica,sans-Serif" font-size="10.00"> lemons::dsp::osc::Saw &gt;</text>
</a>
</g>
</g>
<!-- Node1&#45;&gt;Node18 -->
<g id="edge18" class="edge">
<title>Node1&#45;&gt;Node18</title>
<path fill="none" stroke="midnightblue" d="M125.24,-311.35C155.69,-311.35 191.75,-311.35 222.57,-311.35"/>
<polygon fill="midnightblue" stroke="midnightblue" points="125.14,-307.85 115.14,-311.35 125.14,-314.85 125.14,-307.85"/>
</g>
<!-- Node19 -->
<g id="node19" class="node">
<title>Node19</title>
<g id="a_node19"><a xlink:href="classlemons_1_1dsp_1_1osc_1_1_osc_engine.html" target="_top" xlink:title=" ">
<polygon fill="none" stroke="black" points="223,-247.35 223,-277.35 364,-277.35 364,-247.35 223,-247.35"/>
<text text-anchor="start" x="231" y="-265.35" font-family="Helvetica,sans-Serif" font-size="10.00">OscEngine&lt; SampleType,</text>
<text text-anchor="middle" x="293.5" y="-254.35" font-family="Helvetica,sans-Serif" font-size="10.00"> lemons::dsp::osc::Sine &gt;</text>
</a>
</g>
</g>
<!-- Node1&#45;&gt;Node19 -->
<g id="edge19" class="edge">
<title>Node1&#45;&gt;Node19</title>
<path fill="none" stroke="midnightblue" d="M125.24,-297.37C155.69,-291 191.75,-283.45 222.57,-276.99"/>
<polygon fill="midnightblue" stroke="midnightblue" points="124.22,-294.01 115.14,-299.49 125.65,-300.86 124.22,-294.01"/>
</g>
<!-- Node20 -->
<g id="node20" class="node">
<title>Node20</title>
<g id="a_node20"><a xlink:href="classlemons_1_1dsp_1_1osc_1_1_osc_engine.html" target="_top" xlink:title=" ">
<polygon fill="none" stroke="black" points="217.5,-198.35 217.5,-228.35 369.5,-228.35 369.5,-198.35 217.5,-198.35"/>
<text text-anchor="start" x="225.5" y="-216.35" font-family="Helvetica,sans-Serif" font-size="10.00">OscEngine&lt; SampleType,</text>
<text text-anchor="middle" x="293.5" y="-205.35" font-family="Helvetica,sans-Serif" font-size="10.00"> lemons::dsp::osc::Square &gt;</text>
</a>
</g>
</g>
<!-- Node1&#45;&gt;Node20 -->
<g id="edge20" class="edge">
<title>Node1&#45;&gt;Node20</title>
<path fill="none" stroke="midnightblue" d="M95.32,-291.62C125.56,-275.9 169.82,-254.01 210,-238.35 219.06,-234.82 228.84,-231.47 238.39,-228.43"/>
<polygon fill="midnightblue" stroke="midnightblue" points="93.64,-288.55 86.4,-296.29 96.88,-294.75 93.64,-288.55"/>
</g>
<!-- Node21 -->
<g id="node21" class="node">
<title>Node21</title>
<g id="a_node21"><a xlink:href="classlemons_1_1dsp_1_1osc_1_1_osc_engine.html" target="_top" xlink:title=" ">
<polygon fill="none" stroke="black" points="210,-149.35 210,-179.35 377,-179.35 377,-149.35 210,-149.35"/>
<text text-anchor="start" x="218" y="-167.35" font-family="Helvetica,sans-Serif" font-size="10.00">OscEngine&lt; SampleType,</text>
<text text-anchor="middle" x="293.5" y="-156.35" font-family="Helvetica,sans-Serif" font-size="10.00"> lemons::dsp::osc::SuperSaw &gt;</text>
</a>
</g>
</g>
<!-- Node1&#45;&gt;Node21 -->
<g id="edge21" class="edge">
<title>Node1&#45;&gt;Node21</title>
<path fill="none" stroke="midnightblue" d="M79.46,-289.07C106.82,-261.36 157.43,-214.65 210,-189.35 217.69,-185.65 226.04,-182.36 234.38,-179.48"/>
<polygon fill="midnightblue" stroke="midnightblue" points="76.85,-286.73 72.38,-296.34 81.86,-291.62 76.85,-286.73"/>
</g>
<!-- Node22 -->
<g id="node22" class="node">
<title>Node22</title>
<g id="a_node22"><a xlink:href="classlemons_1_1dsp_1_1osc_1_1_osc_engine.html" target="_top" xlink:title=" ">
<polygon fill="none" stroke="black" points="215,-100.35 215,-130.35 372,-130.35 372,-100.35 215,-100.35"/>
<text text-anchor="start" x="223" y="-118.35" font-family="Helvetica,sans-Serif" font-size="10.00">OscEngine&lt; SampleType,</text>
<text text-anchor="middle" x="293.5" y="-107.35" font-family="Helvetica,sans-Serif" font-size="10.00"> lemons::dsp::osc::Triangle &gt;</text>
</a>
</g>
</g>
<!-- Node1&#45;&gt;Node22 -->
<g id="edge22" class="edge">
<title>Node1&#45;&gt;Node22</title>
<path fill="none" stroke="midnightblue" d="M70.46,-286.81C83.49,-261.69 106.11,-222.47 133,-194.35 161.89,-164.14 172.42,-158.64 210,-140.35 217.67,-136.62 226.02,-133.31 234.35,-130.42"/>
<polygon fill="midnightblue" stroke="midnightblue" points="67.2,-285.5 65.79,-296 73.44,-288.67 67.2,-285.5"/>
</g>
<!-- Node23 -->
<g id="node23" class="node">
<title>Node23</title>
<g id="a_node23"><a xlink:href="classlemons_1_1dsp_1_1_engine.html" target="_top" xlink:title=" ">
<polygon fill="none" stroke="black" points="236,-51.35 236,-81.35 351,-81.35 351,-51.35 236,-51.35"/>
<text text-anchor="start" x="244" y="-69.35" font-family="Helvetica,sans-Serif" font-size="10.00">lemons::dsp::Engine</text>
<text text-anchor="middle" x="293.5" y="-58.35" font-family="Helvetica,sans-Serif" font-size="10.00">&lt; double &gt;</text>
</a>
</g>
</g>
<!-- Node1&#45;&gt;Node23 -->
<g id="edge23" class="edge">
<title>Node1&#45;&gt;Node23</title>
<path fill="none" stroke="orange" stroke-dasharray="5,2" d="M63.56,-286.33C72.15,-249.27 92.73,-179.35 133,-134.35 159.7,-104.51 201.71,-87.33 235.91,-77.7"/>
<polygon fill="orange" stroke="orange" points="60.1,-285.77 61.36,-296.29 66.93,-287.28 60.1,-285.77"/>
<text text-anchor="middle" x="162.5" y="-137.35" font-family="Helvetica,sans-Serif" font-size="10.00"> &lt; double &gt;</text>
</g>
<!-- Node24 -->
<g id="node24" class="node">
<title>Node24</title>
<g id="a_node24"><a xlink:href="classlemons_1_1dsp_1_1_engine.html" target="_top" xlink:title=" ">
<polygon fill="none" stroke="black" points="236,-431.35 236,-461.35 351,-461.35 351,-431.35 236,-431.35"/>
<text text-anchor="start" x="244" y="-449.35" font-family="Helvetica,sans-Serif" font-size="10.00">lemons::dsp::Engine</text>
<text text-anchor="middle" x="293.5" y="-438.35" font-family="Helvetica,sans-Serif" font-size="10.00">&lt; float &gt;</text>
</a>
</g>
</g>
<!-- Node1&#45;&gt;Node24 -->
<g id="edge24" class="edge">
<title>Node1&#45;&gt;Node24</title>
<path fill="none" stroke="orange" stroke-dasharray="5,2" d="M93.56,-331.58C140.83,-358.85 223.94,-406.79 266.21,-431.18"/>
<polygon fill="orange" stroke="orange" points="95.3,-328.54 84.89,-326.57 91.8,-334.6 95.3,-328.54"/>
<text text-anchor="middle" x="162.5" y="-389.35" font-family="Helvetica,sans-Serif" font-size="10.00"> &lt; float &gt;</text>
</g>
<!-- Node3 -->
<g id="node3" class="node">
<title>Node3</title>
<g id="a_node3"><a xlink:href="structlemons_1_1dsp_1_1_f_x_1_1_filter_engine.html" target="_top" xlink:title="A class that represents an audio engine holding a filter effect.">
<polygon fill="none" stroke="black" points="741,-650.35 741,-680.35 899,-680.35 899,-650.35 741,-650.35"/>
<text text-anchor="start" x="749" y="-668.35" font-family="Helvetica,sans-Serif" font-size="10.00">lemons::dsp::FX::FilterEngine</text>
<text text-anchor="middle" x="820" y="-657.35" font-family="Helvetica,sans-Serif" font-size="10.00">&lt; SampleType &gt;</text>
</a>
</g>
</g>
<!-- Node2&#45;&gt;Node3 -->
<g id="edge2" class="edge">
<title>Node2&#45;&gt;Node3</title>
<path fill="none" stroke="midnightblue" d="M521.1,-679.22C583.13,-676.34 675.33,-672.04 740.7,-669"/>
<polygon fill="midnightblue" stroke="midnightblue" points="520.86,-675.73 511.03,-679.69 521.18,-682.72 520.86,-675.73"/>
</g>
<!-- Node5 -->
<g id="node5" class="node">
<title>Node5</title>
<g id="a_node5"><a xlink:href="classlemons_1_1dsp_1_1_f_x_1_1_effect_engine.html" target="_top" xlink:title=" ">
<polygon fill="none" stroke="black" points="536,-628.35 536,-658.35 697,-658.35 697,-628.35 536,-628.35"/>
<text text-anchor="start" x="544" y="-646.35" font-family="Helvetica,sans-Serif" font-size="10.00">lemons::dsp::FX::EffectEngine</text>
<text text-anchor="middle" x="616.5" y="-635.35" font-family="Helvetica,sans-Serif" font-size="10.00">&lt; Filter, SampleType &gt;</text>
</a>
</g>
</g>
<!-- Node4&#45;&gt;Node5 -->
<g id="edge4" class="edge">
<title>Node4&#45;&gt;Node5</title>
<path fill="none" stroke="orange" stroke-dasharray="5,2" d="M341.6,-606.79C358.24,-612.63 377.23,-618.55 395,-622.35 441.16,-632.22 493.75,-637.45 535.99,-640.22"/>
<polygon fill="orange" stroke="orange" points="342.69,-603.47 332.1,-603.38 340.32,-610.05 342.69,-603.47"/>
<text text-anchor="middle" x="453" y="-640.35" font-family="Helvetica,sans-Serif" font-size="10.00"> &lt; Filter, SampleType &gt;</text>
</g>
<!-- Node5&#45;&gt;Node3 -->
<g id="edge5" class="edge">
<title>Node5&#45;&gt;Node3</title>
<path fill="none" stroke="midnightblue" d="M707.35,-653.16C718.55,-654.38 729.93,-655.62 740.93,-656.83"/>
<polygon fill="midnightblue" stroke="midnightblue" points="707.46,-649.65 697.14,-652.04 706.7,-656.61 707.46,-649.65"/>
</g>
<!-- Node8 -->
<g id="node8" class="node">
<title>Node8</title>
<g id="a_node8"><a xlink:href="classlemons_1_1dsp_1_1osc_1_1_osc_engine.html" target="_top" xlink:title=" ">
<polygon fill="none" stroke="black" points="539,-183.85 539,-224.85 694,-224.85 694,-183.85 539,-183.85"/>
<text text-anchor="start" x="547" y="-212.85" font-family="Helvetica,sans-Serif" font-size="10.00">lemons::dsp::osc::OscEngine</text>
<text text-anchor="start" x="547" y="-201.85" font-family="Helvetica,sans-Serif" font-size="10.00">&lt; SampleType, lemons::dsp</text>
<text text-anchor="middle" x="616.5" y="-190.85" font-family="Helvetica,sans-Serif" font-size="10.00">::osc::Sine &gt;</text>
</a>
</g>
</g>
<!-- Node7&#45;&gt;Node8 -->
<g id="edge8" class="edge">
<title>Node7&#45;&gt;Node8</title>
<path fill="none" stroke="orange" stroke-dasharray="5,2" d="M375.02,-338.51C375.7,-337.81 376.36,-337.09 377,-336.35 415.93,-291.16 350.08,-242.6 395,-203.35 437.38,-166.32 503.79,-172.15 552.66,-183.82"/>
<polygon fill="orange" stroke="orange" points="372.46,-336.09 367.04,-345.19 376.95,-341.46 372.46,-336.09"/>
<text text-anchor="start" x="395" y="-217.35" font-family="Helvetica,sans-Serif" font-size="10.00"> &lt; SampleType, lemons</text>
<text text-anchor="middle" x="453" y="-206.35" font-family="Helvetica,sans-Serif" font-size="10.00">::dsp::osc::Sine &gt;</text>
</g>
<!-- Node9 -->
<g id="node9" class="node">
<title>Node9</title>
<g id="a_node9"><a xlink:href="classlemons_1_1dsp_1_1osc_1_1_osc_engine.html" target="_top" xlink:title=" ">
<polygon fill="none" stroke="black" points="529,-515.35 529,-545.35 704,-545.35 704,-515.35 529,-515.35"/>
<text text-anchor="start" x="537" y="-533.35" font-family="Helvetica,sans-Serif" font-size="10.00">lemons::dsp::osc::OscEngine</text>
<text text-anchor="middle" x="616.5" y="-522.35" font-family="Helvetica,sans-Serif" font-size="10.00">&lt; float, lemons::dsp::osc::Saw &gt;</text>
</a>
</g>
</g>
<!-- Node7&#45;&gt;Node9 -->
<g id="edge9" class="edge">
<title>Node7&#45;&gt;Node9</title>
<path fill="none" stroke="orange" stroke-dasharray="5,2" d="M328.99,-381.09C345,-391.93 363.45,-406.29 377,-422.35 388.28,-435.72 381.71,-445.98 395,-457.35 419.09,-477.96 496.78,-500.8 553.14,-515.34"/>
<polygon fill="orange" stroke="orange" points="330.66,-378 320.38,-375.43 326.82,-383.85 330.66,-378"/>
<text text-anchor="start" x="402" y="-516.35" font-family="Helvetica,sans-Serif" font-size="10.00"> &lt; float, lemons::dsp</text>
<text text-anchor="middle" x="453" y="-505.35" font-family="Helvetica,sans-Serif" font-size="10.00">::osc::Saw &gt;</text>
</g>
<!-- Node10 -->
<g id="node10" class="node">
<title>Node10</title>
<g id="a_node10"><a xlink:href="classlemons_1_1dsp_1_1osc_1_1_osc_engine.html" target="_top" xlink:title=" ">
<polygon fill="none" stroke="black" points="539,-123.85 539,-164.85 694,-164.85 694,-123.85 539,-123.85"/>
<text text-anchor="start" x="547" y="-152.85" font-family="Helvetica,sans-Serif" font-size="10.00">lemons::dsp::osc::OscEngine</text>
<text text-anchor="start" x="547" y="-141.85" font-family="Helvetica,sans-Serif" font-size="10.00">&lt; SampleType, lemons::dsp</text>
<text text-anchor="middle" x="616.5" y="-130.85" font-family="Helvetica,sans-Serif" font-size="10.00">::osc::Saw &gt;</text>
</a>
</g>
</g>
<!-- Node7&#45;&gt;Node10 -->
<g id="edge10" class="edge">
<title>Node7&#45;&gt;Node10</title>
<path fill="none" stroke="orange" stroke-dasharray="5,2" d="M375.06,-338.54C375.73,-337.83 376.38,-337.1 377,-336.35 403.77,-304.02 364.2,-176.86 395,-148.35 434.62,-111.68 497.49,-114.19 545.97,-123.85"/>
<polygon fill="orange" stroke="orange" points="372.49,-336.14 367.19,-345.32 377.06,-341.45 372.49,-336.14"/>
<text text-anchor="start" x="395" y="-162.35" font-family="Helvetica,sans-Serif" font-size="10.00"> &lt; SampleType, lemons</text>
<text text-anchor="middle" x="453" y="-151.35" font-family="Helvetica,sans-Serif" font-size="10.00">::dsp::osc::Saw &gt;</text>
</g>
<!-- Node11 -->
<g id="node11" class="node">
<title>Node11</title>
<g id="a_node11"><a xlink:href="classlemons_1_1dsp_1_1osc_1_1_osc_engine.html" target="_top" xlink:title=" ">
<polygon fill="none" stroke="black" points="539,-450.85 539,-491.85 694,-491.85 694,-450.85 539,-450.85"/>
<text text-anchor="start" x="547" y="-479.85" font-family="Helvetica,sans-Serif" font-size="10.00">lemons::dsp::osc::OscEngine</text>
<text text-anchor="start" x="547" y="-468.85" font-family="Helvetica,sans-Serif" font-size="10.00">&lt; float, lemons::dsp::osc</text>
<text text-anchor="middle" x="616.5" y="-457.85" font-family="Helvetica,sans-Serif" font-size="10.00">::SuperSaw &gt;</text>
</a>
</g>
</g>
<!-- Node7&#45;&gt;Node11 -->
<g id="edge11" class="edge">
<title>Node7&#45;&gt;Node11</title>
<path fill="none" stroke="orange" stroke-dasharray="5,2" d="M347.74,-378.76C405.19,-398.62 496.43,-430.17 556.14,-450.82"/>
<polygon fill="orange" stroke="orange" points="348.72,-375.4 338.13,-375.44 346.43,-382.01 348.72,-375.4"/>
<text text-anchor="start" x="402" y="-445.35" font-family="Helvetica,sans-Serif" font-size="10.00"> &lt; float, lemons::dsp</text>
<text text-anchor="middle" x="453" y="-434.35" font-family="Helvetica,sans-Serif" font-size="10.00">::osc::SuperSaw &gt;</text>
</g>
<!-- Node12 -->
<g id="node12" class="node">
<title>Node12</title>
<g id="a_node12"><a xlink:href="classlemons_1_1dsp_1_1osc_1_1_osc_engine.html" target="_top" xlink:title=" ">
<polygon fill="none" stroke="black" points="539,-381.85 539,-422.85 694,-422.85 694,-381.85 539,-381.85"/>
<text text-anchor="start" x="547" y="-410.85" font-family="Helvetica,sans-Serif" font-size="10.00">lemons::dsp::osc::OscEngine</text>
<text text-anchor="start" x="547" y="-399.85" font-family="Helvetica,sans-Serif" font-size="10.00">&lt; float, lemons::dsp::osc</text>
<text text-anchor="middle" x="616.5" y="-388.85" font-family="Helvetica,sans-Serif" font-size="10.00">::Square &gt;</text>
</a>
</g>
</g>
<!-- Node7&#45;&gt;Node12 -->
<g id="edge12" class="edge">
<title>Node7&#45;&gt;Node12</title>
<path fill="none" stroke="orange" stroke-dasharray="5,2" d="M381.45,-356.11C421.24,-355.76 468.82,-357.6 511,-365.35 530.02,-368.84 550.22,-375.3 567.73,-381.85"/>
<polygon fill="orange" stroke="orange" points="381.2,-352.61 371.25,-356.25 381.3,-359.61 381.2,-352.61"/>
<text text-anchor="start" x="402" y="-379.35" font-family="Helvetica,sans-Serif" font-size="10.00"> &lt; float, lemons::dsp</text>
<text text-anchor="middle" x="453" y="-368.35" font-family="Helvetica,sans-Serif" font-size="10.00">::osc::Square &gt;</text>
</g>
<!-- Node13 -->
<g id="node13" class="node">
<title>Node13</title>
<g id="a_node13"><a xlink:href="classlemons_1_1dsp_1_1osc_1_1_osc_engine.html" target="_top" xlink:title=" ">
<polygon fill="none" stroke="black" points="539,-63.85 539,-104.85 694,-104.85 694,-63.85 539,-63.85"/>
<text text-anchor="start" x="547" y="-92.85" font-family="Helvetica,sans-Serif" font-size="10.00">lemons::dsp::osc::OscEngine</text>
<text text-anchor="start" x="547" y="-81.85" font-family="Helvetica,sans-Serif" font-size="10.00">&lt; SampleType, lemons::dsp</text>
<text text-anchor="middle" x="616.5" y="-70.85" font-family="Helvetica,sans-Serif" font-size="10.00">::osc::Triangle &gt;</text>
</a>
</g>
</g>
<!-- Node7&#45;&gt;Node13 -->
<g id="edge13" class="edge">
<title>Node7&#45;&gt;Node13</title>
<path fill="none" stroke="orange" stroke-dasharray="5,2" d="M375.15,-338.49C375.79,-337.8 376.4,-337.09 377,-336.35 411.35,-293.92 355.6,-129.14 395,-91.35 432.73,-55.16 492.91,-55.57 540.88,-63.84"/>
<polygon fill="orange" stroke="orange" points="372.81,-335.89 367.64,-345.13 377.45,-341.13 372.81,-335.89"/>
<text text-anchor="start" x="395" y="-105.35" font-family="Helvetica,sans-Serif" font-size="10.00"> &lt; SampleType, lemons</text>
<text text-anchor="middle" x="453" y="-94.35" font-family="Helvetica,sans-Serif" font-size="10.00">::dsp::osc::Triangle &gt;</text>
</g>
<!-- Node14 -->
<g id="node14" class="node">
<title>Node14</title>
<g id="a_node14"><a xlink:href="classlemons_1_1dsp_1_1osc_1_1_osc_engine.html" target="_top" xlink:title=" ">
<polygon fill="none" stroke="black" points="539,-304.85 539,-345.85 694,-345.85 694,-304.85 539,-304.85"/>
<text text-anchor="start" x="547" y="-333.85" font-family="Helvetica,sans-Serif" font-size="10.00">lemons::dsp::osc::OscEngine</text>
<text text-anchor="start" x="547" y="-322.85" font-family="Helvetica,sans-Serif" font-size="10.00">&lt; float, lemons::dsp::osc</text>
<text text-anchor="middle" x="616.5" y="-311.85" font-family="Helvetica,sans-Serif" font-size="10.00">::Sine &gt;</text>
</a>
</g>
</g>
<!-- Node7&#45;&gt;Node14 -->
<g id="edge14" class="edge">
<title>Node7&#45;&gt;Node14</title>
<path fill="none" stroke="orange" stroke-dasharray="5,2" d="M372.79,-339.73C374.25,-338.66 375.65,-337.53 377,-336.35 391.96,-323.23 378.34,-306.23 395,-295.35 438.17,-267.16 459.95,-288.17 511,-295.35 525.39,-297.37 540.58,-300.9 554.78,-304.83"/>
<polygon fill="orange" stroke="orange" points="370.61,-336.97 364.02,-345.27 374.34,-342.89 370.61,-336.97"/>
<text text-anchor="start" x="402" y="-309.35" font-family="Helvetica,sans-Serif" font-size="10.00"> &lt; float, lemons::dsp</text>
<text text-anchor="middle" x="453" y="-298.35" font-family="Helvetica,sans-Serif" font-size="10.00">::osc::Sine &gt;</text>
</g>
<!-- Node15 -->
<g id="node15" class="node">
<title>Node15</title>
<g id="a_node15"><a xlink:href="classlemons_1_1dsp_1_1osc_1_1_osc_engine.html" target="_top" xlink:title=" ">
<polygon fill="none" stroke="black" points="539,-3.85 539,-44.85 694,-44.85 694,-3.85 539,-3.85"/>
<text text-anchor="start" x="547" y="-32.85" font-family="Helvetica,sans-Serif" font-size="10.00">lemons::dsp::osc::OscEngine</text>
<text text-anchor="start" x="547" y="-21.85" font-family="Helvetica,sans-Serif" font-size="10.00">&lt; SampleType, lemons::dsp</text>
<text text-anchor="middle" x="616.5" y="-10.85" font-family="Helvetica,sans-Serif" font-size="10.00">::osc::SuperSaw &gt;</text>
</a>
</g>
</g>
<!-- Node7&#45;&gt;Node15 -->
<g id="edge15" class="edge">
<title>Node7&#45;&gt;Node15</title>
<path fill="none" stroke="orange" stroke-dasharray="5,2" d="M375.17,-338.5C375.8,-337.81 376.41,-337.09 377,-336.35 419.07,-283.63 346.86,-80.6 395,-33.35 431.84,2.82 490.99,3.4 538.76,-4.16"/>
<polygon fill="orange" stroke="orange" points="372.82,-335.91 367.7,-345.18 377.49,-341.12 372.82,-335.91"/>
<text text-anchor="start" x="395" y="-47.35" font-family="Helvetica,sans-Serif" font-size="10.00"> &lt; SampleType, lemons</text>
<text text-anchor="middle" x="453" y="-36.35" font-family="Helvetica,sans-Serif" font-size="10.00">::dsp::osc::SuperSaw &gt;</text>
</g>
<!-- Node16 -->
<g id="node16" class="node">
<title>Node16</title>
<g id="a_node16"><a xlink:href="classlemons_1_1dsp_1_1osc_1_1_osc_engine.html" target="_top" xlink:title=" ">
<polygon fill="none" stroke="black" points="539,-243.85 539,-284.85 694,-284.85 694,-243.85 539,-243.85"/>
<text text-anchor="start" x="547" y="-272.85" font-family="Helvetica,sans-Serif" font-size="10.00">lemons::dsp::osc::OscEngine</text>
<text text-anchor="start" x="547" y="-261.85" font-family="Helvetica,sans-Serif" font-size="10.00">&lt; SampleType, lemons::dsp</text>
<text text-anchor="middle" x="616.5" y="-250.85" font-family="Helvetica,sans-Serif" font-size="10.00">::osc::Square &gt;</text>
</a>
</g>
</g>
<!-- Node7&#45;&gt;Node16 -->
<g id="edge16" class="edge">
<title>Node7&#45;&gt;Node16</title>
<path fill="none" stroke="orange" stroke-dasharray="5,2" d="M374.55,-338.8C375.39,-338.01 376.21,-337.19 377,-336.35 402.49,-309.1 365.93,-277.73 395,-254.35 441.58,-216.88 513.27,-228.79 562.17,-243.81"/>
<polygon fill="orange" stroke="orange" points="372.11,-336.26 366.34,-345.15 376.39,-341.79 372.11,-336.26"/>
<text text-anchor="start" x="395" y="-268.35" font-family="Helvetica,sans-Serif" font-size="10.00"> &lt; SampleType, lemons</text>
<text text-anchor="middle" x="453" y="-257.35" font-family="Helvetica,sans-Serif" font-size="10.00">::dsp::osc::Square &gt;</text>
</g>
<!-- Node17 -->
<g id="node17" class="node">
<title>Node17</title>
<g id="a_node17"><a xlink:href="classlemons_1_1dsp_1_1osc_1_1_osc_engine.html" target="_top" xlink:title=" ">
<polygon fill="none" stroke="black" points="539,-566.85 539,-607.85 694,-607.85 694,-566.85 539,-566.85"/>
<text text-anchor="start" x="547" y="-595.85" font-family="Helvetica,sans-Serif" font-size="10.00">lemons::dsp::osc::OscEngine</text>
<text text-anchor="start" x="547" y="-584.85" font-family="Helvetica,sans-Serif" font-size="10.00">&lt; float, lemons::dsp::osc</text>
<text text-anchor="middle" x="616.5" y="-573.85" font-family="Helvetica,sans-Serif" font-size="10.00">::Triangle &gt;</text>
</a>
</g>
</g>
<!-- Node7&#45;&gt;Node17 -->
<g id="edge17" class="edge">
<title>Node7&#45;&gt;Node17</title>
<path fill="none" stroke="orange" stroke-dasharray="5,2" d="M333.43,-380.81C349.38,-391.16 366.52,-405.19 377,-422.35 401.67,-462.76 363.16,-492.3 395,-527.35 405.02,-538.38 479.23,-557.13 538.84,-570.74"/>
<polygon fill="orange" stroke="orange" points="335.08,-377.72 324.74,-375.45 331.41,-383.68 335.08,-377.72"/>
<text text-anchor="start" x="402" y="-576.35" font-family="Helvetica,sans-Serif" font-size="10.00"> &lt; float, lemons::dsp</text>
<text text-anchor="middle" x="453" y="-565.35" font-family="Helvetica,sans-Serif" font-size="10.00">::osc::Triangle &gt;</text>
</g>
<!-- Node24&#45;&gt;Node9 -->
<g id="edge25" class="edge">
<title>Node24&#45;&gt;Node9</title>
<path fill="none" stroke="midnightblue" d="M360.59,-458.75C366.75,-462.04 372.39,-466.16 377,-471.35 407.29,-505.43 360.04,-543.07 395,-572.35 434.52,-605.45 462.52,-589.9 511,-572.35 520.79,-568.8 519.85,-562.33 529,-557.35 537.43,-552.76 546.75,-548.83 556.06,-545.49"/>
<polygon fill="midnightblue" stroke="midnightblue" points="361.82,-455.47 351.27,-454.52 358.93,-461.84 361.82,-455.47"/>
</g>
<!-- Node24&#45;&gt;Node11 -->
<g id="edge28" class="edge">
<title>Node24&#45;&gt;Node11</title>
<path fill="none" stroke="midnightblue" d="M360.46,-461.24C366.37,-464.05 371.99,-467.39 377,-471.35 389.49,-481.24 381.19,-494.4 395,-502.35 439.68,-528.07 459.98,-509.76 511,-502.35 526.17,-500.15 542.2,-496.24 557.03,-491.92"/>
<polygon fill="midnightblue" stroke="midnightblue" points="361.58,-457.92 351.01,-457.25 358.86,-464.37 361.58,-457.92"/>
</g>
<!-- Node24&#45;&gt;Node12 -->
<g id="edge27" class="edge">
<title>Node24&#45;&gt;Node12</title>
<path fill="none" stroke="midnightblue" d="M361.48,-445.72C404.48,-444.41 461.36,-440.98 511,-432.35 524.48,-430.01 538.71,-426.58 552.18,-422.88"/>
<polygon fill="midnightblue" stroke="midnightblue" points="361.32,-442.23 351.42,-446 361.51,-449.22 361.32,-442.23"/>
</g>
<!-- Node24&#45;&gt;Node14 -->
<g id="edge26" class="edge">
<title>Node24&#45;&gt;Node14</title>
<path fill="none" stroke="midnightblue" d="M326.69,-425.97C345.92,-414.51 371.17,-400.67 395,-391.35 444.49,-371.99 460.12,-377.68 511,-362.35 527.22,-357.46 544.63,-351.57 560.51,-345.93"/>
<polygon fill="midnightblue" stroke="midnightblue" points="324.77,-423.04 318.03,-431.21 328.4,-429.03 324.77,-423.04"/>
</g>
<!-- Node24&#45;&gt;Node17 -->
<g id="edge29" class="edge">
<title>Node24&#45;&gt;Node17</title>
<path fill="none" stroke="midnightblue" d="M360.49,-458.46C366.72,-461.79 372.41,-466.01 377,-471.35 413.31,-513.57 352.89,-558.91 395,-595.35 440.19,-634.45 512.18,-622.93 561.53,-607.96"/>
<polygon fill="midnightblue" stroke="midnightblue" points="361.6,-455.12 351.05,-454.19 358.72,-461.5 361.6,-455.12"/>
</g>
</g>
</svg>
        <g id="navigator" transform="translate(0 0)" fill="#404254">
                <rect fill="#f2f5e9" fill-opacity="0.5" stroke="#606060" stroke-width=".5" x="0" y="0" width="60" height="60"/>
                <use id="zoomplus" xlink:href="#zoomPlus" x="17" y="9" onmousedown="handleZoom(evt,'in')"/>
                <use id="zoomminus" xlink:href="#zoomMin" x="42" y="9" onmousedown="handleZoom(evt,'out')"/>
                <use id="reset" xlink:href="#resetDef" x="30" y="36" onmousedown="handleReset()"/>
                <g id="arrowUp" xlink:href="#dirArrow" transform="translate(30 24)" onmousedown="handlePan(0,-1)">
                  <use xlink:href="#rim" fill="#404040">
                        <set attributeName="fill" to="#808080" begin="arrowUp.mouseover" end="arrowUp.mouseout"/>
                  </use>
                  <path fill="none" stroke="white" stroke-width="1.5" d="M0,-3.0v7 M-2.5,-0.5L0,-3.0L2.5,-0.5"/>
                </g>
                <g id="arrowRight" xlink:href="#dirArrow" transform="rotate(90) translate(36 -43)" onmousedown="handlePan(1,0)">
                  <use xlink:href="#rim" fill="#404040">
                        <set attributeName="fill" to="#808080" begin="arrowRight.mouseover" end="arrowRight.mouseout"/>
                  </use>
                  <path fill="none" stroke="white" stroke-width="1.5" d="M0,-3.0v7 M-2.5,-0.5L0,-3.0L2.5,-0.5"/>
                </g>
                <g id="arrowDown" xlink:href="#dirArrow" transform="rotate(180) translate(-30 -48)" onmousedown="handlePan(0,1)">
                  <use xlink:href="#rim" fill="#404040">
                        <set attributeName="fill" to="#808080" begin="arrowDown.mouseover" end="arrowDown.mouseout"/>
                  </use>
                  <path fill="none" stroke="white" stroke-width="1.5" d="M0,-3.0v7 M-2.5,-0.5L0,-3.0L2.5,-0.5"/>
                </g>
                <g id="arrowLeft" xlink:href="#dirArrow" transform="rotate(270) translate(-36 17)" onmousedown="handlePan(-1,0)">
                  <use xlink:href="#rim" fill="#404040">
                        <set attributeName="fill" to="#808080" begin="arrowLeft.mouseover" end="arrowLeft.mouseout"/>
                  </use>
                  <path fill="none" stroke="white" stroke-width="1.5" d="M0,-3.0v7 M-2.5,-0.5L0,-3.0L2.5,-0.5"/>
                </g>
        </g>
        <svg viewBox="0 0 15 15" width="100%" height="30px" preserveAspectRatio="xMaxYMin meet">
         <g id="arrow_out" transform="scale(0.3 0.3)">
          <a xlink:href="classlemons_1_1dsp_1_1_engine__inherit__graph_org.svg" target="_base">
           <rect id="button" ry="5" rx="5" y="6" x="6" height="38" width="38"
                fill="#f2f5e9" fill-opacity="0.5" stroke="#606060" stroke-width="1.0"/>
           <path id="arrow"
             d="M 11.500037,31.436501 C 11.940474,20.09759 22.043105,11.32322 32.158766,21.979434 L 37.068811,17.246167 C 37.068811,17.246167 37.088388,32 37.088388,32 L 22.160133,31.978069 C 22.160133,31.978069 26.997745,27.140456 26.997745,27.140456 C 18.528582,18.264221 13.291696,25.230495 11.500037,31.436501 z"
             style="fill:#404040;"/>
          </a>
         </g>
        </svg>
</svg>
