<?xml version="1.0" encoding="UTF-8" standalone="no"?>
<!DOCTYPE svg PUBLIC "-//W3C//DTD SVG 1.1//EN"
 "http://www.w3.org/Graphics/SVG/1.1/DTD/svg11.dtd">
<!-- Generated by graphviz version 2.43.0 (0)
 -->
<!-- Title: lemons::plugin::Parameter Pages: 1 -->
<svg width="1221pt" height="284pt"
 viewBox="0.00 0.00 1221.00 284.00" xmlns="http://www.w3.org/2000/svg" xmlns:xlink="http://www.w3.org/1999/xlink">
<g id="graph0" class="graph" transform="scale(1 1) rotate(0) translate(4 280)">
<title>lemons::plugin::Parameter</title>
<!-- Node1 -->
<g id="node1" class="node">
<title>Node1</title>
<g id="a_node1"><a xlink:title=" ">
<polygon fill="#bfbfbf" stroke="black" points="176,-18 176,-37 321,-37 321,-18 176,-18"/>
<text text-anchor="middle" x="248.5" y="-25" font-family="Helvetica,sans-Serif" font-size="10.00">lemons::plugin::Parameter</text>
</a>
</g>
</g>
<!-- Node3 -->
<g id="node3" class="node">
<title>Node3</title>
<g id="a_node3"><a xlink:href="classlemons_1_1plugin_1_1TypedParameter.html" target="_top" xlink:title=" ">
<polygon fill="none" stroke="black" points="358,-98.5 358,-128.5 531,-128.5 531,-98.5 358,-98.5"/>
<text text-anchor="start" x="366" y="-116.5" font-family="Helvetica,sans-Serif" font-size="10.00">lemons::plugin::TypedParameter</text>
<text text-anchor="middle" x="444.5" y="-105.5" font-family="Helvetica,sans-Serif" font-size="10.00">&lt; ValueType &gt;</text>
</a>
</g>
</g>
<!-- Node1&#45;&gt;Node3 -->
<g id="edge2" class="edge">
<title>Node1&#45;&gt;Node3</title>
<path fill="none" stroke="midnightblue" d="M280.31,-41.16C315.54,-56.78 373.04,-82.26 409.53,-98.44"/>
<polygon fill="midnightblue" stroke="midnightblue" points="281.56,-37.89 271,-37.03 278.73,-44.28 281.56,-37.89"/>
</g>
<!-- Node10 -->
<g id="node10" class="node">
<title>Node10</title>
<g id="a_node10"><a xlink:href="classlemons_1_1plugin_1_1TypedParameter.html" target="_top" xlink:title=" ">
<polygon fill="none" stroke="black" points="618.5,-0.5 618.5,-30.5 791.5,-30.5 791.5,-0.5 618.5,-0.5"/>
<text text-anchor="start" x="626.5" y="-18.5" font-family="Helvetica,sans-Serif" font-size="10.00">lemons::plugin::TypedParameter</text>
<text text-anchor="middle" x="705" y="-7.5" font-family="Helvetica,sans-Serif" font-size="10.00">&lt; bool &gt;</text>
</a>
</g>
</g>
<!-- Node1&#45;&gt;Node10 -->
<g id="edge12" class="edge">
<title>Node1&#45;&gt;Node10</title>
<path fill="none" stroke="midnightblue" d="M331.17,-25.34C412.16,-23.21 535.76,-19.94 618.18,-17.77"/>
<polygon fill="midnightblue" stroke="midnightblue" points="330.92,-21.85 321.02,-25.61 331.1,-28.85 330.92,-21.85"/>
</g>
<!-- Node2 -->
<g id="node2" class="node">
<title>Node2</title>
<g id="a_node2"><a xlink:href="structlemons_1_1SerializableData.html" target="_top" xlink:title=" ">
<polygon fill="none" stroke="black" points="0,-18 0,-37 139,-37 139,-18 0,-18"/>
<text text-anchor="middle" x="69.5" y="-25" font-family="Helvetica,sans-Serif" font-size="10.00">lemons::SerializableData</text>
</a>
</g>
</g>
<!-- Node2&#45;&gt;Node1 -->
<g id="edge1" class="edge">
<title>Node2&#45;&gt;Node1</title>
<path fill="none" stroke="midnightblue" d="M149.45,-27.5C158.27,-27.5 167.21,-27.5 175.93,-27.5"/>
<polygon fill="midnightblue" stroke="midnightblue" points="149.19,-24 139.19,-27.5 149.19,-31 149.19,-24"/>
</g>
<!-- Node4 -->
<g id="node4" class="node">
<title>Node4</title>
<g id="a_node4"><a xlink:href="structlemons_1_1plugin_1_1FloatAmountParameter.html" target="_top" xlink:title=" ">
<polygon fill="none" stroke="black" points="626,-245.5 626,-275.5 784,-275.5 784,-245.5 626,-245.5"/>
<text text-anchor="start" x="634" y="-263.5" font-family="Helvetica,sans-Serif" font-size="10.00">lemons::plugin::FloatAmount</text>
<text text-anchor="middle" x="705" y="-252.5" font-family="Helvetica,sans-Serif" font-size="10.00">Parameter&lt; float &gt;</text>
</a>
</g>
</g>
<!-- Node3&#45;&gt;Node4 -->
<g id="edge3" class="edge">
<title>Node3&#45;&gt;Node4</title>
<path fill="none" stroke="midnightblue" d="M469.55,-135.59C500.67,-163.05 557.6,-209.56 614,-236.5 621.15,-239.92 628.86,-242.9 636.65,-245.5"/>
<polygon fill="midnightblue" stroke="midnightblue" points="471.64,-132.76 461.85,-128.71 466.98,-137.98 471.64,-132.76"/>
</g>
<!-- Node5 -->
<g id="node5" class="node">
<title>Node5</title>
<g id="a_node5"><a xlink:href="structlemons_1_1plugin_1_1FrequencyParameter.html" target="_top" xlink:title=" ">
<polygon fill="none" stroke="black" points="632.5,-196.5 632.5,-226.5 777.5,-226.5 777.5,-196.5 632.5,-196.5"/>
<text text-anchor="start" x="640.5" y="-214.5" font-family="Helvetica,sans-Serif" font-size="10.00">lemons::plugin::Frequency</text>
<text text-anchor="middle" x="705" y="-203.5" font-family="Helvetica,sans-Serif" font-size="10.00">Parameter&lt; float &gt;</text>
</a>
</g>
</g>
<!-- Node3&#45;&gt;Node5 -->
<g id="edge4" class="edge">
<title>Node3&#45;&gt;Node5</title>
<path fill="none" stroke="midnightblue" d="M485.04,-132.93C518.76,-148.99 568.8,-171.65 614,-187.5 623.16,-190.71 632.96,-193.73 642.62,-196.48"/>
<polygon fill="midnightblue" stroke="midnightblue" points="486.52,-129.75 475.99,-128.59 483.49,-136.07 486.52,-129.75"/>
</g>
<!-- Node6 -->
<g id="node6" class="node">
<title>Node6</title>
<g id="a_node6"><a xlink:href="structlemons_1_1plugin_1_1GainParameter.html" target="_top" xlink:title=" ">
<polygon fill="none" stroke="black" points="621.5,-147.5 621.5,-177.5 788.5,-177.5 788.5,-147.5 621.5,-147.5"/>
<text text-anchor="start" x="629.5" y="-165.5" font-family="Helvetica,sans-Serif" font-size="10.00">lemons::plugin::GainParameter</text>
<text text-anchor="middle" x="705" y="-154.5" font-family="Helvetica,sans-Serif" font-size="10.00">&lt; float &gt;</text>
</a>
</g>
</g>
<!-- Node3&#45;&gt;Node6 -->
<g id="edge5" class="edge">
<title>Node3&#45;&gt;Node6</title>
<path fill="none" stroke="midnightblue" d="M535.01,-130.47C564.22,-136 596.44,-142.11 624.83,-147.49"/>
<polygon fill="midnightblue" stroke="midnightblue" points="535.29,-126.96 524.82,-128.53 533.99,-133.84 535.29,-126.96"/>
</g>
<!-- Node7 -->
<g id="node7" class="node">
<title>Node7</title>
<g id="a_node7"><a xlink:href="structlemons_1_1plugin_1_1MeterParameter.html" target="_top" xlink:title=" ">
<polygon fill="none" stroke="black" points="618.5,-98.5 618.5,-128.5 791.5,-128.5 791.5,-98.5 618.5,-98.5"/>
<text text-anchor="start" x="626.5" y="-116.5" font-family="Helvetica,sans-Serif" font-size="10.00">lemons::plugin::MeterParameter</text>
<text text-anchor="middle" x="705" y="-105.5" font-family="Helvetica,sans-Serif" font-size="10.00">&lt; float &gt;</text>
</a>
</g>
</g>
<!-- Node3&#45;&gt;Node7 -->
<g id="edge6" class="edge">
<title>Node3&#45;&gt;Node7</title>
<path fill="none" stroke="midnightblue" d="M541.49,-113.5C566.6,-113.5 593.52,-113.5 618.07,-113.5"/>
<polygon fill="midnightblue" stroke="midnightblue" points="541.22,-110 531.22,-113.5 541.22,-117 541.22,-110"/>
</g>
<!-- Node9 -->
<g id="node9" class="node">
<title>Node9</title>
<g id="a_node9"><a xlink:href="structlemons_1_1plugin_1_1PercentParameter.html" target="_top" xlink:title=" ">
<polygon fill="none" stroke="black" points="614,-49.5 614,-79.5 796,-79.5 796,-49.5 614,-49.5"/>
<text text-anchor="start" x="622" y="-67.5" font-family="Helvetica,sans-Serif" font-size="10.00">lemons::plugin::PercentParameter</text>
<text text-anchor="middle" x="705" y="-56.5" font-family="Helvetica,sans-Serif" font-size="10.00">&lt; int &gt;</text>
</a>
</g>
</g>
<!-- Node3&#45;&gt;Node9 -->
<g id="edge8" class="edge">
<title>Node3&#45;&gt;Node9</title>
<path fill="none" stroke="midnightblue" d="M535.01,-96.53C564.22,-91 596.44,-84.89 624.83,-79.51"/>
<polygon fill="midnightblue" stroke="midnightblue" points="533.99,-93.16 524.82,-98.47 535.29,-100.04 533.99,-93.16"/>
</g>
<!-- Node3&#45;&gt;Node10 -->
<g id="edge9" class="edge">
<title>Node3&#45;&gt;Node10</title>
<path fill="none" stroke="orange" stroke-dasharray="5,2" d="M485.04,-94.07C518.76,-78.01 568.8,-55.35 614,-39.5 623.16,-36.29 632.96,-33.27 642.62,-30.52"/>
<polygon fill="orange" stroke="orange" points="483.49,-90.93 475.99,-98.41 486.52,-97.25 483.49,-90.93"/>
<text text-anchor="middle" x="572.5" y="-66.5" font-family="Helvetica,sans-Serif" font-size="10.00"> &lt; bool &gt;</text>
</g>
<!-- Node8 -->
<g id="node8" class="node">
<title>Node8</title>
<g id="a_node8"><a xlink:href="structlemons_1_1plugin_1_1GainMeterParameter.html" target="_top" xlink:title=" ">
<polygon fill="none" stroke="black" points="843.5,-98.5 843.5,-128.5 989.5,-128.5 989.5,-98.5 843.5,-98.5"/>
<text text-anchor="start" x="851.5" y="-116.5" font-family="Helvetica,sans-Serif" font-size="10.00">lemons::plugin::GainMeter</text>
<text text-anchor="middle" x="916.5" y="-105.5" font-family="Helvetica,sans-Serif" font-size="10.00">Parameter</text>
</a>
</g>
</g>
<!-- Node7&#45;&gt;Node8 -->
<g id="edge7" class="edge">
<title>Node7&#45;&gt;Node8</title>
<path fill="none" stroke="midnightblue" d="M801.66,-113.5C815.66,-113.5 829.89,-113.5 843.31,-113.5"/>
<polygon fill="midnightblue" stroke="midnightblue" points="801.51,-110 791.51,-113.5 801.51,-117 801.51,-110"/>
</g>
<!-- Node11 -->
<g id="node11" class="node">
<title>Node11</title>
<g id="a_node11"><a xlink:href="structlemons_1_1plugin_1_1BoolParameter.html" target="_top" xlink:title=" ">
<polygon fill="none" stroke="black" points="833,-6 833,-25 1000,-25 1000,-6 833,-6"/>
<text text-anchor="middle" x="916.5" y="-13" font-family="Helvetica,sans-Serif" font-size="10.00">lemons::plugin::BoolParameter</text>
</a>
</g>
</g>
<!-- Node10&#45;&gt;Node11 -->
<g id="edge10" class="edge">
<title>Node10&#45;&gt;Node11</title>
<path fill="none" stroke="midnightblue" d="M801.53,-15.5C812.02,-15.5 822.65,-15.5 832.97,-15.5"/>
<polygon fill="midnightblue" stroke="midnightblue" points="801.51,-12 791.51,-15.5 801.51,-19 801.51,-12"/>
</g>
<!-- Node12 -->
<g id="node12" class="node">
<title>Node12</title>
<g id="a_node12"><a xlink:href="structlemons_1_1plugin_1_1ToggleParameter.html" target="_top" xlink:title=" ">
<polygon fill="none" stroke="black" points="1037,-6 1037,-25 1213,-25 1213,-6 1037,-6"/>
<text text-anchor="middle" x="1125" y="-13" font-family="Helvetica,sans-Serif" font-size="10.00">lemons::plugin::ToggleParameter</text>
</a>
</g>
</g>
<!-- Node11&#45;&gt;Node12 -->
<g id="edge11" class="edge">
<title>Node11&#45;&gt;Node12</title>
<path fill="none" stroke="midnightblue" d="M1010.03,-15.5C1018.97,-15.5 1028.01,-15.5 1036.89,-15.5"/>
<polygon fill="midnightblue" stroke="midnightblue" points="1010,-12 1000,-15.5 1010,-19 1010,-12"/>
</g>
</g>
</svg>
