<?xml version="1.0" encoding="UTF-8" standalone="no"?>
<!DOCTYPE svg PUBLIC "-//W3C//DTD SVG 1.1//EN"
 "http://www.w3.org/Graphics/SVG/1.1/DTD/svg11.dtd">
<!-- Generated by graphviz version 2.43.0 (0)
 -->
<!-- Title: lemons::dsp::FX::EffectEngine&lt; EffectType, SampleType, &gt; Pages: 1 -->
<svg width="280pt" height="253pt"
 viewBox="0.00 0.00 280.00 253.00" xmlns="http://www.w3.org/2000/svg" xmlns:xlink="http://www.w3.org/1999/xlink">
<g id="graph0" class="graph" transform="scale(1 1) rotate(0) translate(4 249)">
<title>lemons::dsp::FX::EffectEngine&lt; EffectType, SampleType, &gt;</title>
<!-- Node1 -->
<g id="node1" class="node">
<title>Node1</title>
<g id="a_node1"><a xlink:title="A class that wraps an AudioEffect into a dsp::Engine.">
<polygon fill="#bfbfbf" stroke="black" points="49,-146.5 49,-176.5 210,-176.5 210,-146.5 49,-146.5"/>
<text text-anchor="start" x="57" y="-164.5" font-family="Helvetica,sans-Serif" font-size="10.00">lemons::dsp::FX::EffectEngine</text>
<text text-anchor="middle" x="129.5" y="-153.5" font-family="Helvetica,sans-Serif" font-size="10.00">&lt; EffectType, SampleType, &gt;</text>
</a>
</g>
</g>
<!-- Node4 -->
<g id="node4" class="node">
<title>Node4</title>
<g id="a_node4"><a xlink:href="classlemons_1_1dsp_1_1FX_1_1EffectEngine.html" target="_top" xlink:title=" ">
<polygon fill="none" stroke="black" points="49,-68.5 49,-98.5 210,-98.5 210,-68.5 49,-68.5"/>
<text text-anchor="start" x="57" y="-86.5" font-family="Helvetica,sans-Serif" font-size="10.00">lemons::dsp::FX::EffectEngine</text>
<text text-anchor="middle" x="129.5" y="-75.5" font-family="Helvetica,sans-Serif" font-size="10.00">&lt; Filter, SampleType &gt;</text>
</a>
</g>
</g>
<!-- Node1&#45;&gt;Node4 -->
<g id="edge3" class="edge">
<title>Node1&#45;&gt;Node4</title>
<path fill="none" stroke="orange" stroke-dasharray="5,2" d="M129.5,-136.09C129.5,-123.76 129.5,-109.22 129.5,-98.73"/>
<polygon fill="orange" stroke="orange" points="126,-136.2 129.5,-146.2 133,-136.21 126,-136.2"/>
<text text-anchor="middle" x="187.5" y="-120" font-family="Helvetica,sans-Serif" font-size="10.00"> &lt; Filter, SampleType &gt;</text>
</g>
<!-- Node2 -->
<g id="node2" class="node">
<title>Node2</title>
<g id="a_node2"><a xlink:href="classlemons_1_1dsp_1_1Engine.html" target="_top" xlink:title="Base class for an audio engine.">
<polygon fill="none" stroke="black" points="0,-214.5 0,-244.5 115,-244.5 115,-214.5 0,-214.5"/>
<text text-anchor="start" x="8" y="-232.5" font-family="Helvetica,sans-Serif" font-size="10.00">lemons::dsp::Engine</text>
<text text-anchor="middle" x="57.5" y="-221.5" font-family="Helvetica,sans-Serif" font-size="10.00">&lt; SampleType &gt;</text>
</a>
</g>
</g>
<!-- Node2&#45;&gt;Node1 -->
<g id="edge1" class="edge">
<title>Node2&#45;&gt;Node1</title>
<path fill="none" stroke="midnightblue" d="M80.65,-207.28C91.52,-197.31 104.2,-185.7 113.91,-176.79"/>
<polygon fill="midnightblue" stroke="midnightblue" points="78.13,-204.84 73.12,-214.18 82.86,-210 78.13,-204.84"/>
</g>
<!-- Node3 -->
<g id="node3" class="node">
<title>Node3</title>
<g id="a_node3"><a xlink:href="structlemons_1_1SerializableData.html" target="_top" xlink:title="Base class for any C++ object that needs to be serialized to binary and back.">
<polygon fill="none" stroke="black" points="133,-220 133,-239 272,-239 272,-220 133,-220"/>
<text text-anchor="middle" x="202.5" y="-227" font-family="Helvetica,sans-Serif" font-size="10.00">lemons::SerializableData</text>
</a>
</g>
</g>
<!-- Node3&#45;&gt;Node1 -->
<g id="edge2" class="edge">
<title>Node3&#45;&gt;Node1</title>
<path fill="none" stroke="midnightblue" d="M185.29,-212.94C173.13,-201.95 156.98,-187.35 145.19,-176.68"/>
<polygon fill="midnightblue" stroke="midnightblue" points="183.19,-215.76 192.96,-219.87 187.89,-210.57 183.19,-215.76"/>
</g>
<!-- Node5 -->
<g id="node5" class="node">
<title>Node5</title>
<g id="a_node5"><a xlink:href="structlemons_1_1dsp_1_1FX_1_1FilterEngine.html" target="_top" xlink:title="A class that represents an audio engine holding a filter effect.">
<polygon fill="none" stroke="black" points="50.5,-0.5 50.5,-30.5 208.5,-30.5 208.5,-0.5 50.5,-0.5"/>
<text text-anchor="start" x="58.5" y="-18.5" font-family="Helvetica,sans-Serif" font-size="10.00">lemons::dsp::FX::FilterEngine</text>
<text text-anchor="middle" x="129.5" y="-7.5" font-family="Helvetica,sans-Serif" font-size="10.00">&lt; SampleType &gt;</text>
</a>
</g>
</g>
<!-- Node4&#45;&gt;Node5 -->
<g id="edge4" class="edge">
<title>Node4&#45;&gt;Node5</title>
<path fill="none" stroke="midnightblue" d="M129.5,-58.03C129.5,-48.86 129.5,-38.74 129.5,-30.79"/>
<polygon fill="midnightblue" stroke="midnightblue" points="126,-58.18 129.5,-68.18 133,-58.18 126,-58.18"/>
</g>
</g>
</svg>
