<?xml version="1.0" encoding="UTF-8" standalone="no"?>
<!DOCTYPE svg PUBLIC "-//W3C//DTD SVG 1.1//EN"
 "http://www.w3.org/Graphics/SVG/1.1/DTD/svg11.dtd">
<!-- Generated by graphviz version 2.50.0 (20211204.2007)
 -->
<!-- Title: lemons::plugin::Parameter Pages: 1 -->
<svg width="1197pt" height="438pt"
 viewBox="0.00 0.00 1197.00 437.50" xmlns="http://www.w3.org/2000/svg" xmlns:xlink="http://www.w3.org/1999/xlink">
<g id="graph0" class="graph" transform="scale(1 1) rotate(0) translate(4 433.5)">
<title>lemons::plugin::Parameter</title>
<!-- Node1 -->
<g id="node1" class="node">
<title>Node1</title>
<g id="a_node1"><a xlink:title="A plugin parameter class.">
<polygon fill="#bfbfbf" stroke="black" points="181,-249.5 181,-268.5 312,-268.5 312,-249.5 181,-249.5"/>
<text text-anchor="middle" x="246.5" y="-256.5" font-family="Helvetica,sans-Serif" font-size="10.00">lemons::plugin::Parameter</text>
</a>
</g>
</g>
<!-- Node3 -->
<g id="node3" class="node">
<title>Node3</title>
<g id="a_node3"><a xlink:href="classlemons_1_1plugin_1_1_typed_parameter.html" target="_top" xlink:title=" ">
<polygon fill="none" stroke="black" points="586.5,-399 586.5,-429 743.5,-429 743.5,-399 586.5,-399"/>
<text text-anchor="start" x="594.5" y="-417" font-family="Helvetica,sans-Serif" font-size="10.00">lemons::plugin::TypedParameter</text>
<text text-anchor="middle" x="665" y="-406" font-family="Helvetica,sans-Serif" font-size="10.00">&lt; bool &gt;</text>
</a>
</g>
</g>
<!-- Node1&#45;&gt;Node3 -->
<g id="edge2" class="edge">
<title>Node1&#45;&gt;Node3</title>
<path fill="none" stroke="midnightblue" d="M271.83,-273.94C318.74,-302.03 425.79,-362.61 524,-393 543.84,-399.14 565.84,-403.51 586.4,-406.62"/>
<polygon fill="midnightblue" stroke="midnightblue" points="273.38,-270.79 263.01,-268.62 269.76,-276.79 273.38,-270.79"/>
</g>
<!-- Node6 -->
<g id="node6" class="node">
<title>Node6</title>
<g id="a_node6"><a xlink:href="classlemons_1_1plugin_1_1_typed_parameter.html" target="_top" xlink:title=" ">
<polygon fill="none" stroke="black" points="586.5,-76 586.5,-106 743.5,-106 743.5,-76 586.5,-76"/>
<text text-anchor="start" x="594.5" y="-94" font-family="Helvetica,sans-Serif" font-size="10.00">lemons::plugin::TypedParameter</text>
<text text-anchor="middle" x="665" y="-83" font-family="Helvetica,sans-Serif" font-size="10.00">&lt; float &gt;</text>
</a>
</g>
</g>
<!-- Node1&#45;&gt;Node6 -->
<g id="edge5" class="edge">
<title>Node1&#45;&gt;Node6</title>
<path fill="none" stroke="midnightblue" d="M271.61,-244.14C318.51,-215.87 426.01,-154.12 524,-120 543.81,-113.1 565.79,-107.6 586.36,-103.32"/>
<polygon fill="midnightblue" stroke="midnightblue" points="269.79,-241.15 263.06,-249.33 273.43,-247.13 269.79,-241.15"/>
</g>
<!-- Node15 -->
<g id="node15" class="node">
<title>Node15</title>
<g id="a_node15"><a xlink:href="classlemons_1_1plugin_1_1_typed_parameter.html" target="_top" xlink:title="A parameter that can be stored as a type other than a float, but still inherits from my Parameter bas...">
<polygon fill="none" stroke="black" points="349,-244 349,-274 506,-274 506,-244 349,-244"/>
<text text-anchor="start" x="357" y="-262" font-family="Helvetica,sans-Serif" font-size="10.00">lemons::plugin::TypedParameter</text>
<text text-anchor="middle" x="427.5" y="-251" font-family="Helvetica,sans-Serif" font-size="10.00">&lt; ValueType &gt;</text>
</a>
</g>
</g>
<!-- Node1&#45;&gt;Node15 -->
<g id="edge14" class="edge">
<title>Node1&#45;&gt;Node15</title>
<path fill="none" stroke="midnightblue" d="M322.31,-259C331.08,-259 340.04,-259 348.85,-259"/>
<polygon fill="midnightblue" stroke="midnightblue" points="322.12,-255.5 312.12,-259 322.12,-262.5 322.12,-255.5"/>
</g>
<!-- Node2 -->
<g id="node2" class="node">
<title>Node2</title>
<g id="a_node2"><a xlink:title=" ">
<polygon fill="none" stroke="#bfbfbf" points="0,-249.5 0,-268.5 144,-268.5 144,-249.5 0,-249.5"/>
<text text-anchor="middle" x="72" y="-256.5" font-family="Helvetica,sans-Serif" font-size="10.00">juce::RangedAudioParameter</text>
</a>
</g>
</g>
<!-- Node2&#45;&gt;Node1 -->
<g id="edge1" class="edge">
<title>Node2&#45;&gt;Node1</title>
<path fill="none" stroke="midnightblue" d="M154.2,-259C163.15,-259 172.16,-259 180.86,-259"/>
<polygon fill="midnightblue" stroke="midnightblue" points="154.16,-255.5 144.16,-259 154.16,-262.5 154.16,-255.5"/>
</g>
<!-- Node4 -->
<g id="node4" class="node">
<title>Node4</title>
<g id="a_node4"><a xlink:href="structlemons_1_1plugin_1_1_bool_parameter.html" target="_top" xlink:title="Helper struct that simplifies the constructor for boolean parameters.">
<polygon fill="none" stroke="black" points="833.5,-404.5 833.5,-423.5 983.5,-423.5 983.5,-404.5 833.5,-404.5"/>
<text text-anchor="middle" x="908.5" y="-411.5" font-family="Helvetica,sans-Serif" font-size="10.00">lemons::plugin::BoolParameter</text>
</a>
</g>
</g>
<!-- Node3&#45;&gt;Node4 -->
<g id="edge3" class="edge">
<title>Node3&#45;&gt;Node4</title>
<path fill="none" stroke="midnightblue" d="M753.97,-414C779.96,-414 808.15,-414 833.2,-414"/>
<polygon fill="midnightblue" stroke="midnightblue" points="753.74,-410.5 743.74,-414 753.74,-417.5 753.74,-410.5"/>
</g>
<!-- Node5 -->
<g id="node5" class="node">
<title>Node5</title>
<g id="a_node5"><a xlink:href="structlemons_1_1plugin_1_1_toggle_parameter.html" target="_top" xlink:title="A parameter that represents a boolean on/off toggle.">
<polygon fill="none" stroke="black" points="1030,-404.5 1030,-423.5 1189,-423.5 1189,-404.5 1030,-404.5"/>
<text text-anchor="middle" x="1109.5" y="-411.5" font-family="Helvetica,sans-Serif" font-size="10.00">lemons::plugin::ToggleParameter</text>
</a>
</g>
</g>
<!-- Node4&#45;&gt;Node5 -->
<g id="edge4" class="edge">
<title>Node4&#45;&gt;Node5</title>
<path fill="none" stroke="midnightblue" d="M993.93,-414C1005.78,-414 1017.93,-414 1029.67,-414"/>
<polygon fill="midnightblue" stroke="midnightblue" points="993.6,-410.5 983.6,-414 993.6,-417.5 993.6,-410.5"/>
</g>
<!-- Node7 -->
<g id="node7" class="node">
<title>Node7</title>
<g id="a_node7"><a xlink:href="classlemons_1_1plugin_1_1_meta_parameter.html" target="_top" xlink:title=" ">
<polygon fill="none" stroke="black" points="832.5,-194 832.5,-224 984.5,-224 984.5,-194 832.5,-194"/>
<text text-anchor="start" x="840.5" y="-212" font-family="Helvetica,sans-Serif" font-size="10.00">lemons::plugin::MetaParameter</text>
<text text-anchor="middle" x="908.5" y="-201" font-family="Helvetica,sans-Serif" font-size="10.00">&lt; float &gt;</text>
</a>
</g>
</g>
<!-- Node6&#45;&gt;Node7 -->
<g id="edge6" class="edge">
<title>Node6&#45;&gt;Node7</title>
<path fill="none" stroke="midnightblue" d="M734.49,-109.77C739.14,-111.69 743.69,-113.76 748,-116 757,-120.67 757.65,-124.26 766,-130 802.41,-155.01 847.38,-179.06 876.72,-193.92"/>
<polygon fill="midnightblue" stroke="midnightblue" points="735.42,-106.38 724.83,-106.06 732.91,-112.92 735.42,-106.38"/>
</g>
<!-- Node9 -->
<g id="node9" class="node">
<title>Node9</title>
<g id="a_node9"><a xlink:href="structlemons_1_1plugin_1_1_meter_parameter.html" target="_top" xlink:title=" ">
<polygon fill="none" stroke="black" points="831,-263 831,-293 986,-293 986,-263 831,-263"/>
<text text-anchor="start" x="839" y="-281" font-family="Helvetica,sans-Serif" font-size="10.00">lemons::plugin::MeterParameter</text>
<text text-anchor="middle" x="908.5" y="-270" font-family="Helvetica,sans-Serif" font-size="10.00">&lt; float &gt;</text>
</a>
</g>
</g>
<!-- Node6&#45;&gt;Node9 -->
<g id="edge8" class="edge">
<title>Node6&#45;&gt;Node9</title>
<path fill="none" stroke="midnightblue" d="M742.42,-111.61C744.37,-112.98 746.23,-114.44 748,-116 762.63,-128.88 756.07,-139.22 766,-156 776.91,-174.44 807.75,-219.04 824,-233 838.11,-245.13 856.04,-255.32 871.66,-262.91"/>
<polygon fill="midnightblue" stroke="midnightblue" points="743.84,-108.38 733.48,-106.17 740.2,-114.36 743.84,-108.38"/>
</g>
<!-- Node11 -->
<g id="node11" class="node">
<title>Node11</title>
<g id="a_node11"><a xlink:href="structlemons_1_1plugin_1_1_float_amount_parameter.html" target="_top" xlink:title="A parameter that represents a value in a normalized 0&#45;1 range.">
<polygon fill="none" stroke="black" points="838,-126 838,-156 979,-156 979,-126 838,-126"/>
<text text-anchor="start" x="846" y="-144" font-family="Helvetica,sans-Serif" font-size="10.00">lemons::plugin::FloatAmount</text>
<text text-anchor="middle" x="908.5" y="-133" font-family="Helvetica,sans-Serif" font-size="10.00">Parameter</text>
</a>
</g>
</g>
<!-- Node6&#45;&gt;Node11 -->
<g id="edge10" class="edge">
<title>Node6&#45;&gt;Node11</title>
<path fill="none" stroke="midnightblue" d="M748.6,-108.1C777.7,-114.13 810.09,-120.83 837.99,-126.61"/>
<polygon fill="midnightblue" stroke="midnightblue" points="748.96,-104.6 738.46,-106 747.54,-111.46 748.96,-104.6"/>
</g>
<!-- Node12 -->
<g id="node12" class="node">
<title>Node12</title>
<g id="a_node12"><a xlink:href="structlemons_1_1plugin_1_1_frequency_parameter.html" target="_top" xlink:title="A parameter that represents a frequency in Hz.">
<polygon fill="none" stroke="black" points="843,-77 843,-107 974,-107 974,-77 843,-77"/>
<text text-anchor="start" x="851" y="-95" font-family="Helvetica,sans-Serif" font-size="10.00">lemons::plugin::Frequency</text>
<text text-anchor="middle" x="908.5" y="-84" font-family="Helvetica,sans-Serif" font-size="10.00">Parameter</text>
</a>
</g>
</g>
<!-- Node6&#45;&gt;Node12 -->
<g id="edge11" class="edge">
<title>Node6&#45;&gt;Node12</title>
<path fill="none" stroke="midnightblue" d="M754.01,-91.36C783.39,-91.49 815.57,-91.62 842.84,-91.73"/>
<polygon fill="midnightblue" stroke="midnightblue" points="753.76,-87.86 743.74,-91.32 753.73,-94.86 753.76,-87.86"/>
</g>
<!-- Node13 -->
<g id="node13" class="node">
<title>Node13</title>
<g id="a_node13"><a xlink:href="structlemons_1_1plugin_1_1_gain_parameter.html" target="_top" xlink:title="A parameter that represents a gain value in decibels.">
<polygon fill="none" stroke="black" points="833,-38.5 833,-57.5 984,-57.5 984,-38.5 833,-38.5"/>
<text text-anchor="middle" x="908.5" y="-45.5" font-family="Helvetica,sans-Serif" font-size="10.00">lemons::plugin::GainParameter</text>
</a>
</g>
</g>
<!-- Node6&#45;&gt;Node13 -->
<g id="edge12" class="edge">
<title>Node6&#45;&gt;Node13</title>
<path fill="none" stroke="midnightblue" d="M754.01,-75.33C787.49,-69.37 824.62,-62.76 853.97,-57.53"/>
<polygon fill="midnightblue" stroke="midnightblue" points="752.97,-71.96 743.74,-77.16 754.2,-78.85 752.97,-71.96"/>
</g>
<!-- Node14 -->
<g id="node14" class="node">
<title>Node14</title>
<g id="a_node14"><a xlink:href="structlemons_1_1plugin_1_1_seconds_parameter.html" target="_top" xlink:title="A parameter that represents a time value in seconds, expressed as a float.">
<polygon fill="none" stroke="black" points="824,-0.5 824,-19.5 993,-19.5 993,-0.5 824,-0.5"/>
<text text-anchor="middle" x="908.5" y="-7.5" font-family="Helvetica,sans-Serif" font-size="10.00">lemons::plugin::SecondsParameter</text>
</a>
</g>
</g>
<!-- Node6&#45;&gt;Node14 -->
<g id="edge13" class="edge">
<title>Node6&#45;&gt;Node14</title>
<path fill="none" stroke="midnightblue" d="M709.32,-71.96C740.73,-58.67 784.44,-41.19 824,-29 835.51,-25.45 848.09,-22.25 859.92,-19.53"/>
<polygon fill="midnightblue" stroke="midnightblue" points="707.82,-68.8 699.99,-75.94 710.56,-75.24 707.82,-68.8"/>
</g>
<!-- Node8 -->
<g id="node8" class="node">
<title>Node8</title>
<g id="a_node8"><a xlink:href="structlemons_1_1plugin_1_1_l_f_o.html" target="_top" xlink:title="An LFO, to be used by a ModulationManager object.">
<polygon fill="none" stroke="black" points="1057.5,-199.5 1057.5,-218.5 1161.5,-218.5 1161.5,-199.5 1057.5,-199.5"/>
<text text-anchor="middle" x="1109.5" y="-206.5" font-family="Helvetica,sans-Serif" font-size="10.00">lemons::plugin::LFO</text>
</a>
</g>
</g>
<!-- Node7&#45;&gt;Node8 -->
<g id="edge7" class="edge">
<title>Node7&#45;&gt;Node8</title>
<path fill="none" stroke="midnightblue" d="M994.76,-209C1016.05,-209 1038.22,-209 1057.28,-209"/>
<polygon fill="midnightblue" stroke="midnightblue" points="994.73,-205.5 984.73,-209 994.73,-212.5 994.73,-205.5"/>
</g>
<!-- Node10 -->
<g id="node10" class="node">
<title>Node10</title>
<g id="a_node10"><a xlink:href="structlemons_1_1plugin_1_1_gain_meter_parameter.html" target="_top" xlink:title="A parameter that represents a meter displaying values in decibels.">
<polygon fill="none" stroke="black" points="1044,-263 1044,-293 1175,-293 1175,-263 1044,-263"/>
<text text-anchor="start" x="1052" y="-281" font-family="Helvetica,sans-Serif" font-size="10.00">lemons::plugin::GainMeter</text>
<text text-anchor="middle" x="1109.5" y="-270" font-family="Helvetica,sans-Serif" font-size="10.00">Parameter</text>
</a>
</g>
</g>
<!-- Node9&#45;&gt;Node10 -->
<g id="edge9" class="edge">
<title>Node9&#45;&gt;Node10</title>
<path fill="none" stroke="midnightblue" d="M996.52,-278C1012.42,-278 1028.75,-278 1043.85,-278"/>
<polygon fill="midnightblue" stroke="midnightblue" points="996.15,-274.5 986.15,-278 996.15,-281.5 996.15,-274.5"/>
</g>
<!-- Node15&#45;&gt;Node3 -->
<g id="edge23" class="edge">
<title>Node15&#45;&gt;Node3</title>
<path fill="none" stroke="orange" stroke-dasharray="5,2" d="M449.31,-281.95C476.93,-311.1 528.48,-361.06 582,-390 588.26,-393.39 595.06,-396.35 601.97,-398.92"/>
<polygon fill="orange" stroke="orange" points="451.56,-279.23 442.17,-274.32 446.44,-284.01 451.56,-279.23"/>
<text text-anchor="middle" x="544" y="-381" font-family="Helvetica,sans-Serif" font-size="10.00"> &lt; bool &gt;</text>
</g>
<!-- Node15&#45;&gt;Node6 -->
<g id="edge24" class="edge">
<title>Node15&#45;&gt;Node6</title>
<path fill="none" stroke="orange" stroke-dasharray="5,2" d="M444.71,-235.64C462.25,-211.56 492.02,-173.98 524,-148 546.85,-129.44 554.88,-127.47 582,-116 590.5,-112.41 599.69,-109.09 608.74,-106.12"/>
<polygon fill="orange" stroke="orange" points="441.81,-233.68 438.82,-243.85 447.5,-237.76 441.81,-233.68"/>
<text text-anchor="middle" x="544" y="-151" font-family="Helvetica,sans-Serif" font-size="10.00"> &lt; float &gt;</text>
</g>
<!-- Node16 -->
<g id="node16" class="node">
<title>Node16</title>
<g id="a_node16"><a xlink:href="classlemons_1_1plugin_1_1_meta_parameter.html" target="_top" xlink:title="A meta parameter class that implements the MetaParameterBase interface.">
<polygon fill="none" stroke="black" points="589,-213 589,-243 741,-243 741,-213 589,-213"/>
<text text-anchor="start" x="597" y="-231" font-family="Helvetica,sans-Serif" font-size="10.00">lemons::plugin::MetaParameter</text>
<text text-anchor="middle" x="665" y="-220" font-family="Helvetica,sans-Serif" font-size="10.00">&lt; ValueType &gt;</text>
</a>
</g>
</g>
<!-- Node15&#45;&gt;Node16 -->
<g id="edge15" class="edge">
<title>Node15&#45;&gt;Node16</title>
<path fill="none" stroke="midnightblue" d="M516.34,-247.44C540.14,-244.3 565.68,-240.94 588.72,-237.91"/>
<polygon fill="midnightblue" stroke="midnightblue" points="515.72,-243.99 506.26,-248.76 516.64,-250.93 515.72,-243.99"/>
</g>
<!-- Node17 -->
<g id="node17" class="node">
<title>Node17</title>
<g id="a_node17"><a xlink:href="structlemons_1_1plugin_1_1_meter_parameter.html" target="_top" xlink:title="A parameter that represents a general kind of meter, used for reporting things like level or gain red...">
<polygon fill="none" stroke="black" points="587.5,-301 587.5,-331 742.5,-331 742.5,-301 587.5,-301"/>
<text text-anchor="start" x="595.5" y="-319" font-family="Helvetica,sans-Serif" font-size="10.00">lemons::plugin::MeterParameter</text>
<text text-anchor="middle" x="665" y="-308" font-family="Helvetica,sans-Serif" font-size="10.00">&lt; ValueType &gt;</text>
</a>
</g>
</g>
<!-- Node15&#45;&gt;Node17 -->
<g id="edge17" class="edge">
<title>Node15&#45;&gt;Node17</title>
<path fill="none" stroke="midnightblue" d="M500.54,-276.44C532.92,-284.27 570.76,-293.43 601.88,-300.96"/>
<polygon fill="midnightblue" stroke="midnightblue" points="501.23,-273 490.68,-274.05 499.58,-279.8 501.23,-273"/>
</g>
<!-- Node18 -->
<g id="node18" class="node">
<title>Node18</title>
<g id="a_node18"><a xlink:href="structlemons_1_1plugin_1_1_midi_pan_parameter.html" target="_top" xlink:title="A parameter that represents a MIDI panning value in the range 0 to 127.">
<polygon fill="none" stroke="black" points="582,-262.5 582,-281.5 748,-281.5 748,-262.5 582,-262.5"/>
<text text-anchor="middle" x="665" y="-269.5" font-family="Helvetica,sans-Serif" font-size="10.00">lemons::plugin::MidiPanParameter</text>
</a>
</g>
</g>
<!-- Node15&#45;&gt;Node18 -->
<g id="edge19" class="edge">
<title>Node15&#45;&gt;Node18</title>
<path fill="none" stroke="midnightblue" d="M516.34,-263.85C537.8,-265.03 560.69,-266.3 581.87,-267.47"/>
<polygon fill="midnightblue" stroke="midnightblue" points="516.44,-260.35 506.26,-263.29 516.06,-267.34 516.44,-260.35"/>
</g>
<!-- Node19 -->
<g id="node19" class="node">
<title>Node19</title>
<g id="a_node19"><a xlink:href="structlemons_1_1plugin_1_1_midi_pitch_parameter.html" target="_top" xlink:title="A parameter that represents a MIDI pitch.">
<polygon fill="none" stroke="black" points="602,-164 602,-194 728,-194 728,-164 602,-164"/>
<text text-anchor="start" x="610" y="-182" font-family="Helvetica,sans-Serif" font-size="10.00">lemons::plugin::MidiPitch</text>
<text text-anchor="middle" x="665" y="-171" font-family="Helvetica,sans-Serif" font-size="10.00">Parameter</text>
</a>
</g>
</g>
<!-- Node15&#45;&gt;Node19 -->
<g id="edge20" class="edge">
<title>Node15&#45;&gt;Node19</title>
<path fill="none" stroke="midnightblue" d="M477.1,-240.35C507.15,-229.05 546.62,-214.62 582,-203 591.16,-199.99 600.96,-196.96 610.47,-194.12"/>
<polygon fill="midnightblue" stroke="midnightblue" points="475.81,-237.1 467.69,-243.9 478.28,-243.65 475.81,-237.1"/>
</g>
<!-- Node20 -->
<g id="node20" class="node">
<title>Node20</title>
<g id="a_node20"><a xlink:href="structlemons_1_1plugin_1_1_percent_parameter.html" target="_top" xlink:title="A parameter that represents an integer value in the range 0&#45;100.">
<polygon fill="none" stroke="black" points="583,-125.5 583,-144.5 747,-144.5 747,-125.5 583,-125.5"/>
<text text-anchor="middle" x="665" y="-132.5" font-family="Helvetica,sans-Serif" font-size="10.00">lemons::plugin::PercentParameter</text>
</a>
</g>
</g>
<!-- Node15&#45;&gt;Node20 -->
<g id="edge21" class="edge">
<title>Node15&#45;&gt;Node20</title>
<path fill="none" stroke="midnightblue" d="M454.07,-237.03C483.16,-213.14 533.03,-175.51 582,-154 590.7,-150.18 600.26,-147.08 609.7,-144.57"/>
<polygon fill="midnightblue" stroke="midnightblue" points="451.53,-234.59 446.08,-243.67 456,-239.97 451.53,-234.59"/>
</g>
<!-- Node21 -->
<g id="node21" class="node">
<title>Node21</title>
<g id="a_node21"><a xlink:href="structlemons_1_1plugin_1_1_semitones_parameter.html" target="_top" xlink:title="A parameter that represents a number of semitones, as an integer.">
<polygon fill="none" stroke="black" points="599,-350 599,-380 731,-380 731,-350 599,-350"/>
<text text-anchor="start" x="607" y="-368" font-family="Helvetica,sans-Serif" font-size="10.00">lemons::plugin::Semitones</text>
<text text-anchor="middle" x="665" y="-357" font-family="Helvetica,sans-Serif" font-size="10.00">Parameter</text>
</a>
</g>
</g>
<!-- Node15&#45;&gt;Node21 -->
<g id="edge22" class="edge">
<title>Node15&#45;&gt;Node21</title>
<path fill="none" stroke="midnightblue" d="M461.9,-279.44C492.36,-297.44 539.03,-323.45 582,-341 589.96,-344.25 598.53,-347.26 607.01,-349.97"/>
<polygon fill="midnightblue" stroke="midnightblue" points="463.38,-276.24 452.99,-274.13 459.79,-282.25 463.38,-276.24"/>
</g>
<!-- Node16&#45;&gt;Node7 -->
<g id="edge16" class="edge">
<title>Node16&#45;&gt;Node7</title>
<path fill="none" stroke="orange" stroke-dasharray="5,2" d="M751.12,-221.3C777.64,-219.22 806.68,-216.93 832.46,-214.9"/>
<polygon fill="orange" stroke="orange" points="750.78,-217.82 741.09,-222.09 751.33,-224.8 750.78,-217.82"/>
<text text-anchor="middle" x="786" y="-223" font-family="Helvetica,sans-Serif" font-size="10.00"> &lt; float &gt;</text>
</g>
<!-- Node17&#45;&gt;Node9 -->
<g id="edge18" class="edge">
<title>Node17&#45;&gt;Node9</title>
<path fill="none" stroke="orange" stroke-dasharray="5,2" d="M752.79,-302.34C778.34,-298.32 806.1,-293.96 830.96,-290.04"/>
<polygon fill="orange" stroke="orange" points="752.08,-298.91 742.74,-303.92 753.17,-305.83 752.08,-298.91"/>
<text text-anchor="middle" x="786" y="-302" font-family="Helvetica,sans-Serif" font-size="10.00"> &lt; float &gt;</text>
</g>
</g>
</svg>
