<?xml version="1.0" encoding="UTF-8" standalone="no"?>
<!DOCTYPE svg PUBLIC "-//W3C//DTD SVG 1.1//EN"
 "http://www.w3.org/Graphics/SVG/1.1/DTD/svg11.dtd">
<!-- Generated by graphviz version 2.43.0 (0)
 -->
<!-- Title: lemons::plugin::StateBase Pages: 1 -->
<svg width="393pt" height="88pt"
 viewBox="0.00 0.00 393.00 88.00" xmlns="http://www.w3.org/2000/svg" xmlns:xlink="http://www.w3.org/1999/xlink">
<g id="graph0" class="graph" transform="scale(1 1) rotate(0) translate(4 84)">
<title>lemons::plugin::StateBase</title>
<!-- Node1 -->
<g id="node1" class="node">
<title>Node1</title>
<g id="a_node1"><a xlink:title="The default plugin state toggler has 3 states, A/B/C.">
<polygon fill="#bfbfbf" stroke="black" points="0,-30 0,-49 144,-49 144,-30 0,-30"/>
<text text-anchor="middle" x="72" y="-37" font-family="Helvetica,sans-Serif" font-size="10.00">lemons::plugin::StateBase</text>
</a>
</g>
</g>
<!-- Node2 -->
<g id="node2" class="node">
<title>Node2</title>
<g id="a_node2"><a xlink:href="structlemons_1_1plugin_1_1_custom_state.html" target="_top" xlink:title="A plugin state class that instantiates the appropriate ParameterList and custom serializable object a...">
<polygon fill="none" stroke="black" points="180,-49.5 180,-79.5 385,-79.5 385,-49.5 180,-49.5"/>
<text text-anchor="start" x="188" y="-67.5" font-family="Helvetica,sans-Serif" font-size="10.00">lemons::plugin::CustomState</text>
<text text-anchor="middle" x="282.5" y="-56.5" font-family="Helvetica,sans-Serif" font-size="10.00">&lt; ParamListType, CustomDataType,, &gt;</text>
</a>
</g>
</g>
<!-- Node1&#45;&gt;Node2 -->
<g id="edge1" class="edge">
<title>Node1&#45;&gt;Node2</title>
<path fill="none" stroke="midnightblue" d="M154.23,-49.24C162.57,-50.24 171.12,-51.26 179.64,-52.29"/>
<polygon fill="midnightblue" stroke="midnightblue" points="154.52,-45.75 144.17,-48.03 153.68,-52.7 154.52,-45.75"/>
</g>
<!-- Node3 -->
<g id="node3" class="node">
<title>Node3</title>
<g id="a_node3"><a xlink:href="structlemons_1_1plugin_1_1_state.html" target="_top" xlink:title="A plugin state class that instantiates the appropriate ParameterList and passes it to the StateBase c...">
<polygon fill="none" stroke="black" points="222.5,-0.5 222.5,-30.5 342.5,-30.5 342.5,-0.5 222.5,-0.5"/>
<text text-anchor="start" x="230.5" y="-18.5" font-family="Helvetica,sans-Serif" font-size="10.00">lemons::plugin::State</text>
<text text-anchor="middle" x="282.5" y="-7.5" font-family="Helvetica,sans-Serif" font-size="10.00">&lt; ParamListType, &gt;</text>
</a>
</g>
</g>
<!-- Node1&#45;&gt;Node3 -->
<g id="edge2" class="edge">
<title>Node1&#45;&gt;Node3</title>
<path fill="none" stroke="midnightblue" d="M154.16,-30.16C176.91,-27.54 201.21,-24.74 222.42,-22.3"/>
<polygon fill="midnightblue" stroke="midnightblue" points="153.7,-26.69 144.17,-31.31 154.51,-33.64 153.7,-26.69"/>
</g>
</g>
</svg>
