<?xml version="1.0" encoding="UTF-8" standalone="no"?>
<!DOCTYPE svg PUBLIC "-//W3C//DTD SVG 1.1//EN"
 "http://www.w3.org/Graphics/SVG/1.1/DTD/svg11.dtd">
<!-- Generated by graphviz version 2.49.3 (20211023.0002)
 -->
<!-- Title: lemons::plugin::Parameter Pages: 1 -->
<svg width="1196pt" height="438pt"
 viewBox="0.00 0.00 1196.00 437.50" xmlns="http://www.w3.org/2000/svg" xmlns:xlink="http://www.w3.org/1999/xlink">
<g id="graph0" class="graph" transform="scale(1 1) rotate(0) translate(4 433.5)">
<title>lemons::plugin::Parameter</title>
<!-- Node1 -->
<g id="node1" class="node">
<title>Node1</title>
<g id="a_node1"><a xlink:title="A plugin parameter class.">
<polygon fill="#bfbfbf" stroke="black" points="180,-249.5 180,-268.5 311,-268.5 311,-249.5 180,-249.5"/>
<text text-anchor="middle" x="245.5" y="-256.5" font-family="Helvetica,sans-Serif" font-size="10.00">lemons::plugin::Parameter</text>
</a>
</g>
</g>
<!-- Node3 -->
<g id="node3" class="node">
<title>Node3</title>
<g id="a_node3"><a xlink:href="classlemons_1_1plugin_1_1_typed_parameter.html" target="_top" xlink:title=" ">
<polygon fill="none" stroke="black" points="585.5,-399 585.5,-429 742.5,-429 742.5,-399 585.5,-399"/>
<text text-anchor="start" x="593.5" y="-417" font-family="Helvetica,sans-Serif" font-size="10.00">lemons::plugin::TypedParameter</text>
<text text-anchor="middle" x="664" y="-406" font-family="Helvetica,sans-Serif" font-size="10.00">&lt; bool &gt;</text>
</a>
</g>
</g>
<!-- Node1&#45;&gt;Node3 -->
<g id="edge2" class="edge">
<title>Node1&#45;&gt;Node3</title>
<path fill="none" stroke="midnightblue" d="M270.83,-273.94C317.74,-302.03 424.79,-362.61 523,-393 542.84,-399.14 564.84,-403.51 585.4,-406.62"/>
<polygon fill="midnightblue" stroke="midnightblue" points="272.38,-270.79 262.01,-268.62 268.76,-276.79 272.38,-270.79"/>
</g>
<!-- Node6 -->
<g id="node6" class="node">
<title>Node6</title>
<g id="a_node6"><a xlink:href="classlemons_1_1plugin_1_1_typed_parameter.html" target="_top" xlink:title=" ">
<polygon fill="none" stroke="black" points="585.5,-76 585.5,-106 742.5,-106 742.5,-76 585.5,-76"/>
<text text-anchor="start" x="593.5" y="-94" font-family="Helvetica,sans-Serif" font-size="10.00">lemons::plugin::TypedParameter</text>
<text text-anchor="middle" x="664" y="-83" font-family="Helvetica,sans-Serif" font-size="10.00">&lt; float &gt;</text>
</a>
</g>
</g>
<!-- Node1&#45;&gt;Node6 -->
<g id="edge5" class="edge">
<title>Node1&#45;&gt;Node6</title>
<path fill="none" stroke="midnightblue" d="M270.61,-244.14C317.51,-215.87 425.01,-154.12 523,-120 542.81,-113.1 564.79,-107.6 585.36,-103.32"/>
<polygon fill="midnightblue" stroke="midnightblue" points="268.79,-241.15 262.06,-249.33 272.43,-247.13 268.79,-241.15"/>
</g>
<!-- Node15 -->
<g id="node15" class="node">
<title>Node15</title>
<g id="a_node15"><a xlink:href="classlemons_1_1plugin_1_1_typed_parameter.html" target="_top" xlink:title="A parameter that can be stored as a type other than a float, but still inherits from my Parameter bas...">
<polygon fill="none" stroke="black" points="348,-244 348,-274 505,-274 505,-244 348,-244"/>
<text text-anchor="start" x="356" y="-262" font-family="Helvetica,sans-Serif" font-size="10.00">lemons::plugin::TypedParameter</text>
<text text-anchor="middle" x="426.5" y="-251" font-family="Helvetica,sans-Serif" font-size="10.00">&lt; ValueType &gt;</text>
</a>
</g>
</g>
<!-- Node1&#45;&gt;Node15 -->
<g id="edge14" class="edge">
<title>Node1&#45;&gt;Node15</title>
<path fill="none" stroke="midnightblue" d="M321.31,-259C330.08,-259 339.04,-259 347.85,-259"/>
<polygon fill="midnightblue" stroke="midnightblue" points="321.12,-255.5 311.12,-259 321.12,-262.5 321.12,-255.5"/>
</g>
<!-- Node2 -->
<g id="node2" class="node">
<title>Node2</title>
<g id="a_node2"><a xlink:title=" ">
<polygon fill="none" stroke="black" points="0,-249.5 0,-268.5 143,-268.5 143,-249.5 0,-249.5"/>
<text text-anchor="middle" x="71.5" y="-256.5" font-family="Helvetica,sans-Serif" font-size="10.00">juce::RangedAudioParameter</text>
</a>
</g>
</g>
<!-- Node2&#45;&gt;Node1 -->
<g id="edge1" class="edge">
<title>Node2&#45;&gt;Node1</title>
<path fill="none" stroke="midnightblue" d="M153.68,-259C162.43,-259 171.25,-259 179.78,-259"/>
<polygon fill="midnightblue" stroke="midnightblue" points="153.45,-255.5 143.45,-259 153.45,-262.5 153.45,-255.5"/>
</g>
<!-- Node4 -->
<g id="node4" class="node">
<title>Node4</title>
<g id="a_node4"><a xlink:href="structlemons_1_1plugin_1_1_bool_parameter.html" target="_top" xlink:title="Helper struct that simplifies the constructor for boolean parameters.">
<polygon fill="none" stroke="black" points="832.5,-404.5 832.5,-423.5 982.5,-423.5 982.5,-404.5 832.5,-404.5"/>
<text text-anchor="middle" x="907.5" y="-411.5" font-family="Helvetica,sans-Serif" font-size="10.00">lemons::plugin::BoolParameter</text>
</a>
</g>
</g>
<!-- Node3&#45;&gt;Node4 -->
<g id="edge3" class="edge">
<title>Node3&#45;&gt;Node4</title>
<path fill="none" stroke="midnightblue" d="M752.97,-414C778.96,-414 807.15,-414 832.2,-414"/>
<polygon fill="midnightblue" stroke="midnightblue" points="752.74,-410.5 742.74,-414 752.74,-417.5 752.74,-410.5"/>
</g>
<!-- Node5 -->
<g id="node5" class="node">
<title>Node5</title>
<g id="a_node5"><a xlink:href="structlemons_1_1plugin_1_1_toggle_parameter.html" target="_top" xlink:title="A parameter that represents a boolean on/off toggle.">
<polygon fill="none" stroke="black" points="1029,-404.5 1029,-423.5 1188,-423.5 1188,-404.5 1029,-404.5"/>
<text text-anchor="middle" x="1108.5" y="-411.5" font-family="Helvetica,sans-Serif" font-size="10.00">lemons::plugin::ToggleParameter</text>
</a>
</g>
</g>
<!-- Node4&#45;&gt;Node5 -->
<g id="edge4" class="edge">
<title>Node4&#45;&gt;Node5</title>
<path fill="none" stroke="midnightblue" d="M992.93,-414C1004.78,-414 1016.93,-414 1028.67,-414"/>
<polygon fill="midnightblue" stroke="midnightblue" points="992.6,-410.5 982.6,-414 992.6,-417.5 992.6,-410.5"/>
</g>
<!-- Node7 -->
<g id="node7" class="node">
<title>Node7</title>
<g id="a_node7"><a xlink:href="classlemons_1_1plugin_1_1_meta_parameter.html" target="_top" xlink:title=" ">
<polygon fill="none" stroke="black" points="831.5,-194 831.5,-224 983.5,-224 983.5,-194 831.5,-194"/>
<text text-anchor="start" x="839.5" y="-212" font-family="Helvetica,sans-Serif" font-size="10.00">lemons::plugin::MetaParameter</text>
<text text-anchor="middle" x="907.5" y="-201" font-family="Helvetica,sans-Serif" font-size="10.00">&lt; float &gt;</text>
</a>
</g>
</g>
<!-- Node6&#45;&gt;Node7 -->
<g id="edge6" class="edge">
<title>Node6&#45;&gt;Node7</title>
<path fill="none" stroke="midnightblue" d="M733.49,-109.77C738.14,-111.69 742.69,-113.76 747,-116 756,-120.67 756.65,-124.26 765,-130 801.41,-155.01 846.38,-179.06 875.72,-193.92"/>
<polygon fill="midnightblue" stroke="midnightblue" points="734.42,-106.38 723.83,-106.06 731.91,-112.92 734.42,-106.38"/>
</g>
<!-- Node9 -->
<g id="node9" class="node">
<title>Node9</title>
<g id="a_node9"><a xlink:href="structlemons_1_1plugin_1_1_meter_parameter.html" target="_top" xlink:title=" ">
<polygon fill="none" stroke="black" points="830,-263 830,-293 985,-293 985,-263 830,-263"/>
<text text-anchor="start" x="838" y="-281" font-family="Helvetica,sans-Serif" font-size="10.00">lemons::plugin::MeterParameter</text>
<text text-anchor="middle" x="907.5" y="-270" font-family="Helvetica,sans-Serif" font-size="10.00">&lt; float &gt;</text>
</a>
</g>
</g>
<!-- Node6&#45;&gt;Node9 -->
<g id="edge8" class="edge">
<title>Node6&#45;&gt;Node9</title>
<path fill="none" stroke="midnightblue" d="M741.42,-111.61C743.37,-112.98 745.23,-114.44 747,-116 761.63,-128.88 755.07,-139.22 765,-156 775.91,-174.44 806.75,-219.04 823,-233 837.11,-245.13 855.04,-255.32 870.66,-262.91"/>
<polygon fill="midnightblue" stroke="midnightblue" points="742.84,-108.38 732.48,-106.17 739.2,-114.36 742.84,-108.38"/>
</g>
<!-- Node11 -->
<g id="node11" class="node">
<title>Node11</title>
<g id="a_node11"><a xlink:href="structlemons_1_1plugin_1_1_float_amount_parameter.html" target="_top" xlink:title="A parameter that represents a value in a normalized 0&#45;1 range.">
<polygon fill="none" stroke="black" points="837,-126 837,-156 978,-156 978,-126 837,-126"/>
<text text-anchor="start" x="845" y="-144" font-family="Helvetica,sans-Serif" font-size="10.00">lemons::plugin::FloatAmount</text>
<text text-anchor="middle" x="907.5" y="-133" font-family="Helvetica,sans-Serif" font-size="10.00">Parameter</text>
</a>
</g>
</g>
<!-- Node6&#45;&gt;Node11 -->
<g id="edge10" class="edge">
<title>Node6&#45;&gt;Node11</title>
<path fill="none" stroke="midnightblue" d="M747.6,-108.1C776.7,-114.13 809.09,-120.83 836.99,-126.61"/>
<polygon fill="midnightblue" stroke="midnightblue" points="747.96,-104.6 737.46,-106 746.54,-111.46 747.96,-104.6"/>
</g>
<!-- Node12 -->
<g id="node12" class="node">
<title>Node12</title>
<g id="a_node12"><a xlink:href="structlemons_1_1plugin_1_1_frequency_parameter.html" target="_top" xlink:title="A parameter that represents a frequency in Hz.">
<polygon fill="none" stroke="black" points="842,-77 842,-107 973,-107 973,-77 842,-77"/>
<text text-anchor="start" x="850" y="-95" font-family="Helvetica,sans-Serif" font-size="10.00">lemons::plugin::Frequency</text>
<text text-anchor="middle" x="907.5" y="-84" font-family="Helvetica,sans-Serif" font-size="10.00">Parameter</text>
</a>
</g>
</g>
<!-- Node6&#45;&gt;Node12 -->
<g id="edge11" class="edge">
<title>Node6&#45;&gt;Node12</title>
<path fill="none" stroke="midnightblue" d="M753.01,-91.36C782.39,-91.49 814.57,-91.62 841.84,-91.73"/>
<polygon fill="midnightblue" stroke="midnightblue" points="752.76,-87.86 742.74,-91.32 752.73,-94.86 752.76,-87.86"/>
</g>
<!-- Node13 -->
<g id="node13" class="node">
<title>Node13</title>
<g id="a_node13"><a xlink:href="structlemons_1_1plugin_1_1_gain_parameter.html" target="_top" xlink:title="A parameter that represents a gain value in decibels.">
<polygon fill="none" stroke="black" points="832,-38.5 832,-57.5 983,-57.5 983,-38.5 832,-38.5"/>
<text text-anchor="middle" x="907.5" y="-45.5" font-family="Helvetica,sans-Serif" font-size="10.00">lemons::plugin::GainParameter</text>
</a>
</g>
</g>
<!-- Node6&#45;&gt;Node13 -->
<g id="edge12" class="edge">
<title>Node6&#45;&gt;Node13</title>
<path fill="none" stroke="midnightblue" d="M753.01,-75.33C786.49,-69.37 823.62,-62.76 852.97,-57.53"/>
<polygon fill="midnightblue" stroke="midnightblue" points="751.97,-71.96 742.74,-77.16 753.2,-78.85 751.97,-71.96"/>
</g>
<!-- Node14 -->
<g id="node14" class="node">
<title>Node14</title>
<g id="a_node14"><a xlink:href="structlemons_1_1plugin_1_1_seconds_parameter.html" target="_top" xlink:title="A parameter that represents a time value in seconds, expressed as a float.">
<polygon fill="none" stroke="black" points="823,-0.5 823,-19.5 992,-19.5 992,-0.5 823,-0.5"/>
<text text-anchor="middle" x="907.5" y="-7.5" font-family="Helvetica,sans-Serif" font-size="10.00">lemons::plugin::SecondsParameter</text>
</a>
</g>
</g>
<!-- Node6&#45;&gt;Node14 -->
<g id="edge13" class="edge">
<title>Node6&#45;&gt;Node14</title>
<path fill="none" stroke="midnightblue" d="M708.32,-71.96C739.73,-58.67 783.44,-41.19 823,-29 834.51,-25.45 847.09,-22.25 858.92,-19.53"/>
<polygon fill="midnightblue" stroke="midnightblue" points="706.82,-68.8 698.99,-75.94 709.56,-75.24 706.82,-68.8"/>
</g>
<!-- Node8 -->
<g id="node8" class="node">
<title>Node8</title>
<g id="a_node8"><a xlink:href="structlemons_1_1plugin_1_1_l_f_o.html" target="_top" xlink:title="An LFO, to be used by a ModulationManager object.">
<polygon fill="none" stroke="black" points="1056.5,-199.5 1056.5,-218.5 1160.5,-218.5 1160.5,-199.5 1056.5,-199.5"/>
<text text-anchor="middle" x="1108.5" y="-206.5" font-family="Helvetica,sans-Serif" font-size="10.00">lemons::plugin::LFO</text>
</a>
</g>
</g>
<!-- Node7&#45;&gt;Node8 -->
<g id="edge7" class="edge">
<title>Node7&#45;&gt;Node8</title>
<path fill="none" stroke="midnightblue" d="M993.76,-209C1015.05,-209 1037.22,-209 1056.28,-209"/>
<polygon fill="midnightblue" stroke="midnightblue" points="993.73,-205.5 983.73,-209 993.73,-212.5 993.73,-205.5"/>
</g>
<!-- Node10 -->
<g id="node10" class="node">
<title>Node10</title>
<g id="a_node10"><a xlink:href="structlemons_1_1plugin_1_1_gain_meter_parameter.html" target="_top" xlink:title="A parameter that represents a meter displaying values in decibels.">
<polygon fill="none" stroke="black" points="1043,-263 1043,-293 1174,-293 1174,-263 1043,-263"/>
<text text-anchor="start" x="1051" y="-281" font-family="Helvetica,sans-Serif" font-size="10.00">lemons::plugin::GainMeter</text>
<text text-anchor="middle" x="1108.5" y="-270" font-family="Helvetica,sans-Serif" font-size="10.00">Parameter</text>
</a>
</g>
</g>
<!-- Node9&#45;&gt;Node10 -->
<g id="edge9" class="edge">
<title>Node9&#45;&gt;Node10</title>
<path fill="none" stroke="midnightblue" d="M995.52,-278C1011.42,-278 1027.75,-278 1042.85,-278"/>
<polygon fill="midnightblue" stroke="midnightblue" points="995.15,-274.5 985.15,-278 995.15,-281.5 995.15,-274.5"/>
</g>
<!-- Node15&#45;&gt;Node3 -->
<g id="edge23" class="edge">
<title>Node15&#45;&gt;Node3</title>
<path fill="none" stroke="orange" stroke-dasharray="5,2" d="M448.31,-281.95C475.93,-311.1 527.48,-361.06 581,-390 587.26,-393.39 594.06,-396.35 600.97,-398.92"/>
<polygon fill="orange" stroke="orange" points="450.56,-279.23 441.17,-274.32 445.44,-284.01 450.56,-279.23"/>
<text text-anchor="middle" x="543" y="-381" font-family="Helvetica,sans-Serif" font-size="10.00"> &lt; bool &gt;</text>
</g>
<!-- Node15&#45;&gt;Node6 -->
<g id="edge24" class="edge">
<title>Node15&#45;&gt;Node6</title>
<path fill="none" stroke="orange" stroke-dasharray="5,2" d="M443.71,-235.64C461.25,-211.56 491.02,-173.98 523,-148 545.85,-129.44 553.88,-127.47 581,-116 589.5,-112.41 598.69,-109.09 607.74,-106.12"/>
<polygon fill="orange" stroke="orange" points="440.81,-233.68 437.82,-243.85 446.5,-237.76 440.81,-233.68"/>
<text text-anchor="middle" x="543" y="-151" font-family="Helvetica,sans-Serif" font-size="10.00"> &lt; float &gt;</text>
</g>
<!-- Node16 -->
<g id="node16" class="node">
<title>Node16</title>
<g id="a_node16"><a xlink:href="classlemons_1_1plugin_1_1_meta_parameter.html" target="_top" xlink:title="A meta parameter class that implements the MetaParameterBase interface.">
<polygon fill="none" stroke="black" points="588,-213 588,-243 740,-243 740,-213 588,-213"/>
<text text-anchor="start" x="596" y="-231" font-family="Helvetica,sans-Serif" font-size="10.00">lemons::plugin::MetaParameter</text>
<text text-anchor="middle" x="664" y="-220" font-family="Helvetica,sans-Serif" font-size="10.00">&lt; ValueType &gt;</text>
</a>
</g>
</g>
<!-- Node15&#45;&gt;Node16 -->
<g id="edge15" class="edge">
<title>Node15&#45;&gt;Node16</title>
<path fill="none" stroke="midnightblue" d="M515.34,-247.44C539.14,-244.3 564.68,-240.94 587.72,-237.91"/>
<polygon fill="midnightblue" stroke="midnightblue" points="514.72,-243.99 505.26,-248.76 515.64,-250.93 514.72,-243.99"/>
</g>
<!-- Node17 -->
<g id="node17" class="node">
<title>Node17</title>
<g id="a_node17"><a xlink:href="structlemons_1_1plugin_1_1_meter_parameter.html" target="_top" xlink:title="A parameter that represents a general kind of meter, used for reporting things like level or gain red...">
<polygon fill="none" stroke="black" points="586.5,-301 586.5,-331 741.5,-331 741.5,-301 586.5,-301"/>
<text text-anchor="start" x="594.5" y="-319" font-family="Helvetica,sans-Serif" font-size="10.00">lemons::plugin::MeterParameter</text>
<text text-anchor="middle" x="664" y="-308" font-family="Helvetica,sans-Serif" font-size="10.00">&lt; ValueType &gt;</text>
</a>
</g>
</g>
<!-- Node15&#45;&gt;Node17 -->
<g id="edge17" class="edge">
<title>Node15&#45;&gt;Node17</title>
<path fill="none" stroke="midnightblue" d="M499.54,-276.44C531.92,-284.27 569.76,-293.43 600.88,-300.96"/>
<polygon fill="midnightblue" stroke="midnightblue" points="500.23,-273 489.68,-274.05 498.58,-279.8 500.23,-273"/>
</g>
<!-- Node18 -->
<g id="node18" class="node">
<title>Node18</title>
<g id="a_node18"><a xlink:href="structlemons_1_1plugin_1_1_midi_pan_parameter.html" target="_top" xlink:title="A parameter that represents a MIDI panning value in the range 0 to 127.">
<polygon fill="none" stroke="black" points="581,-262.5 581,-281.5 747,-281.5 747,-262.5 581,-262.5"/>
<text text-anchor="middle" x="664" y="-269.5" font-family="Helvetica,sans-Serif" font-size="10.00">lemons::plugin::MidiPanParameter</text>
</a>
</g>
</g>
<!-- Node15&#45;&gt;Node18 -->
<g id="edge19" class="edge">
<title>Node15&#45;&gt;Node18</title>
<path fill="none" stroke="midnightblue" d="M515.34,-263.85C536.8,-265.03 559.69,-266.3 580.87,-267.47"/>
<polygon fill="midnightblue" stroke="midnightblue" points="515.44,-260.35 505.26,-263.29 515.06,-267.34 515.44,-260.35"/>
</g>
<!-- Node19 -->
<g id="node19" class="node">
<title>Node19</title>
<g id="a_node19"><a xlink:href="structlemons_1_1plugin_1_1_midi_pitch_parameter.html" target="_top" xlink:title="A parameter that represents a MIDI pitch.">
<polygon fill="none" stroke="black" points="601,-164 601,-194 727,-194 727,-164 601,-164"/>
<text text-anchor="start" x="609" y="-182" font-family="Helvetica,sans-Serif" font-size="10.00">lemons::plugin::MidiPitch</text>
<text text-anchor="middle" x="664" y="-171" font-family="Helvetica,sans-Serif" font-size="10.00">Parameter</text>
</a>
</g>
</g>
<!-- Node15&#45;&gt;Node19 -->
<g id="edge20" class="edge">
<title>Node15&#45;&gt;Node19</title>
<path fill="none" stroke="midnightblue" d="M476.1,-240.35C506.15,-229.05 545.62,-214.62 581,-203 590.16,-199.99 599.96,-196.96 609.47,-194.12"/>
<polygon fill="midnightblue" stroke="midnightblue" points="474.81,-237.1 466.69,-243.9 477.28,-243.65 474.81,-237.1"/>
</g>
<!-- Node20 -->
<g id="node20" class="node">
<title>Node20</title>
<g id="a_node20"><a xlink:href="structlemons_1_1plugin_1_1_percent_parameter.html" target="_top" xlink:title="A parameter that represents an integer value in the range 0&#45;100.">
<polygon fill="none" stroke="black" points="582,-125.5 582,-144.5 746,-144.5 746,-125.5 582,-125.5"/>
<text text-anchor="middle" x="664" y="-132.5" font-family="Helvetica,sans-Serif" font-size="10.00">lemons::plugin::PercentParameter</text>
</a>
</g>
</g>
<!-- Node15&#45;&gt;Node20 -->
<g id="edge21" class="edge">
<title>Node15&#45;&gt;Node20</title>
<path fill="none" stroke="midnightblue" d="M453.07,-237.03C482.16,-213.14 532.03,-175.51 581,-154 589.7,-150.18 599.26,-147.08 608.7,-144.57"/>
<polygon fill="midnightblue" stroke="midnightblue" points="450.53,-234.59 445.08,-243.67 455,-239.97 450.53,-234.59"/>
</g>
<!-- Node21 -->
<g id="node21" class="node">
<title>Node21</title>
<g id="a_node21"><a xlink:href="structlemons_1_1plugin_1_1_semitones_parameter.html" target="_top" xlink:title="A parameter that represents a number of semitones, as an integer.">
<polygon fill="none" stroke="black" points="598,-350 598,-380 730,-380 730,-350 598,-350"/>
<text text-anchor="start" x="606" y="-368" font-family="Helvetica,sans-Serif" font-size="10.00">lemons::plugin::Semitones</text>
<text text-anchor="middle" x="664" y="-357" font-family="Helvetica,sans-Serif" font-size="10.00">Parameter</text>
</a>
</g>
</g>
<!-- Node15&#45;&gt;Node21 -->
<g id="edge22" class="edge">
<title>Node15&#45;&gt;Node21</title>
<path fill="none" stroke="midnightblue" d="M460.9,-279.44C491.36,-297.44 538.03,-323.45 581,-341 588.96,-344.25 597.53,-347.26 606.01,-349.97"/>
<polygon fill="midnightblue" stroke="midnightblue" points="462.38,-276.24 451.99,-274.13 458.79,-282.25 462.38,-276.24"/>
</g>
<!-- Node16&#45;&gt;Node7 -->
<g id="edge16" class="edge">
<title>Node16&#45;&gt;Node7</title>
<path fill="none" stroke="orange" stroke-dasharray="5,2" d="M750.12,-221.3C776.64,-219.22 805.68,-216.93 831.46,-214.9"/>
<polygon fill="orange" stroke="orange" points="749.78,-217.82 740.09,-222.09 750.33,-224.8 749.78,-217.82"/>
<text text-anchor="middle" x="785" y="-223" font-family="Helvetica,sans-Serif" font-size="10.00"> &lt; float &gt;</text>
</g>
<!-- Node17&#45;&gt;Node9 -->
<g id="edge18" class="edge">
<title>Node17&#45;&gt;Node9</title>
<path fill="none" stroke="orange" stroke-dasharray="5,2" d="M751.79,-302.34C777.34,-298.32 805.1,-293.96 829.96,-290.04"/>
<polygon fill="orange" stroke="orange" points="751.08,-298.91 741.74,-303.92 752.17,-305.83 751.08,-298.91"/>
<text text-anchor="middle" x="785" y="-302" font-family="Helvetica,sans-Serif" font-size="10.00"> &lt; float &gt;</text>
</g>
</g>
</svg>
