<?xml version="1.0" encoding="UTF-8" standalone="no"?>
<!DOCTYPE svg PUBLIC "-//W3C//DTD SVG 1.1//EN"
 "http://www.w3.org/Graphics/SVG/1.1/DTD/svg11.dtd">
<!-- Generated by graphviz version 2.49.1 (20210923.0004)
 -->
<!-- Title: lemons::gui::FloatSlider Pages: 1 -->
<svg width="308pt" height="162pt"
 viewBox="0.00 0.00 308.00 162.00" xmlns="http://www.w3.org/2000/svg" xmlns:xlink="http://www.w3.org/1999/xlink">
<g id="graph0" class="graph" transform="scale(1 1) rotate(0) translate(4 158)">
<title>lemons::gui::FloatSlider</title>
<!-- Node1 -->
<g id="node1" class="node">
<title>Node1</title>
<g id="a_node1"><a xlink:title="Plugin slider that attaches to a float parameter.">
<polygon fill="#bfbfbf" stroke="black" points="79.5,-0.5 79.5,-19.5 200.5,-19.5 200.5,-0.5 79.5,-0.5"/>
<text text-anchor="middle" x="140" y="-7.5" font-family="Helvetica,sans-Serif" font-size="10.00">lemons::gui::FloatSlider</text>
</a>
</g>
</g>
<!-- Node2 -->
<g id="node2" class="node">
<title>Node2</title>
<g id="a_node2"><a xlink:href="classlemons_1_1gui_1_1SliderBase.html" target="_top" xlink:title="Base class for plugin sliders that handles some logic common to both int and float parameter sliders.">
<polygon fill="none" stroke="black" points="0,-62 0,-81 122,-81 122,-62 0,-62"/>
<text text-anchor="middle" x="61" y="-69" font-family="Helvetica,sans-Serif" font-size="10.00">lemons::gui::SliderBase</text>
</a>
</g>
</g>
<!-- Node2&#45;&gt;Node1 -->
<g id="edge1" class="edge">
<title>Node2&#45;&gt;Node1</title>
<path fill="none" stroke="midnightblue" d="M80.53,-55.79C95.68,-44.38 116.16,-28.96 128.7,-19.51"/>
<polygon fill="midnightblue" stroke="midnightblue" points="78.2,-53.16 72.32,-61.98 82.41,-58.75 78.2,-53.16"/>
</g>
<!-- Node3 -->
<g id="node3" class="node">
<title>Node3</title>
<g id="a_node3"><a xlink:href="structlemons_1_1plugin_1_1TypedParameter_1_1Listener.html" target="_top" xlink:title="A class that will recieve updates when aspects of a TypedParameter change.">
<polygon fill="none" stroke="black" points="140,-56.5 140,-86.5 300,-86.5 300,-56.5 140,-56.5"/>
<text text-anchor="start" x="148" y="-74.5" font-family="Helvetica,sans-Serif" font-size="10.00">lemons::plugin::TypedParameter</text>
<text text-anchor="middle" x="220" y="-63.5" font-family="Helvetica,sans-Serif" font-size="10.00">&lt; ValueType &gt;::Listener</text>
</a>
</g>
</g>
<!-- Node3&#45;&gt;Node1 -->
<g id="edge2" class="edge">
<title>Node3&#45;&gt;Node1</title>
<path fill="none" stroke="#8b1a1a" d="M192.69,-50.19C178.68,-39.77 162.36,-27.63 151.64,-19.66"/>
<polygon fill="#8b1a1a" stroke="#8b1a1a" points="190.93,-53.24 201.04,-56.4 195.11,-47.62 190.93,-53.24"/>
</g>
<!-- Node4 -->
<g id="node4" class="node">
<title>Node4</title>
<g id="a_node4"><a xlink:href="structlemons_1_1plugin_1_1Parameter_1_1Listener.html" target="_top" xlink:title="A Listener class that will be notified when aspects of a Parameter change.">
<polygon fill="none" stroke="black" points="153.5,-123.5 153.5,-153.5 286.5,-153.5 286.5,-123.5 153.5,-123.5"/>
<text text-anchor="start" x="161.5" y="-141.5" font-family="Helvetica,sans-Serif" font-size="10.00">lemons::plugin::Parameter</text>
<text text-anchor="middle" x="220" y="-130.5" font-family="Helvetica,sans-Serif" font-size="10.00">::Listener</text>
</a>
</g>
</g>
<!-- Node4&#45;&gt;Node3 -->
<g id="edge3" class="edge">
<title>Node4&#45;&gt;Node3</title>
<path fill="none" stroke="midnightblue" d="M220,-113.11C220,-104.15 220,-94.32 220,-86.58"/>
<polygon fill="midnightblue" stroke="midnightblue" points="216.5,-113.4 220,-123.4 223.5,-113.4 216.5,-113.4"/>
</g>
</g>
</svg>
