<?xml version="1.0" encoding="UTF-8" standalone="no"?>
<!DOCTYPE svg PUBLIC "-//W3C//DTD SVG 1.1//EN"
 "http://www.w3.org/Graphics/SVG/1.1/DTD/svg11.dtd">
<!-- Generated by graphviz version 2.49.1 (20210923.0004)
 -->
<!-- Title: lemons::dsp::FX::PannerBase Pages: 1 -->
<svg width="352pt" height="88pt"
 viewBox="0.00 0.00 352.00 88.00" xmlns="http://www.w3.org/2000/svg" xmlns:xlink="http://www.w3.org/1999/xlink">
<g id="graph0" class="graph" transform="scale(1 1) rotate(0) translate(4 84)">
<title>lemons::dsp::FX::PannerBase</title>
<!-- Node1 -->
<g id="node1" class="node">
<title>Node1</title>
<g id="a_node1"><a xlink:title=" ">
<polygon fill="#bfbfbf" stroke="black" points="0,-30 0,-49 149,-49 149,-30 0,-30"/>
<text text-anchor="middle" x="74.5" y="-37" font-family="Helvetica,sans-Serif" font-size="10.00">lemons::dsp::FX::PannerBase</text>
</a>
</g>
</g>
<!-- Node2 -->
<g id="node2" class="node">
<title>Node2</title>
<g id="a_node2"><a xlink:href="classlemons_1_1dsp_1_1FX_1_1MonoToStereoPanner.html" target="_top" xlink:title=" ">
<polygon fill="none" stroke="black" points="185,-49.5 185,-79.5 344,-79.5 344,-49.5 185,-49.5"/>
<text text-anchor="start" x="193" y="-67.5" font-family="Helvetica,sans-Serif" font-size="10.00">lemons::dsp::FX::MonoToStereo</text>
<text text-anchor="middle" x="264.5" y="-56.5" font-family="Helvetica,sans-Serif" font-size="10.00">Panner&lt; SampleType &gt;</text>
</a>
</g>
</g>
<!-- Node1&#45;&gt;Node2 -->
<g id="edge1" class="edge">
<title>Node1&#45;&gt;Node2</title>
<path fill="none" stroke="midnightblue" d="M157.05,-50.34C166.28,-51.57 175.68,-52.82 184.88,-54.04"/>
<polygon fill="midnightblue" stroke="midnightblue" points="157.49,-46.87 147.11,-49.02 156.56,-53.81 157.49,-46.87"/>
</g>
<!-- Node3 -->
<g id="node3" class="node">
<title>Node3</title>
<g id="a_node3"><a xlink:href="classlemons_1_1dsp_1_1FX_1_1StereoPanner.html" target="_top" xlink:title=" ">
<polygon fill="none" stroke="black" points="186.5,-0.5 186.5,-30.5 342.5,-30.5 342.5,-0.5 186.5,-0.5"/>
<text text-anchor="start" x="194.5" y="-18.5" font-family="Helvetica,sans-Serif" font-size="10.00">lemons::dsp::FX::StereoPanner</text>
<text text-anchor="middle" x="264.5" y="-7.5" font-family="Helvetica,sans-Serif" font-size="10.00">&lt; SampleType &gt;</text>
</a>
</g>
</g>
<!-- Node1&#45;&gt;Node3 -->
<g id="edge2" class="edge">
<title>Node1&#45;&gt;Node3</title>
<path fill="none" stroke="midnightblue" d="M159.31,-28.8C168.27,-27.66 177.35,-26.5 186.23,-25.36"/>
<polygon fill="midnightblue" stroke="midnightblue" points="158.74,-25.35 149.26,-30.08 159.63,-32.29 158.74,-25.35"/>
</g>
</g>
</svg>
