<?xml version="1.0" encoding="UTF-8" standalone="no"?>
<!DOCTYPE svg PUBLIC "-//W3C//DTD SVG 1.1//EN"
 "http://www.w3.org/Graphics/SVG/1.1/DTD/svg11.dtd">
<!-- Generated by graphviz version 2.43.0 (0)
 -->
<!-- Title: lemons::gui::FloatSlider Pages: 1 -->
<svg width="330pt" height="162pt"
 viewBox="0.00 0.00 330.00 162.00" xmlns="http://www.w3.org/2000/svg" xmlns:xlink="http://www.w3.org/1999/xlink">
<g id="graph0" class="graph" transform="scale(1 1) rotate(0) translate(4 158)">
<title>lemons::gui::FloatSlider</title>
<!-- Node1 -->
<g id="node1" class="node">
<title>Node1</title>
<g id="a_node1"><a xlink:title=" ">
<polygon fill="#bfbfbf" stroke="black" points="84.5,-0.5 84.5,-19.5 216.5,-19.5 216.5,-0.5 84.5,-0.5"/>
<text text-anchor="middle" x="150.5" y="-7.5" font-family="Helvetica,sans-Serif" font-size="10.00">lemons::gui::FloatSlider</text>
</a>
</g>
</g>
<!-- Node2 -->
<g id="node2" class="node">
<title>Node2</title>
<g id="a_node2"><a xlink:href="classlemons_1_1gui_1_1SliderBase.html" target="_top" xlink:title=" ">
<polygon fill="none" stroke="black" points="0,-62 0,-81 131,-81 131,-62 0,-62"/>
<text text-anchor="middle" x="65.5" y="-69" font-family="Helvetica,sans-Serif" font-size="10.00">lemons::gui::SliderBase</text>
</a>
</g>
</g>
<!-- Node2&#45;&gt;Node1 -->
<g id="edge1" class="edge">
<title>Node2&#45;&gt;Node1</title>
<path fill="none" stroke="midnightblue" d="M86.05,-56.11C102.4,-44.67 124.72,-29.05 138.34,-19.51"/>
<polygon fill="midnightblue" stroke="midnightblue" points="83.86,-53.37 77.68,-61.98 87.88,-59.11 83.86,-53.37"/>
</g>
<!-- Node3 -->
<g id="node3" class="node">
<title>Node3</title>
<g id="a_node3"><a xlink:href="structlemons_1_1plugin_1_1TypedParameter_1_1Listener.html" target="_top" xlink:title=" ">
<polygon fill="none" stroke="black" points="149,-56.5 149,-86.5 322,-86.5 322,-56.5 149,-56.5"/>
<text text-anchor="start" x="157" y="-74.5" font-family="Helvetica,sans-Serif" font-size="10.00">lemons::plugin::TypedParameter</text>
<text text-anchor="middle" x="235.5" y="-63.5" font-family="Helvetica,sans-Serif" font-size="10.00">&lt; ValueType &gt;::Listener</text>
</a>
</g>
</g>
<!-- Node3&#45;&gt;Node1 -->
<g id="edge2" class="edge">
<title>Node3&#45;&gt;Node1</title>
<path fill="none" stroke="#8b1a1a" d="M206.9,-50.48C191.93,-40 174.37,-27.71 162.87,-19.66"/>
<polygon fill="#8b1a1a" stroke="#8b1a1a" points="205.16,-53.53 215.36,-56.4 209.17,-47.8 205.16,-53.53"/>
</g>
<!-- Node4 -->
<g id="node4" class="node">
<title>Node4</title>
<g id="a_node4"><a xlink:href="structlemons_1_1plugin_1_1Parameter_1_1Listener.html" target="_top" xlink:title=" ">
<polygon fill="none" stroke="black" points="163,-123.5 163,-153.5 308,-153.5 308,-123.5 163,-123.5"/>
<text text-anchor="start" x="171" y="-141.5" font-family="Helvetica,sans-Serif" font-size="10.00">lemons::plugin::Parameter</text>
<text text-anchor="middle" x="235.5" y="-130.5" font-family="Helvetica,sans-Serif" font-size="10.00">::Listener</text>
</a>
</g>
</g>
<!-- Node4&#45;&gt;Node3 -->
<g id="edge3" class="edge">
<title>Node4&#45;&gt;Node3</title>
<path fill="none" stroke="midnightblue" d="M235.5,-113.11C235.5,-104.15 235.5,-94.32 235.5,-86.58"/>
<polygon fill="midnightblue" stroke="midnightblue" points="232,-113.4 235.5,-123.4 239,-113.4 232,-113.4"/>
</g>
</g>
</svg>
