<?xml version="1.0" encoding="UTF-8" standalone="no"?>
<!DOCTYPE svg PUBLIC "-//W3C//DTD SVG 1.1//EN"
 "http://www.w3.org/Graphics/SVG/1.1/DTD/svg11.dtd">
<!-- Generated by graphviz version 2.43.0 (0)
 -->
<!-- Title: lemons::plugin::Parameter Pages: 1 -->
<svg width="1297pt" height="474pt"
 viewBox="0.00 0.00 1297.00 474.00" xmlns="http://www.w3.org/2000/svg" xmlns:xlink="http://www.w3.org/1999/xlink">
<g id="graph0" class="graph" transform="scale(1 1) rotate(0) translate(4 470)">
<title>lemons::plugin::Parameter</title>
<!-- Node1 -->
<g id="node1" class="node">
<title>Node1</title>
<g id="a_node1"><a xlink:title=" ">
<polygon fill="#bfbfbf" stroke="black" points="195,-210 195,-229 340,-229 340,-210 195,-210"/>
<text text-anchor="middle" x="267.5" y="-217" font-family="Helvetica,sans-Serif" font-size="10.00">lemons::plugin::Parameter</text>
</a>
</g>
</g>
<!-- Node3 -->
<g id="node3" class="node">
<title>Node3</title>
<g id="a_node3"><a xlink:href="classlemons_1_1plugin_1_1_typed_parameter.html" target="_top" xlink:title=" ">
<polygon fill="none" stroke="black" points="377,-204.5 377,-234.5 550,-234.5 550,-204.5 377,-204.5"/>
<text text-anchor="start" x="385" y="-222.5" font-family="Helvetica,sans-Serif" font-size="10.00">lemons::plugin::TypedParameter</text>
<text text-anchor="middle" x="463.5" y="-211.5" font-family="Helvetica,sans-Serif" font-size="10.00">&lt; ValueType &gt;</text>
</a>
</g>
</g>
<!-- Node1&#45;&gt;Node3 -->
<g id="edge2" class="edge">
<title>Node1&#45;&gt;Node3</title>
<path fill="none" stroke="midnightblue" d="M350.41,-219.5C359.2,-219.5 368.16,-219.5 376.99,-219.5"/>
<polygon fill="midnightblue" stroke="midnightblue" points="350.19,-216 340.19,-219.5 350.19,-223 350.19,-216"/>
</g>
<!-- Node16 -->
<g id="node16" class="node">
<title>Node16</title>
<g id="a_node16"><a xlink:href="classlemons_1_1plugin_1_1_typed_parameter.html" target="_top" xlink:title=" ">
<polygon fill="none" stroke="black" points="640,-382.5 640,-412.5 813,-412.5 813,-382.5 640,-382.5"/>
<text text-anchor="start" x="648" y="-400.5" font-family="Helvetica,sans-Serif" font-size="10.00">lemons::plugin::TypedParameter</text>
<text text-anchor="middle" x="726.5" y="-389.5" font-family="Helvetica,sans-Serif" font-size="10.00">&lt; float &gt;</text>
</a>
</g>
</g>
<!-- Node1&#45;&gt;Node16 -->
<g id="edge24" class="edge">
<title>Node1&#45;&gt;Node16</title>
<path fill="none" stroke="midnightblue" d="M292.84,-234.39C342.63,-264.21 460.55,-331.46 568,-367.5 590.83,-375.16 616.21,-381.06 639.82,-385.53"/>
<polygon fill="midnightblue" stroke="midnightblue" points="294.45,-231.28 284.08,-229.11 290.83,-237.27 294.45,-231.28"/>
</g>
<!-- Node19 -->
<g id="node19" class="node">
<title>Node19</title>
<g id="a_node19"><a xlink:href="classlemons_1_1plugin_1_1_typed_parameter.html" target="_top" xlink:title=" ">
<polygon fill="none" stroke="black" points="640,-0.5 640,-30.5 813,-30.5 813,-0.5 640,-0.5"/>
<text text-anchor="start" x="648" y="-18.5" font-family="Helvetica,sans-Serif" font-size="10.00">lemons::plugin::TypedParameter</text>
<text text-anchor="middle" x="726.5" y="-7.5" font-family="Helvetica,sans-Serif" font-size="10.00">&lt; bool &gt;</text>
</a>
</g>
</g>
<!-- Node1&#45;&gt;Node19 -->
<g id="edge23" class="edge">
<title>Node1&#45;&gt;Node19</title>
<path fill="none" stroke="midnightblue" d="M290.08,-203.97C337.78,-170.41 456.77,-90.71 568,-48.5 590.72,-39.88 616.19,-33.3 639.92,-28.38"/>
<polygon fill="midnightblue" stroke="midnightblue" points="287.9,-201.23 281.77,-209.87 291.95,-206.94 287.9,-201.23"/>
</g>
<!-- Node2 -->
<g id="node2" class="node">
<title>Node2</title>
<g id="a_node2"><a xlink:title=" ">
<polygon fill="none" stroke="#bfbfbf" points="0,-210 0,-229 158,-229 158,-210 0,-210"/>
<text text-anchor="middle" x="79" y="-217" font-family="Helvetica,sans-Serif" font-size="10.00">juce::RangedAudioParameter</text>
</a>
</g>
</g>
<!-- Node2&#45;&gt;Node1 -->
<g id="edge1" class="edge">
<title>Node2&#45;&gt;Node1</title>
<path fill="none" stroke="midnightblue" d="M168.06,-219.5C177.01,-219.5 186.01,-219.5 194.75,-219.5"/>
<polygon fill="midnightblue" stroke="midnightblue" points="168.01,-216 158.01,-219.5 168.01,-223 168.01,-216"/>
</g>
<!-- Node4 -->
<g id="node4" class="node">
<title>Node4</title>
<g id="a_node4"><a xlink:href="structlemons_1_1plugin_1_1_frequency_parameter.html" target="_top" xlink:title=" ">
<polygon fill="none" stroke="black" points="654,-333.5 654,-363.5 799,-363.5 799,-333.5 654,-333.5"/>
<text text-anchor="start" x="662" y="-351.5" font-family="Helvetica,sans-Serif" font-size="10.00">lemons::plugin::Frequency</text>
<text text-anchor="middle" x="726.5" y="-340.5" font-family="Helvetica,sans-Serif" font-size="10.00">Parameter</text>
</a>
</g>
</g>
<!-- Node3&#45;&gt;Node4 -->
<g id="edge3" class="edge">
<title>Node3&#45;&gt;Node4</title>
<path fill="none" stroke="midnightblue" d="M492.41,-240.45C524.89,-263.93 580.86,-301.68 634,-324.5 641.85,-327.87 650.28,-330.86 658.74,-333.49"/>
<polygon fill="midnightblue" stroke="midnightblue" points="494.43,-237.59 484.29,-234.52 490.3,-243.24 494.43,-237.59"/>
</g>
<!-- Node5 -->
<g id="node5" class="node">
<title>Node5</title>
<g id="a_node5"><a xlink:href="classlemons_1_1plugin_1_1_meta_parameter.html" target="_top" xlink:title=" ">
<polygon fill="none" stroke="black" points="641.5,-235.5 641.5,-265.5 811.5,-265.5 811.5,-235.5 641.5,-235.5"/>
<text text-anchor="start" x="649.5" y="-253.5" font-family="Helvetica,sans-Serif" font-size="10.00">lemons::plugin::MetaParameter</text>
<text text-anchor="middle" x="726.5" y="-242.5" font-family="Helvetica,sans-Serif" font-size="10.00">&lt; ValueType &gt;</text>
</a>
</g>
</g>
<!-- Node3&#45;&gt;Node5 -->
<g id="edge4" class="edge">
<title>Node3&#45;&gt;Node5</title>
<path fill="none" stroke="midnightblue" d="M560.39,-230.89C586.95,-234.04 615.57,-237.44 641.4,-240.51"/>
<polygon fill="midnightblue" stroke="midnightblue" points="560.67,-227.4 550.32,-229.69 559.84,-234.35 560.67,-227.4"/>
</g>
<!-- Node8 -->
<g id="node8" class="node">
<title>Node8</title>
<g id="a_node8"><a xlink:href="structlemons_1_1plugin_1_1_meter_parameter.html" target="_top" xlink:title=" ">
<polygon fill="none" stroke="black" points="640,-435.5 640,-465.5 813,-465.5 813,-435.5 640,-435.5"/>
<text text-anchor="start" x="648" y="-453.5" font-family="Helvetica,sans-Serif" font-size="10.00">lemons::plugin::MeterParameter</text>
<text text-anchor="middle" x="726.5" y="-442.5" font-family="Helvetica,sans-Serif" font-size="10.00">&lt; ValueType &gt;</text>
</a>
</g>
</g>
<!-- Node3&#45;&gt;Node8 -->
<g id="edge7" class="edge">
<title>Node3&#45;&gt;Node8</title>
<path fill="none" stroke="midnightblue" d="M476.94,-243.75C500.82,-287.59 557.58,-379.43 634,-422.5 642.97,-427.56 652.97,-431.81 662.96,-435.34"/>
<polygon fill="midnightblue" stroke="midnightblue" points="479.89,-241.85 472.09,-234.67 473.71,-245.14 479.89,-241.85"/>
</g>
<!-- Node11 -->
<g id="node11" class="node">
<title>Node11</title>
<g id="a_node11"><a xlink:href="structlemons_1_1plugin_1_1_midi_pan_parameter.html" target="_top" xlink:title=" ">
<polygon fill="none" stroke="black" points="635,-284.5 635,-314.5 818,-314.5 818,-284.5 635,-284.5"/>
<text text-anchor="start" x="643" y="-302.5" font-family="Helvetica,sans-Serif" font-size="10.00">lemons::plugin::MidiPanParameter</text>
<text text-anchor="middle" x="726.5" y="-291.5" font-family="Helvetica,sans-Serif" font-size="10.00">&lt; int &gt;</text>
</a>
</g>
</g>
<!-- Node3&#45;&gt;Node11 -->
<g id="edge10" class="edge">
<title>Node3&#45;&gt;Node11</title>
<path fill="none" stroke="midnightblue" d="M518.45,-237.72C551.65,-248.76 595.15,-262.9 634,-274.5 645.2,-277.85 657.23,-281.26 668.76,-284.44"/>
<polygon fill="midnightblue" stroke="midnightblue" points="519.52,-234.39 508.93,-234.55 517.31,-241.03 519.52,-234.39"/>
</g>
<!-- Node12 -->
<g id="node12" class="node">
<title>Node12</title>
<g id="a_node12"><a xlink:href="structlemons_1_1plugin_1_1_midi_pitch_parameter.html" target="_top" xlink:title=" ">
<polygon fill="none" stroke="black" points="656.5,-186.5 656.5,-216.5 796.5,-216.5 796.5,-186.5 656.5,-186.5"/>
<text text-anchor="start" x="664.5" y="-204.5" font-family="Helvetica,sans-Serif" font-size="10.00">lemons::plugin::MidiPitch</text>
<text text-anchor="middle" x="726.5" y="-193.5" font-family="Helvetica,sans-Serif" font-size="10.00">Parameter</text>
</a>
</g>
</g>
<!-- Node3&#45;&gt;Node12 -->
<g id="edge11" class="edge">
<title>Node3&#45;&gt;Node12</title>
<path fill="none" stroke="midnightblue" d="M560.5,-212.88C592.2,-210.69 626.83,-208.31 656.14,-206.28"/>
<polygon fill="midnightblue" stroke="midnightblue" points="560.06,-209.4 550.32,-213.58 560.54,-216.38 560.06,-209.4"/>
</g>
<!-- Node13 -->
<g id="node13" class="node">
<title>Node13</title>
<g id="a_node13"><a xlink:href="structlemons_1_1plugin_1_1_percent_parameter.html" target="_top" xlink:title=" ">
<polygon fill="none" stroke="black" points="635.5,-137.5 635.5,-167.5 817.5,-167.5 817.5,-137.5 635.5,-137.5"/>
<text text-anchor="start" x="643.5" y="-155.5" font-family="Helvetica,sans-Serif" font-size="10.00">lemons::plugin::PercentParameter</text>
<text text-anchor="middle" x="726.5" y="-144.5" font-family="Helvetica,sans-Serif" font-size="10.00">&lt; int &gt;</text>
</a>
</g>
</g>
<!-- Node3&#45;&gt;Node13 -->
<g id="edge12" class="edge">
<title>Node3&#45;&gt;Node13</title>
<path fill="none" stroke="midnightblue" d="M532.85,-201.95C574.42,-191.28 626.96,-177.8 666.67,-167.6"/>
<polygon fill="midnightblue" stroke="midnightblue" points="531.89,-198.59 523.07,-204.46 533.63,-205.37 531.89,-198.59"/>
</g>
<!-- Node14 -->
<g id="node14" class="node">
<title>Node14</title>
<g id="a_node14"><a xlink:href="structlemons_1_1plugin_1_1_seconds_parameter.html" target="_top" xlink:title=" ">
<polygon fill="none" stroke="black" points="634,-99 634,-118 819,-118 819,-99 634,-99"/>
<text text-anchor="middle" x="726.5" y="-106" font-family="Helvetica,sans-Serif" font-size="10.00">lemons::plugin::SecondsParameter</text>
</a>
</g>
</g>
<!-- Node3&#45;&gt;Node14 -->
<g id="edge13" class="edge">
<title>Node3&#45;&gt;Node14</title>
<path fill="none" stroke="midnightblue" d="M495.8,-198.86C528.86,-177.96 583.13,-146.13 634,-127.5 644.36,-123.71 655.67,-120.59 666.7,-118.05"/>
<polygon fill="midnightblue" stroke="midnightblue" points="493.6,-196.11 487.06,-204.45 497.37,-202.01 493.6,-196.11"/>
</g>
<!-- Node15 -->
<g id="node15" class="node">
<title>Node15</title>
<g id="a_node15"><a xlink:href="structlemons_1_1plugin_1_1_semitones_parameter.html" target="_top" xlink:title=" ">
<polygon fill="none" stroke="black" points="653.5,-49.5 653.5,-79.5 799.5,-79.5 799.5,-49.5 653.5,-49.5"/>
<text text-anchor="start" x="661.5" y="-67.5" font-family="Helvetica,sans-Serif" font-size="10.00">lemons::plugin::Semitones</text>
<text text-anchor="middle" x="726.5" y="-56.5" font-family="Helvetica,sans-Serif" font-size="10.00">Parameter</text>
</a>
</g>
</g>
<!-- Node3&#45;&gt;Node15 -->
<g id="edge14" class="edge">
<title>Node3&#45;&gt;Node15</title>
<path fill="none" stroke="midnightblue" d="M486.67,-196.75C517.02,-167.07 574.54,-115.82 634,-89.5 642.43,-85.77 651.55,-82.47 660.66,-79.6"/>
<polygon fill="midnightblue" stroke="midnightblue" points="483.84,-194.63 479.21,-204.16 488.77,-199.6 483.84,-194.63"/>
</g>
<!-- Node3&#45;&gt;Node16 -->
<g id="edge15" class="edge">
<title>Node3&#45;&gt;Node16</title>
<path fill="none" stroke="orange" stroke-dasharray="5,2" d="M486.63,-242.05C507.09,-262.5 538.65,-293.08 568,-317.5 588.29,-334.39 596.61,-334.58 616,-352.5 625.03,-360.84 623.58,-366.98 634,-373.5 639.43,-376.9 645.33,-379.82 651.43,-382.33"/>
<polygon fill="orange" stroke="orange" points="488.9,-239.37 479.37,-234.75 483.94,-244.3 488.9,-239.37"/>
<text text-anchor="middle" x="592" y="-355.5" font-family="Helvetica,sans-Serif" font-size="10.00"> &lt; float &gt;</text>
</g>
<!-- Node3&#45;&gt;Node19 -->
<g id="edge20" class="edge">
<title>Node3&#45;&gt;Node19</title>
<path fill="none" stroke="orange" stroke-dasharray="5,2" d="M478.38,-195.52C503.47,-154.83 560.61,-73.39 634,-39.5 641.31,-36.13 649.17,-33.16 657.1,-30.58"/>
<polygon fill="orange" stroke="orange" points="475.29,-193.88 473.11,-204.25 481.28,-197.5 475.29,-193.88"/>
<text text-anchor="middle" x="592" y="-83.5" font-family="Helvetica,sans-Serif" font-size="10.00"> &lt; bool &gt;</text>
</g>
<!-- Node6 -->
<g id="node6" class="node">
<title>Node6</title>
<g id="a_node6"><a xlink:href="classlemons_1_1plugin_1_1_meta_parameter.html" target="_top" xlink:title=" ">
<polygon fill="none" stroke="black" points="904.5,-267.5 904.5,-297.5 1074.5,-297.5 1074.5,-267.5 904.5,-267.5"/>
<text text-anchor="start" x="912.5" y="-285.5" font-family="Helvetica,sans-Serif" font-size="10.00">lemons::plugin::MetaParameter</text>
<text text-anchor="middle" x="989.5" y="-274.5" font-family="Helvetica,sans-Serif" font-size="10.00">&lt; float &gt;</text>
</a>
</g>
</g>
<!-- Node5&#45;&gt;Node6 -->
<g id="edge5" class="edge">
<title>Node5&#45;&gt;Node6</title>
<path fill="none" stroke="orange" stroke-dasharray="5,2" d="M821.73,-262.05C848.68,-265.36 877.87,-268.94 904.19,-272.16"/>
<polygon fill="orange" stroke="orange" points="821.87,-258.54 811.52,-260.8 821.02,-265.49 821.87,-258.54"/>
<text text-anchor="middle" x="861" y="-271.5" font-family="Helvetica,sans-Serif" font-size="10.00"> &lt; float &gt;</text>
</g>
<!-- Node7 -->
<g id="node7" class="node">
<title>Node7</title>
<g id="a_node7"><a xlink:href="structlemons_1_1plugin_1_1_l_f_o.html" target="_top" xlink:title=" ">
<polygon fill="none" stroke="black" points="1144.5,-273 1144.5,-292 1257.5,-292 1257.5,-273 1144.5,-273"/>
<text text-anchor="middle" x="1201" y="-280" font-family="Helvetica,sans-Serif" font-size="10.00">lemons::plugin::LFO</text>
</a>
</g>
</g>
<!-- Node6&#45;&gt;Node7 -->
<g id="edge6" class="edge">
<title>Node6&#45;&gt;Node7</title>
<path fill="none" stroke="midnightblue" d="M1084.75,-282.5C1105.08,-282.5 1125.94,-282.5 1144.23,-282.5"/>
<polygon fill="midnightblue" stroke="midnightblue" points="1084.5,-279 1074.5,-282.5 1084.5,-286 1084.5,-279"/>
</g>
<!-- Node9 -->
<g id="node9" class="node">
<title>Node9</title>
<g id="a_node9"><a xlink:href="structlemons_1_1plugin_1_1_meter_parameter.html" target="_top" xlink:title=" ">
<polygon fill="none" stroke="black" points="903,-430.5 903,-460.5 1076,-460.5 1076,-430.5 903,-430.5"/>
<text text-anchor="start" x="911" y="-448.5" font-family="Helvetica,sans-Serif" font-size="10.00">lemons::plugin::MeterParameter</text>
<text text-anchor="middle" x="989.5" y="-437.5" font-family="Helvetica,sans-Serif" font-size="10.00">&lt; float &gt;</text>
</a>
</g>
</g>
<!-- Node8&#45;&gt;Node9 -->
<g id="edge8" class="edge">
<title>Node8&#45;&gt;Node9</title>
<path fill="none" stroke="orange" stroke-dasharray="5,2" d="M823.53,-448.66C849.44,-448.16 877.31,-447.63 902.63,-447.15"/>
<polygon fill="orange" stroke="orange" points="823.25,-445.16 813.32,-448.86 823.39,-452.16 823.25,-445.16"/>
<text text-anchor="middle" x="861" y="-450.5" font-family="Helvetica,sans-Serif" font-size="10.00"> &lt; float &gt;</text>
</g>
<!-- Node10 -->
<g id="node10" class="node">
<title>Node10</title>
<g id="a_node10"><a xlink:href="structlemons_1_1plugin_1_1_gain_meter_parameter.html" target="_top" xlink:title=" ">
<polygon fill="none" stroke="black" points="1128,-430.5 1128,-460.5 1274,-460.5 1274,-430.5 1128,-430.5"/>
<text text-anchor="start" x="1136" y="-448.5" font-family="Helvetica,sans-Serif" font-size="10.00">lemons::plugin::GainMeter</text>
<text text-anchor="middle" x="1201" y="-437.5" font-family="Helvetica,sans-Serif" font-size="10.00">Parameter</text>
</a>
</g>
</g>
<!-- Node9&#45;&gt;Node10 -->
<g id="edge9" class="edge">
<title>Node9&#45;&gt;Node10</title>
<path fill="none" stroke="midnightblue" d="M1086.16,-445.5C1100.16,-445.5 1114.39,-445.5 1127.81,-445.5"/>
<polygon fill="midnightblue" stroke="midnightblue" points="1086.01,-442 1076.01,-445.5 1086.01,-449 1086.01,-442"/>
</g>
<!-- Node16&#45;&gt;Node6 -->
<g id="edge18" class="edge">
<title>Node16&#45;&gt;Node6</title>
<path fill="none" stroke="midnightblue" d="M803.03,-379.33C808.48,-377.52 813.86,-375.57 819,-373.5 838.84,-365.5 884.15,-336.62 903,-326.5 921.39,-316.63 942.2,-305.91 958.69,-297.52"/>
<polygon fill="midnightblue" stroke="midnightblue" points="801.62,-376.1 793.14,-382.45 803.73,-382.78 801.62,-376.1"/>
</g>
<!-- Node16&#45;&gt;Node9 -->
<g id="edge19" class="edge">
<title>Node16&#45;&gt;Node9</title>
<path fill="none" stroke="midnightblue" d="M819.34,-414.39C847.88,-419.64 879.13,-425.39 906.92,-430.5"/>
<polygon fill="midnightblue" stroke="midnightblue" points="819.83,-410.92 809.37,-412.56 818.57,-417.81 819.83,-410.92"/>
</g>
<!-- Node17 -->
<g id="node17" class="node">
<title>Node17</title>
<g id="a_node17"><a xlink:href="structlemons_1_1plugin_1_1_float_amount_parameter.html" target="_top" xlink:title=" ">
<polygon fill="none" stroke="black" points="910.5,-335.5 910.5,-365.5 1068.5,-365.5 1068.5,-335.5 910.5,-335.5"/>
<text text-anchor="start" x="918.5" y="-353.5" font-family="Helvetica,sans-Serif" font-size="10.00">lemons::plugin::FloatAmount</text>
<text text-anchor="middle" x="989.5" y="-342.5" font-family="Helvetica,sans-Serif" font-size="10.00">Parameter</text>
</a>
</g>
</g>
<!-- Node16&#45;&gt;Node17 -->
<g id="edge16" class="edge">
<title>Node16&#45;&gt;Node17</title>
<path fill="none" stroke="midnightblue" d="M820.65,-380.73C850.05,-375.43 882.2,-369.64 910.43,-364.56"/>
<polygon fill="midnightblue" stroke="midnightblue" points="820.02,-377.28 810.8,-382.5 821.26,-384.17 820.02,-377.28"/>
</g>
<!-- Node18 -->
<g id="node18" class="node">
<title>Node18</title>
<g id="a_node18"><a xlink:href="structlemons_1_1plugin_1_1_gain_parameter.html" target="_top" xlink:title=" ">
<polygon fill="none" stroke="black" points="906,-385 906,-404 1073,-404 1073,-385 906,-385"/>
<text text-anchor="middle" x="989.5" y="-392" font-family="Helvetica,sans-Serif" font-size="10.00">lemons::plugin::GainParameter</text>
</a>
</g>
</g>
<!-- Node16&#45;&gt;Node18 -->
<g id="edge17" class="edge">
<title>Node16&#45;&gt;Node18</title>
<path fill="none" stroke="midnightblue" d="M823.55,-396.4C850.52,-396.09 879.61,-395.75 905.73,-395.45"/>
<polygon fill="midnightblue" stroke="midnightblue" points="823.28,-392.9 813.32,-396.51 823.36,-399.9 823.28,-392.9"/>
</g>
<!-- Node20 -->
<g id="node20" class="node">
<title>Node20</title>
<g id="a_node20"><a xlink:href="structlemons_1_1plugin_1_1_bool_parameter.html" target="_top" xlink:title=" ">
<polygon fill="none" stroke="black" points="906,-6 906,-25 1073,-25 1073,-6 906,-6"/>
<text text-anchor="middle" x="989.5" y="-13" font-family="Helvetica,sans-Serif" font-size="10.00">lemons::plugin::BoolParameter</text>
</a>
</g>
</g>
<!-- Node19&#45;&gt;Node20 -->
<g id="edge21" class="edge">
<title>Node19&#45;&gt;Node20</title>
<path fill="none" stroke="midnightblue" d="M823.55,-15.5C850.52,-15.5 879.61,-15.5 905.73,-15.5"/>
<polygon fill="midnightblue" stroke="midnightblue" points="823.32,-12 813.32,-15.5 823.32,-19 823.32,-12"/>
</g>
<!-- Node21 -->
<g id="node21" class="node">
<title>Node21</title>
<g id="a_node21"><a xlink:href="structlemons_1_1plugin_1_1_toggle_parameter.html" target="_top" xlink:title=" ">
<polygon fill="none" stroke="black" points="1113,-6 1113,-25 1289,-25 1289,-6 1113,-6"/>
<text text-anchor="middle" x="1201" y="-13" font-family="Helvetica,sans-Serif" font-size="10.00">lemons::plugin::ToggleParameter</text>
</a>
</g>
</g>
<!-- Node20&#45;&gt;Node21 -->
<g id="edge22" class="edge">
<title>Node20&#45;&gt;Node21</title>
<path fill="none" stroke="midnightblue" d="M1083.46,-15.5C1093.28,-15.5 1103.24,-15.5 1112.98,-15.5"/>
<polygon fill="midnightblue" stroke="midnightblue" points="1083.3,-12 1073.3,-15.5 1083.3,-19 1083.3,-12"/>
</g>
</g>
</svg>
