<?xml version="1.0" encoding="UTF-8" standalone="no"?>
<!DOCTYPE svg PUBLIC "-//W3C//DTD SVG 1.1//EN"
 "http://www.w3.org/Graphics/SVG/1.1/DTD/svg11.dtd">
<!-- Generated by graphviz version 2.43.0 (0)
 -->
<!-- Title: lemons::dsp::SynthBase&lt; SampleType &gt; Pages: 1 -->
<svg width="524pt" height="149pt"
 viewBox="0.00 0.00 524.00 148.50" xmlns="http://www.w3.org/2000/svg" xmlns:xlink="http://www.w3.org/1999/xlink">
<g id="graph0" class="graph" transform="scale(1 1) rotate(0) translate(4 144.5)">
<title>lemons::dsp::SynthBase&lt; SampleType &gt;</title>
<!-- Node1 -->
<g id="node1" class="node">
<title>Node1</title>
<g id="a_node1"><a xlink:title=" ">
<polygon fill="#bfbfbf" stroke="black" points="0,-61 0,-91 134,-91 134,-61 0,-61"/>
<text text-anchor="start" x="8" y="-79" font-family="Helvetica,sans-Serif" font-size="10.00">lemons::dsp::SynthBase</text>
<text text-anchor="middle" x="67" y="-68" font-family="Helvetica,sans-Serif" font-size="10.00">&lt; SampleType &gt;</text>
</a>
</g>
</g>
<!-- Node2 -->
<g id="node2" class="node">
<title>Node2</title>
<g id="a_node2"><a xlink:href="classlemons_1_1dsp_1_1LambdaSynth.html" target="_top" xlink:title=" ">
<polygon fill="none" stroke="black" points="178,-110 178,-140 327,-140 327,-110 178,-110"/>
<text text-anchor="start" x="186" y="-128" font-family="Helvetica,sans-Serif" font-size="10.00">lemons::dsp::LambdaSynth</text>
<text text-anchor="middle" x="252.5" y="-117" font-family="Helvetica,sans-Serif" font-size="10.00">&lt; SampleType &gt;</text>
</a>
</g>
</g>
<!-- Node1&#45;&gt;Node2 -->
<g id="edge1" class="edge">
<title>Node1&#45;&gt;Node2</title>
<path fill="none" stroke="midnightblue" d="M134,-93.62C154.07,-98.98 175.94,-104.82 195.3,-109.99"/>
<polygon fill="midnightblue" stroke="midnightblue" points="134.87,-90.23 124.3,-91.03 133.06,-97 134.87,-90.23"/>
</g>
<!-- Node3 -->
<g id="node3" class="node">
<title>Node3</title>
<g id="a_node3"><a xlink:href="structlemons_1_1dsp_1_1TemplateSynth.html" target="_top" xlink:title=" ">
<polygon fill="none" stroke="black" points="175,-61 175,-91 330,-91 330,-61 175,-61"/>
<text text-anchor="start" x="183" y="-79" font-family="Helvetica,sans-Serif" font-size="10.00">lemons::dsp::TemplateSynth</text>
<text text-anchor="middle" x="252.5" y="-68" font-family="Helvetica,sans-Serif" font-size="10.00">&lt; SampleType &gt;</text>
</a>
</g>
</g>
<!-- Node1&#45;&gt;Node3 -->
<g id="edge2" class="edge">
<title>Node1&#45;&gt;Node3</title>
<path fill="none" stroke="midnightblue" d="M144.54,-76C154.53,-76 164.76,-76 174.74,-76"/>
<polygon fill="midnightblue" stroke="midnightblue" points="144.25,-72.5 134.25,-76 144.25,-79.5 144.25,-72.5"/>
</g>
<!-- Node4 -->
<g id="node4" class="node">
<title>Node4</title>
<g id="a_node4"><a xlink:href="structlemons_1_1dsp_1_1TemplateSynth.html" target="_top" xlink:title=" ">
<polygon fill="none" stroke="black" points="170,-0.5 170,-41.5 335,-41.5 335,-0.5 170,-0.5"/>
<text text-anchor="start" x="178" y="-29.5" font-family="Helvetica,sans-Serif" font-size="10.00">TemplateSynth&lt; SampleType,</text>
<text text-anchor="start" x="178" y="-18.5" font-family="Helvetica,sans-Serif" font-size="10.00"> OscSynthVoice&lt; SampleType,</text>
<text text-anchor="middle" x="252.5" y="-7.5" font-family="Helvetica,sans-Serif" font-size="10.00"> OscType &gt; &gt;</text>
</a>
</g>
</g>
<!-- Node1&#45;&gt;Node4 -->
<g id="edge3" class="edge">
<title>Node1&#45;&gt;Node4</title>
<path fill="none" stroke="midnightblue" d="M128.21,-57.95C145.68,-52.72 164.89,-46.96 182.85,-41.58"/>
<polygon fill="midnightblue" stroke="midnightblue" points="126.72,-54.75 118.14,-60.97 128.73,-61.45 126.72,-54.75"/>
</g>
<!-- Node5 -->
<g id="node5" class="node">
<title>Node5</title>
<g id="a_node5"><a xlink:href="structlemons_1_1dsp_1_1OscSynth.html" target="_top" xlink:title=" ">
<polygon fill="none" stroke="black" points="371,-6 371,-36 516,-36 516,-6 371,-6"/>
<text text-anchor="start" x="379" y="-24" font-family="Helvetica,sans-Serif" font-size="10.00">lemons::dsp::OscSynth</text>
<text text-anchor="middle" x="443.5" y="-13" font-family="Helvetica,sans-Serif" font-size="10.00">&lt; SampleType, OscType &gt;</text>
</a>
</g>
</g>
<!-- Node4&#45;&gt;Node5 -->
<g id="edge4" class="edge">
<title>Node4&#45;&gt;Node5</title>
<path fill="none" stroke="midnightblue" d="M345.1,-21C353.72,-21 362.37,-21 370.76,-21"/>
<polygon fill="midnightblue" stroke="midnightblue" points="345.02,-17.5 335.02,-21 345.02,-24.5 345.02,-17.5"/>
</g>
</g>
</svg>
