<?xml version="1.0" encoding="UTF-8" standalone="no"?>
<!DOCTYPE svg PUBLIC "-//W3C//DTD SVG 1.1//EN"
 "http://www.w3.org/Graphics/SVG/1.1/DTD/svg11.dtd">
<!-- Generated by graphviz version 2.43.0 (0)
 -->
<!-- Title: lemons::gui::PopupComponent&lt; OwnedContentType, &gt; Pages: 1 -->
<svg width="198pt" height="151pt"
 viewBox="0.00 0.00 198.00 151.00" xmlns="http://www.w3.org/2000/svg" xmlns:xlink="http://www.w3.org/1999/xlink">
<g id="graph0" class="graph" transform="scale(1 1) rotate(0) translate(4 147)">
<title>lemons::gui::PopupComponent&lt; OwnedContentType, &gt;</title>
<!-- Node1 -->
<g id="node1" class="node">
<title>Node1</title>
<g id="a_node1"><a xlink:title="A kind of PopupComponentBase that owns and displays a kind of Component.">
<polygon fill="#bfbfbf" stroke="black" points="12,-0.5 12,-30.5 178,-30.5 178,-0.5 12,-0.5"/>
<text text-anchor="start" x="20" y="-18.5" font-family="Helvetica,sans-Serif" font-size="10.00">lemons::gui::PopupComponent</text>
<text text-anchor="middle" x="95" y="-7.5" font-family="Helvetica,sans-Serif" font-size="10.00">&lt; OwnedContentType, &gt;</text>
</a>
</g>
</g>
<!-- Node2 -->
<g id="node2" class="node">
<title>Node2</title>
<g id="a_node2"><a xlink:href="classlemons_1_1gui_1_1_popup_component_base.html" target="_top" xlink:title="Base class for a kind of component that can be displayed as a popup.">
<polygon fill="none" stroke="black" points="0,-67.5 0,-86.5 190,-86.5 190,-67.5 0,-67.5"/>
<text text-anchor="middle" x="95" y="-74.5" font-family="Helvetica,sans-Serif" font-size="10.00">lemons::gui::PopupComponentBase</text>
</a>
</g>
</g>
<!-- Node2&#45;&gt;Node1 -->
<g id="edge1" class="edge">
<title>Node2&#45;&gt;Node1</title>
<path fill="none" stroke="midnightblue" d="M95,-57.23C95,-48.59 95,-38.5 95,-30.52"/>
<polygon fill="midnightblue" stroke="midnightblue" points="91.5,-57.48 95,-67.48 98.5,-57.48 91.5,-57.48"/>
</g>
<!-- Node3 -->
<g id="node3" class="node">
<title>Node3</title>
<g id="a_node3"><a xlink:title=" ">
<polygon fill="none" stroke="#bfbfbf" points="58.5,-123.5 58.5,-142.5 131.5,-142.5 131.5,-123.5 58.5,-123.5"/>
<text text-anchor="middle" x="95" y="-130.5" font-family="Helvetica,sans-Serif" font-size="10.00">Component</text>
</a>
</g>
</g>
<!-- Node3&#45;&gt;Node2 -->
<g id="edge2" class="edge">
<title>Node3&#45;&gt;Node2</title>
<path fill="none" stroke="midnightblue" d="M95,-112.8C95,-103.91 95,-93.78 95,-86.75"/>
<polygon fill="midnightblue" stroke="midnightblue" points="91.5,-113.08 95,-123.08 98.5,-113.08 91.5,-113.08"/>
</g>
</g>
</svg>
