<?xml version="1.0" encoding="UTF-8" standalone="no"?>
<!DOCTYPE svg PUBLIC "-//W3C//DTD SVG 1.1//EN"
 "http://www.w3.org/Graphics/SVG/1.1/DTD/svg11.dtd">
<!-- Generated by graphviz version 2.50.0 (20211204.2007)
 -->
<!-- Title: lemons::dsp::StreamEngine&lt; SampleType, StreamType, &gt; Pages: 1 -->
<!--zoomable 725 -->
<svg id="main" version="1.1" xmlns="http://www.w3.org/2000/svg" xmlns:xlink="http://www.w3.org/1999/xlink" xml:space="preserve" onload="init(evt)">
<style type="text/css"><![CDATA[
.edge:hover path { stroke: red; }
.edge:hover polygon { stroke: red; fill: red; }
]]></style>
<script type="text/javascript"><![CDATA[
var edges = document.getElementsByTagName('g');
if (edges && edges.length) {
  for (var i=0;i<edges.length;i++) {
    if (edges[i].id.substr(0,4)=='edge') {
      edges[i].setAttribute('class','edge');
    }
  }
}
]]></script>
        <defs>
                <circle id="rim" cx="0" cy="0" r="7"/>
                <circle id="rim2" cx="0" cy="0" r="3.5"/>
                <g id="zoomPlus">
                        <use xlink:href="#rim" fill="#404040">
                                <set attributeName="fill" to="#808080" begin="zoomplus.mouseover" end="zoomplus.mouseout"/>
                        </use>
                        <path d="M-4,0h8M0,-4v8" fill="none" stroke="white" stroke-width="1.5" pointer-events="none"/>
                </g>
                <g id="zoomMin">
                        <use xlink:href="#rim" fill="#404040">
                                <set attributeName="fill" to="#808080" begin="zoomminus.mouseover" end="zoomminus.mouseout"/>
                        </use>
                        <path d="M-4,0h8" fill="none" stroke="white" stroke-width="1.5" pointer-events="none"/>
                </g>
                <g id="dirArrow">
                        <path fill="none" stroke="white" stroke-width="1.5" d="M0,-3.0v7 M-2.5,-0.5L0,-3.0L2.5,-0.5"/>
                </g>
               <g id="resetDef">
                       <use xlink:href="#rim2" fill="#404040">
                               <set attributeName="fill" to="#808080" begin="reset.mouseover" end="reset.mouseout"/>
                       </use>
               </g>
        </defs>

<script type="text/javascript">
var viewWidth = 1230;
var viewHeight = 725;
var sectionId = 'dynsection-0';
</script>
<script xlink:href="svgpan.js"/>
<svg id="graph" class="graph">
<g id="viewport">
<title>lemons::dsp::StreamEngine&lt; SampleType, StreamType, &gt;</title>
<!-- Node1 -->
<g id="node1" class="node">
<title>Node1</title>
<g id="a_node1"><a xlink:title="A utility class that wraps a SampleStream into a self&#45;contained dsp::Engine.">
<polygon fill="#bfbfbf" stroke="black" points="143,-334.5 143,-364.5 293,-364.5 293,-334.5 143,-334.5"/>
<text text-anchor="start" x="151" y="-352.5" font-family="Helvetica,sans-Serif" font-size="10.00">lemons::dsp::StreamEngine</text>
<text text-anchor="middle" x="218" y="-341.5" font-family="Helvetica,sans-Serif" font-size="10.00">&lt; SampleType, StreamType, &gt;</text>
</a>
</g>
</g>
<!-- Node3 -->
<g id="node3" class="node">
<title>Node3</title>
<g id="a_node3"><a xlink:href="classlemons_1_1dsp_1_1_stream_engine.html" target="_top" xlink:title=" ">
<polygon fill="none" stroke="black" points="461.5,-334.5 461.5,-364.5 598.5,-364.5 598.5,-334.5 461.5,-334.5"/>
<text text-anchor="start" x="469.5" y="-352.5" font-family="Helvetica,sans-Serif" font-size="10.00">lemons::dsp::StreamEngine</text>
<text text-anchor="middle" x="530" y="-341.5" font-family="Helvetica,sans-Serif" font-size="10.00">&lt; SampleType, OscType &gt;</text>
</a>
</g>
</g>
<!-- Node1&#45;&gt;Node3 -->
<g id="edge2" class="edge">
<title>Node1&#45;&gt;Node3</title>
<path fill="none" stroke="orange" stroke-dasharray="5,2" d="M303.33,-349.5C353.01,-349.5 415,-349.5 461.44,-349.5"/>
<polygon fill="orange" stroke="orange" points="303.25,-346 293.25,-349.5 303.25,-353 303.25,-346"/>
<text text-anchor="middle" x="371.5" y="-352.5" font-family="Helvetica,sans-Serif" font-size="10.00"> &lt; SampleType, OscType &gt;</text>
</g>
<!-- Node15 -->
<g id="node15" class="node">
<title>Node15</title>
<g id="a_node15"><a xlink:href="classlemons_1_1dsp_1_1_stream_engine.html" target="_top" xlink:title=" ">
<polygon fill="none" stroke="black" points="628,-632 628,-673 767,-673 767,-632 628,-632"/>
<text text-anchor="start" x="636" y="-661" font-family="Helvetica,sans-Serif" font-size="10.00">lemons::dsp::StreamEngine</text>
<text text-anchor="start" x="636" y="-650" font-family="Helvetica,sans-Serif" font-size="10.00">&lt; SampleType, lemons::dsp</text>
<text text-anchor="middle" x="697.5" y="-639" font-family="Helvetica,sans-Serif" font-size="10.00">::osc::Sine &gt;</text>
</a>
</g>
</g>
<!-- Node1&#45;&gt;Node15 -->
<g id="edge14" class="edge">
<title>Node1&#45;&gt;Node15</title>
<path fill="none" stroke="orange" stroke-dasharray="5,2" d="M223.01,-374.54C231.32,-417.95 254.56,-507.07 311,-554.5 358.64,-594.54 530.31,-626.78 627.73,-642.35"/>
<polygon fill="orange" stroke="orange" points="226.43,-373.76 221.21,-364.54 219.54,-375 226.43,-373.76"/>
<text text-anchor="start" x="319.5" y="-616.5" font-family="Helvetica,sans-Serif" font-size="10.00"> &lt; SampleType, lemons</text>
<text text-anchor="middle" x="371.5" y="-605.5" font-family="Helvetica,sans-Serif" font-size="10.00">::dsp::osc::Sine &gt;</text>
</g>
<!-- Node16 -->
<g id="node16" class="node">
<title>Node16</title>
<g id="a_node16"><a xlink:href="classlemons_1_1dsp_1_1_stream_engine.html" target="_top" xlink:title=" ">
<polygon fill="none" stroke="black" points="628,-403 628,-444 767,-444 767,-403 628,-403"/>
<text text-anchor="start" x="636" y="-432" font-family="Helvetica,sans-Serif" font-size="10.00">lemons::dsp::StreamEngine</text>
<text text-anchor="start" x="636" y="-421" font-family="Helvetica,sans-Serif" font-size="10.00">&lt; SampleType, lemons::dsp</text>
<text text-anchor="middle" x="697.5" y="-410" font-family="Helvetica,sans-Serif" font-size="10.00">::osc::Saw &gt;</text>
</a>
</g>
</g>
<!-- Node1&#45;&gt;Node16 -->
<g id="edge16" class="edge">
<title>Node1&#45;&gt;Node16</title>
<path fill="none" stroke="orange" stroke-dasharray="5,2" d="M303.35,-363.29C305.93,-363.7 308.48,-364.1 311,-364.5 421.85,-382.02 550.76,-401.59 627.88,-413.2"/>
<polygon fill="orange" stroke="orange" points="303.73,-359.8 293.3,-361.68 302.63,-366.71 303.73,-359.8"/>
<text text-anchor="start" x="319.5" y="-396.5" font-family="Helvetica,sans-Serif" font-size="10.00"> &lt; SampleType, lemons</text>
<text text-anchor="middle" x="371.5" y="-385.5" font-family="Helvetica,sans-Serif" font-size="10.00">::dsp::osc::Saw &gt;</text>
</g>
<!-- Node17 -->
<g id="node17" class="node">
<title>Node17</title>
<g id="a_node17"><a xlink:href="classlemons_1_1dsp_1_1_stream_engine.html" target="_top" xlink:title=" ">
<polygon fill="none" stroke="black" points="628,-476 628,-517 767,-517 767,-476 628,-476"/>
<text text-anchor="start" x="636" y="-505" font-family="Helvetica,sans-Serif" font-size="10.00">lemons::dsp::StreamEngine</text>
<text text-anchor="start" x="636" y="-494" font-family="Helvetica,sans-Serif" font-size="10.00">&lt; SampleType, lemons::dsp</text>
<text text-anchor="middle" x="697.5" y="-483" font-family="Helvetica,sans-Serif" font-size="10.00">::osc::Square &gt;</text>
</a>
</g>
</g>
<!-- Node1&#45;&gt;Node17 -->
<g id="edge18" class="edge">
<title>Node1&#45;&gt;Node17</title>
<path fill="none" stroke="orange" stroke-dasharray="5,2" d="M246.45,-370.7C264.04,-383.34 287.84,-398.78 311,-408.5 416.87,-452.93 548.95,-476.87 627.8,-488.12"/>
<polygon fill="orange" stroke="orange" points="248.48,-367.84 238.34,-364.75 244.34,-373.49 248.48,-367.84"/>
<text text-anchor="start" x="319.5" y="-461.5" font-family="Helvetica,sans-Serif" font-size="10.00"> &lt; SampleType, lemons</text>
<text text-anchor="middle" x="371.5" y="-450.5" font-family="Helvetica,sans-Serif" font-size="10.00">::dsp::osc::Square &gt;</text>
</g>
<!-- Node18 -->
<g id="node18" class="node">
<title>Node18</title>
<g id="a_node18"><a xlink:href="classlemons_1_1dsp_1_1_stream_engine.html" target="_top" xlink:title=" ">
<polygon fill="none" stroke="black" points="460.5,-675 460.5,-716 599.5,-716 599.5,-675 460.5,-675"/>
<text text-anchor="start" x="468.5" y="-704" font-family="Helvetica,sans-Serif" font-size="10.00">lemons::dsp::StreamEngine</text>
<text text-anchor="start" x="468.5" y="-693" font-family="Helvetica,sans-Serif" font-size="10.00">&lt; SampleType, lemons::dsp</text>
<text text-anchor="middle" x="530" y="-682" font-family="Helvetica,sans-Serif" font-size="10.00">::osc::Triangle &gt;</text>
</a>
</g>
</g>
<!-- Node1&#45;&gt;Node18 -->
<g id="edge20" class="edge">
<title>Node1&#45;&gt;Node18</title>
<path fill="none" stroke="orange" stroke-dasharray="5,2" d="M219.32,-374.79C221.47,-430.82 234.73,-566.13 311,-638.5 350.87,-676.33 412.64,-689.81 460.26,-694.26"/>
<polygon fill="orange" stroke="orange" points="222.82,-374.58 219.03,-364.69 215.82,-374.79 222.82,-374.58"/>
<text text-anchor="start" x="319.5" y="-703.5" font-family="Helvetica,sans-Serif" font-size="10.00"> &lt; SampleType, lemons</text>
<text text-anchor="middle" x="371.5" y="-692.5" font-family="Helvetica,sans-Serif" font-size="10.00">::dsp::osc::Triangle &gt;</text>
</g>
<!-- Node19 -->
<g id="node19" class="node">
<title>Node19</title>
<g id="a_node19"><a xlink:href="classlemons_1_1dsp_1_1_stream_engine.html" target="_top" xlink:title=" ">
<polygon fill="none" stroke="black" points="628,-550 628,-591 767,-591 767,-550 628,-550"/>
<text text-anchor="start" x="636" y="-579" font-family="Helvetica,sans-Serif" font-size="10.00">lemons::dsp::StreamEngine</text>
<text text-anchor="start" x="636" y="-568" font-family="Helvetica,sans-Serif" font-size="10.00">&lt; SampleType, lemons::dsp</text>
<text text-anchor="middle" x="697.5" y="-557" font-family="Helvetica,sans-Serif" font-size="10.00">::osc::Detunable &gt;</text>
</a>
</g>
</g>
<!-- Node1&#45;&gt;Node19 -->
<g id="edge22" class="edge">
<title>Node1&#45;&gt;Node19</title>
<path fill="none" stroke="orange" stroke-dasharray="5,2" d="M230.59,-373.97C245.29,-402.31 273.33,-448.31 311,-473.5 408.38,-538.63 546.11,-560.03 627.87,-567.07"/>
<polygon fill="orange" stroke="orange" points="233.57,-372.11 225.95,-364.75 227.32,-375.25 233.57,-372.11"/>
<text text-anchor="start" x="319.5" y="-542.5" font-family="Helvetica,sans-Serif" font-size="10.00"> &lt; SampleType, lemons</text>
<text text-anchor="middle" x="371.5" y="-531.5" font-family="Helvetica,sans-Serif" font-size="10.00">::dsp::osc::Detunable &gt;</text>
</g>
<!-- Node20 -->
<g id="node20" class="node">
<title>Node20</title>
<g id="a_node20"><a xlink:href="classlemons_1_1dsp_1_1_stream_engine.html" target="_top" xlink:title=" ">
<polygon fill="none" stroke="black" points="461.5,-140 461.5,-181 598.5,-181 598.5,-140 461.5,-140"/>
<text text-anchor="start" x="469.5" y="-169" font-family="Helvetica,sans-Serif" font-size="10.00">lemons::dsp::StreamEngine</text>
<text text-anchor="start" x="469.5" y="-158" font-family="Helvetica,sans-Serif" font-size="10.00">&lt; float, lemons::dsp::osc</text>
<text text-anchor="middle" x="530" y="-147" font-family="Helvetica,sans-Serif" font-size="10.00">::Sine &gt;</text>
</a>
</g>
</g>
<!-- Node1&#45;&gt;Node20 -->
<g id="edge24" class="edge">
<title>Node1&#45;&gt;Node20</title>
<path fill="none" stroke="orange" stroke-dasharray="5,2" d="M225.36,-324.48C236.17,-287.53 261.9,-219.22 311,-186.5 354.93,-157.23 415.13,-152.02 461.15,-153.4"/>
<polygon fill="orange" stroke="orange" points="221.89,-323.87 222.58,-334.44 228.64,-325.74 221.89,-323.87"/>
<text text-anchor="start" x="326" y="-200.5" font-family="Helvetica,sans-Serif" font-size="10.00"> &lt; float, lemons::dsp</text>
<text text-anchor="middle" x="371.5" y="-189.5" font-family="Helvetica,sans-Serif" font-size="10.00">::osc::Sine &gt;</text>
</g>
<!-- Node21 -->
<g id="node21" class="node">
<title>Node21</title>
<g id="a_node21"><a xlink:href="classlemons_1_1dsp_1_1_stream_engine.html" target="_top" xlink:title=" ">
<polygon fill="none" stroke="black" points="450,-0.5 450,-30.5 610,-30.5 610,-0.5 450,-0.5"/>
<text text-anchor="start" x="458" y="-18.5" font-family="Helvetica,sans-Serif" font-size="10.00">lemons::dsp::StreamEngine</text>
<text text-anchor="middle" x="530" y="-7.5" font-family="Helvetica,sans-Serif" font-size="10.00">&lt; float, lemons::dsp::osc::Saw &gt;</text>
</a>
</g>
</g>
<!-- Node1&#45;&gt;Node21 -->
<g id="edge26" class="edge">
<title>Node1&#45;&gt;Node21</title>
<path fill="none" stroke="orange" stroke-dasharray="5,2" d="M222.97,-324.03C233.94,-257.08 266.81,-78.69 311,-41.5 348.84,-9.65 404.32,-3.41 449.84,-5"/>
<polygon fill="orange" stroke="orange" points="219.48,-323.71 221.34,-334.14 226.39,-324.82 219.48,-323.71"/>
<text text-anchor="start" x="326" y="-55.5" font-family="Helvetica,sans-Serif" font-size="10.00"> &lt; float, lemons::dsp</text>
<text text-anchor="middle" x="371.5" y="-44.5" font-family="Helvetica,sans-Serif" font-size="10.00">::osc::Saw &gt;</text>
</g>
<!-- Node22 -->
<g id="node22" class="node">
<title>Node22</title>
<g id="a_node22"><a xlink:href="classlemons_1_1dsp_1_1_stream_engine.html" target="_top" xlink:title=" ">
<polygon fill="none" stroke="black" points="785,-170 785,-211 922,-211 922,-170 785,-170"/>
<text text-anchor="start" x="793" y="-199" font-family="Helvetica,sans-Serif" font-size="10.00">lemons::dsp::StreamEngine</text>
<text text-anchor="start" x="793" y="-188" font-family="Helvetica,sans-Serif" font-size="10.00">&lt; float, lemons::dsp::osc</text>
<text text-anchor="middle" x="853.5" y="-177" font-family="Helvetica,sans-Serif" font-size="10.00">::Square &gt;</text>
</a>
</g>
</g>
<!-- Node1&#45;&gt;Node22 -->
<g id="edge28" class="edge">
<title>Node1&#45;&gt;Node22</title>
<path fill="none" stroke="orange" stroke-dasharray="5,2" d="M253.48,-329.41C270.43,-320.08 291.38,-309.35 311,-301.5 473.83,-236.36 680.13,-207.66 784.86,-196.56"/>
<polygon fill="orange" stroke="orange" points="251.54,-326.48 244.52,-334.41 254.95,-332.59 251.54,-326.48"/>
<text text-anchor="start" x="484.5" y="-269.5" font-family="Helvetica,sans-Serif" font-size="10.00"> &lt; float, lemons::dsp</text>
<text text-anchor="middle" x="530" y="-258.5" font-family="Helvetica,sans-Serif" font-size="10.00">::osc::Square &gt;</text>
</g>
<!-- Node23 -->
<g id="node23" class="node">
<title>Node23</title>
<g id="a_node23"><a xlink:href="classlemons_1_1dsp_1_1_stream_engine.html" target="_top" xlink:title=" ">
<polygon fill="none" stroke="black" points="785,-257 785,-298 922,-298 922,-257 785,-257"/>
<text text-anchor="start" x="793" y="-286" font-family="Helvetica,sans-Serif" font-size="10.00">lemons::dsp::StreamEngine</text>
<text text-anchor="start" x="793" y="-275" font-family="Helvetica,sans-Serif" font-size="10.00">&lt; float, lemons::dsp::osc</text>
<text text-anchor="middle" x="853.5" y="-264" font-family="Helvetica,sans-Serif" font-size="10.00">::Triangle &gt;</text>
</a>
</g>
</g>
<!-- Node1&#45;&gt;Node23 -->
<g id="edge30" class="edge">
<title>Node1&#45;&gt;Node23</title>
<path fill="none" stroke="orange" stroke-dasharray="5,2" d="M290.9,-332.19C336.27,-321.94 396.25,-309.6 450,-302.5 567.13,-287.02 704.73,-281.09 784.92,-278.84"/>
<polygon fill="orange" stroke="orange" points="289.84,-328.85 280.86,-334.48 291.39,-335.67 289.84,-328.85"/>
<text text-anchor="start" x="484.5" y="-316.5" font-family="Helvetica,sans-Serif" font-size="10.00"> &lt; float, lemons::dsp</text>
<text text-anchor="middle" x="530" y="-305.5" font-family="Helvetica,sans-Serif" font-size="10.00">::osc::Triangle &gt;</text>
</g>
<!-- Node24 -->
<g id="node24" class="node">
<title>Node24</title>
<g id="a_node24"><a xlink:href="classlemons_1_1dsp_1_1_stream_engine.html" target="_top" xlink:title=" ">
<polygon fill="none" stroke="black" points="785,-39 785,-80 922,-80 922,-39 785,-39"/>
<text text-anchor="start" x="793" y="-68" font-family="Helvetica,sans-Serif" font-size="10.00">lemons::dsp::StreamEngine</text>
<text text-anchor="start" x="793" y="-57" font-family="Helvetica,sans-Serif" font-size="10.00">&lt; float, lemons::dsp::osc</text>
<text text-anchor="middle" x="853.5" y="-46" font-family="Helvetica,sans-Serif" font-size="10.00">::Detunable &gt;</text>
</a>
</g>
</g>
<!-- Node1&#45;&gt;Node24 -->
<g id="edge32" class="edge">
<title>Node1&#45;&gt;Node24</title>
<path fill="none" stroke="orange" stroke-dasharray="5,2" d="M223.71,-324.24C232.9,-282.04 257.22,-197.25 311,-150.5 445.36,-33.7 671.85,-38.88 784.56,-50.23"/>
<polygon fill="orange" stroke="orange" points="220.24,-323.73 221.65,-334.24 227.1,-325.15 220.24,-323.73"/>
<text text-anchor="start" x="484.5" y="-88.5" font-family="Helvetica,sans-Serif" font-size="10.00"> &lt; float, lemons::dsp</text>
<text text-anchor="middle" x="530" y="-77.5" font-family="Helvetica,sans-Serif" font-size="10.00">::osc::Detunable &gt;</text>
</g>
<!-- Node2 -->
<g id="node2" class="node">
<title>Node2</title>
<g id="a_node2"><a xlink:href="classlemons_1_1dsp_1_1_engine.html" target="_top" xlink:title="Base class for an audio engine.">
<polygon fill="none" stroke="black" points="0,-334.5 0,-364.5 106,-364.5 106,-334.5 0,-334.5"/>
<text text-anchor="start" x="8" y="-352.5" font-family="Helvetica,sans-Serif" font-size="10.00">lemons::dsp::Engine</text>
<text text-anchor="middle" x="53" y="-341.5" font-family="Helvetica,sans-Serif" font-size="10.00">&lt; SampleType &gt;</text>
</a>
</g>
</g>
<!-- Node2&#45;&gt;Node1 -->
<g id="edge1" class="edge">
<title>Node2&#45;&gt;Node1</title>
<path fill="none" stroke="midnightblue" d="M116.13,-349.5C124.88,-349.5 133.95,-349.5 142.89,-349.5"/>
<polygon fill="midnightblue" stroke="midnightblue" points="116.02,-346 106.02,-349.5 116.02,-353 116.02,-346"/>
</g>
<!-- Node4 -->
<g id="node4" class="node">
<title>Node4</title>
<g id="a_node4"><a xlink:href="classlemons_1_1dsp_1_1osc_1_1_engine.html" target="_top" xlink:title=" ">
<polygon fill="none" stroke="black" points="785,-334.5 785,-364.5 922,-364.5 922,-334.5 785,-334.5"/>
<text text-anchor="start" x="793" y="-352.5" font-family="Helvetica,sans-Serif" font-size="10.00">lemons::dsp::osc::Engine</text>
<text text-anchor="middle" x="853.5" y="-341.5" font-family="Helvetica,sans-Serif" font-size="10.00">&lt; SampleType, OscType, &gt;</text>
</a>
</g>
</g>
<!-- Node3&#45;&gt;Node4 -->
<g id="edge3" class="edge">
<title>Node3&#45;&gt;Node4</title>
<path fill="none" stroke="midnightblue" d="M608.96,-349.5C662.7,-349.5 733.42,-349.5 784.8,-349.5"/>
<polygon fill="midnightblue" stroke="midnightblue" points="608.79,-346 598.79,-349.5 608.79,-353 608.79,-346"/>
</g>
<!-- Node5 -->
<g id="node5" class="node">
<title>Node5</title>
<g id="a_node5"><a xlink:href="classlemons_1_1dsp_1_1osc_1_1_engine.html" target="_top" xlink:title=" ">
<polygon fill="none" stroke="black" points="1072.5,-546 1072.5,-587 1211.5,-587 1211.5,-546 1072.5,-546"/>
<text text-anchor="start" x="1080.5" y="-575" font-family="Helvetica,sans-Serif" font-size="10.00">lemons::dsp::osc::Engine</text>
<text text-anchor="start" x="1080.5" y="-564" font-family="Helvetica,sans-Serif" font-size="10.00">&lt; SampleType, lemons::dsp</text>
<text text-anchor="middle" x="1142" y="-553" font-family="Helvetica,sans-Serif" font-size="10.00">::osc::Sine &gt;</text>
</a>
</g>
</g>
<!-- Node4&#45;&gt;Node5 -->
<g id="edge4" class="edge">
<title>Node4&#45;&gt;Node5</title>
<path fill="none" stroke="orange" stroke-dasharray="5,2" d="M860.3,-374.59C870.17,-411.46 893.78,-479.83 940,-516.5 977.47,-546.23 1030.25,-558.56 1072.33,-563.55"/>
<polygon fill="orange" stroke="orange" points="863.63,-373.49 857.78,-364.66 856.85,-375.21 863.63,-373.49"/>
<text text-anchor="start" x="940" y="-572.5" font-family="Helvetica,sans-Serif" font-size="10.00"> &lt; SampleType, lemons</text>
<text text-anchor="middle" x="992" y="-561.5" font-family="Helvetica,sans-Serif" font-size="10.00">::dsp::osc::Sine &gt;</text>
</g>
<!-- Node6 -->
<g id="node6" class="node">
<title>Node6</title>
<g id="a_node6"><a xlink:href="classlemons_1_1dsp_1_1osc_1_1_engine.html" target="_top" xlink:title=" ">
<polygon fill="none" stroke="black" points="1072.5,-366 1072.5,-407 1211.5,-407 1211.5,-366 1072.5,-366"/>
<text text-anchor="start" x="1080.5" y="-395" font-family="Helvetica,sans-Serif" font-size="10.00">lemons::dsp::osc::Engine</text>
<text text-anchor="start" x="1080.5" y="-384" font-family="Helvetica,sans-Serif" font-size="10.00">&lt; SampleType, lemons::dsp</text>
<text text-anchor="middle" x="1142" y="-373" font-family="Helvetica,sans-Serif" font-size="10.00">::osc::Saw &gt;</text>
</a>
</g>
</g>
<!-- Node4&#45;&gt;Node6 -->
<g id="edge5" class="edge">
<title>Node4&#45;&gt;Node6</title>
<path fill="none" stroke="orange" stroke-dasharray="5,2" d="M932.04,-358.51C966.37,-362.6 1007.22,-367.61 1044,-372.5 1053.19,-373.72 1062.87,-375.06 1072.4,-376.4"/>
<polygon fill="orange" stroke="orange" points="932.42,-355.03 922.08,-357.33 931.6,-361.98 932.42,-355.03"/>
<text text-anchor="start" x="940" y="-386.5" font-family="Helvetica,sans-Serif" font-size="10.00"> &lt; SampleType, lemons</text>
<text text-anchor="middle" x="992" y="-375.5" font-family="Helvetica,sans-Serif" font-size="10.00">::dsp::osc::Saw &gt;</text>
</g>
<!-- Node7 -->
<g id="node7" class="node">
<title>Node7</title>
<g id="a_node7"><a xlink:href="classlemons_1_1dsp_1_1osc_1_1_engine.html" target="_top" xlink:title=" ">
<polygon fill="none" stroke="black" points="1072.5,-426 1072.5,-467 1211.5,-467 1211.5,-426 1072.5,-426"/>
<text text-anchor="start" x="1080.5" y="-455" font-family="Helvetica,sans-Serif" font-size="10.00">lemons::dsp::osc::Engine</text>
<text text-anchor="start" x="1080.5" y="-444" font-family="Helvetica,sans-Serif" font-size="10.00">&lt; SampleType, lemons::dsp</text>
<text text-anchor="middle" x="1142" y="-433" font-family="Helvetica,sans-Serif" font-size="10.00">::osc::Square &gt;</text>
</a>
</g>
</g>
<!-- Node4&#45;&gt;Node7 -->
<g id="edge6" class="edge">
<title>Node4&#45;&gt;Node7</title>
<path fill="none" stroke="orange" stroke-dasharray="5,2" d="M888.67,-369.81C903.99,-378.3 922.51,-387.74 940,-394.5 982.87,-411.07 1032.89,-424.03 1072.31,-432.87"/>
<polygon fill="orange" stroke="orange" points="890.02,-366.55 879.59,-364.68 886.58,-372.65 890.02,-366.55"/>
<text text-anchor="start" x="940" y="-439.5" font-family="Helvetica,sans-Serif" font-size="10.00"> &lt; SampleType, lemons</text>
<text text-anchor="middle" x="992" y="-428.5" font-family="Helvetica,sans-Serif" font-size="10.00">::dsp::osc::Square &gt;</text>
</g>
<!-- Node8 -->
<g id="node8" class="node">
<title>Node8</title>
<g id="a_node8"><a xlink:href="classlemons_1_1dsp_1_1osc_1_1_engine.html" target="_top" xlink:title=" ">
<polygon fill="none" stroke="black" points="1072.5,-606 1072.5,-647 1211.5,-647 1211.5,-606 1072.5,-606"/>
<text text-anchor="start" x="1080.5" y="-635" font-family="Helvetica,sans-Serif" font-size="10.00">lemons::dsp::osc::Engine</text>
<text text-anchor="start" x="1080.5" y="-624" font-family="Helvetica,sans-Serif" font-size="10.00">&lt; SampleType, lemons::dsp</text>
<text text-anchor="middle" x="1142" y="-613" font-family="Helvetica,sans-Serif" font-size="10.00">::osc::Triangle &gt;</text>
</a>
</g>
</g>
<!-- Node4&#45;&gt;Node8 -->
<g id="edge7" class="edge">
<title>Node4&#45;&gt;Node8</title>
<path fill="none" stroke="orange" stroke-dasharray="5,2" d="M855.95,-374.9C860.16,-423.45 876.53,-529.51 940,-584.5 976.1,-615.78 1029.48,-625.82 1072.16,-628.29"/>
<polygon fill="orange" stroke="orange" points="859.42,-374.35 855.17,-364.65 852.44,-374.88 859.42,-374.35"/>
<text text-anchor="start" x="940" y="-638.5" font-family="Helvetica,sans-Serif" font-size="10.00"> &lt; SampleType, lemons</text>
<text text-anchor="middle" x="992" y="-627.5" font-family="Helvetica,sans-Serif" font-size="10.00">::dsp::osc::Triangle &gt;</text>
</g>
<!-- Node9 -->
<g id="node9" class="node">
<title>Node9</title>
<g id="a_node9"><a xlink:href="classlemons_1_1dsp_1_1osc_1_1_engine.html" target="_top" xlink:title=" ">
<polygon fill="none" stroke="black" points="1072.5,-486 1072.5,-527 1211.5,-527 1211.5,-486 1072.5,-486"/>
<text text-anchor="start" x="1080.5" y="-515" font-family="Helvetica,sans-Serif" font-size="10.00">lemons::dsp::osc::Engine</text>
<text text-anchor="start" x="1080.5" y="-504" font-family="Helvetica,sans-Serif" font-size="10.00">&lt; SampleType, lemons::dsp</text>
<text text-anchor="middle" x="1142" y="-493" font-family="Helvetica,sans-Serif" font-size="10.00">::osc::Detunable &gt;</text>
</a>
</g>
</g>
<!-- Node4&#45;&gt;Node9 -->
<g id="edge8" class="edge">
<title>Node4&#45;&gt;Node9</title>
<path fill="none" stroke="orange" stroke-dasharray="5,2" d="M868.48,-373.45C883.33,-396.78 908.92,-431.57 940,-451.5 979.75,-476.98 1031.2,-490.78 1072.1,-498.18"/>
<polygon fill="orange" stroke="orange" points="871.38,-371.49 863.15,-364.82 865.43,-375.17 871.38,-371.49"/>
<text text-anchor="start" x="940" y="-504.5" font-family="Helvetica,sans-Serif" font-size="10.00"> &lt; SampleType, lemons</text>
<text text-anchor="middle" x="992" y="-493.5" font-family="Helvetica,sans-Serif" font-size="10.00">::dsp::osc::Detunable &gt;</text>
</g>
<!-- Node10 -->
<g id="node10" class="node">
<title>Node10</title>
<g id="a_node10"><a xlink:href="classlemons_1_1dsp_1_1osc_1_1_engine.html" target="_top" xlink:title=" ">
<polygon fill="none" stroke="black" points="1078,-182 1078,-223 1206,-223 1206,-182 1078,-182"/>
<text text-anchor="start" x="1086" y="-211" font-family="Helvetica,sans-Serif" font-size="10.00">lemons::dsp::osc::Engine</text>
<text text-anchor="start" x="1086" y="-200" font-family="Helvetica,sans-Serif" font-size="10.00">&lt; float, lemons::dsp::osc</text>
<text text-anchor="middle" x="1142" y="-189" font-family="Helvetica,sans-Serif" font-size="10.00">::Sine &gt;</text>
</a>
</g>
</g>
<!-- Node4&#45;&gt;Node10 -->
<g id="edge9" class="edge">
<title>Node4&#45;&gt;Node10</title>
<path fill="none" stroke="orange" stroke-dasharray="5,2" d="M897.81,-329.09C906.83,-323.18 915.54,-315.99 922,-307.5 939.12,-285.01 919.31,-265.76 940,-246.5 976.73,-212.3 1033.69,-202.39 1077.61,-200.4"/>
<polygon fill="orange" stroke="orange" points="895.87,-326.17 889.14,-334.35 899.5,-332.15 895.87,-326.17"/>
<text text-anchor="start" x="946.5" y="-260.5" font-family="Helvetica,sans-Serif" font-size="10.00"> &lt; float, lemons::dsp</text>
<text text-anchor="middle" x="992" y="-249.5" font-family="Helvetica,sans-Serif" font-size="10.00">::osc::Sine &gt;</text>
</g>
<!-- Node11 -->
<g id="node11" class="node">
<title>Node11</title>
<g id="a_node11"><a xlink:href="classlemons_1_1dsp_1_1osc_1_1_engine.html" target="_top" xlink:title=" ">
<polygon fill="none" stroke="black" points="1062,-26.5 1062,-56.5 1222,-56.5 1222,-26.5 1062,-26.5"/>
<text text-anchor="start" x="1070" y="-44.5" font-family="Helvetica,sans-Serif" font-size="10.00">lemons::dsp::osc::Engine</text>
<text text-anchor="middle" x="1142" y="-33.5" font-family="Helvetica,sans-Serif" font-size="10.00">&lt; float, lemons::dsp::osc::Saw &gt;</text>
</a>
</g>
</g>
<!-- Node4&#45;&gt;Node11 -->
<g id="edge10" class="edge">
<title>Node4&#45;&gt;Node11</title>
<path fill="none" stroke="orange" stroke-dasharray="5,2" d="M900.39,-329.07C908.85,-323.28 916.68,-316.14 922,-307.5 945.4,-269.5 912.23,-142.43 940,-107.5 969.14,-70.84 1019.11,-54.33 1061.94,-46.98"/>
<polygon fill="orange" stroke="orange" points="898.44,-326.16 891.79,-334.41 902.13,-332.11 898.44,-326.16"/>
<text text-anchor="start" x="946.5" y="-121.5" font-family="Helvetica,sans-Serif" font-size="10.00"> &lt; float, lemons::dsp</text>
<text text-anchor="middle" x="992" y="-110.5" font-family="Helvetica,sans-Serif" font-size="10.00">::osc::Saw &gt;</text>
</g>
<!-- Node12 -->
<g id="node12" class="node">
<title>Node12</title>
<g id="a_node12"><a xlink:href="classlemons_1_1dsp_1_1osc_1_1_engine.html" target="_top" xlink:title=" ">
<polygon fill="none" stroke="black" points="1078,-244 1078,-285 1206,-285 1206,-244 1078,-244"/>
<text text-anchor="start" x="1086" y="-273" font-family="Helvetica,sans-Serif" font-size="10.00">lemons::dsp::osc::Engine</text>
<text text-anchor="start" x="1086" y="-262" font-family="Helvetica,sans-Serif" font-size="10.00">&lt; float, lemons::dsp::osc</text>
<text text-anchor="middle" x="1142" y="-251" font-family="Helvetica,sans-Serif" font-size="10.00">::Square &gt;</text>
</a>
</g>
</g>
<!-- Node4&#45;&gt;Node12 -->
<g id="edge11" class="edge">
<title>Node4&#45;&gt;Node12</title>
<path fill="none" stroke="orange" stroke-dasharray="5,2" d="M887.42,-329C911.19,-314.2 939.25,-296.78 940,-296.5 984.37,-279.98 1037.37,-271.99 1077.79,-268.12"/>
<polygon fill="orange" stroke="orange" points="885.55,-326.03 878.91,-334.29 889.25,-331.98 885.55,-326.03"/>
<text text-anchor="start" x="946.5" y="-310.5" font-family="Helvetica,sans-Serif" font-size="10.00"> &lt; float, lemons::dsp</text>
<text text-anchor="middle" x="992" y="-299.5" font-family="Helvetica,sans-Serif" font-size="10.00">::osc::Square &gt;</text>
</g>
<!-- Node13 -->
<g id="node13" class="node">
<title>Node13</title>
<g id="a_node13"><a xlink:href="classlemons_1_1dsp_1_1osc_1_1_engine.html" target="_top" xlink:title=" ">
<polygon fill="none" stroke="black" points="1078,-305 1078,-346 1206,-346 1206,-305 1078,-305"/>
<text text-anchor="start" x="1086" y="-334" font-family="Helvetica,sans-Serif" font-size="10.00">lemons::dsp::osc::Engine</text>
<text text-anchor="start" x="1086" y="-323" font-family="Helvetica,sans-Serif" font-size="10.00">&lt; float, lemons::dsp::osc</text>
<text text-anchor="middle" x="1142" y="-312" font-family="Helvetica,sans-Serif" font-size="10.00">::Triangle &gt;</text>
</a>
</g>
</g>
<!-- Node4&#45;&gt;Node13 -->
<g id="edge12" class="edge">
<title>Node4&#45;&gt;Node13</title>
<path fill="none" stroke="orange" stroke-dasharray="5,2" d="M914.57,-332.11C923.05,-330.22 931.7,-328.59 940,-327.5 985.84,-321.46 1038.08,-321.14 1077.81,-322.23"/>
<polygon fill="orange" stroke="orange" points="913.67,-328.72 904.74,-334.42 915.27,-335.54 913.67,-328.72"/>
<text text-anchor="start" x="946.5" y="-341.5" font-family="Helvetica,sans-Serif" font-size="10.00"> &lt; float, lemons::dsp</text>
<text text-anchor="middle" x="992" y="-330.5" font-family="Helvetica,sans-Serif" font-size="10.00">::osc::Triangle &gt;</text>
</g>
<!-- Node14 -->
<g id="node14" class="node">
<title>Node14</title>
<g id="a_node14"><a xlink:href="classlemons_1_1dsp_1_1osc_1_1_engine.html" target="_top" xlink:title=" ">
<polygon fill="none" stroke="black" points="1078,-114 1078,-155 1206,-155 1206,-114 1078,-114"/>
<text text-anchor="start" x="1086" y="-143" font-family="Helvetica,sans-Serif" font-size="10.00">lemons::dsp::osc::Engine</text>
<text text-anchor="start" x="1086" y="-132" font-family="Helvetica,sans-Serif" font-size="10.00">&lt; float, lemons::dsp::osc</text>
<text text-anchor="middle" x="1142" y="-121" font-family="Helvetica,sans-Serif" font-size="10.00">::Detunable &gt;</text>
</a>
</g>
</g>
<!-- Node4&#45;&gt;Node14 -->
<g id="edge13" class="edge">
<title>Node4&#45;&gt;Node14</title>
<path fill="none" stroke="orange" stroke-dasharray="5,2" d="M899.81,-329.04C908.39,-323.23 916.41,-316.09 922,-307.5 953.55,-258.96 900.67,-220.98 940,-178.5 974.58,-141.15 1032.95,-131.75 1077.9,-130.75"/>
<polygon fill="orange" stroke="orange" points="897.79,-326.18 891.12,-334.41 901.47,-332.13 897.79,-326.18"/>
<text text-anchor="start" x="946.5" y="-192.5" font-family="Helvetica,sans-Serif" font-size="10.00"> &lt; float, lemons::dsp</text>
<text text-anchor="middle" x="992" y="-181.5" font-family="Helvetica,sans-Serif" font-size="10.00">::osc::Detunable &gt;</text>
</g>
<!-- Node15&#45;&gt;Node5 -->
<g id="edge15" class="edge">
<title>Node15&#45;&gt;Node5</title>
<path fill="none" stroke="midnightblue" d="M777.26,-662.03C865.92,-671.02 1002.99,-679.16 1044,-649.5 1064.16,-634.92 1044.72,-614.4 1062,-596.5 1065.36,-593.02 1069.17,-589.93 1073.25,-587.2"/>
<polygon fill="midnightblue" stroke="midnightblue" points="777.54,-658.54 767.23,-660.99 776.81,-665.5 777.54,-658.54"/>
</g>
<!-- Node16&#45;&gt;Node6 -->
<g id="edge17" class="edge">
<title>Node16&#45;&gt;Node6</title>
<path fill="none" stroke="midnightblue" d="M772.72,-446.65C845.65,-465.01 958.16,-481.32 1044,-439.5 1055.67,-433.81 1051.55,-424.2 1062,-416.5 1066.73,-413.02 1071.9,-409.89 1077.27,-407.1"/>
<polygon fill="midnightblue" stroke="midnightblue" points="773.26,-443.18 762.7,-444.06 771.51,-449.95 773.26,-443.18"/>
</g>
<!-- Node17&#45;&gt;Node7 -->
<g id="edge19" class="edge">
<title>Node17&#45;&gt;Node7</title>
<path fill="none" stroke="midnightblue" d="M777.12,-509.12C864.97,-521.55 1000.57,-535.28 1044,-509.5 1058.37,-500.97 1049.41,-487.48 1062,-476.5 1065.98,-473.03 1070.4,-469.94 1075.07,-467.2"/>
<polygon fill="midnightblue" stroke="midnightblue" points="777.58,-505.65 767.19,-507.69 776.59,-512.58 777.58,-505.65"/>
</g>
<!-- Node18&#45;&gt;Node8 -->
<g id="edge21" class="edge">
<title>Node18&#45;&gt;Node8</title>
<path fill="none" stroke="midnightblue" d="M609.78,-702.23C711.8,-708.68 894.27,-712.41 1044,-673.5 1065.91,-667.8 1088.78,-656.99 1106.81,-647.17"/>
<polygon fill="midnightblue" stroke="midnightblue" points="609.77,-698.73 599.56,-701.56 609.31,-705.71 609.77,-698.73"/>
</g>
<!-- Node19&#45;&gt;Node9 -->
<g id="edge23" class="edge">
<title>Node19&#45;&gt;Node9</title>
<path fill="none" stroke="midnightblue" d="M777.24,-582.75C865.54,-594.75 1001.91,-607.51 1044,-579.5 1061.25,-568.02 1047.11,-550.9 1062,-536.5 1065.59,-533.03 1069.61,-529.96 1073.9,-527.23"/>
<polygon fill="midnightblue" stroke="midnightblue" points="777.64,-579.27 767.25,-581.37 776.68,-586.21 777.64,-579.27"/>
</g>
<!-- Node20&#45;&gt;Node10 -->
<g id="edge25" class="edge">
<title>Node20&#45;&gt;Node10</title>
<path fill="none" stroke="midnightblue" d="M608.79,-145.2C733.92,-122.31 973.09,-86.23 1044,-129.5 1058.93,-138.61 1049.47,-152.3 1062,-164.5 1068.98,-171.3 1077.41,-177.07 1086.12,-181.9"/>
<polygon fill="midnightblue" stroke="midnightblue" points="608.07,-141.77 598.88,-147.02 609.34,-148.65 608.07,-141.77"/>
</g>
<!-- Node21&#45;&gt;Node11 -->
<g id="edge27" class="edge">
<title>Node21&#45;&gt;Node11</title>
<path fill="none" stroke="midnightblue" d="M620.46,-18.22C699.72,-20.75 818.58,-24.82 922,-29.5 968.41,-31.6 1020.32,-34.43 1061.95,-36.81"/>
<polygon fill="midnightblue" stroke="midnightblue" points="620.13,-14.71 610.03,-17.89 619.91,-21.71 620.13,-14.71"/>
</g>
<!-- Node22&#45;&gt;Node12 -->
<g id="edge29" class="edge">
<title>Node22&#45;&gt;Node12</title>
<path fill="none" stroke="midnightblue" d="M932.51,-173.04C969.1,-169.18 1011.66,-171.35 1044,-192.5 1060.31,-203.17 1047.96,-218.98 1062,-232.5 1066.69,-237.02 1072.1,-240.92 1077.85,-244.3"/>
<polygon fill="midnightblue" stroke="midnightblue" points="931.87,-169.59 922.37,-174.27 932.72,-176.54 931.87,-169.59"/>
</g>
<!-- Node23&#45;&gt;Node13 -->
<g id="edge31" class="edge">
<title>Node23&#45;&gt;Node13</title>
<path fill="none" stroke="midnightblue" d="M920.62,-254.31C959.1,-245.01 1007.13,-240.94 1044,-262.5 1058.09,-270.74 1049.69,-283.79 1062,-294.5 1066.78,-298.66 1072.18,-302.3 1077.86,-305.47"/>
<polygon fill="midnightblue" stroke="midnightblue" points="919.35,-251.02 910.55,-256.92 921.11,-257.8 919.35,-251.02"/>
</g>
<!-- Node24&#45;&gt;Node14 -->
<g id="edge33" class="edge">
<title>Node24&#45;&gt;Node14</title>
<path fill="none" stroke="midnightblue" d="M932.41,-43.5C967.49,-39.58 1008.83,-39.63 1044,-52.5 1048.43,-54.12 1090.22,-90.16 1117.48,-113.92"/>
<polygon fill="midnightblue" stroke="midnightblue" points="931.71,-40.06 922.22,-44.76 932.58,-47 931.71,-40.06"/>
</g>
</g>
</svg>
        <g id="navigator" transform="translate(0 0)" fill="#404254">
                <rect fill="#f2f5e9" fill-opacity="0.5" stroke="#606060" stroke-width=".5" x="0" y="0" width="60" height="60"/>
                <use id="zoomplus" xlink:href="#zoomPlus" x="17" y="9" onmousedown="handleZoom(evt,'in')"/>
                <use id="zoomminus" xlink:href="#zoomMin" x="42" y="9" onmousedown="handleZoom(evt,'out')"/>
                <use id="reset" xlink:href="#resetDef" x="30" y="36" onmousedown="handleReset()"/>
                <g id="arrowUp" xlink:href="#dirArrow" transform="translate(30 24)" onmousedown="handlePan(0,-1)">
                  <use xlink:href="#rim" fill="#404040">
                        <set attributeName="fill" to="#808080" begin="arrowUp.mouseover" end="arrowUp.mouseout"/>
                  </use>
                  <path fill="none" stroke="white" stroke-width="1.5" d="M0,-3.0v7 M-2.5,-0.5L0,-3.0L2.5,-0.5"/>
                </g>
                <g id="arrowRight" xlink:href="#dirArrow" transform="rotate(90) translate(36 -43)" onmousedown="handlePan(1,0)">
                  <use xlink:href="#rim" fill="#404040">
                        <set attributeName="fill" to="#808080" begin="arrowRight.mouseover" end="arrowRight.mouseout"/>
                  </use>
                  <path fill="none" stroke="white" stroke-width="1.5" d="M0,-3.0v7 M-2.5,-0.5L0,-3.0L2.5,-0.5"/>
                </g>
                <g id="arrowDown" xlink:href="#dirArrow" transform="rotate(180) translate(-30 -48)" onmousedown="handlePan(0,1)">
                  <use xlink:href="#rim" fill="#404040">
                        <set attributeName="fill" to="#808080" begin="arrowDown.mouseover" end="arrowDown.mouseout"/>
                  </use>
                  <path fill="none" stroke="white" stroke-width="1.5" d="M0,-3.0v7 M-2.5,-0.5L0,-3.0L2.5,-0.5"/>
                </g>
                <g id="arrowLeft" xlink:href="#dirArrow" transform="rotate(270) translate(-36 17)" onmousedown="handlePan(-1,0)">
                  <use xlink:href="#rim" fill="#404040">
                        <set attributeName="fill" to="#808080" begin="arrowLeft.mouseover" end="arrowLeft.mouseout"/>
                  </use>
                  <path fill="none" stroke="white" stroke-width="1.5" d="M0,-3.0v7 M-2.5,-0.5L0,-3.0L2.5,-0.5"/>
                </g>
        </g>
        <svg viewBox="0 0 15 15" width="100%" height="30px" preserveAspectRatio="xMaxYMin meet">
         <g id="arrow_out" transform="scale(0.3 0.3)">
          <a xlink:href="classlemons_1_1dsp_1_1_stream_engine__inherit__graph_org.svg" target="_base">
           <rect id="button" ry="5" rx="5" y="6" x="6" height="38" width="38"
                fill="#f2f5e9" fill-opacity="0.5" stroke="#606060" stroke-width="1.0"/>
           <path id="arrow"
             d="M 11.500037,31.436501 C 11.940474,20.09759 22.043105,11.32322 32.158766,21.979434 L 37.068811,17.246167 C 37.068811,17.246167 37.088388,32 37.088388,32 L 22.160133,31.978069 C 22.160133,31.978069 26.997745,27.140456 26.997745,27.140456 C 18.528582,18.264221 13.291696,25.230495 11.500037,31.436501 z"
             style="fill:#404040;"/>
          </a>
         </g>
        </svg>
</svg>
