<?xml version="1.0" encoding="UTF-8" standalone="no"?>
<!DOCTYPE svg PUBLIC "-//W3C//DTD SVG 1.1//EN"
 "http://www.w3.org/Graphics/SVG/1.1/DTD/svg11.dtd">
<!-- Generated by graphviz version 2.49.3 (20211023.0002)
 -->
<!-- Title: lemons::dsp::FX::Delay&lt; SampleType &gt; Pages: 1 -->
<svg width="164pt" height="240pt"
 viewBox="0.00 0.00 164.00 240.00" xmlns="http://www.w3.org/2000/svg" xmlns:xlink="http://www.w3.org/1999/xlink">
<g id="graph0" class="graph" transform="scale(1 1) rotate(0) translate(4 236)">
<title>lemons::dsp::FX::Delay&lt; SampleType &gt;</title>
<!-- Node1 -->
<g id="node1" class="node">
<title>Node1</title>
<g id="a_node1"><a xlink:title=" ">
<polygon fill="#bfbfbf" stroke="black" points="19,-0.5 19,-30.5 137,-30.5 137,-0.5 19,-0.5"/>
<text text-anchor="start" x="27" y="-18.5" font-family="Helvetica,sans-Serif" font-size="10.00">lemons::dsp::FX::Delay</text>
<text text-anchor="middle" x="78" y="-7.5" font-family="Helvetica,sans-Serif" font-size="10.00">&lt; SampleType &gt;</text>
</a>
</g>
</g>
<!-- Node2 -->
<g id="node2" class="node">
<title>Node2</title>
<g id="a_node2"><a xlink:href="structlemons_1_1dsp_1_1_f_x_1_1_level_reporting_audio_effect.html" target="_top" xlink:title="Base class for audio effects that can report their level or gain reduction.">
<polygon fill="none" stroke="black" points="0,-67.5 0,-97.5 156,-97.5 156,-67.5 0,-67.5"/>
<text text-anchor="start" x="8" y="-85.5" font-family="Helvetica,sans-Serif" font-size="10.00">lemons::dsp::FX::LevelReporting</text>
<text text-anchor="middle" x="78" y="-74.5" font-family="Helvetica,sans-Serif" font-size="10.00">AudioEffect&lt; SampleType &gt;</text>
</a>
</g>
</g>
<!-- Node2&#45;&gt;Node1 -->
<g id="edge1" class="edge">
<title>Node2&#45;&gt;Node1</title>
<path fill="none" stroke="midnightblue" d="M78,-57.11C78,-48.15 78,-38.32 78,-30.58"/>
<polygon fill="midnightblue" stroke="midnightblue" points="74.5,-57.4 78,-67.4 81.5,-57.4 74.5,-57.4"/>
</g>
<!-- Node3 -->
<g id="node3" class="node">
<title>Node3</title>
<g id="a_node3"><a xlink:href="structlemons_1_1dsp_1_1_f_x_1_1_sidechainable_audio_effect.html" target="_top" xlink:title="Base class for audio effects that accept a sidechain signal.">
<polygon fill="none" stroke="black" points="1,-134.5 1,-164.5 155,-164.5 155,-134.5 1,-134.5"/>
<text text-anchor="start" x="9" y="-152.5" font-family="Helvetica,sans-Serif" font-size="10.00">lemons::dsp::FX::Sidechainable</text>
<text text-anchor="middle" x="78" y="-141.5" font-family="Helvetica,sans-Serif" font-size="10.00">AudioEffect&lt; SampleType &gt;</text>
</a>
</g>
</g>
<!-- Node3&#45;&gt;Node2 -->
<g id="edge2" class="edge">
<title>Node3&#45;&gt;Node2</title>
<path fill="none" stroke="midnightblue" d="M78,-124.11C78,-115.15 78,-105.32 78,-97.58"/>
<polygon fill="midnightblue" stroke="midnightblue" points="74.5,-124.4 78,-134.4 81.5,-124.4 74.5,-124.4"/>
</g>
<!-- Node4 -->
<g id="node4" class="node">
<title>Node4</title>
<g id="a_node4"><a xlink:href="structlemons_1_1dsp_1_1_f_x_1_1_audio_effect.html" target="_top" xlink:title="Base class for any kind of audio effect.">
<polygon fill="none" stroke="black" points="6.5,-201.5 6.5,-231.5 149.5,-231.5 149.5,-201.5 6.5,-201.5"/>
<text text-anchor="start" x="14.5" y="-219.5" font-family="Helvetica,sans-Serif" font-size="10.00">lemons::dsp::FX::AudioEffect</text>
<text text-anchor="middle" x="78" y="-208.5" font-family="Helvetica,sans-Serif" font-size="10.00">&lt; SampleType &gt;</text>
</a>
</g>
</g>
<!-- Node4&#45;&gt;Node3 -->
<g id="edge3" class="edge">
<title>Node4&#45;&gt;Node3</title>
<path fill="none" stroke="midnightblue" d="M78,-191.11C78,-182.15 78,-172.32 78,-164.58"/>
<polygon fill="midnightblue" stroke="midnightblue" points="74.5,-191.4 78,-201.4 81.5,-191.4 74.5,-191.4"/>
</g>
</g>
</svg>
