<?xml version="1.0" encoding="UTF-8" standalone="no"?>
<!DOCTYPE svg PUBLIC "-//W3C//DTD SVG 1.1//EN"
 "http://www.w3.org/Graphics/SVG/1.1/DTD/svg11.dtd">
<!-- Generated by graphviz version 2.50.0 (20211204.2007)
 -->
<!-- Title: lemons::midi::ChoppingProcessor&lt; SampleType &gt; Pages: 1 -->
<!--zoomable 151 -->
<svg id="main" version="1.1" xmlns="http://www.w3.org/2000/svg" xmlns:xlink="http://www.w3.org/1999/xlink" xml:space="preserve" onload="init(evt)">
<style type="text/css"><![CDATA[
.edge:hover path { stroke: red; }
.edge:hover polygon { stroke: red; fill: red; }
]]></style>
<script type="text/javascript"><![CDATA[
var edges = document.getElementsByTagName('g');
if (edges && edges.length) {
  for (var i=0;i<edges.length;i++) {
    if (edges[i].id.substr(0,4)=='edge') {
      edges[i].setAttribute('class','edge');
    }
  }
}
]]></script>
        <defs>
                <circle id="rim" cx="0" cy="0" r="7"/>
                <circle id="rim2" cx="0" cy="0" r="3.5"/>
                <g id="zoomPlus">
                        <use xlink:href="#rim" fill="#404040">
                                <set attributeName="fill" to="#808080" begin="zoomplus.mouseover" end="zoomplus.mouseout"/>
                        </use>
                        <path d="M-4,0h8M0,-4v8" fill="none" stroke="white" stroke-width="1.5" pointer-events="none"/>
                </g>
                <g id="zoomMin">
                        <use xlink:href="#rim" fill="#404040">
                                <set attributeName="fill" to="#808080" begin="zoomminus.mouseover" end="zoomminus.mouseout"/>
                        </use>
                        <path d="M-4,0h8" fill="none" stroke="white" stroke-width="1.5" pointer-events="none"/>
                </g>
                <g id="dirArrow">
                        <path fill="none" stroke="white" stroke-width="1.5" d="M0,-3.0v7 M-2.5,-0.5L0,-3.0L2.5,-0.5"/>
                </g>
               <g id="resetDef">
                       <use xlink:href="#rim2" fill="#404040">
                               <set attributeName="fill" to="#808080" begin="reset.mouseover" end="reset.mouseout"/>
                       </use>
               </g>
        </defs>

<script type="text/javascript">
var viewWidth = 589;
var viewHeight = 151;
var sectionId = 'dynsection-0';
</script>
<script xlink:href="svgpan.js"/>
<svg id="graph" class="graph">
<g id="viewport">
<title>lemons::midi::ChoppingProcessor&lt; SampleType &gt;</title>
<!-- Node1 -->
<g id="node1" class="node">
<title>Node1</title>
<g id="a_node1"><a xlink:title=" ">
<polygon fill="#bfbfbf" stroke="black" points="0,-63 0,-93 164,-93 164,-63 0,-63"/>
<text text-anchor="start" x="8" y="-81" font-family="Helvetica,sans-Serif" font-size="10.00">lemons::midi::ChoppingProcessor</text>
<text text-anchor="middle" x="82" y="-70" font-family="Helvetica,sans-Serif" font-size="10.00">&lt; SampleType &gt;</text>
</a>
</g>
</g>
<!-- Node2 -->
<g id="node2" class="node">
<title>Node2</title>
<g id="a_node2"><a xlink:href="classlemons_1_1dsp_1_1synth_1_1_midi_manager.html" target="_top" xlink:title=" ">
<polygon fill="none" stroke="black" points="257,-112 257,-142 407,-142 407,-112 257,-112"/>
<text text-anchor="start" x="265" y="-130" font-family="Helvetica,sans-Serif" font-size="10.00">lemons::dsp::synth</text>
<text text-anchor="middle" x="332" y="-119" font-family="Helvetica,sans-Serif" font-size="10.00">::MidiManager&lt; SampleType &gt;</text>
</a>
</g>
</g>
<!-- Node1&#45;&gt;Node2 -->
<g id="edge1" class="edge">
<title>Node1&#45;&gt;Node2</title>
<path fill="none" stroke="midnightblue" d="M169.06,-95C197.62,-100.65 229.16,-106.88 256.75,-112.33"/>
<polygon fill="midnightblue" stroke="midnightblue" points="169.58,-91.54 159.09,-93.03 168.23,-98.41 169.58,-91.54"/>
</g>
<!-- Node3 -->
<g id="node3" class="node">
<title>Node3</title>
<g id="a_node3"><a xlink:href="classlemons_1_1midi_1_1_chopping_processor.html" target="_top" xlink:title=" ">
<polygon fill="none" stroke="black" points="250,-63 250,-93 414,-93 414,-63 250,-63"/>
<text text-anchor="start" x="258" y="-81" font-family="Helvetica,sans-Serif" font-size="10.00">lemons::midi::ChoppingProcessor</text>
<text text-anchor="middle" x="332" y="-70" font-family="Helvetica,sans-Serif" font-size="10.00">&lt; float &gt;</text>
</a>
</g>
</g>
<!-- Node1&#45;&gt;Node3 -->
<g id="edge2" class="edge">
<title>Node1&#45;&gt;Node3</title>
<path fill="none" stroke="orange" stroke-dasharray="5,2" d="M174.29,-78C198.97,-78 225.51,-78 249.61,-78"/>
<polygon fill="orange" stroke="orange" points="174.2,-74.5 164.2,-78 174.2,-81.5 174.2,-74.5"/>
<text text-anchor="middle" x="207" y="-81" font-family="Helvetica,sans-Serif" font-size="10.00"> &lt; float &gt;</text>
</g>
<!-- Node5 -->
<g id="node5" class="node">
<title>Node5</title>
<g id="a_node5"><a xlink:href="classlemons_1_1midi_1_1_chopping_processor.html" target="_top" xlink:title=" ">
<polygon fill="none" stroke="black" points="250,-9 250,-39 414,-39 414,-9 250,-9"/>
<text text-anchor="start" x="258" y="-27" font-family="Helvetica,sans-Serif" font-size="10.00">lemons::midi::ChoppingProcessor</text>
<text text-anchor="middle" x="332" y="-16" font-family="Helvetica,sans-Serif" font-size="10.00">&lt; double &gt;</text>
</a>
</g>
</g>
<!-- Node1&#45;&gt;Node5 -->
<g id="edge4" class="edge">
<title>Node1&#45;&gt;Node5</title>
<path fill="none" stroke="orange" stroke-dasharray="5,2" d="M161.89,-60.82C194.01,-53.83 230.81,-45.82 261.86,-39.05"/>
<polygon fill="orange" stroke="orange" points="161.11,-57.41 152.08,-62.96 162.6,-64.25 161.11,-57.41"/>
<text text-anchor="middle" x="207" y="-58" font-family="Helvetica,sans-Serif" font-size="10.00"> &lt; double &gt;</text>
</g>
<!-- Node4 -->
<g id="node4" class="node">
<title>Node4</title>
<g id="a_node4"><a xlink:title=" ">
<polygon fill="none" stroke="black" points="451,-60.5 451,-101.5 581,-101.5 581,-60.5 451,-60.5"/>
<text text-anchor="start" x="459" y="-89.5" font-family="Helvetica,sans-Serif" font-size="10.00">lemons::plugin::Processor</text>
<text text-anchor="start" x="459" y="-78.5" font-family="Helvetica,sans-Serif" font-size="10.00">Base::InternalProcessor</text>
<text text-anchor="middle" x="516" y="-67.5" font-family="Helvetica,sans-Serif" font-size="10.00">&lt; float &gt;</text>
</a>
</g>
</g>
<!-- Node3&#45;&gt;Node4 -->
<g id="edge3" class="edge">
<title>Node3&#45;&gt;Node4</title>
<path fill="none" stroke="midnightblue" d="M424.3,-79.5C433.3,-79.65 442.29,-79.8 450.93,-79.94"/>
<polygon fill="midnightblue" stroke="midnightblue" points="424.21,-76 414.15,-79.34 424.09,-83 424.21,-76"/>
</g>
<!-- Node6 -->
<g id="node6" class="node">
<title>Node6</title>
<g id="a_node6"><a xlink:title=" ">
<polygon fill="none" stroke="black" points="451,-0.5 451,-41.5 581,-41.5 581,-0.5 451,-0.5"/>
<text text-anchor="start" x="459" y="-29.5" font-family="Helvetica,sans-Serif" font-size="10.00">lemons::plugin::Processor</text>
<text text-anchor="start" x="459" y="-18.5" font-family="Helvetica,sans-Serif" font-size="10.00">Base::InternalProcessor</text>
<text text-anchor="middle" x="516" y="-7.5" font-family="Helvetica,sans-Serif" font-size="10.00">&lt; double &gt;</text>
</a>
</g>
</g>
<!-- Node5&#45;&gt;Node6 -->
<g id="edge5" class="edge">
<title>Node5&#45;&gt;Node6</title>
<path fill="none" stroke="midnightblue" d="M424.3,-22.5C433.3,-22.35 442.29,-22.2 450.93,-22.06"/>
<polygon fill="midnightblue" stroke="midnightblue" points="424.09,-19 414.15,-22.66 424.21,-26 424.09,-19"/>
</g>
</g>
</svg>
        <g id="navigator" transform="translate(0 0)" fill="#404254">
                <rect fill="#f2f5e9" fill-opacity="0.5" stroke="#606060" stroke-width=".5" x="0" y="0" width="60" height="60"/>
                <use id="zoomplus" xlink:href="#zoomPlus" x="17" y="9" onmousedown="handleZoom(evt,'in')"/>
                <use id="zoomminus" xlink:href="#zoomMin" x="42" y="9" onmousedown="handleZoom(evt,'out')"/>
                <use id="reset" xlink:href="#resetDef" x="30" y="36" onmousedown="handleReset()"/>
                <g id="arrowUp" xlink:href="#dirArrow" transform="translate(30 24)" onmousedown="handlePan(0,-1)">
                  <use xlink:href="#rim" fill="#404040">
                        <set attributeName="fill" to="#808080" begin="arrowUp.mouseover" end="arrowUp.mouseout"/>
                  </use>
                  <path fill="none" stroke="white" stroke-width="1.5" d="M0,-3.0v7 M-2.5,-0.5L0,-3.0L2.5,-0.5"/>
                </g>
                <g id="arrowRight" xlink:href="#dirArrow" transform="rotate(90) translate(36 -43)" onmousedown="handlePan(1,0)">
                  <use xlink:href="#rim" fill="#404040">
                        <set attributeName="fill" to="#808080" begin="arrowRight.mouseover" end="arrowRight.mouseout"/>
                  </use>
                  <path fill="none" stroke="white" stroke-width="1.5" d="M0,-3.0v7 M-2.5,-0.5L0,-3.0L2.5,-0.5"/>
                </g>
                <g id="arrowDown" xlink:href="#dirArrow" transform="rotate(180) translate(-30 -48)" onmousedown="handlePan(0,1)">
                  <use xlink:href="#rim" fill="#404040">
                        <set attributeName="fill" to="#808080" begin="arrowDown.mouseover" end="arrowDown.mouseout"/>
                  </use>
                  <path fill="none" stroke="white" stroke-width="1.5" d="M0,-3.0v7 M-2.5,-0.5L0,-3.0L2.5,-0.5"/>
                </g>
                <g id="arrowLeft" xlink:href="#dirArrow" transform="rotate(270) translate(-36 17)" onmousedown="handlePan(-1,0)">
                  <use xlink:href="#rim" fill="#404040">
                        <set attributeName="fill" to="#808080" begin="arrowLeft.mouseover" end="arrowLeft.mouseout"/>
                  </use>
                  <path fill="none" stroke="white" stroke-width="1.5" d="M0,-3.0v7 M-2.5,-0.5L0,-3.0L2.5,-0.5"/>
                </g>
        </g>
        <svg viewBox="0 0 15 15" width="100%" height="30px" preserveAspectRatio="xMaxYMin meet">
         <g id="arrow_out" transform="scale(0.3 0.3)">
          <a xlink:href="classlemons_1_1midi_1_1_chopping_processor__inherit__graph_org.svg" target="_base">
           <rect id="button" ry="5" rx="5" y="6" x="6" height="38" width="38"
                fill="#f2f5e9" fill-opacity="0.5" stroke="#606060" stroke-width="1.0"/>
           <path id="arrow"
             d="M 11.500037,31.436501 C 11.940474,20.09759 22.043105,11.32322 32.158766,21.979434 L 37.068811,17.246167 C 37.068811,17.246167 37.088388,32 37.088388,32 L 22.160133,31.978069 C 22.160133,31.978069 26.997745,27.140456 26.997745,27.140456 C 18.528582,18.264221 13.291696,25.230495 11.500037,31.436501 z"
             style="fill:#404040;"/>
          </a>
         </g>
        </svg>
</svg>
