<?xml version="1.0" encoding="UTF-8" standalone="no"?>
<!DOCTYPE svg PUBLIC "-//W3C//DTD SVG 1.1//EN"
 "http://www.w3.org/Graphics/SVG/1.1/DTD/svg11.dtd">
<!-- Generated by graphviz version 2.43.0 (0)
 -->
<!-- Title: lemons::plugin::ProcessorBase Pages: 1 -->
<svg width="322pt" height="151pt"
 viewBox="0.00 0.00 322.00 151.00" xmlns="http://www.w3.org/2000/svg" xmlns:xlink="http://www.w3.org/1999/xlink">
<g id="graph0" class="graph" transform="scale(1 1) rotate(0) translate(4 147)">
<title>lemons::plugin::ProcessorBase</title>
<!-- Node1 -->
<g id="node1" class="node">
<title>Node1</title>
<g id="a_node1"><a xlink:title="Base class for a plugin processor.">
<polygon fill="#bfbfbf" stroke="black" points="77.5,-67.5 77.5,-86.5 243.5,-86.5 243.5,-67.5 77.5,-67.5"/>
<text text-anchor="middle" x="160.5" y="-74.5" font-family="Helvetica,sans-Serif" font-size="10.00">lemons::plugin::ProcessorBase</text>
</a>
</g>
</g>
<!-- Node4 -->
<g id="node4" class="node">
<title>Node4</title>
<g id="a_node4"><a xlink:href="classlemons_1_1plugin_1_1_processor.html" target="_top" xlink:title="A processor class for a plugin that can simply be told the state type and engine type,...">
<polygon fill="none" stroke="black" points="83,-0.5 83,-30.5 238,-30.5 238,-0.5 83,-0.5"/>
<text text-anchor="start" x="91" y="-18.5" font-family="Helvetica,sans-Serif" font-size="10.00">lemons::plugin::Processor</text>
<text text-anchor="middle" x="160.5" y="-7.5" font-family="Helvetica,sans-Serif" font-size="10.00">&lt; StateType, EngineType,, &gt;</text>
</a>
</g>
</g>
<!-- Node1&#45;&gt;Node4 -->
<g id="edge3" class="edge">
<title>Node1&#45;&gt;Node4</title>
<path fill="none" stroke="midnightblue" d="M160.5,-57.23C160.5,-48.59 160.5,-38.5 160.5,-30.52"/>
<polygon fill="midnightblue" stroke="midnightblue" points="157,-57.48 160.5,-67.48 164,-57.48 157,-57.48"/>
</g>
<!-- Node2 -->
<g id="node2" class="node">
<title>Node2</title>
<g id="a_node2"><a xlink:href="classlemons_1_1dsp_1_1_basic_processor.html" target="_top" xlink:title="A default implementation of a basic, generic juce AudioProcessor.">
<polygon fill="none" stroke="black" points="0,-123.5 0,-142.5 155,-142.5 155,-123.5 0,-123.5"/>
<text text-anchor="middle" x="77.5" y="-130.5" font-family="Helvetica,sans-Serif" font-size="10.00">lemons::dsp::BasicProcessor</text>
</a>
</g>
</g>
<!-- Node2&#45;&gt;Node1 -->
<g id="edge1" class="edge">
<title>Node2&#45;&gt;Node1</title>
<path fill="none" stroke="midnightblue" d="M99.6,-117.62C114.76,-107.76 134.38,-94.99 147.2,-86.65"/>
<polygon fill="midnightblue" stroke="midnightblue" points="97.31,-114.94 90.84,-123.32 101.13,-120.8 97.31,-114.94"/>
</g>
<!-- Node3 -->
<g id="node3" class="node">
<title>Node3</title>
<g id="a_node3"><a xlink:href="structlemons_1_1_system_initializer.html" target="_top" xlink:title=" ">
<polygon fill="none" stroke="black" points="173,-123.5 173,-142.5 314,-142.5 314,-123.5 173,-123.5"/>
<text text-anchor="middle" x="243.5" y="-130.5" font-family="Helvetica,sans-Serif" font-size="10.00">lemons::SystemInitializer</text>
</a>
</g>
</g>
<!-- Node3&#45;&gt;Node1 -->
<g id="edge2" class="edge">
<title>Node3&#45;&gt;Node1</title>
<path fill="none" stroke="#8b1a1a" d="M221.4,-117.62C206.24,-107.76 186.62,-94.99 173.8,-86.65"/>
<polygon fill="#8b1a1a" stroke="#8b1a1a" points="219.87,-120.8 230.16,-123.32 223.69,-114.94 219.87,-120.8"/>
</g>
</g>
</svg>
