<?xml version="1.0" encoding="UTF-8" standalone="no"?>
<!DOCTYPE svg PUBLIC "-//W3C//DTD SVG 1.1//EN"
 "http://www.w3.org/Graphics/SVG/1.1/DTD/svg11.dtd">
<!-- Generated by graphviz version 2.49.3 (20211023.0002)
 -->
<!-- Title: lemons::dsp::SynthBase&lt; SampleType &gt; Pages: 1 -->
<svg width="812pt" height="103pt"
 viewBox="0.00 0.00 812.00 103.33" xmlns="http://www.w3.org/2000/svg" xmlns:xlink="http://www.w3.org/1999/xlink">
<g id="graph0" class="graph" transform="scale(1 1) rotate(0) translate(4 99.33)">
<title>lemons::dsp::SynthBase&lt; SampleType &gt;</title>
<!-- Node1 -->
<g id="node1" class="node">
<title>Node1</title>
<g id="a_node1"><a xlink:title=" ">
<polygon fill="#bfbfbf" stroke="black" points="0,-49.5 0,-79.5 124,-79.5 124,-49.5 0,-49.5"/>
<text text-anchor="start" x="8" y="-67.5" font-family="Helvetica,sans-Serif" font-size="10.00">lemons::dsp::SynthBase</text>
<text text-anchor="middle" x="62" y="-56.5" font-family="Helvetica,sans-Serif" font-size="10.00">&lt; SampleType &gt;</text>
</a>
</g>
</g>
<!-- Node2 -->
<g id="node2" class="node">
<title>Node2</title>
<g id="a_node2"><a xlink:href="structlemons_1_1dsp_1_1_template_synth.html" target="_top" xlink:title=" ">
<polygon fill="none" stroke="black" points="479,-41 479,-82 633,-82 633,-41 479,-41"/>
<text text-anchor="start" x="487" y="-70" font-family="Helvetica,sans-Serif" font-size="10.00">lemons::dsp::TemplateSynth</text>
<text text-anchor="start" x="487" y="-59" font-family="Helvetica,sans-Serif" font-size="10.00">&lt; SampleType, OscSynthVoice</text>
<text text-anchor="middle" x="556" y="-48" font-family="Helvetica,sans-Serif" font-size="10.00">&lt; SampleType, OscType &gt; &gt;</text>
</a>
</g>
</g>
<!-- Node1&#45;&gt;Node2 -->
<g id="edge1" class="edge">
<title>Node1&#45;&gt;Node2</title>
<path fill="none" stroke="midnightblue" d="M121.94,-82.06C134.71,-85.16 148.22,-87.89 161,-89.5 271.06,-103.32 399.33,-88.5 478.86,-75.71"/>
<polygon fill="midnightblue" stroke="midnightblue" points="122.44,-78.58 111.89,-79.53 120.73,-85.37 122.44,-78.58"/>
</g>
<!-- Node4 -->
<g id="node4" class="node">
<title>Node4</title>
<g id="a_node4"><a xlink:href="classlemons_1_1dsp_1_1_lambda_synth.html" target="_top" xlink:title=" ">
<polygon fill="none" stroke="black" points="163.5,-49.5 163.5,-79.5 299.5,-79.5 299.5,-49.5 163.5,-49.5"/>
<text text-anchor="start" x="171.5" y="-67.5" font-family="Helvetica,sans-Serif" font-size="10.00">lemons::dsp::LambdaSynth</text>
<text text-anchor="middle" x="231.5" y="-56.5" font-family="Helvetica,sans-Serif" font-size="10.00">&lt; SampleType &gt;</text>
</a>
</g>
</g>
<!-- Node1&#45;&gt;Node4 -->
<g id="edge3" class="edge">
<title>Node1&#45;&gt;Node4</title>
<path fill="none" stroke="midnightblue" d="M134.67,-64.5C144.22,-64.5 153.98,-64.5 163.44,-64.5"/>
<polygon fill="midnightblue" stroke="midnightblue" points="134.42,-61 124.42,-64.5 134.42,-68 134.42,-61"/>
</g>
<!-- Node5 -->
<g id="node5" class="node">
<title>Node5</title>
<g id="a_node5"><a xlink:href="structlemons_1_1dsp_1_1_template_synth.html" target="_top" xlink:title=" ">
<polygon fill="none" stroke="black" points="161,-0.5 161,-30.5 302,-30.5 302,-0.5 161,-0.5"/>
<text text-anchor="start" x="169" y="-18.5" font-family="Helvetica,sans-Serif" font-size="10.00">lemons::dsp::TemplateSynth</text>
<text text-anchor="middle" x="231.5" y="-7.5" font-family="Helvetica,sans-Serif" font-size="10.00">&lt; SampleType, VoiceType &gt;</text>
</a>
</g>
</g>
<!-- Node1&#45;&gt;Node5 -->
<g id="edge4" class="edge">
<title>Node1&#45;&gt;Node5</title>
<path fill="none" stroke="midnightblue" d="M124.42,-46.53C142.36,-41.28 161.79,-35.6 179.05,-30.55"/>
<polygon fill="midnightblue" stroke="midnightblue" points="123.24,-43.23 114.62,-49.4 125.2,-49.95 123.24,-43.23"/>
</g>
<!-- Node3 -->
<g id="node3" class="node">
<title>Node3</title>
<g id="a_node3"><a xlink:href="structlemons_1_1dsp_1_1_osc_synth.html" target="_top" xlink:title=" ">
<polygon fill="none" stroke="black" points="670,-46.5 670,-76.5 804,-76.5 804,-46.5 670,-46.5"/>
<text text-anchor="start" x="678" y="-64.5" font-family="Helvetica,sans-Serif" font-size="10.00">lemons::dsp::OscSynth</text>
<text text-anchor="middle" x="737" y="-53.5" font-family="Helvetica,sans-Serif" font-size="10.00">&lt; SampleType, OscType &gt;</text>
</a>
</g>
</g>
<!-- Node2&#45;&gt;Node3 -->
<g id="edge2" class="edge">
<title>Node2&#45;&gt;Node3</title>
<path fill="none" stroke="midnightblue" d="M643.22,-61.5C652.15,-61.5 661.13,-61.5 669.79,-61.5"/>
<polygon fill="midnightblue" stroke="midnightblue" points="643.17,-58 633.17,-61.5 643.17,-65 643.17,-58"/>
</g>
<!-- Node5&#45;&gt;Node2 -->
<g id="edge5" class="edge">
<title>Node5&#45;&gt;Node2</title>
<path fill="none" stroke="orange" stroke-dasharray="5,2" d="M312.05,-26.85C362.93,-34.1 428.56,-43.47 478.78,-50.63"/>
<polygon fill="orange" stroke="orange" points="312.47,-23.37 302.08,-25.42 311.49,-30.3 312.47,-23.37"/>
<text text-anchor="start" x="320" y="-61.5" font-family="Helvetica,sans-Serif" font-size="10.00"> &lt; SampleType, OscSynthVoice</text>
<text text-anchor="middle" x="390.5" y="-50.5" font-family="Helvetica,sans-Serif" font-size="10.00">&lt; SampleType, OscType &gt; &gt;</text>
</g>
</g>
</svg>
