<?xml version="1.0" encoding="UTF-8" standalone="no"?>
<!DOCTYPE svg PUBLIC "-//W3C//DTD SVG 1.1//EN"
 "http://www.w3.org/Graphics/SVG/1.1/DTD/svg11.dtd">
<!-- Generated by graphviz version 2.43.0 (0)
 -->
<!-- Title: lemons::dsp::FX::Compressor&lt; SampleType &gt; Pages: 1 -->
<svg width="182pt" height="321pt"
 viewBox="0.00 0.00 182.00 321.00" xmlns="http://www.w3.org/2000/svg" xmlns:xlink="http://www.w3.org/1999/xlink">
<g id="graph0" class="graph" transform="scale(1 1) rotate(0) translate(4 317)">
<title>lemons::dsp::FX::Compressor&lt; SampleType &gt;</title>
<!-- Node1 -->
<g id="node1" class="node">
<title>Node1</title>
<g id="a_node1"><a xlink:title="A simple compressor effect class that allows you to optionally sidechain the signal.">
<polygon fill="#bfbfbf" stroke="black" points="7.5,-78.5 7.5,-108.5 166.5,-108.5 166.5,-78.5 7.5,-78.5"/>
<text text-anchor="start" x="15.5" y="-96.5" font-family="Helvetica,sans-Serif" font-size="10.00">lemons::dsp::FX::Compressor</text>
<text text-anchor="middle" x="87" y="-85.5" font-family="Helvetica,sans-Serif" font-size="10.00">&lt; SampleType &gt;</text>
</a>
</g>
</g>
<!-- Node5 -->
<g id="node5" class="node">
<title>Node5</title>
<g id="a_node5"><a xlink:href="classlemons_1_1dsp_1_1_f_x_1_1_compressor.html" target="_top" xlink:title=" ">
<polygon fill="none" stroke="black" points="7.5,-0.5 7.5,-30.5 166.5,-30.5 166.5,-0.5 7.5,-0.5"/>
<text text-anchor="start" x="15.5" y="-18.5" font-family="Helvetica,sans-Serif" font-size="10.00">lemons::dsp::FX::Compressor</text>
<text text-anchor="middle" x="87" y="-7.5" font-family="Helvetica,sans-Serif" font-size="10.00">&lt; float &gt;</text>
</a>
</g>
</g>
<!-- Node1&#45;&gt;Node5 -->
<g id="edge4" class="edge">
<title>Node1&#45;&gt;Node5</title>
<path fill="none" stroke="orange" stroke-dasharray="5,2" d="M87,-68.09C87,-55.76 87,-41.22 87,-30.73"/>
<polygon fill="orange" stroke="orange" points="83.5,-68.2 87,-78.2 90.5,-68.21 83.5,-68.2"/>
<text text-anchor="middle" x="111" y="-52" font-family="Helvetica,sans-Serif" font-size="10.00"> &lt; float &gt;</text>
</g>
<!-- Node2 -->
<g id="node2" class="node">
<title>Node2</title>
<g id="a_node2"><a xlink:href="structlemons_1_1dsp_1_1_f_x_1_1_level_reporting_audio_effect.html" target="_top" xlink:title="Base class for audio effects that can report their level or gain reduction.">
<polygon fill="none" stroke="black" points="0,-146.5 0,-176.5 174,-176.5 174,-146.5 0,-146.5"/>
<text text-anchor="start" x="8" y="-164.5" font-family="Helvetica,sans-Serif" font-size="10.00">lemons::dsp::FX::LevelReporting</text>
<text text-anchor="middle" x="87" y="-153.5" font-family="Helvetica,sans-Serif" font-size="10.00">AudioEffect&lt; SampleType &gt;</text>
</a>
</g>
</g>
<!-- Node2&#45;&gt;Node1 -->
<g id="edge1" class="edge">
<title>Node2&#45;&gt;Node1</title>
<path fill="none" stroke="midnightblue" d="M87,-136.03C87,-126.86 87,-116.74 87,-108.79"/>
<polygon fill="midnightblue" stroke="midnightblue" points="83.5,-136.18 87,-146.18 90.5,-136.18 83.5,-136.18"/>
</g>
<!-- Node3 -->
<g id="node3" class="node">
<title>Node3</title>
<g id="a_node3"><a xlink:href="structlemons_1_1dsp_1_1_f_x_1_1_sidechainable_audio_effect.html" target="_top" xlink:title="Base class for audio effects that accept a sidechain signal.">
<polygon fill="none" stroke="black" points="2.5,-214.5 2.5,-244.5 171.5,-244.5 171.5,-214.5 2.5,-214.5"/>
<text text-anchor="start" x="10.5" y="-232.5" font-family="Helvetica,sans-Serif" font-size="10.00">lemons::dsp::FX::Sidechainable</text>
<text text-anchor="middle" x="87" y="-221.5" font-family="Helvetica,sans-Serif" font-size="10.00">AudioEffect&lt; SampleType &gt;</text>
</a>
</g>
</g>
<!-- Node3&#45;&gt;Node2 -->
<g id="edge2" class="edge">
<title>Node3&#45;&gt;Node2</title>
<path fill="none" stroke="midnightblue" d="M87,-204.03C87,-194.86 87,-184.74 87,-176.79"/>
<polygon fill="midnightblue" stroke="midnightblue" points="83.5,-204.18 87,-214.18 90.5,-204.18 83.5,-204.18"/>
</g>
<!-- Node4 -->
<g id="node4" class="node">
<title>Node4</title>
<g id="a_node4"><a xlink:href="structlemons_1_1dsp_1_1_f_x_1_1_audio_effect.html" target="_top" xlink:title="Base class for any kind of audio effect.">
<polygon fill="none" stroke="black" points="9,-282.5 9,-312.5 165,-312.5 165,-282.5 9,-282.5"/>
<text text-anchor="start" x="17" y="-300.5" font-family="Helvetica,sans-Serif" font-size="10.00">lemons::dsp::FX::AudioEffect</text>
<text text-anchor="middle" x="87" y="-289.5" font-family="Helvetica,sans-Serif" font-size="10.00">&lt; SampleType &gt;</text>
</a>
</g>
</g>
<!-- Node4&#45;&gt;Node3 -->
<g id="edge3" class="edge">
<title>Node4&#45;&gt;Node3</title>
<path fill="none" stroke="midnightblue" d="M87,-272.03C87,-262.86 87,-252.74 87,-244.79"/>
<polygon fill="midnightblue" stroke="midnightblue" points="83.5,-272.18 87,-282.18 90.5,-272.18 83.5,-272.18"/>
</g>
</g>
</svg>
