<?xml version="1.0" encoding="UTF-8" standalone="no"?>
<!DOCTYPE svg PUBLIC "-//W3C//DTD SVG 1.1//EN"
 "http://www.w3.org/Graphics/SVG/1.1/DTD/svg11.dtd">
<!-- Generated by graphviz version 2.43.0 (0)
 -->
<!-- Title: lemons::dsp::osc::Engine&lt; SampleType, Osctype, &gt; Pages: 1 -->
<svg width="634pt" height="587pt"
 viewBox="0.00 0.00 634.00 587.00" xmlns="http://www.w3.org/2000/svg" xmlns:xlink="http://www.w3.org/1999/xlink">
<g id="graph0" class="graph" transform="scale(1 1) rotate(0) translate(4 583)">
<title>lemons::dsp::osc::Engine&lt; SampleType, Osctype, &gt;</title>
<!-- Node1 -->
<g id="node1" class="node">
<title>Node1</title>
<g id="a_node1"><a xlink:title=" ">
<polygon fill="#bfbfbf" stroke="black" points="152,-276 152,-306 299,-306 299,-276 152,-276"/>
<text text-anchor="start" x="160" y="-294" font-family="Helvetica,sans-Serif" font-size="10.00">lemons::dsp::osc::Engine</text>
<text text-anchor="middle" x="225.5" y="-283" font-family="Helvetica,sans-Serif" font-size="10.00">&lt; SampleType, Osctype, &gt;</text>
</a>
</g>
</g>
<!-- Node3 -->
<g id="node3" class="node">
<title>Node3</title>
<g id="a_node3"><a xlink:href="classlemons_1_1dsp_1_1osc_1_1_engine.html" target="_top" xlink:title=" ">
<polygon fill="none" stroke="black" points="462.5,-530.5 462.5,-571.5 614.5,-571.5 614.5,-530.5 462.5,-530.5"/>
<text text-anchor="start" x="470.5" y="-559.5" font-family="Helvetica,sans-Serif" font-size="10.00">lemons::dsp::osc::Engine</text>
<text text-anchor="start" x="470.5" y="-548.5" font-family="Helvetica,sans-Serif" font-size="10.00">&lt; SampleType, lemons::dsp</text>
<text text-anchor="middle" x="538.5" y="-537.5" font-family="Helvetica,sans-Serif" font-size="10.00">::osc::Sine &gt;</text>
</a>
</g>
</g>
<!-- Node1&#45;&gt;Node3 -->
<g id="edge2" class="edge">
<title>Node1&#45;&gt;Node3</title>
<path fill="none" stroke="orange" stroke-dasharray="5,2" d="M228.38,-316.32C233.42,-364.63 251.71,-469.74 317,-521 357.64,-552.91 416.01,-559.66 462.48,-558.84"/>
<polygon fill="orange" stroke="orange" points="231.84,-315.74 227.42,-306.11 224.87,-316.39 231.84,-315.74"/>
<text text-anchor="start" x="317" y="-571" font-family="Helvetica,sans-Serif" font-size="10.00"> &lt; SampleType, lemons</text>
<text text-anchor="middle" x="375" y="-560" font-family="Helvetica,sans-Serif" font-size="10.00">::dsp::osc::Sine &gt;</text>
</g>
<!-- Node4 -->
<g id="node4" class="node">
<title>Node4</title>
<g id="a_node4"><a xlink:href="classlemons_1_1dsp_1_1osc_1_1_engine.html" target="_top" xlink:title=" ">
<polygon fill="none" stroke="black" points="451,-481 451,-511 626,-511 626,-481 451,-481"/>
<text text-anchor="start" x="459" y="-499" font-family="Helvetica,sans-Serif" font-size="10.00">lemons::dsp::osc::Engine</text>
<text text-anchor="middle" x="538.5" y="-488" font-family="Helvetica,sans-Serif" font-size="10.00">&lt; float, lemons::dsp::osc::Saw &gt;</text>
</a>
</g>
</g>
<!-- Node1&#45;&gt;Node4 -->
<g id="edge3" class="edge">
<title>Node1&#45;&gt;Node4</title>
<path fill="none" stroke="orange" stroke-dasharray="5,2" d="M232.88,-316.21C243.61,-353.17 268.99,-421.41 317,-456 355.43,-483.69 407.18,-494.09 450.89,-497.38"/>
<polygon fill="orange" stroke="orange" points="236.16,-314.95 230.12,-306.25 229.41,-316.82 236.16,-314.95"/>
<text text-anchor="start" x="324" y="-509" font-family="Helvetica,sans-Serif" font-size="10.00"> &lt; float, lemons::dsp</text>
<text text-anchor="middle" x="375" y="-498" font-family="Helvetica,sans-Serif" font-size="10.00">::osc::Saw &gt;</text>
</g>
<!-- Node5 -->
<g id="node5" class="node">
<title>Node5</title>
<g id="a_node5"><a xlink:href="classlemons_1_1dsp_1_1osc_1_1_engine.html" target="_top" xlink:title=" ">
<polygon fill="none" stroke="black" points="462.5,-420.5 462.5,-461.5 614.5,-461.5 614.5,-420.5 462.5,-420.5"/>
<text text-anchor="start" x="470.5" y="-449.5" font-family="Helvetica,sans-Serif" font-size="10.00">lemons::dsp::osc::Engine</text>
<text text-anchor="start" x="470.5" y="-438.5" font-family="Helvetica,sans-Serif" font-size="10.00">&lt; SampleType, lemons::dsp</text>
<text text-anchor="middle" x="538.5" y="-427.5" font-family="Helvetica,sans-Serif" font-size="10.00">::osc::Saw &gt;</text>
</a>
</g>
</g>
<!-- Node1&#45;&gt;Node5 -->
<g id="edge4" class="edge">
<title>Node1&#45;&gt;Node5</title>
<path fill="none" stroke="orange" stroke-dasharray="5,2" d="M241.55,-314.75C257.46,-337.85 284.7,-372.11 317,-391 361.22,-416.86 417.66,-429.34 462.36,-435.37"/>
<polygon fill="orange" stroke="orange" points="244.3,-312.57 235.83,-306.21 238.49,-316.47 244.3,-312.57"/>
<text text-anchor="start" x="317" y="-444" font-family="Helvetica,sans-Serif" font-size="10.00"> &lt; SampleType, lemons</text>
<text text-anchor="middle" x="375" y="-433" font-family="Helvetica,sans-Serif" font-size="10.00">::dsp::osc::Saw &gt;</text>
</g>
<!-- Node6 -->
<g id="node6" class="node">
<title>Node6</title>
<g id="a_node6"><a xlink:href="classlemons_1_1dsp_1_1osc_1_1_engine.html" target="_top" xlink:title=" ">
<polygon fill="none" stroke="black" points="470,-360.5 470,-401.5 607,-401.5 607,-360.5 470,-360.5"/>
<text text-anchor="start" x="478" y="-389.5" font-family="Helvetica,sans-Serif" font-size="10.00">lemons::dsp::osc::Engine</text>
<text text-anchor="start" x="478" y="-378.5" font-family="Helvetica,sans-Serif" font-size="10.00">&lt; float, lemons::dsp::osc</text>
<text text-anchor="middle" x="538.5" y="-367.5" font-family="Helvetica,sans-Serif" font-size="10.00">::SuperSaw &gt;</text>
</a>
</g>
</g>
<!-- Node1&#45;&gt;Node6 -->
<g id="edge5" class="edge">
<title>Node1&#45;&gt;Node6</title>
<path fill="none" stroke="orange" stroke-dasharray="5,2" d="M260.22,-310.92C276.84,-320.01 297.47,-330.23 317,-337 366.79,-354.26 425.39,-365.55 469.66,-372.37"/>
<polygon fill="orange" stroke="orange" points="261.86,-307.83 251.43,-306.02 258.45,-313.94 261.86,-307.83"/>
<text text-anchor="start" x="324" y="-379" font-family="Helvetica,sans-Serif" font-size="10.00"> &lt; float, lemons::dsp</text>
<text text-anchor="middle" x="375" y="-368" font-family="Helvetica,sans-Serif" font-size="10.00">::osc::SuperSaw &gt;</text>
</g>
<!-- Node7 -->
<g id="node7" class="node">
<title>Node7</title>
<g id="a_node7"><a xlink:href="classlemons_1_1dsp_1_1osc_1_1_engine.html" target="_top" xlink:title=" ">
<polygon fill="none" stroke="black" points="470,-300.5 470,-341.5 607,-341.5 607,-300.5 470,-300.5"/>
<text text-anchor="start" x="478" y="-329.5" font-family="Helvetica,sans-Serif" font-size="10.00">lemons::dsp::osc::Engine</text>
<text text-anchor="start" x="478" y="-318.5" font-family="Helvetica,sans-Serif" font-size="10.00">&lt; float, lemons::dsp::osc</text>
<text text-anchor="middle" x="538.5" y="-307.5" font-family="Helvetica,sans-Serif" font-size="10.00">::Square &gt;</text>
</a>
</g>
</g>
<!-- Node1&#45;&gt;Node7 -->
<g id="edge6" class="edge">
<title>Node1&#45;&gt;Node7</title>
<path fill="none" stroke="orange" stroke-dasharray="5,2" d="M309.21,-298.98C359.42,-303.82 422.72,-309.93 469.92,-314.48"/>
<polygon fill="orange" stroke="orange" points="309.31,-295.47 299.02,-298 308.64,-302.44 309.31,-295.47"/>
<text text-anchor="start" x="324" y="-325" font-family="Helvetica,sans-Serif" font-size="10.00"> &lt; float, lemons::dsp</text>
<text text-anchor="middle" x="375" y="-314" font-family="Helvetica,sans-Serif" font-size="10.00">::osc::Square &gt;</text>
</g>
<!-- Node8 -->
<g id="node8" class="node">
<title>Node8</title>
<g id="a_node8"><a xlink:href="classlemons_1_1dsp_1_1osc_1_1_engine.html" target="_top" xlink:title=" ">
<polygon fill="none" stroke="black" points="462.5,-240.5 462.5,-281.5 614.5,-281.5 614.5,-240.5 462.5,-240.5"/>
<text text-anchor="start" x="470.5" y="-269.5" font-family="Helvetica,sans-Serif" font-size="10.00">lemons::dsp::osc::Engine</text>
<text text-anchor="start" x="470.5" y="-258.5" font-family="Helvetica,sans-Serif" font-size="10.00">&lt; SampleType, lemons::dsp</text>
<text text-anchor="middle" x="538.5" y="-247.5" font-family="Helvetica,sans-Serif" font-size="10.00">::osc::Triangle &gt;</text>
</a>
</g>
</g>
<!-- Node1&#45;&gt;Node8 -->
<g id="edge7" class="edge">
<title>Node1&#45;&gt;Node8</title>
<path fill="none" stroke="orange" stroke-dasharray="5,2" d="M309.41,-275C311.97,-274.64 314.5,-274.31 317,-274 365.15,-268.08 419.55,-264.84 462.27,-263.07"/>
<polygon fill="orange" stroke="orange" points="308.86,-271.54 299.48,-276.47 309.88,-278.46 308.86,-271.54"/>
<text text-anchor="start" x="317" y="-288" font-family="Helvetica,sans-Serif" font-size="10.00"> &lt; SampleType, lemons</text>
<text text-anchor="middle" x="375" y="-277" font-family="Helvetica,sans-Serif" font-size="10.00">::dsp::osc::Triangle &gt;</text>
</g>
<!-- Node9 -->
<g id="node9" class="node">
<title>Node9</title>
<g id="a_node9"><a xlink:href="classlemons_1_1dsp_1_1osc_1_1_engine.html" target="_top" xlink:title=" ">
<polygon fill="none" stroke="black" points="470,-180.5 470,-221.5 607,-221.5 607,-180.5 470,-180.5"/>
<text text-anchor="start" x="478" y="-209.5" font-family="Helvetica,sans-Serif" font-size="10.00">lemons::dsp::osc::Engine</text>
<text text-anchor="start" x="478" y="-198.5" font-family="Helvetica,sans-Serif" font-size="10.00">&lt; float, lemons::dsp::osc</text>
<text text-anchor="middle" x="538.5" y="-187.5" font-family="Helvetica,sans-Serif" font-size="10.00">::Sine &gt;</text>
</a>
</g>
</g>
<!-- Node1&#45;&gt;Node9 -->
<g id="edge8" class="edge">
<title>Node1&#45;&gt;Node9</title>
<path fill="none" stroke="orange" stroke-dasharray="5,2" d="M256.18,-270.39C273.25,-259.47 295.52,-246.75 317,-239 366.51,-221.14 425.39,-211.55 469.84,-206.46"/>
<polygon fill="orange" stroke="orange" points="254.21,-267.5 247.76,-275.9 258.04,-273.35 254.21,-267.5"/>
<text text-anchor="start" x="324" y="-253" font-family="Helvetica,sans-Serif" font-size="10.00"> &lt; float, lemons::dsp</text>
<text text-anchor="middle" x="375" y="-242" font-family="Helvetica,sans-Serif" font-size="10.00">::osc::Sine &gt;</text>
</g>
<!-- Node10 -->
<g id="node10" class="node">
<title>Node10</title>
<g id="a_node10"><a xlink:href="classlemons_1_1dsp_1_1osc_1_1_engine.html" target="_top" xlink:title=" ">
<polygon fill="none" stroke="black" points="462.5,-120.5 462.5,-161.5 614.5,-161.5 614.5,-120.5 462.5,-120.5"/>
<text text-anchor="start" x="470.5" y="-149.5" font-family="Helvetica,sans-Serif" font-size="10.00">lemons::dsp::osc::Engine</text>
<text text-anchor="start" x="470.5" y="-138.5" font-family="Helvetica,sans-Serif" font-size="10.00">&lt; SampleType, lemons::dsp</text>
<text text-anchor="middle" x="538.5" y="-127.5" font-family="Helvetica,sans-Serif" font-size="10.00">::osc::SuperSaw &gt;</text>
</a>
</g>
</g>
<!-- Node1&#45;&gt;Node10 -->
<g id="edge9" class="edge">
<title>Node1&#45;&gt;Node10</title>
<path fill="none" stroke="orange" stroke-dasharray="5,2" d="M240.46,-267.02C255.97,-242.65 283.31,-205.75 317,-186 361.07,-160.16 417.64,-148.98 462.45,-144.22"/>
<polygon fill="orange" stroke="orange" points="237.39,-265.34 235.11,-275.69 243.35,-269.02 237.39,-265.34"/>
<text text-anchor="start" x="317" y="-200" font-family="Helvetica,sans-Serif" font-size="10.00"> &lt; SampleType, lemons</text>
<text text-anchor="middle" x="375" y="-189" font-family="Helvetica,sans-Serif" font-size="10.00">::dsp::osc::SuperSaw &gt;</text>
</g>
<!-- Node11 -->
<g id="node11" class="node">
<title>Node11</title>
<g id="a_node11"><a xlink:href="classlemons_1_1dsp_1_1osc_1_1_engine.html" target="_top" xlink:title=" ">
<polygon fill="none" stroke="black" points="462.5,-60.5 462.5,-101.5 614.5,-101.5 614.5,-60.5 462.5,-60.5"/>
<text text-anchor="start" x="470.5" y="-89.5" font-family="Helvetica,sans-Serif" font-size="10.00">lemons::dsp::osc::Engine</text>
<text text-anchor="start" x="470.5" y="-78.5" font-family="Helvetica,sans-Serif" font-size="10.00">&lt; SampleType, lemons::dsp</text>
<text text-anchor="middle" x="538.5" y="-67.5" font-family="Helvetica,sans-Serif" font-size="10.00">::osc::Square &gt;</text>
</a>
</g>
</g>
<!-- Node1&#45;&gt;Node11 -->
<g id="edge10" class="edge">
<title>Node1&#45;&gt;Node11</title>
<path fill="none" stroke="orange" stroke-dasharray="5,2" d="M232.7,-265.68C243.26,-228.19 268.48,-158.56 317,-123 358.73,-92.42 416.47,-82.26 462.4,-79.57"/>
<polygon fill="orange" stroke="orange" points="229.2,-265.21 229.99,-275.77 235.96,-267.02 229.2,-265.21"/>
<text text-anchor="start" x="317" y="-137" font-family="Helvetica,sans-Serif" font-size="10.00"> &lt; SampleType, lemons</text>
<text text-anchor="middle" x="375" y="-126" font-family="Helvetica,sans-Serif" font-size="10.00">::dsp::osc::Square &gt;</text>
</g>
<!-- Node12 -->
<g id="node12" class="node">
<title>Node12</title>
<g id="a_node12"><a xlink:href="classlemons_1_1dsp_1_1osc_1_1_engine.html" target="_top" xlink:title=" ">
<polygon fill="none" stroke="black" points="470,-0.5 470,-41.5 607,-41.5 607,-0.5 470,-0.5"/>
<text text-anchor="start" x="478" y="-29.5" font-family="Helvetica,sans-Serif" font-size="10.00">lemons::dsp::osc::Engine</text>
<text text-anchor="start" x="478" y="-18.5" font-family="Helvetica,sans-Serif" font-size="10.00">&lt; float, lemons::dsp::osc</text>
<text text-anchor="middle" x="538.5" y="-7.5" font-family="Helvetica,sans-Serif" font-size="10.00">::Triangle &gt;</text>
</a>
</g>
</g>
<!-- Node1&#45;&gt;Node12 -->
<g id="edge11" class="edge">
<title>Node1&#45;&gt;Node12</title>
<path fill="none" stroke="orange" stroke-dasharray="5,2" d="M228.32,-265.72C233.28,-217 251.44,-110.21 317,-57 359.54,-22.47 422.26,-15.09 469.95,-15.4"/>
<polygon fill="orange" stroke="orange" points="224.83,-265.46 227.41,-275.73 231.8,-266.09 224.83,-265.46"/>
<text text-anchor="start" x="324" y="-71" font-family="Helvetica,sans-Serif" font-size="10.00"> &lt; float, lemons::dsp</text>
<text text-anchor="middle" x="375" y="-60" font-family="Helvetica,sans-Serif" font-size="10.00">::osc::Triangle &gt;</text>
</g>
<!-- Node2 -->
<g id="node2" class="node">
<title>Node2</title>
<g id="a_node2"><a xlink:href="classlemons_1_1dsp_1_1_engine.html" target="_top" xlink:title=" ">
<polygon fill="none" stroke="black" points="0,-276 0,-306 115,-306 115,-276 0,-276"/>
<text text-anchor="start" x="8" y="-294" font-family="Helvetica,sans-Serif" font-size="10.00">lemons::dsp::Engine</text>
<text text-anchor="middle" x="57.5" y="-283" font-family="Helvetica,sans-Serif" font-size="10.00">&lt; SampleType &gt;</text>
</a>
</g>
</g>
<!-- Node2&#45;&gt;Node1 -->
<g id="edge1" class="edge">
<title>Node2&#45;&gt;Node1</title>
<path fill="none" stroke="midnightblue" d="M125.31,-291C134.08,-291 143.09,-291 151.95,-291"/>
<polygon fill="midnightblue" stroke="midnightblue" points="125.16,-287.5 115.16,-291 125.16,-294.5 125.16,-287.5"/>
</g>
</g>
</svg>
