<?xml version="1.0" encoding="UTF-8" standalone="no"?>
<!DOCTYPE svg PUBLIC "-//W3C//DTD SVG 1.1//EN"
 "http://www.w3.org/Graphics/SVG/1.1/DTD/svg11.dtd">
<!-- Generated by graphviz version 2.43.0 (0)
 -->
<!-- Title: lemons::dsp::Engine&lt; SampleType &gt; Pages: 1 -->
<!--zoomable 746 -->
<svg id="main" version="1.1" xmlns="http://www.w3.org/2000/svg" xmlns:xlink="http://www.w3.org/1999/xlink" xml:space="preserve" onload="init(evt)">
<style type="text/css"><![CDATA[
.edge:hover path { stroke: red; }
.edge:hover polygon { stroke: red; fill: red; }
]]></style>
<script type="text/javascript"><![CDATA[
var edges = document.getElementsByTagName('g');
if (edges && edges.length) {
  for (var i=0;i<edges.length;i++) {
    if (edges[i].id.substr(0,4)=='edge') {
      edges[i].setAttribute('class','edge');
    }
  }
}
]]></script>
        <defs>
                <circle id="rim" cx="0" cy="0" r="7"/>
                <circle id="rim2" cx="0" cy="0" r="3.5"/>
                <g id="zoomPlus">
                        <use xlink:href="#rim" fill="#404040">
                                <set attributeName="fill" to="#808080" begin="zoomplus.mouseover" end="zoomplus.mouseout"/>
                        </use>
                        <path d="M-4,0h8M0,-4v8" fill="none" stroke="white" stroke-width="1.5" pointer-events="none"/>
                </g>
                <g id="zoomMin">
                        <use xlink:href="#rim" fill="#404040">
                                <set attributeName="fill" to="#808080" begin="zoomminus.mouseover" end="zoomminus.mouseout"/>
                        </use>
                        <path d="M-4,0h8" fill="none" stroke="white" stroke-width="1.5" pointer-events="none"/>
                </g>
                <g id="dirArrow">
                        <path fill="none" stroke="white" stroke-width="1.5" d="M0,-3.0v7 M-2.5,-0.5L0,-3.0L2.5,-0.5"/>
                </g>
               <g id="resetDef">
                       <use xlink:href="#rim2" fill="#404040">
                               <set attributeName="fill" to="#808080" begin="reset.mouseover" end="reset.mouseout"/>
                       </use>
               </g>
        </defs>

<script type="text/javascript">
var viewWidth = 901;
var viewHeight = 746;
var sectionId = 'dynsection-0';
</script>
<script xlink:href="svgpan.js"/>
<svg id="graph" class="graph">
<g id="viewport">
<title>lemons::dsp::Engine&lt; SampleType &gt;</title>
<!-- Node1 -->
<g id="node1" class="node">
<title>Node1</title>
<g id="a_node1"><a xlink:title="Base class for an audio engine.">
<polygon fill="#bfbfbf" stroke="black" points="0,-467.74 0,-497.74 115,-497.74 115,-467.74 0,-467.74"/>
<text text-anchor="start" x="8" y="-485.74" font-family="Helvetica,sans-Serif" font-size="10.00">lemons::dsp::Engine</text>
<text text-anchor="middle" x="57.5" y="-474.74" font-family="Helvetica,sans-Serif" font-size="10.00">&lt; SampleType &gt;</text>
</a>
</g>
</g>
<!-- Node2 -->
<g id="node2" class="node">
<title>Node2</title>
<g id="a_node2"><a xlink:href="classlemons_1_1dsp_1_1_f_x_1_1_effect_engine.html" target="_top" xlink:title=" ">
<polygon fill="none" stroke="black" points="389,-707.74 389,-737.74 505,-737.74 505,-707.74 389,-707.74"/>
<text text-anchor="start" x="397" y="-725.74" font-family="Helvetica,sans-Serif" font-size="10.00">EffectEngine&lt; Filter,</text>
<text text-anchor="middle" x="447" y="-714.74" font-family="Helvetica,sans-Serif" font-size="10.00"> SampleType &gt;</text>
</a>
</g>
</g>
<!-- Node1&#45;&gt;Node2 -->
<g id="edge1" class="edge">
<title>Node1&#45;&gt;Node2</title>
<path fill="none" stroke="midnightblue" d="M65.97,-507.62C82.41,-557.12 127.03,-666.4 210,-703.74 266.79,-729.3 339.01,-731.26 388.52,-728.61"/>
<polygon fill="midnightblue" stroke="midnightblue" points="69.27,-506.46 62.88,-498.01 62.61,-508.6 69.27,-506.46"/>
</g>
<!-- Node4 -->
<g id="node4" class="node">
<title>Node4</title>
<g id="a_node4"><a xlink:href="classlemons_1_1dsp_1_1osc_1_1_engine.html" target="_top" xlink:title=" ">
<polygon fill="none" stroke="black" points="221,-614.74 221,-644.74 360,-644.74 360,-614.74 221,-614.74"/>
<text text-anchor="start" x="229" y="-632.74" font-family="Helvetica,sans-Serif" font-size="10.00">Engine&lt; SampleType,</text>
<text text-anchor="middle" x="290.5" y="-621.74" font-family="Helvetica,sans-Serif" font-size="10.00"> lemons::dsp::osc::Saw &gt;</text>
</a>
</g>
</g>
<!-- Node1&#45;&gt;Node4 -->
<g id="edge3" class="edge">
<title>Node1&#45;&gt;Node4</title>
<path fill="none" stroke="midnightblue" d="M79.98,-505.41C107.53,-533.15 157.97,-579.63 210,-605.74 216.7,-609.11 223.96,-612.09 231.27,-614.72"/>
<polygon fill="midnightblue" stroke="midnightblue" points="82.34,-502.82 72.84,-498.12 77.34,-507.71 82.34,-502.82"/>
</g>
<!-- Node5 -->
<g id="node5" class="node">
<title>Node5</title>
<g id="a_node5"><a xlink:href="classlemons_1_1dsp_1_1osc_1_1_engine.html" target="_top" xlink:title=" ">
<polygon fill="none" stroke="black" points="220.5,-565.74 220.5,-595.74 360.5,-595.74 360.5,-565.74 220.5,-565.74"/>
<text text-anchor="start" x="228.5" y="-583.74" font-family="Helvetica,sans-Serif" font-size="10.00">Engine&lt; SampleType,</text>
<text text-anchor="middle" x="290.5" y="-572.74" font-family="Helvetica,sans-Serif" font-size="10.00"> lemons::dsp::osc::Sine &gt;</text>
</a>
</g>
</g>
<!-- Node1&#45;&gt;Node5 -->
<g id="edge4" class="edge">
<title>Node1&#45;&gt;Node5</title>
<path fill="none" stroke="midnightblue" d="M94.72,-502.49C124.96,-518.48 169.5,-540.86 210,-556.74 218.05,-559.9 226.7,-562.9 235.22,-565.63"/>
<polygon fill="midnightblue" stroke="midnightblue" points="96.29,-499.36 85.82,-497.75 93,-505.54 96.29,-499.36"/>
</g>
<!-- Node6 -->
<g id="node6" class="node">
<title>Node6</title>
<g id="a_node6"><a xlink:href="classlemons_1_1dsp_1_1osc_1_1_engine.html" target="_top" xlink:title=" ">
<polygon fill="none" stroke="black" points="214.5,-516.74 214.5,-546.74 366.5,-546.74 366.5,-516.74 214.5,-516.74"/>
<text text-anchor="start" x="222.5" y="-534.74" font-family="Helvetica,sans-Serif" font-size="10.00">Engine&lt; SampleType,</text>
<text text-anchor="middle" x="290.5" y="-523.74" font-family="Helvetica,sans-Serif" font-size="10.00"> lemons::dsp::osc::Square &gt;</text>
</a>
</g>
</g>
<!-- Node1&#45;&gt;Node6 -->
<g id="edge5" class="edge">
<title>Node1&#45;&gt;Node6</title>
<path fill="none" stroke="midnightblue" d="M125.15,-496.88C154.45,-503.1 188.91,-510.41 218.68,-516.72"/>
<polygon fill="midnightblue" stroke="midnightblue" points="125.52,-493.38 115.01,-494.73 124.07,-500.23 125.52,-493.38"/>
</g>
<!-- Node7 -->
<g id="node7" class="node">
<title>Node7</title>
<g id="a_node7"><a xlink:href="classlemons_1_1dsp_1_1osc_1_1_engine.html" target="_top" xlink:title=" ">
<polygon fill="none" stroke="black" points="212,-467.74 212,-497.74 369,-497.74 369,-467.74 212,-467.74"/>
<text text-anchor="start" x="220" y="-485.74" font-family="Helvetica,sans-Serif" font-size="10.00">Engine&lt; SampleType,</text>
<text text-anchor="middle" x="290.5" y="-474.74" font-family="Helvetica,sans-Serif" font-size="10.00"> lemons::dsp::osc::Triangle &gt;</text>
</a>
</g>
</g>
<!-- Node1&#45;&gt;Node7 -->
<g id="edge6" class="edge">
<title>Node1&#45;&gt;Node7</title>
<path fill="none" stroke="midnightblue" d="M125.15,-482.74C152.22,-482.74 183.67,-482.74 211.77,-482.74"/>
<polygon fill="midnightblue" stroke="midnightblue" points="125.01,-479.24 115.01,-482.74 125.01,-486.24 125.01,-479.24"/>
</g>
<!-- Node8 -->
<g id="node8" class="node">
<title>Node8</title>
<g id="a_node8"><a xlink:href="classlemons_1_1dsp_1_1_f_x_1_1_effect_engine.html" target="_top" xlink:title="A class that wraps an AudioEffect into a dsp::Engine.">
<polygon fill="none" stroke="black" points="210,-663.74 210,-693.74 371,-693.74 371,-663.74 210,-663.74"/>
<text text-anchor="start" x="218" y="-681.74" font-family="Helvetica,sans-Serif" font-size="10.00">lemons::dsp::FX::EffectEngine</text>
<text text-anchor="middle" x="290.5" y="-670.74" font-family="Helvetica,sans-Serif" font-size="10.00">&lt; SampleType &gt;</text>
</a>
</g>
</g>
<!-- Node1&#45;&gt;Node8 -->
<g id="edge7" class="edge">
<title>Node1&#45;&gt;Node8</title>
<path fill="none" stroke="midnightblue" d="M71.98,-506.75C94.9,-545.07 145.32,-619.33 210,-654.74 216.2,-658.14 222.93,-661.11 229.78,-663.7"/>
<polygon fill="midnightblue" stroke="midnightblue" points="74.83,-504.69 66.76,-497.83 68.79,-508.23 74.83,-504.69"/>
</g>
<!-- Node10 -->
<g id="node10" class="node">
<title>Node10</title>
<g id="a_node10"><a xlink:href="classlemons_1_1dsp_1_1_latency_engine.html" target="_top" xlink:title="Base class for audio engines that require latency (ie, a consistent block size) for their processing.">
<polygon fill="none" stroke="black" points="214,-418.74 214,-448.74 367,-448.74 367,-418.74 214,-418.74"/>
<text text-anchor="start" x="222" y="-436.74" font-family="Helvetica,sans-Serif" font-size="10.00">lemons::dsp::LatencyEngine</text>
<text text-anchor="middle" x="290.5" y="-425.74" font-family="Helvetica,sans-Serif" font-size="10.00">&lt; SampleType &gt;</text>
</a>
</g>
</g>
<!-- Node1&#45;&gt;Node10 -->
<g id="edge10" class="edge">
<title>Node1&#45;&gt;Node10</title>
<path fill="none" stroke="midnightblue" d="M125.15,-468.61C154.45,-462.39 188.91,-455.08 218.68,-448.77"/>
<polygon fill="midnightblue" stroke="midnightblue" points="124.07,-465.26 115.01,-470.76 125.52,-472.11 124.07,-465.26"/>
</g>
<!-- Node13 -->
<g id="node13" class="node">
<title>Node13</title>
<g id="a_node13"><a xlink:href="classlemons_1_1dsp_1_1osc_1_1_engine.html" target="_top" xlink:title="A utility class that wraps an Oscillator into a self&#45;contained dsp::Engine.">
<polygon fill="none" stroke="black" points="222,-262.74 222,-292.74 359,-292.74 359,-262.74 222,-262.74"/>
<text text-anchor="start" x="230" y="-280.74" font-family="Helvetica,sans-Serif" font-size="10.00">lemons::dsp::osc::Engine</text>
<text text-anchor="middle" x="290.5" y="-269.74" font-family="Helvetica,sans-Serif" font-size="10.00">&lt; SampleType &gt;</text>
</a>
</g>
</g>
<!-- Node1&#45;&gt;Node13 -->
<g id="edge13" class="edge">
<title>Node1&#45;&gt;Node13</title>
<path fill="none" stroke="midnightblue" d="M80.79,-460.48C95.41,-446.05 115.07,-427 133,-410.74 181.61,-366.68 241.19,-317.25 270.86,-292.93"/>
<polygon fill="midnightblue" stroke="midnightblue" points="78.28,-458.04 73.64,-467.56 83.2,-463.01 78.28,-458.04"/>
</g>
<!-- Node22 -->
<g id="node22" class="node">
<title>Node22</title>
<g id="a_node22"><a xlink:href="classlemons_1_1dsp_1_1_protector.html" target="_top" xlink:title="A DSP engine that, under normal conditions, simply passes the audio through; if any samples are inf o...">
<polygon fill="none" stroke="black" points="227.5,-213.74 227.5,-243.74 353.5,-243.74 353.5,-213.74 227.5,-213.74"/>
<text text-anchor="start" x="235.5" y="-231.74" font-family="Helvetica,sans-Serif" font-size="10.00">lemons::dsp::Protector</text>
<text text-anchor="middle" x="290.5" y="-220.74" font-family="Helvetica,sans-Serif" font-size="10.00">&lt; SampleType &gt;</text>
</a>
</g>
</g>
<!-- Node1&#45;&gt;Node22 -->
<g id="edge22" class="edge">
<title>Node1&#45;&gt;Node22</title>
<path fill="none" stroke="midnightblue" d="M67.67,-458.24C86.62,-411.01 134.77,-307.35 210,-253.74 215.42,-249.88 221.46,-246.6 227.72,-243.82"/>
<polygon fill="midnightblue" stroke="midnightblue" points="64.36,-457.09 63.96,-467.68 70.87,-459.65 64.36,-457.09"/>
</g>
<!-- Node23 -->
<g id="node23" class="node">
<title>Node23</title>
<g id="a_node23"><a xlink:href="classlemons_1_1dsp_1_1_engine.html" target="_top" xlink:title=" ">
<polygon fill="none" stroke="black" points="233,-164.74 233,-194.74 348,-194.74 348,-164.74 233,-164.74"/>
<text text-anchor="start" x="241" y="-182.74" font-family="Helvetica,sans-Serif" font-size="10.00">lemons::dsp::Engine</text>
<text text-anchor="middle" x="290.5" y="-171.74" font-family="Helvetica,sans-Serif" font-size="10.00">&lt; double &gt;</text>
</a>
</g>
</g>
<!-- Node1&#45;&gt;Node23 -->
<g id="edge23" class="edge">
<title>Node1&#45;&gt;Node23</title>
<path fill="none" stroke="orange" stroke-dasharray="5,2" d="M61.37,-457.8C67.57,-413.36 85.68,-319.29 133,-256.74 157.3,-224.62 198.59,-205.1 232.66,-193.74"/>
<polygon fill="orange" stroke="orange" points="57.9,-457.36 60.07,-467.73 64.84,-458.27 57.9,-457.36"/>
<text text-anchor="middle" x="162.5" y="-259.74" font-family="Helvetica,sans-Serif" font-size="10.00"> &lt; double &gt;</text>
</g>
<!-- Node24 -->
<g id="node24" class="node">
<title>Node24</title>
<g id="a_node24"><a xlink:href="classlemons_1_1dsp_1_1_engine.html" target="_top" xlink:title=" ">
<polygon fill="none" stroke="black" points="233,-369.74 233,-399.74 348,-399.74 348,-369.74 233,-369.74"/>
<text text-anchor="start" x="241" y="-387.74" font-family="Helvetica,sans-Serif" font-size="10.00">lemons::dsp::Engine</text>
<text text-anchor="middle" x="290.5" y="-376.74" font-family="Helvetica,sans-Serif" font-size="10.00">&lt; float &gt;</text>
</a>
</g>
</g>
<!-- Node1&#45;&gt;Node24 -->
<g id="edge24" class="edge">
<title>Node1&#45;&gt;Node24</title>
<path fill="none" stroke="orange" stroke-dasharray="5,2" d="M91.37,-462.33C104.13,-454.79 119.02,-446.45 133,-439.74 166.75,-423.54 206.58,-409.61 237.61,-399.83"/>
<polygon fill="orange" stroke="orange" points="89.27,-459.51 82.49,-467.65 92.87,-465.51 89.27,-459.51"/>
<text text-anchor="middle" x="162.5" y="-442.74" font-family="Helvetica,sans-Serif" font-size="10.00"> &lt; float &gt;</text>
</g>
<!-- Node3 -->
<g id="node3" class="node">
<title>Node3</title>
<g id="a_node3"><a xlink:href="structlemons_1_1dsp_1_1_f_x_1_1_filter_engine.html" target="_top" xlink:title="A class that represents an audio engine holding a filter effect.">
<polygon fill="none" stroke="black" points="735,-685.74 735,-715.74 893,-715.74 893,-685.74 735,-685.74"/>
<text text-anchor="start" x="743" y="-703.74" font-family="Helvetica,sans-Serif" font-size="10.00">lemons::dsp::FX::FilterEngine</text>
<text text-anchor="middle" x="814" y="-692.74" font-family="Helvetica,sans-Serif" font-size="10.00">&lt; SampleType &gt;</text>
</a>
</g>
</g>
<!-- Node2&#45;&gt;Node3 -->
<g id="edge2" class="edge">
<title>Node2&#45;&gt;Node3</title>
<path fill="none" stroke="midnightblue" d="M515.1,-718.7C577.13,-714.96 669.33,-709.4 734.7,-705.46"/>
<polygon fill="midnightblue" stroke="midnightblue" points="514.8,-715.21 505.03,-719.31 515.22,-722.2 514.8,-715.21"/>
</g>
<!-- Node9 -->
<g id="node9" class="node">
<title>Node9</title>
<g id="a_node9"><a xlink:href="classlemons_1_1dsp_1_1_f_x_1_1_effect_engine.html" target="_top" xlink:title=" ">
<polygon fill="none" stroke="black" points="530,-663.74 530,-693.74 691,-693.74 691,-663.74 530,-663.74"/>
<text text-anchor="start" x="538" y="-681.74" font-family="Helvetica,sans-Serif" font-size="10.00">lemons::dsp::FX::EffectEngine</text>
<text text-anchor="middle" x="610.5" y="-670.74" font-family="Helvetica,sans-Serif" font-size="10.00">&lt; Filter, SampleType &gt;</text>
</a>
</g>
</g>
<!-- Node8&#45;&gt;Node9 -->
<g id="edge8" class="edge">
<title>Node8&#45;&gt;Node9</title>
<path fill="none" stroke="orange" stroke-dasharray="5,2" d="M381.45,-678.74C428.18,-678.74 484.79,-678.74 529.91,-678.74"/>
<polygon fill="orange" stroke="orange" points="381.33,-675.24 371.33,-678.74 381.33,-682.24 381.33,-675.24"/>
<text text-anchor="middle" x="447" y="-681.74" font-family="Helvetica,sans-Serif" font-size="10.00"> &lt; Filter, SampleType &gt;</text>
</g>
<!-- Node9&#45;&gt;Node3 -->
<g id="edge9" class="edge">
<title>Node9&#45;&gt;Node3</title>
<path fill="none" stroke="midnightblue" d="M701.35,-688.55C712.55,-689.78 723.93,-691.02 734.93,-692.22"/>
<polygon fill="midnightblue" stroke="midnightblue" points="701.46,-685.04 691.14,-687.44 700.7,-692 701.46,-685.04"/>
</g>
<!-- Node11 -->
<g id="node11" class="node">
<title>Node11</title>
<g id="a_node11"><a xlink:href="classlemons_1_1dsp_1_1_audio_file_player.html" target="_top" xlink:title="A kind of AudioEngine that plays audio from an AudioFile object.">
<polygon fill="none" stroke="black" points="531.5,-538.74 531.5,-568.74 689.5,-568.74 689.5,-538.74 531.5,-538.74"/>
<text text-anchor="start" x="539.5" y="-556.74" font-family="Helvetica,sans-Serif" font-size="10.00">lemons::dsp::AudioFilePlayer</text>
<text text-anchor="middle" x="610.5" y="-545.74" font-family="Helvetica,sans-Serif" font-size="10.00">&lt; SampleType &gt;</text>
</a>
</g>
</g>
<!-- Node10&#45;&gt;Node11 -->
<g id="edge11" class="edge">
<title>Node10&#45;&gt;Node11</title>
<path fill="none" stroke="midnightblue" d="M366.38,-454.63C367.99,-455.92 369.54,-457.29 371,-458.74 389.54,-477.17 369.3,-497.56 389,-514.74 427.59,-548.42 484.86,-557.76 531.37,-558.9"/>
<polygon fill="midnightblue" stroke="midnightblue" points="368.03,-451.52 357.78,-448.82 364.11,-457.32 368.03,-451.52"/>
</g>
<!-- Node12 -->
<g id="node12" class="node">
<title>Node12</title>
<g id="a_node12"><a xlink:href="classlemons_1_1dsp_1_1_engine_chain.html" target="_top" xlink:title="A kind of engine that contains a chain of other Engine objects.">
<polygon fill="none" stroke="black" points="539,-489.74 539,-519.74 682,-519.74 682,-489.74 539,-489.74"/>
<text text-anchor="start" x="547" y="-507.74" font-family="Helvetica,sans-Serif" font-size="10.00">lemons::dsp::EngineChain</text>
<text text-anchor="middle" x="610.5" y="-496.74" font-family="Helvetica,sans-Serif" font-size="10.00">&lt; SampleType &gt;</text>
</a>
</g>
</g>
<!-- Node10&#45;&gt;Node12 -->
<g id="edge12" class="edge">
<title>Node10&#45;&gt;Node12</title>
<path fill="none" stroke="midnightblue" d="M363.26,-453.53C365.96,-455.14 368.55,-456.87 371,-458.74 382.76,-467.72 376.31,-479.13 389,-486.74 433.71,-513.57 493,-517.01 538.84,-514.32"/>
<polygon fill="midnightblue" stroke="midnightblue" points="364.83,-450.41 354.35,-448.83 361.56,-456.6 364.83,-450.41"/>
</g>
<!-- Node14 -->
<g id="node14" class="node">
<title>Node14</title>
<g id="a_node14"><a xlink:href="classlemons_1_1dsp_1_1osc_1_1_engine.html" target="_top" xlink:title=" ">
<polygon fill="none" stroke="black" points="534.5,-182.24 534.5,-223.24 686.5,-223.24 686.5,-182.24 534.5,-182.24"/>
<text text-anchor="start" x="542.5" y="-211.24" font-family="Helvetica,sans-Serif" font-size="10.00">lemons::dsp::osc::Engine</text>
<text text-anchor="start" x="542.5" y="-200.24" font-family="Helvetica,sans-Serif" font-size="10.00">&lt; SampleType, lemons::dsp</text>
<text text-anchor="middle" x="610.5" y="-189.24" font-family="Helvetica,sans-Serif" font-size="10.00">::osc::Sine &gt;</text>
</a>
</g>
</g>
<!-- Node13&#45;&gt;Node14 -->
<g id="edge14" class="edge">
<title>Node13&#45;&gt;Node14</title>
<path fill="none" stroke="orange" stroke-dasharray="5,2" d="M367.6,-256.84C368.78,-255.85 369.91,-254.82 371,-253.74 390.16,-234.73 367.27,-211.75 389,-195.74 434.79,-162.01 501.65,-169.77 549.73,-182.23"/>
<polygon fill="orange" stroke="orange" points="365.47,-254.06 359.32,-262.69 369.5,-259.78 365.47,-254.06"/>
<text text-anchor="start" x="389" y="-209.74" font-family="Helvetica,sans-Serif" font-size="10.00"> &lt; SampleType, lemons</text>
<text text-anchor="middle" x="447" y="-198.74" font-family="Helvetica,sans-Serif" font-size="10.00">::dsp::osc::Sine &gt;</text>
</g>
<!-- Node15 -->
<g id="node15" class="node">
<title>Node15</title>
<g id="a_node15"><a xlink:href="classlemons_1_1dsp_1_1osc_1_1_engine.html" target="_top" xlink:title=" ">
<polygon fill="none" stroke="black" points="523,-439.74 523,-469.74 698,-469.74 698,-439.74 523,-439.74"/>
<text text-anchor="start" x="531" y="-457.74" font-family="Helvetica,sans-Serif" font-size="10.00">lemons::dsp::osc::Engine</text>
<text text-anchor="middle" x="610.5" y="-446.74" font-family="Helvetica,sans-Serif" font-size="10.00">&lt; float, lemons::dsp::osc::Saw &gt;</text>
</a>
</g>
</g>
<!-- Node13&#45;&gt;Node15 -->
<g id="edge15" class="edge">
<title>Node13&#45;&gt;Node15</title>
<path fill="none" stroke="orange" stroke-dasharray="5,2" d="M315.92,-300.24C332.52,-316.22 354.4,-338.68 371,-360.74 380.58,-373.47 376.43,-381.96 389,-391.74 411.93,-409.6 480.43,-427.58 535.05,-439.73"/>
<polygon fill="orange" stroke="orange" points="317.9,-297.29 308.24,-292.94 313.08,-302.37 317.9,-297.29"/>
<text text-anchor="start" x="396" y="-445.74" font-family="Helvetica,sans-Serif" font-size="10.00"> &lt; float, lemons::dsp</text>
<text text-anchor="middle" x="447" y="-434.74" font-family="Helvetica,sans-Serif" font-size="10.00">::osc::Saw &gt;</text>
</g>
<!-- Node16 -->
<g id="node16" class="node">
<title>Node16</title>
<g id="a_node16"><a xlink:href="classlemons_1_1dsp_1_1osc_1_1_engine.html" target="_top" xlink:title=" ">
<polygon fill="none" stroke="black" points="534.5,-122.24 534.5,-163.24 686.5,-163.24 686.5,-122.24 534.5,-122.24"/>
<text text-anchor="start" x="542.5" y="-151.24" font-family="Helvetica,sans-Serif" font-size="10.00">lemons::dsp::osc::Engine</text>
<text text-anchor="start" x="542.5" y="-140.24" font-family="Helvetica,sans-Serif" font-size="10.00">&lt; SampleType, lemons::dsp</text>
<text text-anchor="middle" x="610.5" y="-129.24" font-family="Helvetica,sans-Serif" font-size="10.00">::osc::Saw &gt;</text>
</a>
</g>
</g>
<!-- Node13&#45;&gt;Node16 -->
<g id="edge16" class="edge">
<title>Node13&#45;&gt;Node16</title>
<path fill="none" stroke="orange" stroke-dasharray="5,2" d="M367.26,-257.55C368.57,-256.35 369.82,-255.08 371,-253.74 403.14,-217.2 352.08,-177.45 389,-145.74 429.22,-111.2 490.46,-113.15 538.21,-122.22"/>
<polygon fill="orange" stroke="orange" points="365.01,-254.86 359.13,-263.67 369.22,-260.45 365.01,-254.86"/>
<text text-anchor="start" x="389" y="-159.74" font-family="Helvetica,sans-Serif" font-size="10.00"> &lt; SampleType, lemons</text>
<text text-anchor="middle" x="447" y="-148.74" font-family="Helvetica,sans-Serif" font-size="10.00">::dsp::osc::Saw &gt;</text>
</g>
<!-- Node17 -->
<g id="node17" class="node">
<title>Node17</title>
<g id="a_node17"><a xlink:href="classlemons_1_1dsp_1_1osc_1_1_engine.html" target="_top" xlink:title=" ">
<polygon fill="none" stroke="black" points="542,-377.24 542,-418.24 679,-418.24 679,-377.24 542,-377.24"/>
<text text-anchor="start" x="550" y="-406.24" font-family="Helvetica,sans-Serif" font-size="10.00">lemons::dsp::osc::Engine</text>
<text text-anchor="start" x="550" y="-395.24" font-family="Helvetica,sans-Serif" font-size="10.00">&lt; float, lemons::dsp::osc</text>
<text text-anchor="middle" x="610.5" y="-384.24" font-family="Helvetica,sans-Serif" font-size="10.00">::Square &gt;</text>
</a>
</g>
</g>
<!-- Node13&#45;&gt;Node17 -->
<g id="edge17" class="edge">
<title>Node13&#45;&gt;Node17</title>
<path fill="none" stroke="orange" stroke-dasharray="5,2" d="M328.59,-297.55C346.56,-306.74 368.61,-317.45 389,-325.74 439.17,-346.16 497.49,-365 541.54,-378.28"/>
<polygon fill="orange" stroke="orange" points="330.09,-294.38 319.6,-292.9 326.87,-300.6 330.09,-294.38"/>
<text text-anchor="start" x="396" y="-379.74" font-family="Helvetica,sans-Serif" font-size="10.00"> &lt; float, lemons::dsp</text>
<text text-anchor="middle" x="447" y="-368.74" font-family="Helvetica,sans-Serif" font-size="10.00">::osc::Square &gt;</text>
</g>
<!-- Node18 -->
<g id="node18" class="node">
<title>Node18</title>
<g id="a_node18"><a xlink:href="classlemons_1_1dsp_1_1osc_1_1_engine.html" target="_top" xlink:title=" ">
<polygon fill="none" stroke="black" points="534.5,-62.24 534.5,-103.24 686.5,-103.24 686.5,-62.24 534.5,-62.24"/>
<text text-anchor="start" x="542.5" y="-91.24" font-family="Helvetica,sans-Serif" font-size="10.00">lemons::dsp::osc::Engine</text>
<text text-anchor="start" x="542.5" y="-80.24" font-family="Helvetica,sans-Serif" font-size="10.00">&lt; SampleType, lemons::dsp</text>
<text text-anchor="middle" x="610.5" y="-69.24" font-family="Helvetica,sans-Serif" font-size="10.00">::osc::Triangle &gt;</text>
</a>
</g>
</g>
<!-- Node13&#45;&gt;Node18 -->
<g id="edge18" class="edge">
<title>Node13&#45;&gt;Node18</title>
<path fill="none" stroke="orange" stroke-dasharray="5,2" d="M367.25,-257.73C368.58,-256.48 369.83,-255.15 371,-253.74 394.3,-225.73 362.3,-115.54 389,-90.74 427.1,-55.35 486.8,-55.25 534.47,-62.95"/>
<polygon fill="orange" stroke="orange" points="364.78,-255.22 359.01,-264.11 369.06,-260.76 364.78,-255.22"/>
<text text-anchor="start" x="389" y="-104.74" font-family="Helvetica,sans-Serif" font-size="10.00"> &lt; SampleType, lemons</text>
<text text-anchor="middle" x="447" y="-93.74" font-family="Helvetica,sans-Serif" font-size="10.00">::dsp::osc::Triangle &gt;</text>
</g>
<!-- Node19 -->
<g id="node19" class="node">
<title>Node19</title>
<g id="a_node19"><a xlink:href="classlemons_1_1dsp_1_1osc_1_1_engine.html" target="_top" xlink:title=" ">
<polygon fill="none" stroke="black" points="542,-313.24 542,-354.24 679,-354.24 679,-313.24 542,-313.24"/>
<text text-anchor="start" x="550" y="-342.24" font-family="Helvetica,sans-Serif" font-size="10.00">lemons::dsp::osc::Engine</text>
<text text-anchor="start" x="550" y="-331.24" font-family="Helvetica,sans-Serif" font-size="10.00">&lt; float, lemons::dsp::osc</text>
<text text-anchor="middle" x="610.5" y="-320.24" font-family="Helvetica,sans-Serif" font-size="10.00">::Sine &gt;</text>
</a>
</g>
</g>
<!-- Node13&#45;&gt;Node19 -->
<g id="edge19" class="edge">
<title>Node13&#45;&gt;Node19</title>
<path fill="none" stroke="orange" stroke-dasharray="5,2" d="M369.37,-284.24C410.03,-288.38 460.47,-294.7 505,-303.74 517.67,-306.32 531.04,-309.66 543.83,-313.18"/>
<polygon fill="orange" stroke="orange" points="369.55,-280.74 359.25,-283.23 368.85,-287.7 369.55,-280.74"/>
<text text-anchor="start" x="396" y="-317.74" font-family="Helvetica,sans-Serif" font-size="10.00"> &lt; float, lemons::dsp</text>
<text text-anchor="middle" x="447" y="-306.74" font-family="Helvetica,sans-Serif" font-size="10.00">::osc::Sine &gt;</text>
</g>
<!-- Node20 -->
<g id="node20" class="node">
<title>Node20</title>
<g id="a_node20"><a xlink:href="classlemons_1_1dsp_1_1osc_1_1_engine.html" target="_top" xlink:title=" ">
<polygon fill="none" stroke="black" points="534.5,-2.24 534.5,-43.24 686.5,-43.24 686.5,-2.24 534.5,-2.24"/>
<text text-anchor="start" x="542.5" y="-31.24" font-family="Helvetica,sans-Serif" font-size="10.00">lemons::dsp::osc::Engine</text>
<text text-anchor="start" x="542.5" y="-20.24" font-family="Helvetica,sans-Serif" font-size="10.00">&lt; SampleType, lemons::dsp</text>
<text text-anchor="middle" x="610.5" y="-9.24" font-family="Helvetica,sans-Serif" font-size="10.00">::osc::Square &gt;</text>
</a>
</g>
</g>
<!-- Node13&#45;&gt;Node20 -->
<g id="edge20" class="edge">
<title>Node13&#45;&gt;Node20</title>
<path fill="none" stroke="orange" stroke-dasharray="5,2" d="M367.31,-257.78C368.61,-256.51 369.85,-255.17 371,-253.74 401.83,-215.59 353.77,-67.87 389,-33.74 426.44,2.53 486.33,3.36 534.25,-3.82"/>
<polygon fill="orange" stroke="orange" points="364.83,-255.28 359.14,-264.21 369.16,-260.78 364.83,-255.28"/>
<text text-anchor="start" x="389" y="-47.74" font-family="Helvetica,sans-Serif" font-size="10.00"> &lt; SampleType, lemons</text>
<text text-anchor="middle" x="447" y="-36.74" font-family="Helvetica,sans-Serif" font-size="10.00">::dsp::osc::Square &gt;</text>
</g>
<!-- Node21 -->
<g id="node21" class="node">
<title>Node21</title>
<g id="a_node21"><a xlink:href="classlemons_1_1dsp_1_1osc_1_1_engine.html" target="_top" xlink:title=" ">
<polygon fill="none" stroke="black" points="542,-244.24 542,-285.24 679,-285.24 679,-244.24 542,-244.24"/>
<text text-anchor="start" x="550" y="-273.24" font-family="Helvetica,sans-Serif" font-size="10.00">lemons::dsp::osc::Engine</text>
<text text-anchor="start" x="550" y="-262.24" font-family="Helvetica,sans-Serif" font-size="10.00">&lt; float, lemons::dsp::osc</text>
<text text-anchor="middle" x="610.5" y="-251.24" font-family="Helvetica,sans-Serif" font-size="10.00">::Triangle &gt;</text>
</a>
</g>
</g>
<!-- Node13&#45;&gt;Node21 -->
<g id="edge21" class="edge">
<title>Node13&#45;&gt;Node21</title>
<path fill="none" stroke="orange" stroke-dasharray="5,2" d="M362.9,-258.37C365.69,-256.93 368.41,-255.39 371,-253.74 381.1,-247.33 378.08,-238.61 389,-233.74 436.1,-212.77 453.98,-226.34 505,-233.74 520.17,-235.95 536.2,-239.86 551.03,-244.18"/>
<polygon fill="orange" stroke="orange" points="361.34,-255.23 353.74,-262.62 364.29,-261.58 361.34,-255.23"/>
<text text-anchor="start" x="396" y="-247.74" font-family="Helvetica,sans-Serif" font-size="10.00"> &lt; float, lemons::dsp</text>
<text text-anchor="middle" x="447" y="-236.74" font-family="Helvetica,sans-Serif" font-size="10.00">::osc::Triangle &gt;</text>
</g>
<!-- Node24&#45;&gt;Node15 -->
<g id="edge25" class="edge">
<title>Node24&#45;&gt;Node15</title>
<path fill="none" stroke="midnightblue" d="M357.4,-399.76C362.35,-402.54 366.98,-405.84 371,-409.74 388.54,-426.79 369.08,-447.56 389,-461.74 441.57,-499.18 520.46,-484.3 568.25,-469.76"/>
<polygon fill="midnightblue" stroke="midnightblue" points="358.71,-396.5 348.19,-395.28 355.65,-402.8 358.71,-396.5"/>
</g>
<!-- Node24&#45;&gt;Node17 -->
<g id="edge27" class="edge">
<title>Node24&#45;&gt;Node17</title>
<path fill="none" stroke="midnightblue" d="M357.12,-400.88C362.06,-403.42 366.76,-406.35 371,-409.74 383.44,-419.7 375.19,-432.79 389,-440.74 433.68,-466.47 455.09,-453.68 505,-440.74 513.86,-438.45 514.7,-434.61 523,-430.74 532.33,-426.4 542.39,-422.17 552.25,-418.26"/>
<polygon fill="midnightblue" stroke="midnightblue" points="358.58,-397.7 348.02,-396.73 355.67,-404.07 358.58,-397.7"/>
</g>
<!-- Node24&#45;&gt;Node19 -->
<g id="edge26" class="edge">
<title>Node24&#45;&gt;Node19</title>
<path fill="none" stroke="midnightblue" d="M358.46,-385.05C400.85,-384.09 456.6,-380.7 505,-370.74 523.47,-366.94 543.12,-360.63 560.33,-354.29"/>
<polygon fill="midnightblue" stroke="midnightblue" points="358.19,-381.55 348.25,-385.24 358.32,-388.55 358.19,-381.55"/>
</g>
<!-- Node24&#45;&gt;Node21 -->
<g id="edge28" class="edge">
<title>Node24&#45;&gt;Node21</title>
<path fill="none" stroke="midnightblue" d="M322.08,-364.16C340.74,-352.38 365.47,-338.12 389,-328.74 438.27,-309.12 454.09,-315.62 505,-300.74 520.75,-296.14 537.63,-290.6 553.14,-285.25"/>
<polygon fill="midnightblue" stroke="midnightblue" points="319.95,-361.36 313.43,-369.71 323.74,-367.25 319.95,-361.36"/>
</g>
</g>
</svg>
        <g id="navigator" transform="translate(0 0)" fill="#404254">
                <rect fill="#f2f5e9" fill-opacity="0.5" stroke="#606060" stroke-width=".5" x="0" y="0" width="60" height="60"/>
                <use id="zoomplus" xlink:href="#zoomPlus" x="17" y="9" onmousedown="handleZoom(evt,'in')"/>
                <use id="zoomminus" xlink:href="#zoomMin" x="42" y="9" onmousedown="handleZoom(evt,'out')"/>
                <use id="reset" xlink:href="#resetDef" x="30" y="36" onmousedown="handleReset()"/>
                <g id="arrowUp" xlink:href="#dirArrow" transform="translate(30 24)" onmousedown="handlePan(0,-1)">
                  <use xlink:href="#rim" fill="#404040">
                        <set attributeName="fill" to="#808080" begin="arrowUp.mouseover" end="arrowUp.mouseout"/>
                  </use>
                  <path fill="none" stroke="white" stroke-width="1.5" d="M0,-3.0v7 M-2.5,-0.5L0,-3.0L2.5,-0.5"/>
                </g>
                <g id="arrowRight" xlink:href="#dirArrow" transform="rotate(90) translate(36 -43)" onmousedown="handlePan(1,0)">
                  <use xlink:href="#rim" fill="#404040">
                        <set attributeName="fill" to="#808080" begin="arrowRight.mouseover" end="arrowRight.mouseout"/>
                  </use>
                  <path fill="none" stroke="white" stroke-width="1.5" d="M0,-3.0v7 M-2.5,-0.5L0,-3.0L2.5,-0.5"/>
                </g>
                <g id="arrowDown" xlink:href="#dirArrow" transform="rotate(180) translate(-30 -48)" onmousedown="handlePan(0,1)">
                  <use xlink:href="#rim" fill="#404040">
                        <set attributeName="fill" to="#808080" begin="arrowDown.mouseover" end="arrowDown.mouseout"/>
                  </use>
                  <path fill="none" stroke="white" stroke-width="1.5" d="M0,-3.0v7 M-2.5,-0.5L0,-3.0L2.5,-0.5"/>
                </g>
                <g id="arrowLeft" xlink:href="#dirArrow" transform="rotate(270) translate(-36 17)" onmousedown="handlePan(-1,0)">
                  <use xlink:href="#rim" fill="#404040">
                        <set attributeName="fill" to="#808080" begin="arrowLeft.mouseover" end="arrowLeft.mouseout"/>
                  </use>
                  <path fill="none" stroke="white" stroke-width="1.5" d="M0,-3.0v7 M-2.5,-0.5L0,-3.0L2.5,-0.5"/>
                </g>
        </g>
        <svg viewBox="0 0 15 15" width="100%" height="30px" preserveAspectRatio="xMaxYMin meet">
         <g id="arrow_out" transform="scale(0.3 0.3)">
          <a xlink:href="classlemons_1_1dsp_1_1_engine__inherit__graph_org.svg" target="_base">
           <rect id="button" ry="5" rx="5" y="6" x="6" height="38" width="38"
                fill="#f2f5e9" fill-opacity="0.5" stroke="#606060" stroke-width="1.0"/>
           <path id="arrow"
             d="M 11.500037,31.436501 C 11.940474,20.09759 22.043105,11.32322 32.158766,21.979434 L 37.068811,17.246167 C 37.068811,17.246167 37.088388,32 37.088388,32 L 22.160133,31.978069 C 22.160133,31.978069 26.997745,27.140456 26.997745,27.140456 C 18.528582,18.264221 13.291696,25.230495 11.500037,31.436501 z"
             style="fill:#404040;"/>
          </a>
         </g>
        </svg>
</svg>
