<?xml version="1.0" encoding="UTF-8" standalone="no"?>
<!DOCTYPE svg PUBLIC "-//W3C//DTD SVG 1.1//EN"
 "http://www.w3.org/Graphics/SVG/1.1/DTD/svg11.dtd">
<!-- Generated by graphviz version 2.50.0 (20211204.2007)
 -->
<!-- Title: lemons::plugin::TypedParameter&lt; ValueType &gt; Pages: 1 -->
<svg width="1197pt" height="385pt"
 viewBox="0.00 0.00 1197.00 385.00" xmlns="http://www.w3.org/2000/svg" xmlns:xlink="http://www.w3.org/1999/xlink">
<g id="graph0" class="graph" transform="scale(1 1) rotate(0) translate(4 381)">
<title>lemons::plugin::TypedParameter&lt; ValueType &gt;</title>
<!-- Node1 -->
<g id="node1" class="node">
<title>Node1</title>
<g id="a_node1"><a xlink:title="A parameter that can be stored as a type other than a float, but still inherits from my Parameter bas...">
<polygon fill="#bfbfbf" stroke="black" points="349,-187.5 349,-217.5 506,-217.5 506,-187.5 349,-187.5"/>
<text text-anchor="start" x="357" y="-205.5" font-family="Helvetica,sans-Serif" font-size="10.00">lemons::plugin::TypedParameter</text>
<text text-anchor="middle" x="427.5" y="-194.5" font-family="Helvetica,sans-Serif" font-size="10.00">&lt; ValueType &gt;</text>
</a>
</g>
</g>
<!-- Node4 -->
<g id="node4" class="node">
<title>Node4</title>
<g id="a_node4"><a xlink:href="classlemons_1_1plugin_1_1_meta_parameter.html" target="_top" xlink:title="A meta parameter class that implements the MetaParameterBase interface.">
<polygon fill="none" stroke="black" points="589,-297.5 589,-327.5 741,-327.5 741,-297.5 589,-297.5"/>
<text text-anchor="start" x="597" y="-315.5" font-family="Helvetica,sans-Serif" font-size="10.00">lemons::plugin::MetaParameter</text>
<text text-anchor="middle" x="665" y="-304.5" font-family="Helvetica,sans-Serif" font-size="10.00">&lt; ValueType &gt;</text>
</a>
</g>
</g>
<!-- Node1&#45;&gt;Node4 -->
<g id="edge3" class="edge">
<title>Node1&#45;&gt;Node4</title>
<path fill="none" stroke="midnightblue" d="M460.78,-223C491.17,-241.65 538.41,-269.03 582,-287.5 590.5,-291.1 599.69,-294.42 608.74,-297.39"/>
<polygon fill="midnightblue" stroke="midnightblue" points="462.25,-219.8 451.91,-217.51 458.57,-225.75 462.25,-219.8"/>
</g>
<!-- Node7 -->
<g id="node7" class="node">
<title>Node7</title>
<g id="a_node7"><a xlink:href="structlemons_1_1plugin_1_1_meter_parameter.html" target="_top" xlink:title="A parameter that represents a general kind of meter, used for reporting things like level or gain red...">
<polygon fill="none" stroke="black" points="587.5,-22.5 587.5,-52.5 742.5,-52.5 742.5,-22.5 587.5,-22.5"/>
<text text-anchor="start" x="595.5" y="-40.5" font-family="Helvetica,sans-Serif" font-size="10.00">lemons::plugin::MeterParameter</text>
<text text-anchor="middle" x="665" y="-29.5" font-family="Helvetica,sans-Serif" font-size="10.00">&lt; ValueType &gt;</text>
</a>
</g>
</g>
<!-- Node1&#45;&gt;Node7 -->
<g id="edge6" class="edge">
<title>Node1&#45;&gt;Node7</title>
<path fill="none" stroke="midnightblue" d="M447.41,-179.85C474.28,-149.03 526.47,-94.12 582,-62.5 588.73,-58.67 596.1,-55.36 603.59,-52.53"/>
<polygon fill="midnightblue" stroke="midnightblue" points="444.69,-177.63 440.82,-187.5 450,-182.2 444.69,-177.63"/>
</g>
<!-- Node10 -->
<g id="node10" class="node">
<title>Node10</title>
<g id="a_node10"><a xlink:href="structlemons_1_1plugin_1_1_midi_pan_parameter.html" target="_top" xlink:title="A parameter that represents a MIDI panning value in the range 0 to 127.">
<polygon fill="none" stroke="black" points="582,-259 582,-278 748,-278 748,-259 582,-259"/>
<text text-anchor="middle" x="665" y="-266" font-family="Helvetica,sans-Serif" font-size="10.00">lemons::plugin::MidiPanParameter</text>
</a>
</g>
</g>
<!-- Node1&#45;&gt;Node10 -->
<g id="edge9" class="edge">
<title>Node1&#45;&gt;Node10</title>
<path fill="none" stroke="midnightblue" d="M486.23,-220.57C514.92,-229.36 550.18,-239.86 582,-248.5 595.29,-252.11 609.88,-255.77 623.02,-258.95"/>
<polygon fill="midnightblue" stroke="midnightblue" points="486.95,-217.13 476.37,-217.54 484.9,-223.83 486.95,-217.13"/>
</g>
<!-- Node11 -->
<g id="node11" class="node">
<title>Node11</title>
<g id="a_node11"><a xlink:href="structlemons_1_1plugin_1_1_midi_pitch_parameter.html" target="_top" xlink:title="A parameter that represents a MIDI pitch.">
<polygon fill="none" stroke="black" points="602,-209.5 602,-239.5 728,-239.5 728,-209.5 602,-209.5"/>
<text text-anchor="start" x="610" y="-227.5" font-family="Helvetica,sans-Serif" font-size="10.00">lemons::plugin::MidiPitch</text>
<text text-anchor="middle" x="665" y="-216.5" font-family="Helvetica,sans-Serif" font-size="10.00">Parameter</text>
</a>
</g>
</g>
<!-- Node1&#45;&gt;Node11 -->
<g id="edge10" class="edge">
<title>Node1&#45;&gt;Node11</title>
<path fill="none" stroke="midnightblue" d="M516.23,-210.7C544.73,-213.36 575.74,-216.25 601.96,-218.7"/>
<polygon fill="midnightblue" stroke="midnightblue" points="516.55,-207.21 506.26,-209.76 515.9,-214.18 516.55,-207.21"/>
</g>
<!-- Node12 -->
<g id="node12" class="node">
<title>Node12</title>
<g id="a_node12"><a xlink:href="structlemons_1_1plugin_1_1_percent_parameter.html" target="_top" xlink:title="A parameter that represents an integer value in the range 0&#45;100.">
<polygon fill="none" stroke="black" points="583,-171 583,-190 747,-190 747,-171 583,-171"/>
<text text-anchor="middle" x="665" y="-178" font-family="Helvetica,sans-Serif" font-size="10.00">lemons::plugin::PercentParameter</text>
</a>
</g>
</g>
<!-- Node1&#45;&gt;Node12 -->
<g id="edge11" class="edge">
<title>Node1&#45;&gt;Node12</title>
<path fill="none" stroke="midnightblue" d="M516.45,-194.28C538.16,-192.26 561.31,-190.09 582.68,-188.1"/>
<polygon fill="midnightblue" stroke="midnightblue" points="515.9,-190.82 506.26,-195.24 516.55,-197.79 515.9,-190.82"/>
</g>
<!-- Node13 -->
<g id="node13" class="node">
<title>Node13</title>
<g id="a_node13"><a xlink:href="structlemons_1_1plugin_1_1_semitones_parameter.html" target="_top" xlink:title="A parameter that represents a number of semitones, as an integer.">
<polygon fill="none" stroke="black" points="599,-121.5 599,-151.5 731,-151.5 731,-121.5 599,-121.5"/>
<text text-anchor="start" x="607" y="-139.5" font-family="Helvetica,sans-Serif" font-size="10.00">lemons::plugin::Semitones</text>
<text text-anchor="middle" x="665" y="-128.5" font-family="Helvetica,sans-Serif" font-size="10.00">Parameter</text>
</a>
</g>
</g>
<!-- Node1&#45;&gt;Node13 -->
<g id="edge12" class="edge">
<title>Node1&#45;&gt;Node13</title>
<path fill="none" stroke="midnightblue" d="M491.9,-184.73C528.84,-174.38 574.91,-161.47 610.09,-151.61"/>
<polygon fill="midnightblue" stroke="midnightblue" points="490.92,-181.37 482.23,-187.44 492.81,-188.11 490.92,-181.37"/>
</g>
<!-- Node14 -->
<g id="node14" class="node">
<title>Node14</title>
<g id="a_node14"><a xlink:href="classlemons_1_1plugin_1_1_typed_parameter.html" target="_top" xlink:title=" ">
<polygon fill="none" stroke="black" points="586.5,-346.5 586.5,-376.5 743.5,-376.5 743.5,-346.5 586.5,-346.5"/>
<text text-anchor="start" x="594.5" y="-364.5" font-family="Helvetica,sans-Serif" font-size="10.00">lemons::plugin::TypedParameter</text>
<text text-anchor="middle" x="665" y="-353.5" font-family="Helvetica,sans-Serif" font-size="10.00">&lt; bool &gt;</text>
</a>
</g>
</g>
<!-- Node1&#45;&gt;Node14 -->
<g id="edge13" class="edge">
<title>Node1&#45;&gt;Node14</title>
<path fill="none" stroke="orange" stroke-dasharray="5,2" d="M448.38,-225.33C475.64,-255.27 527.48,-307.5 582,-337.5 588.11,-340.86 594.74,-343.8 601.49,-346.35"/>
<polygon fill="orange" stroke="orange" points="450.96,-222.97 441.68,-217.87 445.76,-227.65 450.96,-222.97"/>
<text text-anchor="middle" x="544" y="-328.5" font-family="Helvetica,sans-Serif" font-size="10.00"> &lt; bool &gt;</text>
</g>
<!-- Node17 -->
<g id="node17" class="node">
<title>Node17</title>
<g id="a_node17"><a xlink:href="classlemons_1_1plugin_1_1_typed_parameter.html" target="_top" xlink:title=" ">
<polygon fill="none" stroke="black" points="586.5,-72.5 586.5,-102.5 743.5,-102.5 743.5,-72.5 586.5,-72.5"/>
<text text-anchor="start" x="594.5" y="-90.5" font-family="Helvetica,sans-Serif" font-size="10.00">lemons::plugin::TypedParameter</text>
<text text-anchor="middle" x="665" y="-79.5" font-family="Helvetica,sans-Serif" font-size="10.00">&lt; float &gt;</text>
</a>
</g>
</g>
<!-- Node1&#45;&gt;Node17 -->
<g id="edge16" class="edge">
<title>Node1&#45;&gt;Node17</title>
<path fill="none" stroke="orange" stroke-dasharray="5,2" d="M458.3,-181.77C488.38,-161.59 536.74,-131.17 582,-111.5 589.48,-108.25 597.53,-105.29 605.57,-102.64"/>
<polygon fill="orange" stroke="orange" points="456.26,-178.92 449.94,-187.42 460.19,-184.72 456.26,-178.92"/>
<text text-anchor="middle" x="544" y="-143.5" font-family="Helvetica,sans-Serif" font-size="10.00"> &lt; float &gt;</text>
</g>
<!-- Node2 -->
<g id="node2" class="node">
<title>Node2</title>
<g id="a_node2"><a xlink:href="classlemons_1_1plugin_1_1_parameter.html" target="_top" xlink:title="A plugin parameter class.">
<polygon fill="none" stroke="black" points="181,-193 181,-212 312,-212 312,-193 181,-193"/>
<text text-anchor="middle" x="246.5" y="-200" font-family="Helvetica,sans-Serif" font-size="10.00">lemons::plugin::Parameter</text>
</a>
</g>
</g>
<!-- Node2&#45;&gt;Node1 -->
<g id="edge1" class="edge">
<title>Node2&#45;&gt;Node1</title>
<path fill="none" stroke="midnightblue" d="M322.31,-202.5C331.08,-202.5 340.04,-202.5 348.85,-202.5"/>
<polygon fill="midnightblue" stroke="midnightblue" points="322.12,-199 312.12,-202.5 322.12,-206 322.12,-199"/>
</g>
<!-- Node3 -->
<g id="node3" class="node">
<title>Node3</title>
<g id="a_node3"><a xlink:title=" ">
<polygon fill="none" stroke="#bfbfbf" points="0,-193 0,-212 144,-212 144,-193 0,-193"/>
<text text-anchor="middle" x="72" y="-200" font-family="Helvetica,sans-Serif" font-size="10.00">juce::RangedAudioParameter</text>
</a>
</g>
</g>
<!-- Node3&#45;&gt;Node2 -->
<g id="edge2" class="edge">
<title>Node3&#45;&gt;Node2</title>
<path fill="none" stroke="midnightblue" d="M154.2,-202.5C163.15,-202.5 172.16,-202.5 180.86,-202.5"/>
<polygon fill="midnightblue" stroke="midnightblue" points="154.16,-199 144.16,-202.5 154.16,-206 154.16,-199"/>
</g>
<!-- Node5 -->
<g id="node5" class="node">
<title>Node5</title>
<g id="a_node5"><a xlink:href="classlemons_1_1plugin_1_1_meta_parameter.html" target="_top" xlink:title=" ">
<polygon fill="none" stroke="black" points="832.5,-261.5 832.5,-291.5 984.5,-291.5 984.5,-261.5 832.5,-261.5"/>
<text text-anchor="start" x="840.5" y="-279.5" font-family="Helvetica,sans-Serif" font-size="10.00">lemons::plugin::MetaParameter</text>
<text text-anchor="middle" x="908.5" y="-268.5" font-family="Helvetica,sans-Serif" font-size="10.00">&lt; float &gt;</text>
</a>
</g>
</g>
<!-- Node4&#45;&gt;Node5 -->
<g id="edge4" class="edge">
<title>Node4&#45;&gt;Node5</title>
<path fill="none" stroke="orange" stroke-dasharray="5,2" d="M751.12,-299.81C777.64,-295.86 806.68,-291.53 832.46,-287.69"/>
<polygon fill="orange" stroke="orange" points="750.46,-296.37 741.09,-301.31 751.5,-303.29 750.46,-296.37"/>
<text text-anchor="middle" x="786" y="-299.5" font-family="Helvetica,sans-Serif" font-size="10.00"> &lt; float &gt;</text>
</g>
<!-- Node6 -->
<g id="node6" class="node">
<title>Node6</title>
<g id="a_node6"><a xlink:href="structlemons_1_1plugin_1_1_l_f_o.html" target="_top" xlink:title="An LFO, to be used by a ModulationManager object.">
<polygon fill="none" stroke="black" points="1057.5,-267 1057.5,-286 1161.5,-286 1161.5,-267 1057.5,-267"/>
<text text-anchor="middle" x="1109.5" y="-274" font-family="Helvetica,sans-Serif" font-size="10.00">lemons::plugin::LFO</text>
</a>
</g>
</g>
<!-- Node5&#45;&gt;Node6 -->
<g id="edge5" class="edge">
<title>Node5&#45;&gt;Node6</title>
<path fill="none" stroke="midnightblue" d="M994.76,-276.5C1016.05,-276.5 1038.22,-276.5 1057.28,-276.5"/>
<polygon fill="midnightblue" stroke="midnightblue" points="994.73,-273 984.73,-276.5 994.73,-280 994.73,-273"/>
</g>
<!-- Node8 -->
<g id="node8" class="node">
<title>Node8</title>
<g id="a_node8"><a xlink:href="structlemons_1_1plugin_1_1_meter_parameter.html" target="_top" xlink:title=" ">
<polygon fill="none" stroke="black" points="831,-0.5 831,-30.5 986,-30.5 986,-0.5 831,-0.5"/>
<text text-anchor="start" x="839" y="-18.5" font-family="Helvetica,sans-Serif" font-size="10.00">lemons::plugin::MeterParameter</text>
<text text-anchor="middle" x="908.5" y="-7.5" font-family="Helvetica,sans-Serif" font-size="10.00">&lt; float &gt;</text>
</a>
</g>
</g>
<!-- Node7&#45;&gt;Node8 -->
<g id="edge7" class="edge">
<title>Node7&#45;&gt;Node8</title>
<path fill="none" stroke="orange" stroke-dasharray="5,2" d="M738.15,-20.57C747.47,-18.9 756.93,-17.47 766,-16.5 787.01,-14.24 809.87,-13.39 830.97,-13.25"/>
<polygon fill="orange" stroke="orange" points="737.29,-17.17 728.11,-22.45 738.58,-24.05 737.29,-17.17"/>
<text text-anchor="middle" x="786" y="-19.5" font-family="Helvetica,sans-Serif" font-size="10.00"> &lt; float &gt;</text>
</g>
<!-- Node9 -->
<g id="node9" class="node">
<title>Node9</title>
<g id="a_node9"><a xlink:href="structlemons_1_1plugin_1_1_gain_meter_parameter.html" target="_top" xlink:title="A parameter that represents a meter displaying values in decibels.">
<polygon fill="none" stroke="black" points="1044,-0.5 1044,-30.5 1175,-30.5 1175,-0.5 1044,-0.5"/>
<text text-anchor="start" x="1052" y="-18.5" font-family="Helvetica,sans-Serif" font-size="10.00">lemons::plugin::GainMeter</text>
<text text-anchor="middle" x="1109.5" y="-7.5" font-family="Helvetica,sans-Serif" font-size="10.00">Parameter</text>
</a>
</g>
</g>
<!-- Node8&#45;&gt;Node9 -->
<g id="edge8" class="edge">
<title>Node8&#45;&gt;Node9</title>
<path fill="none" stroke="midnightblue" d="M996.52,-15.5C1012.42,-15.5 1028.75,-15.5 1043.85,-15.5"/>
<polygon fill="midnightblue" stroke="midnightblue" points="996.15,-12 986.15,-15.5 996.15,-19 996.15,-12"/>
</g>
<!-- Node15 -->
<g id="node15" class="node">
<title>Node15</title>
<g id="a_node15"><a xlink:href="structlemons_1_1plugin_1_1_bool_parameter.html" target="_top" xlink:title="Helper struct that simplifies the constructor for boolean parameters.">
<polygon fill="none" stroke="black" points="833.5,-352 833.5,-371 983.5,-371 983.5,-352 833.5,-352"/>
<text text-anchor="middle" x="908.5" y="-359" font-family="Helvetica,sans-Serif" font-size="10.00">lemons::plugin::BoolParameter</text>
</a>
</g>
</g>
<!-- Node14&#45;&gt;Node15 -->
<g id="edge14" class="edge">
<title>Node14&#45;&gt;Node15</title>
<path fill="none" stroke="midnightblue" d="M753.97,-361.5C779.96,-361.5 808.15,-361.5 833.2,-361.5"/>
<polygon fill="midnightblue" stroke="midnightblue" points="753.74,-358 743.74,-361.5 753.74,-365 753.74,-358"/>
</g>
<!-- Node16 -->
<g id="node16" class="node">
<title>Node16</title>
<g id="a_node16"><a xlink:href="structlemons_1_1plugin_1_1_toggle_parameter.html" target="_top" xlink:title="A parameter that represents a boolean on/off toggle.">
<polygon fill="none" stroke="black" points="1030,-352 1030,-371 1189,-371 1189,-352 1030,-352"/>
<text text-anchor="middle" x="1109.5" y="-359" font-family="Helvetica,sans-Serif" font-size="10.00">lemons::plugin::ToggleParameter</text>
</a>
</g>
</g>
<!-- Node15&#45;&gt;Node16 -->
<g id="edge15" class="edge">
<title>Node15&#45;&gt;Node16</title>
<path fill="none" stroke="midnightblue" d="M993.93,-361.5C1005.78,-361.5 1017.93,-361.5 1029.67,-361.5"/>
<polygon fill="midnightblue" stroke="midnightblue" points="993.6,-358 983.6,-361.5 993.6,-365 993.6,-358"/>
</g>
<!-- Node17&#45;&gt;Node5 -->
<g id="edge17" class="edge">
<title>Node17&#45;&gt;Node5</title>
<path fill="none" stroke="midnightblue" d="M744.4,-108.42C745.64,-109.4 746.85,-110.43 748,-111.5 764.7,-127 753.41,-140.51 766,-159.5 785.63,-189.11 796.8,-191.65 824,-214.5 844.18,-231.46 868.5,-249.24 885.68,-261.39"/>
<polygon fill="midnightblue" stroke="midnightblue" points="745.96,-105.26 735.71,-102.6 742.07,-111.07 745.96,-105.26"/>
</g>
<!-- Node17&#45;&gt;Node8 -->
<g id="edge18" class="edge">
<title>Node17&#45;&gt;Node8</title>
<path fill="none" stroke="midnightblue" d="M724.51,-69.5C754.27,-60.4 791.03,-49.25 824,-39.5 833.84,-36.59 844.34,-33.54 854.46,-30.62"/>
<polygon fill="midnightblue" stroke="midnightblue" points="723.24,-66.22 714.7,-72.5 725.29,-72.92 723.24,-66.22"/>
</g>
<!-- Node18 -->
<g id="node18" class="node">
<title>Node18</title>
<g id="a_node18"><a xlink:href="structlemons_1_1plugin_1_1_float_amount_parameter.html" target="_top" xlink:title="A parameter that represents a value in a normalized 0&#45;1 range.">
<polygon fill="none" stroke="black" points="838,-49.5 838,-79.5 979,-79.5 979,-49.5 838,-49.5"/>
<text text-anchor="start" x="846" y="-67.5" font-family="Helvetica,sans-Serif" font-size="10.00">lemons::plugin::FloatAmount</text>
<text text-anchor="middle" x="908.5" y="-56.5" font-family="Helvetica,sans-Serif" font-size="10.00">Parameter</text>
</a>
</g>
</g>
<!-- Node17&#45;&gt;Node18 -->
<g id="edge19" class="edge">
<title>Node17&#45;&gt;Node18</title>
<path fill="none" stroke="midnightblue" d="M753.79,-79.14C781.39,-76.51 811.48,-73.64 837.66,-71.15"/>
<polygon fill="midnightblue" stroke="midnightblue" points="753.36,-75.66 743.74,-80.1 754.03,-82.63 753.36,-75.66"/>
</g>
<!-- Node19 -->
<g id="node19" class="node">
<title>Node19</title>
<g id="a_node19"><a xlink:href="structlemons_1_1plugin_1_1_frequency_parameter.html" target="_top" xlink:title="A parameter that represents a frequency in Hz.">
<polygon fill="none" stroke="black" points="843,-175.5 843,-205.5 974,-205.5 974,-175.5 843,-175.5"/>
<text text-anchor="start" x="851" y="-193.5" font-family="Helvetica,sans-Serif" font-size="10.00">lemons::plugin::Frequency</text>
<text text-anchor="middle" x="908.5" y="-182.5" font-family="Helvetica,sans-Serif" font-size="10.00">Parameter</text>
</a>
</g>
</g>
<!-- Node17&#45;&gt;Node19 -->
<g id="edge20" class="edge">
<title>Node17&#45;&gt;Node19</title>
<path fill="none" stroke="midnightblue" d="M739.89,-106.81C742.69,-108.26 745.4,-109.82 748,-111.5 758.33,-118.17 756.52,-124.68 766,-132.5 788.88,-151.37 796.73,-153.84 824,-165.5 832.49,-169.13 841.67,-172.45 850.74,-175.4"/>
<polygon fill="midnightblue" stroke="midnightblue" points="741.25,-103.58 730.71,-102.51 738.28,-109.92 741.25,-103.58"/>
</g>
<!-- Node20 -->
<g id="node20" class="node">
<title>Node20</title>
<g id="a_node20"><a xlink:href="structlemons_1_1plugin_1_1_gain_parameter.html" target="_top" xlink:title="A parameter that represents a gain value in decibels.">
<polygon fill="none" stroke="black" points="833,-137 833,-156 984,-156 984,-137 833,-137"/>
<text text-anchor="middle" x="908.5" y="-144" font-family="Helvetica,sans-Serif" font-size="10.00">lemons::plugin::GainParameter</text>
</a>
</g>
</g>
<!-- Node17&#45;&gt;Node20 -->
<g id="edge21" class="edge">
<title>Node17&#45;&gt;Node20</title>
<path fill="none" stroke="midnightblue" d="M734.1,-105.12C761.94,-112.23 794.47,-120.4 824,-127.5 837.15,-130.66 851.51,-133.98 864.55,-136.94"/>
<polygon fill="midnightblue" stroke="midnightblue" points="734.63,-101.65 724.07,-102.56 732.89,-108.43 734.63,-101.65"/>
</g>
<!-- Node21 -->
<g id="node21" class="node">
<title>Node21</title>
<g id="a_node21"><a xlink:href="structlemons_1_1plugin_1_1_seconds_parameter.html" target="_top" xlink:title="A parameter that represents a time value in seconds, expressed as a float.">
<polygon fill="none" stroke="black" points="824,-99 824,-118 993,-118 993,-99 824,-99"/>
<text text-anchor="middle" x="908.5" y="-106" font-family="Helvetica,sans-Serif" font-size="10.00">lemons::plugin::SecondsParameter</text>
</a>
</g>
</g>
<!-- Node17&#45;&gt;Node21 -->
<g id="edge22" class="edge">
<title>Node17&#45;&gt;Node21</title>
<path fill="none" stroke="midnightblue" d="M753.74,-95.13C776.54,-97.11 801.05,-99.24 823.65,-101.21"/>
<polygon fill="midnightblue" stroke="midnightblue" points="754.01,-91.64 743.74,-94.26 753.4,-98.61 754.01,-91.64"/>
</g>
</g>
</svg>
