<?xml version="1.0" encoding="UTF-8" standalone="no"?>
<!DOCTYPE svg PUBLIC "-//W3C//DTD SVG 1.1//EN"
 "http://www.w3.org/Graphics/SVG/1.1/DTD/svg11.dtd">
<!-- Generated by graphviz version 2.43.0 (0)
 -->
<!-- Title: lemons::dsp::Engine&lt; SampleType &gt; Pages: 1 -->
<!--zoomable 780 -->
<svg id="main" version="1.1" xmlns="http://www.w3.org/2000/svg" xmlns:xlink="http://www.w3.org/1999/xlink" xml:space="preserve" onload="init(evt)">
<style type="text/css"><![CDATA[
.edge:hover path { stroke: red; }
.edge:hover polygon { stroke: red; fill: red; }
]]></style>
<script type="text/javascript"><![CDATA[
var edges = document.getElementsByTagName('g');
if (edges && edges.length) {
  for (var i=0;i<edges.length;i++) {
    if (edges[i].id.substr(0,4)=='edge') {
      edges[i].setAttribute('class','edge');
    }
  }
}
]]></script>
        <defs>
                <circle id="rim" cx="0" cy="0" r="7"/>
                <circle id="rim2" cx="0" cy="0" r="3.5"/>
                <g id="zoomPlus">
                        <use xlink:href="#rim" fill="#404040">
                                <set attributeName="fill" to="#808080" begin="zoomplus.mouseover" end="zoomplus.mouseout"/>
                        </use>
                        <path d="M-4,0h8M0,-4v8" fill="none" stroke="white" stroke-width="1.5" pointer-events="none"/>
                </g>
                <g id="zoomMin">
                        <use xlink:href="#rim" fill="#404040">
                                <set attributeName="fill" to="#808080" begin="zoomminus.mouseover" end="zoomminus.mouseout"/>
                        </use>
                        <path d="M-4,0h8" fill="none" stroke="white" stroke-width="1.5" pointer-events="none"/>
                </g>
                <g id="dirArrow">
                        <path fill="none" stroke="white" stroke-width="1.5" d="M0,-3.0v7 M-2.5,-0.5L0,-3.0L2.5,-0.5"/>
                </g>
               <g id="resetDef">
                       <use xlink:href="#rim2" fill="#404040">
                               <set attributeName="fill" to="#808080" begin="reset.mouseover" end="reset.mouseout"/>
                       </use>
               </g>
        </defs>

<script type="text/javascript">
var viewWidth = 901;
var viewHeight = 780;
var sectionId = 'dynsection-0';
</script>
<script xlink:href="svgpan.js"/>
<svg id="graph" class="graph">
<g id="viewport">
<title>lemons::dsp::Engine&lt; SampleType &gt;</title>
<!-- Node1 -->
<g id="node1" class="node">
<title>Node1</title>
<g id="a_node1"><a xlink:title="Base class for an audio engine.">
<polygon fill="#bfbfbf" stroke="black" points="0,-525 0,-555 115,-555 115,-525 0,-525"/>
<text text-anchor="start" x="8" y="-543" font-family="Helvetica,sans-Serif" font-size="10.00">lemons::dsp::Engine</text>
<text text-anchor="middle" x="57.5" y="-532" font-family="Helvetica,sans-Serif" font-size="10.00">&lt; SampleType &gt;</text>
</a>
</g>
</g>
<!-- Node2 -->
<g id="node2" class="node">
<title>Node2</title>
<g id="a_node2"><a xlink:href="classlemons_1_1dsp_1_1_f_x_1_1_effect_engine.html" target="_top" xlink:title=" ">
<polygon fill="none" stroke="black" points="389,-741 389,-771 505,-771 505,-741 389,-741"/>
<text text-anchor="start" x="397" y="-759" font-family="Helvetica,sans-Serif" font-size="10.00">EffectEngine&lt; Filter,</text>
<text text-anchor="middle" x="447" y="-748" font-family="Helvetica,sans-Serif" font-size="10.00"> SampleType &gt;</text>
</a>
</g>
</g>
<!-- Node1&#45;&gt;Node2 -->
<g id="edge1" class="edge">
<title>Node1&#45;&gt;Node2</title>
<path fill="none" stroke="midnightblue" d="M67.77,-564.34C86.5,-609.41 133.7,-704.25 210,-737 267.22,-761.57 339.37,-763.71 388.74,-761.37"/>
<polygon fill="midnightblue" stroke="midnightblue" points="70.99,-562.98 64.01,-555.02 64.5,-565.6 70.99,-562.98"/>
</g>
<!-- Node4 -->
<g id="node4" class="node">
<title>Node4</title>
<g id="a_node4"><a xlink:href="classlemons_1_1dsp_1_1osc_1_1_engine.html" target="_top" xlink:title=" ">
<polygon fill="none" stroke="black" points="221,-648 221,-678 360,-678 360,-648 221,-648"/>
<text text-anchor="start" x="229" y="-666" font-family="Helvetica,sans-Serif" font-size="10.00">Engine&lt; SampleType,</text>
<text text-anchor="middle" x="290.5" y="-655" font-family="Helvetica,sans-Serif" font-size="10.00"> lemons::dsp::osc::Saw &gt;</text>
</a>
</g>
</g>
<!-- Node1&#45;&gt;Node4 -->
<g id="edge3" class="edge">
<title>Node1&#45;&gt;Node4</title>
<path fill="none" stroke="midnightblue" d="M85.62,-561.17C114.9,-583.18 163.6,-617.38 210,-639 217.06,-642.29 224.67,-645.26 232.3,-647.89"/>
<polygon fill="midnightblue" stroke="midnightblue" points="87.62,-558.3 77.54,-555.04 83.38,-563.87 87.62,-558.3"/>
</g>
<!-- Node5 -->
<g id="node5" class="node">
<title>Node5</title>
<g id="a_node5"><a xlink:href="classlemons_1_1dsp_1_1osc_1_1_engine.html" target="_top" xlink:title=" ">
<polygon fill="none" stroke="black" points="220.5,-599 220.5,-629 360.5,-629 360.5,-599 220.5,-599"/>
<text text-anchor="start" x="228.5" y="-617" font-family="Helvetica,sans-Serif" font-size="10.00">Engine&lt; SampleType,</text>
<text text-anchor="middle" x="290.5" y="-606" font-family="Helvetica,sans-Serif" font-size="10.00"> lemons::dsp::osc::Sine &gt;</text>
</a>
</g>
</g>
<!-- Node1&#45;&gt;Node5 -->
<g id="edge4" class="edge">
<title>Node1&#45;&gt;Node5</title>
<path fill="none" stroke="midnightblue" d="M112.84,-558.3C119.63,-560.57 126.47,-562.84 133,-565 167.17,-576.28 175.66,-579.24 210,-590 219.36,-592.93 229.35,-596 238.98,-598.92"/>
<polygon fill="midnightblue" stroke="midnightblue" points="113.59,-554.86 102.99,-555.01 111.37,-561.5 113.59,-554.86"/>
</g>
<!-- Node6 -->
<g id="node6" class="node">
<title>Node6</title>
<g id="a_node6"><a xlink:href="classlemons_1_1dsp_1_1osc_1_1_engine.html" target="_top" xlink:title=" ">
<polygon fill="none" stroke="black" points="214.5,-550 214.5,-580 366.5,-580 366.5,-550 214.5,-550"/>
<text text-anchor="start" x="222.5" y="-568" font-family="Helvetica,sans-Serif" font-size="10.00">Engine&lt; SampleType,</text>
<text text-anchor="middle" x="290.5" y="-557" font-family="Helvetica,sans-Serif" font-size="10.00"> lemons::dsp::osc::Square &gt;</text>
</a>
</g>
</g>
<!-- Node1&#45;&gt;Node6 -->
<g id="edge5" class="edge">
<title>Node1&#45;&gt;Node6</title>
<path fill="none" stroke="midnightblue" d="M125.07,-547.2C152.99,-550.23 185.6,-553.76 214.38,-556.87"/>
<polygon fill="midnightblue" stroke="midnightblue" points="125.33,-543.71 115.01,-546.12 124.57,-550.67 125.33,-543.71"/>
</g>
<!-- Node7 -->
<g id="node7" class="node">
<title>Node7</title>
<g id="a_node7"><a xlink:href="classlemons_1_1dsp_1_1osc_1_1_engine.html" target="_top" xlink:title=" ">
<polygon fill="none" stroke="black" points="212,-501 212,-531 369,-531 369,-501 212,-501"/>
<text text-anchor="start" x="220" y="-519" font-family="Helvetica,sans-Serif" font-size="10.00">Engine&lt; SampleType,</text>
<text text-anchor="middle" x="290.5" y="-508" font-family="Helvetica,sans-Serif" font-size="10.00"> lemons::dsp::osc::Triangle &gt;</text>
</a>
</g>
</g>
<!-- Node1&#45;&gt;Node7 -->
<g id="edge6" class="edge">
<title>Node1&#45;&gt;Node7</title>
<path fill="none" stroke="midnightblue" d="M125.15,-533.08C152.22,-530.26 183.67,-527 211.77,-524.08"/>
<polygon fill="midnightblue" stroke="midnightblue" points="124.59,-529.61 115.01,-534.13 125.32,-536.58 124.59,-529.61"/>
</g>
<!-- Node8 -->
<g id="node8" class="node">
<title>Node8</title>
<g id="a_node8"><a xlink:href="classlemons_1_1dsp_1_1_f_x_1_1_effect_engine.html" target="_top" xlink:title="A class that wraps an AudioEffect into a dsp::Engine.">
<polygon fill="none" stroke="black" points="210,-697 210,-727 371,-727 371,-697 210,-697"/>
<text text-anchor="start" x="218" y="-715" font-family="Helvetica,sans-Serif" font-size="10.00">lemons::dsp::FX::EffectEngine</text>
<text text-anchor="middle" x="290.5" y="-704" font-family="Helvetica,sans-Serif" font-size="10.00">&lt; SampleType &gt;</text>
</a>
</g>
</g>
<!-- Node1&#45;&gt;Node8 -->
<g id="edge7" class="edge">
<title>Node1&#45;&gt;Node8</title>
<path fill="none" stroke="midnightblue" d="M75.18,-563.26C100.39,-596.54 151.49,-657.13 210,-688 216.38,-691.36 223.29,-694.33 230.3,-696.92"/>
<polygon fill="midnightblue" stroke="midnightblue" points="77.84,-560.97 69.06,-555.04 72.22,-565.15 77.84,-560.97"/>
</g>
<!-- Node10 -->
<g id="node10" class="node">
<title>Node10</title>
<g id="a_node10"><a xlink:href="classlemons_1_1dsp_1_1_latency_engine.html" target="_top" xlink:title="Base class for audio engines that require latency (ie, a consistent block size) for their processing.">
<polygon fill="none" stroke="black" points="214,-452 214,-482 367,-482 367,-452 214,-452"/>
<text text-anchor="start" x="222" y="-470" font-family="Helvetica,sans-Serif" font-size="10.00">lemons::dsp::LatencyEngine</text>
<text text-anchor="middle" x="290.5" y="-459" font-family="Helvetica,sans-Serif" font-size="10.00">&lt; SampleType &gt;</text>
</a>
</g>
</g>
<!-- Node1&#45;&gt;Node10 -->
<g id="edge10" class="edge">
<title>Node1&#45;&gt;Node10</title>
<path fill="none" stroke="midnightblue" d="M115.67,-521.86C144.03,-512.86 178.81,-501.84 210,-492 220.21,-488.78 231.16,-485.33 241.57,-482.05"/>
<polygon fill="midnightblue" stroke="midnightblue" points="114.39,-518.59 105.92,-524.95 116.51,-525.26 114.39,-518.59"/>
</g>
<!-- Node13 -->
<g id="node13" class="node">
<title>Node13</title>
<g id="a_node13"><a xlink:href="classlemons_1_1dsp_1_1osc_1_1_engine.html" target="_top" xlink:title="A utility class that wraps an Oscillator into a self&#45;contained dsp::Engine.">
<polygon fill="none" stroke="black" points="222,-239 222,-269 359,-269 359,-239 222,-239"/>
<text text-anchor="start" x="230" y="-257" font-family="Helvetica,sans-Serif" font-size="10.00">lemons::dsp::osc::Engine</text>
<text text-anchor="middle" x="290.5" y="-246" font-family="Helvetica,sans-Serif" font-size="10.00">&lt; SampleType &gt;</text>
</a>
</g>
</g>
<!-- Node1&#45;&gt;Node13 -->
<g id="edge13" class="edge">
<title>Node1&#45;&gt;Node13</title>
<path fill="none" stroke="midnightblue" d="M76.69,-516.86C91.72,-497.79 113.65,-470.07 133,-446 186.07,-379.97 250.14,-301.87 276.85,-269.37"/>
<polygon fill="midnightblue" stroke="midnightblue" points="73.75,-514.95 70.31,-524.97 79.24,-519.28 73.75,-514.95"/>
</g>
<!-- Node22 -->
<g id="node22" class="node">
<title>Node22</title>
<g id="a_node22"><a xlink:href="classlemons_1_1dsp_1_1_engine.html" target="_top" xlink:title=" ">
<polygon fill="none" stroke="black" points="233,-190 233,-220 348,-220 348,-190 233,-190"/>
<text text-anchor="start" x="241" y="-208" font-family="Helvetica,sans-Serif" font-size="10.00">lemons::dsp::Engine</text>
<text text-anchor="middle" x="290.5" y="-197" font-family="Helvetica,sans-Serif" font-size="10.00">&lt; double &gt;</text>
</a>
</g>
</g>
<!-- Node1&#45;&gt;Node22 -->
<g id="edge22" class="edge">
<title>Node1&#45;&gt;Node22</title>
<path fill="none" stroke="orange" stroke-dasharray="5,2" d="M63.18,-514.87C75.62,-455.46 115.25,-305.64 210,-230 216.78,-224.58 224.76,-220.33 232.98,-217"/>
<polygon fill="orange" stroke="orange" points="59.71,-514.38 61.17,-524.88 66.57,-515.76 59.71,-514.38"/>
<text text-anchor="middle" x="162.5" y="-325" font-family="Helvetica,sans-Serif" font-size="10.00"> &lt; double &gt;</text>
</g>
<!-- Node23 -->
<g id="node23" class="node">
<title>Node23</title>
<g id="a_node23"><a xlink:href="classlemons_1_1dsp_1_1_engine.html" target="_top" xlink:title=" ">
<polygon fill="none" stroke="black" points="233,-403 233,-433 348,-433 348,-403 233,-403"/>
<text text-anchor="start" x="241" y="-421" font-family="Helvetica,sans-Serif" font-size="10.00">lemons::dsp::Engine</text>
<text text-anchor="middle" x="290.5" y="-410" font-family="Helvetica,sans-Serif" font-size="10.00">&lt; float &gt;</text>
</a>
</g>
</g>
<!-- Node1&#45;&gt;Node23 -->
<g id="edge23" class="edge">
<title>Node1&#45;&gt;Node23</title>
<path fill="none" stroke="orange" stroke-dasharray="5,2" d="M84.68,-518.18C98.6,-507.04 116.27,-493.63 133,-483 165.55,-462.32 174.36,-457.73 210,-443 218.56,-439.46 227.81,-436.13 236.86,-433.13"/>
<polygon fill="orange" stroke="orange" points="82.1,-515.77 76.53,-524.78 86.5,-521.21 82.1,-515.77"/>
<text text-anchor="middle" x="162.5" y="-486" font-family="Helvetica,sans-Serif" font-size="10.00"> &lt; float &gt;</text>
</g>
<!-- Node3 -->
<g id="node3" class="node">
<title>Node3</title>
<g id="a_node3"><a xlink:href="structlemons_1_1dsp_1_1_f_x_1_1_filter_engine.html" target="_top" xlink:title="A class that represents an audio engine holding a filter effect.">
<polygon fill="none" stroke="black" points="735,-719 735,-749 893,-749 893,-719 735,-719"/>
<text text-anchor="start" x="743" y="-737" font-family="Helvetica,sans-Serif" font-size="10.00">lemons::dsp::FX::FilterEngine</text>
<text text-anchor="middle" x="814" y="-726" font-family="Helvetica,sans-Serif" font-size="10.00">&lt; SampleType &gt;</text>
</a>
</g>
</g>
<!-- Node2&#45;&gt;Node3 -->
<g id="edge2" class="edge">
<title>Node2&#45;&gt;Node3</title>
<path fill="none" stroke="midnightblue" d="M515.1,-751.96C577.13,-748.22 669.33,-742.66 734.7,-738.72"/>
<polygon fill="midnightblue" stroke="midnightblue" points="514.8,-748.47 505.03,-752.56 515.22,-755.45 514.8,-748.47"/>
</g>
<!-- Node9 -->
<g id="node9" class="node">
<title>Node9</title>
<g id="a_node9"><a xlink:href="classlemons_1_1dsp_1_1_f_x_1_1_effect_engine.html" target="_top" xlink:title=" ">
<polygon fill="none" stroke="black" points="530,-697 530,-727 691,-727 691,-697 530,-697"/>
<text text-anchor="start" x="538" y="-715" font-family="Helvetica,sans-Serif" font-size="10.00">lemons::dsp::FX::EffectEngine</text>
<text text-anchor="middle" x="610.5" y="-704" font-family="Helvetica,sans-Serif" font-size="10.00">&lt; Filter, SampleType &gt;</text>
</a>
</g>
</g>
<!-- Node8&#45;&gt;Node9 -->
<g id="edge8" class="edge">
<title>Node8&#45;&gt;Node9</title>
<path fill="none" stroke="orange" stroke-dasharray="5,2" d="M381.45,-712C428.18,-712 484.79,-712 529.91,-712"/>
<polygon fill="orange" stroke="orange" points="381.33,-708.5 371.33,-712 381.33,-715.5 381.33,-708.5"/>
<text text-anchor="middle" x="447" y="-715" font-family="Helvetica,sans-Serif" font-size="10.00"> &lt; Filter, SampleType &gt;</text>
</g>
<!-- Node9&#45;&gt;Node3 -->
<g id="edge9" class="edge">
<title>Node9&#45;&gt;Node3</title>
<path fill="none" stroke="midnightblue" d="M701.35,-721.81C712.55,-723.03 723.93,-724.28 734.93,-725.48"/>
<polygon fill="midnightblue" stroke="midnightblue" points="701.46,-718.3 691.14,-720.69 700.7,-725.26 701.46,-718.3"/>
</g>
<!-- Node11 -->
<g id="node11" class="node">
<title>Node11</title>
<g id="a_node11"><a xlink:href="classlemons_1_1dsp_1_1_audio_file_player.html" target="_top" xlink:title="A kind of AudioEngine that plays audio from an AudioFile object.">
<polygon fill="none" stroke="black" points="531.5,-537 531.5,-567 689.5,-567 689.5,-537 531.5,-537"/>
<text text-anchor="start" x="539.5" y="-555" font-family="Helvetica,sans-Serif" font-size="10.00">lemons::dsp::AudioFilePlayer</text>
<text text-anchor="middle" x="610.5" y="-544" font-family="Helvetica,sans-Serif" font-size="10.00">&lt; SampleType &gt;</text>
</a>
</g>
</g>
<!-- Node10&#45;&gt;Node11 -->
<g id="edge11" class="edge">
<title>Node10&#45;&gt;Node11</title>
<path fill="none" stroke="midnightblue" d="M349.64,-485.16C356.84,-487.44 364.09,-489.76 371,-492 379.02,-494.6 380.9,-495.66 389,-498 439.93,-512.7 498.21,-526.86 542.06,-536.99"/>
<polygon fill="midnightblue" stroke="midnightblue" points="350.48,-481.75 339.89,-482.07 348.37,-488.43 350.48,-481.75"/>
</g>
<!-- Node12 -->
<g id="node12" class="node">
<title>Node12</title>
<g id="a_node12"><a xlink:href="classlemons_1_1dsp_1_1_engine_chain.html" target="_top" xlink:title="A kind of engine that contains a chain of other Engine objects.">
<polygon fill="none" stroke="black" points="539,-488 539,-518 682,-518 682,-488 539,-488"/>
<text text-anchor="start" x="547" y="-506" font-family="Helvetica,sans-Serif" font-size="10.00">lemons::dsp::EngineChain</text>
<text text-anchor="middle" x="610.5" y="-495" font-family="Helvetica,sans-Serif" font-size="10.00">&lt; SampleType &gt;</text>
</a>
</g>
</g>
<!-- Node10&#45;&gt;Node12 -->
<g id="edge12" class="edge">
<title>Node10&#45;&gt;Node12</title>
<path fill="none" stroke="midnightblue" d="M377.22,-476.7C427.86,-482.44 491.2,-489.61 538.94,-495.01"/>
<polygon fill="midnightblue" stroke="midnightblue" points="377.6,-473.22 367.26,-475.58 376.81,-480.18 377.6,-473.22"/>
</g>
<!-- Node14 -->
<g id="node14" class="node">
<title>Node14</title>
<g id="a_node14"><a xlink:href="classlemons_1_1dsp_1_1osc_1_1_engine.html" target="_top" xlink:title=" ">
<polygon fill="none" stroke="black" points="534.5,-180.5 534.5,-221.5 686.5,-221.5 686.5,-180.5 534.5,-180.5"/>
<text text-anchor="start" x="542.5" y="-209.5" font-family="Helvetica,sans-Serif" font-size="10.00">lemons::dsp::osc::Engine</text>
<text text-anchor="start" x="542.5" y="-198.5" font-family="Helvetica,sans-Serif" font-size="10.00">&lt; SampleType, lemons::dsp</text>
<text text-anchor="middle" x="610.5" y="-187.5" font-family="Helvetica,sans-Serif" font-size="10.00">::osc::Sine &gt;</text>
</a>
</g>
</g>
<!-- Node13&#45;&gt;Node14 -->
<g id="edge14" class="edge">
<title>Node13&#45;&gt;Node14</title>
<path fill="none" stroke="orange" stroke-dasharray="5,2" d="M365.34,-233.93C367.29,-232.7 369.19,-231.39 371,-230 383.04,-220.77 375.74,-208.37 389,-201 432.82,-176.62 489.54,-177.19 534.47,-183.56"/>
<polygon fill="orange" stroke="orange" points="363.46,-230.97 356.41,-238.88 366.85,-237.1 363.46,-230.97"/>
<text text-anchor="start" x="389" y="-215" font-family="Helvetica,sans-Serif" font-size="10.00"> &lt; SampleType, lemons</text>
<text text-anchor="middle" x="447" y="-204" font-family="Helvetica,sans-Serif" font-size="10.00">::dsp::osc::Sine &gt;</text>
</g>
<!-- Node15 -->
<g id="node15" class="node">
<title>Node15</title>
<g id="a_node15"><a xlink:href="classlemons_1_1dsp_1_1osc_1_1_engine.html" target="_top" xlink:title=" ">
<polygon fill="none" stroke="black" points="523,-438 523,-468 698,-468 698,-438 523,-438"/>
<text text-anchor="start" x="531" y="-456" font-family="Helvetica,sans-Serif" font-size="10.00">lemons::dsp::osc::Engine</text>
<text text-anchor="middle" x="610.5" y="-445" font-family="Helvetica,sans-Serif" font-size="10.00">&lt; float, lemons::dsp::osc::Saw &gt;</text>
</a>
</g>
</g>
<!-- Node13&#45;&gt;Node15 -->
<g id="edge15" class="edge">
<title>Node13&#45;&gt;Node15</title>
<path fill="none" stroke="orange" stroke-dasharray="5,2" d="M302.14,-278.49C317.02,-309.8 346.99,-363.49 389,-393 402.01,-402.14 485.13,-423.35 545.49,-437.93"/>
<polygon fill="orange" stroke="orange" points="305.21,-276.79 297.85,-269.17 298.86,-279.72 305.21,-276.79"/>
<text text-anchor="start" x="396" y="-440" font-family="Helvetica,sans-Serif" font-size="10.00"> &lt; float, lemons::dsp</text>
<text text-anchor="middle" x="447" y="-429" font-family="Helvetica,sans-Serif" font-size="10.00">::osc::Saw &gt;</text>
</g>
<!-- Node16 -->
<g id="node16" class="node">
<title>Node16</title>
<g id="a_node16"><a xlink:href="classlemons_1_1dsp_1_1osc_1_1_engine.html" target="_top" xlink:title=" ">
<polygon fill="none" stroke="black" points="534.5,-120.5 534.5,-161.5 686.5,-161.5 686.5,-120.5 534.5,-120.5"/>
<text text-anchor="start" x="542.5" y="-149.5" font-family="Helvetica,sans-Serif" font-size="10.00">lemons::dsp::osc::Engine</text>
<text text-anchor="start" x="542.5" y="-138.5" font-family="Helvetica,sans-Serif" font-size="10.00">&lt; SampleType, lemons::dsp</text>
<text text-anchor="middle" x="610.5" y="-127.5" font-family="Helvetica,sans-Serif" font-size="10.00">::osc::Saw &gt;</text>
</a>
</g>
</g>
<!-- Node13&#45;&gt;Node16 -->
<g id="edge16" class="edge">
<title>Node13&#45;&gt;Node16</title>
<path fill="none" stroke="orange" stroke-dasharray="5,2" d="M367.61,-233.28C368.79,-232.24 369.92,-231.15 371,-230 394.79,-204.72 362.42,-176.32 389,-154 428.5,-120.83 487.36,-118.93 534.33,-124.59"/>
<polygon fill="orange" stroke="orange" points="365.21,-230.7 359.22,-239.44 369.35,-236.35 365.21,-230.7"/>
<text text-anchor="start" x="389" y="-168" font-family="Helvetica,sans-Serif" font-size="10.00"> &lt; SampleType, lemons</text>
<text text-anchor="middle" x="447" y="-157" font-family="Helvetica,sans-Serif" font-size="10.00">::dsp::osc::Saw &gt;</text>
</g>
<!-- Node17 -->
<g id="node17" class="node">
<title>Node17</title>
<g id="a_node17"><a xlink:href="classlemons_1_1dsp_1_1osc_1_1_engine.html" target="_top" xlink:title=" ">
<polygon fill="none" stroke="black" points="542,-375.5 542,-416.5 679,-416.5 679,-375.5 542,-375.5"/>
<text text-anchor="start" x="550" y="-404.5" font-family="Helvetica,sans-Serif" font-size="10.00">lemons::dsp::osc::Engine</text>
<text text-anchor="start" x="550" y="-393.5" font-family="Helvetica,sans-Serif" font-size="10.00">&lt; float, lemons::dsp::osc</text>
<text text-anchor="middle" x="610.5" y="-382.5" font-family="Helvetica,sans-Serif" font-size="10.00">::Square &gt;</text>
</a>
</g>
</g>
<!-- Node13&#45;&gt;Node17 -->
<g id="edge17" class="edge">
<title>Node13&#45;&gt;Node17</title>
<path fill="none" stroke="orange" stroke-dasharray="5,2" d="M316.94,-275.61C335.83,-290.8 362.77,-310.7 389,-324 437.85,-348.76 497.03,-367.53 541.77,-379.69"/>
<polygon fill="orange" stroke="orange" points="319.06,-272.82 309.1,-269.21 314.63,-278.25 319.06,-272.82"/>
<text text-anchor="start" x="396" y="-381" font-family="Helvetica,sans-Serif" font-size="10.00"> &lt; float, lemons::dsp</text>
<text text-anchor="middle" x="447" y="-370" font-family="Helvetica,sans-Serif" font-size="10.00">::osc::Square &gt;</text>
</g>
<!-- Node18 -->
<g id="node18" class="node">
<title>Node18</title>
<g id="a_node18"><a xlink:href="classlemons_1_1dsp_1_1osc_1_1_engine.html" target="_top" xlink:title=" ">
<polygon fill="none" stroke="black" points="534.5,-60.5 534.5,-101.5 686.5,-101.5 686.5,-60.5 534.5,-60.5"/>
<text text-anchor="start" x="542.5" y="-89.5" font-family="Helvetica,sans-Serif" font-size="10.00">lemons::dsp::osc::Engine</text>
<text text-anchor="start" x="542.5" y="-78.5" font-family="Helvetica,sans-Serif" font-size="10.00">&lt; SampleType, lemons::dsp</text>
<text text-anchor="middle" x="610.5" y="-67.5" font-family="Helvetica,sans-Serif" font-size="10.00">::osc::Triangle &gt;</text>
</a>
</g>
</g>
<!-- Node13&#45;&gt;Node18 -->
<g id="edge18" class="edge">
<title>Node13&#45;&gt;Node18</title>
<path fill="none" stroke="orange" stroke-dasharray="5,2" d="M367.32,-233.85C368.61,-232.64 369.84,-231.36 371,-230 409.7,-184.61 345.53,-137.85 389,-97 426.97,-61.32 486.67,-58.98 534.38,-64.66"/>
<polygon fill="orange" stroke="orange" points="365.06,-231.17 359.26,-240.04 369.33,-236.72 365.06,-231.17"/>
<text text-anchor="start" x="389" y="-111" font-family="Helvetica,sans-Serif" font-size="10.00"> &lt; SampleType, lemons</text>
<text text-anchor="middle" x="447" y="-100" font-family="Helvetica,sans-Serif" font-size="10.00">::dsp::osc::Triangle &gt;</text>
</g>
<!-- Node19 -->
<g id="node19" class="node">
<title>Node19</title>
<g id="a_node19"><a xlink:href="classlemons_1_1dsp_1_1osc_1_1_engine.html" target="_top" xlink:title=" ">
<polygon fill="none" stroke="black" points="542,-311.5 542,-352.5 679,-352.5 679,-311.5 542,-311.5"/>
<text text-anchor="start" x="550" y="-340.5" font-family="Helvetica,sans-Serif" font-size="10.00">lemons::dsp::osc::Engine</text>
<text text-anchor="start" x="550" y="-329.5" font-family="Helvetica,sans-Serif" font-size="10.00">&lt; float, lemons::dsp::osc</text>
<text text-anchor="middle" x="610.5" y="-318.5" font-family="Helvetica,sans-Serif" font-size="10.00">::Sine &gt;</text>
</a>
</g>
</g>
<!-- Node13&#45;&gt;Node19 -->
<g id="edge19" class="edge">
<title>Node13&#45;&gt;Node19</title>
<path fill="none" stroke="orange" stroke-dasharray="5,2" d="M368.9,-270.26C409.55,-279.09 460.12,-290.52 505,-302 516.98,-305.06 529.67,-308.52 541.92,-311.98"/>
<polygon fill="orange" stroke="orange" points="369.56,-266.82 359.05,-268.13 368.09,-273.67 369.56,-266.82"/>
<text text-anchor="start" x="396" y="-316" font-family="Helvetica,sans-Serif" font-size="10.00"> &lt; float, lemons::dsp</text>
<text text-anchor="middle" x="447" y="-305" font-family="Helvetica,sans-Serif" font-size="10.00">::osc::Sine &gt;</text>
</g>
<!-- Node20 -->
<g id="node20" class="node">
<title>Node20</title>
<g id="a_node20"><a xlink:href="classlemons_1_1dsp_1_1osc_1_1_engine.html" target="_top" xlink:title=" ">
<polygon fill="none" stroke="black" points="534.5,-0.5 534.5,-41.5 686.5,-41.5 686.5,-0.5 534.5,-0.5"/>
<text text-anchor="start" x="542.5" y="-29.5" font-family="Helvetica,sans-Serif" font-size="10.00">lemons::dsp::osc::Engine</text>
<text text-anchor="start" x="542.5" y="-18.5" font-family="Helvetica,sans-Serif" font-size="10.00">&lt; SampleType, lemons::dsp</text>
<text text-anchor="middle" x="610.5" y="-7.5" font-family="Helvetica,sans-Serif" font-size="10.00">::osc::Square &gt;</text>
</a>
</g>
</g>
<!-- Node13&#45;&gt;Node20 -->
<g id="edge20" class="edge">
<title>Node13&#45;&gt;Node20</title>
<path fill="none" stroke="orange" stroke-dasharray="5,2" d="M367.29,-234.02C368.6,-232.76 369.84,-231.42 371,-230 398.26,-196.65 358.23,-67.14 389,-37 426.36,-0.4 486.41,1.77 534.42,-4.2"/>
<polygon fill="orange" stroke="orange" points="364.81,-231.51 359.09,-240.43 369.12,-237.03 364.81,-231.51"/>
<text text-anchor="start" x="389" y="-51" font-family="Helvetica,sans-Serif" font-size="10.00"> &lt; SampleType, lemons</text>
<text text-anchor="middle" x="447" y="-40" font-family="Helvetica,sans-Serif" font-size="10.00">::dsp::osc::Square &gt;</text>
</g>
<!-- Node21 -->
<g id="node21" class="node">
<title>Node21</title>
<g id="a_node21"><a xlink:href="classlemons_1_1dsp_1_1osc_1_1_engine.html" target="_top" xlink:title=" ">
<polygon fill="none" stroke="black" points="542,-242.5 542,-283.5 679,-283.5 679,-242.5 542,-242.5"/>
<text text-anchor="start" x="550" y="-271.5" font-family="Helvetica,sans-Serif" font-size="10.00">lemons::dsp::osc::Engine</text>
<text text-anchor="start" x="550" y="-260.5" font-family="Helvetica,sans-Serif" font-size="10.00">&lt; float, lemons::dsp::osc</text>
<text text-anchor="middle" x="610.5" y="-249.5" font-family="Helvetica,sans-Serif" font-size="10.00">::Triangle &gt;</text>
</a>
</g>
</g>
<!-- Node13&#45;&gt;Node21 -->
<g id="edge21" class="edge">
<title>Node13&#45;&gt;Node21</title>
<path fill="none" stroke="orange" stroke-dasharray="5,2" d="M358.43,-236.85C368.61,-234.84 379.04,-233.11 389,-232 440.24,-226.29 453.98,-224.59 505,-232 520.17,-234.2 536.2,-238.11 551.03,-242.43"/>
<polygon fill="orange" stroke="orange" points="357.44,-233.48 348.37,-238.94 358.87,-240.33 357.44,-233.48"/>
<text text-anchor="start" x="396" y="-246" font-family="Helvetica,sans-Serif" font-size="10.00"> &lt; float, lemons::dsp</text>
<text text-anchor="middle" x="447" y="-235" font-family="Helvetica,sans-Serif" font-size="10.00">::osc::Triangle &gt;</text>
</g>
<!-- Node23&#45;&gt;Node15 -->
<g id="edge24" class="edge">
<title>Node23&#45;&gt;Node15</title>
<path fill="none" stroke="midnightblue" d="M356.94,-436.69C361.77,-438.64 366.51,-440.75 371,-443 379.82,-447.43 379.61,-452.96 389,-456 431.62,-469.78 481.34,-470.34 522.77,-466.88"/>
<polygon fill="midnightblue" stroke="midnightblue" points="358.16,-433.41 347.57,-433.13 355.67,-439.96 358.16,-433.41"/>
</g>
<!-- Node23&#45;&gt;Node17 -->
<g id="edge26" class="edge">
<title>Node23&#45;&gt;Node17</title>
<path fill="none" stroke="midnightblue" d="M352.97,-435.25C396.11,-444.66 454.83,-452 505,-439 513.86,-436.7 514.7,-432.86 523,-429 532.33,-424.66 542.39,-420.42 552.25,-416.52"/>
<polygon fill="midnightblue" stroke="midnightblue" points="353.71,-431.83 343.18,-433.03 352.16,-438.66 353.71,-431.83"/>
</g>
<!-- Node23&#45;&gt;Node19 -->
<g id="edge25" class="edge">
<title>Node23&#45;&gt;Node19</title>
<path fill="none" stroke="midnightblue" d="M358.06,-403.6C410.02,-392.19 477.81,-376.9 505,-369 521.45,-364.22 539.09,-358.29 555.11,-352.59"/>
<polygon fill="midnightblue" stroke="midnightblue" points="357.24,-400.19 348.22,-405.75 358.74,-407.03 357.24,-400.19"/>
</g>
<!-- Node23&#45;&gt;Node21 -->
<g id="edge27" class="edge">
<title>Node23&#45;&gt;Node21</title>
<path fill="none" stroke="midnightblue" d="M309.86,-395.13C327.85,-374.27 357.14,-344.15 389,-327 435.7,-301.86 454.09,-313.88 505,-299 520.75,-294.4 537.63,-288.85 553.14,-283.51"/>
<polygon fill="midnightblue" stroke="midnightblue" points="307.08,-393 303.31,-402.9 312.44,-397.51 307.08,-393"/>
</g>
</g>
</svg>
        <g id="navigator" transform="translate(0 0)" fill="#404254">
                <rect fill="#f2f5e9" fill-opacity="0.5" stroke="#606060" stroke-width=".5" x="0" y="0" width="60" height="60"/>
                <use id="zoomplus" xlink:href="#zoomPlus" x="17" y="9" onmousedown="handleZoom(evt,'in')"/>
                <use id="zoomminus" xlink:href="#zoomMin" x="42" y="9" onmousedown="handleZoom(evt,'out')"/>
                <use id="reset" xlink:href="#resetDef" x="30" y="36" onmousedown="handleReset()"/>
                <g id="arrowUp" xlink:href="#dirArrow" transform="translate(30 24)" onmousedown="handlePan(0,-1)">
                  <use xlink:href="#rim" fill="#404040">
                        <set attributeName="fill" to="#808080" begin="arrowUp.mouseover" end="arrowUp.mouseout"/>
                  </use>
                  <path fill="none" stroke="white" stroke-width="1.5" d="M0,-3.0v7 M-2.5,-0.5L0,-3.0L2.5,-0.5"/>
                </g>
                <g id="arrowRight" xlink:href="#dirArrow" transform="rotate(90) translate(36 -43)" onmousedown="handlePan(1,0)">
                  <use xlink:href="#rim" fill="#404040">
                        <set attributeName="fill" to="#808080" begin="arrowRight.mouseover" end="arrowRight.mouseout"/>
                  </use>
                  <path fill="none" stroke="white" stroke-width="1.5" d="M0,-3.0v7 M-2.5,-0.5L0,-3.0L2.5,-0.5"/>
                </g>
                <g id="arrowDown" xlink:href="#dirArrow" transform="rotate(180) translate(-30 -48)" onmousedown="handlePan(0,1)">
                  <use xlink:href="#rim" fill="#404040">
                        <set attributeName="fill" to="#808080" begin="arrowDown.mouseover" end="arrowDown.mouseout"/>
                  </use>
                  <path fill="none" stroke="white" stroke-width="1.5" d="M0,-3.0v7 M-2.5,-0.5L0,-3.0L2.5,-0.5"/>
                </g>
                <g id="arrowLeft" xlink:href="#dirArrow" transform="rotate(270) translate(-36 17)" onmousedown="handlePan(-1,0)">
                  <use xlink:href="#rim" fill="#404040">
                        <set attributeName="fill" to="#808080" begin="arrowLeft.mouseover" end="arrowLeft.mouseout"/>
                  </use>
                  <path fill="none" stroke="white" stroke-width="1.5" d="M0,-3.0v7 M-2.5,-0.5L0,-3.0L2.5,-0.5"/>
                </g>
        </g>
        <svg viewBox="0 0 15 15" width="100%" height="30px" preserveAspectRatio="xMaxYMin meet">
         <g id="arrow_out" transform="scale(0.3 0.3)">
          <a xlink:href="classlemons_1_1dsp_1_1_engine__inherit__graph_org.svg" target="_base">
           <rect id="button" ry="5" rx="5" y="6" x="6" height="38" width="38"
                fill="#f2f5e9" fill-opacity="0.5" stroke="#606060" stroke-width="1.0"/>
           <path id="arrow"
             d="M 11.500037,31.436501 C 11.940474,20.09759 22.043105,11.32322 32.158766,21.979434 L 37.068811,17.246167 C 37.068811,17.246167 37.088388,32 37.088388,32 L 22.160133,31.978069 C 22.160133,31.978069 26.997745,27.140456 26.997745,27.140456 C 18.528582,18.264221 13.291696,25.230495 11.500037,31.436501 z"
             style="fill:#404040;"/>
          </a>
         </g>
        </svg>
</svg>
