<?xml version="1.0" encoding="UTF-8" standalone="no"?>
<!DOCTYPE svg PUBLIC "-//W3C//DTD SVG 1.1//EN"
 "http://www.w3.org/Graphics/SVG/1.1/DTD/svg11.dtd">
<!-- Generated by graphviz version 2.43.0 (0)
 -->
<!-- Title: lemons::midi::ChoppingProcessor&lt; SampleType &gt; Pages: 1 -->
<svg width="640pt" height="110pt"
 viewBox="0.00 0.00 640.00 110.00" xmlns="http://www.w3.org/2000/svg" xmlns:xlink="http://www.w3.org/1999/xlink">
<g id="graph0" class="graph" transform="scale(1 1) rotate(0) translate(4 106)">
<title>lemons::midi::ChoppingProcessor&lt; SampleType &gt;</title>
<!-- Node1 -->
<g id="node1" class="node">
<title>Node1</title>
<g id="a_node1"><a xlink:title=" ">
<polygon fill="#bfbfbf" stroke="black" points="0,-33 0,-63 179,-63 179,-33 0,-33"/>
<text text-anchor="start" x="8" y="-51" font-family="Helvetica,sans-Serif" font-size="10.00">lemons::midi::ChoppingProcessor</text>
<text text-anchor="middle" x="89.5" y="-40" font-family="Helvetica,sans-Serif" font-size="10.00">&lt; SampleType &gt;</text>
</a>
</g>
</g>
<!-- Node2 -->
<g id="node2" class="node">
<title>Node2</title>
<g id="a_node2"><a xlink:href="classlemons_1_1midi_1_1_chopping_processor.html" target="_top" xlink:title=" ">
<polygon fill="none" stroke="black" points="274,-63 274,-93 453,-93 453,-63 274,-63"/>
<text text-anchor="start" x="282" y="-81" font-family="Helvetica,sans-Serif" font-size="10.00">lemons::midi::ChoppingProcessor</text>
<text text-anchor="middle" x="363.5" y="-70" font-family="Helvetica,sans-Serif" font-size="10.00">&lt; double &gt;</text>
</a>
</g>
</g>
<!-- Node1&#45;&gt;Node2 -->
<g id="edge1" class="edge">
<title>Node1&#45;&gt;Node2</title>
<path fill="none" stroke="orange" stroke-dasharray="5,2" d="M189.28,-58.89C216.96,-61.95 246.88,-65.25 273.93,-68.23"/>
<polygon fill="orange" stroke="orange" points="189.51,-55.4 179.19,-57.78 188.74,-62.36 189.51,-55.4"/>
<text text-anchor="middle" x="226.5" y="-68" font-family="Helvetica,sans-Serif" font-size="10.00"> &lt; double &gt;</text>
</g>
<!-- Node4 -->
<g id="node4" class="node">
<title>Node4</title>
<g id="a_node4"><a xlink:href="classlemons_1_1midi_1_1_chopping_processor.html" target="_top" xlink:title=" ">
<polygon fill="none" stroke="black" points="274,-9 274,-39 453,-39 453,-9 274,-9"/>
<text text-anchor="start" x="282" y="-27" font-family="Helvetica,sans-Serif" font-size="10.00">lemons::midi::ChoppingProcessor</text>
<text text-anchor="middle" x="363.5" y="-16" font-family="Helvetica,sans-Serif" font-size="10.00">&lt; float &gt;</text>
</a>
</g>
</g>
<!-- Node1&#45;&gt;Node4 -->
<g id="edge3" class="edge">
<title>Node1&#45;&gt;Node4</title>
<path fill="none" stroke="orange" stroke-dasharray="5,2" d="M189.25,-36.74C191.86,-36.48 194.45,-36.24 197,-36 221.96,-33.69 249.06,-31.56 273.98,-29.76"/>
<polygon fill="orange" stroke="orange" points="188.7,-33.27 179.09,-37.75 189.39,-40.24 188.7,-33.27"/>
<text text-anchor="middle" x="226.5" y="-39" font-family="Helvetica,sans-Serif" font-size="10.00"> &lt; float &gt;</text>
</g>
<!-- Node3 -->
<g id="node3" class="node">
<title>Node3</title>
<g id="a_node3"><a xlink:title=" ">
<polygon fill="none" stroke="#bfbfbf" points="490,-60.5 490,-101.5 632,-101.5 632,-60.5 490,-60.5"/>
<text text-anchor="start" x="498" y="-89.5" font-family="Helvetica,sans-Serif" font-size="10.00">lemons::plugin::Processor</text>
<text text-anchor="start" x="498" y="-78.5" font-family="Helvetica,sans-Serif" font-size="10.00">Base::InternalProcessor</text>
<text text-anchor="middle" x="561" y="-67.5" font-family="Helvetica,sans-Serif" font-size="10.00">&lt; double &gt;</text>
</a>
</g>
</g>
<!-- Node2&#45;&gt;Node3 -->
<g id="edge2" class="edge">
<title>Node2&#45;&gt;Node3</title>
<path fill="none" stroke="midnightblue" d="M463.24,-79.52C472.23,-79.65 481.21,-79.79 489.87,-79.92"/>
<polygon fill="midnightblue" stroke="midnightblue" points="463.15,-76.01 453.1,-79.36 463.04,-83.01 463.15,-76.01"/>
</g>
<!-- Node5 -->
<g id="node5" class="node">
<title>Node5</title>
<g id="a_node5"><a xlink:title=" ">
<polygon fill="none" stroke="#bfbfbf" points="490,-0.5 490,-41.5 632,-41.5 632,-0.5 490,-0.5"/>
<text text-anchor="start" x="498" y="-29.5" font-family="Helvetica,sans-Serif" font-size="10.00">lemons::plugin::Processor</text>
<text text-anchor="start" x="498" y="-18.5" font-family="Helvetica,sans-Serif" font-size="10.00">Base::InternalProcessor</text>
<text text-anchor="middle" x="561" y="-7.5" font-family="Helvetica,sans-Serif" font-size="10.00">&lt; float &gt;</text>
</a>
</g>
</g>
<!-- Node4&#45;&gt;Node5 -->
<g id="edge4" class="edge">
<title>Node4&#45;&gt;Node5</title>
<path fill="none" stroke="midnightblue" d="M463.24,-22.48C472.23,-22.35 481.21,-22.21 489.87,-22.08"/>
<polygon fill="midnightblue" stroke="midnightblue" points="463.04,-18.99 453.1,-22.64 463.15,-25.99 463.04,-18.99"/>
</g>
</g>
</svg>
