<?xml version="1.0" encoding="UTF-8" standalone="no"?>
<!DOCTYPE svg PUBLIC "-//W3C//DTD SVG 1.1//EN"
 "http://www.w3.org/Graphics/SVG/1.1/DTD/svg11.dtd">
<!-- Generated by graphviz version 2.49.3 (20211023.0002)
 -->
<!-- Title: lemons::plugin::MetaParameter&lt; ValueType &gt; Pages: 1 -->
<svg width="358pt" height="356pt"
 viewBox="0.00 0.00 358.00 356.00" xmlns="http://www.w3.org/2000/svg" xmlns:xlink="http://www.w3.org/1999/xlink">
<g id="graph0" class="graph" transform="scale(1 1) rotate(0) translate(4 352)">
<title>lemons::plugin::MetaParameter&lt; ValueType &gt;</title>
<!-- Node1 -->
<g id="node1" class="node">
<title>Node1</title>
<g id="a_node1"><a xlink:title="A meta parameter class that implements the MetaParameterBase interface.">
<polygon fill="#bfbfbf" stroke="black" points="140.5,-135.5 140.5,-165.5 292.5,-165.5 292.5,-135.5 140.5,-135.5"/>
<text text-anchor="start" x="148.5" y="-153.5" font-family="Helvetica,sans-Serif" font-size="10.00">lemons::plugin::MetaParameter</text>
<text text-anchor="middle" x="216.5" y="-142.5" font-family="Helvetica,sans-Serif" font-size="10.00">&lt; ValueType &gt;</text>
</a>
</g>
</g>
<!-- Node6 -->
<g id="node6" class="node">
<title>Node6</title>
<g id="a_node6"><a xlink:href="classlemons_1_1plugin_1_1_meta_parameter.html" target="_top" xlink:title=" ">
<polygon fill="none" stroke="black" points="140.5,-57.5 140.5,-87.5 292.5,-87.5 292.5,-57.5 140.5,-57.5"/>
<text text-anchor="start" x="148.5" y="-75.5" font-family="Helvetica,sans-Serif" font-size="10.00">lemons::plugin::MetaParameter</text>
<text text-anchor="middle" x="216.5" y="-64.5" font-family="Helvetica,sans-Serif" font-size="10.00">&lt; float &gt;</text>
</a>
</g>
</g>
<!-- Node1&#45;&gt;Node6 -->
<g id="edge5" class="edge">
<title>Node1&#45;&gt;Node6</title>
<path fill="none" stroke="orange" stroke-dasharray="5,2" d="M216.5,-125.09C216.5,-112.76 216.5,-98.22 216.5,-87.73"/>
<polygon fill="orange" stroke="orange" points="213,-125.2 216.5,-135.2 220,-125.21 213,-125.2"/>
<text text-anchor="middle" x="236.5" y="-109" font-family="Helvetica,sans-Serif" font-size="10.00"> &lt; float &gt;</text>
</g>
<!-- Node2 -->
<g id="node2" class="node">
<title>Node2</title>
<g id="a_node2"><a xlink:href="classlemons_1_1plugin_1_1_typed_parameter.html" target="_top" xlink:title="A parameter that can be stored as a type other than a float, but still inherits from my Parameter bas...">
<polygon fill="none" stroke="black" points="0,-203.5 0,-233.5 157,-233.5 157,-203.5 0,-203.5"/>
<text text-anchor="start" x="8" y="-221.5" font-family="Helvetica,sans-Serif" font-size="10.00">lemons::plugin::TypedParameter</text>
<text text-anchor="middle" x="78.5" y="-210.5" font-family="Helvetica,sans-Serif" font-size="10.00">&lt; ValueType &gt;</text>
</a>
</g>
</g>
<!-- Node2&#45;&gt;Node1 -->
<g id="edge1" class="edge">
<title>Node2&#45;&gt;Node1</title>
<path fill="none" stroke="midnightblue" d="M117.22,-198.98C139.32,-188.41 166.58,-175.37 186.94,-165.64"/>
<polygon fill="midnightblue" stroke="midnightblue" points="115.62,-195.87 108.1,-203.34 118.64,-202.18 115.62,-195.87"/>
</g>
<!-- Node3 -->
<g id="node3" class="node">
<title>Node3</title>
<g id="a_node3"><a xlink:href="classlemons_1_1plugin_1_1_parameter.html" target="_top" xlink:title="A plugin parameter class.">
<polygon fill="none" stroke="black" points="13,-271.5 13,-290.5 144,-290.5 144,-271.5 13,-271.5"/>
<text text-anchor="middle" x="78.5" y="-278.5" font-family="Helvetica,sans-Serif" font-size="10.00">lemons::plugin::Parameter</text>
</a>
</g>
</g>
<!-- Node3&#45;&gt;Node2 -->
<g id="edge2" class="edge">
<title>Node3&#45;&gt;Node2</title>
<path fill="none" stroke="midnightblue" d="M78.5,-261.22C78.5,-252.36 78.5,-241.96 78.5,-233.76"/>
<polygon fill="midnightblue" stroke="midnightblue" points="75,-261.33 78.5,-271.33 82,-261.33 75,-261.33"/>
</g>
<!-- Node4 -->
<g id="node4" class="node">
<title>Node4</title>
<g id="a_node4"><a xlink:title=" ">
<polygon fill="none" stroke="black" points="7,-328.5 7,-347.5 150,-347.5 150,-328.5 7,-328.5"/>
<text text-anchor="middle" x="78.5" y="-335.5" font-family="Helvetica,sans-Serif" font-size="10.00">juce::RangedAudioParameter</text>
</a>
</g>
</g>
<!-- Node4&#45;&gt;Node3 -->
<g id="edge3" class="edge">
<title>Node4&#45;&gt;Node3</title>
<path fill="none" stroke="midnightblue" d="M78.5,-318.12C78.5,-308.82 78.5,-298.06 78.5,-290.71"/>
<polygon fill="midnightblue" stroke="midnightblue" points="75,-318.41 78.5,-328.41 82,-318.41 75,-318.41"/>
</g>
<!-- Node5 -->
<g id="node5" class="node">
<title>Node5</title>
<g id="a_node5"><a xlink:href="structlemons_1_1plugin_1_1_meta_parameter_base.html" target="_top" xlink:title="A type&#45;erased interface for a parameter that can be connected to other parameters and control their v...">
<polygon fill="none" stroke="black" points="175,-209 175,-228 350,-228 350,-209 175,-209"/>
<text text-anchor="middle" x="262.5" y="-216" font-family="Helvetica,sans-Serif" font-size="10.00">lemons::plugin::MetaParameterBase</text>
</a>
</g>
</g>
<!-- Node5&#45;&gt;Node1 -->
<g id="edge4" class="edge">
<title>Node5&#45;&gt;Node1</title>
<path fill="none" stroke="midnightblue" d="M250.76,-200.65C243.22,-189.83 233.53,-175.94 226.38,-165.68"/>
<polygon fill="midnightblue" stroke="midnightblue" points="247.9,-202.67 256.49,-208.87 253.64,-198.67 247.9,-202.67"/>
</g>
<!-- Node7 -->
<g id="node7" class="node">
<title>Node7</title>
<g id="a_node7"><a xlink:href="structlemons_1_1plugin_1_1_l_f_o.html" target="_top" xlink:title="An LFO, to be used by a ModulationManager object.">
<polygon fill="none" stroke="black" points="164.5,-0.5 164.5,-19.5 268.5,-19.5 268.5,-0.5 164.5,-0.5"/>
<text text-anchor="middle" x="216.5" y="-7.5" font-family="Helvetica,sans-Serif" font-size="10.00">lemons::plugin::LFO</text>
</a>
</g>
</g>
<!-- Node6&#45;&gt;Node7 -->
<g id="edge6" class="edge">
<title>Node6&#45;&gt;Node7</title>
<path fill="none" stroke="midnightblue" d="M216.5,-47.35C216.5,-37.51 216.5,-26.78 216.5,-19.54"/>
<polygon fill="midnightblue" stroke="midnightblue" points="213,-47.47 216.5,-57.47 220,-47.47 213,-47.47"/>
</g>
</g>
</svg>
