<?xml version="1.0" encoding="UTF-8" standalone="no"?>
<!DOCTYPE svg PUBLIC "-//W3C//DTD SVG 1.1//EN"
 "http://www.w3.org/Graphics/SVG/1.1/DTD/svg11.dtd">
<!-- Generated by graphviz version 2.43.0 (0)
 -->
<!-- Title: lemons::plugin::ParameterHolder&lt; ParameterType &gt; Pages: 1 -->
<svg width="975pt" height="88pt"
 viewBox="0.00 0.00 975.00 88.00" xmlns="http://www.w3.org/2000/svg" xmlns:xlink="http://www.w3.org/1999/xlink">
<g id="graph0" class="graph" transform="scale(1 1) rotate(0) translate(4 84)">
<title>lemons::plugin::ParameterHolder&lt; ParameterType &gt;</title>
<!-- Node1 -->
<g id="node1" class="node">
<title>Node1</title>
<g id="a_node1"><a xlink:title="Class that holds a parameter object, and can retain a reference to it after it has been added to an A...">
<polygon fill="#bfbfbf" stroke="black" points="395,-24.5 395,-54.5 540,-54.5 540,-24.5 395,-24.5"/>
<text text-anchor="start" x="403" y="-42.5" font-family="Helvetica,sans-Serif" font-size="10.00">lemons::plugin::Parameter</text>
<text text-anchor="middle" x="467.5" y="-31.5" font-family="Helvetica,sans-Serif" font-size="10.00">Holder&lt; ParameterType &gt;</text>
</a>
</g>
</g>
<!-- Node4 -->
<g id="node4" class="node">
<title>Node4</title>
<g id="a_node4"><a xlink:href="classlemons_1_1plugin_1_1_parameter_holder.html" target="_top" xlink:title=" ">
<polygon fill="none" stroke="black" points="763.5,-49.5 763.5,-79.5 952.5,-79.5 952.5,-49.5 763.5,-49.5"/>
<text text-anchor="start" x="771.5" y="-67.5" font-family="Helvetica,sans-Serif" font-size="10.00">lemons::plugin::Parameter</text>
<text text-anchor="middle" x="858" y="-56.5" font-family="Helvetica,sans-Serif" font-size="10.00">Holder&lt; plugin::ToggleParameter &gt;</text>
</a>
</g>
</g>
<!-- Node1&#45;&gt;Node4 -->
<g id="edge3" class="edge">
<title>Node1&#45;&gt;Node4</title>
<path fill="none" stroke="orange" stroke-dasharray="5,2" d="M550.38,-44.77C612.63,-48.77 698.35,-54.29 763.33,-58.47"/>
<polygon fill="orange" stroke="orange" points="550.41,-41.26 540.21,-44.11 549.96,-48.25 550.41,-41.26"/>
<text text-anchor="middle" x="644.5" y="-58.5" font-family="Helvetica,sans-Serif" font-size="10.00"> &lt; plugin::ToggleParameter &gt;</text>
</g>
<!-- Node5 -->
<g id="node5" class="node">
<title>Node5</title>
<g id="a_node5"><a xlink:href="classlemons_1_1plugin_1_1_parameter_holder.html" target="_top" xlink:title=" ">
<polygon fill="none" stroke="black" points="749,-0.5 749,-30.5 967,-30.5 967,-0.5 749,-0.5"/>
<text text-anchor="start" x="757" y="-18.5" font-family="Helvetica,sans-Serif" font-size="10.00">lemons::plugin::Parameter</text>
<text text-anchor="middle" x="858" y="-7.5" font-family="Helvetica,sans-Serif" font-size="10.00">Holder&lt; plugin::DefaultMetaParameter &gt;</text>
</a>
</g>
</g>
<!-- Node1&#45;&gt;Node5 -->
<g id="edge4" class="edge">
<title>Node1&#45;&gt;Node5</title>
<path fill="none" stroke="orange" stroke-dasharray="5,2" d="M550.34,-32.07C552.92,-31.87 555.48,-31.68 558,-31.5 621.26,-26.98 692.13,-23.14 748.99,-20.35"/>
<polygon fill="orange" stroke="orange" points="549.99,-28.58 540.29,-32.86 550.54,-35.56 549.99,-28.58"/>
<text text-anchor="middle" x="644.5" y="-34.5" font-family="Helvetica,sans-Serif" font-size="10.00"> &lt; plugin::DefaultMetaParameter &gt;</text>
</g>
<!-- Node2 -->
<g id="node2" class="node">
<title>Node2</title>
<g id="a_node2"><a xlink:href="structlemons_1_1plugin_1_1_param_holder_base.html" target="_top" xlink:title="Base class for ParameterHolder that allows any kind of parameter to be accessed without knowing the f...">
<polygon fill="none" stroke="black" points="176,-30 176,-49 358,-49 358,-30 176,-30"/>
<text text-anchor="middle" x="267" y="-37" font-family="Helvetica,sans-Serif" font-size="10.00">lemons::plugin::ParamHolderBase</text>
</a>
</g>
</g>
<!-- Node2&#45;&gt;Node1 -->
<g id="edge1" class="edge">
<title>Node2&#45;&gt;Node1</title>
<path fill="none" stroke="midnightblue" d="M368.35,-39.5C377.32,-39.5 386.27,-39.5 394.91,-39.5"/>
<polygon fill="midnightblue" stroke="midnightblue" points="368.25,-36 358.25,-39.5 368.25,-43 368.25,-36"/>
</g>
<!-- Node3 -->
<g id="node3" class="node">
<title>Node3</title>
<g id="a_node3"><a xlink:href="structlemons_1_1_serializable_data.html" target="_top" xlink:title="Base class for any C++ object that needs to be serialized to binary and back.">
<polygon fill="none" stroke="black" points="0,-30 0,-49 139,-49 139,-30 0,-30"/>
<text text-anchor="middle" x="69.5" y="-37" font-family="Helvetica,sans-Serif" font-size="10.00">lemons::SerializableData</text>
</a>
</g>
</g>
<!-- Node3&#45;&gt;Node2 -->
<g id="edge2" class="edge">
<title>Node3&#45;&gt;Node2</title>
<path fill="none" stroke="midnightblue" d="M149.31,-39.5C158.06,-39.5 167.02,-39.5 175.9,-39.5"/>
<polygon fill="midnightblue" stroke="midnightblue" points="149.15,-36 139.15,-39.5 149.15,-43 149.15,-36"/>
</g>
</g>
</svg>
