<?xml version="1.0" encoding="UTF-8" standalone="no"?>
<!DOCTYPE svg PUBLIC "-//W3C//DTD SVG 1.1//EN"
 "http://www.w3.org/Graphics/SVG/1.1/DTD/svg11.dtd">
<!-- Generated by graphviz version 2.49.3 (20211023.0002)
 -->
<!-- Title: lemons::dsp::StreamEngine&lt; SampleType, StreamType, &gt; Pages: 1 -->
<svg width="1228pt" height="724pt"
 viewBox="0.00 0.00 1228.00 723.50" xmlns="http://www.w3.org/2000/svg" xmlns:xlink="http://www.w3.org/1999/xlink">
<g id="graph0" class="graph" transform="scale(1 1) rotate(0) translate(4 719.5)">
<title>lemons::dsp::StreamEngine&lt; SampleType, StreamType, &gt;</title>
<!-- Node1 -->
<g id="node1" class="node">
<title>Node1</title>
<g id="a_node1"><a xlink:title="A utility class that wraps a SampleStream into a self&#45;contained dsp::Engine.">
<polygon fill="#bfbfbf" stroke="black" points="143,-345.5 143,-375.5 293,-375.5 293,-345.5 143,-345.5"/>
<text text-anchor="start" x="151" y="-363.5" font-family="Helvetica,sans-Serif" font-size="10.00">lemons::dsp::StreamEngine</text>
<text text-anchor="middle" x="218" y="-352.5" font-family="Helvetica,sans-Serif" font-size="10.00">&lt; SampleType, StreamType, &gt;</text>
</a>
</g>
</g>
<!-- Node3 -->
<g id="node3" class="node">
<title>Node3</title>
<g id="a_node3"><a xlink:href="classlemons_1_1dsp_1_1_stream_engine.html" target="_top" xlink:title=" ">
<polygon fill="none" stroke="black" points="460.5,-345.5 460.5,-375.5 597.5,-375.5 597.5,-345.5 460.5,-345.5"/>
<text text-anchor="start" x="468.5" y="-363.5" font-family="Helvetica,sans-Serif" font-size="10.00">lemons::dsp::StreamEngine</text>
<text text-anchor="middle" x="529" y="-352.5" font-family="Helvetica,sans-Serif" font-size="10.00">&lt; SampleType, OscType &gt;</text>
</a>
</g>
</g>
<!-- Node1&#45;&gt;Node3 -->
<g id="edge2" class="edge">
<title>Node1&#45;&gt;Node3</title>
<path fill="none" stroke="orange" stroke-dasharray="5,2" d="M303.04,-360.5C352.47,-360.5 414.13,-360.5 460.39,-360.5"/>
<polygon fill="orange" stroke="orange" points="303.01,-357 293.01,-360.5 303.01,-364 303.01,-357"/>
<text text-anchor="middle" x="371.5" y="-363.5" font-family="Helvetica,sans-Serif" font-size="10.00"> &lt; SampleType, OscType &gt;</text>
</g>
<!-- Node15 -->
<g id="node15" class="node">
<title>Node15</title>
<g id="a_node15"><a xlink:href="classlemons_1_1dsp_1_1_stream_engine.html" target="_top" xlink:title=" ">
<polygon fill="none" stroke="black" points="783,-630 783,-671 922,-671 922,-630 783,-630"/>
<text text-anchor="start" x="791" y="-659" font-family="Helvetica,sans-Serif" font-size="10.00">lemons::dsp::StreamEngine</text>
<text text-anchor="start" x="791" y="-648" font-family="Helvetica,sans-Serif" font-size="10.00">&lt; SampleType, lemons::dsp</text>
<text text-anchor="middle" x="852.5" y="-637" font-family="Helvetica,sans-Serif" font-size="10.00">::osc::Sine &gt;</text>
</a>
</g>
</g>
<!-- Node1&#45;&gt;Node15 -->
<g id="edge14" class="edge">
<title>Node1&#45;&gt;Node15</title>
<path fill="none" stroke="orange" stroke-dasharray="5,2" d="M220.73,-385.67C225.57,-434.63 243.72,-542.37 311,-593.5 347.86,-621.51 645.84,-640.07 782.94,-647.21"/>
<polygon fill="orange" stroke="orange" points="224.21,-385.27 219.85,-375.62 217.24,-385.88 224.21,-385.27"/>
<text text-anchor="start" x="477" y="-649.5" font-family="Helvetica,sans-Serif" font-size="10.00"> &lt; SampleType, lemons</text>
<text text-anchor="middle" x="529" y="-638.5" font-family="Helvetica,sans-Serif" font-size="10.00">::dsp::osc::Sine &gt;</text>
</g>
<!-- Node16 -->
<g id="node16" class="node">
<title>Node16</title>
<g id="a_node16"><a xlink:href="classlemons_1_1dsp_1_1_stream_engine.html" target="_top" xlink:title=" ">
<polygon fill="none" stroke="black" points="783,-428 783,-469 922,-469 922,-428 783,-428"/>
<text text-anchor="start" x="791" y="-457" font-family="Helvetica,sans-Serif" font-size="10.00">lemons::dsp::StreamEngine</text>
<text text-anchor="start" x="791" y="-446" font-family="Helvetica,sans-Serif" font-size="10.00">&lt; SampleType, lemons::dsp</text>
<text text-anchor="middle" x="852.5" y="-435" font-family="Helvetica,sans-Serif" font-size="10.00">::osc::Saw &gt;</text>
</a>
</g>
</g>
<!-- Node1&#45;&gt;Node16 -->
<g id="edge16" class="edge">
<title>Node1&#45;&gt;Node16</title>
<path fill="none" stroke="orange" stroke-dasharray="5,2" d="M303.34,-374.34C305.92,-374.74 308.48,-375.12 311,-375.5 480.28,-400.73 679.96,-426.72 782.73,-439.82"/>
<polygon fill="orange" stroke="orange" points="303.7,-370.86 293.29,-372.79 302.64,-377.78 303.7,-370.86"/>
<text text-anchor="start" x="477" y="-430.5" font-family="Helvetica,sans-Serif" font-size="10.00"> &lt; SampleType, lemons</text>
<text text-anchor="middle" x="529" y="-419.5" font-family="Helvetica,sans-Serif" font-size="10.00">::dsp::osc::Saw &gt;</text>
</g>
<!-- Node17 -->
<g id="node17" class="node">
<title>Node17</title>
<g id="a_node17"><a xlink:href="classlemons_1_1dsp_1_1_stream_engine.html" target="_top" xlink:title=" ">
<polygon fill="none" stroke="black" points="783,-500 783,-541 922,-541 922,-500 783,-500"/>
<text text-anchor="start" x="791" y="-529" font-family="Helvetica,sans-Serif" font-size="10.00">lemons::dsp::StreamEngine</text>
<text text-anchor="start" x="791" y="-518" font-family="Helvetica,sans-Serif" font-size="10.00">&lt; SampleType, lemons::dsp</text>
<text text-anchor="middle" x="852.5" y="-507" font-family="Helvetica,sans-Serif" font-size="10.00">::osc::Square &gt;</text>
</a>
</g>
</g>
<!-- Node1&#45;&gt;Node17 -->
<g id="edge18" class="edge">
<title>Node1&#45;&gt;Node17</title>
<path fill="none" stroke="orange" stroke-dasharray="5,2" d="M263.25,-379.67C278.3,-385.95 295.28,-392.78 311,-398.5 371.89,-420.67 387.2,-426.52 450,-442.5 565.61,-471.92 702.39,-496.32 782.77,-509.62"/>
<polygon fill="orange" stroke="orange" points="264.25,-376.29 253.68,-375.64 261.53,-382.75 264.25,-376.29"/>
<text text-anchor="start" x="477" y="-490.5" font-family="Helvetica,sans-Serif" font-size="10.00"> &lt; SampleType, lemons</text>
<text text-anchor="middle" x="529" y="-479.5" font-family="Helvetica,sans-Serif" font-size="10.00">::dsp::osc::Square &gt;</text>
</g>
<!-- Node18 -->
<g id="node18" class="node">
<title>Node18</title>
<g id="a_node18"><a xlink:href="classlemons_1_1dsp_1_1_stream_engine.html" target="_top" xlink:title=" ">
<polygon fill="none" stroke="black" points="459.5,-674 459.5,-715 598.5,-715 598.5,-674 459.5,-674"/>
<text text-anchor="start" x="467.5" y="-703" font-family="Helvetica,sans-Serif" font-size="10.00">lemons::dsp::StreamEngine</text>
<text text-anchor="start" x="467.5" y="-692" font-family="Helvetica,sans-Serif" font-size="10.00">&lt; SampleType, lemons::dsp</text>
<text text-anchor="middle" x="529" y="-681" font-family="Helvetica,sans-Serif" font-size="10.00">::osc::Triangle &gt;</text>
</a>
</g>
</g>
<!-- Node1&#45;&gt;Node18 -->
<g id="edge20" class="edge">
<title>Node1&#45;&gt;Node18</title>
<path fill="none" stroke="orange" stroke-dasharray="5,2" d="M219.69,-385.98C222.6,-440.61 237.35,-569.63 311,-638.5 350.86,-675.77 412.17,-689.01 459.47,-693.37"/>
<polygon fill="orange" stroke="orange" points="223.18,-385.63 219.24,-375.79 216.19,-385.93 223.18,-385.63"/>
<text text-anchor="start" x="319.5" y="-703.5" font-family="Helvetica,sans-Serif" font-size="10.00"> &lt; SampleType, lemons</text>
<text text-anchor="middle" x="371.5" y="-692.5" font-family="Helvetica,sans-Serif" font-size="10.00">::dsp::osc::Triangle &gt;</text>
</g>
<!-- Node19 -->
<g id="node19" class="node">
<title>Node19</title>
<g id="a_node19"><a xlink:href="classlemons_1_1dsp_1_1_stream_engine.html" target="_top" xlink:title=" ">
<polygon fill="none" stroke="black" points="626,-554 626,-595 765,-595 765,-554 626,-554"/>
<text text-anchor="start" x="634" y="-583" font-family="Helvetica,sans-Serif" font-size="10.00">lemons::dsp::StreamEngine</text>
<text text-anchor="start" x="634" y="-572" font-family="Helvetica,sans-Serif" font-size="10.00">&lt; SampleType, lemons::dsp</text>
<text text-anchor="middle" x="695.5" y="-561" font-family="Helvetica,sans-Serif" font-size="10.00">::osc::Detunable &gt;</text>
</a>
</g>
</g>
<!-- Node1&#45;&gt;Node19 -->
<g id="edge22" class="edge">
<title>Node1&#45;&gt;Node19</title>
<path fill="none" stroke="orange" stroke-dasharray="5,2" d="M225.9,-385.59C237.22,-421.65 263.38,-487.32 311,-519.5 405.74,-583.53 543.77,-586.77 625.81,-581.73"/>
<polygon fill="orange" stroke="orange" points="229.2,-384.41 222.97,-375.84 222.49,-386.43 229.2,-384.41"/>
<text text-anchor="start" x="319.5" y="-581.5" font-family="Helvetica,sans-Serif" font-size="10.00"> &lt; SampleType, lemons</text>
<text text-anchor="middle" x="371.5" y="-570.5" font-family="Helvetica,sans-Serif" font-size="10.00">::dsp::osc::Detunable &gt;</text>
</g>
<!-- Node20 -->
<g id="node20" class="node">
<title>Node20</title>
<g id="a_node20"><a xlink:href="classlemons_1_1dsp_1_1_stream_engine.html" target="_top" xlink:title=" ">
<polygon fill="none" stroke="black" points="460.5,-119 460.5,-160 597.5,-160 597.5,-119 460.5,-119"/>
<text text-anchor="start" x="468.5" y="-148" font-family="Helvetica,sans-Serif" font-size="10.00">lemons::dsp::StreamEngine</text>
<text text-anchor="start" x="468.5" y="-137" font-family="Helvetica,sans-Serif" font-size="10.00">&lt; float, lemons::dsp::osc</text>
<text text-anchor="middle" x="529" y="-126" font-family="Helvetica,sans-Serif" font-size="10.00">::Sine &gt;</text>
</a>
</g>
</g>
<!-- Node1&#45;&gt;Node20 -->
<g id="edge24" class="edge">
<title>Node1&#45;&gt;Node20</title>
<path fill="none" stroke="orange" stroke-dasharray="5,2" d="M227.81,-335.88C240.92,-302.7 268.63,-243.96 311,-210.5 354.09,-176.48 414.07,-158.49 460.05,-149.14"/>
<polygon fill="orange" stroke="orange" points="224.52,-334.71 224.22,-345.3 231.06,-337.2 224.52,-334.71"/>
<text text-anchor="start" x="326.5" y="-224.5" font-family="Helvetica,sans-Serif" font-size="10.00"> &lt; float, lemons::dsp</text>
<text text-anchor="middle" x="371.5" y="-213.5" font-family="Helvetica,sans-Serif" font-size="10.00">::osc::Sine &gt;</text>
</g>
<!-- Node21 -->
<g id="node21" class="node">
<title>Node21</title>
<g id="a_node21"><a xlink:href="classlemons_1_1dsp_1_1_stream_engine.html" target="_top" xlink:title=" ">
<polygon fill="none" stroke="black" points="450,-0.5 450,-30.5 608,-30.5 608,-0.5 450,-0.5"/>
<text text-anchor="start" x="458" y="-18.5" font-family="Helvetica,sans-Serif" font-size="10.00">lemons::dsp::StreamEngine</text>
<text text-anchor="middle" x="529" y="-7.5" font-family="Helvetica,sans-Serif" font-size="10.00">&lt; float, lemons::dsp::osc::Saw &gt;</text>
</a>
</g>
</g>
<!-- Node1&#45;&gt;Node21 -->
<g id="edge26" class="edge">
<title>Node1&#45;&gt;Node21</title>
<path fill="none" stroke="orange" stroke-dasharray="5,2" d="M222.56,-335.24C232.8,-266.3 264.64,-77.47 311,-38.5 348.84,-6.69 404.49,-1.33 449.96,-3.73"/>
<polygon fill="orange" stroke="orange" points="219.08,-334.83 221.1,-345.23 226.01,-335.84 219.08,-334.83"/>
<text text-anchor="start" x="326.5" y="-52.5" font-family="Helvetica,sans-Serif" font-size="10.00"> &lt; float, lemons::dsp</text>
<text text-anchor="middle" x="371.5" y="-41.5" font-family="Helvetica,sans-Serif" font-size="10.00">::osc::Saw &gt;</text>
</g>
<!-- Node22 -->
<g id="node22" class="node">
<title>Node22</title>
<g id="a_node22"><a xlink:href="classlemons_1_1dsp_1_1_stream_engine.html" target="_top" xlink:title=" ">
<polygon fill="none" stroke="black" points="627,-217 627,-258 764,-258 764,-217 627,-217"/>
<text text-anchor="start" x="635" y="-246" font-family="Helvetica,sans-Serif" font-size="10.00">lemons::dsp::StreamEngine</text>
<text text-anchor="start" x="635" y="-235" font-family="Helvetica,sans-Serif" font-size="10.00">&lt; float, lemons::dsp::osc</text>
<text text-anchor="middle" x="695.5" y="-224" font-family="Helvetica,sans-Serif" font-size="10.00">::Square &gt;</text>
</a>
</g>
</g>
<!-- Node1&#45;&gt;Node22 -->
<g id="edge28" class="edge">
<title>Node1&#45;&gt;Node22</title>
<path fill="none" stroke="orange" stroke-dasharray="5,2" d="M241.11,-338.38C258.56,-322.34 284.32,-301.59 311,-290.5 415.27,-247.17 547.85,-237.88 626.67,-236.62"/>
<polygon fill="orange" stroke="orange" points="238.58,-335.96 233.71,-345.37 243.38,-341.05 238.58,-335.96"/>
<text text-anchor="start" x="326.5" y="-304.5" font-family="Helvetica,sans-Serif" font-size="10.00"> &lt; float, lemons::dsp</text>
<text text-anchor="middle" x="371.5" y="-293.5" font-family="Helvetica,sans-Serif" font-size="10.00">::osc::Square &gt;</text>
</g>
<!-- Node23 -->
<g id="node23" class="node">
<title>Node23</title>
<g id="a_node23"><a xlink:href="classlemons_1_1dsp_1_1_stream_engine.html" target="_top" xlink:title=" ">
<polygon fill="none" stroke="black" points="627,-275 627,-316 764,-316 764,-275 627,-275"/>
<text text-anchor="start" x="635" y="-304" font-family="Helvetica,sans-Serif" font-size="10.00">lemons::dsp::StreamEngine</text>
<text text-anchor="start" x="635" y="-293" font-family="Helvetica,sans-Serif" font-size="10.00">&lt; float, lemons::dsp::osc</text>
<text text-anchor="middle" x="695.5" y="-282" font-family="Helvetica,sans-Serif" font-size="10.00">::Triangle &gt;</text>
</a>
</g>
</g>
<!-- Node1&#45;&gt;Node23 -->
<g id="edge30" class="edge">
<title>Node1&#45;&gt;Node23</title>
<path fill="none" stroke="orange" stroke-dasharray="5,2" d="M276.24,-342.66C287.67,-339.57 299.65,-336.66 311,-334.5 420.46,-313.63 549.76,-303.41 626.79,-298.82"/>
<polygon fill="orange" stroke="orange" points="275.07,-339.36 266.37,-345.41 276.95,-346.1 275.07,-339.36"/>
<text text-anchor="start" x="326.5" y="-348.5" font-family="Helvetica,sans-Serif" font-size="10.00"> &lt; float, lemons::dsp</text>
<text text-anchor="middle" x="371.5" y="-337.5" font-family="Helvetica,sans-Serif" font-size="10.00">::osc::Triangle &gt;</text>
</g>
<!-- Node24 -->
<g id="node24" class="node">
<title>Node24</title>
<g id="a_node24"><a xlink:href="classlemons_1_1dsp_1_1_stream_engine.html" target="_top" xlink:title=" ">
<polygon fill="none" stroke="black" points="627,-43 627,-84 764,-84 764,-43 627,-43"/>
<text text-anchor="start" x="635" y="-72" font-family="Helvetica,sans-Serif" font-size="10.00">lemons::dsp::StreamEngine</text>
<text text-anchor="start" x="635" y="-61" font-family="Helvetica,sans-Serif" font-size="10.00">&lt; float, lemons::dsp::osc</text>
<text text-anchor="middle" x="695.5" y="-50" font-family="Helvetica,sans-Serif" font-size="10.00">::Detunable &gt;</text>
</a>
</g>
</g>
<!-- Node1&#45;&gt;Node24 -->
<g id="edge32" class="edge">
<title>Node1&#45;&gt;Node24</title>
<path fill="none" stroke="orange" stroke-dasharray="5,2" d="M221.31,-335.17C227.12,-287.28 246.82,-183.62 311,-131.5 401.28,-58.18 543.36,-52.68 626.89,-56.98"/>
<polygon fill="orange" stroke="orange" points="217.81,-334.97 220.19,-345.29 224.77,-335.74 217.81,-334.97"/>
<text text-anchor="start" x="326.5" y="-145.5" font-family="Helvetica,sans-Serif" font-size="10.00"> &lt; float, lemons::dsp</text>
<text text-anchor="middle" x="371.5" y="-134.5" font-family="Helvetica,sans-Serif" font-size="10.00">::osc::Detunable &gt;</text>
</g>
<!-- Node2 -->
<g id="node2" class="node">
<title>Node2</title>
<g id="a_node2"><a xlink:href="classlemons_1_1dsp_1_1_engine.html" target="_top" xlink:title="Base class for an audio engine.">
<polygon fill="none" stroke="black" points="0,-345.5 0,-375.5 106,-375.5 106,-345.5 0,-345.5"/>
<text text-anchor="start" x="8" y="-363.5" font-family="Helvetica,sans-Serif" font-size="10.00">lemons::dsp::Engine</text>
<text text-anchor="middle" x="53" y="-352.5" font-family="Helvetica,sans-Serif" font-size="10.00">&lt; SampleType &gt;</text>
</a>
</g>
</g>
<!-- Node2&#45;&gt;Node1 -->
<g id="edge1" class="edge">
<title>Node2&#45;&gt;Node1</title>
<path fill="none" stroke="midnightblue" d="M116.13,-360.5C124.88,-360.5 133.95,-360.5 142.89,-360.5"/>
<polygon fill="midnightblue" stroke="midnightblue" points="116.02,-357 106.02,-360.5 116.02,-364 116.02,-357"/>
</g>
<!-- Node4 -->
<g id="node4" class="node">
<title>Node4</title>
<g id="a_node4"><a xlink:href="classlemons_1_1dsp_1_1osc_1_1_engine.html" target="_top" xlink:title=" ">
<polygon fill="none" stroke="black" points="784,-345.5 784,-375.5 921,-375.5 921,-345.5 784,-345.5"/>
<text text-anchor="start" x="792" y="-363.5" font-family="Helvetica,sans-Serif" font-size="10.00">lemons::dsp::osc::Engine</text>
<text text-anchor="middle" x="852.5" y="-352.5" font-family="Helvetica,sans-Serif" font-size="10.00">&lt; SampleType, OscType, &gt;</text>
</a>
</g>
</g>
<!-- Node3&#45;&gt;Node4 -->
<g id="edge3" class="edge">
<title>Node3&#45;&gt;Node4</title>
<path fill="none" stroke="midnightblue" d="M607.96,-360.5C661.7,-360.5 732.42,-360.5 783.8,-360.5"/>
<polygon fill="midnightblue" stroke="midnightblue" points="607.79,-357 597.79,-360.5 607.79,-364 607.79,-357"/>
</g>
<!-- Node5 -->
<g id="node5" class="node">
<title>Node5</title>
<g id="a_node5"><a xlink:href="classlemons_1_1dsp_1_1osc_1_1_engine.html" target="_top" xlink:title=" ">
<polygon fill="none" stroke="black" points="1071.5,-554 1071.5,-595 1210.5,-595 1210.5,-554 1071.5,-554"/>
<text text-anchor="start" x="1079.5" y="-583" font-family="Helvetica,sans-Serif" font-size="10.00">lemons::dsp::osc::Engine</text>
<text text-anchor="start" x="1079.5" y="-572" font-family="Helvetica,sans-Serif" font-size="10.00">&lt; SampleType, lemons::dsp</text>
<text text-anchor="middle" x="1141" y="-561" font-family="Helvetica,sans-Serif" font-size="10.00">::osc::Sine &gt;</text>
</a>
</g>
</g>
<!-- Node4&#45;&gt;Node5 -->
<g id="edge4" class="edge">
<title>Node4&#45;&gt;Node5</title>
<path fill="none" stroke="orange" stroke-dasharray="5,2" d="M887.31,-381.48C900.16,-391.17 913.7,-403.81 922,-418.5 946.59,-462.01 905.75,-493.11 940,-529.5 973.17,-564.75 1027.55,-575.24 1071.23,-577.34"/>
<polygon fill="orange" stroke="orange" points="889.19,-378.52 879.02,-375.54 885.11,-384.21 889.19,-378.52"/>
<text text-anchor="start" x="940" y="-588.5" font-family="Helvetica,sans-Serif" font-size="10.00"> &lt; SampleType, lemons</text>
<text text-anchor="middle" x="992" y="-577.5" font-family="Helvetica,sans-Serif" font-size="10.00">::dsp::osc::Sine &gt;</text>
</g>
<!-- Node6 -->
<g id="node6" class="node">
<title>Node6</title>
<g id="a_node6"><a xlink:href="classlemons_1_1dsp_1_1osc_1_1_engine.html" target="_top" xlink:title=" ">
<polygon fill="none" stroke="black" points="1071.5,-374 1071.5,-415 1210.5,-415 1210.5,-374 1071.5,-374"/>
<text text-anchor="start" x="1079.5" y="-403" font-family="Helvetica,sans-Serif" font-size="10.00">lemons::dsp::osc::Engine</text>
<text text-anchor="start" x="1079.5" y="-392" font-family="Helvetica,sans-Serif" font-size="10.00">&lt; SampleType, lemons::dsp</text>
<text text-anchor="middle" x="1141" y="-381" font-family="Helvetica,sans-Serif" font-size="10.00">::osc::Saw &gt;</text>
</a>
</g>
</g>
<!-- Node4&#45;&gt;Node6 -->
<g id="edge5" class="edge">
<title>Node4&#45;&gt;Node6</title>
<path fill="none" stroke="orange" stroke-dasharray="5,2" d="M931.06,-367.93C965.66,-371.43 1006.91,-375.85 1044,-380.5 1052.86,-381.61 1062.16,-382.86 1071.35,-384.15"/>
<polygon fill="orange" stroke="orange" points="931.32,-364.44 921.02,-366.92 930.62,-371.4 931.32,-364.44"/>
<text text-anchor="start" x="940" y="-394.5" font-family="Helvetica,sans-Serif" font-size="10.00"> &lt; SampleType, lemons</text>
<text text-anchor="middle" x="992" y="-383.5" font-family="Helvetica,sans-Serif" font-size="10.00">::dsp::osc::Saw &gt;</text>
</g>
<!-- Node7 -->
<g id="node7" class="node">
<title>Node7</title>
<g id="a_node7"><a xlink:href="classlemons_1_1dsp_1_1osc_1_1_engine.html" target="_top" xlink:title=" ">
<polygon fill="none" stroke="black" points="1071.5,-434 1071.5,-475 1210.5,-475 1210.5,-434 1071.5,-434"/>
<text text-anchor="start" x="1079.5" y="-463" font-family="Helvetica,sans-Serif" font-size="10.00">lemons::dsp::osc::Engine</text>
<text text-anchor="start" x="1079.5" y="-452" font-family="Helvetica,sans-Serif" font-size="10.00">&lt; SampleType, lemons::dsp</text>
<text text-anchor="middle" x="1141" y="-441" font-family="Helvetica,sans-Serif" font-size="10.00">::osc::Square &gt;</text>
</a>
</g>
</g>
<!-- Node4&#45;&gt;Node7 -->
<g id="edge6" class="edge">
<title>Node4&#45;&gt;Node7</title>
<path fill="none" stroke="orange" stroke-dasharray="5,2" d="M889.99,-380.2C905.16,-387.87 923.14,-396.28 940,-402.5 982.75,-418.26 1032.31,-431.18 1071.39,-440.2"/>
<polygon fill="orange" stroke="orange" points="891.43,-377.01 880.94,-375.55 888.23,-383.24 891.43,-377.01"/>
<text text-anchor="start" x="940" y="-446.5" font-family="Helvetica,sans-Serif" font-size="10.00"> &lt; SampleType, lemons</text>
<text text-anchor="middle" x="992" y="-435.5" font-family="Helvetica,sans-Serif" font-size="10.00">::dsp::osc::Square &gt;</text>
</g>
<!-- Node8 -->
<g id="node8" class="node">
<title>Node8</title>
<g id="a_node8"><a xlink:href="classlemons_1_1dsp_1_1osc_1_1_engine.html" target="_top" xlink:title=" ">
<polygon fill="none" stroke="black" points="1071.5,-614 1071.5,-655 1210.5,-655 1210.5,-614 1071.5,-614"/>
<text text-anchor="start" x="1079.5" y="-643" font-family="Helvetica,sans-Serif" font-size="10.00">lemons::dsp::osc::Engine</text>
<text text-anchor="start" x="1079.5" y="-632" font-family="Helvetica,sans-Serif" font-size="10.00">&lt; SampleType, lemons::dsp</text>
<text text-anchor="middle" x="1141" y="-621" font-family="Helvetica,sans-Serif" font-size="10.00">::osc::Triangle &gt;</text>
</a>
</g>
</g>
<!-- Node4&#45;&gt;Node8 -->
<g id="edge7" class="edge">
<title>Node4&#45;&gt;Node8</title>
<path fill="none" stroke="orange" stroke-dasharray="5,2" d="M888.06,-381.45C900.9,-391.07 914.22,-403.67 922,-418.5 940.89,-454.49 912.28,-570.78 940,-600.5 972.79,-635.66 1027.47,-642.99 1071.38,-642.18"/>
<polygon fill="orange" stroke="orange" points="889.94,-378.49 879.76,-375.55 885.89,-384.19 889.94,-378.49"/>
<text text-anchor="start" x="940" y="-654.5" font-family="Helvetica,sans-Serif" font-size="10.00"> &lt; SampleType, lemons</text>
<text text-anchor="middle" x="992" y="-643.5" font-family="Helvetica,sans-Serif" font-size="10.00">::dsp::osc::Triangle &gt;</text>
</g>
<!-- Node9 -->
<g id="node9" class="node">
<title>Node9</title>
<g id="a_node9"><a xlink:href="classlemons_1_1dsp_1_1osc_1_1_engine.html" target="_top" xlink:title=" ">
<polygon fill="none" stroke="black" points="1071.5,-494 1071.5,-535 1210.5,-535 1210.5,-494 1071.5,-494"/>
<text text-anchor="start" x="1079.5" y="-523" font-family="Helvetica,sans-Serif" font-size="10.00">lemons::dsp::osc::Engine</text>
<text text-anchor="start" x="1079.5" y="-512" font-family="Helvetica,sans-Serif" font-size="10.00">&lt; SampleType, lemons::dsp</text>
<text text-anchor="middle" x="1141" y="-501" font-family="Helvetica,sans-Serif" font-size="10.00">::osc::Detunable &gt;</text>
</a>
</g>
</g>
<!-- Node4&#45;&gt;Node9 -->
<g id="edge8" class="edge">
<title>Node4&#45;&gt;Node9</title>
<path fill="none" stroke="orange" stroke-dasharray="5,2" d="M884.32,-381.79C897.19,-391.82 911.54,-404.61 922,-418.5 933.73,-434.07 925.22,-445.79 940,-458.5 976.35,-489.78 1028.92,-503.67 1071.03,-509.8"/>
<polygon fill="orange" stroke="orange" points="886.23,-378.85 876.14,-375.63 882.02,-384.44 886.23,-378.85"/>
<text text-anchor="start" x="940" y="-517.5" font-family="Helvetica,sans-Serif" font-size="10.00"> &lt; SampleType, lemons</text>
<text text-anchor="middle" x="992" y="-506.5" font-family="Helvetica,sans-Serif" font-size="10.00">::dsp::osc::Detunable &gt;</text>
</g>
<!-- Node10 -->
<g id="node10" class="node">
<title>Node10</title>
<g id="a_node10"><a xlink:href="classlemons_1_1dsp_1_1osc_1_1_engine.html" target="_top" xlink:title=" ">
<polygon fill="none" stroke="black" points="1077,-190 1077,-231 1205,-231 1205,-190 1077,-190"/>
<text text-anchor="start" x="1085" y="-219" font-family="Helvetica,sans-Serif" font-size="10.00">lemons::dsp::osc::Engine</text>
<text text-anchor="start" x="1085" y="-208" font-family="Helvetica,sans-Serif" font-size="10.00">&lt; float, lemons::dsp::osc</text>
<text text-anchor="middle" x="1141" y="-197" font-family="Helvetica,sans-Serif" font-size="10.00">::Sine &gt;</text>
</a>
</g>
</g>
<!-- Node4&#45;&gt;Node10 -->
<g id="edge9" class="edge">
<title>Node4&#45;&gt;Node10</title>
<path fill="none" stroke="orange" stroke-dasharray="5,2" d="M866.28,-336.54C880.78,-311.77 906.8,-273.92 940,-253.5 981.29,-228.1 1035.41,-217.57 1076.94,-213.26"/>
<polygon fill="orange" stroke="orange" points="863.18,-334.91 861.29,-345.33 869.27,-338.36 863.18,-334.91"/>
<text text-anchor="start" x="947" y="-267.5" font-family="Helvetica,sans-Serif" font-size="10.00"> &lt; float, lemons::dsp</text>
<text text-anchor="middle" x="992" y="-256.5" font-family="Helvetica,sans-Serif" font-size="10.00">::osc::Sine &gt;</text>
</g>
<!-- Node11 -->
<g id="node11" class="node">
<title>Node11</title>
<g id="a_node11"><a xlink:href="classlemons_1_1dsp_1_1osc_1_1_engine.html" target="_top" xlink:title=" ">
<polygon fill="none" stroke="black" points="1062,-29.5 1062,-59.5 1220,-59.5 1220,-29.5 1062,-29.5"/>
<text text-anchor="start" x="1070" y="-47.5" font-family="Helvetica,sans-Serif" font-size="10.00">lemons::dsp::osc::Engine</text>
<text text-anchor="middle" x="1141" y="-36.5" font-family="Helvetica,sans-Serif" font-size="10.00">&lt; float, lemons::dsp::osc::Saw &gt;</text>
</a>
</g>
</g>
<!-- Node4&#45;&gt;Node11 -->
<g id="edge10" class="edge">
<title>Node4&#45;&gt;Node11</title>
<path fill="none" stroke="orange" stroke-dasharray="5,2" d="M856.02,-335.27C862.05,-287.84 881.47,-184.76 940,-124.5 972.57,-90.97 1021.02,-71.11 1062.07,-59.56"/>
<polygon fill="orange" stroke="orange" points="852.54,-334.95 854.84,-345.29 859.49,-335.77 852.54,-334.95"/>
<text text-anchor="start" x="947" y="-138.5" font-family="Helvetica,sans-Serif" font-size="10.00"> &lt; float, lemons::dsp</text>
<text text-anchor="middle" x="992" y="-127.5" font-family="Helvetica,sans-Serif" font-size="10.00">::osc::Saw &gt;</text>
</g>
<!-- Node12 -->
<g id="node12" class="node">
<title>Node12</title>
<g id="a_node12"><a xlink:href="classlemons_1_1dsp_1_1osc_1_1_engine.html" target="_top" xlink:title=" ">
<polygon fill="none" stroke="black" points="1077,-252 1077,-293 1205,-293 1205,-252 1077,-252"/>
<text text-anchor="start" x="1085" y="-281" font-family="Helvetica,sans-Serif" font-size="10.00">lemons::dsp::osc::Engine</text>
<text text-anchor="start" x="1085" y="-270" font-family="Helvetica,sans-Serif" font-size="10.00">&lt; float, lemons::dsp::osc</text>
<text text-anchor="middle" x="1141" y="-259" font-family="Helvetica,sans-Serif" font-size="10.00">::Square &gt;</text>
</a>
</g>
</g>
<!-- Node4&#45;&gt;Node12 -->
<g id="edge11" class="edge">
<title>Node4&#45;&gt;Node12</title>
<path fill="none" stroke="orange" stroke-dasharray="5,2" d="M879.46,-339.11C895.84,-326.74 918,-311.99 940,-303.5 983.93,-286.55 1036.67,-278.85 1076.96,-275.36"/>
<polygon fill="orange" stroke="orange" points="877.21,-336.42 871.45,-345.31 881.5,-341.95 877.21,-336.42"/>
<text text-anchor="start" x="947" y="-317.5" font-family="Helvetica,sans-Serif" font-size="10.00"> &lt; float, lemons::dsp</text>
<text text-anchor="middle" x="992" y="-306.5" font-family="Helvetica,sans-Serif" font-size="10.00">::osc::Square &gt;</text>
</g>
<!-- Node13 -->
<g id="node13" class="node">
<title>Node13</title>
<g id="a_node13"><a xlink:href="classlemons_1_1dsp_1_1osc_1_1_engine.html" target="_top" xlink:title=" ">
<polygon fill="none" stroke="black" points="1077,-313 1077,-354 1205,-354 1205,-313 1077,-313"/>
<text text-anchor="start" x="1085" y="-342" font-family="Helvetica,sans-Serif" font-size="10.00">lemons::dsp::osc::Engine</text>
<text text-anchor="start" x="1085" y="-331" font-family="Helvetica,sans-Serif" font-size="10.00">&lt; float, lemons::dsp::osc</text>
<text text-anchor="middle" x="1141" y="-320" font-family="Helvetica,sans-Serif" font-size="10.00">::Triangle &gt;</text>
</a>
</g>
</g>
<!-- Node4&#45;&gt;Node13 -->
<g id="edge12" class="edge">
<title>Node4&#45;&gt;Node13</title>
<path fill="none" stroke="orange" stroke-dasharray="5,2" d="M906.79,-342.66C917.66,-339.71 929.11,-337.1 940,-335.5 985.35,-328.85 1037.11,-328.52 1076.61,-329.77"/>
<polygon fill="orange" stroke="orange" points="905.66,-339.34 897,-345.44 907.57,-346.07 905.66,-339.34"/>
<text text-anchor="start" x="947" y="-349.5" font-family="Helvetica,sans-Serif" font-size="10.00"> &lt; float, lemons::dsp</text>
<text text-anchor="middle" x="992" y="-338.5" font-family="Helvetica,sans-Serif" font-size="10.00">::osc::Triangle &gt;</text>
</g>
<!-- Node14 -->
<g id="node14" class="node">
<title>Node14</title>
<g id="a_node14"><a xlink:href="classlemons_1_1dsp_1_1osc_1_1_engine.html" target="_top" xlink:title=" ">
<polygon fill="none" stroke="black" points="1077,-122 1077,-163 1205,-163 1205,-122 1077,-122"/>
<text text-anchor="start" x="1085" y="-151" font-family="Helvetica,sans-Serif" font-size="10.00">lemons::dsp::osc::Engine</text>
<text text-anchor="start" x="1085" y="-140" font-family="Helvetica,sans-Serif" font-size="10.00">&lt; float, lemons::dsp::osc</text>
<text text-anchor="middle" x="1141" y="-129" font-family="Helvetica,sans-Serif" font-size="10.00">::Detunable &gt;</text>
</a>
</g>
</g>
<!-- Node4&#45;&gt;Node14 -->
<g id="edge13" class="edge">
<title>Node4&#45;&gt;Node14</title>
<path fill="none" stroke="orange" stroke-dasharray="5,2" d="M859.42,-335.26C869.46,-298.18 893.43,-229.4 940,-192.5 978.85,-161.71 1034.2,-149.6 1076.83,-144.97"/>
<polygon fill="orange" stroke="orange" points="855.95,-334.7 856.85,-345.25 862.73,-336.44 855.95,-334.7"/>
<text text-anchor="start" x="947" y="-206.5" font-family="Helvetica,sans-Serif" font-size="10.00"> &lt; float, lemons::dsp</text>
<text text-anchor="middle" x="992" y="-195.5" font-family="Helvetica,sans-Serif" font-size="10.00">::osc::Detunable &gt;</text>
</g>
<!-- Node15&#45;&gt;Node5 -->
<g id="edge15" class="edge">
<title>Node15&#45;&gt;Node5</title>
<path fill="none" stroke="midnightblue" d="M926.25,-673.16C964.62,-680.5 1010.54,-681.48 1044,-657.5 1064.22,-643.01 1044.76,-622.44 1062,-604.5 1065.42,-600.94 1069.3,-597.8 1073.47,-595.03"/>
<polygon fill="midnightblue" stroke="midnightblue" points="926.66,-669.67 916.16,-671.05 925.23,-676.52 926.66,-669.67"/>
</g>
<!-- Node16&#45;&gt;Node6 -->
<g id="edge17" class="edge">
<title>Node16&#45;&gt;Node6</title>
<path fill="none" stroke="midnightblue" d="M932.43,-463.19C968.17,-466.14 1009.95,-464.2 1044,-447.5 1055.65,-441.78 1051.56,-432.22 1062,-424.5 1066.67,-421.05 1071.78,-417.94 1077.08,-415.16"/>
<polygon fill="midnightblue" stroke="midnightblue" points="932.33,-459.67 922.04,-462.18 931.65,-466.63 932.33,-459.67"/>
</g>
<!-- Node17&#45;&gt;Node7 -->
<g id="edge19" class="edge">
<title>Node17&#45;&gt;Node7</title>
<path fill="none" stroke="midnightblue" d="M932.13,-536.55C968.57,-539.84 1011.01,-537.44 1044,-517.5 1058.3,-508.86 1049.43,-495.51 1062,-484.5 1066.04,-480.96 1070.54,-477.82 1075.28,-475.04"/>
<polygon fill="midnightblue" stroke="midnightblue" points="932.34,-533.05 922.03,-535.48 931.6,-540.01 932.34,-533.05"/>
</g>
<!-- Node18&#45;&gt;Node8 -->
<g id="edge21" class="edge">
<title>Node18&#45;&gt;Node8</title>
<path fill="none" stroke="midnightblue" d="M608.8,-702.8C710.87,-711.22 893.54,-718.37 1044,-681.5 1065.99,-676.11 1088.82,-665.19 1106.7,-655.22"/>
<polygon fill="midnightblue" stroke="midnightblue" points="608.84,-699.29 598.57,-701.93 608.24,-706.26 608.84,-699.29"/>
</g>
<!-- Node19&#45;&gt;Node9 -->
<g id="edge23" class="edge">
<title>Node19&#45;&gt;Node9</title>
<path fill="none" stroke="midnightblue" d="M775.31,-587.84C864.1,-601.09 1001.59,-615.72 1044,-587.5 1061.25,-576.02 1047.14,-558.93 1062,-544.5 1065.64,-540.96 1069.75,-537.83 1074.12,-535.06"/>
<polygon fill="midnightblue" stroke="midnightblue" points="775.68,-584.35 765.27,-586.31 774.63,-591.27 775.68,-584.35"/>
</g>
<!-- Node20&#45;&gt;Node10 -->
<g id="edge25" class="edge">
<title>Node20&#45;&gt;Node10</title>
<path fill="none" stroke="midnightblue" d="M607.6,-119.7C713.21,-97.19 904.93,-72.42 1044,-146.5 1056.4,-153.11 1051.34,-163.35 1062,-172.5 1069.77,-179.17 1078.92,-184.98 1088.16,-189.91"/>
<polygon fill="midnightblue" stroke="midnightblue" points="606.68,-116.32 597.66,-121.87 608.17,-123.16 606.68,-116.32"/>
</g>
<!-- Node21&#45;&gt;Node11 -->
<g id="edge27" class="edge">
<title>Node21&#45;&gt;Node11</title>
<path fill="none" stroke="midnightblue" d="M618.68,-19.5C721.13,-24.15 894.77,-32.13 1044,-39.5 1049.83,-39.79 1055.87,-40.09 1061.94,-40.4"/>
<polygon fill="midnightblue" stroke="midnightblue" points="618.53,-15.99 608.38,-19.03 618.21,-22.98 618.53,-15.99"/>
</g>
<!-- Node22&#45;&gt;Node12 -->
<g id="edge29" class="edge">
<title>Node22&#45;&gt;Node12</title>
<path fill="none" stroke="midnightblue" d="M761.49,-213.91C834.62,-191.57 954.82,-167.77 1044,-214.5 1056.45,-221.02 1051.05,-231.69 1062,-240.5 1067.36,-244.81 1073.38,-248.62 1079.64,-251.96"/>
<polygon fill="midnightblue" stroke="midnightblue" points="760.43,-210.57 751.94,-216.9 762.53,-217.25 760.43,-210.57"/>
</g>
<!-- Node23&#45;&gt;Node13 -->
<g id="edge31" class="edge">
<title>Node23&#45;&gt;Node13</title>
<path fill="none" stroke="midnightblue" d="M762.93,-272.1C836.33,-250.51 955.79,-228.29 1044,-275.5 1056.72,-282.31 1050.79,-293.43 1062,-302.5 1066.76,-306.35 1072.05,-309.77 1077.58,-312.8"/>
<polygon fill="midnightblue" stroke="midnightblue" points="761.89,-268.76 753.33,-275 763.92,-275.46 761.89,-268.76"/>
</g>
<!-- Node24&#45;&gt;Node14 -->
<g id="edge33" class="edge">
<title>Node24&#45;&gt;Node14</title>
<path fill="none" stroke="midnightblue" d="M774.04,-48.9C846.2,-38.65 955.59,-31.8 1044,-63.5 1076.1,-75.01 1105.15,-102.41 1122.68,-121.69"/>
<polygon fill="midnightblue" stroke="midnightblue" points="773.49,-45.44 764.11,-50.36 774.52,-52.36 773.49,-45.44"/>
</g>
</g>
</svg>
