<?xml version="1.0" encoding="UTF-8" standalone="no"?>
<!DOCTYPE svg PUBLIC "-//W3C//DTD SVG 1.1//EN"
 "http://www.w3.org/Graphics/SVG/1.1/DTD/svg11.dtd">
<!-- Generated by graphviz version 2.43.0 (0)
 -->
<!-- Title: lemons::plugin::TypedParameter&lt; ValueType &gt; Pages: 1 -->
<svg width="1102pt" height="480pt"
 viewBox="0.00 0.00 1102.00 480.00" xmlns="http://www.w3.org/2000/svg" xmlns:xlink="http://www.w3.org/1999/xlink">
<g id="graph0" class="graph" transform="scale(1 1) rotate(0) translate(4 476)">
<title>lemons::plugin::TypedParameter&lt; ValueType &gt;</title>
<!-- Node1 -->
<g id="node1" class="node">
<title>Node1</title>
<g id="a_node1"><a xlink:title="A parameter that can be stored as a type other than a float, but still inherits from my Parameter bas...">
<polygon fill="#bfbfbf" stroke="black" points="182,-220.5 182,-250.5 355,-250.5 355,-220.5 182,-220.5"/>
<text text-anchor="start" x="190" y="-238.5" font-family="Helvetica,sans-Serif" font-size="10.00">lemons::plugin::TypedParameter</text>
<text text-anchor="middle" x="268.5" y="-227.5" font-family="Helvetica,sans-Serif" font-size="10.00">&lt; ValueType &gt;</text>
</a>
</g>
</g>
<!-- Node3 -->
<g id="node3" class="node">
<title>Node3</title>
<g id="a_node3"><a xlink:href="structlemons_1_1plugin_1_1_float_amount_parameter.html" target="_top" xlink:title="A parameter that represents a value in a normalized 0&#45;1 range.">
<polygon fill="none" stroke="black" points="451.5,-441.5 451.5,-471.5 609.5,-471.5 609.5,-441.5 451.5,-441.5"/>
<text text-anchor="start" x="459.5" y="-459.5" font-family="Helvetica,sans-Serif" font-size="10.00">lemons::plugin::FloatAmount</text>
<text text-anchor="middle" x="530.5" y="-448.5" font-family="Helvetica,sans-Serif" font-size="10.00">Parameter&lt; float &gt;</text>
</a>
</g>
</g>
<!-- Node1&#45;&gt;Node3 -->
<g id="edge2" class="edge">
<title>Node1&#45;&gt;Node3</title>
<path fill="none" stroke="midnightblue" d="M282.39,-259.64C306.61,-302.38 363.29,-390.79 438,-432.5 444.17,-435.94 450.84,-438.91 457.68,-441.45"/>
<polygon fill="midnightblue" stroke="midnightblue" points="285.37,-257.8 277.46,-250.76 279.26,-261.2 285.37,-257.8"/>
</g>
<!-- Node4 -->
<g id="node4" class="node">
<title>Node4</title>
<g id="a_node4"><a xlink:href="structlemons_1_1plugin_1_1_frequency_parameter.html" target="_top" xlink:title="A parameter that represents a frequency in Hz.">
<polygon fill="none" stroke="black" points="458,-392.5 458,-422.5 603,-422.5 603,-392.5 458,-392.5"/>
<text text-anchor="start" x="466" y="-410.5" font-family="Helvetica,sans-Serif" font-size="10.00">lemons::plugin::Frequency</text>
<text text-anchor="middle" x="530.5" y="-399.5" font-family="Helvetica,sans-Serif" font-size="10.00">Parameter&lt; float &gt;</text>
</a>
</g>
</g>
<!-- Node1&#45;&gt;Node4 -->
<g id="edge3" class="edge">
<title>Node1&#45;&gt;Node4</title>
<path fill="none" stroke="midnightblue" d="M288.91,-258.47C317.93,-291.29 375.9,-351.22 438,-383.5 444.56,-386.91 451.64,-389.86 458.85,-392.41"/>
<polygon fill="midnightblue" stroke="midnightblue" points="291.38,-255.98 282.17,-250.74 286.1,-260.58 291.38,-255.98"/>
</g>
<!-- Node5 -->
<g id="node5" class="node">
<title>Node5</title>
<g id="a_node5"><a xlink:href="structlemons_1_1plugin_1_1_gain_parameter.html" target="_top" xlink:title="A parameter that represents a gain value in decibels.">
<polygon fill="none" stroke="black" points="447,-343.5 447,-373.5 614,-373.5 614,-343.5 447,-343.5"/>
<text text-anchor="start" x="455" y="-361.5" font-family="Helvetica,sans-Serif" font-size="10.00">lemons::plugin::GainParameter</text>
<text text-anchor="middle" x="530.5" y="-350.5" font-family="Helvetica,sans-Serif" font-size="10.00">&lt; float &gt;</text>
</a>
</g>
</g>
<!-- Node1&#45;&gt;Node5 -->
<g id="edge4" class="edge">
<title>Node1&#45;&gt;Node5</title>
<path fill="none" stroke="midnightblue" d="M299.46,-256.55C332.17,-278.68 386.74,-313.2 438,-334.5 446.04,-337.84 454.67,-340.83 463.3,-343.46"/>
<polygon fill="midnightblue" stroke="midnightblue" points="301.07,-253.41 290.84,-250.66 297.12,-259.19 301.07,-253.41"/>
</g>
<!-- Node6 -->
<g id="node6" class="node">
<title>Node6</title>
<g id="a_node6"><a xlink:href="classlemons_1_1plugin_1_1_meta_parameter.html" target="_top" xlink:title=" ">
<polygon fill="none" stroke="black" points="445.5,-245.5 445.5,-275.5 615.5,-275.5 615.5,-245.5 445.5,-245.5"/>
<text text-anchor="start" x="453.5" y="-263.5" font-family="Helvetica,sans-Serif" font-size="10.00">lemons::plugin::MetaParameter</text>
<text text-anchor="middle" x="530.5" y="-252.5" font-family="Helvetica,sans-Serif" font-size="10.00">&lt; ValueType &gt;</text>
</a>
</g>
</g>
<!-- Node1&#45;&gt;Node6 -->
<g id="edge5" class="edge">
<title>Node1&#45;&gt;Node6</title>
<path fill="none" stroke="midnightblue" d="M365.62,-244.74C391.68,-247.25 419.7,-249.94 445.06,-252.38"/>
<polygon fill="midnightblue" stroke="midnightblue" points="365.64,-241.23 355.35,-243.76 364.97,-248.2 365.64,-241.23"/>
</g>
<!-- Node9 -->
<g id="node9" class="node">
<title>Node9</title>
<g id="a_node9"><a xlink:href="structlemons_1_1plugin_1_1_meter_parameter.html" target="_top" xlink:title="A parameter that represents a general kind of meter, used for reporting things like level or gain red...">
<polygon fill="none" stroke="black" points="444,-294.5 444,-324.5 617,-324.5 617,-294.5 444,-294.5"/>
<text text-anchor="start" x="452" y="-312.5" font-family="Helvetica,sans-Serif" font-size="10.00">lemons::plugin::MeterParameter</text>
<text text-anchor="middle" x="530.5" y="-301.5" font-family="Helvetica,sans-Serif" font-size="10.00">&lt; float &gt;</text>
</a>
</g>
</g>
<!-- Node1&#45;&gt;Node9 -->
<g id="edge8" class="edge">
<title>Node1&#45;&gt;Node9</title>
<path fill="none" stroke="midnightblue" d="M330,-253.35C362.06,-262.75 402.13,-274.38 438,-284.5 449.57,-287.76 461.98,-291.2 473.81,-294.44"/>
<polygon fill="midnightblue" stroke="midnightblue" points="330.9,-249.97 320.32,-250.51 328.93,-256.68 330.9,-249.97"/>
</g>
<!-- Node11 -->
<g id="node11" class="node">
<title>Node11</title>
<g id="a_node11"><a xlink:href="structlemons_1_1plugin_1_1_midi_pitch_parameter.html" target="_top" xlink:title="A parameter that represents a MIDI pitch.">
<polygon fill="none" stroke="black" points="460.5,-196.5 460.5,-226.5 600.5,-226.5 600.5,-196.5 460.5,-196.5"/>
<text text-anchor="start" x="468.5" y="-214.5" font-family="Helvetica,sans-Serif" font-size="10.00">lemons::plugin::MidiPitch</text>
<text text-anchor="middle" x="530.5" y="-203.5" font-family="Helvetica,sans-Serif" font-size="10.00">Parameter&lt; int &gt;</text>
</a>
</g>
</g>
<!-- Node1&#45;&gt;Node11 -->
<g id="edge10" class="edge">
<title>Node1&#45;&gt;Node11</title>
<path fill="none" stroke="midnightblue" d="M365.44,-226.64C396.85,-223.74 431.12,-220.58 460.17,-217.9"/>
<polygon fill="midnightblue" stroke="midnightblue" points="364.99,-223.17 355.35,-227.57 365.63,-230.14 364.99,-223.17"/>
</g>
<!-- Node12 -->
<g id="node12" class="node">
<title>Node12</title>
<g id="a_node12"><a xlink:href="structlemons_1_1plugin_1_1_seconds_parameter.html" target="_top" xlink:title="A parameter that represents a time value in seconds, expressed as a float.">
<polygon fill="none" stroke="black" points="438,-147.5 438,-177.5 623,-177.5 623,-147.5 438,-147.5"/>
<text text-anchor="start" x="446" y="-165.5" font-family="Helvetica,sans-Serif" font-size="10.00">lemons::plugin::SecondsParameter</text>
<text text-anchor="middle" x="530.5" y="-154.5" font-family="Helvetica,sans-Serif" font-size="10.00">&lt; float &gt;</text>
</a>
</g>
</g>
<!-- Node1&#45;&gt;Node12 -->
<g id="edge11" class="edge">
<title>Node1&#45;&gt;Node12</title>
<path fill="none" stroke="midnightblue" d="M329.6,-217.6C361.71,-208.15 401.94,-196.47 438,-186.5 448.76,-183.52 460.27,-180.44 471.35,-177.5"/>
<polygon fill="midnightblue" stroke="midnightblue" points="328.51,-214.28 319.91,-220.46 330.49,-220.99 328.51,-214.28"/>
</g>
<!-- Node13 -->
<g id="node13" class="node">
<title>Node13</title>
<g id="a_node13"><a xlink:href="structlemons_1_1plugin_1_1_semitones_parameter.html" target="_top" xlink:title="A parameter that represents a number of semitones, as an integer.">
<polygon fill="none" stroke="black" points="457.5,-98.5 457.5,-128.5 603.5,-128.5 603.5,-98.5 457.5,-98.5"/>
<text text-anchor="start" x="465.5" y="-116.5" font-family="Helvetica,sans-Serif" font-size="10.00">lemons::plugin::Semitones</text>
<text text-anchor="middle" x="530.5" y="-105.5" font-family="Helvetica,sans-Serif" font-size="10.00">Parameter&lt; int &gt;</text>
</a>
</g>
</g>
<!-- Node1&#45;&gt;Node13 -->
<g id="edge12" class="edge">
<title>Node1&#45;&gt;Node13</title>
<path fill="none" stroke="midnightblue" d="M299.77,-214.5C332.54,-192.6 386.97,-158.58 438,-137.5 446.05,-134.18 454.68,-131.2 463.32,-128.57"/>
<polygon fill="midnightblue" stroke="midnightblue" points="297.46,-211.84 291.13,-220.33 301.37,-217.64 297.46,-211.84"/>
</g>
<!-- Node14 -->
<g id="node14" class="node">
<title>Node14</title>
<g id="a_node14"><a xlink:href="classlemons_1_1plugin_1_1_typed_parameter.html" target="_top" xlink:title=" ">
<polygon fill="none" stroke="black" points="444,-49.5 444,-79.5 617,-79.5 617,-49.5 444,-49.5"/>
<text text-anchor="start" x="452" y="-67.5" font-family="Helvetica,sans-Serif" font-size="10.00">lemons::plugin::TypedParameter</text>
<text text-anchor="middle" x="530.5" y="-56.5" font-family="Helvetica,sans-Serif" font-size="10.00">&lt; int &gt;</text>
</a>
</g>
</g>
<!-- Node1&#45;&gt;Node14 -->
<g id="edge13" class="edge">
<title>Node1&#45;&gt;Node14</title>
<path fill="none" stroke="orange" stroke-dasharray="5,2" d="M288.04,-212.25C316.38,-178.58 373.97,-117.13 438,-88.5 445.5,-85.15 453.55,-82.19 461.67,-79.6"/>
<polygon fill="orange" stroke="orange" points="285.16,-210.24 281.48,-220.18 290.55,-214.71 285.16,-210.24"/>
<text text-anchor="middle" x="396.5" y="-130.5" font-family="Helvetica,sans-Serif" font-size="10.00"> &lt; int &gt;</text>
</g>
<!-- Node17 -->
<g id="node17" class="node">
<title>Node17</title>
<g id="a_node17"><a xlink:href="classlemons_1_1plugin_1_1_typed_parameter.html" target="_top" xlink:title=" ">
<polygon fill="none" stroke="black" points="444,-0.5 444,-30.5 617,-30.5 617,-0.5 444,-0.5"/>
<text text-anchor="start" x="452" y="-18.5" font-family="Helvetica,sans-Serif" font-size="10.00">lemons::plugin::TypedParameter</text>
<text text-anchor="middle" x="530.5" y="-7.5" font-family="Helvetica,sans-Serif" font-size="10.00">&lt; bool &gt;</text>
</a>
</g>
</g>
<!-- Node1&#45;&gt;Node17 -->
<g id="edge17" class="edge">
<title>Node1&#45;&gt;Node17</title>
<path fill="none" stroke="orange" stroke-dasharray="5,2" d="M282.27,-211.5C299.84,-179.95 333.78,-123.9 373,-84.5 397.79,-59.6 406.08,-54.18 438,-39.5 445.31,-36.14 453.18,-33.18 461.11,-30.6"/>
<polygon fill="orange" stroke="orange" points="279.1,-210.01 277.36,-220.47 285.23,-213.38 279.1,-210.01"/>
<text text-anchor="middle" x="396.5" y="-87.5" font-family="Helvetica,sans-Serif" font-size="10.00"> &lt; bool &gt;</text>
</g>
<!-- Node2 -->
<g id="node2" class="node">
<title>Node2</title>
<g id="a_node2"><a xlink:href="classlemons_1_1plugin_1_1_parameter.html" target="_top" xlink:title="A plugin parameter class that allows you to use my Serializing API, and has a few other cool bells an...">
<polygon fill="none" stroke="black" points="0,-226 0,-245 145,-245 145,-226 0,-226"/>
<text text-anchor="middle" x="72.5" y="-233" font-family="Helvetica,sans-Serif" font-size="10.00">lemons::plugin::Parameter</text>
</a>
</g>
</g>
<!-- Node2&#45;&gt;Node1 -->
<g id="edge1" class="edge">
<title>Node2&#45;&gt;Node1</title>
<path fill="none" stroke="midnightblue" d="M155.41,-235.5C164.2,-235.5 173.16,-235.5 181.99,-235.5"/>
<polygon fill="midnightblue" stroke="midnightblue" points="155.19,-232 145.19,-235.5 155.19,-239 155.19,-232"/>
</g>
<!-- Node7 -->
<g id="node7" class="node">
<title>Node7</title>
<g id="a_node7"><a xlink:href="classlemons_1_1plugin_1_1_meta_parameter.html" target="_top" xlink:title=" ">
<polygon fill="none" stroke="black" points="704.5,-229.5 704.5,-259.5 874.5,-259.5 874.5,-229.5 704.5,-229.5"/>
<text text-anchor="start" x="712.5" y="-247.5" font-family="Helvetica,sans-Serif" font-size="10.00">lemons::plugin::MetaParameter</text>
<text text-anchor="middle" x="789.5" y="-236.5" font-family="Helvetica,sans-Serif" font-size="10.00">&lt; int &gt;</text>
</a>
</g>
</g>
<!-- Node6&#45;&gt;Node7 -->
<g id="edge6" class="edge">
<title>Node6&#45;&gt;Node7</title>
<path fill="none" stroke="orange" stroke-dasharray="5,2" d="M625.76,-254.63C651.43,-253.03 679.07,-251.31 704.16,-249.75"/>
<polygon fill="orange" stroke="orange" points="625.41,-251.15 615.65,-255.26 625.85,-258.13 625.41,-251.15"/>
<text text-anchor="middle" x="660.5" y="-256.5" font-family="Helvetica,sans-Serif" font-size="10.00"> &lt; int &gt;</text>
</g>
<!-- Node8 -->
<g id="node8" class="node">
<title>Node8</title>
<g id="a_node8"><a xlink:href="structlemons_1_1plugin_1_1_default_meta_parameter.html" target="_top" xlink:title=" ">
<polygon fill="none" stroke="black" points="928.5,-229.5 928.5,-259.5 1083.5,-259.5 1083.5,-229.5 928.5,-229.5"/>
<text text-anchor="start" x="936.5" y="-247.5" font-family="Helvetica,sans-Serif" font-size="10.00">lemons::plugin::DefaultMeta</text>
<text text-anchor="middle" x="1006" y="-236.5" font-family="Helvetica,sans-Serif" font-size="10.00">Parameter</text>
</a>
</g>
</g>
<!-- Node7&#45;&gt;Node8 -->
<g id="edge7" class="edge">
<title>Node7&#45;&gt;Node8</title>
<path fill="none" stroke="midnightblue" d="M884.71,-244.5C899.32,-244.5 914.26,-244.5 928.42,-244.5"/>
<polygon fill="midnightblue" stroke="midnightblue" points="884.66,-241 874.66,-244.5 884.66,-248 884.66,-241"/>
</g>
<!-- Node10 -->
<g id="node10" class="node">
<title>Node10</title>
<g id="a_node10"><a xlink:href="structlemons_1_1plugin_1_1_gain_meter_parameter.html" target="_top" xlink:title="A parameter that represents a meter displaying values in decibels.">
<polygon fill="none" stroke="black" points="716.5,-294.5 716.5,-324.5 862.5,-324.5 862.5,-294.5 716.5,-294.5"/>
<text text-anchor="start" x="724.5" y="-312.5" font-family="Helvetica,sans-Serif" font-size="10.00">lemons::plugin::GainMeter</text>
<text text-anchor="middle" x="789.5" y="-301.5" font-family="Helvetica,sans-Serif" font-size="10.00">Parameter</text>
</a>
</g>
</g>
<!-- Node9&#45;&gt;Node10 -->
<g id="edge9" class="edge">
<title>Node9&#45;&gt;Node10</title>
<path fill="none" stroke="midnightblue" d="M627.37,-309.5C656.77,-309.5 688.62,-309.5 716.17,-309.5"/>
<polygon fill="midnightblue" stroke="midnightblue" points="627.08,-306 617.08,-309.5 627.08,-313 627.08,-306"/>
</g>
<!-- Node14&#45;&gt;Node7 -->
<g id="edge16" class="edge">
<title>Node14&#45;&gt;Node7</title>
<path fill="none" stroke="midnightblue" d="M612.78,-83.43C616.29,-85 619.72,-86.68 623,-88.5 691.03,-126.21 752.36,-198.26 777.02,-229.47"/>
<polygon fill="midnightblue" stroke="midnightblue" points="613.88,-80.1 603.3,-79.59 611.25,-86.59 613.88,-80.1"/>
</g>
<!-- Node15 -->
<g id="node15" class="node">
<title>Node15</title>
<g id="a_node15"><a xlink:href="structlemons_1_1plugin_1_1_midi_pan_parameter.html" target="_top" xlink:title="A parameter that represents a MIDI panning value in the range 0 to 127.">
<polygon fill="none" stroke="black" points="698,-88 698,-107 881,-107 881,-88 698,-88"/>
<text text-anchor="middle" x="789.5" y="-95" font-family="Helvetica,sans-Serif" font-size="10.00">lemons::plugin::MidiPanParameter</text>
</a>
</g>
</g>
<!-- Node14&#45;&gt;Node15 -->
<g id="edge14" class="edge">
<title>Node14&#45;&gt;Node15</title>
<path fill="none" stroke="midnightblue" d="M627.18,-76.79C656.04,-80.49 687.26,-84.5 714.49,-88"/>
<polygon fill="midnightblue" stroke="midnightblue" points="627.44,-73.29 617.08,-75.49 626.55,-80.23 627.44,-73.29"/>
</g>
<!-- Node16 -->
<g id="node16" class="node">
<title>Node16</title>
<g id="a_node16"><a xlink:href="structlemons_1_1plugin_1_1_percent_parameter.html" target="_top" xlink:title="A parameter that represents an integer value in the range 0&#45;100.">
<polygon fill="none" stroke="black" points="698.5,-50 698.5,-69 880.5,-69 880.5,-50 698.5,-50"/>
<text text-anchor="middle" x="789.5" y="-57" font-family="Helvetica,sans-Serif" font-size="10.00">lemons::plugin::PercentParameter</text>
</a>
</g>
</g>
<!-- Node14&#45;&gt;Node16 -->
<g id="edge15" class="edge">
<title>Node14&#45;&gt;Node16</title>
<path fill="none" stroke="midnightblue" d="M627.31,-62.64C650.6,-62.18 675.43,-61.7 698.45,-61.25"/>
<polygon fill="midnightblue" stroke="midnightblue" points="627.01,-59.14 617.08,-62.84 627.14,-66.14 627.01,-59.14"/>
</g>
<!-- Node18 -->
<g id="node18" class="node">
<title>Node18</title>
<g id="a_node18"><a xlink:href="structlemons_1_1plugin_1_1_bool_parameter.html" target="_top" xlink:title="Helper struct that simplifies the constructor for boolean parameters.">
<polygon fill="none" stroke="black" points="706,-6 706,-25 873,-25 873,-6 706,-6"/>
<text text-anchor="middle" x="789.5" y="-13" font-family="Helvetica,sans-Serif" font-size="10.00">lemons::plugin::BoolParameter</text>
</a>
</g>
</g>
<!-- Node17&#45;&gt;Node18 -->
<g id="edge18" class="edge">
<title>Node17&#45;&gt;Node18</title>
<path fill="none" stroke="midnightblue" d="M627.26,-15.5C653.11,-15.5 680.85,-15.5 705.91,-15.5"/>
<polygon fill="midnightblue" stroke="midnightblue" points="627.08,-12 617.08,-15.5 627.08,-19 627.08,-12"/>
</g>
<!-- Node19 -->
<g id="node19" class="node">
<title>Node19</title>
<g id="a_node19"><a xlink:href="structlemons_1_1plugin_1_1_toggle_parameter.html" target="_top" xlink:title="A parameter that represents a boolean on/off toggle.">
<polygon fill="none" stroke="black" points="918,-6 918,-25 1094,-25 1094,-6 918,-6"/>
<text text-anchor="middle" x="1006" y="-13" font-family="Helvetica,sans-Serif" font-size="10.00">lemons::plugin::ToggleParameter</text>
</a>
</g>
</g>
<!-- Node18&#45;&gt;Node19 -->
<g id="edge19" class="edge">
<title>Node18&#45;&gt;Node19</title>
<path fill="none" stroke="midnightblue" d="M883.16,-15.5C894.66,-15.5 906.38,-15.5 917.8,-15.5"/>
<polygon fill="midnightblue" stroke="midnightblue" points="883.12,-12 873.12,-15.5 883.12,-19 883.12,-12"/>
</g>
</g>
</svg>
