<?xml version="1.0" encoding="UTF-8" standalone="no"?>
<!DOCTYPE svg PUBLIC "-//W3C//DTD SVG 1.1//EN"
 "http://www.w3.org/Graphics/SVG/1.1/DTD/svg11.dtd">
<!-- Generated by graphviz version 2.43.0 (0)
 -->
<!-- Title: lemons::dsp::Engine&lt; SampleType &gt; Pages: 1 -->
<svg width="907pt" height="1009pt"
 viewBox="0.00 0.00 907.00 1009.00" xmlns="http://www.w3.org/2000/svg" xmlns:xlink="http://www.w3.org/1999/xlink">
<g id="graph0" class="graph" transform="scale(1 1) rotate(0) translate(4 1005)">
<title>lemons::dsp::Engine&lt; SampleType &gt;</title>
<!-- Node1 -->
<g id="node1" class="node">
<title>Node1</title>
<g id="a_node1"><a xlink:title="Base class for an audio engine.">
<polygon fill="#bfbfbf" stroke="black" points="0,-673.5 0,-703.5 115,-703.5 115,-673.5 0,-673.5"/>
<text text-anchor="start" x="8" y="-691.5" font-family="Helvetica,sans-Serif" font-size="10.00">lemons::dsp::Engine</text>
<text text-anchor="middle" x="57.5" y="-680.5" font-family="Helvetica,sans-Serif" font-size="10.00">&lt; SampleType &gt;</text>
</a>
</g>
</g>
<!-- Node2 -->
<g id="node2" class="node">
<title>Node2</title>
<g id="a_node2"><a xlink:href="classlemons_1_1dsp_1_1_f_x_1_1_effect_engine.html" target="_top" xlink:title=" ">
<polygon fill="none" stroke="black" points="395,-926.5 395,-956.5 511,-956.5 511,-926.5 395,-926.5"/>
<text text-anchor="start" x="403" y="-944.5" font-family="Helvetica,sans-Serif" font-size="10.00">EffectEngine&lt; Filter,</text>
<text text-anchor="middle" x="453" y="-933.5" font-family="Helvetica,sans-Serif" font-size="10.00"> SampleType &gt;</text>
</a>
</g>
</g>
<!-- Node1&#45;&gt;Node2 -->
<g id="edge1" class="edge">
<title>Node1&#45;&gt;Node2</title>
<path fill="none" stroke="midnightblue" d="M64.98,-713.52C80.02,-765.45 122.84,-883.38 210,-922.5 268.82,-948.91 343.78,-950.54 394.57,-947.57"/>
<polygon fill="midnightblue" stroke="midnightblue" points="68.32,-712.46 62.26,-703.77 61.58,-714.35 68.32,-712.46"/>
</g>
<!-- Node4 -->
<g id="node4" class="node">
<title>Node4</title>
<g id="a_node4"><a xlink:href="classlemons_1_1dsp_1_1osc_1_1_engine.html" target="_top" xlink:title=" ">
<polygon fill="none" stroke="black" points="224,-882.5 224,-912.5 363,-912.5 363,-882.5 224,-882.5"/>
<text text-anchor="start" x="232" y="-900.5" font-family="Helvetica,sans-Serif" font-size="10.00">Engine&lt; SampleType,</text>
<text text-anchor="middle" x="293.5" y="-889.5" font-family="Helvetica,sans-Serif" font-size="10.00"> lemons::dsp::osc::Saw &gt;</text>
</a>
</g>
</g>
<!-- Node1&#45;&gt;Node4 -->
<g id="edge3" class="edge">
<title>Node1&#45;&gt;Node4</title>
<path fill="none" stroke="midnightblue" d="M70.28,-712.5C91.76,-753.39 141.49,-835.78 210,-873.5 216.14,-876.88 222.81,-879.83 229.6,-882.39"/>
<polygon fill="midnightblue" stroke="midnightblue" points="73.35,-710.81 65.66,-703.51 67.12,-714 73.35,-710.81"/>
</g>
<!-- Node5 -->
<g id="node5" class="node">
<title>Node5</title>
<g id="a_node5"><a xlink:href="classlemons_1_1dsp_1_1osc_1_1_engine.html" target="_top" xlink:title=" ">
<polygon fill="none" stroke="black" points="223.5,-833.5 223.5,-863.5 363.5,-863.5 363.5,-833.5 223.5,-833.5"/>
<text text-anchor="start" x="231.5" y="-851.5" font-family="Helvetica,sans-Serif" font-size="10.00">Engine&lt; SampleType,</text>
<text text-anchor="middle" x="293.5" y="-840.5" font-family="Helvetica,sans-Serif" font-size="10.00"> lemons::dsp::osc::Sine &gt;</text>
</a>
</g>
</g>
<!-- Node1&#45;&gt;Node5 -->
<g id="edge4" class="edge">
<title>Node1&#45;&gt;Node5</title>
<path fill="none" stroke="midnightblue" d="M77.22,-711.53C103.53,-742.27 154.48,-796.12 210,-824.5 216.64,-827.89 223.84,-830.88 231.11,-833.48"/>
<polygon fill="midnightblue" stroke="midnightblue" points="79.59,-708.91 70.47,-703.51 74.24,-713.42 79.59,-708.91"/>
</g>
<!-- Node6 -->
<g id="node6" class="node">
<title>Node6</title>
<g id="a_node6"><a xlink:href="classlemons_1_1dsp_1_1osc_1_1_engine.html" target="_top" xlink:title=" ">
<polygon fill="none" stroke="black" points="217.5,-784.5 217.5,-814.5 369.5,-814.5 369.5,-784.5 217.5,-784.5"/>
<text text-anchor="start" x="225.5" y="-802.5" font-family="Helvetica,sans-Serif" font-size="10.00">Engine&lt; SampleType,</text>
<text text-anchor="middle" x="293.5" y="-791.5" font-family="Helvetica,sans-Serif" font-size="10.00"> lemons::dsp::osc::Square &gt;</text>
</a>
</g>
</g>
<!-- Node1&#45;&gt;Node6 -->
<g id="edge5" class="edge">
<title>Node1&#45;&gt;Node6</title>
<path fill="none" stroke="midnightblue" d="M89.41,-709.19C119.26,-728.44 166.24,-756.89 210,-775.5 217.69,-778.77 225.96,-781.76 234.19,-784.43"/>
<polygon fill="midnightblue" stroke="midnightblue" points="91.01,-706.05 80.72,-703.53 87.19,-711.92 91.01,-706.05"/>
</g>
<!-- Node7 -->
<g id="node7" class="node">
<title>Node7</title>
<g id="a_node7"><a xlink:href="classlemons_1_1dsp_1_1osc_1_1_engine.html" target="_top" xlink:title=" ">
<polygon fill="none" stroke="black" points="210,-735.5 210,-765.5 377,-765.5 377,-735.5 210,-735.5"/>
<text text-anchor="start" x="218" y="-753.5" font-family="Helvetica,sans-Serif" font-size="10.00">Engine&lt; SampleType,</text>
<text text-anchor="middle" x="293.5" y="-742.5" font-family="Helvetica,sans-Serif" font-size="10.00"> lemons::dsp::osc::SuperSaw &gt;</text>
</a>
</g>
</g>
<!-- Node1&#45;&gt;Node7 -->
<g id="edge6" class="edge">
<title>Node1&#45;&gt;Node7</title>
<path fill="none" stroke="midnightblue" d="M125.23,-706.18C160.08,-715.41 202.27,-726.59 235.57,-735.41"/>
<polygon fill="midnightblue" stroke="midnightblue" points="125.71,-702.69 115.14,-703.51 123.91,-709.45 125.71,-702.69"/>
</g>
<!-- Node8 -->
<g id="node8" class="node">
<title>Node8</title>
<g id="a_node8"><a xlink:href="classlemons_1_1dsp_1_1osc_1_1_engine.html" target="_top" xlink:title=" ">
<polygon fill="none" stroke="black" points="215,-686.5 215,-716.5 372,-716.5 372,-686.5 215,-686.5"/>
<text text-anchor="start" x="223" y="-704.5" font-family="Helvetica,sans-Serif" font-size="10.00">Engine&lt; SampleType,</text>
<text text-anchor="middle" x="293.5" y="-693.5" font-family="Helvetica,sans-Serif" font-size="10.00"> lemons::dsp::osc::Triangle &gt;</text>
</a>
</g>
</g>
<!-- Node1&#45;&gt;Node8 -->
<g id="edge7" class="edge">
<title>Node1&#45;&gt;Node8</title>
<path fill="none" stroke="midnightblue" d="M125.2,-692.21C153.1,-693.76 185.73,-695.57 214.72,-697.18"/>
<polygon fill="midnightblue" stroke="midnightblue" points="125.32,-688.71 115.14,-691.65 124.94,-695.7 125.32,-688.71"/>
</g>
<!-- Node9 -->
<g id="node9" class="node">
<title>Node9</title>
<g id="a_node9"><a xlink:href="classlemons_1_1dsp_1_1_f_x_1_1_effect_engine.html" target="_top" xlink:title="A class that wraps an AudioEffect into a dsp::Engine.">
<polygon fill="none" stroke="black" points="213,-970.5 213,-1000.5 374,-1000.5 374,-970.5 213,-970.5"/>
<text text-anchor="start" x="221" y="-988.5" font-family="Helvetica,sans-Serif" font-size="10.00">lemons::dsp::FX::EffectEngine</text>
<text text-anchor="middle" x="293.5" y="-977.5" font-family="Helvetica,sans-Serif" font-size="10.00">&lt; SampleType &gt;</text>
</a>
</g>
</g>
<!-- Node1&#45;&gt;Node9 -->
<g id="edge8" class="edge">
<title>Node1&#45;&gt;Node9</title>
<path fill="none" stroke="midnightblue" d="M62.15,-713.96C71.28,-774.12 97.03,-922.5 133,-955.5 154.39,-975.12 184.38,-983.81 212.6,-987.18"/>
<polygon fill="midnightblue" stroke="midnightblue" points="65.57,-713.18 60.63,-703.8 58.64,-714.21 65.57,-713.18"/>
</g>
<!-- Node11 -->
<g id="node11" class="node">
<title>Node11</title>
<g id="a_node11"><a xlink:href="classlemons_1_1dsp_1_1_latency_engine.html" target="_top" xlink:title="Base class for audio engines that require latency (ie, a consistent block size) for their processing.">
<polygon fill="none" stroke="black" points="217,-637.5 217,-667.5 370,-667.5 370,-637.5 217,-637.5"/>
<text text-anchor="start" x="225" y="-655.5" font-family="Helvetica,sans-Serif" font-size="10.00">lemons::dsp::LatencyEngine</text>
<text text-anchor="middle" x="293.5" y="-644.5" font-family="Helvetica,sans-Serif" font-size="10.00">&lt; SampleType &gt;</text>
</a>
</g>
</g>
<!-- Node1&#45;&gt;Node11 -->
<g id="edge11" class="edge">
<title>Node1&#45;&gt;Node11</title>
<path fill="none" stroke="midnightblue" d="M125.05,-678.26C153.7,-673.85 187.34,-668.68 216.92,-664.13"/>
<polygon fill="midnightblue" stroke="midnightblue" points="124.5,-674.81 115.14,-679.79 125.56,-681.72 124.5,-674.81"/>
</g>
<!-- Node15 -->
<g id="node15" class="node">
<title>Node15</title>
<g id="a_node15"><a xlink:href="classlemons_1_1dsp_1_1osc_1_1_choosable_oscillator.html" target="_top" xlink:title="A class that encapsulates together all the kinds of oscillators, and allows you to seamlessly switch ...">
<polygon fill="none" stroke="black" points="216,-588.5 216,-618.5 371,-618.5 371,-588.5 216,-588.5"/>
<text text-anchor="start" x="224" y="-606.5" font-family="Helvetica,sans-Serif" font-size="10.00">lemons::dsp::osc::Choosable</text>
<text text-anchor="middle" x="293.5" y="-595.5" font-family="Helvetica,sans-Serif" font-size="10.00">Oscillator&lt; SampleType &gt;</text>
</a>
</g>
</g>
<!-- Node1&#45;&gt;Node15 -->
<g id="edge15" class="edge">
<title>Node1&#45;&gt;Node15</title>
<path fill="none" stroke="midnightblue" d="M103.34,-669.61C133.3,-657.27 173.73,-641.15 210,-628.5 219.75,-625.1 230.24,-621.71 240.36,-618.59"/>
<polygon fill="midnightblue" stroke="midnightblue" points="101.9,-666.42 94,-673.47 104.58,-672.88 101.9,-666.42"/>
</g>
<!-- Node17 -->
<g id="node17" class="node">
<title>Node17</title>
<g id="a_node17"><a xlink:href="classlemons_1_1dsp_1_1osc_1_1_engine.html" target="_top" xlink:title="A utility class that wraps an Oscillator into a self&#45;contained dsp::Engine.">
<polygon fill="none" stroke="black" points="225,-362.5 225,-392.5 362,-392.5 362,-362.5 225,-362.5"/>
<text text-anchor="start" x="233" y="-380.5" font-family="Helvetica,sans-Serif" font-size="10.00">lemons::dsp::osc::Engine</text>
<text text-anchor="middle" x="293.5" y="-369.5" font-family="Helvetica,sans-Serif" font-size="10.00">&lt; SampleType &gt;</text>
</a>
</g>
</g>
<!-- Node1&#45;&gt;Node17 -->
<g id="edge17" class="edge">
<title>Node1&#45;&gt;Node17</title>
<path fill="none" stroke="midnightblue" d="M74.55,-664.98C89.42,-643.34 112.31,-610.47 133,-582.5 186.37,-510.36 253.15,-426.5 280.24,-392.73"/>
<polygon fill="midnightblue" stroke="midnightblue" points="71.65,-663.01 68.88,-673.24 77.42,-666.97 71.65,-663.01"/>
</g>
<!-- Node28 -->
<g id="node28" class="node">
<title>Node28</title>
<g id="a_node28"><a xlink:href="classlemons_1_1dsp_1_1_protector.html" target="_top" xlink:title="A DSP engine that, under normal conditions, simply passes the audio through; if any samples are inf o...">
<polygon fill="none" stroke="black" points="230.5,-313.5 230.5,-343.5 356.5,-343.5 356.5,-313.5 230.5,-313.5"/>
<text text-anchor="start" x="238.5" y="-331.5" font-family="Helvetica,sans-Serif" font-size="10.00">lemons::dsp::Protector</text>
<text text-anchor="middle" x="293.5" y="-320.5" font-family="Helvetica,sans-Serif" font-size="10.00">&lt; SampleType &gt;</text>
</a>
</g>
</g>
<!-- Node1&#45;&gt;Node28 -->
<g id="edge28" class="edge">
<title>Node1&#45;&gt;Node28</title>
<path fill="none" stroke="midnightblue" d="M62.3,-663.19C73.09,-600.5 109.9,-437.02 210,-353.5 215.98,-348.51 222.93,-344.52 230.21,-341.33"/>
<polygon fill="midnightblue" stroke="midnightblue" points="58.8,-662.92 60.63,-673.36 65.71,-664.06 58.8,-662.92"/>
</g>
<!-- Node29 -->
<g id="node29" class="node">
<title>Node29</title>
<g id="a_node29"><a xlink:href="classlemons_1_1plugin_1_1_processor_engine.html" target="_top" xlink:title="A kind of dsp::Engine that holds a ProcessorHolder.">
<polygon fill="none" stroke="black" points="222.5,-264.5 222.5,-294.5 364.5,-294.5 364.5,-264.5 222.5,-264.5"/>
<text text-anchor="start" x="230.5" y="-282.5" font-family="Helvetica,sans-Serif" font-size="10.00">lemons::plugin::Processor</text>
<text text-anchor="middle" x="293.5" y="-271.5" font-family="Helvetica,sans-Serif" font-size="10.00">Engine&lt; SampleType &gt;</text>
</a>
</g>
</g>
<!-- Node1&#45;&gt;Node29 -->
<g id="edge29" class="edge">
<title>Node1&#45;&gt;Node29</title>
<path fill="none" stroke="midnightblue" d="M59.12,-663.04C61.57,-606.2 73.68,-466.34 133,-369.5 156.39,-331.31 170.65,-325.88 210,-304.5 216.97,-300.71 224.59,-297.42 232.29,-294.59"/>
<polygon fill="midnightblue" stroke="midnightblue" points="55.61,-663.15 58.74,-673.27 62.61,-663.4 55.61,-663.15"/>
</g>
<!-- Node31 -->
<g id="node31" class="node">
<title>Node31</title>
<g id="a_node31"><a xlink:href="classlemons_1_1dsp_1_1_engine.html" target="_top" xlink:title=" ">
<polygon fill="none" stroke="black" points="236,-215.5 236,-245.5 351,-245.5 351,-215.5 236,-215.5"/>
<text text-anchor="start" x="244" y="-233.5" font-family="Helvetica,sans-Serif" font-size="10.00">lemons::dsp::Engine</text>
<text text-anchor="middle" x="293.5" y="-222.5" font-family="Helvetica,sans-Serif" font-size="10.00">&lt; double &gt;</text>
</a>
</g>
</g>
<!-- Node1&#45;&gt;Node31 -->
<g id="edge31" class="edge">
<title>Node1&#45;&gt;Node31</title>
<path fill="none" stroke="orange" stroke-dasharray="5,2" d="M60.58,-663.31C67.33,-586.81 90.61,-358.82 133,-299.5 156.86,-266.11 200.38,-248.73 235.94,-239.76"/>
<polygon fill="orange" stroke="orange" points="57.08,-663.19 59.71,-673.46 64.05,-663.79 57.08,-663.19"/>
<text text-anchor="middle" x="162.5" y="-302.5" font-family="Helvetica,sans-Serif" font-size="10.00"> &lt; double &gt;</text>
</g>
<!-- Node32 -->
<g id="node32" class="node">
<title>Node32</title>
<g id="a_node32"><a xlink:href="classlemons_1_1dsp_1_1_engine.html" target="_top" xlink:title=" ">
<polygon fill="none" stroke="black" points="236,-539.5 236,-569.5 351,-569.5 351,-539.5 236,-539.5"/>
<text text-anchor="start" x="244" y="-557.5" font-family="Helvetica,sans-Serif" font-size="10.00">lemons::dsp::Engine</text>
<text text-anchor="middle" x="293.5" y="-546.5" font-family="Helvetica,sans-Serif" font-size="10.00">&lt; float &gt;</text>
</a>
</g>
</g>
<!-- Node1&#45;&gt;Node32 -->
<g id="edge32" class="edge">
<title>Node1&#45;&gt;Node32</title>
<path fill="none" stroke="orange" stroke-dasharray="5,2" d="M80.29,-665.89C94.51,-651.84 113.93,-633.96 133,-620.5 164.68,-598.14 174.17,-594.3 210,-579.5 218.71,-575.9 228.14,-572.56 237.39,-569.56"/>
<polygon fill="orange" stroke="orange" points="77.54,-663.69 72.96,-673.25 82.49,-668.64 77.54,-663.69"/>
<text text-anchor="middle" x="162.5" y="-623.5" font-family="Helvetica,sans-Serif" font-size="10.00"> &lt; float &gt;</text>
</g>
<!-- Node3 -->
<g id="node3" class="node">
<title>Node3</title>
<g id="a_node3"><a xlink:href="structlemons_1_1dsp_1_1_f_x_1_1_filter_engine.html" target="_top" xlink:title="A class that represents an audio engine holding a filter effect.">
<polygon fill="none" stroke="black" points="741,-938.5 741,-968.5 899,-968.5 899,-938.5 741,-938.5"/>
<text text-anchor="start" x="749" y="-956.5" font-family="Helvetica,sans-Serif" font-size="10.00">lemons::dsp::FX::FilterEngine</text>
<text text-anchor="middle" x="820" y="-945.5" font-family="Helvetica,sans-Serif" font-size="10.00">&lt; SampleType &gt;</text>
</a>
</g>
</g>
<!-- Node2&#45;&gt;Node3 -->
<g id="edge2" class="edge">
<title>Node2&#45;&gt;Node3</title>
<path fill="none" stroke="midnightblue" d="M521.1,-943.71C583.13,-945.75 675.33,-948.78 740.7,-950.93"/>
<polygon fill="midnightblue" stroke="midnightblue" points="521.14,-940.21 511.03,-943.38 520.91,-947.2 521.14,-940.21"/>
</g>
<!-- Node10 -->
<g id="node10" class="node">
<title>Node10</title>
<g id="a_node10"><a xlink:href="classlemons_1_1dsp_1_1_f_x_1_1_effect_engine.html" target="_top" xlink:title=" ">
<polygon fill="none" stroke="black" points="536,-970.5 536,-1000.5 697,-1000.5 697,-970.5 536,-970.5"/>
<text text-anchor="start" x="544" y="-988.5" font-family="Helvetica,sans-Serif" font-size="10.00">lemons::dsp::FX::EffectEngine</text>
<text text-anchor="middle" x="616.5" y="-977.5" font-family="Helvetica,sans-Serif" font-size="10.00">&lt; Filter, SampleType &gt;</text>
</a>
</g>
</g>
<!-- Node9&#45;&gt;Node10 -->
<g id="edge9" class="edge">
<title>Node9&#45;&gt;Node10</title>
<path fill="none" stroke="orange" stroke-dasharray="5,2" d="M384.55,-985.5C432.11,-985.5 489.97,-985.5 535.87,-985.5"/>
<polygon fill="orange" stroke="orange" points="384.26,-982 374.26,-985.5 384.26,-989 384.26,-982"/>
<text text-anchor="middle" x="453" y="-988.5" font-family="Helvetica,sans-Serif" font-size="10.00"> &lt; Filter, SampleType &gt;</text>
</g>
<!-- Node10&#45;&gt;Node3 -->
<g id="edge10" class="edge">
<title>Node10&#45;&gt;Node3</title>
<path fill="none" stroke="midnightblue" d="M707.35,-971.23C718.55,-969.45 729.93,-967.65 740.93,-965.9"/>
<polygon fill="midnightblue" stroke="midnightblue" points="706.47,-967.83 697.14,-972.85 707.56,-974.74 706.47,-967.83"/>
</g>
<!-- Node12 -->
<g id="node12" class="node">
<title>Node12</title>
<g id="a_node12"><a xlink:href="classlemons_1_1dsp_1_1_audio_file_player.html" target="_top" xlink:title="A kind of AudioEngine that plays audio from an AudioFile object.">
<polygon fill="none" stroke="black" points="537.5,-762.5 537.5,-792.5 695.5,-792.5 695.5,-762.5 537.5,-762.5"/>
<text text-anchor="start" x="545.5" y="-780.5" font-family="Helvetica,sans-Serif" font-size="10.00">lemons::dsp::AudioFilePlayer</text>
<text text-anchor="middle" x="616.5" y="-769.5" font-family="Helvetica,sans-Serif" font-size="10.00">&lt; SampleType &gt;</text>
</a>
</g>
</g>
<!-- Node11&#45;&gt;Node12 -->
<g id="edge12" class="edge">
<title>Node11&#45;&gt;Node12</title>
<path fill="none" stroke="midnightblue" d="M372.57,-673.38C374.12,-674.67 375.6,-676.04 377,-677.5 398.97,-700.34 371.33,-725.42 395,-746.5 433.1,-780.44 490.54,-787.62 537.24,-786.61"/>
<polygon fill="midnightblue" stroke="midnightblue" points="374.48,-670.45 364.29,-667.55 370.45,-676.17 374.48,-670.45"/>
</g>
<!-- Node13 -->
<g id="node13" class="node">
<title>Node13</title>
<g id="a_node13"><a xlink:href="classlemons_1_1dsp_1_1_engine_chain.html" target="_top" xlink:title="A kind of engine that contains a chain of other Engine objects.">
<polygon fill="none" stroke="black" points="545,-713.5 545,-743.5 688,-743.5 688,-713.5 545,-713.5"/>
<text text-anchor="start" x="553" y="-731.5" font-family="Helvetica,sans-Serif" font-size="10.00">lemons::dsp::EngineChain</text>
<text text-anchor="middle" x="616.5" y="-720.5" font-family="Helvetica,sans-Serif" font-size="10.00">&lt; SampleType &gt;</text>
</a>
</g>
</g>
<!-- Node11&#45;&gt;Node13 -->
<g id="edge13" class="edge">
<title>Node11&#45;&gt;Node13</title>
<path fill="none" stroke="midnightblue" d="M371.43,-673.05C373.37,-674.44 375.23,-675.92 377,-677.5 392.13,-691.04 378.28,-707.98 395,-719.5 438.85,-749.72 500.09,-749.77 546.91,-743.51"/>
<polygon fill="midnightblue" stroke="midnightblue" points="372.82,-669.8 362.46,-667.55 369.15,-675.76 372.82,-669.8"/>
</g>
<!-- Node14 -->
<g id="node14" class="node">
<title>Node14</title>
<g id="a_node14"><a xlink:href="classlemons_1_1dsp_1_1_built_engine_chain.html" target="_top" xlink:title="An EngineChain that you can pass templated Engine types to and it will instantiate them all and add t...">
<polygon fill="none" stroke="black" points="751.5,-713.5 751.5,-743.5 888.5,-743.5 888.5,-713.5 751.5,-713.5"/>
<text text-anchor="start" x="759.5" y="-731.5" font-family="Helvetica,sans-Serif" font-size="10.00">lemons::dsp::BuiltEngine</text>
<text text-anchor="middle" x="820" y="-720.5" font-family="Helvetica,sans-Serif" font-size="10.00">Chain&lt; SampleType &gt;</text>
</a>
</g>
</g>
<!-- Node13&#45;&gt;Node14 -->
<g id="edge14" class="edge">
<title>Node13&#45;&gt;Node14</title>
<path fill="none" stroke="midnightblue" d="M698.49,-728.5C716.06,-728.5 734.47,-728.5 751.46,-728.5"/>
<polygon fill="midnightblue" stroke="midnightblue" points="698.26,-725 688.26,-728.5 698.26,-732 698.26,-725"/>
</g>
<!-- Node16 -->
<g id="node16" class="node">
<title>Node16</title>
<g id="a_node16"><a xlink:href="classlemons_1_1dsp_1_1osc_1_1_choosable_oscillator.html" target="_top" xlink:title=" ">
<polygon fill="none" stroke="black" points="539,-664.5 539,-694.5 694,-694.5 694,-664.5 539,-664.5"/>
<text text-anchor="start" x="547" y="-682.5" font-family="Helvetica,sans-Serif" font-size="10.00">lemons::dsp::osc::Choosable</text>
<text text-anchor="middle" x="616.5" y="-671.5" font-family="Helvetica,sans-Serif" font-size="10.00">Oscillator&lt; float &gt;</text>
</a>
</g>
</g>
<!-- Node15&#45;&gt;Node16 -->
<g id="edge16" class="edge">
<title>Node15&#45;&gt;Node16</title>
<path fill="none" stroke="orange" stroke-dasharray="5,2" d="M372.34,-624.37C373.96,-625.67 375.52,-627.04 377,-628.5 395.89,-647.18 373.57,-669.8 395,-685.5 417.28,-701.83 484.46,-697.85 538.87,-691.27"/>
<polygon fill="orange" stroke="orange" points="373.93,-621.22 363.68,-618.54 370.02,-627.03 373.93,-621.22"/>
<text text-anchor="middle" x="453" y="-699.5" font-family="Helvetica,sans-Serif" font-size="10.00"> &lt; float &gt;</text>
</g>
<!-- Node18 -->
<g id="node18" class="node">
<title>Node18</title>
<g id="a_node18"><a xlink:href="classlemons_1_1dsp_1_1osc_1_1_engine.html" target="_top" xlink:title=" ">
<polygon fill="none" stroke="black" points="540.5,-290 540.5,-331 692.5,-331 692.5,-290 540.5,-290"/>
<text text-anchor="start" x="548.5" y="-319" font-family="Helvetica,sans-Serif" font-size="10.00">lemons::dsp::osc::Engine</text>
<text text-anchor="start" x="548.5" y="-308" font-family="Helvetica,sans-Serif" font-size="10.00">&lt; SampleType, lemons::dsp</text>
<text text-anchor="middle" x="616.5" y="-297" font-family="Helvetica,sans-Serif" font-size="10.00">::osc::Sine &gt;</text>
</a>
</g>
</g>
<!-- Node17&#45;&gt;Node18 -->
<g id="edge18" class="edge">
<title>Node17&#45;&gt;Node18</title>
<path fill="none" stroke="orange" stroke-dasharray="5,2" d="M370.89,-358.7C373.04,-357.11 375.09,-355.38 377,-353.5 396.25,-334.59 373.27,-311.51 395,-295.5 417.47,-278.94 485.63,-286.05 540.28,-295.27"/>
<polygon fill="orange" stroke="orange" points="368.71,-355.94 362.1,-364.22 372.43,-361.87 368.71,-355.94"/>
<text text-anchor="start" x="395" y="-309.5" font-family="Helvetica,sans-Serif" font-size="10.00"> &lt; SampleType, lemons</text>
<text text-anchor="middle" x="453" y="-298.5" font-family="Helvetica,sans-Serif" font-size="10.00">::dsp::osc::Sine &gt;</text>
</g>
<!-- Node19 -->
<g id="node19" class="node">
<title>Node19</title>
<g id="a_node19"><a xlink:href="classlemons_1_1dsp_1_1osc_1_1_engine.html" target="_top" xlink:title=" ">
<polygon fill="none" stroke="black" points="529,-489.5 529,-519.5 704,-519.5 704,-489.5 529,-489.5"/>
<text text-anchor="start" x="537" y="-507.5" font-family="Helvetica,sans-Serif" font-size="10.00">lemons::dsp::osc::Engine</text>
<text text-anchor="middle" x="616.5" y="-496.5" font-family="Helvetica,sans-Serif" font-size="10.00">&lt; float, lemons::dsp::osc::Saw &gt;</text>
</a>
</g>
</g>
<!-- Node17&#45;&gt;Node19 -->
<g id="edge19" class="edge">
<title>Node17&#45;&gt;Node19</title>
<path fill="none" stroke="orange" stroke-dasharray="5,2" d="M333.06,-397.04C351.59,-406.15 374.23,-416.85 395,-425.5 454.31,-450.21 524.4,-474.51 569.37,-489.5"/>
<polygon fill="orange" stroke="orange" points="334.56,-393.88 324.04,-392.59 331.46,-400.16 334.56,-393.88"/>
<text text-anchor="start" x="402" y="-482.5" font-family="Helvetica,sans-Serif" font-size="10.00"> &lt; float, lemons::dsp</text>
<text text-anchor="middle" x="453" y="-471.5" font-family="Helvetica,sans-Serif" font-size="10.00">::osc::Saw &gt;</text>
</g>
<!-- Node20 -->
<g id="node20" class="node">
<title>Node20</title>
<g id="a_node20"><a xlink:href="classlemons_1_1dsp_1_1osc_1_1_engine.html" target="_top" xlink:title=" ">
<polygon fill="none" stroke="black" points="540.5,-230 540.5,-271 692.5,-271 692.5,-230 540.5,-230"/>
<text text-anchor="start" x="548.5" y="-259" font-family="Helvetica,sans-Serif" font-size="10.00">lemons::dsp::osc::Engine</text>
<text text-anchor="start" x="548.5" y="-248" font-family="Helvetica,sans-Serif" font-size="10.00">&lt; SampleType, lemons::dsp</text>
<text text-anchor="middle" x="616.5" y="-237" font-family="Helvetica,sans-Serif" font-size="10.00">::osc::Saw &gt;</text>
</a>
</g>
</g>
<!-- Node17&#45;&gt;Node20 -->
<g id="edge20" class="edge">
<title>Node17&#45;&gt;Node20</title>
<path fill="none" stroke="orange" stroke-dasharray="5,2" d="M371.02,-359.09C373.15,-357.39 375.15,-355.53 377,-353.5 405.63,-322.04 362.77,-287.27 395,-259.5 434.11,-225.8 493.14,-225.08 540.28,-231.97"/>
<polygon fill="orange" stroke="orange" points="368.61,-356.49 362.23,-364.94 372.49,-362.32 368.61,-356.49"/>
<text text-anchor="start" x="395" y="-273.5" font-family="Helvetica,sans-Serif" font-size="10.00"> &lt; SampleType, lemons</text>
<text text-anchor="middle" x="453" y="-262.5" font-family="Helvetica,sans-Serif" font-size="10.00">::dsp::osc::Saw &gt;</text>
</g>
<!-- Node21 -->
<g id="node21" class="node">
<title>Node21</title>
<g id="a_node21"><a xlink:href="classlemons_1_1dsp_1_1osc_1_1_engine.html" target="_top" xlink:title=" ">
<polygon fill="none" stroke="black" points="548,-423 548,-464 685,-464 685,-423 548,-423"/>
<text text-anchor="start" x="556" y="-452" font-family="Helvetica,sans-Serif" font-size="10.00">lemons::dsp::osc::Engine</text>
<text text-anchor="start" x="556" y="-441" font-family="Helvetica,sans-Serif" font-size="10.00">&lt; float, lemons::dsp::osc</text>
<text text-anchor="middle" x="616.5" y="-430" font-family="Helvetica,sans-Serif" font-size="10.00">::SuperSaw &gt;</text>
</a>
</g>
</g>
<!-- Node17&#45;&gt;Node21 -->
<g id="edge21" class="edge">
<title>Node17&#45;&gt;Node21</title>
<path fill="none" stroke="orange" stroke-dasharray="5,2" d="M372.15,-382.18C413.78,-385.84 465.68,-392.29 511,-403.5 530.52,-408.33 551.33,-415.79 569.21,-422.97"/>
<polygon fill="orange" stroke="orange" points="372.34,-378.68 362.08,-381.32 371.75,-385.65 372.34,-378.68"/>
<text text-anchor="start" x="402" y="-417.5" font-family="Helvetica,sans-Serif" font-size="10.00"> &lt; float, lemons::dsp</text>
<text text-anchor="middle" x="453" y="-406.5" font-family="Helvetica,sans-Serif" font-size="10.00">::osc::SuperSaw &gt;</text>
</g>
<!-- Node22 -->
<g id="node22" class="node">
<title>Node22</title>
<g id="a_node22"><a xlink:href="classlemons_1_1dsp_1_1osc_1_1_engine.html" target="_top" xlink:title=" ">
<polygon fill="none" stroke="black" points="548,-351 548,-392 685,-392 685,-351 548,-351"/>
<text text-anchor="start" x="556" y="-380" font-family="Helvetica,sans-Serif" font-size="10.00">lemons::dsp::osc::Engine</text>
<text text-anchor="start" x="556" y="-369" font-family="Helvetica,sans-Serif" font-size="10.00">&lt; float, lemons::dsp::osc</text>
<text text-anchor="middle" x="616.5" y="-358" font-family="Helvetica,sans-Serif" font-size="10.00">::Square &gt;</text>
</a>
</g>
</g>
<!-- Node17&#45;&gt;Node22 -->
<g id="edge22" class="edge">
<title>Node17&#45;&gt;Node22</title>
<path fill="none" stroke="orange" stroke-dasharray="5,2" d="M368.79,-358.13C371.62,-356.69 374.37,-355.15 377,-353.5 387.13,-347.14 384.08,-338.37 395,-333.5 442.1,-312.53 460.33,-323.99 511,-333.5 519.44,-335.08 520.96,-337.5 529,-340.5 538.12,-343.91 547.8,-347.45 557.26,-350.87"/>
<polygon fill="orange" stroke="orange" points="367.15,-355.04 359.52,-362.39 370.07,-361.4 367.15,-355.04"/>
<text text-anchor="start" x="402" y="-347.5" font-family="Helvetica,sans-Serif" font-size="10.00"> &lt; float, lemons::dsp</text>
<text text-anchor="middle" x="453" y="-336.5" font-family="Helvetica,sans-Serif" font-size="10.00">::osc::Square &gt;</text>
</g>
<!-- Node23 -->
<g id="node23" class="node">
<title>Node23</title>
<g id="a_node23"><a xlink:href="classlemons_1_1dsp_1_1osc_1_1_engine.html" target="_top" xlink:title=" ">
<polygon fill="none" stroke="black" points="540.5,-50 540.5,-91 692.5,-91 692.5,-50 540.5,-50"/>
<text text-anchor="start" x="548.5" y="-79" font-family="Helvetica,sans-Serif" font-size="10.00">lemons::dsp::osc::Engine</text>
<text text-anchor="start" x="548.5" y="-68" font-family="Helvetica,sans-Serif" font-size="10.00">&lt; SampleType, lemons::dsp</text>
<text text-anchor="middle" x="616.5" y="-57" font-family="Helvetica,sans-Serif" font-size="10.00">::osc::Triangle &gt;</text>
</a>
</g>
</g>
<!-- Node17&#45;&gt;Node23 -->
<g id="edge23" class="edge">
<title>Node17&#45;&gt;Node23</title>
<path fill="none" stroke="orange" stroke-dasharray="5,2" d="M370.59,-360.02C372.92,-358.06 375.07,-355.9 377,-353.5 414.68,-306.63 352.32,-125.86 395,-83.5 432.09,-46.7 492.16,-45.39 540.24,-52.21"/>
<polygon fill="orange" stroke="orange" points="368.31,-357.35 362.07,-365.91 372.28,-363.11 368.31,-357.35"/>
<text text-anchor="start" x="395" y="-97.5" font-family="Helvetica,sans-Serif" font-size="10.00"> &lt; SampleType, lemons</text>
<text text-anchor="middle" x="453" y="-86.5" font-family="Helvetica,sans-Serif" font-size="10.00">::dsp::osc::Triangle &gt;</text>
</g>
<!-- Node24 -->
<g id="node24" class="node">
<title>Node24</title>
<g id="a_node24"><a xlink:href="classlemons_1_1dsp_1_1osc_1_1_engine.html" target="_top" xlink:title=" ">
<polygon fill="none" stroke="black" points="548,-542 548,-583 685,-583 685,-542 548,-542"/>
<text text-anchor="start" x="556" y="-571" font-family="Helvetica,sans-Serif" font-size="10.00">lemons::dsp::osc::Engine</text>
<text text-anchor="start" x="556" y="-560" font-family="Helvetica,sans-Serif" font-size="10.00">&lt; float, lemons::dsp::osc</text>
<text text-anchor="middle" x="616.5" y="-549" font-family="Helvetica,sans-Serif" font-size="10.00">::Sine &gt;</text>
</a>
</g>
</g>
<!-- Node17&#45;&gt;Node24 -->
<g id="edge24" class="edge">
<title>Node17&#45;&gt;Node24</title>
<path fill="none" stroke="orange" stroke-dasharray="5,2" d="M309.13,-401.5C326.46,-427.98 357.74,-470.08 395,-494.5 441.24,-524.8 501.7,-542.19 547.62,-551.79"/>
<polygon fill="orange" stroke="orange" points="311.92,-399.38 303.59,-392.84 306.03,-403.15 311.92,-399.38"/>
<text text-anchor="start" x="402" y="-556.5" font-family="Helvetica,sans-Serif" font-size="10.00"> &lt; float, lemons::dsp</text>
<text text-anchor="middle" x="453" y="-545.5" font-family="Helvetica,sans-Serif" font-size="10.00">::osc::Sine &gt;</text>
</g>
<!-- Node25 -->
<g id="node25" class="node">
<title>Node25</title>
<g id="a_node25"><a xlink:href="classlemons_1_1dsp_1_1osc_1_1_engine.html" target="_top" xlink:title=" ">
<polygon fill="none" stroke="black" points="540.5,-170 540.5,-211 692.5,-211 692.5,-170 540.5,-170"/>
<text text-anchor="start" x="548.5" y="-199" font-family="Helvetica,sans-Serif" font-size="10.00">lemons::dsp::osc::Engine</text>
<text text-anchor="start" x="548.5" y="-188" font-family="Helvetica,sans-Serif" font-size="10.00">&lt; SampleType, lemons::dsp</text>
<text text-anchor="middle" x="616.5" y="-177" font-family="Helvetica,sans-Serif" font-size="10.00">::osc::SuperSaw &gt;</text>
</a>
</g>
</g>
<!-- Node17&#45;&gt;Node25 -->
<g id="edge25" class="edge">
<title>Node17&#45;&gt;Node25</title>
<path fill="none" stroke="orange" stroke-dasharray="5,2" d="M370.6,-359.76C372.91,-357.87 375.06,-355.79 377,-353.5 420.7,-301.95 345.7,-248.73 395,-202.5 432.96,-166.9 492.67,-165.68 540.38,-172.39"/>
<polygon fill="orange" stroke="orange" points="368.5,-356.96 362.19,-365.47 372.43,-362.75 368.5,-356.96"/>
<text text-anchor="start" x="395" y="-216.5" font-family="Helvetica,sans-Serif" font-size="10.00"> &lt; SampleType, lemons</text>
<text text-anchor="middle" x="453" y="-205.5" font-family="Helvetica,sans-Serif" font-size="10.00">::dsp::osc::SuperSaw &gt;</text>
</g>
<!-- Node26 -->
<g id="node26" class="node">
<title>Node26</title>
<g id="a_node26"><a xlink:href="classlemons_1_1dsp_1_1osc_1_1_engine.html" target="_top" xlink:title=" ">
<polygon fill="none" stroke="black" points="540.5,-110 540.5,-151 692.5,-151 692.5,-110 540.5,-110"/>
<text text-anchor="start" x="548.5" y="-139" font-family="Helvetica,sans-Serif" font-size="10.00">lemons::dsp::osc::Engine</text>
<text text-anchor="start" x="548.5" y="-128" font-family="Helvetica,sans-Serif" font-size="10.00">&lt; SampleType, lemons::dsp</text>
<text text-anchor="middle" x="616.5" y="-117" font-family="Helvetica,sans-Serif" font-size="10.00">::osc::Square &gt;</text>
</a>
</g>
</g>
<!-- Node17&#45;&gt;Node26 -->
<g id="edge26" class="edge">
<title>Node17&#45;&gt;Node26</title>
<path fill="none" stroke="orange" stroke-dasharray="5,2" d="M370.69,-359.84C372.98,-357.93 375.09,-355.83 377,-353.5 406.69,-317.28 361.44,-176.18 395,-143.5 432.43,-107.05 492.48,-105.72 540.47,-112.45"/>
<polygon fill="orange" stroke="orange" points="368.59,-357.04 362.35,-365.61 372.57,-362.8 368.59,-357.04"/>
<text text-anchor="start" x="395" y="-157.5" font-family="Helvetica,sans-Serif" font-size="10.00"> &lt; SampleType, lemons</text>
<text text-anchor="middle" x="453" y="-146.5" font-family="Helvetica,sans-Serif" font-size="10.00">::dsp::osc::Square &gt;</text>
</g>
<!-- Node27 -->
<g id="node27" class="node">
<title>Node27</title>
<g id="a_node27"><a xlink:href="classlemons_1_1dsp_1_1osc_1_1_engine.html" target="_top" xlink:title=" ">
<polygon fill="none" stroke="black" points="548,-603 548,-644 685,-644 685,-603 548,-603"/>
<text text-anchor="start" x="556" y="-632" font-family="Helvetica,sans-Serif" font-size="10.00">lemons::dsp::osc::Engine</text>
<text text-anchor="start" x="556" y="-621" font-family="Helvetica,sans-Serif" font-size="10.00">&lt; float, lemons::dsp::osc</text>
<text text-anchor="middle" x="616.5" y="-610" font-family="Helvetica,sans-Serif" font-size="10.00">::Triangle &gt;</text>
</a>
</g>
</g>
<!-- Node17&#45;&gt;Node27 -->
<g id="edge27" class="edge">
<title>Node17&#45;&gt;Node27</title>
<path fill="none" stroke="orange" stroke-dasharray="5,2" d="M307.66,-401.57C324.07,-431.64 352.89,-484.72 377,-530.5 385.15,-545.98 381.36,-554.55 395,-565.5 418.5,-584.37 492.04,-601.31 547.78,-611.94"/>
<polygon fill="orange" stroke="orange" points="310.66,-399.75 302.8,-392.65 304.52,-403.1 310.66,-399.75"/>
<text text-anchor="start" x="402" y="-617.5" font-family="Helvetica,sans-Serif" font-size="10.00"> &lt; float, lemons::dsp</text>
<text text-anchor="middle" x="453" y="-606.5" font-family="Helvetica,sans-Serif" font-size="10.00">::osc::Triangle &gt;</text>
</g>
<!-- Node30 -->
<g id="node30" class="node">
<title>Node30</title>
<g id="a_node30"><a xlink:href="structlemons_1_1plugin_1_1_typed_processor_engine.html" target="_top" xlink:title="A ProcessorEngine that instantiates a custom subclass of AudioProcessor and automatically creates a P...">
<polygon fill="none" stroke="black" points="531.5,-0.5 531.5,-30.5 701.5,-30.5 701.5,-0.5 531.5,-0.5"/>
<text text-anchor="start" x="539.5" y="-18.5" font-family="Helvetica,sans-Serif" font-size="10.00">lemons::plugin::TypedProcessor</text>
<text text-anchor="middle" x="616.5" y="-7.5" font-family="Helvetica,sans-Serif" font-size="10.00">Engine&lt; SampleType &gt;</text>
</a>
</g>
</g>
<!-- Node29&#45;&gt;Node30 -->
<g id="edge30" class="edge">
<title>Node29&#45;&gt;Node30</title>
<path fill="none" stroke="midnightblue" d="M372.78,-260C374.27,-258.6 375.69,-257.1 377,-255.5 406.29,-219.81 363.37,-82.14 395,-48.5 429.07,-12.26 484.49,-4.09 531.25,-4.93"/>
<polygon fill="midnightblue" stroke="midnightblue" points="370.45,-257.37 364.64,-266.23 374.71,-262.93 370.45,-257.37"/>
</g>
<!-- Node32&#45;&gt;Node16 -->
<g id="edge33" class="edge">
<title>Node32&#45;&gt;Node16</title>
<path fill="none" stroke="midnightblue" d="M360.6,-567.28C366.7,-570.5 372.33,-574.5 377,-579.5 401.29,-605.49 368.29,-633.99 395,-657.5 415.94,-675.93 483.9,-680.54 538.89,-681.07"/>
<polygon fill="midnightblue" stroke="midnightblue" points="361.94,-564.05 351.39,-563.12 359.06,-570.42 361.94,-564.05"/>
</g>
<!-- Node32&#45;&gt;Node19 -->
<g id="edge34" class="edge">
<title>Node32&#45;&gt;Node19</title>
<path fill="none" stroke="midnightblue" d="M361.52,-556.21C404.77,-555.85 461.9,-552.59 511,-540.5 519.5,-538.41 520.82,-535.63 529,-532.5 540.79,-527.99 553.66,-523.56 565.78,-519.6"/>
<polygon fill="midnightblue" stroke="midnightblue" points="361.39,-552.72 351.4,-556.25 361.41,-559.71 361.39,-552.72"/>
</g>
<!-- Node32&#45;&gt;Node21 -->
<g id="edge37" class="edge">
<title>Node32&#45;&gt;Node21</title>
<path fill="none" stroke="midnightblue" d="M326.22,-533.89C345.48,-522.13 370.91,-507.92 395,-498.5 444.4,-479.19 459.55,-483.36 511,-470.5 522.91,-467.52 535.56,-464.3 547.8,-461.16"/>
<polygon fill="midnightblue" stroke="midnightblue" points="324.22,-531.01 317.57,-539.26 327.91,-536.96 324.22,-531.01"/>
</g>
<!-- Node32&#45;&gt;Node22 -->
<g id="edge36" class="edge">
<title>Node32&#45;&gt;Node22</title>
<path fill="none" stroke="midnightblue" d="M307.12,-530.4C323.47,-501.62 354.71,-454.16 395,-428.5 439.73,-400.01 459.66,-413.82 511,-400.5 522.94,-397.4 535.61,-393.99 547.85,-390.63"/>
<polygon fill="midnightblue" stroke="midnightblue" points="303.93,-528.94 302.15,-539.39 310.05,-532.33 303.93,-528.94"/>
</g>
<!-- Node32&#45;&gt;Node24 -->
<g id="edge35" class="edge">
<title>Node32&#45;&gt;Node24</title>
<path fill="none" stroke="midnightblue" d="M360.46,-569.39C366.37,-572.2 371.99,-575.54 377,-579.5 389.49,-589.39 381.19,-602.55 395,-610.5 439.68,-636.22 463.09,-629.55 511,-610.5 521.23,-606.43 519.62,-599.26 529,-593.5 535.25,-589.66 542.05,-586.2 549,-583.11"/>
<polygon fill="midnightblue" stroke="midnightblue" points="361.58,-566.07 351.01,-565.4 358.86,-572.52 361.58,-566.07"/>
</g>
<!-- Node32&#45;&gt;Node27 -->
<g id="edge38" class="edge">
<title>Node32&#45;&gt;Node27</title>
<path fill="none" stroke="midnightblue" d="M360.38,-567.91C366.47,-571.01 372.16,-574.82 377,-579.5 394.88,-596.8 374.78,-618.01 395,-632.5 441.72,-665.97 509.39,-657.13 557.42,-644.07"/>
<polygon fill="midnightblue" stroke="midnightblue" points="361.78,-564.7 351.22,-563.86 358.95,-571.1 361.78,-564.7"/>
</g>
</g>
</svg>
