<?xml version="1.0" encoding="UTF-8" standalone="no"?>
<!DOCTYPE svg PUBLIC "-//W3C//DTD SVG 1.1//EN"
 "http://www.w3.org/Graphics/SVG/1.1/DTD/svg11.dtd">
<!-- Generated by graphviz version 2.43.0 (0)
 -->
<!-- Title: lemons::plugin::MetaParameter&lt; ValueType &gt; Pages: 1 -->
<svg width="394pt" height="356pt"
 viewBox="0.00 0.00 393.50 356.00" xmlns="http://www.w3.org/2000/svg" xmlns:xlink="http://www.w3.org/1999/xlink">
<g id="graph0" class="graph" transform="scale(1 1) rotate(0) translate(4 352)">
<title>lemons::plugin::MetaParameter&lt; ValueType &gt;</title>
<!-- Node1 -->
<g id="node1" class="node">
<title>Node1</title>
<g id="a_node1"><a xlink:title=" ">
<polygon fill="#bfbfbf" stroke="black" points="102.5,-135.5 102.5,-165.5 272.5,-165.5 272.5,-135.5 102.5,-135.5"/>
<text text-anchor="start" x="110.5" y="-153.5" font-family="Helvetica,sans-Serif" font-size="10.00">lemons::plugin::MetaParameter</text>
<text text-anchor="middle" x="187.5" y="-142.5" font-family="Helvetica,sans-Serif" font-size="10.00">&lt; ValueType &gt;</text>
</a>
</g>
</g>
<!-- Node6 -->
<g id="node6" class="node">
<title>Node6</title>
<g id="a_node6"><a xlink:href="classlemons_1_1plugin_1_1_meta_parameter.html" target="_top" xlink:title=" ">
<polygon fill="none" stroke="black" points="102.5,-57.5 102.5,-87.5 272.5,-87.5 272.5,-57.5 102.5,-57.5"/>
<text text-anchor="start" x="110.5" y="-75.5" font-family="Helvetica,sans-Serif" font-size="10.00">lemons::plugin::MetaParameter</text>
<text text-anchor="middle" x="187.5" y="-64.5" font-family="Helvetica,sans-Serif" font-size="10.00">&lt; float &gt;</text>
</a>
</g>
</g>
<!-- Node1&#45;&gt;Node6 -->
<g id="edge5" class="edge">
<title>Node1&#45;&gt;Node6</title>
<path fill="none" stroke="orange" stroke-dasharray="5,2" d="M187.5,-125.09C187.5,-112.76 187.5,-98.22 187.5,-87.73"/>
<polygon fill="orange" stroke="orange" points="184,-125.2 187.5,-135.2 191,-125.21 184,-125.2"/>
<text text-anchor="middle" x="211.5" y="-109" font-family="Helvetica,sans-Serif" font-size="10.00"> &lt; float &gt;</text>
</g>
<!-- Node2 -->
<g id="node2" class="node">
<title>Node2</title>
<g id="a_node2"><a xlink:href="classlemons_1_1plugin_1_1_typed_parameter.html" target="_top" xlink:title=" ">
<polygon fill="none" stroke="black" points="0,-203.5 0,-233.5 173,-233.5 173,-203.5 0,-203.5"/>
<text text-anchor="start" x="8" y="-221.5" font-family="Helvetica,sans-Serif" font-size="10.00">lemons::plugin::TypedParameter</text>
<text text-anchor="middle" x="86.5" y="-210.5" font-family="Helvetica,sans-Serif" font-size="10.00">&lt; ValueType &gt;</text>
</a>
</g>
</g>
<!-- Node2&#45;&gt;Node1 -->
<g id="edge1" class="edge">
<title>Node2&#45;&gt;Node1</title>
<path fill="none" stroke="midnightblue" d="M116.84,-197.68C132.67,-187.33 151.67,-174.92 165.97,-165.57"/>
<polygon fill="midnightblue" stroke="midnightblue" points="114.87,-194.78 108.42,-203.18 118.7,-200.64 114.87,-194.78"/>
</g>
<!-- Node3 -->
<g id="node3" class="node">
<title>Node3</title>
<g id="a_node3"><a xlink:href="classlemons_1_1plugin_1_1_parameter.html" target="_top" xlink:title=" ">
<polygon fill="none" stroke="black" points="14,-271.5 14,-290.5 159,-290.5 159,-271.5 14,-271.5"/>
<text text-anchor="middle" x="86.5" y="-278.5" font-family="Helvetica,sans-Serif" font-size="10.00">lemons::plugin::Parameter</text>
</a>
</g>
</g>
<!-- Node3&#45;&gt;Node2 -->
<g id="edge2" class="edge">
<title>Node3&#45;&gt;Node2</title>
<path fill="none" stroke="midnightblue" d="M86.5,-261.22C86.5,-252.36 86.5,-241.96 86.5,-233.76"/>
<polygon fill="midnightblue" stroke="midnightblue" points="83,-261.33 86.5,-271.33 90,-261.33 83,-261.33"/>
</g>
<!-- Node4 -->
<g id="node4" class="node">
<title>Node4</title>
<g id="a_node4"><a xlink:title=" ">
<polygon fill="none" stroke="#bfbfbf" points="7.5,-328.5 7.5,-347.5 165.5,-347.5 165.5,-328.5 7.5,-328.5"/>
<text text-anchor="middle" x="86.5" y="-335.5" font-family="Helvetica,sans-Serif" font-size="10.00">juce::RangedAudioParameter</text>
</a>
</g>
</g>
<!-- Node4&#45;&gt;Node3 -->
<g id="edge3" class="edge">
<title>Node4&#45;&gt;Node3</title>
<path fill="none" stroke="midnightblue" d="M86.5,-318.12C86.5,-308.82 86.5,-298.06 86.5,-290.71"/>
<polygon fill="midnightblue" stroke="midnightblue" points="83,-318.41 86.5,-328.41 90,-318.41 83,-318.41"/>
</g>
<!-- Node5 -->
<g id="node5" class="node">
<title>Node5</title>
<g id="a_node5"><a xlink:href="structlemons_1_1plugin_1_1_meta_parameter_base.html" target="_top" xlink:title=" ">
<polygon fill="none" stroke="black" points="191.5,-209 191.5,-228 385.5,-228 385.5,-209 191.5,-209"/>
<text text-anchor="middle" x="288.5" y="-216" font-family="Helvetica,sans-Serif" font-size="10.00">lemons::plugin::MetaParameterBase</text>
</a>
</g>
</g>
<!-- Node5&#45;&gt;Node1 -->
<g id="edge4" class="edge">
<title>Node5&#45;&gt;Node1</title>
<path fill="none" stroke="midnightblue" d="M266.6,-203.19C249.6,-192.08 226.15,-176.76 209.2,-165.68"/>
<polygon fill="midnightblue" stroke="midnightblue" points="265.01,-206.33 275.3,-208.87 268.84,-200.47 265.01,-206.33"/>
</g>
<!-- Node7 -->
<g id="node7" class="node">
<title>Node7</title>
<g id="a_node7"><a xlink:href="structlemons_1_1plugin_1_1_l_f_o.html" target="_top" xlink:title=" ">
<polygon fill="none" stroke="black" points="131,-0.5 131,-19.5 244,-19.5 244,-0.5 131,-0.5"/>
<text text-anchor="middle" x="187.5" y="-7.5" font-family="Helvetica,sans-Serif" font-size="10.00">lemons::plugin::LFO</text>
</a>
</g>
</g>
<!-- Node6&#45;&gt;Node7 -->
<g id="edge6" class="edge">
<title>Node6&#45;&gt;Node7</title>
<path fill="none" stroke="midnightblue" d="M187.5,-47.35C187.5,-37.51 187.5,-26.78 187.5,-19.54"/>
<polygon fill="midnightblue" stroke="midnightblue" points="184,-47.47 187.5,-57.47 191,-47.47 184,-47.47"/>
</g>
</g>
</svg>
