<?xml version="1.0" encoding="UTF-8" standalone="no"?>
<!DOCTYPE svg PUBLIC "-//W3C//DTD SVG 1.1//EN"
 "http://www.w3.org/Graphics/SVG/1.1/DTD/svg11.dtd">
<!-- Generated by graphviz version 2.49.3 (20211023.0002)
 -->
<!-- Title: lemons::plugin::Processor&lt; EngineType, StateType,, &gt; Pages: 1 -->
<svg width="318pt" height="218pt"
 viewBox="0.00 0.00 317.50 218.00" xmlns="http://www.w3.org/2000/svg" xmlns:xlink="http://www.w3.org/1999/xlink">
<g id="graph0" class="graph" transform="scale(1 1) rotate(0) translate(4 214)">
<title>lemons::plugin::Processor&lt; EngineType, StateType,, &gt;</title>
<!-- Node1 -->
<g id="node1" class="node">
<title>Node1</title>
<g id="a_node1"><a xlink:title="A processor class that can simply be told the templated engine type and the state type,...">
<polygon fill="#bfbfbf" stroke="black" points="87.5,-0.5 87.5,-30.5 229.5,-30.5 229.5,-0.5 87.5,-0.5"/>
<text text-anchor="start" x="95.5" y="-18.5" font-family="Helvetica,sans-Serif" font-size="10.00">lemons::plugin::Processor</text>
<text text-anchor="middle" x="158.5" y="-7.5" font-family="Helvetica,sans-Serif" font-size="10.00">&lt; EngineType, StateType,, &gt;</text>
</a>
</g>
</g>
<!-- Node2 -->
<g id="node2" class="node">
<title>Node2</title>
<g id="a_node2"><a xlink:href="classlemons_1_1plugin_1_1_processor_base.html" target="_top" xlink:title="Base class for a plugin processor.">
<polygon fill="none" stroke="black" points="1.5,-73 1.5,-92 153.5,-92 153.5,-73 1.5,-73"/>
<text text-anchor="middle" x="77.5" y="-80" font-family="Helvetica,sans-Serif" font-size="10.00">lemons::plugin::ProcessorBase</text>
</a>
</g>
</g>
<!-- Node2&#45;&gt;Node1 -->
<g id="edge1" class="edge">
<title>Node2&#45;&gt;Node1</title>
<path fill="none" stroke="midnightblue" d="M96.52,-66.24C109.96,-55.45 127.84,-41.1 140.94,-30.59"/>
<polygon fill="midnightblue" stroke="midnightblue" points="94.03,-63.75 88.42,-72.73 98.41,-69.2 94.03,-63.75"/>
</g>
<!-- Node3 -->
<g id="node3" class="node">
<title>Node3</title>
<g id="a_node3"><a xlink:href="classlemons_1_1plugin_1_1_basic_processor.html" target="_top" xlink:title="A default implementation of a basic, generic juce AudioProcessor.">
<polygon fill="none" stroke="black" points="0,-134.5 0,-153.5 155,-153.5 155,-134.5 0,-134.5"/>
<text text-anchor="middle" x="77.5" y="-141.5" font-family="Helvetica,sans-Serif" font-size="10.00">lemons::plugin::BasicProcessor</text>
</a>
</g>
</g>
<!-- Node3&#45;&gt;Node2 -->
<g id="edge2" class="edge">
<title>Node3&#45;&gt;Node2</title>
<path fill="none" stroke="midnightblue" d="M77.5,-124.32C77.5,-113.5 77.5,-100.4 77.5,-92.01"/>
<polygon fill="midnightblue" stroke="midnightblue" points="74,-124.48 77.5,-134.48 81,-124.48 74,-124.48"/>
</g>
<!-- Node4 -->
<g id="node4" class="node">
<title>Node4</title>
<g id="a_node4"><a xlink:title=" ">
<polygon fill="none" stroke="black" points="22.5,-190.5 22.5,-209.5 132.5,-209.5 132.5,-190.5 22.5,-190.5"/>
<text text-anchor="middle" x="77.5" y="-197.5" font-family="Helvetica,sans-Serif" font-size="10.00">juce::AudioProcessor</text>
</a>
</g>
</g>
<!-- Node4&#45;&gt;Node3 -->
<g id="edge3" class="edge">
<title>Node4&#45;&gt;Node3</title>
<path fill="none" stroke="midnightblue" d="M77.5,-179.8C77.5,-170.91 77.5,-160.78 77.5,-153.75"/>
<polygon fill="midnightblue" stroke="midnightblue" points="74,-180.08 77.5,-190.08 81,-180.08 74,-180.08"/>
</g>
<!-- Node5 -->
<g id="node5" class="node">
<title>Node5</title>
<g id="a_node5"><a xlink:href="structlemons_1_1locale_1_1_translations_initializer.html" target="_top" xlink:title="A struct whose constructor simply calls initializeDefaultTranslations().">
<polygon fill="none" stroke="black" points="171.5,-67.5 171.5,-97.5 309.5,-97.5 309.5,-67.5 171.5,-67.5"/>
<text text-anchor="start" x="179.5" y="-85.5" font-family="Helvetica,sans-Serif" font-size="10.00">lemons::locale::Translations</text>
<text text-anchor="middle" x="240.5" y="-74.5" font-family="Helvetica,sans-Serif" font-size="10.00">Initializer</text>
</a>
</g>
</g>
<!-- Node5&#45;&gt;Node1 -->
<g id="edge4" class="edge">
<title>Node5&#45;&gt;Node1</title>
<path fill="none" stroke="#8b1a1a" d="M214.85,-61.17C202.31,-51.23 187.53,-39.51 176.26,-30.58"/>
<polygon fill="#8b1a1a" stroke="#8b1a1a" points="212.7,-63.93 222.71,-67.4 217.04,-58.44 212.7,-63.93"/>
</g>
</g>
</svg>
