<?xml version="1.0" encoding="UTF-8" standalone="no"?>
<!DOCTYPE svg PUBLIC "-//W3C//DTD SVG 1.1//EN"
 "http://www.w3.org/Graphics/SVG/1.1/DTD/svg11.dtd">
<!-- Generated by graphviz version 2.43.0 (0)
 -->
<!-- Title: lemons::dsp::Engine&lt; SampleType &gt; Pages: 1 -->
<svg width="520pt" height="431pt"
 viewBox="0.00 0.00 520.00 431.00" xmlns="http://www.w3.org/2000/svg" xmlns:xlink="http://www.w3.org/1999/xlink">
<g id="graph0" class="graph" transform="scale(1 1) rotate(0) translate(4 427)">
<title>lemons::dsp::Engine&lt; SampleType &gt;</title>
<!-- Node1 -->
<g id="node1" class="node">
<title>Node1</title>
<g id="a_node1"><a xlink:title=" ">
<polygon fill="#bfbfbf" stroke="black" points="0,-196.5 0,-226.5 115,-226.5 115,-196.5 0,-196.5"/>
<text text-anchor="start" x="8" y="-214.5" font-family="Helvetica,sans-Serif" font-size="10.00">lemons::dsp::Engine</text>
<text text-anchor="middle" x="57.5" y="-203.5" font-family="Helvetica,sans-Serif" font-size="10.00">&lt; SampleType &gt;</text>
</a>
</g>
</g>
<!-- Node2 -->
<g id="node2" class="node">
<title>Node2</title>
<g id="a_node2"><a xlink:href="classlemons_1_1dsp_1_1FX_1_1EffectEngine.html" target="_top" xlink:title=" ">
<polygon fill="none" stroke="black" points="176.5,-392.5 176.5,-422.5 292.5,-422.5 292.5,-392.5 176.5,-392.5"/>
<text text-anchor="start" x="184.5" y="-410.5" font-family="Helvetica,sans-Serif" font-size="10.00">EffectEngine&lt; Filter,</text>
<text text-anchor="middle" x="234.5" y="-399.5" font-family="Helvetica,sans-Serif" font-size="10.00"> SampleType &gt;</text>
</a>
</g>
</g>
<!-- Node1&#45;&gt;Node2 -->
<g id="edge1" class="edge">
<title>Node1&#45;&gt;Node2</title>
<path fill="none" stroke="midnightblue" d="M65.13,-236.36C76.41,-273.85 102.93,-344.61 151,-383.5 158.42,-389.5 167.29,-394.01 176.41,-397.38"/>
<polygon fill="midnightblue" stroke="midnightblue" points="68.48,-235.36 62.34,-226.72 61.76,-237.3 68.48,-235.36"/>
</g>
<!-- Node4 -->
<g id="node4" class="node">
<title>Node4</title>
<g id="a_node4"><a xlink:href="classlemons_1_1dsp_1_1FX_1_1EffectEngine.html" target="_top" xlink:title=" ">
<polygon fill="none" stroke="black" points="154,-343.5 154,-373.5 315,-373.5 315,-343.5 154,-343.5"/>
<text text-anchor="start" x="162" y="-361.5" font-family="Helvetica,sans-Serif" font-size="10.00">lemons::dsp::FX::EffectEngine</text>
<text text-anchor="middle" x="234.5" y="-350.5" font-family="Helvetica,sans-Serif" font-size="10.00">&lt; SampleType &gt;</text>
</a>
</g>
</g>
<!-- Node1&#45;&gt;Node4 -->
<g id="edge3" class="edge">
<title>Node1&#45;&gt;Node4</title>
<path fill="none" stroke="midnightblue" d="M70.64,-235.98C85.72,-263.9 114.03,-308.96 151,-334.5 155.91,-337.89 161.3,-340.81 166.9,-343.32"/>
<polygon fill="midnightblue" stroke="midnightblue" points="73.61,-234.11 65.86,-226.88 67.41,-237.36 73.61,-234.11"/>
</g>
<!-- Node5 -->
<g id="node5" class="node">
<title>Node5</title>
<g id="a_node5"><a xlink:href="classlemons_1_1dsp_1_1LatencyEngine.html" target="_top" xlink:title=" ">
<polygon fill="none" stroke="black" points="158,-294.5 158,-324.5 311,-324.5 311,-294.5 158,-294.5"/>
<text text-anchor="start" x="166" y="-312.5" font-family="Helvetica,sans-Serif" font-size="10.00">lemons::dsp::LatencyEngine</text>
<text text-anchor="middle" x="234.5" y="-301.5" font-family="Helvetica,sans-Serif" font-size="10.00">&lt; SampleType &gt;</text>
</a>
</g>
</g>
<!-- Node1&#45;&gt;Node5 -->
<g id="edge4" class="edge">
<title>Node1&#45;&gt;Node5</title>
<path fill="none" stroke="midnightblue" d="M81.05,-233.78C98.75,-250.16 124.73,-271.86 151,-285.5 157.49,-288.87 164.51,-291.83 171.63,-294.41"/>
<polygon fill="midnightblue" stroke="midnightblue" points="83.2,-231 73.53,-226.67 78.39,-236.08 83.2,-231"/>
</g>
<!-- Node6 -->
<g id="node6" class="node">
<title>Node6</title>
<g id="a_node6"><a xlink:href="classlemons_1_1dsp_1_1osc_1_1OscEngine.html" target="_top" xlink:title=" ">
<polygon fill="none" stroke="black" points="157,-245.5 157,-275.5 312,-275.5 312,-245.5 157,-245.5"/>
<text text-anchor="start" x="165" y="-263.5" font-family="Helvetica,sans-Serif" font-size="10.00">lemons::dsp::osc::OscEngine</text>
<text text-anchor="middle" x="234.5" y="-252.5" font-family="Helvetica,sans-Serif" font-size="10.00">&lt; SampleType &gt;</text>
</a>
</g>
</g>
<!-- Node1&#45;&gt;Node6 -->
<g id="edge5" class="edge">
<title>Node1&#45;&gt;Node6</title>
<path fill="none" stroke="midnightblue" d="M122.15,-229.32C141.04,-234.61 161.54,-240.35 179.74,-245.45"/>
<polygon fill="midnightblue" stroke="midnightblue" points="123.01,-225.93 112.43,-226.6 121.12,-232.67 123.01,-225.93"/>
</g>
<!-- Node7 -->
<g id="node7" class="node">
<title>Node7</title>
<g id="a_node7"><a xlink:href="classlemons_1_1dsp_1_1osc_1_1OscEngine.html" target="_top" xlink:title=" ">
<polygon fill="none" stroke="black" points="164,-196.5 164,-226.5 305,-226.5 305,-196.5 164,-196.5"/>
<text text-anchor="start" x="172" y="-214.5" font-family="Helvetica,sans-Serif" font-size="10.00">OscEngine&lt; SampleType,</text>
<text text-anchor="middle" x="234.5" y="-203.5" font-family="Helvetica,sans-Serif" font-size="10.00"> lemons::dsp::osc::Saw &gt;</text>
</a>
</g>
</g>
<!-- Node1&#45;&gt;Node7 -->
<g id="edge6" class="edge">
<title>Node1&#45;&gt;Node7</title>
<path fill="none" stroke="midnightblue" d="M125.66,-211.5C138.16,-211.5 151.24,-211.5 163.82,-211.5"/>
<polygon fill="midnightblue" stroke="midnightblue" points="125.32,-208 115.32,-211.5 125.32,-215 125.32,-208"/>
</g>
<!-- Node8 -->
<g id="node8" class="node">
<title>Node8</title>
<g id="a_node8"><a xlink:href="classlemons_1_1dsp_1_1osc_1_1OscEngine.html" target="_top" xlink:title=" ">
<polygon fill="none" stroke="black" points="164,-147.5 164,-177.5 305,-177.5 305,-147.5 164,-147.5"/>
<text text-anchor="start" x="172" y="-165.5" font-family="Helvetica,sans-Serif" font-size="10.00">OscEngine&lt; SampleType,</text>
<text text-anchor="middle" x="234.5" y="-154.5" font-family="Helvetica,sans-Serif" font-size="10.00"> lemons::dsp::osc::Sine &gt;</text>
</a>
</g>
</g>
<!-- Node1&#45;&gt;Node8 -->
<g id="edge7" class="edge">
<title>Node1&#45;&gt;Node8</title>
<path fill="none" stroke="midnightblue" d="M122.15,-193.68C141.04,-188.39 161.54,-182.65 179.74,-177.55"/>
<polygon fill="midnightblue" stroke="midnightblue" points="121.12,-190.33 112.43,-196.4 123.01,-197.07 121.12,-190.33"/>
</g>
<!-- Node9 -->
<g id="node9" class="node">
<title>Node9</title>
<g id="a_node9"><a xlink:href="classlemons_1_1dsp_1_1osc_1_1OscEngine.html" target="_top" xlink:title=" ">
<polygon fill="none" stroke="black" points="158.5,-98.5 158.5,-128.5 310.5,-128.5 310.5,-98.5 158.5,-98.5"/>
<text text-anchor="start" x="166.5" y="-116.5" font-family="Helvetica,sans-Serif" font-size="10.00">OscEngine&lt; SampleType,</text>
<text text-anchor="middle" x="234.5" y="-105.5" font-family="Helvetica,sans-Serif" font-size="10.00"> lemons::dsp::osc::Square &gt;</text>
</a>
</g>
</g>
<!-- Node1&#45;&gt;Node9 -->
<g id="edge8" class="edge">
<title>Node1&#45;&gt;Node9</title>
<path fill="none" stroke="midnightblue" d="M81.47,-189.33C99.21,-173.26 125.05,-152.05 151,-138.5 158.16,-134.76 165.98,-131.48 173.85,-128.65"/>
<polygon fill="midnightblue" stroke="midnightblue" points="78.88,-186.95 73.91,-196.31 83.63,-192.09 78.88,-186.95"/>
</g>
<!-- Node10 -->
<g id="node10" class="node">
<title>Node10</title>
<g id="a_node10"><a xlink:href="classlemons_1_1dsp_1_1osc_1_1OscEngine.html" target="_top" xlink:title=" ">
<polygon fill="none" stroke="black" points="151,-49.5 151,-79.5 318,-79.5 318,-49.5 151,-49.5"/>
<text text-anchor="start" x="159" y="-67.5" font-family="Helvetica,sans-Serif" font-size="10.00">OscEngine&lt; SampleType,</text>
<text text-anchor="middle" x="234.5" y="-56.5" font-family="Helvetica,sans-Serif" font-size="10.00"> lemons::dsp::osc::SuperSaw &gt;</text>
</a>
</g>
</g>
<!-- Node1&#45;&gt;Node10 -->
<g id="edge9" class="edge">
<title>Node1&#45;&gt;Node10</title>
<path fill="none" stroke="midnightblue" d="M70.74,-187.29C85.91,-159.67 114.31,-115.04 151,-89.5 156.53,-85.65 162.66,-82.38 169.02,-79.61"/>
<polygon fill="midnightblue" stroke="midnightblue" points="67.55,-185.82 65.93,-196.29 73.73,-189.12 67.55,-185.82"/>
</g>
<!-- Node11 -->
<g id="node11" class="node">
<title>Node11</title>
<g id="a_node11"><a xlink:href="classlemons_1_1dsp_1_1osc_1_1OscEngine.html" target="_top" xlink:title=" ">
<polygon fill="none" stroke="black" points="156,-0.5 156,-30.5 313,-30.5 313,-0.5 156,-0.5"/>
<text text-anchor="start" x="164" y="-18.5" font-family="Helvetica,sans-Serif" font-size="10.00">OscEngine&lt; SampleType,</text>
<text text-anchor="middle" x="234.5" y="-7.5" font-family="Helvetica,sans-Serif" font-size="10.00"> lemons::dsp::osc::Triangle &gt;</text>
</a>
</g>
</g>
<!-- Node1&#45;&gt;Node11 -->
<g id="edge10" class="edge">
<title>Node1&#45;&gt;Node11</title>
<path fill="none" stroke="midnightblue" d="M65.37,-186.37C76.86,-149.06 103.52,-79.25 151,-40.5 155.75,-36.62 161.1,-33.34 166.73,-30.57"/>
<polygon fill="midnightblue" stroke="midnightblue" points="61.88,-185.83 62.41,-196.41 68.59,-187.81 61.88,-185.83"/>
</g>
<!-- Node3 -->
<g id="node3" class="node">
<title>Node3</title>
<g id="a_node3"><a xlink:href="structlemons_1_1dsp_1_1FX_1_1FilterEngine.html" target="_top" xlink:title=" ">
<polygon fill="none" stroke="black" points="354,-392.5 354,-422.5 512,-422.5 512,-392.5 354,-392.5"/>
<text text-anchor="start" x="362" y="-410.5" font-family="Helvetica,sans-Serif" font-size="10.00">lemons::dsp::FX::FilterEngine</text>
<text text-anchor="middle" x="433" y="-399.5" font-family="Helvetica,sans-Serif" font-size="10.00">&lt; SampleType &gt;</text>
</a>
</g>
</g>
<!-- Node2&#45;&gt;Node3 -->
<g id="edge2" class="edge">
<title>Node2&#45;&gt;Node3</title>
<path fill="none" stroke="midnightblue" d="M302.68,-407.5C319.17,-407.5 336.97,-407.5 353.92,-407.5"/>
<polygon fill="midnightblue" stroke="midnightblue" points="302.6,-404 292.6,-407.5 302.6,-411 302.6,-404"/>
</g>
</g>
</svg>
