<?xml version="1.0" encoding="UTF-8" standalone="no"?>
<!DOCTYPE svg PUBLIC "-//W3C//DTD SVG 1.1//EN"
 "http://www.w3.org/Graphics/SVG/1.1/DTD/svg11.dtd">
<!-- Generated by graphviz version 2.49.1 (20210923.0004)
 -->
<!-- Title: lemons::dsp::BasicProcessorBase Pages: 1 -->
<svg width="176pt" height="151pt"
 viewBox="0.00 0.00 176.00 151.00" xmlns="http://www.w3.org/2000/svg" xmlns:xlink="http://www.w3.org/1999/xlink">
<g id="graph0" class="graph" transform="scale(1 1) rotate(0) translate(4 147)">
<title>lemons::dsp::BasicProcessorBase</title>
<!-- Node1 -->
<g id="node1" class="node">
<title>Node1</title>
<g id="a_node1"><a xlink:title="A default implementation of a basic, generic juce AudioProcessor.">
<polygon fill="#bfbfbf" stroke="black" points="0,-123.5 0,-142.5 168,-142.5 168,-123.5 0,-123.5"/>
<text text-anchor="middle" x="84" y="-130.5" font-family="Helvetica,sans-Serif" font-size="10.00">lemons::dsp::BasicProcessorBase</text>
</a>
</g>
</g>
<!-- Node2 -->
<g id="node2" class="node">
<title>Node2</title>
<g id="a_node2"><a xlink:href="classlemons_1_1plugin_1_1ProcessorBase.html" target="_top" xlink:title="Base class for a plugin processor.">
<polygon fill="none" stroke="black" points="7,-67.5 7,-86.5 161,-86.5 161,-67.5 7,-67.5"/>
<text text-anchor="middle" x="84" y="-74.5" font-family="Helvetica,sans-Serif" font-size="10.00">lemons::plugin::ProcessorBase</text>
</a>
</g>
</g>
<!-- Node1&#45;&gt;Node2 -->
<g id="edge1" class="edge">
<title>Node1&#45;&gt;Node2</title>
<path fill="none" stroke="midnightblue" d="M84,-112.8C84,-103.91 84,-93.78 84,-86.75"/>
<polygon fill="midnightblue" stroke="midnightblue" points="80.5,-113.08 84,-123.08 87.5,-113.08 80.5,-113.08"/>
</g>
<!-- Node3 -->
<g id="node3" class="node">
<title>Node3</title>
<g id="a_node3"><a xlink:href="classlemons_1_1plugin_1_1Processor.html" target="_top" xlink:title="A processor class for a plugin that can simply be told the state type and engine type,...">
<polygon fill="none" stroke="black" points="12.5,-0.5 12.5,-30.5 155.5,-30.5 155.5,-0.5 12.5,-0.5"/>
<text text-anchor="start" x="20.5" y="-18.5" font-family="Helvetica,sans-Serif" font-size="10.00">lemons::plugin::Processor</text>
<text text-anchor="middle" x="84" y="-7.5" font-family="Helvetica,sans-Serif" font-size="10.00">&lt; StateType, EngineType,, &gt;</text>
</a>
</g>
</g>
<!-- Node2&#45;&gt;Node3 -->
<g id="edge2" class="edge">
<title>Node2&#45;&gt;Node3</title>
<path fill="none" stroke="midnightblue" d="M84,-57.23C84,-48.59 84,-38.5 84,-30.52"/>
<polygon fill="midnightblue" stroke="midnightblue" points="80.5,-57.48 84,-67.48 87.5,-57.48 80.5,-57.48"/>
</g>
</g>
</svg>
