<?xml version="1.0" encoding="UTF-8" standalone="no"?>
<!DOCTYPE svg PUBLIC "-//W3C//DTD SVG 1.1//EN"
 "http://www.w3.org/Graphics/SVG/1.1/DTD/svg11.dtd">
<!-- Generated by graphviz version 2.43.0 (0)
 -->
<!-- Title: lemons::dsp::osc::Engine&lt; SampleType, OscType, &gt; Pages: 1 -->
<!--zoomable 587 -->
<svg id="main" version="1.1" xmlns="http://www.w3.org/2000/svg" xmlns:xlink="http://www.w3.org/1999/xlink" xml:space="preserve" onload="init(evt)">
<style type="text/css"><![CDATA[
.edge:hover path { stroke: red; }
.edge:hover polygon { stroke: red; fill: red; }
]]></style>
<script type="text/javascript"><![CDATA[
var edges = document.getElementsByTagName('g');
if (edges && edges.length) {
  for (var i=0;i<edges.length;i++) {
    if (edges[i].id.substr(0,4)=='edge') {
      edges[i].setAttribute('class','edge');
    }
  }
}
]]></script>
        <defs>
                <circle id="rim" cx="0" cy="0" r="7"/>
                <circle id="rim2" cx="0" cy="0" r="3.5"/>
                <g id="zoomPlus">
                        <use xlink:href="#rim" fill="#404040">
                                <set attributeName="fill" to="#808080" begin="zoomplus.mouseover" end="zoomplus.mouseout"/>
                        </use>
                        <path d="M-4,0h8M0,-4v8" fill="none" stroke="white" stroke-width="1.5" pointer-events="none"/>
                </g>
                <g id="zoomMin">
                        <use xlink:href="#rim" fill="#404040">
                                <set attributeName="fill" to="#808080" begin="zoomminus.mouseover" end="zoomminus.mouseout"/>
                        </use>
                        <path d="M-4,0h8" fill="none" stroke="white" stroke-width="1.5" pointer-events="none"/>
                </g>
                <g id="dirArrow">
                        <path fill="none" stroke="white" stroke-width="1.5" d="M0,-3.0v7 M-2.5,-0.5L0,-3.0L2.5,-0.5"/>
                </g>
               <g id="resetDef">
                       <use xlink:href="#rim2" fill="#404040">
                               <set attributeName="fill" to="#808080" begin="reset.mouseover" end="reset.mouseout"/>
                       </use>
               </g>
        </defs>

<script type="text/javascript">
var viewWidth = 1155;
var viewHeight = 587;
var sectionId = 'dynsection-0';
</script>
<script xlink:href="svgpan.js"/>
<svg id="graph" class="graph">
<g id="viewport">
<title>lemons::dsp::osc::Engine&lt; SampleType, OscType, &gt;</title>
<!-- Node1 -->
<g id="node1" class="node">
<title>Node1</title>
<g id="a_node1"><a xlink:title=" ">
<polygon fill="#bfbfbf" stroke="black" points="672,-276 672,-306 820,-306 820,-276 672,-276"/>
<text text-anchor="start" x="680" y="-294" font-family="Helvetica,sans-Serif" font-size="10.00">lemons::dsp::osc::Engine</text>
<text text-anchor="middle" x="746" y="-283" font-family="Helvetica,sans-Serif" font-size="10.00">&lt; SampleType, OscType, &gt;</text>
</a>
</g>
</g>
<!-- Node5 -->
<g id="node5" class="node">
<title>Node5</title>
<g id="a_node5"><a xlink:href="classlemons_1_1dsp_1_1osc_1_1_engine.html" target="_top" xlink:title=" ">
<polygon fill="none" stroke="black" points="983.5,-530.5 983.5,-571.5 1135.5,-571.5 1135.5,-530.5 983.5,-530.5"/>
<text text-anchor="start" x="991.5" y="-559.5" font-family="Helvetica,sans-Serif" font-size="10.00">lemons::dsp::osc::Engine</text>
<text text-anchor="start" x="991.5" y="-548.5" font-family="Helvetica,sans-Serif" font-size="10.00">&lt; SampleType, lemons::dsp</text>
<text text-anchor="middle" x="1059.5" y="-537.5" font-family="Helvetica,sans-Serif" font-size="10.00">::osc::Sine &gt;</text>
</a>
</g>
</g>
<!-- Node1&#45;&gt;Node5 -->
<g id="edge5" class="edge">
<title>Node1&#45;&gt;Node5</title>
<path fill="none" stroke="orange" stroke-dasharray="5,2" d="M748.99,-316.19C754.24,-364.26 772.94,-468.86 838,-520 878.65,-551.95 937.01,-558.98 983.49,-558.4"/>
<polygon fill="orange" stroke="orange" points="752.45,-315.64 747.99,-306.03 745.49,-316.33 752.45,-315.64"/>
<text text-anchor="start" x="838" y="-571" font-family="Helvetica,sans-Serif" font-size="10.00"> &lt; SampleType, lemons</text>
<text text-anchor="middle" x="896" y="-560" font-family="Helvetica,sans-Serif" font-size="10.00">::dsp::osc::Sine &gt;</text>
</g>
<!-- Node6 -->
<g id="node6" class="node">
<title>Node6</title>
<g id="a_node6"><a xlink:href="classlemons_1_1dsp_1_1osc_1_1_engine.html" target="_top" xlink:title=" ">
<polygon fill="none" stroke="black" points="972,-481 972,-511 1147,-511 1147,-481 972,-481"/>
<text text-anchor="start" x="980" y="-499" font-family="Helvetica,sans-Serif" font-size="10.00">lemons::dsp::osc::Engine</text>
<text text-anchor="middle" x="1059.5" y="-488" font-family="Helvetica,sans-Serif" font-size="10.00">&lt; float, lemons::dsp::osc::Saw &gt;</text>
</a>
</g>
</g>
<!-- Node1&#45;&gt;Node6 -->
<g id="edge6" class="edge">
<title>Node1&#45;&gt;Node6</title>
<path fill="none" stroke="orange" stroke-dasharray="5,2" d="M753.52,-316.04C764.45,-352.75 790.14,-420.54 838,-455 876.47,-482.7 928.22,-493.33 971.92,-496.85"/>
<polygon fill="orange" stroke="orange" points="756.8,-314.8 750.7,-306.14 750.07,-316.72 756.8,-314.8"/>
<text text-anchor="start" x="845" y="-508" font-family="Helvetica,sans-Serif" font-size="10.00"> &lt; float, lemons::dsp</text>
<text text-anchor="middle" x="896" y="-497" font-family="Helvetica,sans-Serif" font-size="10.00">::osc::Saw &gt;</text>
</g>
<!-- Node7 -->
<g id="node7" class="node">
<title>Node7</title>
<g id="a_node7"><a xlink:href="classlemons_1_1dsp_1_1osc_1_1_engine.html" target="_top" xlink:title=" ">
<polygon fill="none" stroke="black" points="983.5,-420.5 983.5,-461.5 1135.5,-461.5 1135.5,-420.5 983.5,-420.5"/>
<text text-anchor="start" x="991.5" y="-449.5" font-family="Helvetica,sans-Serif" font-size="10.00">lemons::dsp::osc::Engine</text>
<text text-anchor="start" x="991.5" y="-438.5" font-family="Helvetica,sans-Serif" font-size="10.00">&lt; SampleType, lemons::dsp</text>
<text text-anchor="middle" x="1059.5" y="-427.5" font-family="Helvetica,sans-Serif" font-size="10.00">::osc::Saw &gt;</text>
</a>
</g>
</g>
<!-- Node1&#45;&gt;Node7 -->
<g id="edge7" class="edge">
<title>Node1&#45;&gt;Node7</title>
<path fill="none" stroke="orange" stroke-dasharray="5,2" d="M762.24,-314.48C778.32,-337.32 805.77,-371.23 838,-390 882.31,-415.81 938.74,-428.55 983.43,-434.85"/>
<polygon fill="orange" stroke="orange" points="764.99,-312.31 756.45,-306.04 759.22,-316.26 764.99,-312.31"/>
<text text-anchor="start" x="838" y="-443" font-family="Helvetica,sans-Serif" font-size="10.00"> &lt; SampleType, lemons</text>
<text text-anchor="middle" x="896" y="-432" font-family="Helvetica,sans-Serif" font-size="10.00">::dsp::osc::Saw &gt;</text>
</g>
<!-- Node8 -->
<g id="node8" class="node">
<title>Node8</title>
<g id="a_node8"><a xlink:href="classlemons_1_1dsp_1_1osc_1_1_engine.html" target="_top" xlink:title=" ">
<polygon fill="none" stroke="black" points="991,-360.5 991,-401.5 1128,-401.5 1128,-360.5 991,-360.5"/>
<text text-anchor="start" x="999" y="-389.5" font-family="Helvetica,sans-Serif" font-size="10.00">lemons::dsp::osc::Engine</text>
<text text-anchor="start" x="999" y="-378.5" font-family="Helvetica,sans-Serif" font-size="10.00">&lt; float, lemons::dsp::osc</text>
<text text-anchor="middle" x="1059.5" y="-367.5" font-family="Helvetica,sans-Serif" font-size="10.00">::Detunable &gt;</text>
</a>
</g>
</g>
<!-- Node1&#45;&gt;Node8 -->
<g id="edge8" class="edge">
<title>Node1&#45;&gt;Node8</title>
<path fill="none" stroke="orange" stroke-dasharray="5,2" d="M782.16,-311.04C798.68,-319.76 818.91,-329.45 838,-336 887.89,-353.11 946.48,-364.68 990.72,-371.81"/>
<polygon fill="orange" stroke="orange" points="783.37,-307.71 772.9,-306.05 780.05,-313.88 783.37,-307.71"/>
<text text-anchor="start" x="845" y="-378" font-family="Helvetica,sans-Serif" font-size="10.00"> &lt; float, lemons::dsp</text>
<text text-anchor="middle" x="896" y="-367" font-family="Helvetica,sans-Serif" font-size="10.00">::osc::Detunable &gt;</text>
</g>
<!-- Node9 -->
<g id="node9" class="node">
<title>Node9</title>
<g id="a_node9"><a xlink:href="classlemons_1_1dsp_1_1osc_1_1_engine.html" target="_top" xlink:title=" ">
<polygon fill="none" stroke="black" points="991,-300.5 991,-341.5 1128,-341.5 1128,-300.5 991,-300.5"/>
<text text-anchor="start" x="999" y="-329.5" font-family="Helvetica,sans-Serif" font-size="10.00">lemons::dsp::osc::Engine</text>
<text text-anchor="start" x="999" y="-318.5" font-family="Helvetica,sans-Serif" font-size="10.00">&lt; float, lemons::dsp::osc</text>
<text text-anchor="middle" x="1059.5" y="-307.5" font-family="Helvetica,sans-Serif" font-size="10.00">::Square &gt;</text>
</a>
</g>
</g>
<!-- Node1&#45;&gt;Node9 -->
<g id="edge9" class="edge">
<title>Node1&#45;&gt;Node9</title>
<path fill="none" stroke="orange" stroke-dasharray="5,2" d="M830.23,-299.02C880.53,-303.86 943.81,-309.95 990.98,-314.5"/>
<polygon fill="orange" stroke="orange" points="830.32,-295.51 820.03,-298.03 829.65,-302.48 830.32,-295.51"/>
<text text-anchor="start" x="845" y="-324" font-family="Helvetica,sans-Serif" font-size="10.00"> &lt; float, lemons::dsp</text>
<text text-anchor="middle" x="896" y="-313" font-family="Helvetica,sans-Serif" font-size="10.00">::osc::Square &gt;</text>
</g>
<!-- Node10 -->
<g id="node10" class="node">
<title>Node10</title>
<g id="a_node10"><a xlink:href="classlemons_1_1dsp_1_1osc_1_1_engine.html" target="_top" xlink:title=" ">
<polygon fill="none" stroke="black" points="983.5,-240.5 983.5,-281.5 1135.5,-281.5 1135.5,-240.5 983.5,-240.5"/>
<text text-anchor="start" x="991.5" y="-269.5" font-family="Helvetica,sans-Serif" font-size="10.00">lemons::dsp::osc::Engine</text>
<text text-anchor="start" x="991.5" y="-258.5" font-family="Helvetica,sans-Serif" font-size="10.00">&lt; SampleType, lemons::dsp</text>
<text text-anchor="middle" x="1059.5" y="-247.5" font-family="Helvetica,sans-Serif" font-size="10.00">::osc::Triangle &gt;</text>
</a>
</g>
</g>
<!-- Node1&#45;&gt;Node10 -->
<g id="edge10" class="edge">
<title>Node1&#45;&gt;Node10</title>
<path fill="none" stroke="orange" stroke-dasharray="5,2" d="M828.03,-274.37C831.39,-273.87 834.72,-273.41 838,-273 886.12,-266.96 940.52,-263.96 983.25,-262.47"/>
<polygon fill="orange" stroke="orange" points="827.21,-270.96 817.88,-275.98 828.31,-277.87 827.21,-270.96"/>
<text text-anchor="start" x="838" y="-287" font-family="Helvetica,sans-Serif" font-size="10.00"> &lt; SampleType, lemons</text>
<text text-anchor="middle" x="896" y="-276" font-family="Helvetica,sans-Serif" font-size="10.00">::dsp::osc::Triangle &gt;</text>
</g>
<!-- Node11 -->
<g id="node11" class="node">
<title>Node11</title>
<g id="a_node11"><a xlink:href="classlemons_1_1dsp_1_1osc_1_1_engine.html" target="_top" xlink:title=" ">
<polygon fill="none" stroke="black" points="991,-180.5 991,-221.5 1128,-221.5 1128,-180.5 991,-180.5"/>
<text text-anchor="start" x="999" y="-209.5" font-family="Helvetica,sans-Serif" font-size="10.00">lemons::dsp::osc::Engine</text>
<text text-anchor="start" x="999" y="-198.5" font-family="Helvetica,sans-Serif" font-size="10.00">&lt; float, lemons::dsp::osc</text>
<text text-anchor="middle" x="1059.5" y="-187.5" font-family="Helvetica,sans-Serif" font-size="10.00">::Sine &gt;</text>
</a>
</g>
</g>
<!-- Node1&#45;&gt;Node11 -->
<g id="edge11" class="edge">
<title>Node1&#45;&gt;Node11</title>
<path fill="none" stroke="orange" stroke-dasharray="5,2" d="M776.45,-270.17C793.64,-258.97 816.18,-245.89 838,-238 887.46,-220.12 946.34,-210.8 990.81,-205.99"/>
<polygon fill="orange" stroke="orange" points="774.36,-267.36 767.98,-275.82 778.24,-273.18 774.36,-267.36"/>
<text text-anchor="start" x="845" y="-252" font-family="Helvetica,sans-Serif" font-size="10.00"> &lt; float, lemons::dsp</text>
<text text-anchor="middle" x="896" y="-241" font-family="Helvetica,sans-Serif" font-size="10.00">::osc::Sine &gt;</text>
</g>
<!-- Node12 -->
<g id="node12" class="node">
<title>Node12</title>
<g id="a_node12"><a xlink:href="classlemons_1_1dsp_1_1osc_1_1_engine.html" target="_top" xlink:title=" ">
<polygon fill="none" stroke="black" points="983.5,-120.5 983.5,-161.5 1135.5,-161.5 1135.5,-120.5 983.5,-120.5"/>
<text text-anchor="start" x="991.5" y="-149.5" font-family="Helvetica,sans-Serif" font-size="10.00">lemons::dsp::osc::Engine</text>
<text text-anchor="start" x="991.5" y="-138.5" font-family="Helvetica,sans-Serif" font-size="10.00">&lt; SampleType, lemons::dsp</text>
<text text-anchor="middle" x="1059.5" y="-127.5" font-family="Helvetica,sans-Serif" font-size="10.00">::osc::Detunable &gt;</text>
</a>
</g>
</g>
<!-- Node1&#45;&gt;Node12 -->
<g id="edge12" class="edge">
<title>Node1&#45;&gt;Node12</title>
<path fill="none" stroke="orange" stroke-dasharray="5,2" d="M761.07,-267.02C776.69,-242.65 804.21,-205.75 838,-186 882.1,-160.22 938.67,-149.03 983.47,-144.26"/>
<polygon fill="orange" stroke="orange" points="757.99,-265.35 755.68,-275.69 763.94,-269.05 757.99,-265.35"/>
<text text-anchor="start" x="838" y="-200" font-family="Helvetica,sans-Serif" font-size="10.00"> &lt; SampleType, lemons</text>
<text text-anchor="middle" x="896" y="-189" font-family="Helvetica,sans-Serif" font-size="10.00">::dsp::osc::Detunable &gt;</text>
</g>
<!-- Node13 -->
<g id="node13" class="node">
<title>Node13</title>
<g id="a_node13"><a xlink:href="classlemons_1_1dsp_1_1osc_1_1_engine.html" target="_top" xlink:title=" ">
<polygon fill="none" stroke="black" points="983.5,-60.5 983.5,-101.5 1135.5,-101.5 1135.5,-60.5 983.5,-60.5"/>
<text text-anchor="start" x="991.5" y="-89.5" font-family="Helvetica,sans-Serif" font-size="10.00">lemons::dsp::osc::Engine</text>
<text text-anchor="start" x="991.5" y="-78.5" font-family="Helvetica,sans-Serif" font-size="10.00">&lt; SampleType, lemons::dsp</text>
<text text-anchor="middle" x="1059.5" y="-67.5" font-family="Helvetica,sans-Serif" font-size="10.00">::osc::Square &gt;</text>
</a>
</g>
</g>
<!-- Node1&#45;&gt;Node13 -->
<g id="edge13" class="edge">
<title>Node1&#45;&gt;Node13</title>
<path fill="none" stroke="orange" stroke-dasharray="5,2" d="M753.27,-265.67C763.95,-228.19 789.38,-158.55 838,-123 879.76,-92.47 937.5,-82.31 983.42,-79.6"/>
<polygon fill="orange" stroke="orange" points="749.77,-265.2 750.53,-275.77 756.53,-267.03 749.77,-265.2"/>
<text text-anchor="start" x="838" y="-137" font-family="Helvetica,sans-Serif" font-size="10.00"> &lt; SampleType, lemons</text>
<text text-anchor="middle" x="896" y="-126" font-family="Helvetica,sans-Serif" font-size="10.00">::dsp::osc::Square &gt;</text>
</g>
<!-- Node14 -->
<g id="node14" class="node">
<title>Node14</title>
<g id="a_node14"><a xlink:href="classlemons_1_1dsp_1_1osc_1_1_engine.html" target="_top" xlink:title=" ">
<polygon fill="none" stroke="black" points="991,-0.5 991,-41.5 1128,-41.5 1128,-0.5 991,-0.5"/>
<text text-anchor="start" x="999" y="-29.5" font-family="Helvetica,sans-Serif" font-size="10.00">lemons::dsp::osc::Engine</text>
<text text-anchor="start" x="999" y="-18.5" font-family="Helvetica,sans-Serif" font-size="10.00">&lt; float, lemons::dsp::osc</text>
<text text-anchor="middle" x="1059.5" y="-7.5" font-family="Helvetica,sans-Serif" font-size="10.00">::Triangle &gt;</text>
</a>
</g>
</g>
<!-- Node1&#45;&gt;Node14 -->
<g id="edge14" class="edge">
<title>Node1&#45;&gt;Node14</title>
<path fill="none" stroke="orange" stroke-dasharray="5,2" d="M748.88,-265.72C753.94,-216.99 772.35,-110.19 838,-57 880.57,-22.51 943.29,-15.12 990.97,-15.43"/>
<polygon fill="orange" stroke="orange" points="745.39,-265.45 747.94,-275.73 752.36,-266.1 745.39,-265.45"/>
<text text-anchor="start" x="845" y="-71" font-family="Helvetica,sans-Serif" font-size="10.00"> &lt; float, lemons::dsp</text>
<text text-anchor="middle" x="896" y="-60" font-family="Helvetica,sans-Serif" font-size="10.00">::osc::Triangle &gt;</text>
</g>
<!-- Node2 -->
<g id="node2" class="node">
<title>Node2</title>
<g id="a_node2"><a xlink:href="classlemons_1_1dsp_1_1_stream_engine.html" target="_top" xlink:title=" ">
<polygon fill="none" stroke="black" points="485,-276 485,-306 635,-306 635,-276 485,-276"/>
<text text-anchor="start" x="493" y="-294" font-family="Helvetica,sans-Serif" font-size="10.00">lemons::dsp::StreamEngine</text>
<text text-anchor="middle" x="560" y="-283" font-family="Helvetica,sans-Serif" font-size="10.00">&lt; SampleType, OscType &gt;</text>
</a>
</g>
</g>
<!-- Node2&#45;&gt;Node1 -->
<g id="edge1" class="edge">
<title>Node2&#45;&gt;Node1</title>
<path fill="none" stroke="midnightblue" d="M645.32,-291C654.13,-291 663.03,-291 671.71,-291"/>
<polygon fill="midnightblue" stroke="midnightblue" points="645.04,-287.5 635.04,-291 645.04,-294.5 645.04,-287.5"/>
</g>
<!-- Node3 -->
<g id="node3" class="node">
<title>Node3</title>
<g id="a_node3"><a xlink:href="classlemons_1_1dsp_1_1_engine.html" target="_top" xlink:title=" ">
<polygon fill="none" stroke="black" points="0,-272 0,-302 115,-302 115,-272 0,-272"/>
<text text-anchor="start" x="8" y="-290" font-family="Helvetica,sans-Serif" font-size="10.00">lemons::dsp::Engine</text>
<text text-anchor="middle" x="57.5" y="-279" font-family="Helvetica,sans-Serif" font-size="10.00">&lt; SampleType &gt;</text>
</a>
</g>
</g>
<!-- Node3&#45;&gt;Node2 -->
<g id="edge2" class="edge">
<title>Node3&#45;&gt;Node2</title>
<path fill="none" stroke="midnightblue" d="M125.23,-291.65C127.85,-291.78 130.45,-291.9 133,-292 281.33,-298.07 318.58,-298.22 467,-295 472.75,-294.87 478.71,-294.71 484.69,-294.51"/>
<polygon fill="midnightblue" stroke="midnightblue" points="125.2,-288.14 115.02,-291.1 124.82,-295.13 125.2,-288.14"/>
</g>
<!-- Node4 -->
<g id="node4" class="node">
<title>Node4</title>
<g id="a_node4"><a xlink:href="classlemons_1_1dsp_1_1_stream_engine.html" target="_top" xlink:title=" ">
<polygon fill="none" stroke="black" points="152,-250 152,-280 317,-280 317,-250 152,-250"/>
<text text-anchor="start" x="160" y="-268" font-family="Helvetica,sans-Serif" font-size="10.00">lemons::dsp::StreamEngine</text>
<text text-anchor="middle" x="234.5" y="-257" font-family="Helvetica,sans-Serif" font-size="10.00">&lt; SampleType, StreamType, &gt;</text>
</a>
</g>
</g>
<!-- Node3&#45;&gt;Node4 -->
<g id="edge4" class="edge">
<title>Node3&#45;&gt;Node4</title>
<path fill="none" stroke="midnightblue" d="M125.35,-278.6C134.02,-277.51 142.98,-276.38 151.86,-275.26"/>
<polygon fill="midnightblue" stroke="midnightblue" points="124.8,-275.14 115.32,-279.86 125.68,-282.08 124.8,-275.14"/>
</g>
<!-- Node4&#45;&gt;Node2 -->
<g id="edge3" class="edge">
<title>Node4&#45;&gt;Node2</title>
<path fill="none" stroke="orange" stroke-dasharray="5,2" d="M327.28,-272.38C377.15,-276.38 438.03,-281.28 484.86,-285.04"/>
<polygon fill="orange" stroke="orange" points="327.38,-268.87 317.13,-271.56 326.82,-275.85 327.38,-268.87"/>
<text text-anchor="middle" x="401" y="-287" font-family="Helvetica,sans-Serif" font-size="10.00"> &lt; SampleType, OscType &gt;</text>
</g>
</g>
</svg>
        <g id="navigator" transform="translate(0 0)" fill="#404254">
                <rect fill="#f2f5e9" fill-opacity="0.5" stroke="#606060" stroke-width=".5" x="0" y="0" width="60" height="60"/>
                <use id="zoomplus" xlink:href="#zoomPlus" x="17" y="9" onmousedown="handleZoom(evt,'in')"/>
                <use id="zoomminus" xlink:href="#zoomMin" x="42" y="9" onmousedown="handleZoom(evt,'out')"/>
                <use id="reset" xlink:href="#resetDef" x="30" y="36" onmousedown="handleReset()"/>
                <g id="arrowUp" xlink:href="#dirArrow" transform="translate(30 24)" onmousedown="handlePan(0,-1)">
                  <use xlink:href="#rim" fill="#404040">
                        <set attributeName="fill" to="#808080" begin="arrowUp.mouseover" end="arrowUp.mouseout"/>
                  </use>
                  <path fill="none" stroke="white" stroke-width="1.5" d="M0,-3.0v7 M-2.5,-0.5L0,-3.0L2.5,-0.5"/>
                </g>
                <g id="arrowRight" xlink:href="#dirArrow" transform="rotate(90) translate(36 -43)" onmousedown="handlePan(1,0)">
                  <use xlink:href="#rim" fill="#404040">
                        <set attributeName="fill" to="#808080" begin="arrowRight.mouseover" end="arrowRight.mouseout"/>
                  </use>
                  <path fill="none" stroke="white" stroke-width="1.5" d="M0,-3.0v7 M-2.5,-0.5L0,-3.0L2.5,-0.5"/>
                </g>
                <g id="arrowDown" xlink:href="#dirArrow" transform="rotate(180) translate(-30 -48)" onmousedown="handlePan(0,1)">
                  <use xlink:href="#rim" fill="#404040">
                        <set attributeName="fill" to="#808080" begin="arrowDown.mouseover" end="arrowDown.mouseout"/>
                  </use>
                  <path fill="none" stroke="white" stroke-width="1.5" d="M0,-3.0v7 M-2.5,-0.5L0,-3.0L2.5,-0.5"/>
                </g>
                <g id="arrowLeft" xlink:href="#dirArrow" transform="rotate(270) translate(-36 17)" onmousedown="handlePan(-1,0)">
                  <use xlink:href="#rim" fill="#404040">
                        <set attributeName="fill" to="#808080" begin="arrowLeft.mouseover" end="arrowLeft.mouseout"/>
                  </use>
                  <path fill="none" stroke="white" stroke-width="1.5" d="M0,-3.0v7 M-2.5,-0.5L0,-3.0L2.5,-0.5"/>
                </g>
        </g>
        <svg viewBox="0 0 15 15" width="100%" height="30px" preserveAspectRatio="xMaxYMin meet">
         <g id="arrow_out" transform="scale(0.3 0.3)">
          <a xlink:href="classlemons_1_1dsp_1_1osc_1_1_engine__inherit__graph_org.svg" target="_base">
           <rect id="button" ry="5" rx="5" y="6" x="6" height="38" width="38"
                fill="#f2f5e9" fill-opacity="0.5" stroke="#606060" stroke-width="1.0"/>
           <path id="arrow"
             d="M 11.500037,31.436501 C 11.940474,20.09759 22.043105,11.32322 32.158766,21.979434 L 37.068811,17.246167 C 37.068811,17.246167 37.088388,32 37.088388,32 L 22.160133,31.978069 C 22.160133,31.978069 26.997745,27.140456 26.997745,27.140456 C 18.528582,18.264221 13.291696,25.230495 11.500037,31.436501 z"
             style="fill:#404040;"/>
          </a>
         </g>
        </svg>
</svg>
