<?xml version="1.0" encoding="UTF-8" standalone="no"?>
<!DOCTYPE svg PUBLIC "-//W3C//DTD SVG 1.1//EN"
 "http://www.w3.org/Graphics/SVG/1.1/DTD/svg11.dtd">
<!-- Generated by graphviz version 2.43.0 (0)
 -->
<!-- Title: lemons::dsp::Engine&lt; SampleType &gt; Pages: 1 -->
<svg width="901pt" height="765pt"
 viewBox="0.00 0.00 901.00 765.00" xmlns="http://www.w3.org/2000/svg" xmlns:xlink="http://www.w3.org/1999/xlink">
<g id="graph0" class="graph" transform="scale(1 1) rotate(0) translate(4 761)">
<title>lemons::dsp::Engine&lt; SampleType &gt;</title>
<!-- Node1 -->
<g id="node1" class="node">
<title>Node1</title>
<g id="a_node1"><a xlink:title="Base class for an audio engine.">
<polygon fill="#bfbfbf" stroke="black" points="0,-473.5 0,-503.5 115,-503.5 115,-473.5 0,-473.5"/>
<text text-anchor="start" x="8" y="-491.5" font-family="Helvetica,sans-Serif" font-size="10.00">lemons::dsp::Engine</text>
<text text-anchor="middle" x="57.5" y="-480.5" font-family="Helvetica,sans-Serif" font-size="10.00">&lt; SampleType &gt;</text>
</a>
</g>
</g>
<!-- Node2 -->
<g id="node2" class="node">
<title>Node2</title>
<g id="a_node2"><a xlink:href="classlemons_1_1dsp_1_1_f_x_1_1_effect_engine.html" target="_top" xlink:title=" ">
<polygon fill="none" stroke="black" points="389,-726.5 389,-756.5 505,-756.5 505,-726.5 389,-726.5"/>
<text text-anchor="start" x="397" y="-744.5" font-family="Helvetica,sans-Serif" font-size="10.00">EffectEngine&lt; Filter,</text>
<text text-anchor="middle" x="447" y="-733.5" font-family="Helvetica,sans-Serif" font-size="10.00"> SampleType &gt;</text>
</a>
</g>
</g>
<!-- Node1&#45;&gt;Node2 -->
<g id="edge1" class="edge">
<title>Node1&#45;&gt;Node2</title>
<path fill="none" stroke="midnightblue" d="M64.99,-513.51C80.04,-565.42 122.88,-683.29 210,-722.5 266.79,-748.06 339.01,-750.02 388.52,-747.36"/>
<polygon fill="midnightblue" stroke="midnightblue" points="68.33,-512.45 62.27,-503.76 61.58,-514.34 68.33,-512.45"/>
</g>
<!-- Node4 -->
<g id="node4" class="node">
<title>Node4</title>
<g id="a_node4"><a xlink:href="classlemons_1_1dsp_1_1osc_1_1_engine.html" target="_top" xlink:title=" ">
<polygon fill="none" stroke="black" points="221,-633.5 221,-663.5 360,-663.5 360,-633.5 221,-633.5"/>
<text text-anchor="start" x="229" y="-651.5" font-family="Helvetica,sans-Serif" font-size="10.00">Engine&lt; SampleType,</text>
<text text-anchor="middle" x="290.5" y="-640.5" font-family="Helvetica,sans-Serif" font-size="10.00"> lemons::dsp::osc::Saw &gt;</text>
</a>
</g>
</g>
<!-- Node1&#45;&gt;Node4 -->
<g id="edge3" class="edge">
<title>Node1&#45;&gt;Node4</title>
<path fill="none" stroke="midnightblue" d="M77.34,-511.54C103.72,-542.2 154.67,-595.87 210,-624.5 216.53,-627.88 223.61,-630.86 230.77,-633.48"/>
<polygon fill="midnightblue" stroke="midnightblue" points="80.01,-509.27 70.87,-503.9 74.67,-513.79 80.01,-509.27"/>
</g>
<!-- Node5 -->
<g id="node5" class="node">
<title>Node5</title>
<g id="a_node5"><a xlink:href="classlemons_1_1dsp_1_1osc_1_1_engine.html" target="_top" xlink:title=" ">
<polygon fill="none" stroke="black" points="220.5,-584.5 220.5,-614.5 360.5,-614.5 360.5,-584.5 220.5,-584.5"/>
<text text-anchor="start" x="228.5" y="-602.5" font-family="Helvetica,sans-Serif" font-size="10.00">Engine&lt; SampleType,</text>
<text text-anchor="middle" x="290.5" y="-591.5" font-family="Helvetica,sans-Serif" font-size="10.00"> lemons::dsp::osc::Sine &gt;</text>
</a>
</g>
</g>
<!-- Node1&#45;&gt;Node5 -->
<g id="edge4" class="edge">
<title>Node1&#45;&gt;Node5</title>
<path fill="none" stroke="midnightblue" d="M89.97,-509.42C119.87,-528.6 166.59,-556.77 210,-575.5 217.55,-578.75 225.67,-581.75 233.75,-584.44"/>
<polygon fill="midnightblue" stroke="midnightblue" points="91.55,-506.28 81.26,-503.78 87.75,-512.15 91.55,-506.28"/>
</g>
<!-- Node6 -->
<g id="node6" class="node">
<title>Node6</title>
<g id="a_node6"><a xlink:href="classlemons_1_1dsp_1_1osc_1_1_engine.html" target="_top" xlink:title=" ">
<polygon fill="none" stroke="black" points="214.5,-535.5 214.5,-565.5 366.5,-565.5 366.5,-535.5 214.5,-535.5"/>
<text text-anchor="start" x="222.5" y="-553.5" font-family="Helvetica,sans-Serif" font-size="10.00">Engine&lt; SampleType,</text>
<text text-anchor="middle" x="290.5" y="-542.5" font-family="Helvetica,sans-Serif" font-size="10.00"> lemons::dsp::osc::Square &gt;</text>
</a>
</g>
</g>
<!-- Node1&#45;&gt;Node6 -->
<g id="edge5" class="edge">
<title>Node1&#45;&gt;Node6</title>
<path fill="none" stroke="midnightblue" d="M124.38,-506.18C158.78,-515.41 200.43,-526.59 233.3,-535.41"/>
<polygon fill="midnightblue" stroke="midnightblue" points="124.98,-502.72 114.42,-503.51 123.17,-509.48 124.98,-502.72"/>
</g>
<!-- Node7 -->
<g id="node7" class="node">
<title>Node7</title>
<g id="a_node7"><a xlink:href="classlemons_1_1dsp_1_1osc_1_1_engine.html" target="_top" xlink:title=" ">
<polygon fill="none" stroke="black" points="212,-486.5 212,-516.5 369,-516.5 369,-486.5 212,-486.5"/>
<text text-anchor="start" x="220" y="-504.5" font-family="Helvetica,sans-Serif" font-size="10.00">Engine&lt; SampleType,</text>
<text text-anchor="middle" x="290.5" y="-493.5" font-family="Helvetica,sans-Serif" font-size="10.00"> lemons::dsp::osc::Triangle &gt;</text>
</a>
</g>
</g>
<!-- Node1&#45;&gt;Node7 -->
<g id="edge6" class="edge">
<title>Node1&#45;&gt;Node7</title>
<path fill="none" stroke="midnightblue" d="M125.15,-492.25C152.22,-493.77 183.67,-495.54 211.77,-497.13"/>
<polygon fill="midnightblue" stroke="midnightblue" points="125.19,-488.75 115.01,-491.68 124.8,-495.74 125.19,-488.75"/>
</g>
<!-- Node8 -->
<g id="node8" class="node">
<title>Node8</title>
<g id="a_node8"><a xlink:href="classlemons_1_1dsp_1_1_f_x_1_1_effect_engine.html" target="_top" xlink:title="A class that wraps an AudioEffect into a dsp::Engine.">
<polygon fill="none" stroke="black" points="210,-682.5 210,-712.5 371,-712.5 371,-682.5 210,-682.5"/>
<text text-anchor="start" x="218" y="-700.5" font-family="Helvetica,sans-Serif" font-size="10.00">lemons::dsp::FX::EffectEngine</text>
<text text-anchor="middle" x="290.5" y="-689.5" font-family="Helvetica,sans-Serif" font-size="10.00">&lt; SampleType &gt;</text>
</a>
</g>
</g>
<!-- Node1&#45;&gt;Node8 -->
<g id="edge7" class="edge">
<title>Node1&#45;&gt;Node8</title>
<path fill="none" stroke="midnightblue" d="M70.48,-512.73C92.11,-553.61 141.85,-635.53 210,-673.5 216.05,-676.87 222.62,-679.82 229.31,-682.39"/>
<polygon fill="midnightblue" stroke="midnightblue" points="73.53,-511 65.83,-503.73 67.31,-514.22 73.53,-511"/>
</g>
<!-- Node10 -->
<g id="node10" class="node">
<title>Node10</title>
<g id="a_node10"><a xlink:href="classlemons_1_1dsp_1_1_latency_engine.html" target="_top" xlink:title="Base class for audio engines that require latency (ie, a consistent block size) for their processing.">
<polygon fill="none" stroke="black" points="214,-437.5 214,-467.5 367,-467.5 367,-437.5 214,-437.5"/>
<text text-anchor="start" x="222" y="-455.5" font-family="Helvetica,sans-Serif" font-size="10.00">lemons::dsp::LatencyEngine</text>
<text text-anchor="middle" x="290.5" y="-444.5" font-family="Helvetica,sans-Serif" font-size="10.00">&lt; SampleType &gt;</text>
</a>
</g>
</g>
<!-- Node1&#45;&gt;Node10 -->
<g id="edge10" class="edge">
<title>Node1&#45;&gt;Node10</title>
<path fill="none" stroke="midnightblue" d="M125.02,-478.13C152.82,-473.8 185.26,-468.75 213.95,-464.27"/>
<polygon fill="midnightblue" stroke="midnightblue" points="124.35,-474.7 115.01,-479.69 125.43,-481.61 124.35,-474.7"/>
</g>
<!-- Node13 -->
<g id="node13" class="node">
<title>Node13</title>
<g id="a_node13"><a xlink:href="classlemons_1_1dsp_1_1osc_1_1_engine.html" target="_top" xlink:title="A utility class that wraps an Oscillator into a self&#45;contained dsp::Engine.">
<polygon fill="none" stroke="black" points="222,-310.5 222,-340.5 359,-340.5 359,-310.5 222,-310.5"/>
<text text-anchor="start" x="230" y="-328.5" font-family="Helvetica,sans-Serif" font-size="10.00">lemons::dsp::osc::Engine</text>
<text text-anchor="middle" x="290.5" y="-317.5" font-family="Helvetica,sans-Serif" font-size="10.00">&lt; SampleType &gt;</text>
</a>
</g>
</g>
<!-- Node1&#45;&gt;Node13 -->
<g id="edge13" class="edge">
<title>Node1&#45;&gt;Node13</title>
<path fill="none" stroke="midnightblue" d="M84.03,-466.93C98.2,-455.22 116.29,-440.69 133,-428.5 178.47,-395.35 233.95,-359.96 265.15,-340.51"/>
<polygon fill="midnightblue" stroke="midnightblue" points="81.64,-464.37 76.19,-473.46 86.11,-469.75 81.64,-464.37"/>
</g>
<!-- Node22 -->
<g id="node22" class="node">
<title>Node22</title>
<g id="a_node22"><a xlink:href="classlemons_1_1dsp_1_1_protector.html" target="_top" xlink:title="A DSP engine that, under normal conditions, simply passes the audio through; if any samples are inf o...">
<polygon fill="none" stroke="black" points="227.5,-261.5 227.5,-291.5 353.5,-291.5 353.5,-261.5 227.5,-261.5"/>
<text text-anchor="start" x="235.5" y="-279.5" font-family="Helvetica,sans-Serif" font-size="10.00">lemons::dsp::Protector</text>
<text text-anchor="middle" x="290.5" y="-268.5" font-family="Helvetica,sans-Serif" font-size="10.00">&lt; SampleType &gt;</text>
</a>
</g>
</g>
<!-- Node1&#45;&gt;Node22 -->
<g id="edge22" class="edge">
<title>Node1&#45;&gt;Node22</title>
<path fill="none" stroke="midnightblue" d="M71.05,-464.51C93.37,-424.3 143.92,-343.56 210,-301.5 215.98,-297.69 222.59,-294.43 229.35,-291.64"/>
<polygon fill="midnightblue" stroke="midnightblue" points="67.94,-462.91 66.23,-473.36 74.09,-466.26 67.94,-462.91"/>
</g>
<!-- Node23 -->
<g id="node23" class="node">
<title>Node23</title>
<g id="a_node23"><a xlink:href="classlemons_1_1plugin_1_1_processor_engine.html" target="_top" xlink:title="A kind of dsp::Engine that holds a ProcessorHolder.">
<polygon fill="none" stroke="black" points="219.5,-212.5 219.5,-242.5 361.5,-242.5 361.5,-212.5 219.5,-212.5"/>
<text text-anchor="start" x="227.5" y="-230.5" font-family="Helvetica,sans-Serif" font-size="10.00">lemons::plugin::Processor</text>
<text text-anchor="middle" x="290.5" y="-219.5" font-family="Helvetica,sans-Serif" font-size="10.00">Engine&lt; SampleType &gt;</text>
</a>
</g>
</g>
<!-- Node1&#45;&gt;Node23 -->
<g id="edge23" class="edge">
<title>Node1&#45;&gt;Node23</title>
<path fill="none" stroke="midnightblue" d="M64.8,-463.28C74.75,-427.12 96.78,-359.69 133,-312.5 159.42,-278.08 171.58,-272.66 210,-252.5 217.17,-248.73 225.01,-245.42 232.88,-242.54"/>
<polygon fill="midnightblue" stroke="midnightblue" points="61.4,-462.46 62.21,-473.03 68.16,-464.26 61.4,-462.46"/>
</g>
<!-- Node25 -->
<g id="node25" class="node">
<title>Node25</title>
<g id="a_node25"><a xlink:href="classlemons_1_1dsp_1_1_engine.html" target="_top" xlink:title=" ">
<polygon fill="none" stroke="black" points="233,-163.5 233,-193.5 348,-193.5 348,-163.5 233,-163.5"/>
<text text-anchor="start" x="241" y="-181.5" font-family="Helvetica,sans-Serif" font-size="10.00">lemons::dsp::Engine</text>
<text text-anchor="middle" x="290.5" y="-170.5" font-family="Helvetica,sans-Serif" font-size="10.00">&lt; double &gt;</text>
</a>
</g>
</g>
<!-- Node1&#45;&gt;Node25 -->
<g id="edge25" class="edge">
<title>Node1&#45;&gt;Node25</title>
<path fill="none" stroke="orange" stroke-dasharray="5,2" d="M60.15,-463.37C64.48,-415.98 79.78,-312.3 133,-246.5 157.78,-215.87 199.05,-198.71 232.99,-189.29"/>
<polygon fill="orange" stroke="orange" points="56.66,-463.12 59.33,-473.37 63.64,-463.69 56.66,-463.12"/>
<text text-anchor="middle" x="162.5" y="-249.5" font-family="Helvetica,sans-Serif" font-size="10.00"> &lt; double &gt;</text>
</g>
<!-- Node26 -->
<g id="node26" class="node">
<title>Node26</title>
<g id="a_node26"><a xlink:href="classlemons_1_1dsp_1_1_engine.html" target="_top" xlink:title=" ">
<polygon fill="none" stroke="black" points="233,-388.5 233,-418.5 348,-418.5 348,-388.5 233,-388.5"/>
<text text-anchor="start" x="241" y="-406.5" font-family="Helvetica,sans-Serif" font-size="10.00">lemons::dsp::Engine</text>
<text text-anchor="middle" x="290.5" y="-395.5" font-family="Helvetica,sans-Serif" font-size="10.00">&lt; float &gt;</text>
</a>
</g>
</g>
<!-- Node1&#45;&gt;Node26 -->
<g id="edge26" class="edge">
<title>Node1&#45;&gt;Node26</title>
<path fill="none" stroke="orange" stroke-dasharray="5,2" d="M96.1,-469.01C107.77,-463.32 120.77,-457.34 133,-452.5 166.09,-439.41 204.18,-427.42 234.5,-418.57"/>
<polygon fill="orange" stroke="orange" points="94.48,-465.9 87.07,-473.48 97.59,-472.18 94.48,-465.9"/>
<text text-anchor="middle" x="162.5" y="-455.5" font-family="Helvetica,sans-Serif" font-size="10.00"> &lt; float &gt;</text>
</g>
<!-- Node3 -->
<g id="node3" class="node">
<title>Node3</title>
<g id="a_node3"><a xlink:href="structlemons_1_1dsp_1_1_f_x_1_1_filter_engine.html" target="_top" xlink:title="A class that represents an audio engine holding a filter effect.">
<polygon fill="none" stroke="black" points="735,-704.5 735,-734.5 893,-734.5 893,-704.5 735,-704.5"/>
<text text-anchor="start" x="743" y="-722.5" font-family="Helvetica,sans-Serif" font-size="10.00">lemons::dsp::FX::FilterEngine</text>
<text text-anchor="middle" x="814" y="-711.5" font-family="Helvetica,sans-Serif" font-size="10.00">&lt; SampleType &gt;</text>
</a>
</g>
</g>
<!-- Node2&#45;&gt;Node3 -->
<g id="edge2" class="edge">
<title>Node2&#45;&gt;Node3</title>
<path fill="none" stroke="midnightblue" d="M515.1,-737.46C577.13,-733.72 669.33,-728.16 734.7,-724.22"/>
<polygon fill="midnightblue" stroke="midnightblue" points="514.8,-733.97 505.03,-738.06 515.22,-740.95 514.8,-733.97"/>
</g>
<!-- Node9 -->
<g id="node9" class="node">
<title>Node9</title>
<g id="a_node9"><a xlink:href="classlemons_1_1dsp_1_1_f_x_1_1_effect_engine.html" target="_top" xlink:title=" ">
<polygon fill="none" stroke="black" points="530,-682.5 530,-712.5 691,-712.5 691,-682.5 530,-682.5"/>
<text text-anchor="start" x="538" y="-700.5" font-family="Helvetica,sans-Serif" font-size="10.00">lemons::dsp::FX::EffectEngine</text>
<text text-anchor="middle" x="610.5" y="-689.5" font-family="Helvetica,sans-Serif" font-size="10.00">&lt; Filter, SampleType &gt;</text>
</a>
</g>
</g>
<!-- Node8&#45;&gt;Node9 -->
<g id="edge8" class="edge">
<title>Node8&#45;&gt;Node9</title>
<path fill="none" stroke="orange" stroke-dasharray="5,2" d="M381.45,-697.5C428.18,-697.5 484.79,-697.5 529.91,-697.5"/>
<polygon fill="orange" stroke="orange" points="381.33,-694 371.33,-697.5 381.33,-701 381.33,-694"/>
<text text-anchor="middle" x="447" y="-700.5" font-family="Helvetica,sans-Serif" font-size="10.00"> &lt; Filter, SampleType &gt;</text>
</g>
<!-- Node9&#45;&gt;Node3 -->
<g id="edge9" class="edge">
<title>Node9&#45;&gt;Node3</title>
<path fill="none" stroke="midnightblue" d="M701.35,-707.31C712.55,-708.53 723.93,-709.78 734.93,-710.98"/>
<polygon fill="midnightblue" stroke="midnightblue" points="701.46,-703.8 691.14,-706.19 700.7,-710.76 701.46,-703.8"/>
</g>
<!-- Node11 -->
<g id="node11" class="node">
<title>Node11</title>
<g id="a_node11"><a xlink:href="classlemons_1_1dsp_1_1_audio_file_player.html" target="_top" xlink:title="A kind of AudioEngine that plays audio from an AudioFile object.">
<polygon fill="none" stroke="black" points="531.5,-537.5 531.5,-567.5 689.5,-567.5 689.5,-537.5 531.5,-537.5"/>
<text text-anchor="start" x="539.5" y="-555.5" font-family="Helvetica,sans-Serif" font-size="10.00">lemons::dsp::AudioFilePlayer</text>
<text text-anchor="middle" x="610.5" y="-544.5" font-family="Helvetica,sans-Serif" font-size="10.00">&lt; SampleType &gt;</text>
</a>
</g>
</g>
<!-- Node10&#45;&gt;Node11 -->
<g id="edge11" class="edge">
<title>Node10&#45;&gt;Node11</title>
<path fill="none" stroke="midnightblue" d="M366.33,-473.43C367.96,-474.71 369.52,-476.06 371,-477.5 388.54,-494.54 369.84,-514.3 389,-529.5 428.5,-560.84 485.31,-566.13 531.38,-563.82"/>
<polygon fill="midnightblue" stroke="midnightblue" points="367.95,-470.3 357.69,-467.68 364.07,-476.13 367.95,-470.3"/>
</g>
<!-- Node12 -->
<g id="node12" class="node">
<title>Node12</title>
<g id="a_node12"><a xlink:href="classlemons_1_1dsp_1_1_engine_chain.html" target="_top" xlink:title="A kind of engine that contains a chain of other Engine objects.">
<polygon fill="none" stroke="black" points="539,-586.5 539,-616.5 682,-616.5 682,-586.5 539,-586.5"/>
<text text-anchor="start" x="547" y="-604.5" font-family="Helvetica,sans-Serif" font-size="10.00">lemons::dsp::EngineChain</text>
<text text-anchor="middle" x="610.5" y="-593.5" font-family="Helvetica,sans-Serif" font-size="10.00">&lt; SampleType &gt;</text>
</a>
</g>
</g>
<!-- Node10&#45;&gt;Node12 -->
<g id="edge12" class="edge">
<title>Node10&#45;&gt;Node12</title>
<path fill="none" stroke="midnightblue" d="M367.18,-473.74C368.52,-474.92 369.79,-476.18 371,-477.5 396.45,-505.38 361.92,-534.21 389,-560.5 428.11,-598.47 490.39,-607.17 538.8,-607.26"/>
<polygon fill="midnightblue" stroke="midnightblue" points="369.06,-470.78 358.95,-467.63 364.89,-476.4 369.06,-470.78"/>
</g>
<!-- Node14 -->
<g id="node14" class="node">
<title>Node14</title>
<g id="a_node14"><a xlink:href="classlemons_1_1dsp_1_1osc_1_1_engine.html" target="_top" xlink:title=" ">
<polygon fill="none" stroke="black" points="534.5,-50 534.5,-91 686.5,-91 686.5,-50 534.5,-50"/>
<text text-anchor="start" x="542.5" y="-79" font-family="Helvetica,sans-Serif" font-size="10.00">lemons::dsp::osc::Engine</text>
<text text-anchor="start" x="542.5" y="-68" font-family="Helvetica,sans-Serif" font-size="10.00">&lt; SampleType, lemons::dsp</text>
<text text-anchor="middle" x="610.5" y="-57" font-family="Helvetica,sans-Serif" font-size="10.00">::osc::Sine &gt;</text>
</a>
</g>
</g>
<!-- Node13&#45;&gt;Node14 -->
<g id="edge14" class="edge">
<title>Node13&#45;&gt;Node14</title>
<path fill="none" stroke="orange" stroke-dasharray="5,2" d="M367.31,-305.54C368.61,-304.27 369.85,-302.93 371,-301.5 401.96,-263.17 353.54,-114.71 389,-80.5 426.51,-44.32 486.39,-43.76 534.3,-51.18"/>
<polygon fill="orange" stroke="orange" points="364.83,-303.03 359.14,-311.97 369.16,-308.53 364.83,-303.03"/>
<text text-anchor="start" x="389" y="-94.5" font-family="Helvetica,sans-Serif" font-size="10.00"> &lt; SampleType, lemons</text>
<text text-anchor="middle" x="447" y="-83.5" font-family="Helvetica,sans-Serif" font-size="10.00">::dsp::osc::Sine &gt;</text>
</g>
<!-- Node15 -->
<g id="node15" class="node">
<title>Node15</title>
<g id="a_node15"><a xlink:href="classlemons_1_1dsp_1_1osc_1_1_engine.html" target="_top" xlink:title=" ">
<polygon fill="none" stroke="black" points="523,-487.5 523,-517.5 698,-517.5 698,-487.5 523,-487.5"/>
<text text-anchor="start" x="531" y="-505.5" font-family="Helvetica,sans-Serif" font-size="10.00">lemons::dsp::osc::Engine</text>
<text text-anchor="middle" x="610.5" y="-494.5" font-family="Helvetica,sans-Serif" font-size="10.00">&lt; float, lemons::dsp::osc::Saw &gt;</text>
</a>
</g>
</g>
<!-- Node13&#45;&gt;Node15 -->
<g id="edge15" class="edge">
<title>Node13&#45;&gt;Node15</title>
<path fill="none" stroke="orange" stroke-dasharray="5,2" d="M332.72,-346C346.59,-354.66 361.04,-365.92 371,-379.5 387.47,-401.95 369.18,-419.94 389,-439.5 408.84,-459.08 472.92,-476.08 526.93,-487.48"/>
<polygon fill="orange" stroke="orange" points="334.14,-342.77 323.75,-340.68 330.57,-348.79 334.14,-342.77"/>
<text text-anchor="start" x="396" y="-495.5" font-family="Helvetica,sans-Serif" font-size="10.00"> &lt; float, lemons::dsp</text>
<text text-anchor="middle" x="447" y="-484.5" font-family="Helvetica,sans-Serif" font-size="10.00">::osc::Saw &gt;</text>
</g>
<!-- Node16 -->
<g id="node16" class="node">
<title>Node16</title>
<g id="a_node16"><a xlink:href="classlemons_1_1dsp_1_1osc_1_1_engine.html" target="_top" xlink:title=" ">
<polygon fill="none" stroke="black" points="534.5,-230 534.5,-271 686.5,-271 686.5,-230 534.5,-230"/>
<text text-anchor="start" x="542.5" y="-259" font-family="Helvetica,sans-Serif" font-size="10.00">lemons::dsp::osc::Engine</text>
<text text-anchor="start" x="542.5" y="-248" font-family="Helvetica,sans-Serif" font-size="10.00">&lt; SampleType, lemons::dsp</text>
<text text-anchor="middle" x="610.5" y="-237" font-family="Helvetica,sans-Serif" font-size="10.00">::osc::Saw &gt;</text>
</a>
</g>
</g>
<!-- Node13&#45;&gt;Node16 -->
<g id="edge16" class="edge">
<title>Node13&#45;&gt;Node16</title>
<path fill="none" stroke="orange" stroke-dasharray="5,2" d="M367.6,-304.59C368.78,-303.61 369.91,-302.58 371,-301.5 390.16,-282.49 367.27,-259.51 389,-243.5 434.79,-209.77 501.65,-217.52 549.73,-229.99"/>
<polygon fill="orange" stroke="orange" points="365.47,-301.82 359.32,-310.45 369.5,-307.54 365.47,-301.82"/>
<text text-anchor="start" x="389" y="-257.5" font-family="Helvetica,sans-Serif" font-size="10.00"> &lt; SampleType, lemons</text>
<text text-anchor="middle" x="447" y="-246.5" font-family="Helvetica,sans-Serif" font-size="10.00">::dsp::osc::Saw &gt;</text>
</g>
<!-- Node17 -->
<g id="node17" class="node">
<title>Node17</title>
<g id="a_node17"><a xlink:href="classlemons_1_1dsp_1_1osc_1_1_engine.html" target="_top" xlink:title=" ">
<polygon fill="none" stroke="black" points="542,-425 542,-466 679,-466 679,-425 542,-425"/>
<text text-anchor="start" x="550" y="-454" font-family="Helvetica,sans-Serif" font-size="10.00">lemons::dsp::osc::Engine</text>
<text text-anchor="start" x="550" y="-443" font-family="Helvetica,sans-Serif" font-size="10.00">&lt; float, lemons::dsp::osc</text>
<text text-anchor="middle" x="610.5" y="-432" font-family="Helvetica,sans-Serif" font-size="10.00">::Square &gt;</text>
</a>
</g>
</g>
<!-- Node13&#45;&gt;Node17 -->
<g id="edge17" class="edge">
<title>Node13&#45;&gt;Node17</title>
<path fill="none" stroke="orange" stroke-dasharray="5,2" d="M328.59,-345.31C346.56,-354.5 368.61,-365.2 389,-373.5 439.17,-393.92 497.49,-412.76 541.54,-426.04"/>
<polygon fill="orange" stroke="orange" points="330.09,-342.14 319.6,-340.66 326.87,-348.36 330.09,-342.14"/>
<text text-anchor="start" x="396" y="-427.5" font-family="Helvetica,sans-Serif" font-size="10.00"> &lt; float, lemons::dsp</text>
<text text-anchor="middle" x="447" y="-416.5" font-family="Helvetica,sans-Serif" font-size="10.00">::osc::Square &gt;</text>
</g>
<!-- Node18 -->
<g id="node18" class="node">
<title>Node18</title>
<g id="a_node18"><a xlink:href="classlemons_1_1dsp_1_1osc_1_1_engine.html" target="_top" xlink:title=" ">
<polygon fill="none" stroke="black" points="534.5,-170 534.5,-211 686.5,-211 686.5,-170 534.5,-170"/>
<text text-anchor="start" x="542.5" y="-199" font-family="Helvetica,sans-Serif" font-size="10.00">lemons::dsp::osc::Engine</text>
<text text-anchor="start" x="542.5" y="-188" font-family="Helvetica,sans-Serif" font-size="10.00">&lt; SampleType, lemons::dsp</text>
<text text-anchor="middle" x="610.5" y="-177" font-family="Helvetica,sans-Serif" font-size="10.00">::osc::Triangle &gt;</text>
</a>
</g>
</g>
<!-- Node13&#45;&gt;Node18 -->
<g id="edge18" class="edge">
<title>Node13&#45;&gt;Node18</title>
<path fill="none" stroke="orange" stroke-dasharray="5,2" d="M367.26,-305.31C368.57,-304.11 369.82,-302.84 371,-301.5 403.4,-264.61 351.7,-224.43 389,-192.5 429.86,-157.52 492.28,-160.33 540.3,-169.99"/>
<polygon fill="orange" stroke="orange" points="365.02,-302.62 359.14,-311.43 369.23,-308.2 365.02,-302.62"/>
<text text-anchor="start" x="389" y="-206.5" font-family="Helvetica,sans-Serif" font-size="10.00"> &lt; SampleType, lemons</text>
<text text-anchor="middle" x="447" y="-195.5" font-family="Helvetica,sans-Serif" font-size="10.00">::dsp::osc::Triangle &gt;</text>
</g>
<!-- Node19 -->
<g id="node19" class="node">
<title>Node19</title>
<g id="a_node19"><a xlink:href="classlemons_1_1dsp_1_1osc_1_1_engine.html" target="_top" xlink:title=" ">
<polygon fill="none" stroke="black" points="542,-292 542,-333 679,-333 679,-292 542,-292"/>
<text text-anchor="start" x="550" y="-321" font-family="Helvetica,sans-Serif" font-size="10.00">lemons::dsp::osc::Engine</text>
<text text-anchor="start" x="550" y="-310" font-family="Helvetica,sans-Serif" font-size="10.00">&lt; float, lemons::dsp::osc</text>
<text text-anchor="middle" x="610.5" y="-299" font-family="Helvetica,sans-Serif" font-size="10.00">::Sine &gt;</text>
</a>
</g>
</g>
<!-- Node13&#45;&gt;Node19 -->
<g id="edge19" class="edge">
<title>Node13&#45;&gt;Node19</title>
<path fill="none" stroke="orange" stroke-dasharray="5,2" d="M362.9,-306.12C365.69,-304.69 368.41,-303.15 371,-301.5 381.1,-295.09 378.08,-286.37 389,-281.5 436.1,-260.53 453.98,-274.09 505,-281.5 520.17,-283.7 536.2,-287.61 551.03,-291.93"/>
<polygon fill="orange" stroke="orange" points="361.34,-302.99 353.74,-310.38 364.29,-309.34 361.34,-302.99"/>
<text text-anchor="start" x="396" y="-295.5" font-family="Helvetica,sans-Serif" font-size="10.00"> &lt; float, lemons::dsp</text>
<text text-anchor="middle" x="447" y="-284.5" font-family="Helvetica,sans-Serif" font-size="10.00">::osc::Sine &gt;</text>
</g>
<!-- Node20 -->
<g id="node20" class="node">
<title>Node20</title>
<g id="a_node20"><a xlink:href="classlemons_1_1dsp_1_1osc_1_1_engine.html" target="_top" xlink:title=" ">
<polygon fill="none" stroke="black" points="534.5,-110 534.5,-151 686.5,-151 686.5,-110 534.5,-110"/>
<text text-anchor="start" x="542.5" y="-139" font-family="Helvetica,sans-Serif" font-size="10.00">lemons::dsp::osc::Engine</text>
<text text-anchor="start" x="542.5" y="-128" font-family="Helvetica,sans-Serif" font-size="10.00">&lt; SampleType, lemons::dsp</text>
<text text-anchor="middle" x="610.5" y="-117" font-family="Helvetica,sans-Serif" font-size="10.00">::osc::Square &gt;</text>
</a>
</g>
</g>
<!-- Node13&#45;&gt;Node20 -->
<g id="edge20" class="edge">
<title>Node13&#45;&gt;Node20</title>
<path fill="none" stroke="orange" stroke-dasharray="5,2" d="M367.26,-305.49C368.58,-304.24 369.83,-302.91 371,-301.5 394.44,-273.3 362.09,-162.4 389,-137.5 427.09,-102.25 486.63,-102.36 534.25,-110.27"/>
<polygon fill="orange" stroke="orange" points="364.78,-302.98 359.01,-311.87 369.06,-308.52 364.78,-302.98"/>
<text text-anchor="start" x="389" y="-151.5" font-family="Helvetica,sans-Serif" font-size="10.00"> &lt; SampleType, lemons</text>
<text text-anchor="middle" x="447" y="-140.5" font-family="Helvetica,sans-Serif" font-size="10.00">::dsp::osc::Square &gt;</text>
</g>
<!-- Node21 -->
<g id="node21" class="node">
<title>Node21</title>
<g id="a_node21"><a xlink:href="classlemons_1_1dsp_1_1osc_1_1_engine.html" target="_top" xlink:title=" ">
<polygon fill="none" stroke="black" points="542,-361 542,-402 679,-402 679,-361 542,-361"/>
<text text-anchor="start" x="550" y="-390" font-family="Helvetica,sans-Serif" font-size="10.00">lemons::dsp::osc::Engine</text>
<text text-anchor="start" x="550" y="-379" font-family="Helvetica,sans-Serif" font-size="10.00">&lt; float, lemons::dsp::osc</text>
<text text-anchor="middle" x="610.5" y="-368" font-family="Helvetica,sans-Serif" font-size="10.00">::Triangle &gt;</text>
</a>
</g>
</g>
<!-- Node13&#45;&gt;Node21 -->
<g id="edge21" class="edge">
<title>Node13&#45;&gt;Node21</title>
<path fill="none" stroke="orange" stroke-dasharray="5,2" d="M369.37,-331.99C410.03,-336.14 460.47,-342.46 505,-351.5 517.67,-354.07 531.04,-357.42 543.83,-360.94"/>
<polygon fill="orange" stroke="orange" points="369.55,-328.49 359.25,-330.99 368.85,-335.46 369.55,-328.49"/>
<text text-anchor="start" x="396" y="-365.5" font-family="Helvetica,sans-Serif" font-size="10.00"> &lt; float, lemons::dsp</text>
<text text-anchor="middle" x="447" y="-354.5" font-family="Helvetica,sans-Serif" font-size="10.00">::osc::Triangle &gt;</text>
</g>
<!-- Node24 -->
<g id="node24" class="node">
<title>Node24</title>
<g id="a_node24"><a xlink:href="structlemons_1_1plugin_1_1_typed_processor_engine.html" target="_top" xlink:title="A ProcessorEngine that instantiates a custom subclass of AudioProcessor and automatically creates a P...">
<polygon fill="none" stroke="black" points="525.5,-0.5 525.5,-30.5 695.5,-30.5 695.5,-0.5 525.5,-0.5"/>
<text text-anchor="start" x="533.5" y="-18.5" font-family="Helvetica,sans-Serif" font-size="10.00">lemons::plugin::TypedProcessor</text>
<text text-anchor="middle" x="610.5" y="-7.5" font-family="Helvetica,sans-Serif" font-size="10.00">Engine&lt; SampleType &gt;</text>
</a>
</g>
</g>
<!-- Node23&#45;&gt;Node24 -->
<g id="edge24" class="edge">
<title>Node23&#45;&gt;Node24</title>
<path fill="none" stroke="midnightblue" d="M369.05,-205.68C369.72,-204.98 370.37,-204.25 371,-203.5 415.5,-150.31 340.78,-98.34 389,-48.5 423.52,-12.82 478.79,-4.61 525.36,-5.3"/>
<polygon fill="midnightblue" stroke="midnightblue" points="366.49,-203.27 361.14,-212.41 371.02,-208.6 366.49,-203.27"/>
</g>
<!-- Node26&#45;&gt;Node15 -->
<g id="edge27" class="edge">
<title>Node26&#45;&gt;Node15</title>
<path fill="none" stroke="midnightblue" d="M357.06,-417.52C362.23,-420.51 367,-424.12 371,-428.5 396.19,-456.03 359.93,-487.12 389,-510.5 409.3,-526.83 470.26,-523.55 522.95,-516.89"/>
<polygon fill="midnightblue" stroke="midnightblue" points="358.55,-414.35 348.03,-413.07 355.45,-420.63 358.55,-414.35"/>
</g>
<!-- Node26&#45;&gt;Node17 -->
<g id="edge29" class="edge">
<title>Node26&#45;&gt;Node17</title>
<path fill="none" stroke="midnightblue" d="M357.34,-418.2C362.35,-421.05 367,-424.45 371,-428.5 390.56,-448.32 366.66,-471.88 389,-488.5 430.36,-519.28 455.09,-501.43 505,-488.5 513.86,-486.2 514.7,-482.36 523,-478.5 532.33,-474.16 542.39,-469.92 552.25,-466.02"/>
<polygon fill="midnightblue" stroke="midnightblue" points="358.53,-414.88 348.01,-413.64 355.46,-421.17 358.53,-414.88"/>
</g>
<!-- Node26&#45;&gt;Node19 -->
<g id="edge28" class="edge">
<title>Node26&#45;&gt;Node19</title>
<path fill="none" stroke="midnightblue" d="M354.49,-385.73C365.96,-382.59 377.82,-379.4 389,-376.5 440.34,-363.2 454.09,-363.38 505,-348.5 520.75,-343.9 537.63,-338.35 553.14,-333.01"/>
<polygon fill="midnightblue" stroke="midnightblue" points="353.26,-382.44 344.55,-388.47 355.12,-389.18 353.26,-382.44"/>
</g>
<!-- Node26&#45;&gt;Node21 -->
<g id="edge30" class="edge">
<title>Node26&#45;&gt;Node21</title>
<path fill="none" stroke="midnightblue" d="M357.97,-416.31C400.31,-422.47 456.18,-426.89 505,-418.5 524.25,-415.19 544.67,-408.69 562.29,-402.05"/>
<polygon fill="midnightblue" stroke="midnightblue" points="358.47,-412.85 348.06,-414.8 357.42,-419.77 358.47,-412.85"/>
</g>
</g>
</svg>
