<?xml version="1.0" encoding="UTF-8" standalone="no"?>
<!DOCTYPE svg PUBLIC "-//W3C//DTD SVG 1.1//EN"
 "http://www.w3.org/Graphics/SVG/1.1/DTD/svg11.dtd">
<!-- Generated by graphviz version 2.43.0 (0)
 -->
<!-- Title: lemons::dsp::Engine&lt; SampleType &gt; Pages: 1 -->
<!--zoomable 745 -->
<svg id="main" version="1.1" xmlns="http://www.w3.org/2000/svg" xmlns:xlink="http://www.w3.org/1999/xlink" xml:space="preserve" onload="init(evt)">
<style type="text/css"><![CDATA[
.edge:hover path { stroke: red; }
.edge:hover polygon { stroke: red; fill: red; }
]]></style>
<script type="text/javascript"><![CDATA[
var edges = document.getElementsByTagName('g');
if (edges && edges.length) {
  for (var i=0;i<edges.length;i++) {
    if (edges[i].id.substr(0,4)=='edge') {
      edges[i].setAttribute('class','edge');
    }
  }
}
]]></script>
        <defs>
                <circle id="rim" cx="0" cy="0" r="7"/>
                <circle id="rim2" cx="0" cy="0" r="3.5"/>
                <g id="zoomPlus">
                        <use xlink:href="#rim" fill="#404040">
                                <set attributeName="fill" to="#808080" begin="zoomplus.mouseover" end="zoomplus.mouseout"/>
                        </use>
                        <path d="M-4,0h8M0,-4v8" fill="none" stroke="white" stroke-width="1.5" pointer-events="none"/>
                </g>
                <g id="zoomMin">
                        <use xlink:href="#rim" fill="#404040">
                                <set attributeName="fill" to="#808080" begin="zoomminus.mouseover" end="zoomminus.mouseout"/>
                        </use>
                        <path d="M-4,0h8" fill="none" stroke="white" stroke-width="1.5" pointer-events="none"/>
                </g>
                <g id="dirArrow">
                        <path fill="none" stroke="white" stroke-width="1.5" d="M0,-3.0v7 M-2.5,-0.5L0,-3.0L2.5,-0.5"/>
                </g>
               <g id="resetDef">
                       <use xlink:href="#rim2" fill="#404040">
                               <set attributeName="fill" to="#808080" begin="reset.mouseover" end="reset.mouseout"/>
                       </use>
               </g>
        </defs>

<script type="text/javascript">
var viewWidth = 901;
var viewHeight = 745;
var sectionId = 'dynsection-0';
</script>
<script xlink:href="svgpan.js"/>
<svg id="graph" class="graph">
<g id="viewport">
<title>lemons::dsp::Engine&lt; SampleType &gt;</title>
<!-- Node1 -->
<g id="node1" class="node">
<title>Node1</title>
<g id="a_node1"><a xlink:title="Base class for an audio engine.">
<polygon fill="#bfbfbf" stroke="black" points="0,-490 0,-520 115,-520 115,-490 0,-490"/>
<text text-anchor="start" x="8" y="-508" font-family="Helvetica,sans-Serif" font-size="10.00">lemons::dsp::Engine</text>
<text text-anchor="middle" x="57.5" y="-497" font-family="Helvetica,sans-Serif" font-size="10.00">&lt; SampleType &gt;</text>
</a>
</g>
</g>
<!-- Node2 -->
<g id="node2" class="node">
<title>Node2</title>
<g id="a_node2"><a xlink:href="classlemons_1_1dsp_1_1_f_x_1_1_effect_engine.html" target="_top" xlink:title=" ">
<polygon fill="none" stroke="black" points="389,-706 389,-736 505,-736 505,-706 389,-706"/>
<text text-anchor="start" x="397" y="-724" font-family="Helvetica,sans-Serif" font-size="10.00">EffectEngine&lt; Filter,</text>
<text text-anchor="middle" x="447" y="-713" font-family="Helvetica,sans-Serif" font-size="10.00"> SampleType &gt;</text>
</a>
</g>
</g>
<!-- Node1&#45;&gt;Node2 -->
<g id="edge1" class="edge">
<title>Node1&#45;&gt;Node2</title>
<path fill="none" stroke="midnightblue" d="M67.77,-529.34C86.5,-574.41 133.7,-669.25 210,-702 267.22,-726.57 339.37,-728.71 388.74,-726.37"/>
<polygon fill="midnightblue" stroke="midnightblue" points="70.99,-527.98 64.01,-520.02 64.5,-530.6 70.99,-527.98"/>
</g>
<!-- Node4 -->
<g id="node4" class="node">
<title>Node4</title>
<g id="a_node4"><a xlink:href="classlemons_1_1dsp_1_1osc_1_1_engine.html" target="_top" xlink:title=" ">
<polygon fill="none" stroke="black" points="221,-613 221,-643 360,-643 360,-613 221,-613"/>
<text text-anchor="start" x="229" y="-631" font-family="Helvetica,sans-Serif" font-size="10.00">Engine&lt; SampleType,</text>
<text text-anchor="middle" x="290.5" y="-620" font-family="Helvetica,sans-Serif" font-size="10.00"> lemons::dsp::osc::Saw &gt;</text>
</a>
</g>
</g>
<!-- Node1&#45;&gt;Node4 -->
<g id="edge3" class="edge">
<title>Node1&#45;&gt;Node4</title>
<path fill="none" stroke="midnightblue" d="M85.62,-526.17C114.9,-548.18 163.6,-582.38 210,-604 217.06,-607.29 224.67,-610.26 232.3,-612.89"/>
<polygon fill="midnightblue" stroke="midnightblue" points="87.62,-523.3 77.54,-520.04 83.38,-528.87 87.62,-523.3"/>
</g>
<!-- Node5 -->
<g id="node5" class="node">
<title>Node5</title>
<g id="a_node5"><a xlink:href="classlemons_1_1dsp_1_1osc_1_1_engine.html" target="_top" xlink:title=" ">
<polygon fill="none" stroke="black" points="220.5,-564 220.5,-594 360.5,-594 360.5,-564 220.5,-564"/>
<text text-anchor="start" x="228.5" y="-582" font-family="Helvetica,sans-Serif" font-size="10.00">Engine&lt; SampleType,</text>
<text text-anchor="middle" x="290.5" y="-571" font-family="Helvetica,sans-Serif" font-size="10.00"> lemons::dsp::osc::Sine &gt;</text>
</a>
</g>
</g>
<!-- Node1&#45;&gt;Node5 -->
<g id="edge4" class="edge">
<title>Node1&#45;&gt;Node5</title>
<path fill="none" stroke="midnightblue" d="M112.84,-523.3C119.63,-525.57 126.47,-527.84 133,-530 167.17,-541.28 175.66,-544.24 210,-555 219.36,-557.93 229.35,-561 238.98,-563.92"/>
<polygon fill="midnightblue" stroke="midnightblue" points="113.59,-519.86 102.99,-520.01 111.37,-526.5 113.59,-519.86"/>
</g>
<!-- Node6 -->
<g id="node6" class="node">
<title>Node6</title>
<g id="a_node6"><a xlink:href="classlemons_1_1dsp_1_1osc_1_1_engine.html" target="_top" xlink:title=" ">
<polygon fill="none" stroke="black" points="214.5,-515 214.5,-545 366.5,-545 366.5,-515 214.5,-515"/>
<text text-anchor="start" x="222.5" y="-533" font-family="Helvetica,sans-Serif" font-size="10.00">Engine&lt; SampleType,</text>
<text text-anchor="middle" x="290.5" y="-522" font-family="Helvetica,sans-Serif" font-size="10.00"> lemons::dsp::osc::Square &gt;</text>
</a>
</g>
</g>
<!-- Node1&#45;&gt;Node6 -->
<g id="edge5" class="edge">
<title>Node1&#45;&gt;Node6</title>
<path fill="none" stroke="midnightblue" d="M125.07,-512.2C152.99,-515.23 185.6,-518.76 214.38,-521.87"/>
<polygon fill="midnightblue" stroke="midnightblue" points="125.33,-508.71 115.01,-511.12 124.57,-515.67 125.33,-508.71"/>
</g>
<!-- Node7 -->
<g id="node7" class="node">
<title>Node7</title>
<g id="a_node7"><a xlink:href="classlemons_1_1dsp_1_1osc_1_1_engine.html" target="_top" xlink:title=" ">
<polygon fill="none" stroke="black" points="212,-466 212,-496 369,-496 369,-466 212,-466"/>
<text text-anchor="start" x="220" y="-484" font-family="Helvetica,sans-Serif" font-size="10.00">Engine&lt; SampleType,</text>
<text text-anchor="middle" x="290.5" y="-473" font-family="Helvetica,sans-Serif" font-size="10.00"> lemons::dsp::osc::Triangle &gt;</text>
</a>
</g>
</g>
<!-- Node1&#45;&gt;Node7 -->
<g id="edge6" class="edge">
<title>Node1&#45;&gt;Node7</title>
<path fill="none" stroke="midnightblue" d="M125.15,-498.08C152.22,-495.26 183.67,-492 211.77,-489.08"/>
<polygon fill="midnightblue" stroke="midnightblue" points="124.59,-494.61 115.01,-499.13 125.32,-501.58 124.59,-494.61"/>
</g>
<!-- Node8 -->
<g id="node8" class="node">
<title>Node8</title>
<g id="a_node8"><a xlink:href="classlemons_1_1dsp_1_1_f_x_1_1_effect_engine.html" target="_top" xlink:title="A class that wraps an AudioEffect into a dsp::Engine.">
<polygon fill="none" stroke="black" points="210,-662 210,-692 371,-692 371,-662 210,-662"/>
<text text-anchor="start" x="218" y="-680" font-family="Helvetica,sans-Serif" font-size="10.00">lemons::dsp::FX::EffectEngine</text>
<text text-anchor="middle" x="290.5" y="-669" font-family="Helvetica,sans-Serif" font-size="10.00">&lt; SampleType &gt;</text>
</a>
</g>
</g>
<!-- Node1&#45;&gt;Node8 -->
<g id="edge7" class="edge">
<title>Node1&#45;&gt;Node8</title>
<path fill="none" stroke="midnightblue" d="M75.18,-528.26C100.39,-561.54 151.49,-622.13 210,-653 216.38,-656.36 223.29,-659.33 230.3,-661.92"/>
<polygon fill="midnightblue" stroke="midnightblue" points="77.84,-525.97 69.06,-520.04 72.22,-530.15 77.84,-525.97"/>
</g>
<!-- Node10 -->
<g id="node10" class="node">
<title>Node10</title>
<g id="a_node10"><a xlink:href="classlemons_1_1dsp_1_1_latency_engine.html" target="_top" xlink:title="Base class for audio engines that require latency (ie, a consistent block size) for their processing.">
<polygon fill="none" stroke="black" points="214,-417 214,-447 367,-447 367,-417 214,-417"/>
<text text-anchor="start" x="222" y="-435" font-family="Helvetica,sans-Serif" font-size="10.00">lemons::dsp::LatencyEngine</text>
<text text-anchor="middle" x="290.5" y="-424" font-family="Helvetica,sans-Serif" font-size="10.00">&lt; SampleType &gt;</text>
</a>
</g>
</g>
<!-- Node1&#45;&gt;Node10 -->
<g id="edge10" class="edge">
<title>Node1&#45;&gt;Node10</title>
<path fill="none" stroke="midnightblue" d="M115.67,-486.86C144.03,-477.86 178.81,-466.84 210,-457 220.21,-453.78 231.16,-450.33 241.57,-447.05"/>
<polygon fill="midnightblue" stroke="midnightblue" points="114.39,-483.59 105.92,-489.95 116.51,-490.26 114.39,-483.59"/>
</g>
<!-- Node12 -->
<g id="node12" class="node">
<title>Node12</title>
<g id="a_node12"><a xlink:href="classlemons_1_1dsp_1_1osc_1_1_engine.html" target="_top" xlink:title="A utility class that wraps an Oscillator into a self&#45;contained dsp::Engine.">
<polygon fill="none" stroke="black" points="222,-239 222,-269 359,-269 359,-239 222,-239"/>
<text text-anchor="start" x="230" y="-257" font-family="Helvetica,sans-Serif" font-size="10.00">lemons::dsp::osc::Engine</text>
<text text-anchor="middle" x="290.5" y="-246" font-family="Helvetica,sans-Serif" font-size="10.00">&lt; SampleType &gt;</text>
</a>
</g>
</g>
<!-- Node1&#45;&gt;Node12 -->
<g id="edge12" class="edge">
<title>Node1&#45;&gt;Node12</title>
<path fill="none" stroke="midnightblue" d="M75.81,-481.67C90.48,-462.28 112.36,-434.21 133,-411 181.6,-356.36 244.27,-296.35 273.35,-269.03"/>
<polygon fill="midnightblue" stroke="midnightblue" points="72.82,-479.83 69.61,-489.92 78.42,-484.03 72.82,-479.83"/>
</g>
<!-- Node21 -->
<g id="node21" class="node">
<title>Node21</title>
<g id="a_node21"><a xlink:href="classlemons_1_1dsp_1_1_engine.html" target="_top" xlink:title=" ">
<polygon fill="none" stroke="black" points="233,-190 233,-220 348,-220 348,-190 233,-190"/>
<text text-anchor="start" x="241" y="-208" font-family="Helvetica,sans-Serif" font-size="10.00">lemons::dsp::Engine</text>
<text text-anchor="middle" x="290.5" y="-197" font-family="Helvetica,sans-Serif" font-size="10.00">&lt; double &gt;</text>
</a>
</g>
</g>
<!-- Node1&#45;&gt;Node21 -->
<g id="edge21" class="edge">
<title>Node1&#45;&gt;Node21</title>
<path fill="none" stroke="orange" stroke-dasharray="5,2" d="M64.48,-479.68C78.96,-424.4 121.42,-292.81 210,-230 216.85,-225.15 224.67,-221.21 232.68,-218.02"/>
<polygon fill="orange" stroke="orange" points="61.01,-479.13 61.95,-489.68 67.8,-480.84 61.01,-479.13"/>
<text text-anchor="middle" x="162.5" y="-313" font-family="Helvetica,sans-Serif" font-size="10.00"> &lt; double &gt;</text>
</g>
<!-- Node22 -->
<g id="node22" class="node">
<title>Node22</title>
<g id="a_node22"><a xlink:href="classlemons_1_1dsp_1_1_engine.html" target="_top" xlink:title=" ">
<polygon fill="none" stroke="black" points="233,-368 233,-398 348,-398 348,-368 233,-368"/>
<text text-anchor="start" x="241" y="-386" font-family="Helvetica,sans-Serif" font-size="10.00">lemons::dsp::Engine</text>
<text text-anchor="middle" x="290.5" y="-375" font-family="Helvetica,sans-Serif" font-size="10.00">&lt; float &gt;</text>
</a>
</g>
</g>
<!-- Node1&#45;&gt;Node22 -->
<g id="edge22" class="edge">
<title>Node1&#45;&gt;Node22</title>
<path fill="none" stroke="orange" stroke-dasharray="5,2" d="M84.68,-483.18C98.6,-472.04 116.27,-458.63 133,-448 165.55,-427.32 174.36,-422.73 210,-408 218.56,-404.46 227.81,-401.13 236.86,-398.13"/>
<polygon fill="orange" stroke="orange" points="82.1,-480.77 76.53,-489.78 86.5,-486.21 82.1,-480.77"/>
<text text-anchor="middle" x="162.5" y="-451" font-family="Helvetica,sans-Serif" font-size="10.00"> &lt; float &gt;</text>
</g>
<!-- Node3 -->
<g id="node3" class="node">
<title>Node3</title>
<g id="a_node3"><a xlink:href="structlemons_1_1dsp_1_1_f_x_1_1_filter_engine.html" target="_top" xlink:title="A class that represents an audio engine holding a filter effect.">
<polygon fill="none" stroke="black" points="735,-684 735,-714 893,-714 893,-684 735,-684"/>
<text text-anchor="start" x="743" y="-702" font-family="Helvetica,sans-Serif" font-size="10.00">lemons::dsp::FX::FilterEngine</text>
<text text-anchor="middle" x="814" y="-691" font-family="Helvetica,sans-Serif" font-size="10.00">&lt; SampleType &gt;</text>
</a>
</g>
</g>
<!-- Node2&#45;&gt;Node3 -->
<g id="edge2" class="edge">
<title>Node2&#45;&gt;Node3</title>
<path fill="none" stroke="midnightblue" d="M515.1,-716.96C577.13,-713.22 669.33,-707.66 734.7,-703.72"/>
<polygon fill="midnightblue" stroke="midnightblue" points="514.8,-713.47 505.03,-717.56 515.22,-720.45 514.8,-713.47"/>
</g>
<!-- Node9 -->
<g id="node9" class="node">
<title>Node9</title>
<g id="a_node9"><a xlink:href="classlemons_1_1dsp_1_1_f_x_1_1_effect_engine.html" target="_top" xlink:title=" ">
<polygon fill="none" stroke="black" points="530,-662 530,-692 691,-692 691,-662 530,-662"/>
<text text-anchor="start" x="538" y="-680" font-family="Helvetica,sans-Serif" font-size="10.00">lemons::dsp::FX::EffectEngine</text>
<text text-anchor="middle" x="610.5" y="-669" font-family="Helvetica,sans-Serif" font-size="10.00">&lt; Filter, SampleType &gt;</text>
</a>
</g>
</g>
<!-- Node8&#45;&gt;Node9 -->
<g id="edge8" class="edge">
<title>Node8&#45;&gt;Node9</title>
<path fill="none" stroke="orange" stroke-dasharray="5,2" d="M381.45,-677C428.18,-677 484.79,-677 529.91,-677"/>
<polygon fill="orange" stroke="orange" points="381.33,-673.5 371.33,-677 381.33,-680.5 381.33,-673.5"/>
<text text-anchor="middle" x="447" y="-680" font-family="Helvetica,sans-Serif" font-size="10.00"> &lt; Filter, SampleType &gt;</text>
</g>
<!-- Node9&#45;&gt;Node3 -->
<g id="edge9" class="edge">
<title>Node9&#45;&gt;Node3</title>
<path fill="none" stroke="midnightblue" d="M701.35,-686.81C712.55,-688.03 723.93,-689.28 734.93,-690.48"/>
<polygon fill="midnightblue" stroke="midnightblue" points="701.46,-683.3 691.14,-685.69 700.7,-690.26 701.46,-683.3"/>
</g>
<!-- Node11 -->
<g id="node11" class="node">
<title>Node11</title>
<g id="a_node11"><a xlink:href="classlemons_1_1dsp_1_1_audio_file_player.html" target="_top" xlink:title=" ">
<polygon fill="none" stroke="black" points="531.5,-488 531.5,-518 689.5,-518 689.5,-488 531.5,-488"/>
<text text-anchor="start" x="539.5" y="-506" font-family="Helvetica,sans-Serif" font-size="10.00">lemons::dsp::AudioFilePlayer</text>
<text text-anchor="middle" x="610.5" y="-495" font-family="Helvetica,sans-Serif" font-size="10.00">&lt; SampleType &gt;</text>
</a>
</g>
</g>
<!-- Node10&#45;&gt;Node11 -->
<g id="edge11" class="edge">
<title>Node10&#45;&gt;Node11</title>
<path fill="none" stroke="midnightblue" d="M363.3,-451.74C365.98,-453.36 368.56,-455.11 371,-457 382.98,-466.3 376.04,-478.12 389,-486 431.16,-511.62 486.55,-515.81 531.27,-513.62"/>
<polygon fill="midnightblue" stroke="midnightblue" points="364.89,-448.62 354.41,-447.01 361.59,-454.8 364.89,-448.62"/>
</g>
<!-- Node13 -->
<g id="node13" class="node">
<title>Node13</title>
<g id="a_node13"><a xlink:href="classlemons_1_1dsp_1_1osc_1_1_engine.html" target="_top" xlink:title=" ">
<polygon fill="none" stroke="black" points="534.5,-180.5 534.5,-221.5 686.5,-221.5 686.5,-180.5 534.5,-180.5"/>
<text text-anchor="start" x="542.5" y="-209.5" font-family="Helvetica,sans-Serif" font-size="10.00">lemons::dsp::osc::Engine</text>
<text text-anchor="start" x="542.5" y="-198.5" font-family="Helvetica,sans-Serif" font-size="10.00">&lt; SampleType, lemons::dsp</text>
<text text-anchor="middle" x="610.5" y="-187.5" font-family="Helvetica,sans-Serif" font-size="10.00">::osc::Sine &gt;</text>
</a>
</g>
</g>
<!-- Node12&#45;&gt;Node13 -->
<g id="edge13" class="edge">
<title>Node12&#45;&gt;Node13</title>
<path fill="none" stroke="orange" stroke-dasharray="5,2" d="M365.34,-233.93C367.29,-232.7 369.19,-231.39 371,-230 383.04,-220.77 375.74,-208.37 389,-201 432.82,-176.62 489.54,-177.19 534.47,-183.56"/>
<polygon fill="orange" stroke="orange" points="363.46,-230.97 356.41,-238.88 366.85,-237.1 363.46,-230.97"/>
<text text-anchor="start" x="389" y="-215" font-family="Helvetica,sans-Serif" font-size="10.00"> &lt; SampleType, lemons</text>
<text text-anchor="middle" x="447" y="-204" font-family="Helvetica,sans-Serif" font-size="10.00">::dsp::osc::Sine &gt;</text>
</g>
<!-- Node14 -->
<g id="node14" class="node">
<title>Node14</title>
<g id="a_node14"><a xlink:href="classlemons_1_1dsp_1_1osc_1_1_engine.html" target="_top" xlink:title=" ">
<polygon fill="none" stroke="black" points="523,-311 523,-341 698,-341 698,-311 523,-311"/>
<text text-anchor="start" x="531" y="-329" font-family="Helvetica,sans-Serif" font-size="10.00">lemons::dsp::osc::Engine</text>
<text text-anchor="middle" x="610.5" y="-318" font-family="Helvetica,sans-Serif" font-size="10.00">&lt; float, lemons::dsp::osc::Saw &gt;</text>
</a>
</g>
</g>
<!-- Node12&#45;&gt;Node14 -->
<g id="edge14" class="edge">
<title>Node12&#45;&gt;Node14</title>
<path fill="none" stroke="orange" stroke-dasharray="5,2" d="M368.65,-271.26C409.24,-280.36 459.82,-291.73 505,-302 517.71,-304.89 531.28,-307.99 544.29,-310.97"/>
<polygon fill="orange" stroke="orange" points="369.35,-267.83 358.83,-269.05 367.82,-274.66 369.35,-267.83"/>
<text text-anchor="start" x="396" y="-316" font-family="Helvetica,sans-Serif" font-size="10.00"> &lt; float, lemons::dsp</text>
<text text-anchor="middle" x="447" y="-305" font-family="Helvetica,sans-Serif" font-size="10.00">::osc::Saw &gt;</text>
</g>
<!-- Node15 -->
<g id="node15" class="node">
<title>Node15</title>
<g id="a_node15"><a xlink:href="classlemons_1_1dsp_1_1osc_1_1_engine.html" target="_top" xlink:title=" ">
<polygon fill="none" stroke="black" points="534.5,-120.5 534.5,-161.5 686.5,-161.5 686.5,-120.5 534.5,-120.5"/>
<text text-anchor="start" x="542.5" y="-149.5" font-family="Helvetica,sans-Serif" font-size="10.00">lemons::dsp::osc::Engine</text>
<text text-anchor="start" x="542.5" y="-138.5" font-family="Helvetica,sans-Serif" font-size="10.00">&lt; SampleType, lemons::dsp</text>
<text text-anchor="middle" x="610.5" y="-127.5" font-family="Helvetica,sans-Serif" font-size="10.00">::osc::Saw &gt;</text>
</a>
</g>
</g>
<!-- Node12&#45;&gt;Node15 -->
<g id="edge15" class="edge">
<title>Node12&#45;&gt;Node15</title>
<path fill="none" stroke="orange" stroke-dasharray="5,2" d="M367.61,-233.28C368.79,-232.24 369.92,-231.15 371,-230 394.79,-204.72 362.42,-176.32 389,-154 428.5,-120.83 487.36,-118.93 534.33,-124.59"/>
<polygon fill="orange" stroke="orange" points="365.21,-230.7 359.22,-239.44 369.35,-236.35 365.21,-230.7"/>
<text text-anchor="start" x="389" y="-168" font-family="Helvetica,sans-Serif" font-size="10.00"> &lt; SampleType, lemons</text>
<text text-anchor="middle" x="447" y="-157" font-family="Helvetica,sans-Serif" font-size="10.00">::dsp::osc::Saw &gt;</text>
</g>
<!-- Node16 -->
<g id="node16" class="node">
<title>Node16</title>
<g id="a_node16"><a xlink:href="classlemons_1_1dsp_1_1osc_1_1_engine.html" target="_top" xlink:title=" ">
<polygon fill="none" stroke="black" points="542,-242.5 542,-283.5 679,-283.5 679,-242.5 542,-242.5"/>
<text text-anchor="start" x="550" y="-271.5" font-family="Helvetica,sans-Serif" font-size="10.00">lemons::dsp::osc::Engine</text>
<text text-anchor="start" x="550" y="-260.5" font-family="Helvetica,sans-Serif" font-size="10.00">&lt; float, lemons::dsp::osc</text>
<text text-anchor="middle" x="610.5" y="-249.5" font-family="Helvetica,sans-Serif" font-size="10.00">::Square &gt;</text>
</a>
</g>
</g>
<!-- Node12&#45;&gt;Node16 -->
<g id="edge16" class="edge">
<title>Node12&#45;&gt;Node16</title>
<path fill="none" stroke="orange" stroke-dasharray="5,2" d="M358.43,-236.85C368.61,-234.84 379.04,-233.11 389,-232 440.24,-226.29 453.98,-224.59 505,-232 520.17,-234.2 536.2,-238.11 551.03,-242.43"/>
<polygon fill="orange" stroke="orange" points="357.44,-233.48 348.37,-238.94 358.87,-240.33 357.44,-233.48"/>
<text text-anchor="start" x="396" y="-246" font-family="Helvetica,sans-Serif" font-size="10.00"> &lt; float, lemons::dsp</text>
<text text-anchor="middle" x="447" y="-235" font-family="Helvetica,sans-Serif" font-size="10.00">::osc::Square &gt;</text>
</g>
<!-- Node17 -->
<g id="node17" class="node">
<title>Node17</title>
<g id="a_node17"><a xlink:href="classlemons_1_1dsp_1_1osc_1_1_engine.html" target="_top" xlink:title=" ">
<polygon fill="none" stroke="black" points="534.5,-60.5 534.5,-101.5 686.5,-101.5 686.5,-60.5 534.5,-60.5"/>
<text text-anchor="start" x="542.5" y="-89.5" font-family="Helvetica,sans-Serif" font-size="10.00">lemons::dsp::osc::Engine</text>
<text text-anchor="start" x="542.5" y="-78.5" font-family="Helvetica,sans-Serif" font-size="10.00">&lt; SampleType, lemons::dsp</text>
<text text-anchor="middle" x="610.5" y="-67.5" font-family="Helvetica,sans-Serif" font-size="10.00">::osc::Triangle &gt;</text>
</a>
</g>
</g>
<!-- Node12&#45;&gt;Node17 -->
<g id="edge17" class="edge">
<title>Node12&#45;&gt;Node17</title>
<path fill="none" stroke="orange" stroke-dasharray="5,2" d="M367.32,-233.85C368.61,-232.64 369.84,-231.36 371,-230 409.7,-184.61 345.53,-137.85 389,-97 426.97,-61.32 486.67,-58.98 534.38,-64.66"/>
<polygon fill="orange" stroke="orange" points="365.06,-231.17 359.26,-240.04 369.33,-236.72 365.06,-231.17"/>
<text text-anchor="start" x="389" y="-111" font-family="Helvetica,sans-Serif" font-size="10.00"> &lt; SampleType, lemons</text>
<text text-anchor="middle" x="447" y="-100" font-family="Helvetica,sans-Serif" font-size="10.00">::dsp::osc::Triangle &gt;</text>
</g>
<!-- Node18 -->
<g id="node18" class="node">
<title>Node18</title>
<g id="a_node18"><a xlink:href="classlemons_1_1dsp_1_1osc_1_1_engine.html" target="_top" xlink:title=" ">
<polygon fill="none" stroke="black" points="542,-364.5 542,-405.5 679,-405.5 679,-364.5 542,-364.5"/>
<text text-anchor="start" x="550" y="-393.5" font-family="Helvetica,sans-Serif" font-size="10.00">lemons::dsp::osc::Engine</text>
<text text-anchor="start" x="550" y="-382.5" font-family="Helvetica,sans-Serif" font-size="10.00">&lt; float, lemons::dsp::osc</text>
<text text-anchor="middle" x="610.5" y="-371.5" font-family="Helvetica,sans-Serif" font-size="10.00">::Sine &gt;</text>
</a>
</g>
</g>
<!-- Node12&#45;&gt;Node18 -->
<g id="edge18" class="edge">
<title>Node12&#45;&gt;Node18</title>
<path fill="none" stroke="orange" stroke-dasharray="5,2" d="M316.41,-275.69C335.23,-291.09 362.31,-311.23 389,-324 437.73,-347.31 496.91,-363.07 541.69,-372.72"/>
<polygon fill="orange" stroke="orange" points="318.55,-272.91 308.62,-269.2 314.06,-278.29 318.55,-272.91"/>
<text text-anchor="start" x="396" y="-376" font-family="Helvetica,sans-Serif" font-size="10.00"> &lt; float, lemons::dsp</text>
<text text-anchor="middle" x="447" y="-365" font-family="Helvetica,sans-Serif" font-size="10.00">::osc::Sine &gt;</text>
</g>
<!-- Node19 -->
<g id="node19" class="node">
<title>Node19</title>
<g id="a_node19"><a xlink:href="classlemons_1_1dsp_1_1osc_1_1_engine.html" target="_top" xlink:title=" ">
<polygon fill="none" stroke="black" points="534.5,-0.5 534.5,-41.5 686.5,-41.5 686.5,-0.5 534.5,-0.5"/>
<text text-anchor="start" x="542.5" y="-29.5" font-family="Helvetica,sans-Serif" font-size="10.00">lemons::dsp::osc::Engine</text>
<text text-anchor="start" x="542.5" y="-18.5" font-family="Helvetica,sans-Serif" font-size="10.00">&lt; SampleType, lemons::dsp</text>
<text text-anchor="middle" x="610.5" y="-7.5" font-family="Helvetica,sans-Serif" font-size="10.00">::osc::Square &gt;</text>
</a>
</g>
</g>
<!-- Node12&#45;&gt;Node19 -->
<g id="edge19" class="edge">
<title>Node12&#45;&gt;Node19</title>
<path fill="none" stroke="orange" stroke-dasharray="5,2" d="M367.29,-234.02C368.6,-232.76 369.84,-231.42 371,-230 398.26,-196.65 358.23,-67.14 389,-37 426.36,-0.4 486.41,1.77 534.42,-4.2"/>
<polygon fill="orange" stroke="orange" points="364.81,-231.51 359.09,-240.43 369.12,-237.03 364.81,-231.51"/>
<text text-anchor="start" x="389" y="-51" font-family="Helvetica,sans-Serif" font-size="10.00"> &lt; SampleType, lemons</text>
<text text-anchor="middle" x="447" y="-40" font-family="Helvetica,sans-Serif" font-size="10.00">::dsp::osc::Square &gt;</text>
</g>
<!-- Node20 -->
<g id="node20" class="node">
<title>Node20</title>
<g id="a_node20"><a xlink:href="classlemons_1_1dsp_1_1osc_1_1_engine.html" target="_top" xlink:title=" ">
<polygon fill="none" stroke="black" points="542,-426.5 542,-467.5 679,-467.5 679,-426.5 542,-426.5"/>
<text text-anchor="start" x="550" y="-455.5" font-family="Helvetica,sans-Serif" font-size="10.00">lemons::dsp::osc::Engine</text>
<text text-anchor="start" x="550" y="-444.5" font-family="Helvetica,sans-Serif" font-size="10.00">&lt; float, lemons::dsp::osc</text>
<text text-anchor="middle" x="610.5" y="-433.5" font-family="Helvetica,sans-Serif" font-size="10.00">::Triangle &gt;</text>
</a>
</g>
</g>
<!-- Node12&#45;&gt;Node20 -->
<g id="edge20" class="edge">
<title>Node12&#45;&gt;Node20</title>
<path fill="none" stroke="orange" stroke-dasharray="5,2" d="M310.16,-277.34C326.69,-298.32 351.2,-330.18 371,-359 379.59,-371.5 376.82,-378.96 389,-388 413.19,-405.95 486.39,-423.38 541.87,-434.59"/>
<polygon fill="orange" stroke="orange" points="312.76,-274.99 303.81,-269.32 307.27,-279.34 312.76,-274.99"/>
<text text-anchor="start" x="396" y="-440" font-family="Helvetica,sans-Serif" font-size="10.00"> &lt; float, lemons::dsp</text>
<text text-anchor="middle" x="447" y="-429" font-family="Helvetica,sans-Serif" font-size="10.00">::osc::Triangle &gt;</text>
</g>
<!-- Node22&#45;&gt;Node14 -->
<g id="edge23" class="edge">
<title>Node22&#45;&gt;Node14</title>
<path fill="none" stroke="midnightblue" d="M358.37,-388.52C401.57,-389.72 458.23,-386.78 505,-369 514.47,-365.4 514.07,-359.79 523,-355 533.05,-349.61 544.29,-344.96 555.25,-341.06"/>
<polygon fill="midnightblue" stroke="midnightblue" points="358.38,-385.02 348.26,-388.16 358.12,-392.02 358.38,-385.02"/>
</g>
<!-- Node22&#45;&gt;Node16 -->
<g id="edge25" class="edge">
<title>Node22&#45;&gt;Node16</title>
<path fill="none" stroke="midnightblue" d="M322.08,-362.42C340.74,-350.63 365.47,-336.37 389,-327 438.27,-307.37 454.09,-313.88 505,-299 520.75,-294.4 537.63,-288.85 553.14,-283.51"/>
<polygon fill="midnightblue" stroke="midnightblue" points="319.95,-359.62 313.43,-367.97 323.74,-365.51 319.95,-359.62"/>
</g>
<!-- Node22&#45;&gt;Node18 -->
<g id="edge24" class="edge">
<title>Node22&#45;&gt;Node18</title>
<path fill="none" stroke="midnightblue" d="M357.12,-399.14C362.06,-401.68 366.76,-404.61 371,-408 383.44,-417.95 375.19,-431.05 389,-439 433.68,-464.72 458.41,-461.08 505,-439 516.42,-433.59 512.72,-424.34 523,-417 529,-412.72 535.63,-408.95 542.48,-405.64"/>
<polygon fill="midnightblue" stroke="midnightblue" points="358.58,-395.96 348.02,-394.99 355.67,-402.32 358.58,-395.96"/>
</g>
<!-- Node22&#45;&gt;Node20 -->
<g id="edge26" class="edge">
<title>Node22&#45;&gt;Node20</title>
<path fill="none" stroke="midnightblue" d="M357.42,-397.99C362.37,-400.78 366.99,-404.08 371,-408 388.79,-425.39 368.78,-446.51 389,-461 437.8,-495.96 509.34,-482.95 557.58,-467.55"/>
<polygon fill="midnightblue" stroke="midnightblue" points="358.74,-394.74 348.22,-393.51 355.68,-401.03 358.74,-394.74"/>
</g>
</g>
</svg>
        <g id="navigator" transform="translate(0 0)" fill="#404254">
                <rect fill="#f2f5e9" fill-opacity="0.5" stroke="#606060" stroke-width=".5" x="0" y="0" width="60" height="60"/>
                <use id="zoomplus" xlink:href="#zoomPlus" x="17" y="9" onmousedown="handleZoom(evt,'in')"/>
                <use id="zoomminus" xlink:href="#zoomMin" x="42" y="9" onmousedown="handleZoom(evt,'out')"/>
                <use id="reset" xlink:href="#resetDef" x="30" y="36" onmousedown="handleReset()"/>
                <g id="arrowUp" xlink:href="#dirArrow" transform="translate(30 24)" onmousedown="handlePan(0,-1)">
                  <use xlink:href="#rim" fill="#404040">
                        <set attributeName="fill" to="#808080" begin="arrowUp.mouseover" end="arrowUp.mouseout"/>
                  </use>
                  <path fill="none" stroke="white" stroke-width="1.5" d="M0,-3.0v7 M-2.5,-0.5L0,-3.0L2.5,-0.5"/>
                </g>
                <g id="arrowRight" xlink:href="#dirArrow" transform="rotate(90) translate(36 -43)" onmousedown="handlePan(1,0)">
                  <use xlink:href="#rim" fill="#404040">
                        <set attributeName="fill" to="#808080" begin="arrowRight.mouseover" end="arrowRight.mouseout"/>
                  </use>
                  <path fill="none" stroke="white" stroke-width="1.5" d="M0,-3.0v7 M-2.5,-0.5L0,-3.0L2.5,-0.5"/>
                </g>
                <g id="arrowDown" xlink:href="#dirArrow" transform="rotate(180) translate(-30 -48)" onmousedown="handlePan(0,1)">
                  <use xlink:href="#rim" fill="#404040">
                        <set attributeName="fill" to="#808080" begin="arrowDown.mouseover" end="arrowDown.mouseout"/>
                  </use>
                  <path fill="none" stroke="white" stroke-width="1.5" d="M0,-3.0v7 M-2.5,-0.5L0,-3.0L2.5,-0.5"/>
                </g>
                <g id="arrowLeft" xlink:href="#dirArrow" transform="rotate(270) translate(-36 17)" onmousedown="handlePan(-1,0)">
                  <use xlink:href="#rim" fill="#404040">
                        <set attributeName="fill" to="#808080" begin="arrowLeft.mouseover" end="arrowLeft.mouseout"/>
                  </use>
                  <path fill="none" stroke="white" stroke-width="1.5" d="M0,-3.0v7 M-2.5,-0.5L0,-3.0L2.5,-0.5"/>
                </g>
        </g>
        <svg viewBox="0 0 15 15" width="100%" height="30px" preserveAspectRatio="xMaxYMin meet">
         <g id="arrow_out" transform="scale(0.3 0.3)">
          <a xlink:href="classlemons_1_1dsp_1_1_engine__inherit__graph_org.svg" target="_base">
           <rect id="button" ry="5" rx="5" y="6" x="6" height="38" width="38"
                fill="#f2f5e9" fill-opacity="0.5" stroke="#606060" stroke-width="1.0"/>
           <path id="arrow"
             d="M 11.500037,31.436501 C 11.940474,20.09759 22.043105,11.32322 32.158766,21.979434 L 37.068811,17.246167 C 37.068811,17.246167 37.088388,32 37.088388,32 L 22.160133,31.978069 C 22.160133,31.978069 26.997745,27.140456 26.997745,27.140456 C 18.528582,18.264221 13.291696,25.230495 11.500037,31.436501 z"
             style="fill:#404040;"/>
          </a>
         </g>
        </svg>
</svg>
