<?xml version="1.0" encoding="UTF-8" standalone="no"?>
<!DOCTYPE svg PUBLIC "-//W3C//DTD SVG 1.1//EN"
 "http://www.w3.org/Graphics/SVG/1.1/DTD/svg11.dtd">
<!-- Generated by graphviz version 2.43.0 (0)
 -->
<!-- Title: lemons::dsp::Engine&lt; SampleType &gt; Pages: 1 -->
<svg width="901pt" height="689pt"
 viewBox="0.00 0.00 901.00 688.50" xmlns="http://www.w3.org/2000/svg" xmlns:xlink="http://www.w3.org/1999/xlink">
<g id="graph0" class="graph" transform="scale(1 1) rotate(0) translate(4 684.5)">
<title>lemons::dsp::Engine&lt; SampleType &gt;</title>
<!-- Node1 -->
<g id="node1" class="node">
<title>Node1</title>
<g id="a_node1"><a xlink:title="Base class for an audio engine.">
<polygon fill="#bfbfbf" stroke="black" points="0,-434 0,-464 115,-464 115,-434 0,-434"/>
<text text-anchor="start" x="8" y="-452" font-family="Helvetica,sans-Serif" font-size="10.00">lemons::dsp::Engine</text>
<text text-anchor="middle" x="57.5" y="-441" font-family="Helvetica,sans-Serif" font-size="10.00">&lt; SampleType &gt;</text>
</a>
</g>
</g>
<!-- Node2 -->
<g id="node2" class="node">
<title>Node2</title>
<g id="a_node2"><a xlink:href="classlemons_1_1dsp_1_1_f_x_1_1_effect_engine.html" target="_top" xlink:title=" ">
<polygon fill="none" stroke="black" points="389,-650 389,-680 505,-680 505,-650 389,-650"/>
<text text-anchor="start" x="397" y="-668" font-family="Helvetica,sans-Serif" font-size="10.00">EffectEngine&lt; Filter,</text>
<text text-anchor="middle" x="447" y="-657" font-family="Helvetica,sans-Serif" font-size="10.00"> SampleType &gt;</text>
</a>
</g>
</g>
<!-- Node1&#45;&gt;Node2 -->
<g id="edge1" class="edge">
<title>Node1&#45;&gt;Node2</title>
<path fill="none" stroke="midnightblue" d="M67.77,-473.34C86.5,-518.41 133.7,-613.25 210,-646 267.22,-670.57 339.37,-672.71 388.74,-670.37"/>
<polygon fill="midnightblue" stroke="midnightblue" points="70.99,-471.98 64.01,-464.02 64.5,-474.6 70.99,-471.98"/>
</g>
<!-- Node4 -->
<g id="node4" class="node">
<title>Node4</title>
<g id="a_node4"><a xlink:href="classlemons_1_1dsp_1_1osc_1_1_engine.html" target="_top" xlink:title=" ">
<polygon fill="none" stroke="black" points="221,-557 221,-587 360,-587 360,-557 221,-557"/>
<text text-anchor="start" x="229" y="-575" font-family="Helvetica,sans-Serif" font-size="10.00">Engine&lt; SampleType,</text>
<text text-anchor="middle" x="290.5" y="-564" font-family="Helvetica,sans-Serif" font-size="10.00"> lemons::dsp::osc::Saw &gt;</text>
</a>
</g>
</g>
<!-- Node1&#45;&gt;Node4 -->
<g id="edge3" class="edge">
<title>Node1&#45;&gt;Node4</title>
<path fill="none" stroke="midnightblue" d="M85.62,-470.17C114.9,-492.18 163.6,-526.38 210,-548 217.06,-551.29 224.67,-554.26 232.3,-556.89"/>
<polygon fill="midnightblue" stroke="midnightblue" points="87.62,-467.3 77.54,-464.04 83.38,-472.87 87.62,-467.3"/>
</g>
<!-- Node5 -->
<g id="node5" class="node">
<title>Node5</title>
<g id="a_node5"><a xlink:href="classlemons_1_1dsp_1_1osc_1_1_engine.html" target="_top" xlink:title=" ">
<polygon fill="none" stroke="black" points="220.5,-508 220.5,-538 360.5,-538 360.5,-508 220.5,-508"/>
<text text-anchor="start" x="228.5" y="-526" font-family="Helvetica,sans-Serif" font-size="10.00">Engine&lt; SampleType,</text>
<text text-anchor="middle" x="290.5" y="-515" font-family="Helvetica,sans-Serif" font-size="10.00"> lemons::dsp::osc::Sine &gt;</text>
</a>
</g>
</g>
<!-- Node1&#45;&gt;Node5 -->
<g id="edge4" class="edge">
<title>Node1&#45;&gt;Node5</title>
<path fill="none" stroke="midnightblue" d="M112.84,-467.3C119.63,-469.57 126.47,-471.84 133,-474 167.17,-485.28 175.66,-488.24 210,-499 219.36,-501.93 229.35,-505 238.98,-507.92"/>
<polygon fill="midnightblue" stroke="midnightblue" points="113.59,-463.86 102.99,-464.01 111.37,-470.5 113.59,-463.86"/>
</g>
<!-- Node6 -->
<g id="node6" class="node">
<title>Node6</title>
<g id="a_node6"><a xlink:href="classlemons_1_1dsp_1_1osc_1_1_engine.html" target="_top" xlink:title=" ">
<polygon fill="none" stroke="black" points="214.5,-459 214.5,-489 366.5,-489 366.5,-459 214.5,-459"/>
<text text-anchor="start" x="222.5" y="-477" font-family="Helvetica,sans-Serif" font-size="10.00">Engine&lt; SampleType,</text>
<text text-anchor="middle" x="290.5" y="-466" font-family="Helvetica,sans-Serif" font-size="10.00"> lemons::dsp::osc::Square &gt;</text>
</a>
</g>
</g>
<!-- Node1&#45;&gt;Node6 -->
<g id="edge5" class="edge">
<title>Node1&#45;&gt;Node6</title>
<path fill="none" stroke="midnightblue" d="M125.07,-456.2C152.99,-459.23 185.6,-462.76 214.38,-465.87"/>
<polygon fill="midnightblue" stroke="midnightblue" points="125.33,-452.71 115.01,-455.12 124.57,-459.67 125.33,-452.71"/>
</g>
<!-- Node7 -->
<g id="node7" class="node">
<title>Node7</title>
<g id="a_node7"><a xlink:href="classlemons_1_1dsp_1_1osc_1_1_engine.html" target="_top" xlink:title=" ">
<polygon fill="none" stroke="black" points="212,-410 212,-440 369,-440 369,-410 212,-410"/>
<text text-anchor="start" x="220" y="-428" font-family="Helvetica,sans-Serif" font-size="10.00">Engine&lt; SampleType,</text>
<text text-anchor="middle" x="290.5" y="-417" font-family="Helvetica,sans-Serif" font-size="10.00"> lemons::dsp::osc::Triangle &gt;</text>
</a>
</g>
</g>
<!-- Node1&#45;&gt;Node7 -->
<g id="edge6" class="edge">
<title>Node1&#45;&gt;Node7</title>
<path fill="none" stroke="midnightblue" d="M125.15,-442.08C152.22,-439.26 183.67,-436 211.77,-433.08"/>
<polygon fill="midnightblue" stroke="midnightblue" points="124.59,-438.61 115.01,-443.13 125.32,-445.58 124.59,-438.61"/>
</g>
<!-- Node8 -->
<g id="node8" class="node">
<title>Node8</title>
<g id="a_node8"><a xlink:href="classlemons_1_1dsp_1_1_f_x_1_1_effect_engine.html" target="_top" xlink:title="A class that wraps an AudioEffect into a dsp::Engine.">
<polygon fill="none" stroke="black" points="210,-606 210,-636 371,-636 371,-606 210,-606"/>
<text text-anchor="start" x="218" y="-624" font-family="Helvetica,sans-Serif" font-size="10.00">lemons::dsp::FX::EffectEngine</text>
<text text-anchor="middle" x="290.5" y="-613" font-family="Helvetica,sans-Serif" font-size="10.00">&lt; SampleType &gt;</text>
</a>
</g>
</g>
<!-- Node1&#45;&gt;Node8 -->
<g id="edge7" class="edge">
<title>Node1&#45;&gt;Node8</title>
<path fill="none" stroke="midnightblue" d="M75.18,-472.26C100.39,-505.54 151.49,-566.13 210,-597 216.38,-600.36 223.29,-603.33 230.3,-605.92"/>
<polygon fill="midnightblue" stroke="midnightblue" points="77.84,-469.97 69.06,-464.04 72.22,-474.15 77.84,-469.97"/>
</g>
<!-- Node10 -->
<g id="node10" class="node">
<title>Node10</title>
<g id="a_node10"><a xlink:href="classlemons_1_1dsp_1_1_latency_engine.html" target="_top" xlink:title="Base class for audio engines that require latency (ie, a consistent block size) for their processing.">
<polygon fill="none" stroke="black" points="214,-361 214,-391 367,-391 367,-361 214,-361"/>
<text text-anchor="start" x="222" y="-379" font-family="Helvetica,sans-Serif" font-size="10.00">lemons::dsp::LatencyEngine</text>
<text text-anchor="middle" x="290.5" y="-368" font-family="Helvetica,sans-Serif" font-size="10.00">&lt; SampleType &gt;</text>
</a>
</g>
</g>
<!-- Node1&#45;&gt;Node10 -->
<g id="edge10" class="edge">
<title>Node1&#45;&gt;Node10</title>
<path fill="none" stroke="midnightblue" d="M115.67,-430.86C144.03,-421.86 178.81,-410.84 210,-401 220.21,-397.78 231.16,-394.33 241.57,-391.05"/>
<polygon fill="midnightblue" stroke="midnightblue" points="114.39,-427.59 105.92,-433.95 116.51,-434.26 114.39,-427.59"/>
</g>
<!-- Node11 -->
<g id="node11" class="node">
<title>Node11</title>
<g id="a_node11"><a xlink:href="classlemons_1_1dsp_1_1osc_1_1_engine.html" target="_top" xlink:title="A utility class that wraps an Oscillator into a self&#45;contained dsp::Engine.">
<polygon fill="none" stroke="black" points="222,-247 222,-277 359,-277 359,-247 222,-247"/>
<text text-anchor="start" x="230" y="-265" font-family="Helvetica,sans-Serif" font-size="10.00">lemons::dsp::osc::Engine</text>
<text text-anchor="middle" x="290.5" y="-254" font-family="Helvetica,sans-Serif" font-size="10.00">&lt; SampleType &gt;</text>
</a>
</g>
</g>
<!-- Node1&#45;&gt;Node11 -->
<g id="edge11" class="edge">
<title>Node1&#45;&gt;Node11</title>
<path fill="none" stroke="midnightblue" d="M74.07,-425.6C88.07,-405.54 109.94,-376.55 133,-355 163.35,-326.63 174.25,-323.16 210,-302 225.02,-293.11 242.27,-284.27 256.86,-277.17"/>
<polygon fill="midnightblue" stroke="midnightblue" points="71.17,-423.64 68.39,-433.86 76.94,-427.6 71.17,-423.64"/>
</g>
<!-- Node20 -->
<g id="node20" class="node">
<title>Node20</title>
<g id="a_node20"><a xlink:href="classlemons_1_1dsp_1_1_engine.html" target="_top" xlink:title=" ">
<polygon fill="none" stroke="black" points="233,-198 233,-228 348,-228 348,-198 233,-198"/>
<text text-anchor="start" x="241" y="-216" font-family="Helvetica,sans-Serif" font-size="10.00">lemons::dsp::Engine</text>
<text text-anchor="middle" x="290.5" y="-205" font-family="Helvetica,sans-Serif" font-size="10.00">&lt; double &gt;</text>
</a>
</g>
</g>
<!-- Node1&#45;&gt;Node20 -->
<g id="edge20" class="edge">
<title>Node1&#45;&gt;Node20</title>
<path fill="none" stroke="orange" stroke-dasharray="5,2" d="M66.99,-423.8C78.5,-392.15 101.31,-337.22 133,-298 160.44,-264.04 171.31,-257.22 210,-237 217.16,-233.26 224.98,-230.01 232.85,-227.21"/>
<polygon fill="orange" stroke="orange" points="63.57,-423 63.53,-433.59 70.16,-425.33 63.57,-423"/>
<text text-anchor="middle" x="162.5" y="-301" font-family="Helvetica,sans-Serif" font-size="10.00"> &lt; double &gt;</text>
</g>
<!-- Node21 -->
<g id="node21" class="node">
<title>Node21</title>
<g id="a_node21"><a xlink:href="classlemons_1_1dsp_1_1_engine.html" target="_top" xlink:title=" ">
<polygon fill="none" stroke="black" points="233,-312 233,-342 348,-342 348,-312 233,-312"/>
<text text-anchor="start" x="241" y="-330" font-family="Helvetica,sans-Serif" font-size="10.00">lemons::dsp::Engine</text>
<text text-anchor="middle" x="290.5" y="-319" font-family="Helvetica,sans-Serif" font-size="10.00">&lt; float &gt;</text>
</a>
</g>
</g>
<!-- Node1&#45;&gt;Node21 -->
<g id="edge21" class="edge">
<title>Node1&#45;&gt;Node21</title>
<path fill="none" stroke="orange" stroke-dasharray="5,2" d="M84.72,-427.25C98.66,-416.13 116.32,-402.72 133,-392 165.62,-371.04 174.16,-365.78 210,-351 217.86,-347.76 226.33,-344.73 234.69,-342"/>
<polygon fill="orange" stroke="orange" points="82.15,-424.83 76.56,-433.84 86.54,-430.28 82.15,-424.83"/>
<text text-anchor="middle" x="162.5" y="-395" font-family="Helvetica,sans-Serif" font-size="10.00"> &lt; float &gt;</text>
</g>
<!-- Node3 -->
<g id="node3" class="node">
<title>Node3</title>
<g id="a_node3"><a xlink:href="structlemons_1_1dsp_1_1_f_x_1_1_filter_engine.html" target="_top" xlink:title="A class that represents an audio engine holding a filter effect.">
<polygon fill="none" stroke="black" points="735,-628 735,-658 893,-658 893,-628 735,-628"/>
<text text-anchor="start" x="743" y="-646" font-family="Helvetica,sans-Serif" font-size="10.00">lemons::dsp::FX::FilterEngine</text>
<text text-anchor="middle" x="814" y="-635" font-family="Helvetica,sans-Serif" font-size="10.00">&lt; SampleType &gt;</text>
</a>
</g>
</g>
<!-- Node2&#45;&gt;Node3 -->
<g id="edge2" class="edge">
<title>Node2&#45;&gt;Node3</title>
<path fill="none" stroke="midnightblue" d="M515.1,-660.96C577.13,-657.22 669.33,-651.66 734.7,-647.72"/>
<polygon fill="midnightblue" stroke="midnightblue" points="514.8,-657.47 505.03,-661.56 515.22,-664.45 514.8,-657.47"/>
</g>
<!-- Node9 -->
<g id="node9" class="node">
<title>Node9</title>
<g id="a_node9"><a xlink:href="classlemons_1_1dsp_1_1_f_x_1_1_effect_engine.html" target="_top" xlink:title=" ">
<polygon fill="none" stroke="black" points="530,-606 530,-636 691,-636 691,-606 530,-606"/>
<text text-anchor="start" x="538" y="-624" font-family="Helvetica,sans-Serif" font-size="10.00">lemons::dsp::FX::EffectEngine</text>
<text text-anchor="middle" x="610.5" y="-613" font-family="Helvetica,sans-Serif" font-size="10.00">&lt; Filter, SampleType &gt;</text>
</a>
</g>
</g>
<!-- Node8&#45;&gt;Node9 -->
<g id="edge8" class="edge">
<title>Node8&#45;&gt;Node9</title>
<path fill="none" stroke="orange" stroke-dasharray="5,2" d="M381.45,-621C428.18,-621 484.79,-621 529.91,-621"/>
<polygon fill="orange" stroke="orange" points="381.33,-617.5 371.33,-621 381.33,-624.5 381.33,-617.5"/>
<text text-anchor="middle" x="447" y="-624" font-family="Helvetica,sans-Serif" font-size="10.00"> &lt; Filter, SampleType &gt;</text>
</g>
<!-- Node9&#45;&gt;Node3 -->
<g id="edge9" class="edge">
<title>Node9&#45;&gt;Node3</title>
<path fill="none" stroke="midnightblue" d="M701.35,-630.81C712.55,-632.03 723.93,-633.28 734.93,-634.48"/>
<polygon fill="midnightblue" stroke="midnightblue" points="701.46,-627.3 691.14,-629.69 700.7,-634.26 701.46,-627.3"/>
</g>
<!-- Node12 -->
<g id="node12" class="node">
<title>Node12</title>
<g id="a_node12"><a xlink:href="classlemons_1_1dsp_1_1osc_1_1_engine.html" target="_top" xlink:title=" ">
<polygon fill="none" stroke="black" points="534.5,-120.5 534.5,-161.5 686.5,-161.5 686.5,-120.5 534.5,-120.5"/>
<text text-anchor="start" x="542.5" y="-149.5" font-family="Helvetica,sans-Serif" font-size="10.00">lemons::dsp::osc::Engine</text>
<text text-anchor="start" x="542.5" y="-138.5" font-family="Helvetica,sans-Serif" font-size="10.00">&lt; SampleType, lemons::dsp</text>
<text text-anchor="middle" x="610.5" y="-127.5" font-family="Helvetica,sans-Serif" font-size="10.00">::osc::Sine &gt;</text>
</a>
</g>
</g>
<!-- Node11&#45;&gt;Node12 -->
<g id="edge12" class="edge">
<title>Node11&#45;&gt;Node12</title>
<path fill="none" stroke="orange" stroke-dasharray="5,2" d="M367.19,-240.77C368.52,-239.58 369.79,-238.32 371,-237 396.71,-208.77 359.97,-177.8 389,-153 428.28,-119.44 487.3,-117.89 534.4,-123.94"/>
<polygon fill="orange" stroke="orange" points="364.9,-238.11 358.96,-246.88 369.07,-243.73 364.9,-238.11"/>
<text text-anchor="start" x="389" y="-167" font-family="Helvetica,sans-Serif" font-size="10.00"> &lt; SampleType, lemons</text>
<text text-anchor="middle" x="447" y="-156" font-family="Helvetica,sans-Serif" font-size="10.00">::dsp::osc::Sine &gt;</text>
</g>
<!-- Node13 -->
<g id="node13" class="node">
<title>Node13</title>
<g id="a_node13"><a xlink:href="classlemons_1_1dsp_1_1osc_1_1_engine.html" target="_top" xlink:title=" ">
<polygon fill="none" stroke="black" points="523,-327 523,-357 698,-357 698,-327 523,-327"/>
<text text-anchor="start" x="531" y="-345" font-family="Helvetica,sans-Serif" font-size="10.00">lemons::dsp::osc::Engine</text>
<text text-anchor="middle" x="610.5" y="-334" font-family="Helvetica,sans-Serif" font-size="10.00">&lt; float, lemons::dsp::osc::Saw &gt;</text>
</a>
</g>
</g>
<!-- Node11&#45;&gt;Node13 -->
<g id="edge13" class="edge">
<title>Node11&#45;&gt;Node13</title>
<path fill="none" stroke="orange" stroke-dasharray="5,2" d="M368.95,-273.06C409.82,-279.75 460.58,-289.45 505,-302 528.74,-308.71 554.65,-318.61 574.72,-326.88"/>
<polygon fill="orange" stroke="orange" points="369.48,-269.6 359.05,-271.46 368.37,-276.51 369.48,-269.6"/>
<text text-anchor="start" x="396" y="-316" font-family="Helvetica,sans-Serif" font-size="10.00"> &lt; float, lemons::dsp</text>
<text text-anchor="middle" x="447" y="-305" font-family="Helvetica,sans-Serif" font-size="10.00">::osc::Saw &gt;</text>
</g>
<!-- Node14 -->
<g id="node14" class="node">
<title>Node14</title>
<g id="a_node14"><a xlink:href="classlemons_1_1dsp_1_1osc_1_1_engine.html" target="_top" xlink:title=" ">
<polygon fill="none" stroke="black" points="534.5,-60.5 534.5,-101.5 686.5,-101.5 686.5,-60.5 534.5,-60.5"/>
<text text-anchor="start" x="542.5" y="-89.5" font-family="Helvetica,sans-Serif" font-size="10.00">lemons::dsp::osc::Engine</text>
<text text-anchor="start" x="542.5" y="-78.5" font-family="Helvetica,sans-Serif" font-size="10.00">&lt; SampleType, lemons::dsp</text>
<text text-anchor="middle" x="610.5" y="-67.5" font-family="Helvetica,sans-Serif" font-size="10.00">::osc::Saw &gt;</text>
</a>
</g>
</g>
<!-- Node11&#45;&gt;Node14 -->
<g id="edge14" class="edge">
<title>Node11&#45;&gt;Node14</title>
<path fill="none" stroke="orange" stroke-dasharray="5,2" d="M367.34,-240.9C368.63,-239.67 369.85,-238.37 371,-237 411.53,-188.54 343.03,-139.33 389,-96 426.9,-60.27 486.61,-58.22 534.34,-64.17"/>
<polygon fill="orange" stroke="orange" points="365.03,-238.27 359.32,-247.2 369.35,-243.77 365.03,-238.27"/>
<text text-anchor="start" x="389" y="-110" font-family="Helvetica,sans-Serif" font-size="10.00"> &lt; SampleType, lemons</text>
<text text-anchor="middle" x="447" y="-99" font-family="Helvetica,sans-Serif" font-size="10.00">::dsp::osc::Saw &gt;</text>
</g>
<!-- Node15 -->
<g id="node15" class="node">
<title>Node15</title>
<g id="a_node15"><a xlink:href="classlemons_1_1dsp_1_1osc_1_1_engine.html" target="_top" xlink:title=" ">
<polygon fill="none" stroke="black" points="542,-243.5 542,-284.5 679,-284.5 679,-243.5 542,-243.5"/>
<text text-anchor="start" x="550" y="-272.5" font-family="Helvetica,sans-Serif" font-size="10.00">lemons::dsp::osc::Engine</text>
<text text-anchor="start" x="550" y="-261.5" font-family="Helvetica,sans-Serif" font-size="10.00">&lt; float, lemons::dsp::osc</text>
<text text-anchor="middle" x="610.5" y="-250.5" font-family="Helvetica,sans-Serif" font-size="10.00">::Square &gt;</text>
</a>
</g>
</g>
<!-- Node11&#45;&gt;Node15 -->
<g id="edge15" class="edge">
<title>Node11&#45;&gt;Node15</title>
<path fill="none" stroke="orange" stroke-dasharray="5,2" d="M349.06,-243.92C368.82,-237.78 386.63,-232.36 389,-232 439.98,-224.33 454.01,-224.37 505,-232 520.95,-234.39 537.83,-238.72 553.26,-243.44"/>
<polygon fill="orange" stroke="orange" points="347.77,-240.65 339.26,-246.97 349.85,-247.34 347.77,-240.65"/>
<text text-anchor="start" x="396" y="-246" font-family="Helvetica,sans-Serif" font-size="10.00"> &lt; float, lemons::dsp</text>
<text text-anchor="middle" x="447" y="-235" font-family="Helvetica,sans-Serif" font-size="10.00">::osc::Square &gt;</text>
</g>
<!-- Node16 -->
<g id="node16" class="node">
<title>Node16</title>
<g id="a_node16"><a xlink:href="classlemons_1_1dsp_1_1osc_1_1_engine.html" target="_top" xlink:title=" ">
<polygon fill="none" stroke="black" points="534.5,-0.5 534.5,-41.5 686.5,-41.5 686.5,-0.5 534.5,-0.5"/>
<text text-anchor="start" x="542.5" y="-29.5" font-family="Helvetica,sans-Serif" font-size="10.00">lemons::dsp::osc::Engine</text>
<text text-anchor="start" x="542.5" y="-18.5" font-family="Helvetica,sans-Serif" font-size="10.00">&lt; SampleType, lemons::dsp</text>
<text text-anchor="middle" x="610.5" y="-7.5" font-family="Helvetica,sans-Serif" font-size="10.00">::osc::Triangle &gt;</text>
</a>
</g>
</g>
<!-- Node11&#45;&gt;Node16 -->
<g id="edge16" class="edge">
<title>Node11&#45;&gt;Node16</title>
<path fill="none" stroke="orange" stroke-dasharray="5,2" d="M367.3,-241.06C368.61,-239.79 369.85,-238.43 371,-237 399.12,-202.07 356.95,-67.37 389,-36 426.36,0.57 486.41,2.46 534.42,-3.77"/>
<polygon fill="orange" stroke="orange" points="364.77,-238.61 359.13,-247.57 369.13,-244.08 364.77,-238.61"/>
<text text-anchor="start" x="389" y="-50" font-family="Helvetica,sans-Serif" font-size="10.00"> &lt; SampleType, lemons</text>
<text text-anchor="middle" x="447" y="-39" font-family="Helvetica,sans-Serif" font-size="10.00">::dsp::osc::Triangle &gt;</text>
</g>
<!-- Node17 -->
<g id="node17" class="node">
<title>Node17</title>
<g id="a_node17"><a xlink:href="classlemons_1_1dsp_1_1osc_1_1_engine.html" target="_top" xlink:title=" ">
<polygon fill="none" stroke="black" points="542,-454.5 542,-495.5 679,-495.5 679,-454.5 542,-454.5"/>
<text text-anchor="start" x="550" y="-483.5" font-family="Helvetica,sans-Serif" font-size="10.00">lemons::dsp::osc::Engine</text>
<text text-anchor="start" x="550" y="-472.5" font-family="Helvetica,sans-Serif" font-size="10.00">&lt; float, lemons::dsp::osc</text>
<text text-anchor="middle" x="610.5" y="-461.5" font-family="Helvetica,sans-Serif" font-size="10.00">::Sine &gt;</text>
</a>
</g>
</g>
<!-- Node11&#45;&gt;Node17 -->
<g id="edge17" class="edge">
<title>Node11&#45;&gt;Node17</title>
<path fill="none" stroke="orange" stroke-dasharray="5,2" d="M347.69,-281.97C356.57,-287.28 364.84,-293.88 371,-302 396.18,-335.2 361.77,-362.46 389,-394 424.73,-435.39 453.68,-416.11 505,-435 521.86,-441.21 540.18,-448.15 556.71,-454.49"/>
<polygon fill="orange" stroke="orange" points="349.12,-278.76 338.66,-277.07 345.78,-284.92 349.12,-278.76"/>
<text text-anchor="start" x="396" y="-449" font-family="Helvetica,sans-Serif" font-size="10.00"> &lt; float, lemons::dsp</text>
<text text-anchor="middle" x="447" y="-438" font-family="Helvetica,sans-Serif" font-size="10.00">::osc::Sine &gt;</text>
</g>
<!-- Node18 -->
<g id="node18" class="node">
<title>Node18</title>
<g id="a_node18"><a xlink:href="classlemons_1_1dsp_1_1osc_1_1_engine.html" target="_top" xlink:title=" ">
<polygon fill="none" stroke="black" points="534.5,-180.5 534.5,-221.5 686.5,-221.5 686.5,-180.5 534.5,-180.5"/>
<text text-anchor="start" x="542.5" y="-209.5" font-family="Helvetica,sans-Serif" font-size="10.00">lemons::dsp::osc::Engine</text>
<text text-anchor="start" x="542.5" y="-198.5" font-family="Helvetica,sans-Serif" font-size="10.00">&lt; SampleType, lemons::dsp</text>
<text text-anchor="middle" x="610.5" y="-187.5" font-family="Helvetica,sans-Serif" font-size="10.00">::osc::Square &gt;</text>
</a>
</g>
</g>
<!-- Node11&#45;&gt;Node18 -->
<g id="edge18" class="edge">
<title>Node11&#45;&gt;Node18</title>
<path fill="none" stroke="orange" stroke-dasharray="5,2" d="M364.76,-241.72C366.94,-240.25 369.02,-238.68 371,-237 384.61,-225.4 373.78,-210.4 389,-201 431.9,-174.48 489.05,-175.26 534.41,-182.26"/>
<polygon fill="orange" stroke="orange" points="362.84,-238.79 355.98,-246.86 366.38,-244.83 362.84,-238.79"/>
<text text-anchor="start" x="389" y="-215" font-family="Helvetica,sans-Serif" font-size="10.00"> &lt; SampleType, lemons</text>
<text text-anchor="middle" x="447" y="-204" font-family="Helvetica,sans-Serif" font-size="10.00">::dsp::osc::Square &gt;</text>
</g>
<!-- Node19 -->
<g id="node19" class="node">
<title>Node19</title>
<g id="a_node19"><a xlink:href="classlemons_1_1dsp_1_1osc_1_1_engine.html" target="_top" xlink:title=" ">
<polygon fill="none" stroke="black" points="542,-388.5 542,-429.5 679,-429.5 679,-388.5 542,-388.5"/>
<text text-anchor="start" x="550" y="-417.5" font-family="Helvetica,sans-Serif" font-size="10.00">lemons::dsp::osc::Engine</text>
<text text-anchor="start" x="550" y="-406.5" font-family="Helvetica,sans-Serif" font-size="10.00">&lt; float, lemons::dsp::osc</text>
<text text-anchor="middle" x="610.5" y="-395.5" font-family="Helvetica,sans-Serif" font-size="10.00">::Triangle &gt;</text>
</a>
</g>
</g>
<!-- Node11&#45;&gt;Node19 -->
<g id="edge19" class="edge">
<title>Node11&#45;&gt;Node19</title>
<path fill="none" stroke="orange" stroke-dasharray="5,2" d="M338.69,-281.66C349.84,-287.39 361.3,-294.22 371,-302 380.86,-309.9 378.77,-316.59 389,-324 402.77,-333.97 491.15,-366.66 551.74,-388.47"/>
<polygon fill="orange" stroke="orange" points="339.96,-278.39 329.44,-277.12 336.87,-284.67 339.96,-278.39"/>
<text text-anchor="start" x="396" y="-384" font-family="Helvetica,sans-Serif" font-size="10.00"> &lt; float, lemons::dsp</text>
<text text-anchor="middle" x="447" y="-373" font-family="Helvetica,sans-Serif" font-size="10.00">::osc::Triangle &gt;</text>
</g>
<!-- Node21&#45;&gt;Node13 -->
<g id="edge22" class="edge">
<title>Node21&#45;&gt;Node13</title>
<path fill="none" stroke="midnightblue" d="M357.74,-344.19C362.34,-346.23 366.81,-348.49 371,-351 380.71,-356.81 378.55,-364.67 389,-369 450.29,-394.39 528.76,-373.47 573.65,-357.01"/>
<polygon fill="midnightblue" stroke="midnightblue" points="358.73,-340.82 348.15,-340.31 356.11,-347.31 358.73,-340.82"/>
</g>
<!-- Node21&#45;&gt;Node15 -->
<g id="edge24" class="edge">
<title>Node21&#45;&gt;Node15</title>
<path fill="none" stroke="midnightblue" d="M358.42,-321.57C400.79,-317.3 456.54,-310.18 505,-299 521.41,-295.21 538.88,-289.9 554.75,-284.54"/>
<polygon fill="midnightblue" stroke="midnightblue" points="357.83,-318.11 348.22,-322.56 358.51,-325.07 357.83,-318.11"/>
</g>
<!-- Node21&#45;&gt;Node17 -->
<g id="edge23" class="edge">
<title>Node21&#45;&gt;Node17</title>
<path fill="none" stroke="midnightblue" d="M357.66,-340.16C362.64,-343.1 367.2,-346.66 371,-351 403.66,-388.25 352.28,-427.74 389,-461 429.51,-497.7 493.24,-497.88 541.79,-490.82"/>
<polygon fill="midnightblue" stroke="midnightblue" points="358.83,-336.84 348.31,-335.54 355.73,-343.11 358.83,-336.84"/>
</g>
<!-- Node21&#45;&gt;Node19 -->
<g id="edge25" class="edge">
<title>Node21&#45;&gt;Node19</title>
<path fill="none" stroke="midnightblue" d="M357.1,-340.11C362.27,-343.05 367.02,-346.63 371,-351 397.91,-380.49 358.07,-413.76 389,-439 428.94,-471.6 453.95,-446.18 505,-439 519.39,-436.98 534.58,-433.45 548.78,-429.52"/>
<polygon fill="midnightblue" stroke="midnightblue" points="358.61,-336.95 348.08,-335.75 355.56,-343.25 358.61,-336.95"/>
</g>
</g>
</svg>
