<?xml version="1.0" encoding="UTF-8" standalone="no"?>
<!DOCTYPE svg PUBLIC "-//W3C//DTD SVG 1.1//EN"
 "http://www.w3.org/Graphics/SVG/1.1/DTD/svg11.dtd">
<!-- Generated by graphviz version 2.49.3 (20211023.0002)
 -->
<!-- Title: lemons::dsp::osc::Engine&lt; SampleType, OscType, &gt; Pages: 1 -->
<svg width="1067pt" height="580pt"
 viewBox="0.00 0.00 1067.00 580.00" xmlns="http://www.w3.org/2000/svg" xmlns:xlink="http://www.w3.org/1999/xlink">
<g id="graph0" class="graph" transform="scale(1 1) rotate(0) translate(4 576)">
<title>lemons::dsp::osc::Engine&lt; SampleType, OscType, &gt;</title>
<!-- Node1 -->
<g id="node1" class="node">
<title>Node1</title>
<g id="a_node1"><a xlink:title=" ">
<polygon fill="#bfbfbf" stroke="black" points="624,-266 624,-296 761,-296 761,-266 624,-266"/>
<text text-anchor="start" x="632" y="-284" font-family="Helvetica,sans-Serif" font-size="10.00">lemons::dsp::osc::Engine</text>
<text text-anchor="middle" x="692.5" y="-273" font-family="Helvetica,sans-Serif" font-size="10.00">&lt; SampleType, OscType, &gt;</text>
</a>
</g>
</g>
<!-- Node5 -->
<g id="node5" class="node">
<title>Node5</title>
<g id="a_node5"><a xlink:href="classlemons_1_1dsp_1_1osc_1_1_engine.html" target="_top" xlink:title=" ">
<polygon fill="none" stroke="black" points="910.5,-530.5 910.5,-571.5 1049.5,-571.5 1049.5,-530.5 910.5,-530.5"/>
<text text-anchor="start" x="918.5" y="-559.5" font-family="Helvetica,sans-Serif" font-size="10.00">lemons::dsp::osc::Engine</text>
<text text-anchor="start" x="918.5" y="-548.5" font-family="Helvetica,sans-Serif" font-size="10.00">&lt; SampleType, lemons::dsp</text>
<text text-anchor="middle" x="980" y="-537.5" font-family="Helvetica,sans-Serif" font-size="10.00">::osc::Sine &gt;</text>
</a>
</g>
</g>
<!-- Node1&#45;&gt;Node5 -->
<g id="edge5" class="edge">
<title>Node1&#45;&gt;Node5</title>
<path fill="none" stroke="orange" stroke-dasharray="5,2" d="M695.18,-306.13C699.78,-353.66 716.78,-456.76 779,-510 814.95,-540.77 867.8,-550.59 910.14,-552.95"/>
<polygon fill="orange" stroke="orange" points="698.66,-305.74 694.32,-296.08 691.69,-306.34 698.66,-305.74"/>
<text text-anchor="start" x="779" y="-563" font-family="Helvetica,sans-Serif" font-size="10.00"> &lt; SampleType, lemons</text>
<text text-anchor="middle" x="831" y="-552" font-family="Helvetica,sans-Serif" font-size="10.00">::dsp::osc::Sine &gt;</text>
</g>
<!-- Node6 -->
<g id="node6" class="node">
<title>Node6</title>
<g id="a_node6"><a xlink:href="classlemons_1_1dsp_1_1osc_1_1_engine.html" target="_top" xlink:title=" ">
<polygon fill="none" stroke="black" points="910.5,-470.5 910.5,-511.5 1049.5,-511.5 1049.5,-470.5 910.5,-470.5"/>
<text text-anchor="start" x="918.5" y="-499.5" font-family="Helvetica,sans-Serif" font-size="10.00">lemons::dsp::osc::Engine</text>
<text text-anchor="start" x="918.5" y="-488.5" font-family="Helvetica,sans-Serif" font-size="10.00">&lt; SampleType, lemons::dsp</text>
<text text-anchor="middle" x="980" y="-477.5" font-family="Helvetica,sans-Serif" font-size="10.00">::osc::Saw &gt;</text>
</a>
</g>
</g>
<!-- Node1&#45;&gt;Node6 -->
<g id="edge6" class="edge">
<title>Node1&#45;&gt;Node6</title>
<path fill="none" stroke="orange" stroke-dasharray="5,2" d="M699.64,-305.95C709.83,-341.91 733.74,-407.85 779,-443 816.37,-472.02 868.63,-483.86 910.36,-488.53"/>
<polygon fill="orange" stroke="orange" points="703.01,-304.97 697.02,-296.23 696.25,-306.8 703.01,-304.97"/>
<text text-anchor="start" x="779" y="-498" font-family="Helvetica,sans-Serif" font-size="10.00"> &lt; SampleType, lemons</text>
<text text-anchor="middle" x="831" y="-487" font-family="Helvetica,sans-Serif" font-size="10.00">::dsp::osc::Saw &gt;</text>
</g>
<!-- Node7 -->
<g id="node7" class="node">
<title>Node7</title>
<g id="a_node7"><a xlink:href="classlemons_1_1dsp_1_1osc_1_1_engine.html" target="_top" xlink:title=" ">
<polygon fill="none" stroke="black" points="910.5,-410.5 910.5,-451.5 1049.5,-451.5 1049.5,-410.5 910.5,-410.5"/>
<text text-anchor="start" x="918.5" y="-439.5" font-family="Helvetica,sans-Serif" font-size="10.00">lemons::dsp::osc::Engine</text>
<text text-anchor="start" x="918.5" y="-428.5" font-family="Helvetica,sans-Serif" font-size="10.00">&lt; SampleType, lemons::dsp</text>
<text text-anchor="middle" x="980" y="-417.5" font-family="Helvetica,sans-Serif" font-size="10.00">::osc::Square &gt;</text>
</a>
</g>
</g>
<!-- Node1&#45;&gt;Node7 -->
<g id="edge7" class="edge">
<title>Node1&#45;&gt;Node7</title>
<path fill="none" stroke="orange" stroke-dasharray="5,2" d="M708.02,-305.03C723,-327.75 748.45,-361.1 779,-380 818.61,-404.51 869.57,-417.28 910.13,-423.91"/>
<polygon fill="orange" stroke="orange" points="710.78,-302.84 702.44,-296.31 704.88,-306.62 710.78,-302.84"/>
<text text-anchor="start" x="779" y="-431" font-family="Helvetica,sans-Serif" font-size="10.00"> &lt; SampleType, lemons</text>
<text text-anchor="middle" x="831" y="-420" font-family="Helvetica,sans-Serif" font-size="10.00">::dsp::osc::Square &gt;</text>
</g>
<!-- Node8 -->
<g id="node8" class="node">
<title>Node8</title>
<g id="a_node8"><a xlink:href="classlemons_1_1dsp_1_1osc_1_1_engine.html" target="_top" xlink:title=" ">
<polygon fill="none" stroke="black" points="910.5,-350.5 910.5,-391.5 1049.5,-391.5 1049.5,-350.5 910.5,-350.5"/>
<text text-anchor="start" x="918.5" y="-379.5" font-family="Helvetica,sans-Serif" font-size="10.00">lemons::dsp::osc::Engine</text>
<text text-anchor="start" x="918.5" y="-368.5" font-family="Helvetica,sans-Serif" font-size="10.00">&lt; SampleType, lemons::dsp</text>
<text text-anchor="middle" x="980" y="-357.5" font-family="Helvetica,sans-Serif" font-size="10.00">::osc::Triangle &gt;</text>
</a>
</g>
</g>
<!-- Node1&#45;&gt;Node8 -->
<g id="edge8" class="edge">
<title>Node1&#45;&gt;Node8</title>
<path fill="none" stroke="orange" stroke-dasharray="5,2" d="M727.23,-301.39C742.59,-309.98 761.27,-319.47 779,-326 821.41,-341.62 870.97,-352.82 910.14,-360.14"/>
<polygon fill="orange" stroke="orange" points="728.56,-298.11 718.14,-296.2 725.09,-304.19 728.56,-298.11"/>
<text text-anchor="start" x="779" y="-368" font-family="Helvetica,sans-Serif" font-size="10.00"> &lt; SampleType, lemons</text>
<text text-anchor="middle" x="831" y="-357" font-family="Helvetica,sans-Serif" font-size="10.00">::dsp::osc::Triangle &gt;</text>
</g>
<!-- Node9 -->
<g id="node9" class="node">
<title>Node9</title>
<g id="a_node9"><a xlink:href="classlemons_1_1dsp_1_1osc_1_1_engine.html" target="_top" xlink:title=" ">
<polygon fill="none" stroke="black" points="910.5,-290.5 910.5,-331.5 1049.5,-331.5 1049.5,-290.5 910.5,-290.5"/>
<text text-anchor="start" x="918.5" y="-319.5" font-family="Helvetica,sans-Serif" font-size="10.00">lemons::dsp::osc::Engine</text>
<text text-anchor="start" x="918.5" y="-308.5" font-family="Helvetica,sans-Serif" font-size="10.00">&lt; SampleType, lemons::dsp</text>
<text text-anchor="middle" x="980" y="-297.5" font-family="Helvetica,sans-Serif" font-size="10.00">::osc::Detunable &gt;</text>
</a>
</g>
</g>
<!-- Node1&#45;&gt;Node9 -->
<g id="edge9" class="edge">
<title>Node1&#45;&gt;Node9</title>
<path fill="none" stroke="orange" stroke-dasharray="5,2" d="M771.13,-289.16C814.62,-293.73 868.39,-299.38 910.34,-303.79"/>
<polygon fill="orange" stroke="orange" points="771.47,-285.67 761.16,-288.11 770.74,-292.64 771.47,-285.67"/>
<text text-anchor="start" x="779" y="-314" font-family="Helvetica,sans-Serif" font-size="10.00"> &lt; SampleType, lemons</text>
<text text-anchor="middle" x="831" y="-303" font-family="Helvetica,sans-Serif" font-size="10.00">::dsp::osc::Detunable &gt;</text>
</g>
<!-- Node10 -->
<g id="node10" class="node">
<title>Node10</title>
<g id="a_node10"><a xlink:href="classlemons_1_1dsp_1_1osc_1_1_engine.html" target="_top" xlink:title=" ">
<polygon fill="none" stroke="black" points="916,-230.5 916,-271.5 1044,-271.5 1044,-230.5 916,-230.5"/>
<text text-anchor="start" x="924" y="-259.5" font-family="Helvetica,sans-Serif" font-size="10.00">lemons::dsp::osc::Engine</text>
<text text-anchor="start" x="924" y="-248.5" font-family="Helvetica,sans-Serif" font-size="10.00">&lt; float, lemons::dsp::osc</text>
<text text-anchor="middle" x="980" y="-237.5" font-family="Helvetica,sans-Serif" font-size="10.00">::Sine &gt;</text>
</a>
</g>
</g>
<!-- Node1&#45;&gt;Node10 -->
<g id="edge10" class="edge">
<title>Node1&#45;&gt;Node10</title>
<path fill="none" stroke="orange" stroke-dasharray="5,2" d="M770.94,-265.14C773.66,-264.73 776.35,-264.35 779,-264 824.54,-258.02 876.29,-254.75 915.74,-252.99"/>
<polygon fill="orange" stroke="orange" points="770.36,-261.69 761.04,-266.72 771.46,-268.6 770.36,-261.69"/>
<text text-anchor="start" x="786" y="-278" font-family="Helvetica,sans-Serif" font-size="10.00"> &lt; float, lemons::dsp</text>
<text text-anchor="middle" x="831" y="-267" font-family="Helvetica,sans-Serif" font-size="10.00">::osc::Sine &gt;</text>
</g>
<!-- Node11 -->
<g id="node11" class="node">
<title>Node11</title>
<g id="a_node11"><a xlink:href="classlemons_1_1dsp_1_1osc_1_1_engine.html" target="_top" xlink:title=" ">
<polygon fill="none" stroke="black" points="901,-181 901,-211 1059,-211 1059,-181 901,-181"/>
<text text-anchor="start" x="909" y="-199" font-family="Helvetica,sans-Serif" font-size="10.00">lemons::dsp::osc::Engine</text>
<text text-anchor="middle" x="980" y="-188" font-family="Helvetica,sans-Serif" font-size="10.00">&lt; float, lemons::dsp::osc::Saw &gt;</text>
</a>
</g>
</g>
<!-- Node1&#45;&gt;Node11 -->
<g id="edge11" class="edge">
<title>Node1&#45;&gt;Node11</title>
<path fill="none" stroke="orange" stroke-dasharray="5,2" d="M721.8,-259.98C737.82,-249.1 758.66,-236.54 779,-229 817.77,-214.63 863.09,-206.5 900.77,-201.91"/>
<polygon fill="orange" stroke="orange" points="719.64,-257.23 713.44,-265.82 723.64,-262.97 719.64,-257.23"/>
<text text-anchor="start" x="786" y="-243" font-family="Helvetica,sans-Serif" font-size="10.00"> &lt; float, lemons::dsp</text>
<text text-anchor="middle" x="831" y="-232" font-family="Helvetica,sans-Serif" font-size="10.00">::osc::Saw &gt;</text>
</g>
<!-- Node12 -->
<g id="node12" class="node">
<title>Node12</title>
<g id="a_node12"><a xlink:href="classlemons_1_1dsp_1_1osc_1_1_engine.html" target="_top" xlink:title=" ">
<polygon fill="none" stroke="black" points="916,-120.5 916,-161.5 1044,-161.5 1044,-120.5 916,-120.5"/>
<text text-anchor="start" x="924" y="-149.5" font-family="Helvetica,sans-Serif" font-size="10.00">lemons::dsp::osc::Engine</text>
<text text-anchor="start" x="924" y="-138.5" font-family="Helvetica,sans-Serif" font-size="10.00">&lt; float, lemons::dsp::osc</text>
<text text-anchor="middle" x="980" y="-127.5" font-family="Helvetica,sans-Serif" font-size="10.00">::Square &gt;</text>
</a>
</g>
</g>
<!-- Node1&#45;&gt;Node12 -->
<g id="edge12" class="edge">
<title>Node1&#45;&gt;Node12</title>
<path fill="none" stroke="orange" stroke-dasharray="5,2" d="M706.92,-256.92C721.47,-233.17 746.98,-197.78 779,-179 820.46,-154.68 874.32,-145.48 915.69,-142.19"/>
<polygon fill="orange" stroke="orange" points="703.8,-255.31 701.71,-265.69 709.82,-258.88 703.8,-255.31"/>
<text text-anchor="start" x="786" y="-193" font-family="Helvetica,sans-Serif" font-size="10.00"> &lt; float, lemons::dsp</text>
<text text-anchor="middle" x="831" y="-182" font-family="Helvetica,sans-Serif" font-size="10.00">::osc::Square &gt;</text>
</g>
<!-- Node13 -->
<g id="node13" class="node">
<title>Node13</title>
<g id="a_node13"><a xlink:href="classlemons_1_1dsp_1_1osc_1_1_engine.html" target="_top" xlink:title=" ">
<polygon fill="none" stroke="black" points="916,-60.5 916,-101.5 1044,-101.5 1044,-60.5 916,-60.5"/>
<text text-anchor="start" x="924" y="-89.5" font-family="Helvetica,sans-Serif" font-size="10.00">lemons::dsp::osc::Engine</text>
<text text-anchor="start" x="924" y="-78.5" font-family="Helvetica,sans-Serif" font-size="10.00">&lt; float, lemons::dsp::osc</text>
<text text-anchor="middle" x="980" y="-67.5" font-family="Helvetica,sans-Serif" font-size="10.00">::Triangle &gt;</text>
</a>
</g>
</g>
<!-- Node1&#45;&gt;Node13 -->
<g id="edge13" class="edge">
<title>Node1&#45;&gt;Node13</title>
<path fill="none" stroke="orange" stroke-dasharray="5,2" d="M699.56,-256.13C709.65,-220.32 733.43,-154.84 779,-121 818.23,-91.87 873.29,-82.52 915.7,-80.09"/>
<polygon fill="orange" stroke="orange" points="696.18,-255.24 696.97,-265.81 702.94,-257.06 696.18,-255.24"/>
<text text-anchor="start" x="786" y="-135" font-family="Helvetica,sans-Serif" font-size="10.00"> &lt; float, lemons::dsp</text>
<text text-anchor="middle" x="831" y="-124" font-family="Helvetica,sans-Serif" font-size="10.00">::osc::Triangle &gt;</text>
</g>
<!-- Node14 -->
<g id="node14" class="node">
<title>Node14</title>
<g id="a_node14"><a xlink:href="classlemons_1_1dsp_1_1osc_1_1_engine.html" target="_top" xlink:title=" ">
<polygon fill="none" stroke="black" points="916,-0.5 916,-41.5 1044,-41.5 1044,-0.5 916,-0.5"/>
<text text-anchor="start" x="924" y="-29.5" font-family="Helvetica,sans-Serif" font-size="10.00">lemons::dsp::osc::Engine</text>
<text text-anchor="start" x="924" y="-18.5" font-family="Helvetica,sans-Serif" font-size="10.00">&lt; float, lemons::dsp::osc</text>
<text text-anchor="middle" x="980" y="-7.5" font-family="Helvetica,sans-Serif" font-size="10.00">::Detunable &gt;</text>
</a>
</g>
</g>
<!-- Node1&#45;&gt;Node14 -->
<g id="edge14" class="edge">
<title>Node1&#45;&gt;Node14</title>
<path fill="none" stroke="orange" stroke-dasharray="5,2" d="M695.38,-255.77C700.29,-209 717.76,-108.93 779,-58 816.87,-26.5 872.86,-18.34 915.97,-17.44"/>
<polygon fill="orange" stroke="orange" points="691.87,-255.66 694.42,-265.94 698.84,-256.32 691.87,-255.66"/>
<text text-anchor="start" x="786" y="-72" font-family="Helvetica,sans-Serif" font-size="10.00"> &lt; float, lemons::dsp</text>
<text text-anchor="middle" x="831" y="-61" font-family="Helvetica,sans-Serif" font-size="10.00">::osc::Detunable &gt;</text>
</g>
<!-- Node2 -->
<g id="node2" class="node">
<title>Node2</title>
<g id="a_node2"><a xlink:href="classlemons_1_1dsp_1_1_stream_engine.html" target="_top" xlink:title=" ">
<polygon fill="none" stroke="black" points="450,-266 450,-296 587,-296 587,-266 450,-266"/>
<text text-anchor="start" x="458" y="-284" font-family="Helvetica,sans-Serif" font-size="10.00">lemons::dsp::StreamEngine</text>
<text text-anchor="middle" x="518.5" y="-273" font-family="Helvetica,sans-Serif" font-size="10.00">&lt; SampleType, OscType &gt;</text>
</a>
</g>
</g>
<!-- Node2&#45;&gt;Node1 -->
<g id="edge1" class="edge">
<title>Node2&#45;&gt;Node1</title>
<path fill="none" stroke="midnightblue" d="M597.63,-281C606.35,-281 615.17,-281 623.73,-281"/>
<polygon fill="midnightblue" stroke="midnightblue" points="597.48,-277.5 587.48,-281 597.48,-284.5 597.48,-277.5"/>
</g>
<!-- Node3 -->
<g id="node3" class="node">
<title>Node3</title>
<g id="a_node3"><a xlink:href="classlemons_1_1dsp_1_1_engine.html" target="_top" xlink:title="Base class for an audio engine.">
<polygon fill="none" stroke="black" points="0,-262 0,-292 106,-292 106,-262 0,-262"/>
<text text-anchor="start" x="8" y="-280" font-family="Helvetica,sans-Serif" font-size="10.00">lemons::dsp::Engine</text>
<text text-anchor="middle" x="53" y="-269" font-family="Helvetica,sans-Serif" font-size="10.00">&lt; SampleType &gt;</text>
</a>
</g>
</g>
<!-- Node3&#45;&gt;Node2 -->
<g id="edge2" class="edge">
<title>Node3&#45;&gt;Node2</title>
<path fill="none" stroke="midnightblue" d="M116.37,-281.63C118.94,-281.77 121.5,-281.89 124,-282 260.76,-287.98 295.14,-288.2 432,-285 437.79,-284.86 443.81,-284.68 449.84,-284.46"/>
<polygon fill="midnightblue" stroke="midnightblue" points="116.53,-278.13 106.35,-281.06 116.13,-285.12 116.53,-278.13"/>
</g>
<!-- Node4 -->
<g id="node4" class="node">
<title>Node4</title>
<g id="a_node4"><a xlink:href="classlemons_1_1dsp_1_1_stream_engine.html" target="_top" xlink:title="A utility class that wraps a SampleStream into a self&#45;contained dsp::Engine.">
<polygon fill="none" stroke="black" points="143,-240 143,-270 293,-270 293,-240 143,-240"/>
<text text-anchor="start" x="151" y="-258" font-family="Helvetica,sans-Serif" font-size="10.00">lemons::dsp::StreamEngine</text>
<text text-anchor="middle" x="218" y="-247" font-family="Helvetica,sans-Serif" font-size="10.00">&lt; SampleType, StreamType, &gt;</text>
</a>
</g>
</g>
<!-- Node3&#45;&gt;Node4 -->
<g id="edge4" class="edge">
<title>Node3&#45;&gt;Node4</title>
<path fill="none" stroke="midnightblue" d="M116.13,-268.62C124.88,-267.43 133.95,-266.21 142.89,-265"/>
<polygon fill="midnightblue" stroke="midnightblue" points="115.46,-265.17 106.02,-269.98 116.4,-272.11 115.46,-265.17"/>
</g>
<!-- Node4&#45;&gt;Node2 -->
<g id="edge3" class="edge">
<title>Node4&#45;&gt;Node2</title>
<path fill="none" stroke="orange" stroke-dasharray="5,2" d="M303.2,-262.33C349.58,-266.37 406.37,-271.32 449.84,-275.11"/>
<polygon fill="orange" stroke="orange" points="303.44,-258.84 293.17,-261.46 302.83,-265.81 303.44,-258.84"/>
<text text-anchor="middle" x="371.5" y="-277" font-family="Helvetica,sans-Serif" font-size="10.00"> &lt; SampleType, OscType &gt;</text>
</g>
</g>
</svg>
