<?xml version="1.0" encoding="UTF-8" standalone="no"?>
<!DOCTYPE svg PUBLIC "-//W3C//DTD SVG 1.1//EN"
 "http://www.w3.org/Graphics/SVG/1.1/DTD/svg11.dtd">
<!-- Generated by graphviz version 2.50.0 (20211204.2007)
 -->
<!-- Title: lemons::dsp::psola::RatioShifter&lt; SampleType &gt; Pages: 1 -->
<svg width="154pt" height="173pt"
 viewBox="0.00 0.00 154.00 173.00" xmlns="http://www.w3.org/2000/svg" xmlns:xlink="http://www.w3.org/1999/xlink">
<g id="graph0" class="graph" transform="scale(1 1) rotate(0) translate(4 169)">
<title>lemons::dsp::psola::RatioShifter&lt; SampleType &gt;</title>
<!-- Node1 -->
<g id="node1" class="node">
<title>Node1</title>
<g id="a_node1"><a xlink:title=" ">
<polygon fill="#bfbfbf" stroke="black" points="0,-0.5 0,-30.5 146,-30.5 146,-0.5 0,-0.5"/>
<text text-anchor="start" x="8" y="-18.5" font-family="Helvetica,sans-Serif" font-size="10.00">lemons::dsp::psola</text>
<text text-anchor="middle" x="73" y="-7.5" font-family="Helvetica,sans-Serif" font-size="10.00">::RatioShifter&lt; SampleType &gt;</text>
</a>
</g>
</g>
<!-- Node2 -->
<g id="node2" class="node">
<title>Node2</title>
<g id="a_node2"><a xlink:href="classlemons_1_1dsp_1_1psola_1_1_shifter.html" target="_top" xlink:title="A class that repitches a stream of monophonic audio using PSOLA&#45;like techniques.">
<polygon fill="none" stroke="black" points="11.5,-67.5 11.5,-97.5 134.5,-97.5 134.5,-67.5 11.5,-67.5"/>
<text text-anchor="start" x="19.5" y="-85.5" font-family="Helvetica,sans-Serif" font-size="10.00">lemons::dsp::psola</text>
<text text-anchor="middle" x="73" y="-74.5" font-family="Helvetica,sans-Serif" font-size="10.00">::Shifter&lt; SampleType &gt;</text>
</a>
</g>
</g>
<!-- Node2&#45;&gt;Node1 -->
<g id="edge1" class="edge">
<title>Node2&#45;&gt;Node1</title>
<path fill="none" stroke="midnightblue" d="M73,-57.11C73,-48.15 73,-38.32 73,-30.58"/>
<polygon fill="midnightblue" stroke="midnightblue" points="69.5,-57.4 73,-67.4 76.5,-57.4 69.5,-57.4"/>
</g>
<!-- Node3 -->
<g id="node3" class="node">
<title>Node3</title>
<g id="a_node3"><a xlink:href="structlemons_1_1dsp_1_1_sample_stream.html" target="_top" xlink:title="Base class for any object that can output a stream of audio samples, with no audio or MIDI input.">
<polygon fill="none" stroke="black" points="3,-134.5 3,-164.5 143,-164.5 143,-134.5 3,-134.5"/>
<text text-anchor="start" x="11" y="-152.5" font-family="Helvetica,sans-Serif" font-size="10.00">lemons::dsp::SampleStream</text>
<text text-anchor="middle" x="73" y="-141.5" font-family="Helvetica,sans-Serif" font-size="10.00">&lt; SampleType &gt;</text>
</a>
</g>
</g>
<!-- Node3&#45;&gt;Node2 -->
<g id="edge2" class="edge">
<title>Node3&#45;&gt;Node2</title>
<path fill="none" stroke="midnightblue" d="M73,-124.11C73,-115.15 73,-105.32 73,-97.58"/>
<polygon fill="midnightblue" stroke="midnightblue" points="69.5,-124.4 73,-134.4 76.5,-124.4 69.5,-124.4"/>
</g>
</g>
</svg>
