<?xml version="1.0" encoding="UTF-8" standalone="no"?>
<!DOCTYPE svg PUBLIC "-//W3C//DTD SVG 1.1//EN"
 "http://www.w3.org/Graphics/SVG/1.1/DTD/svg11.dtd">
<!-- Generated by graphviz version 2.49.1 (20210923.0004)
 -->
<!-- Title: lemons::plugin::ProcessorBase Pages: 1 -->
<svg width="322pt" height="151pt"
 viewBox="0.00 0.00 321.50 151.00" xmlns="http://www.w3.org/2000/svg" xmlns:xlink="http://www.w3.org/1999/xlink">
<g id="graph0" class="graph" transform="scale(1 1) rotate(0) translate(4 147)">
<title>lemons::plugin::ProcessorBase</title>
<!-- Node1 -->
<g id="node1" class="node">
<title>Node1</title>
<g id="a_node1"><a xlink:title="Base class for a plugin processor.">
<polygon fill="#bfbfbf" stroke="black" points="90,-67.5 90,-86.5 244,-86.5 244,-67.5 90,-67.5"/>
<text text-anchor="middle" x="167" y="-74.5" font-family="Helvetica,sans-Serif" font-size="10.00">lemons::plugin::ProcessorBase</text>
</a>
</g>
</g>
<!-- Node4 -->
<g id="node4" class="node">
<title>Node4</title>
<g id="a_node4"><a xlink:href="classlemons_1_1plugin_1_1Processor.html" target="_top" xlink:title="A processor class for a plugin that can simply be told the state type and engine type,...">
<polygon fill="none" stroke="black" points="95.5,-0.5 95.5,-30.5 238.5,-30.5 238.5,-0.5 95.5,-0.5"/>
<text text-anchor="start" x="103.5" y="-18.5" font-family="Helvetica,sans-Serif" font-size="10.00">lemons::plugin::Processor</text>
<text text-anchor="middle" x="167" y="-7.5" font-family="Helvetica,sans-Serif" font-size="10.00">&lt; StateType, EngineType,, &gt;</text>
</a>
</g>
</g>
<!-- Node1&#45;&gt;Node4 -->
<g id="edge3" class="edge">
<title>Node1&#45;&gt;Node4</title>
<path fill="none" stroke="midnightblue" d="M167,-57.23C167,-48.59 167,-38.5 167,-30.52"/>
<polygon fill="midnightblue" stroke="midnightblue" points="163.5,-57.48 167,-67.48 170.5,-57.48 163.5,-57.48"/>
</g>
<!-- Node2 -->
<g id="node2" class="node">
<title>Node2</title>
<g id="a_node2"><a xlink:href="classlemons_1_1dsp_1_1BasicProcessorBase.html" target="_top" xlink:title="A default implementation of a basic, generic juce AudioProcessor.">
<polygon fill="none" stroke="black" points="0,-123.5 0,-142.5 168,-142.5 168,-123.5 0,-123.5"/>
<text text-anchor="middle" x="84" y="-130.5" font-family="Helvetica,sans-Serif" font-size="10.00">lemons::dsp::BasicProcessorBase</text>
</a>
</g>
</g>
<!-- Node2&#45;&gt;Node1 -->
<g id="edge1" class="edge">
<title>Node2&#45;&gt;Node1</title>
<path fill="none" stroke="midnightblue" d="M106.1,-117.62C121.26,-107.76 140.88,-94.99 153.7,-86.65"/>
<polygon fill="midnightblue" stroke="midnightblue" points="103.81,-114.94 97.34,-123.32 107.63,-120.8 103.81,-114.94"/>
</g>
<!-- Node3 -->
<g id="node3" class="node">
<title>Node3</title>
<g id="a_node3"><a xlink:href="structlemons_1_1SystemInitializer.html" target="_top" xlink:title=" ">
<polygon fill="none" stroke="black" points="186.5,-123.5 186.5,-142.5 313.5,-142.5 313.5,-123.5 186.5,-123.5"/>
<text text-anchor="middle" x="250" y="-130.5" font-family="Helvetica,sans-Serif" font-size="10.00">lemons::SystemInitializer</text>
</a>
</g>
</g>
<!-- Node3&#45;&gt;Node1 -->
<g id="edge2" class="edge">
<title>Node3&#45;&gt;Node1</title>
<path fill="none" stroke="#8b1a1a" d="M227.9,-117.62C212.74,-107.76 193.12,-94.99 180.3,-86.65"/>
<polygon fill="#8b1a1a" stroke="#8b1a1a" points="226.37,-120.8 236.66,-123.32 230.19,-114.94 226.37,-120.8"/>
</g>
</g>
</svg>
