<?xml version="1.0" encoding="UTF-8" standalone="no"?>
<!DOCTYPE svg PUBLIC "-//W3C//DTD SVG 1.1//EN"
 "http://www.w3.org/Graphics/SVG/1.1/DTD/svg11.dtd">
<!-- Generated by graphviz version 2.50.0 (20211204.2007)
 -->
<!-- Title: lemons::dsp::StreamEngine&lt; SampleType, StreamType, &gt; Pages: 1 -->
<svg width="204pt" height="253pt"
 viewBox="0.00 0.00 204.00 253.00" xmlns="http://www.w3.org/2000/svg" xmlns:xlink="http://www.w3.org/1999/xlink">
<g id="graph0" class="graph" transform="scale(1 1) rotate(0) translate(4 249)">
<title>lemons::dsp::StreamEngine&lt; SampleType, StreamType, &gt;</title>
<!-- Node1 -->
<g id="node1" class="node">
<title>Node1</title>
<g id="a_node1"><a xlink:title="A utility class that wraps a SampleStream into a self&#45;contained dsp::Engine.">
<polygon fill="#bfbfbf" stroke="black" points="0,-146.5 0,-176.5 150,-176.5 150,-146.5 0,-146.5"/>
<text text-anchor="start" x="8" y="-164.5" font-family="Helvetica,sans-Serif" font-size="10.00">lemons::dsp::StreamEngine</text>
<text text-anchor="middle" x="75" y="-153.5" font-family="Helvetica,sans-Serif" font-size="10.00">&lt; SampleType, StreamType, &gt;</text>
</a>
</g>
</g>
<!-- Node3 -->
<g id="node3" class="node">
<title>Node3</title>
<g id="a_node3"><a xlink:href="classlemons_1_1dsp_1_1_stream_engine.html" target="_top" xlink:title=" ">
<polygon fill="none" stroke="black" points="6.5,-68.5 6.5,-98.5 143.5,-98.5 143.5,-68.5 6.5,-68.5"/>
<text text-anchor="start" x="14.5" y="-86.5" font-family="Helvetica,sans-Serif" font-size="10.00">lemons::dsp::StreamEngine</text>
<text text-anchor="middle" x="75" y="-75.5" font-family="Helvetica,sans-Serif" font-size="10.00">&lt; SampleType, OscType &gt;</text>
</a>
</g>
</g>
<!-- Node1&#45;&gt;Node3 -->
<g id="edge2" class="edge">
<title>Node1&#45;&gt;Node3</title>
<path fill="none" stroke="orange" stroke-dasharray="5,2" d="M75,-136.09C75,-123.76 75,-109.22 75,-98.73"/>
<polygon fill="orange" stroke="orange" points="71.5,-136.2 75,-146.2 78.5,-136.21 71.5,-136.2"/>
<text text-anchor="middle" x="135.5" y="-120" font-family="Helvetica,sans-Serif" font-size="10.00"> &lt; SampleType, OscType &gt;</text>
</g>
<!-- Node2 -->
<g id="node2" class="node">
<title>Node2</title>
<g id="a_node2"><a xlink:href="classlemons_1_1dsp_1_1_engine.html" target="_top" xlink:title="Base class for an audio engine.">
<polygon fill="none" stroke="black" points="22,-214.5 22,-244.5 128,-244.5 128,-214.5 22,-214.5"/>
<text text-anchor="start" x="30" y="-232.5" font-family="Helvetica,sans-Serif" font-size="10.00">lemons::dsp::Engine</text>
<text text-anchor="middle" x="75" y="-221.5" font-family="Helvetica,sans-Serif" font-size="10.00">&lt; SampleType &gt;</text>
</a>
</g>
</g>
<!-- Node2&#45;&gt;Node1 -->
<g id="edge1" class="edge">
<title>Node2&#45;&gt;Node1</title>
<path fill="none" stroke="midnightblue" d="M75,-204.03C75,-194.86 75,-184.74 75,-176.79"/>
<polygon fill="midnightblue" stroke="midnightblue" points="71.5,-204.18 75,-214.18 78.5,-204.18 71.5,-204.18"/>
</g>
<!-- Node4 -->
<g id="node4" class="node">
<title>Node4</title>
<g id="a_node4"><a xlink:href="classlemons_1_1dsp_1_1osc_1_1_engine.html" target="_top" xlink:title=" ">
<polygon fill="none" stroke="black" points="6.5,-0.5 6.5,-30.5 143.5,-30.5 143.5,-0.5 6.5,-0.5"/>
<text text-anchor="start" x="14.5" y="-18.5" font-family="Helvetica,sans-Serif" font-size="10.00">lemons::dsp::osc::Engine</text>
<text text-anchor="middle" x="75" y="-7.5" font-family="Helvetica,sans-Serif" font-size="10.00">&lt; SampleType, OscType, &gt;</text>
</a>
</g>
</g>
<!-- Node3&#45;&gt;Node4 -->
<g id="edge3" class="edge">
<title>Node3&#45;&gt;Node4</title>
<path fill="none" stroke="midnightblue" d="M75,-58.03C75,-48.86 75,-38.74 75,-30.79"/>
<polygon fill="midnightblue" stroke="midnightblue" points="71.5,-58.18 75,-68.18 78.5,-58.18 71.5,-58.18"/>
</g>
</g>
</svg>
