<?xml version="1.0" encoding="UTF-8" standalone="no"?>
<!DOCTYPE svg PUBLIC "-//W3C//DTD SVG 1.1//EN"
 "http://www.w3.org/Graphics/SVG/1.1/DTD/svg11.dtd">
<!-- Generated by graphviz version 2.49.1 (20210923.0004)
 -->
<!-- Title: lemons::dsp::osc::ChoosableOscillator&lt; SampleType &gt; Pages: 1 -->
<svg width="153pt" height="174pt"
 viewBox="0.00 0.00 153.00 174.00" xmlns="http://www.w3.org/2000/svg" xmlns:xlink="http://www.w3.org/1999/xlink">
<g id="graph0" class="graph" transform="scale(1 1) rotate(0) translate(4 170)">
<title>lemons::dsp::osc::ChoosableOscillator&lt; SampleType &gt;</title>
<!-- Node1 -->
<g id="node1" class="node">
<title>Node1</title>
<g id="a_node1"><a xlink:title="A class that encapsulates together all the kinds of oscillators, and allows you to seamlessly switch ...">
<polygon fill="#bfbfbf" stroke="black" points="0,-78.5 0,-108.5 145,-108.5 145,-78.5 0,-78.5"/>
<text text-anchor="start" x="8" y="-96.5" font-family="Helvetica,sans-Serif" font-size="10.00">lemons::dsp::osc::Choosable</text>
<text text-anchor="middle" x="72.5" y="-85.5" font-family="Helvetica,sans-Serif" font-size="10.00">Oscillator&lt; SampleType &gt;</text>
</a>
</g>
</g>
<!-- Node3 -->
<g id="node3" class="node">
<title>Node3</title>
<g id="a_node3"><a xlink:href="classlemons_1_1dsp_1_1osc_1_1ChoosableOscillator.html" target="_top" xlink:title=" ">
<polygon fill="none" stroke="black" points="0,-0.5 0,-30.5 145,-30.5 145,-0.5 0,-0.5"/>
<text text-anchor="start" x="8" y="-18.5" font-family="Helvetica,sans-Serif" font-size="10.00">lemons::dsp::osc::Choosable</text>
<text text-anchor="middle" x="72.5" y="-7.5" font-family="Helvetica,sans-Serif" font-size="10.00">Oscillator&lt; float &gt;</text>
</a>
</g>
</g>
<!-- Node1&#45;&gt;Node3 -->
<g id="edge2" class="edge">
<title>Node1&#45;&gt;Node3</title>
<path fill="none" stroke="orange" stroke-dasharray="5,2" d="M72.5,-68.09C72.5,-55.76 72.5,-41.22 72.5,-30.73"/>
<polygon fill="orange" stroke="orange" points="69,-68.2 72.5,-78.2 76,-68.21 69,-68.2"/>
<text text-anchor="middle" x="92" y="-52" font-family="Helvetica,sans-Serif" font-size="10.00"> &lt; float &gt;</text>
</g>
<!-- Node2 -->
<g id="node2" class="node">
<title>Node2</title>
<g id="a_node2"><a xlink:href="structlemons_1_1SerializableData.html" target="_top" xlink:title="Base class for any C++ object that needs to be serialized to binary and back.">
<polygon fill="none" stroke="black" points="9,-146.5 9,-165.5 136,-165.5 136,-146.5 9,-146.5"/>
<text text-anchor="middle" x="72.5" y="-153.5" font-family="Helvetica,sans-Serif" font-size="10.00">lemons::SerializableData</text>
</a>
</g>
</g>
<!-- Node2&#45;&gt;Node1 -->
<g id="edge1" class="edge">
<title>Node2&#45;&gt;Node1</title>
<path fill="none" stroke="midnightblue" d="M72.5,-136.22C72.5,-127.36 72.5,-116.96 72.5,-108.76"/>
<polygon fill="midnightblue" stroke="midnightblue" points="69,-136.33 72.5,-146.33 76,-136.33 69,-136.33"/>
</g>
</g>
</svg>
