<?xml version="1.0" encoding="UTF-8" standalone="no"?>
<!DOCTYPE svg PUBLIC "-//W3C//DTD SVG 1.1//EN"
 "http://www.w3.org/Graphics/SVG/1.1/DTD/svg11.dtd">
<!-- Generated by graphviz version 2.49.1 (20210923.0004)
 -->
<!-- Title: lemons::plugin::Parameter Pages: 1 -->
<svg width="1139pt" height="427pt"
 viewBox="0.00 0.00 1139.00 427.00" xmlns="http://www.w3.org/2000/svg" xmlns:xlink="http://www.w3.org/1999/xlink">
<g id="graph0" class="graph" transform="scale(1 1) rotate(0) translate(4 423)">
<title>lemons::plugin::Parameter</title>
<!-- Node1 -->
<g id="node1" class="node">
<title>Node1</title>
<g id="a_node1"><a xlink:title="A plugin parameter class that allows you to use my Serializing API, and has a few other cool bells an...">
<polygon fill="#bfbfbf" stroke="black" points="164,-304 164,-323 297,-323 297,-304 164,-304"/>
<text text-anchor="middle" x="230.5" y="-311" font-family="Helvetica,sans-Serif" font-size="10.00">lemons::plugin::Parameter</text>
</a>
</g>
</g>
<!-- Node3 -->
<g id="node3" class="node">
<title>Node3</title>
<g id="a_node3"><a xlink:href="classlemons_1_1plugin_1_1TypedParameter.html" target="_top" xlink:title=" ">
<polygon fill="none" stroke="black" points="575,-388.5 575,-418.5 735,-418.5 735,-388.5 575,-388.5"/>
<text text-anchor="start" x="583" y="-406.5" font-family="Helvetica,sans-Serif" font-size="10.00">lemons::plugin::TypedParameter</text>
<text text-anchor="middle" x="655" y="-395.5" font-family="Helvetica,sans-Serif" font-size="10.00">&lt; bool &gt;</text>
</a>
</g>
</g>
<!-- Node1&#45;&gt;Node3 -->
<g id="edge2" class="edge">
<title>Node1&#45;&gt;Node3</title>
<path fill="none" stroke="midnightblue" d="M276.52,-325.65C331.72,-340.27 428.25,-364.89 512,-381.5 532.31,-385.53 554.38,-389.26 574.93,-392.46"/>
<polygon fill="midnightblue" stroke="midnightblue" points="277.28,-322.23 266.71,-323.05 275.48,-329 277.28,-322.23"/>
</g>
<!-- Node6 -->
<g id="node6" class="node">
<title>Node6</title>
<g id="a_node6"><a xlink:href="classlemons_1_1plugin_1_1TypedParameter.html" target="_top" xlink:title="A parameter that can be stored as a type other than a float, but still inherits from my Parameter bas...">
<polygon fill="none" stroke="black" points="334,-208.5 334,-238.5 494,-238.5 494,-208.5 334,-208.5"/>
<text text-anchor="start" x="342" y="-226.5" font-family="Helvetica,sans-Serif" font-size="10.00">lemons::plugin::TypedParameter</text>
<text text-anchor="middle" x="414" y="-215.5" font-family="Helvetica,sans-Serif" font-size="10.00">&lt; ValueType &gt;</text>
</a>
</g>
</g>
<!-- Node1&#45;&gt;Node6 -->
<g id="edge5" class="edge">
<title>Node1&#45;&gt;Node6</title>
<path fill="none" stroke="midnightblue" d="M260.14,-299.3C293.52,-282.74 348.46,-255.5 382.59,-238.58"/>
<polygon fill="midnightblue" stroke="midnightblue" points="258.33,-296.29 250.92,-303.87 261.44,-302.56 258.33,-296.29"/>
</g>
<!-- Node2 -->
<g id="node2" class="node">
<title>Node2</title>
<g id="a_node2"><a xlink:href="structlemons_1_1SerializableData.html" target="_top" xlink:title="Base class for any C++ object that needs to be serialized to binary and back.">
<polygon fill="none" stroke="black" points="0,-304 0,-323 127,-323 127,-304 0,-304"/>
<text text-anchor="middle" x="63.5" y="-311" font-family="Helvetica,sans-Serif" font-size="10.00">lemons::SerializableData</text>
</a>
</g>
</g>
<!-- Node2&#45;&gt;Node1 -->
<g id="edge1" class="edge">
<title>Node2&#45;&gt;Node1</title>
<path fill="none" stroke="midnightblue" d="M137.53,-313.5C146.28,-313.5 155.17,-313.5 163.81,-313.5"/>
<polygon fill="midnightblue" stroke="midnightblue" points="137.35,-310 127.35,-313.5 137.35,-317 137.35,-310"/>
</g>
<!-- Node4 -->
<g id="node4" class="node">
<title>Node4</title>
<g id="a_node4"><a xlink:href="structlemons_1_1plugin_1_1BoolParameter.html" target="_top" xlink:title="Helper struct that simplifies the constructor for boolean parameters.">
<polygon fill="none" stroke="black" points="778,-394 778,-413 931,-413 931,-394 778,-394"/>
<text text-anchor="middle" x="854.5" y="-401" font-family="Helvetica,sans-Serif" font-size="10.00">lemons::plugin::BoolParameter</text>
</a>
</g>
</g>
<!-- Node3&#45;&gt;Node4 -->
<g id="edge3" class="edge">
<title>Node3&#45;&gt;Node4</title>
<path fill="none" stroke="midnightblue" d="M745.49,-403.5C756.29,-403.5 767.24,-403.5 777.82,-403.5"/>
<polygon fill="midnightblue" stroke="midnightblue" points="745.19,-400 735.19,-403.5 745.19,-407 745.19,-400"/>
</g>
<!-- Node5 -->
<g id="node5" class="node">
<title>Node5</title>
<g id="a_node5"><a xlink:href="structlemons_1_1plugin_1_1ToggleParameter.html" target="_top" xlink:title="A parameter that represents a boolean on/off toggle.">
<polygon fill="none" stroke="black" points="968,-394 968,-413 1131,-413 1131,-394 968,-394"/>
<text text-anchor="middle" x="1049.5" y="-401" font-family="Helvetica,sans-Serif" font-size="10.00">lemons::plugin::ToggleParameter</text>
</a>
</g>
</g>
<!-- Node4&#45;&gt;Node5 -->
<g id="edge4" class="edge">
<title>Node4&#45;&gt;Node5</title>
<path fill="none" stroke="midnightblue" d="M941.47,-403.5C950.26,-403.5 959.17,-403.5 967.9,-403.5"/>
<polygon fill="midnightblue" stroke="midnightblue" points="941.22,-400 931.22,-403.5 941.22,-407 941.22,-400"/>
</g>
<!-- Node6&#45;&gt;Node3 -->
<g id="edge16" class="edge">
<title>Node6&#45;&gt;Node3</title>
<path fill="none" stroke="orange" stroke-dasharray="5,2" d="M431.6,-247.08C457.11,-281.53 509.32,-345.22 569,-379.5 574.98,-382.94 581.49,-385.91 588.15,-388.47"/>
<polygon fill="orange" stroke="orange" points="434.13,-244.61 425.41,-238.59 428.47,-248.73 434.13,-244.61"/>
<text text-anchor="middle" x="531.5" y="-369.5" font-family="Helvetica,sans-Serif" font-size="10.00"> &lt; bool &gt;</text>
</g>
<!-- Node7 -->
<g id="node7" class="node">
<title>Node7</title>
<g id="a_node7"><a xlink:href="structlemons_1_1plugin_1_1FloatAmountParameter.html" target="_top" xlink:title="A parameter that represents a value in a normalized 0&#45;1 range.">
<polygon fill="none" stroke="black" points="583.5,-339.5 583.5,-369.5 726.5,-369.5 726.5,-339.5 583.5,-339.5"/>
<text text-anchor="start" x="591.5" y="-357.5" font-family="Helvetica,sans-Serif" font-size="10.00">lemons::plugin::FloatAmount</text>
<text text-anchor="middle" x="655" y="-346.5" font-family="Helvetica,sans-Serif" font-size="10.00">Parameter</text>
</a>
</g>
</g>
<!-- Node6&#45;&gt;Node7 -->
<g id="edge6" class="edge">
<title>Node6&#45;&gt;Node7</title>
<path fill="none" stroke="midnightblue" d="M440.87,-245.15C470.26,-268.8 520.46,-306.38 569,-329.5 576.78,-333.2 585.22,-336.48 593.66,-339.35"/>
<polygon fill="midnightblue" stroke="midnightblue" points="442.76,-242.18 432.8,-238.58 438.34,-247.61 442.76,-242.18"/>
</g>
<!-- Node8 -->
<g id="node8" class="node">
<title>Node8</title>
<g id="a_node8"><a xlink:href="structlemons_1_1plugin_1_1FrequencyParameter.html" target="_top" xlink:title="A parameter that represents a frequency in Hz.">
<polygon fill="none" stroke="black" points="588,-290.5 588,-320.5 722,-320.5 722,-290.5 588,-290.5"/>
<text text-anchor="start" x="596" y="-308.5" font-family="Helvetica,sans-Serif" font-size="10.00">lemons::plugin::Frequency</text>
<text text-anchor="middle" x="655" y="-297.5" font-family="Helvetica,sans-Serif" font-size="10.00">Parameter</text>
</a>
</g>
</g>
<!-- Node6&#45;&gt;Node8 -->
<g id="edge7" class="edge">
<title>Node6&#45;&gt;Node8</title>
<path fill="none" stroke="midnightblue" d="M462.81,-242.16C493.07,-253.72 533.11,-268.59 569,-280.5 579.22,-283.89 590.21,-287.3 600.78,-290.45"/>
<polygon fill="midnightblue" stroke="midnightblue" points="463.94,-238.84 453.35,-238.53 461.43,-245.38 463.94,-238.84"/>
</g>
<!-- Node9 -->
<g id="node9" class="node">
<title>Node9</title>
<g id="a_node9"><a xlink:href="structlemons_1_1plugin_1_1GainParameter.html" target="_top" xlink:title="A parameter that represents a gain value in decibels.">
<polygon fill="none" stroke="black" points="578,-252 578,-271 732,-271 732,-252 578,-252"/>
<text text-anchor="middle" x="655" y="-259" font-family="Helvetica,sans-Serif" font-size="10.00">lemons::plugin::GainParameter</text>
</a>
</g>
</g>
<!-- Node6&#45;&gt;Node9 -->
<g id="edge8" class="edge">
<title>Node6&#45;&gt;Node9</title>
<path fill="none" stroke="midnightblue" d="M504.27,-237.69C534.17,-242.45 566.76,-247.63 593.88,-251.94"/>
<polygon fill="midnightblue" stroke="midnightblue" points="504.68,-234.21 494.25,-236.1 503.58,-241.13 504.68,-234.21"/>
</g>
<!-- Node10 -->
<g id="node10" class="node">
<title>Node10</title>
<g id="a_node10"><a xlink:href="structlemons_1_1plugin_1_1MeterParameter.html" target="_top" xlink:title="A parameter that represents a general kind of meter, used for reporting things like level or gain red...">
<polygon fill="none" stroke="black" points="575.5,-214 575.5,-233 734.5,-233 734.5,-214 575.5,-214"/>
<text text-anchor="middle" x="655" y="-221" font-family="Helvetica,sans-Serif" font-size="10.00">lemons::plugin::MeterParameter</text>
</a>
</g>
</g>
<!-- Node6&#45;&gt;Node10 -->
<g id="edge9" class="edge">
<title>Node6&#45;&gt;Node10</title>
<path fill="none" stroke="midnightblue" d="M504.47,-223.5C527.76,-223.5 552.68,-223.5 575.37,-223.5"/>
<polygon fill="midnightblue" stroke="midnightblue" points="504.25,-220 494.25,-223.5 504.25,-227 504.25,-220"/>
</g>
<!-- Node12 -->
<g id="node12" class="node">
<title>Node12</title>
<g id="a_node12"><a xlink:href="structlemons_1_1plugin_1_1MidiPanParameter.html" target="_top" xlink:title="A parameter that represents a MIDI panning value in the range 0 to 127.">
<polygon fill="none" stroke="black" points="570.5,-176 570.5,-195 739.5,-195 739.5,-176 570.5,-176"/>
<text text-anchor="middle" x="655" y="-183" font-family="Helvetica,sans-Serif" font-size="10.00">lemons::plugin::MidiPanParameter</text>
</a>
</g>
</g>
<!-- Node6&#45;&gt;Node12 -->
<g id="edge11" class="edge">
<title>Node6&#45;&gt;Node12</title>
<path fill="none" stroke="midnightblue" d="M504.27,-209.31C534.17,-204.55 566.76,-199.37 593.88,-195.06"/>
<polygon fill="midnightblue" stroke="midnightblue" points="503.58,-205.87 494.25,-210.9 504.68,-212.79 503.58,-205.87"/>
</g>
<!-- Node13 -->
<g id="node13" class="node">
<title>Node13</title>
<g id="a_node13"><a xlink:href="structlemons_1_1plugin_1_1MidiPitchParameter.html" target="_top" xlink:title="A parameter that represents a MIDI pitch.">
<polygon fill="none" stroke="black" points="591.5,-126.5 591.5,-156.5 718.5,-156.5 718.5,-126.5 591.5,-126.5"/>
<text text-anchor="start" x="599.5" y="-144.5" font-family="Helvetica,sans-Serif" font-size="10.00">lemons::plugin::MidiPitch</text>
<text text-anchor="middle" x="655" y="-133.5" font-family="Helvetica,sans-Serif" font-size="10.00">Parameter</text>
</a>
</g>
</g>
<!-- Node6&#45;&gt;Node13 -->
<g id="edge12" class="edge">
<title>Node6&#45;&gt;Node13</title>
<path fill="none" stroke="midnightblue" d="M462.81,-204.84C493.07,-193.28 533.11,-178.41 569,-166.5 579.22,-163.11 590.21,-159.7 600.78,-156.55"/>
<polygon fill="midnightblue" stroke="midnightblue" points="461.43,-201.62 453.35,-208.47 463.94,-208.16 461.43,-201.62"/>
</g>
<!-- Node14 -->
<g id="node14" class="node">
<title>Node14</title>
<g id="a_node14"><a xlink:href="structlemons_1_1plugin_1_1PercentParameter.html" target="_top" xlink:title="A parameter that represents an integer value in the range 0&#45;100.">
<polygon fill="none" stroke="black" points="571,-88 571,-107 739,-107 739,-88 571,-88"/>
<text text-anchor="middle" x="655" y="-95" font-family="Helvetica,sans-Serif" font-size="10.00">lemons::plugin::PercentParameter</text>
</a>
</g>
</g>
<!-- Node6&#45;&gt;Node14 -->
<g id="edge13" class="edge">
<title>Node6&#45;&gt;Node14</title>
<path fill="none" stroke="midnightblue" d="M440.08,-201.42C469.12,-177.02 519.35,-138.29 569,-116.5 577.72,-112.67 587.3,-109.58 596.78,-107.09"/>
<polygon fill="midnightblue" stroke="midnightblue" points="437.46,-199.05 432.12,-208.2 442,-204.38 437.46,-199.05"/>
</g>
<!-- Node15 -->
<g id="node15" class="node">
<title>Node15</title>
<g id="a_node15"><a xlink:href="structlemons_1_1plugin_1_1SecondsParameter.html" target="_top" xlink:title="A parameter that represents a time value in seconds, expressed as a float.">
<polygon fill="none" stroke="black" points="569,-50 569,-69 741,-69 741,-50 569,-50"/>
<text text-anchor="middle" x="655" y="-57" font-family="Helvetica,sans-Serif" font-size="10.00">lemons::plugin::SecondsParameter</text>
</a>
</g>
</g>
<!-- Node6&#45;&gt;Node15 -->
<g id="edge14" class="edge">
<title>Node6&#45;&gt;Node15</title>
<path fill="none" stroke="midnightblue" d="M431.83,-200.04C457.29,-166.61 509.03,-106.23 569,-78.5 577.37,-74.63 586.58,-71.52 595.75,-69.04"/>
<polygon fill="midnightblue" stroke="midnightblue" points="428.83,-198.21 425.65,-208.32 434.44,-202.4 428.83,-198.21"/>
</g>
<!-- Node16 -->
<g id="node16" class="node">
<title>Node16</title>
<g id="a_node16"><a xlink:href="structlemons_1_1plugin_1_1SemitonesParameter.html" target="_top" xlink:title="A parameter that represents a number of semitones, as an integer.">
<polygon fill="none" stroke="black" points="588,-0.5 588,-30.5 722,-30.5 722,-0.5 588,-0.5"/>
<text text-anchor="start" x="596" y="-18.5" font-family="Helvetica,sans-Serif" font-size="10.00">lemons::plugin::Semitones</text>
<text text-anchor="middle" x="655" y="-7.5" font-family="Helvetica,sans-Serif" font-size="10.00">Parameter</text>
</a>
</g>
</g>
<!-- Node6&#45;&gt;Node16 -->
<g id="edge15" class="edge">
<title>Node6&#45;&gt;Node16</title>
<path fill="none" stroke="midnightblue" d="M427.01,-199.47C448.89,-158.59 499.51,-76.43 569,-40.5 576.38,-36.69 584.43,-33.37 592.53,-30.51"/>
<polygon fill="midnightblue" stroke="midnightblue" points="423.84,-197.98 422.3,-208.46 430.04,-201.23 423.84,-197.98"/>
</g>
<!-- Node11 -->
<g id="node11" class="node">
<title>Node11</title>
<g id="a_node11"><a xlink:href="structlemons_1_1plugin_1_1GainMeterParameter.html" target="_top" xlink:title="A parameter that represents a meter displaying values in decibels.">
<polygon fill="none" stroke="black" points="788,-208.5 788,-238.5 921,-238.5 921,-208.5 788,-208.5"/>
<text text-anchor="start" x="796" y="-226.5" font-family="Helvetica,sans-Serif" font-size="10.00">lemons::plugin::GainMeter</text>
<text text-anchor="middle" x="854.5" y="-215.5" font-family="Helvetica,sans-Serif" font-size="10.00">Parameter</text>
</a>
</g>
</g>
<!-- Node10&#45;&gt;Node11 -->
<g id="edge10" class="edge">
<title>Node10&#45;&gt;Node11</title>
<path fill="none" stroke="midnightblue" d="M744.63,-223.5C759.17,-223.5 774,-223.5 787.85,-223.5"/>
<polygon fill="midnightblue" stroke="midnightblue" points="744.62,-220 734.62,-223.5 744.62,-227 744.62,-220"/>
</g>
</g>
</svg>
