<?xml version="1.0" encoding="UTF-8" standalone="no"?>
<!DOCTYPE svg PUBLIC "-//W3C//DTD SVG 1.1//EN"
 "http://www.w3.org/Graphics/SVG/1.1/DTD/svg11.dtd">
<!-- Generated by graphviz version 2.43.0 (0)
 -->
<!-- Title: lemons::plugin::TypedParameter&lt; ValueType &gt; Pages: 1 -->
<svg width="1297pt" height="460pt"
 viewBox="0.00 0.00 1297.00 460.00" xmlns="http://www.w3.org/2000/svg" xmlns:xlink="http://www.w3.org/1999/xlink">
<g id="graph0" class="graph" transform="scale(1 1) rotate(0) translate(4 456)">
<title>lemons::plugin::TypedParameter&lt; ValueType &gt;</title>
<!-- Node1 -->
<g id="node1" class="node">
<title>Node1</title>
<g id="a_node1"><a xlink:title=" ">
<polygon fill="#bfbfbf" stroke="black" points="377,-186.5 377,-216.5 550,-216.5 550,-186.5 377,-186.5"/>
<text text-anchor="start" x="385" y="-204.5" font-family="Helvetica,sans-Serif" font-size="10.00">lemons::plugin::TypedParameter</text>
<text text-anchor="middle" x="463.5" y="-193.5" font-family="Helvetica,sans-Serif" font-size="10.00">&lt; ValueType &gt;</text>
</a>
</g>
</g>
<!-- Node4 -->
<g id="node4" class="node">
<title>Node4</title>
<g id="a_node4"><a xlink:href="classlemons_1_1plugin_1_1_meta_parameter.html" target="_top" xlink:title=" ">
<polygon fill="none" stroke="black" points="641.5,-402.5 641.5,-432.5 811.5,-432.5 811.5,-402.5 641.5,-402.5"/>
<text text-anchor="start" x="649.5" y="-420.5" font-family="Helvetica,sans-Serif" font-size="10.00">lemons::plugin::MetaParameter</text>
<text text-anchor="middle" x="726.5" y="-409.5" font-family="Helvetica,sans-Serif" font-size="10.00">&lt; ValueType &gt;</text>
</a>
</g>
</g>
<!-- Node1&#45;&gt;Node4 -->
<g id="edge3" class="edge">
<title>Node1&#45;&gt;Node4</title>
<path fill="none" stroke="midnightblue" d="M480.61,-225.18C499.58,-252.06 532.99,-296.36 568,-328.5 594.15,-352.51 603.25,-355.76 634,-373.5 652.32,-384.07 673.57,-394.4 690.98,-402.39"/>
<polygon fill="midnightblue" stroke="midnightblue" points="483.33,-222.97 474.74,-216.77 477.59,-226.97 483.33,-222.97"/>
</g>
<!-- Node7 -->
<g id="node7" class="node">
<title>Node7</title>
<g id="a_node7"><a xlink:href="structlemons_1_1plugin_1_1_meter_parameter.html" target="_top" xlink:title=" ">
<polygon fill="none" stroke="black" points="640,-284.5 640,-314.5 813,-314.5 813,-284.5 640,-284.5"/>
<text text-anchor="start" x="648" y="-302.5" font-family="Helvetica,sans-Serif" font-size="10.00">lemons::plugin::MeterParameter</text>
<text text-anchor="middle" x="726.5" y="-291.5" font-family="Helvetica,sans-Serif" font-size="10.00">&lt; ValueType &gt;</text>
</a>
</g>
</g>
<!-- Node1&#45;&gt;Node7 -->
<g id="edge6" class="edge">
<title>Node1&#45;&gt;Node7</title>
<path fill="none" stroke="midnightblue" d="M504.28,-220.96C538.19,-237.04 588.53,-259.72 634,-275.5 643.15,-278.68 652.95,-281.66 662.6,-284.38"/>
<polygon fill="midnightblue" stroke="midnightblue" points="505.7,-217.76 495.16,-216.61 502.68,-224.08 505.7,-217.76"/>
</g>
<!-- Node10 -->
<g id="node10" class="node">
<title>Node10</title>
<g id="a_node10"><a xlink:href="structlemons_1_1plugin_1_1_midi_pan_parameter.html" target="_top" xlink:title=" ">
<polygon fill="none" stroke="black" points="635,-235.5 635,-265.5 818,-265.5 818,-235.5 635,-235.5"/>
<text text-anchor="start" x="643" y="-253.5" font-family="Helvetica,sans-Serif" font-size="10.00">lemons::plugin::MidiPanParameter</text>
<text text-anchor="middle" x="726.5" y="-242.5" font-family="Helvetica,sans-Serif" font-size="10.00">&lt; int &gt;</text>
</a>
</g>
</g>
<!-- Node1&#45;&gt;Node10 -->
<g id="edge9" class="edge">
<title>Node1&#45;&gt;Node10</title>
<path fill="none" stroke="midnightblue" d="M554.49,-218.39C584.09,-223.95 616.77,-230.09 645.57,-235.49"/>
<polygon fill="midnightblue" stroke="midnightblue" points="555.06,-214.94 544.58,-216.53 553.76,-221.82 555.06,-214.94"/>
</g>
<!-- Node11 -->
<g id="node11" class="node">
<title>Node11</title>
<g id="a_node11"><a xlink:href="structlemons_1_1plugin_1_1_midi_pitch_parameter.html" target="_top" xlink:title=" ">
<polygon fill="none" stroke="black" points="656.5,-186.5 656.5,-216.5 796.5,-216.5 796.5,-186.5 656.5,-186.5"/>
<text text-anchor="start" x="664.5" y="-204.5" font-family="Helvetica,sans-Serif" font-size="10.00">lemons::plugin::MidiPitch</text>
<text text-anchor="middle" x="726.5" y="-193.5" font-family="Helvetica,sans-Serif" font-size="10.00">Parameter</text>
</a>
</g>
</g>
<!-- Node1&#45;&gt;Node11 -->
<g id="edge10" class="edge">
<title>Node1&#45;&gt;Node11</title>
<path fill="none" stroke="midnightblue" d="M560.5,-201.5C592.2,-201.5 626.83,-201.5 656.14,-201.5"/>
<polygon fill="midnightblue" stroke="midnightblue" points="560.32,-198 550.32,-201.5 560.32,-205 560.32,-198"/>
</g>
<!-- Node12 -->
<g id="node12" class="node">
<title>Node12</title>
<g id="a_node12"><a xlink:href="structlemons_1_1plugin_1_1_percent_parameter.html" target="_top" xlink:title=" ">
<polygon fill="none" stroke="black" points="635.5,-137.5 635.5,-167.5 817.5,-167.5 817.5,-137.5 635.5,-137.5"/>
<text text-anchor="start" x="643.5" y="-155.5" font-family="Helvetica,sans-Serif" font-size="10.00">lemons::plugin::PercentParameter</text>
<text text-anchor="middle" x="726.5" y="-144.5" font-family="Helvetica,sans-Serif" font-size="10.00">&lt; int &gt;</text>
</a>
</g>
</g>
<!-- Node1&#45;&gt;Node12 -->
<g id="edge11" class="edge">
<title>Node1&#45;&gt;Node12</title>
<path fill="none" stroke="midnightblue" d="M554.49,-184.61C584.09,-179.05 616.77,-172.91 645.57,-167.51"/>
<polygon fill="midnightblue" stroke="midnightblue" points="553.76,-181.18 544.58,-186.47 555.06,-188.06 553.76,-181.18"/>
</g>
<!-- Node13 -->
<g id="node13" class="node">
<title>Node13</title>
<g id="a_node13"><a xlink:href="structlemons_1_1plugin_1_1_seconds_parameter.html" target="_top" xlink:title=" ">
<polygon fill="none" stroke="black" points="634,-99 634,-118 819,-118 819,-99 634,-99"/>
<text text-anchor="middle" x="726.5" y="-106" font-family="Helvetica,sans-Serif" font-size="10.00">lemons::plugin::SecondsParameter</text>
</a>
</g>
</g>
<!-- Node1&#45;&gt;Node13 -->
<g id="edge12" class="edge">
<title>Node1&#45;&gt;Node13</title>
<path fill="none" stroke="midnightblue" d="M502.84,-182.03C536.64,-165.54 587.57,-142.28 634,-127.5 645.59,-123.81 658.25,-120.65 670.35,-118.03"/>
<polygon fill="midnightblue" stroke="midnightblue" points="501.21,-178.93 493.79,-186.49 504.3,-185.21 501.21,-178.93"/>
</g>
<!-- Node14 -->
<g id="node14" class="node">
<title>Node14</title>
<g id="a_node14"><a xlink:href="structlemons_1_1plugin_1_1_semitones_parameter.html" target="_top" xlink:title=" ">
<polygon fill="none" stroke="black" points="653.5,-49.5 653.5,-79.5 799.5,-79.5 799.5,-49.5 653.5,-49.5"/>
<text text-anchor="start" x="661.5" y="-67.5" font-family="Helvetica,sans-Serif" font-size="10.00">lemons::plugin::Semitones</text>
<text text-anchor="middle" x="726.5" y="-56.5" font-family="Helvetica,sans-Serif" font-size="10.00">Parameter</text>
</a>
</g>
</g>
<!-- Node1&#45;&gt;Node14 -->
<g id="edge13" class="edge">
<title>Node1&#45;&gt;Node14</title>
<path fill="none" stroke="midnightblue" d="M490.53,-180.11C522.44,-154.91 579.1,-113.45 634,-89.5 642.6,-85.75 651.91,-82.43 661.19,-79.53"/>
<polygon fill="midnightblue" stroke="midnightblue" points="488.21,-177.48 482.58,-186.45 492.58,-182.95 488.21,-177.48"/>
</g>
<!-- Node15 -->
<g id="node15" class="node">
<title>Node15</title>
<g id="a_node15"><a xlink:href="classlemons_1_1plugin_1_1_typed_parameter.html" target="_top" xlink:title=" ">
<polygon fill="none" stroke="black" points="640,-333.5 640,-363.5 813,-363.5 813,-333.5 640,-333.5"/>
<text text-anchor="start" x="648" y="-351.5" font-family="Helvetica,sans-Serif" font-size="10.00">lemons::plugin::TypedParameter</text>
<text text-anchor="middle" x="726.5" y="-340.5" font-family="Helvetica,sans-Serif" font-size="10.00">&lt; float &gt;</text>
</a>
</g>
</g>
<!-- Node1&#45;&gt;Node15 -->
<g id="edge14" class="edge">
<title>Node1&#45;&gt;Node15</title>
<path fill="none" stroke="orange" stroke-dasharray="5,2" d="M488.7,-223.62C520.01,-251.1 577.29,-297.65 634,-324.5 641.12,-327.87 648.79,-330.82 656.55,-333.39"/>
<polygon fill="orange" stroke="orange" points="490.75,-220.76 480.95,-216.73 486.1,-225.99 490.75,-220.76"/>
<text text-anchor="middle" x="592" y="-316.5" font-family="Helvetica,sans-Serif" font-size="10.00"> &lt; float &gt;</text>
</g>
<!-- Node19 -->
<g id="node19" class="node">
<title>Node19</title>
<g id="a_node19"><a xlink:href="classlemons_1_1plugin_1_1_typed_parameter.html" target="_top" xlink:title=" ">
<polygon fill="none" stroke="black" points="640,-0.5 640,-30.5 813,-30.5 813,-0.5 640,-0.5"/>
<text text-anchor="start" x="648" y="-18.5" font-family="Helvetica,sans-Serif" font-size="10.00">lemons::plugin::TypedParameter</text>
<text text-anchor="middle" x="726.5" y="-7.5" font-family="Helvetica,sans-Serif" font-size="10.00">&lt; bool &gt;</text>
</a>
</g>
</g>
<!-- Node1&#45;&gt;Node19 -->
<g id="edge20" class="edge">
<title>Node1&#45;&gt;Node19</title>
<path fill="none" stroke="orange" stroke-dasharray="5,2" d="M480.5,-178.33C507.37,-141.54 565.41,-70.75 634,-39.5 641.32,-36.16 649.19,-33.23 657.14,-30.66"/>
<polygon fill="orange" stroke="orange" points="477.63,-176.32 474.65,-186.48 483.32,-180.4 477.63,-176.32"/>
<text text-anchor="middle" x="592" y="-84.5" font-family="Helvetica,sans-Serif" font-size="10.00"> &lt; bool &gt;</text>
</g>
<!-- Node2 -->
<g id="node2" class="node">
<title>Node2</title>
<g id="a_node2"><a xlink:href="classlemons_1_1plugin_1_1_parameter.html" target="_top" xlink:title=" ">
<polygon fill="none" stroke="black" points="195,-192 195,-211 340,-211 340,-192 195,-192"/>
<text text-anchor="middle" x="267.5" y="-199" font-family="Helvetica,sans-Serif" font-size="10.00">lemons::plugin::Parameter</text>
</a>
</g>
</g>
<!-- Node2&#45;&gt;Node1 -->
<g id="edge1" class="edge">
<title>Node2&#45;&gt;Node1</title>
<path fill="none" stroke="midnightblue" d="M350.41,-201.5C359.2,-201.5 368.16,-201.5 376.99,-201.5"/>
<polygon fill="midnightblue" stroke="midnightblue" points="350.19,-198 340.19,-201.5 350.19,-205 350.19,-198"/>
</g>
<!-- Node3 -->
<g id="node3" class="node">
<title>Node3</title>
<g id="a_node3"><a xlink:title=" ">
<polygon fill="none" stroke="#bfbfbf" points="0,-192 0,-211 158,-211 158,-192 0,-192"/>
<text text-anchor="middle" x="79" y="-199" font-family="Helvetica,sans-Serif" font-size="10.00">juce::RangedAudioParameter</text>
</a>
</g>
</g>
<!-- Node3&#45;&gt;Node2 -->
<g id="edge2" class="edge">
<title>Node3&#45;&gt;Node2</title>
<path fill="none" stroke="midnightblue" d="M168.06,-201.5C177.01,-201.5 186.01,-201.5 194.75,-201.5"/>
<polygon fill="midnightblue" stroke="midnightblue" points="168.01,-198 158.01,-201.5 168.01,-205 168.01,-198"/>
</g>
<!-- Node5 -->
<g id="node5" class="node">
<title>Node5</title>
<g id="a_node5"><a xlink:href="classlemons_1_1plugin_1_1_meta_parameter.html" target="_top" xlink:title=" ">
<polygon fill="none" stroke="black" points="904.5,-421.5 904.5,-451.5 1074.5,-451.5 1074.5,-421.5 904.5,-421.5"/>
<text text-anchor="start" x="912.5" y="-439.5" font-family="Helvetica,sans-Serif" font-size="10.00">lemons::plugin::MetaParameter</text>
<text text-anchor="middle" x="989.5" y="-428.5" font-family="Helvetica,sans-Serif" font-size="10.00">&lt; float &gt;</text>
</a>
</g>
</g>
<!-- Node4&#45;&gt;Node5 -->
<g id="edge4" class="edge">
<title>Node4&#45;&gt;Node5</title>
<path fill="none" stroke="orange" stroke-dasharray="5,2" d="M821.73,-424.36C848.68,-426.32 877.87,-428.45 904.19,-430.36"/>
<polygon fill="orange" stroke="orange" points="821.75,-420.85 811.52,-423.62 821.24,-427.83 821.75,-420.85"/>
<text text-anchor="middle" x="861" y="-431.5" font-family="Helvetica,sans-Serif" font-size="10.00"> &lt; float &gt;</text>
</g>
<!-- Node6 -->
<g id="node6" class="node">
<title>Node6</title>
<g id="a_node6"><a xlink:href="structlemons_1_1plugin_1_1_l_f_o.html" target="_top" xlink:title=" ">
<polygon fill="none" stroke="black" points="1144.5,-427 1144.5,-446 1257.5,-446 1257.5,-427 1144.5,-427"/>
<text text-anchor="middle" x="1201" y="-434" font-family="Helvetica,sans-Serif" font-size="10.00">lemons::plugin::LFO</text>
</a>
</g>
</g>
<!-- Node5&#45;&gt;Node6 -->
<g id="edge5" class="edge">
<title>Node5&#45;&gt;Node6</title>
<path fill="none" stroke="midnightblue" d="M1084.75,-436.5C1105.08,-436.5 1125.94,-436.5 1144.23,-436.5"/>
<polygon fill="midnightblue" stroke="midnightblue" points="1084.5,-433 1074.5,-436.5 1084.5,-440 1084.5,-433"/>
</g>
<!-- Node8 -->
<g id="node8" class="node">
<title>Node8</title>
<g id="a_node8"><a xlink:href="structlemons_1_1plugin_1_1_meter_parameter.html" target="_top" xlink:title=" ">
<polygon fill="none" stroke="black" points="903,-235.5 903,-265.5 1076,-265.5 1076,-235.5 903,-235.5"/>
<text text-anchor="start" x="911" y="-253.5" font-family="Helvetica,sans-Serif" font-size="10.00">lemons::plugin::MeterParameter</text>
<text text-anchor="middle" x="989.5" y="-242.5" font-family="Helvetica,sans-Serif" font-size="10.00">&lt; float &gt;</text>
</a>
</g>
</g>
<!-- Node7&#45;&gt;Node8 -->
<g id="edge7" class="edge">
<title>Node7&#45;&gt;Node8</title>
<path fill="none" stroke="orange" stroke-dasharray="5,2" d="M811.89,-279.82C814.34,-278.47 816.72,-277.04 819,-275.5 830.07,-268.06 825.09,-257.5 837,-251.5 856.96,-241.44 880.37,-237.94 902.74,-237.77"/>
<polygon fill="orange" stroke="orange" points="810.18,-276.76 802.75,-284.3 813.27,-283.04 810.18,-276.76"/>
<text text-anchor="middle" x="861" y="-254.5" font-family="Helvetica,sans-Serif" font-size="10.00"> &lt; float &gt;</text>
</g>
<!-- Node9 -->
<g id="node9" class="node">
<title>Node9</title>
<g id="a_node9"><a xlink:href="structlemons_1_1plugin_1_1_gain_meter_parameter.html" target="_top" xlink:title=" ">
<polygon fill="none" stroke="black" points="1128,-235.5 1128,-265.5 1274,-265.5 1274,-235.5 1128,-235.5"/>
<text text-anchor="start" x="1136" y="-253.5" font-family="Helvetica,sans-Serif" font-size="10.00">lemons::plugin::GainMeter</text>
<text text-anchor="middle" x="1201" y="-242.5" font-family="Helvetica,sans-Serif" font-size="10.00">Parameter</text>
</a>
</g>
</g>
<!-- Node8&#45;&gt;Node9 -->
<g id="edge8" class="edge">
<title>Node8&#45;&gt;Node9</title>
<path fill="none" stroke="midnightblue" d="M1086.16,-250.5C1100.16,-250.5 1114.39,-250.5 1127.81,-250.5"/>
<polygon fill="midnightblue" stroke="midnightblue" points="1086.01,-247 1076.01,-250.5 1086.01,-254 1086.01,-247"/>
</g>
<!-- Node15&#45;&gt;Node5 -->
<g id="edge18" class="edge">
<title>Node15&#45;&gt;Node5</title>
<path fill="none" stroke="midnightblue" d="M776.86,-367.12C811.87,-380.1 860.09,-397.54 903,-411.5 913.29,-414.85 924.35,-418.24 934.99,-421.39"/>
<polygon fill="midnightblue" stroke="midnightblue" points="777.94,-363.78 767.34,-363.58 775.5,-370.34 777.94,-363.78"/>
</g>
<!-- Node15&#45;&gt;Node8 -->
<g id="edge19" class="edge">
<title>Node15&#45;&gt;Node8</title>
<path fill="none" stroke="midnightblue" d="M803.37,-330.33C808.72,-328.52 813.97,-326.58 819,-324.5 838.97,-316.24 883.15,-284.04 903,-275.5 911.52,-271.83 920.75,-268.51 929.88,-265.58"/>
<polygon fill="midnightblue" stroke="midnightblue" points="802.14,-327.05 793.69,-333.44 804.28,-333.72 802.14,-327.05"/>
</g>
<!-- Node16 -->
<g id="node16" class="node">
<title>Node16</title>
<g id="a_node16"><a xlink:href="structlemons_1_1plugin_1_1_float_amount_parameter.html" target="_top" xlink:title=" ">
<polygon fill="none" stroke="black" points="910.5,-333.5 910.5,-363.5 1068.5,-363.5 1068.5,-333.5 910.5,-333.5"/>
<text text-anchor="start" x="918.5" y="-351.5" font-family="Helvetica,sans-Serif" font-size="10.00">lemons::plugin::FloatAmount</text>
<text text-anchor="middle" x="989.5" y="-340.5" font-family="Helvetica,sans-Serif" font-size="10.00">Parameter</text>
</a>
</g>
</g>
<!-- Node15&#45;&gt;Node16 -->
<g id="edge15" class="edge">
<title>Node15&#45;&gt;Node16</title>
<path fill="none" stroke="midnightblue" d="M823.69,-348.5C852.14,-348.5 882.94,-348.5 910.12,-348.5"/>
<polygon fill="midnightblue" stroke="midnightblue" points="823.32,-345 813.32,-348.5 823.32,-352 823.32,-345"/>
</g>
<!-- Node17 -->
<g id="node17" class="node">
<title>Node17</title>
<g id="a_node17"><a xlink:href="structlemons_1_1plugin_1_1_frequency_parameter.html" target="_top" xlink:title=" ">
<polygon fill="none" stroke="black" points="917,-284.5 917,-314.5 1062,-314.5 1062,-284.5 917,-284.5"/>
<text text-anchor="start" x="925" y="-302.5" font-family="Helvetica,sans-Serif" font-size="10.00">lemons::plugin::Frequency</text>
<text text-anchor="middle" x="989.5" y="-291.5" font-family="Helvetica,sans-Serif" font-size="10.00">Parameter</text>
</a>
</g>
</g>
<!-- Node15&#45;&gt;Node17 -->
<g id="edge16" class="edge">
<title>Node15&#45;&gt;Node17</title>
<path fill="none" stroke="midnightblue" d="M817.54,-331.6C850.05,-325.49 886.28,-318.69 916.99,-312.93"/>
<polygon fill="midnightblue" stroke="midnightblue" points="816.76,-328.18 807.58,-333.47 818.06,-335.06 816.76,-328.18"/>
</g>
<!-- Node18 -->
<g id="node18" class="node">
<title>Node18</title>
<g id="a_node18"><a xlink:href="structlemons_1_1plugin_1_1_gain_parameter.html" target="_top" xlink:title=" ">
<polygon fill="none" stroke="black" points="906,-383 906,-402 1073,-402 1073,-383 906,-383"/>
<text text-anchor="middle" x="989.5" y="-390" font-family="Helvetica,sans-Serif" font-size="10.00">lemons::plugin::GainParameter</text>
</a>
</g>
</g>
<!-- Node15&#45;&gt;Node18 -->
<g id="edge17" class="edge">
<title>Node15&#45;&gt;Node18</title>
<path fill="none" stroke="midnightblue" d="M823.48,-364.68C859.9,-370.82 900.18,-377.61 931.83,-382.95"/>
<polygon fill="midnightblue" stroke="midnightblue" points="823.77,-361.18 813.32,-362.97 822.6,-368.08 823.77,-361.18"/>
</g>
<!-- Node20 -->
<g id="node20" class="node">
<title>Node20</title>
<g id="a_node20"><a xlink:href="structlemons_1_1plugin_1_1_bool_parameter.html" target="_top" xlink:title=" ">
<polygon fill="none" stroke="black" points="906,-6 906,-25 1073,-25 1073,-6 906,-6"/>
<text text-anchor="middle" x="989.5" y="-13" font-family="Helvetica,sans-Serif" font-size="10.00">lemons::plugin::BoolParameter</text>
</a>
</g>
</g>
<!-- Node19&#45;&gt;Node20 -->
<g id="edge21" class="edge">
<title>Node19&#45;&gt;Node20</title>
<path fill="none" stroke="midnightblue" d="M823.55,-15.5C850.52,-15.5 879.61,-15.5 905.73,-15.5"/>
<polygon fill="midnightblue" stroke="midnightblue" points="823.32,-12 813.32,-15.5 823.32,-19 823.32,-12"/>
</g>
<!-- Node21 -->
<g id="node21" class="node">
<title>Node21</title>
<g id="a_node21"><a xlink:href="structlemons_1_1plugin_1_1_toggle_parameter.html" target="_top" xlink:title=" ">
<polygon fill="none" stroke="black" points="1113,-6 1113,-25 1289,-25 1289,-6 1113,-6"/>
<text text-anchor="middle" x="1201" y="-13" font-family="Helvetica,sans-Serif" font-size="10.00">lemons::plugin::ToggleParameter</text>
</a>
</g>
</g>
<!-- Node20&#45;&gt;Node21 -->
<g id="edge22" class="edge">
<title>Node20&#45;&gt;Node21</title>
<path fill="none" stroke="midnightblue" d="M1083.46,-15.5C1093.28,-15.5 1103.24,-15.5 1112.98,-15.5"/>
<polygon fill="midnightblue" stroke="midnightblue" points="1083.3,-12 1073.3,-15.5 1083.3,-19 1083.3,-12"/>
</g>
</g>
</svg>
