<?xml version="1.0" encoding="UTF-8" standalone="no"?>
<!DOCTYPE svg PUBLIC "-//W3C//DTD SVG 1.1//EN"
 "http://www.w3.org/Graphics/SVG/1.1/DTD/svg11.dtd">
<!-- Generated by graphviz version 2.50.0 (20211204.2007)
 -->
<!-- Title: lemons::GuiApp&lt; ContentComponentType, &gt; Pages: 1 -->
<svg width="282pt" height="106pt"
 viewBox="0.00 0.00 281.50 106.00" xmlns="http://www.w3.org/2000/svg" xmlns:xlink="http://www.w3.org/1999/xlink">
<g id="graph0" class="graph" transform="scale(1 1) rotate(0) translate(4 102)">
<title>lemons::GuiApp&lt; ContentComponentType, &gt;</title>
<!-- Node1 -->
<g id="node1" class="node">
<title>Node1</title>
<g id="a_node1"><a xlink:title="Represents the base for a generic GUI app.">
<polygon fill="#bfbfbf" stroke="black" points="41,-0.5 41,-30.5 221,-30.5 221,-0.5 41,-0.5"/>
<text text-anchor="start" x="49" y="-18.5" font-family="Helvetica,sans-Serif" font-size="10.00">lemons::GuiApp&lt; ContentComponent</text>
<text text-anchor="middle" x="131" y="-7.5" font-family="Helvetica,sans-Serif" font-size="10.00">Type, &gt;</text>
</a>
</g>
</g>
<!-- Node2 -->
<g id="node2" class="node">
<title>Node2</title>
<g id="a_node2"><a xlink:title=" ">
<polygon fill="none" stroke="#bfbfbf" points="0,-73 0,-92 116,-92 116,-73 0,-73"/>
<text text-anchor="middle" x="58" y="-80" font-family="Helvetica,sans-Serif" font-size="10.00">juce::JUCEApplication</text>
</a>
</g>
</g>
<!-- Node2&#45;&gt;Node1 -->
<g id="edge1" class="edge">
<title>Node2&#45;&gt;Node1</title>
<path fill="none" stroke="midnightblue" d="M75.49,-65.93C87.56,-55.18 103.48,-41 115.18,-30.59"/>
<polygon fill="midnightblue" stroke="midnightblue" points="72.99,-63.47 67.85,-72.73 77.64,-68.7 72.99,-63.47"/>
</g>
<!-- Node3 -->
<g id="node3" class="node">
<title>Node3</title>
<g id="a_node3"><a xlink:href="structlemons_1_1locale_1_1_translations_initializer.html" target="_top" xlink:title="A struct whose constructor simply calls initializeDefaultTranslations().">
<polygon fill="none" stroke="black" points="134.5,-67.5 134.5,-97.5 273.5,-97.5 273.5,-67.5 134.5,-67.5"/>
<text text-anchor="start" x="142.5" y="-85.5" font-family="Helvetica,sans-Serif" font-size="10.00">lemons::locale::Translations</text>
<text text-anchor="middle" x="204" y="-74.5" font-family="Helvetica,sans-Serif" font-size="10.00">Initializer</text>
</a>
</g>
</g>
<!-- Node3&#45;&gt;Node1 -->
<g id="edge2" class="edge">
<title>Node3&#45;&gt;Node1</title>
<path fill="none" stroke="#8b1a1a" d="M180.53,-60.6C169.5,-50.78 156.66,-39.34 146.81,-30.58"/>
<polygon fill="#8b1a1a" stroke="#8b1a1a" points="178.36,-63.36 188.16,-67.4 183.02,-58.13 178.36,-63.36"/>
</g>
</g>
</svg>
