<?xml version="1.0" encoding="UTF-8" standalone="no"?>
<!DOCTYPE svg PUBLIC "-//W3C//DTD SVG 1.1//EN"
 "http://www.w3.org/Graphics/SVG/1.1/DTD/svg11.dtd">
<!-- Generated by graphviz version 2.50.0 (20211204.2007)
 -->
<!-- Title: lemons::gui::components::OptionalComponent&lt; ComponentType, &gt; Pages: 1 -->
<svg width="676pt" height="51pt"
 viewBox="0.00 0.00 676.00 51.00" xmlns="http://www.w3.org/2000/svg" xmlns:xlink="http://www.w3.org/1999/xlink">
<g id="graph0" class="graph" transform="scale(1 1) rotate(0) translate(4 47)">
<title>lemons::gui::components::OptionalComponent&lt; ComponentType, &gt;</title>
<!-- Node1 -->
<g id="node1" class="node">
<title>Node1</title>
<g id="a_node1"><a xlink:title=" ">
<polygon fill="#bfbfbf" stroke="black" points="104,-0.5 104,-41.5 272,-41.5 272,-0.5 104,-0.5"/>
<text text-anchor="start" x="112" y="-29.5" font-family="Helvetica,sans-Serif" font-size="10.00">lemons::gui::components</text>
<text text-anchor="start" x="112" y="-18.5" font-family="Helvetica,sans-Serif" font-size="10.00">::OptionalComponent&lt; Component</text>
<text text-anchor="middle" x="188" y="-7.5" font-family="Helvetica,sans-Serif" font-size="10.00">Type, &gt;</text>
</a>
</g>
</g>
<!-- Node3 -->
<g id="node3" class="node">
<title>Node3</title>
<g id="a_node3"><a xlink:href="structlemons_1_1gui_1_1components_1_1_optional_component.html" target="_top" xlink:title=" ">
<polygon fill="none" stroke="black" points="441,-0.5 441,-41.5 668,-41.5 668,-0.5 441,-0.5"/>
<text text-anchor="start" x="449" y="-29.5" font-family="Helvetica,sans-Serif" font-size="10.00">lemons::gui::components</text>
<text text-anchor="start" x="449" y="-18.5" font-family="Helvetica,sans-Serif" font-size="10.00">::OptionalComponent&lt; lemons</text>
<text text-anchor="middle" x="554.5" y="-7.5" font-family="Helvetica,sans-Serif" font-size="10.00">::gui::components::PluginCategoryComponent &gt;</text>
</a>
</g>
</g>
<!-- Node1&#45;&gt;Node3 -->
<g id="edge2" class="edge">
<title>Node1&#45;&gt;Node3</title>
<path fill="none" stroke="orange" stroke-dasharray="5,2" d="M282.31,-21C330.67,-21 390.1,-21 440.99,-21"/>
<polygon fill="orange" stroke="orange" points="282.17,-17.5 272.17,-21 282.17,-24.5 282.17,-17.5"/>
<text text-anchor="start" x="290" y="-35" font-family="Helvetica,sans-Serif" font-size="10.00"> &lt; lemons::gui::components</text>
<text text-anchor="middle" x="356.5" y="-24" font-family="Helvetica,sans-Serif" font-size="10.00">::PluginCategoryComponent &gt;</text>
</g>
<!-- Node2 -->
<g id="node2" class="node">
<title>Node2</title>
<g id="a_node2"><a xlink:title=" ">
<polygon fill="none" stroke="black" points="0,-11.5 0,-30.5 67,-30.5 67,-11.5 0,-11.5"/>
<text text-anchor="middle" x="33.5" y="-18.5" font-family="Helvetica,sans-Serif" font-size="10.00">Component</text>
</a>
</g>
</g>
<!-- Node2&#45;&gt;Node1 -->
<g id="edge1" class="edge">
<title>Node2&#45;&gt;Node1</title>
<path fill="none" stroke="midnightblue" d="M77.39,-21C85.74,-21 94.75,-21 103.9,-21"/>
<polygon fill="midnightblue" stroke="midnightblue" points="77.22,-17.5 67.22,-21 77.22,-24.5 77.22,-17.5"/>
</g>
</g>
</svg>
