<?xml version="1.0" encoding="UTF-8" standalone="no"?>
<!DOCTYPE svg PUBLIC "-//W3C//DTD SVG 1.1//EN"
 "http://www.w3.org/Graphics/SVG/1.1/DTD/svg11.dtd">
<!-- Generated by graphviz version 2.49.1 (20210923.0004)
 -->
<!-- Title: lemons::plugin::ParamHolderBase Pages: 1 -->
<svg width="847pt" height="61pt"
 viewBox="0.00 0.00 847.00 61.00" xmlns="http://www.w3.org/2000/svg" xmlns:xlink="http://www.w3.org/1999/xlink">
<g id="graph0" class="graph" transform="scale(1 1) rotate(0) translate(4 57)">
<title>lemons::plugin::ParamHolderBase</title>
<!-- Node1 -->
<g id="node1" class="node">
<title>Node1</title>
<g id="a_node1"><a xlink:title="Base class for ParameterHolder that allows any kind of parameter to be accessed without knowing the f...">
<polygon fill="#bfbfbf" stroke="black" points="164,-28 164,-47 332,-47 332,-28 164,-28"/>
<text text-anchor="middle" x="248" y="-35" font-family="Helvetica,sans-Serif" font-size="10.00">lemons::plugin::ParamHolderBase</text>
</a>
</g>
</g>
<!-- Node3 -->
<g id="node3" class="node">
<title>Node3</title>
<g id="a_node3"><a xlink:href="classlemons_1_1plugin_1_1ParameterHolder.html" target="_top" xlink:title=" ">
<polygon fill="none" stroke="black" points="667,-22.5 667,-52.5 839,-52.5 839,-22.5 667,-22.5"/>
<text text-anchor="start" x="675" y="-40.5" font-family="Helvetica,sans-Serif" font-size="10.00">lemons::plugin::Parameter</text>
<text text-anchor="middle" x="753" y="-29.5" font-family="Helvetica,sans-Serif" font-size="10.00">Holder&lt; plugin::ToggleParameter &gt;</text>
</a>
</g>
</g>
<!-- Node1&#45;&gt;Node3 -->
<g id="edge2" class="edge">
<title>Node1&#45;&gt;Node3</title>
<path fill="none" stroke="midnightblue" d="M342.33,-42.46C423.42,-46.04 544,-49.57 649,-45.5 654.82,-45.27 660.83,-44.98 666.88,-44.63"/>
<polygon fill="midnightblue" stroke="midnightblue" points="342.3,-38.96 332.15,-42.01 341.98,-45.95 342.3,-38.96"/>
</g>
<!-- Node4 -->
<g id="node4" class="node">
<title>Node4</title>
<g id="a_node4"><a xlink:href="classlemons_1_1plugin_1_1ParameterHolder.html" target="_top" xlink:title="Class that holds a parameter object, and can retain a reference to it after it has been added to an A...">
<polygon fill="none" stroke="black" points="369,-0.5 369,-30.5 502,-30.5 502,-0.5 369,-0.5"/>
<text text-anchor="start" x="377" y="-18.5" font-family="Helvetica,sans-Serif" font-size="10.00">lemons::plugin::Parameter</text>
<text text-anchor="middle" x="435.5" y="-7.5" font-family="Helvetica,sans-Serif" font-size="10.00">Holder&lt; ParameterType &gt;</text>
</a>
</g>
</g>
<!-- Node1&#45;&gt;Node4 -->
<g id="edge3" class="edge">
<title>Node1&#45;&gt;Node4</title>
<path fill="none" stroke="midnightblue" d="M339.25,-26.8C349.24,-25.61 359.27,-24.42 368.87,-23.28"/>
<polygon fill="midnightblue" stroke="midnightblue" points="338.8,-23.32 329.28,-27.98 339.63,-30.28 338.8,-23.32"/>
</g>
<!-- Node2 -->
<g id="node2" class="node">
<title>Node2</title>
<g id="a_node2"><a xlink:href="structlemons_1_1SerializableData.html" target="_top" xlink:title="Base class for any C++ object that needs to be serialized to binary and back.">
<polygon fill="none" stroke="black" points="0,-28 0,-47 127,-47 127,-28 0,-28"/>
<text text-anchor="middle" x="63.5" y="-35" font-family="Helvetica,sans-Serif" font-size="10.00">lemons::SerializableData</text>
</a>
</g>
</g>
<!-- Node2&#45;&gt;Node1 -->
<g id="edge1" class="edge">
<title>Node2&#45;&gt;Node1</title>
<path fill="none" stroke="midnightblue" d="M137.21,-37.5C145.98,-37.5 154.99,-37.5 163.89,-37.5"/>
<polygon fill="midnightblue" stroke="midnightblue" points="137.05,-34 127.05,-37.5 137.05,-41 137.05,-34"/>
</g>
<!-- Node4&#45;&gt;Node3 -->
<g id="edge4" class="edge">
<title>Node4&#45;&gt;Node3</title>
<path fill="none" stroke="orange" stroke-dasharray="5,2" d="M512.28,-20.78C558.86,-24.03 618.62,-28.2 666.83,-31.56"/>
<polygon fill="orange" stroke="orange" points="512.47,-17.29 502.26,-20.09 511.99,-24.27 512.47,-17.29"/>
<text text-anchor="middle" x="584.5" y="-33.5" font-family="Helvetica,sans-Serif" font-size="10.00"> &lt; plugin::ToggleParameter &gt;</text>
</g>
</g>
</svg>
