<?xml version="1.0" encoding="UTF-8" standalone="no"?>
<!DOCTYPE svg PUBLIC "-//W3C//DTD SVG 1.1//EN"
 "http://www.w3.org/Graphics/SVG/1.1/DTD/svg11.dtd">
<!-- Generated by graphviz version 2.43.0 (0)
 -->
<!-- Title: lemons::dsp::SampleStream&lt; SampleType &gt; Pages: 1 -->
<svg width="767pt" height="186pt"
 viewBox="0.00 0.00 767.00 186.00" xmlns="http://www.w3.org/2000/svg" xmlns:xlink="http://www.w3.org/1999/xlink">
<g id="graph0" class="graph" transform="scale(1 1) rotate(0) translate(4 182)">
<title>lemons::dsp::SampleStream&lt; SampleType &gt;</title>
<!-- Node1 -->
<g id="node1" class="node">
<title>Node1</title>
<g id="a_node1"><a xlink:title="Base class for any object that can output a stream of audio samples, with no audio or MIDI input.">
<polygon fill="#bfbfbf" stroke="black" points="0,-48.5 0,-78.5 154,-78.5 154,-48.5 0,-48.5"/>
<text text-anchor="start" x="8" y="-66.5" font-family="Helvetica,sans-Serif" font-size="10.00">lemons::dsp::SampleStream</text>
<text text-anchor="middle" x="77" y="-55.5" font-family="Helvetica,sans-Serif" font-size="10.00">&lt; SampleType &gt;</text>
</a>
</g>
</g>
<!-- Node2 -->
<g id="node2" class="node">
<title>Node2</title>
<g id="a_node2"><a xlink:href="structlemons_1_1dsp_1_1_oscillator.html" target="_top" xlink:title="Base class for any kind of oscillator.">
<polygon fill="none" stroke="black" points="219.5,-73.5 219.5,-103.5 347.5,-103.5 347.5,-73.5 219.5,-73.5"/>
<text text-anchor="start" x="227.5" y="-91.5" font-family="Helvetica,sans-Serif" font-size="10.00">lemons::dsp::Oscillator</text>
<text text-anchor="middle" x="283.5" y="-80.5" font-family="Helvetica,sans-Serif" font-size="10.00">&lt; SampleType &gt;</text>
</a>
</g>
</g>
<!-- Node1&#45;&gt;Node2 -->
<g id="edge1" class="edge">
<title>Node1&#45;&gt;Node2</title>
<path fill="none" stroke="midnightblue" d="M164.31,-74.05C182.77,-76.31 201.94,-78.65 219.33,-80.78"/>
<polygon fill="midnightblue" stroke="midnightblue" points="164.5,-70.55 154.15,-72.81 163.65,-77.5 164.5,-70.55"/>
</g>
<!-- Node8 -->
<g id="node8" class="node">
<title>Node8</title>
<g id="a_node8"><a xlink:href="classlemons_1_1dsp_1_1_white_noise_generator.html" target="_top" xlink:title=" ">
<polygon fill="none" stroke="black" points="190,-24.5 190,-54.5 377,-54.5 377,-24.5 190,-24.5"/>
<text text-anchor="start" x="198" y="-42.5" font-family="Helvetica,sans-Serif" font-size="10.00">lemons::dsp::WhiteNoiseGenerator</text>
<text text-anchor="middle" x="283.5" y="-31.5" font-family="Helvetica,sans-Serif" font-size="10.00">&lt; SampleType &gt;</text>
</a>
</g>
</g>
<!-- Node1&#45;&gt;Node8 -->
<g id="edge7" class="edge">
<title>Node1&#45;&gt;Node8</title>
<path fill="none" stroke="midnightblue" d="M164.3,-53.37C172.69,-52.39 181.23,-51.38 189.68,-50.39"/>
<polygon fill="midnightblue" stroke="midnightblue" points="163.67,-49.92 154.15,-54.56 164.49,-56.87 163.67,-49.92"/>
</g>
<!-- Node3 -->
<g id="node3" class="node">
<title>Node3</title>
<g id="a_node3"><a xlink:href="classlemons_1_1dsp_1_1osc_1_1_detunable_base.html" target="_top" xlink:title=" ">
<polygon fill="none" stroke="black" points="413,-147.5 413,-177.5 568,-177.5 568,-147.5 413,-147.5"/>
<text text-anchor="start" x="421" y="-165.5" font-family="Helvetica,sans-Serif" font-size="10.00">lemons::dsp::osc::Detunable</text>
<text text-anchor="middle" x="490.5" y="-154.5" font-family="Helvetica,sans-Serif" font-size="10.00">Base&lt; SampleType &gt;</text>
</a>
</g>
</g>
<!-- Node2&#45;&gt;Node3 -->
<g id="edge2" class="edge">
<title>Node2&#45;&gt;Node3</title>
<path fill="none" stroke="midnightblue" d="M330.72,-107.35C355.05,-117.05 385.48,-128.84 413,-138.5 421.67,-141.54 430.95,-144.61 439.96,-147.49"/>
<polygon fill="midnightblue" stroke="midnightblue" points="331.95,-104.07 321.37,-103.6 329.35,-110.57 331.95,-104.07"/>
</g>
<!-- Node5 -->
<g id="node5" class="node">
<title>Node5</title>
<g id="a_node5"><a xlink:href="structlemons_1_1dsp_1_1osc_1_1_saw.html" target="_top" xlink:title=" ">
<polygon fill="none" stroke="black" points="428,-98.5 428,-128.5 553,-128.5 553,-98.5 428,-98.5"/>
<text text-anchor="start" x="436" y="-116.5" font-family="Helvetica,sans-Serif" font-size="10.00">lemons::dsp::osc::Saw</text>
<text text-anchor="middle" x="490.5" y="-105.5" font-family="Helvetica,sans-Serif" font-size="10.00">&lt; SampleType &gt;</text>
</a>
</g>
</g>
<!-- Node2&#45;&gt;Node5 -->
<g id="edge4" class="edge">
<title>Node2&#45;&gt;Node5</title>
<path fill="none" stroke="midnightblue" d="M357.73,-97.43C380.71,-100.23 405.84,-103.3 427.94,-105.99"/>
<polygon fill="midnightblue" stroke="midnightblue" points="358.03,-93.94 347.68,-96.2 357.18,-100.89 358.03,-93.94"/>
</g>
<!-- Node6 -->
<g id="node6" class="node">
<title>Node6</title>
<g id="a_node6"><a xlink:href="structlemons_1_1dsp_1_1osc_1_1_sine.html" target="_top" xlink:title=" ">
<polygon fill="none" stroke="black" points="428,-49.5 428,-79.5 553,-79.5 553,-49.5 428,-49.5"/>
<text text-anchor="start" x="436" y="-67.5" font-family="Helvetica,sans-Serif" font-size="10.00">lemons::dsp::osc::Sine</text>
<text text-anchor="middle" x="490.5" y="-56.5" font-family="Helvetica,sans-Serif" font-size="10.00">&lt; SampleType &gt;</text>
</a>
</g>
</g>
<!-- Node2&#45;&gt;Node6 -->
<g id="edge5" class="edge">
<title>Node2&#45;&gt;Node6</title>
<path fill="none" stroke="midnightblue" d="M357.73,-79.93C380.71,-77.24 405.84,-74.29 427.94,-71.71"/>
<polygon fill="midnightblue" stroke="midnightblue" points="357.2,-76.46 347.68,-81.1 358.02,-83.42 357.2,-76.46"/>
</g>
<!-- Node7 -->
<g id="node7" class="node">
<title>Node7</title>
<g id="a_node7"><a xlink:href="structlemons_1_1dsp_1_1osc_1_1_square.html" target="_top" xlink:title=" ">
<polygon fill="none" stroke="black" points="421.5,-0.5 421.5,-30.5 559.5,-30.5 559.5,-0.5 421.5,-0.5"/>
<text text-anchor="start" x="429.5" y="-18.5" font-family="Helvetica,sans-Serif" font-size="10.00">lemons::dsp::osc::Square</text>
<text text-anchor="middle" x="490.5" y="-7.5" font-family="Helvetica,sans-Serif" font-size="10.00">&lt; SampleType &gt;</text>
</a>
</g>
</g>
<!-- Node2&#45;&gt;Node7 -->
<g id="edge6" class="edge">
<title>Node2&#45;&gt;Node7</title>
<path fill="none" stroke="midnightblue" d="M357.51,-72.03C364.2,-69.78 370.79,-67.28 377,-64.5 394.55,-56.64 395.7,-48.9 413,-40.5 420.54,-36.84 428.75,-33.52 436.9,-30.59"/>
<polygon fill="midnightblue" stroke="midnightblue" points="356.15,-68.79 347.67,-75.14 358.26,-75.46 356.15,-68.79"/>
</g>
<!-- Node4 -->
<g id="node4" class="node">
<title>Node4</title>
<g id="a_node4"><a xlink:href="classlemons_1_1dsp_1_1osc_1_1_detunable.html" target="_top" xlink:title=" ">
<polygon fill="none" stroke="black" points="604,-147.5 604,-177.5 759,-177.5 759,-147.5 604,-147.5"/>
<text text-anchor="start" x="612" y="-165.5" font-family="Helvetica,sans-Serif" font-size="10.00">lemons::dsp::osc::Detunable</text>
<text text-anchor="middle" x="681.5" y="-154.5" font-family="Helvetica,sans-Serif" font-size="10.00">&lt; SampleType &gt;</text>
</a>
</g>
</g>
<!-- Node3&#45;&gt;Node4 -->
<g id="edge3" class="edge">
<title>Node3&#45;&gt;Node4</title>
<path fill="none" stroke="midnightblue" d="M578.1,-162.5C586.67,-162.5 595.33,-162.5 603.79,-162.5"/>
<polygon fill="midnightblue" stroke="midnightblue" points="578.1,-159 568.1,-162.5 578.1,-166 578.1,-159"/>
</g>
</g>
</svg>
