<?xml version="1.0" encoding="UTF-8" standalone="no"?>
<!DOCTYPE svg PUBLIC "-//W3C//DTD SVG 1.1//EN"
 "http://www.w3.org/Graphics/SVG/1.1/DTD/svg11.dtd">
<!-- Generated by graphviz version 2.43.0 (0)
 -->
<!-- Title: lemons::ConstructedArray&lt; ObjectType &gt; Pages: 1 -->
<svg width="499pt" height="766pt"
 viewBox="0.00 0.00 499.00 766.00" xmlns="http://www.w3.org/2000/svg" xmlns:xlink="http://www.w3.org/1999/xlink">
<g id="graph0" class="graph" transform="scale(1 1) rotate(0) translate(4 762)">
<title>lemons::ConstructedArray&lt; ObjectType &gt;</title>
<!-- Node1 -->
<g id="node1" class="node">
<title>Node1</title>
<g id="a_node1"><a xlink:title="A wrapper around juce::OwnedArray that automatically deletes or creates objects when you resize it.">
<polygon fill="#bfbfbf" stroke="black" points="0,-366 0,-396 143,-396 143,-366 0,-366"/>
<text text-anchor="start" x="8" y="-384" font-family="Helvetica,sans-Serif" font-size="10.00">lemons::ConstructedArray</text>
<text text-anchor="middle" x="71.5" y="-373" font-family="Helvetica,sans-Serif" font-size="10.00">&lt; ObjectType &gt;</text>
</a>
</g>
</g>
<!-- Node2 -->
<g id="node2" class="node">
<title>Node2</title>
<g id="a_node2"><a xlink:href="structlemons_1_1_constructed_array.html" target="_top" xlink:title=" ">
<polygon fill="none" stroke="black" points="327,-700.5 327,-741.5 491,-741.5 491,-700.5 327,-700.5"/>
<text text-anchor="start" x="335" y="-729.5" font-family="Helvetica,sans-Serif" font-size="10.00">lemons::ConstructedArray</text>
<text text-anchor="start" x="335" y="-718.5" font-family="Helvetica,sans-Serif" font-size="10.00">&lt; lemons::dsp::osc::SuperSaw</text>
<text text-anchor="middle" x="409" y="-707.5" font-family="Helvetica,sans-Serif" font-size="10.00">&lt; SampleType &gt; &gt;</text>
</a>
</g>
</g>
<!-- Node1&#45;&gt;Node2 -->
<g id="edge1" class="edge">
<title>Node1&#45;&gt;Node2</title>
<path fill="none" stroke="orange" stroke-dasharray="5,2" d="M75.95,-406.69C85.7,-475.1 115.7,-659.05 161,-697 206.25,-734.9 273.8,-739.11 326.84,-734.83"/>
<polygon fill="orange" stroke="orange" points="79.36,-405.8 74.51,-396.38 72.43,-406.77 79.36,-405.8"/>
<text text-anchor="start" x="161" y="-750" font-family="Helvetica,sans-Serif" font-size="10.00"> &lt; lemons::dsp::osc</text>
<text text-anchor="middle" x="235" y="-739" font-family="Helvetica,sans-Serif" font-size="10.00">::SuperSaw&lt; SampleType &gt; &gt;</text>
</g>
<!-- Node3 -->
<g id="node3" class="node">
<title>Node3</title>
<g id="a_node3"><a xlink:href="structlemons_1_1_constructed_array.html" target="_top" xlink:title=" ">
<polygon fill="none" stroke="black" points="337.5,-640.5 337.5,-681.5 480.5,-681.5 480.5,-640.5 337.5,-640.5"/>
<text text-anchor="start" x="345.5" y="-669.5" font-family="Helvetica,sans-Serif" font-size="10.00">lemons::ConstructedArray</text>
<text text-anchor="start" x="345.5" y="-658.5" font-family="Helvetica,sans-Serif" font-size="10.00">&lt; lemons::dsp::osc::Saw</text>
<text text-anchor="middle" x="409" y="-647.5" font-family="Helvetica,sans-Serif" font-size="10.00">&lt; SampleType &gt; &gt;</text>
</a>
</g>
</g>
<!-- Node1&#45;&gt;Node3 -->
<g id="edge2" class="edge">
<title>Node1&#45;&gt;Node3</title>
<path fill="none" stroke="orange" stroke-dasharray="5,2" d="M73.25,-406.25C76.25,-457.5 90.87,-573.63 161,-630 210.1,-669.46 283.35,-674.04 337.34,-670.66"/>
<polygon fill="orange" stroke="orange" points="76.74,-405.89 72.76,-396.07 69.75,-406.22 76.74,-405.89"/>
<text text-anchor="start" x="175" y="-685" font-family="Helvetica,sans-Serif" font-size="10.00"> &lt; lemons::dsp::osc</text>
<text text-anchor="middle" x="235" y="-674" font-family="Helvetica,sans-Serif" font-size="10.00">::Saw&lt; SampleType &gt; &gt;</text>
</g>
<!-- Node4 -->
<g id="node4" class="node">
<title>Node4</title>
<g id="a_node4"><a xlink:href="structlemons_1_1_constructed_array.html" target="_top" xlink:title=" ">
<polygon fill="none" stroke="black" points="328.5,-591 328.5,-621 489.5,-621 489.5,-591 328.5,-591"/>
<text text-anchor="start" x="336.5" y="-609" font-family="Helvetica,sans-Serif" font-size="10.00">lemons::ConstructedArray</text>
<text text-anchor="middle" x="409" y="-598" font-family="Helvetica,sans-Serif" font-size="10.00">&lt; Osctype&lt; SampleType &gt; &gt;</text>
</a>
</g>
</g>
<!-- Node1&#45;&gt;Node4 -->
<g id="edge3" class="edge">
<title>Node1&#45;&gt;Node4</title>
<path fill="none" stroke="orange" stroke-dasharray="5,2" d="M76.09,-406.3C83.56,-448.78 105.02,-533.86 161,-575 208.71,-610.07 276.09,-616.48 328.43,-614.86"/>
<polygon fill="orange" stroke="orange" points="79.51,-405.53 74.44,-396.23 72.6,-406.66 79.51,-405.53"/>
<text text-anchor="middle" x="235" y="-618" font-family="Helvetica,sans-Serif" font-size="10.00"> &lt; Osctype&lt; SampleType &gt; &gt;</text>
</g>
<!-- Node5 -->
<g id="node5" class="node">
<title>Node5</title>
<g id="a_node5"><a xlink:href="structlemons_1_1_constructed_array.html" target="_top" xlink:title=" ">
<polygon fill="none" stroke="black" points="329,-530.5 329,-571.5 489,-571.5 489,-530.5 329,-530.5"/>
<text text-anchor="start" x="337" y="-559.5" font-family="Helvetica,sans-Serif" font-size="10.00">lemons::ConstructedArray</text>
<text text-anchor="start" x="337" y="-548.5" font-family="Helvetica,sans-Serif" font-size="10.00">&lt; lemons::dsp::CircularBuffer</text>
<text text-anchor="middle" x="409" y="-537.5" font-family="Helvetica,sans-Serif" font-size="10.00">&lt; SampleType &gt; &gt;</text>
</a>
</g>
</g>
<!-- Node1&#45;&gt;Node5 -->
<g id="edge4" class="edge">
<title>Node1&#45;&gt;Node5</title>
<path fill="none" stroke="orange" stroke-dasharray="5,2" d="M82.86,-405.64C96.38,-434.58 122.89,-481.71 161,-506 210.9,-537.8 277.33,-548.53 328.73,-551.59"/>
<polygon fill="orange" stroke="orange" points="85.92,-403.91 78.62,-396.23 79.53,-406.78 85.92,-403.91"/>
<text text-anchor="start" x="161.5" y="-563" font-family="Helvetica,sans-Serif" font-size="10.00"> &lt; lemons::dsp::CircularBuffer</text>
<text text-anchor="middle" x="235" y="-552" font-family="Helvetica,sans-Serif" font-size="10.00">&lt; SampleType &gt; &gt;</text>
</g>
<!-- Node6 -->
<g id="node6" class="node">
<title>Node6</title>
<g id="a_node6"><a xlink:href="structlemons_1_1_constructed_array.html" target="_top" xlink:title=" ">
<polygon fill="none" stroke="black" points="334.5,-470.5 334.5,-511.5 483.5,-511.5 483.5,-470.5 334.5,-470.5"/>
<text text-anchor="start" x="342.5" y="-499.5" font-family="Helvetica,sans-Serif" font-size="10.00">lemons::ConstructedArray</text>
<text text-anchor="start" x="342.5" y="-488.5" font-family="Helvetica,sans-Serif" font-size="10.00">&lt; lemons::dsp::osc::Square</text>
<text text-anchor="middle" x="409" y="-477.5" font-family="Helvetica,sans-Serif" font-size="10.00">&lt; float &gt; &gt;</text>
</a>
</g>
</g>
<!-- Node1&#45;&gt;Node6 -->
<g id="edge5" class="edge">
<title>Node1&#45;&gt;Node6</title>
<path fill="none" stroke="orange" stroke-dasharray="5,2" d="M97.21,-402.59C114.08,-416.21 137.55,-433.04 161,-443 216.49,-466.56 283.93,-478.67 334.31,-484.82"/>
<polygon fill="orange" stroke="orange" points="99.42,-399.88 89.48,-396.21 94.96,-405.28 99.42,-399.88"/>
<text text-anchor="start" x="186.5" y="-494" font-family="Helvetica,sans-Serif" font-size="10.00"> &lt; lemons::dsp::osc</text>
<text text-anchor="middle" x="235" y="-483" font-family="Helvetica,sans-Serif" font-size="10.00">::Square&lt; float &gt; &gt;</text>
</g>
<!-- Node7 -->
<g id="node7" class="node">
<title>Node7</title>
<g id="a_node7"><a xlink:href="structlemons_1_1_constructed_array.html" target="_top" xlink:title=" ">
<polygon fill="none" stroke="black" points="337.5,-421 337.5,-451 480.5,-451 480.5,-421 337.5,-421"/>
<text text-anchor="start" x="345.5" y="-439" font-family="Helvetica,sans-Serif" font-size="10.00">lemons::ConstructedArray</text>
<text text-anchor="middle" x="409" y="-428" font-family="Helvetica,sans-Serif" font-size="10.00">&lt; InterpolatorType &gt;</text>
</a>
</g>
</g>
<!-- Node1&#45;&gt;Node7 -->
<g id="edge6" class="edge">
<title>Node1&#45;&gt;Node7</title>
<path fill="none" stroke="orange" stroke-dasharray="5,2" d="M128.26,-398.93C139.04,-401.96 150.31,-404.82 161,-407 219.91,-419.02 287.81,-426.55 337.5,-430.91"/>
<polygon fill="orange" stroke="orange" points="129.1,-395.53 118.52,-396.12 127.16,-402.26 129.1,-395.53"/>
<text text-anchor="middle" x="235" y="-431" font-family="Helvetica,sans-Serif" font-size="10.00"> &lt; InterpolatorType &gt;</text>
</g>
<!-- Node8 -->
<g id="node8" class="node">
<title>Node8</title>
<g id="a_node8"><a xlink:href="structlemons_1_1_constructed_array.html" target="_top" xlink:title=" ">
<polygon fill="none" stroke="black" points="337.5,-360.5 337.5,-401.5 480.5,-401.5 480.5,-360.5 337.5,-360.5"/>
<text text-anchor="start" x="345.5" y="-389.5" font-family="Helvetica,sans-Serif" font-size="10.00">lemons::ConstructedArray</text>
<text text-anchor="start" x="345.5" y="-378.5" font-family="Helvetica,sans-Serif" font-size="10.00">&lt; lemons::dsp::osc::Sine</text>
<text text-anchor="middle" x="409" y="-367.5" font-family="Helvetica,sans-Serif" font-size="10.00">&lt; float &gt; &gt;</text>
</a>
</g>
</g>
<!-- Node1&#45;&gt;Node8 -->
<g id="edge7" class="edge">
<title>Node1&#45;&gt;Node8</title>
<path fill="none" stroke="orange" stroke-dasharray="5,2" d="M153.5,-381C209.63,-381 283.63,-381 337.36,-381"/>
<polygon fill="orange" stroke="orange" points="153.24,-377.5 143.24,-381 153.24,-384.5 153.24,-377.5"/>
<text text-anchor="start" x="186.5" y="-395" font-family="Helvetica,sans-Serif" font-size="10.00"> &lt; lemons::dsp::osc</text>
<text text-anchor="middle" x="235" y="-384" font-family="Helvetica,sans-Serif" font-size="10.00">::Sine&lt; float &gt; &gt;</text>
</g>
<!-- Node9 -->
<g id="node9" class="node">
<title>Node9</title>
<g id="a_node9"><a xlink:href="structlemons_1_1_constructed_array.html" target="_top" xlink:title=" ">
<polygon fill="none" stroke="black" points="332,-300.5 332,-341.5 486,-341.5 486,-300.5 332,-300.5"/>
<text text-anchor="start" x="340" y="-329.5" font-family="Helvetica,sans-Serif" font-size="10.00">lemons::ConstructedArray</text>
<text text-anchor="start" x="340" y="-318.5" font-family="Helvetica,sans-Serif" font-size="10.00">&lt; lemons::dsp::osc::Triangle</text>
<text text-anchor="middle" x="409" y="-307.5" font-family="Helvetica,sans-Serif" font-size="10.00">&lt; float &gt; &gt;</text>
</a>
</g>
</g>
<!-- Node1&#45;&gt;Node9 -->
<g id="edge8" class="edge">
<title>Node1&#45;&gt;Node9</title>
<path fill="none" stroke="orange" stroke-dasharray="5,2" d="M128.65,-363.14C139.32,-360.14 150.45,-357.26 161,-355 217.71,-342.84 282.73,-334.09 331.82,-328.52"/>
<polygon fill="orange" stroke="orange" points="127.65,-359.79 119.01,-365.92 129.59,-366.51 127.65,-359.79"/>
<text text-anchor="start" x="185" y="-369" font-family="Helvetica,sans-Serif" font-size="10.00"> &lt; lemons::dsp::osc</text>
<text text-anchor="middle" x="235" y="-358" font-family="Helvetica,sans-Serif" font-size="10.00">::Triangle&lt; float &gt; &gt;</text>
</g>
<!-- Node10 -->
<g id="node10" class="node">
<title>Node10</title>
<g id="a_node10"><a xlink:href="structlemons_1_1_constructed_array.html" target="_top" xlink:title=" ">
<polygon fill="none" stroke="black" points="332,-240.5 332,-281.5 486,-281.5 486,-240.5 332,-240.5"/>
<text text-anchor="start" x="340" y="-269.5" font-family="Helvetica,sans-Serif" font-size="10.00">lemons::ConstructedArray</text>
<text text-anchor="start" x="340" y="-258.5" font-family="Helvetica,sans-Serif" font-size="10.00">&lt; lemons::dsp::osc::Triangle</text>
<text text-anchor="middle" x="409" y="-247.5" font-family="Helvetica,sans-Serif" font-size="10.00">&lt; SampleType &gt; &gt;</text>
</a>
</g>
</g>
<!-- Node1&#45;&gt;Node10 -->
<g id="edge9" class="edge">
<title>Node1&#45;&gt;Node10</title>
<path fill="none" stroke="orange" stroke-dasharray="5,2" d="M92.49,-358.18C109.07,-340.78 134.18,-317.72 161,-305 214.72,-279.52 281.37,-268.7 331.9,-264.15"/>
<polygon fill="orange" stroke="orange" points="89.74,-356 85.5,-365.72 94.87,-360.76 89.74,-356"/>
<text text-anchor="start" x="166" y="-319" font-family="Helvetica,sans-Serif" font-size="10.00"> &lt; lemons::dsp::osc</text>
<text text-anchor="middle" x="235" y="-308" font-family="Helvetica,sans-Serif" font-size="10.00">::Triangle&lt; SampleType &gt; &gt;</text>
</g>
<!-- Node11 -->
<g id="node11" class="node">
<title>Node11</title>
<g id="a_node11"><a xlink:href="structlemons_1_1_constructed_array.html" target="_top" xlink:title=" ">
<polygon fill="none" stroke="black" points="337.5,-180.5 337.5,-221.5 480.5,-221.5 480.5,-180.5 337.5,-180.5"/>
<text text-anchor="start" x="345.5" y="-209.5" font-family="Helvetica,sans-Serif" font-size="10.00">lemons::ConstructedArray</text>
<text text-anchor="start" x="345.5" y="-198.5" font-family="Helvetica,sans-Serif" font-size="10.00">&lt; lemons::dsp::osc::Sine</text>
<text text-anchor="middle" x="409" y="-187.5" font-family="Helvetica,sans-Serif" font-size="10.00">&lt; SampleType &gt; &gt;</text>
</a>
</g>
</g>
<!-- Node1&#45;&gt;Node11 -->
<g id="edge10" class="edge">
<title>Node1&#45;&gt;Node11</title>
<path fill="none" stroke="orange" stroke-dasharray="5,2" d="M80.85,-356.18C93.06,-324.01 119,-268.75 161,-241 213.1,-206.58 284.57,-198.2 337.23,-197.47"/>
<polygon fill="orange" stroke="orange" points="77.5,-355.16 77.37,-365.75 84.08,-357.55 77.5,-355.16"/>
<text text-anchor="start" x="174.5" y="-255" font-family="Helvetica,sans-Serif" font-size="10.00"> &lt; lemons::dsp::osc</text>
<text text-anchor="middle" x="235" y="-244" font-family="Helvetica,sans-Serif" font-size="10.00">::Sine&lt; SampleType &gt; &gt;</text>
</g>
<!-- Node12 -->
<g id="node12" class="node">
<title>Node12</title>
<g id="a_node12"><a xlink:href="structlemons_1_1_constructed_array.html" target="_top" xlink:title=" ">
<polygon fill="none" stroke="black" points="337.5,-120.5 337.5,-161.5 480.5,-161.5 480.5,-120.5 337.5,-120.5"/>
<text text-anchor="start" x="345.5" y="-149.5" font-family="Helvetica,sans-Serif" font-size="10.00">lemons::ConstructedArray</text>
<text text-anchor="start" x="345.5" y="-138.5" font-family="Helvetica,sans-Serif" font-size="10.00">&lt; lemons::dsp::osc::Saw</text>
<text text-anchor="middle" x="409" y="-127.5" font-family="Helvetica,sans-Serif" font-size="10.00">&lt; float &gt; &gt;</text>
</a>
</g>
</g>
<!-- Node1&#45;&gt;Node12 -->
<g id="edge11" class="edge">
<title>Node1&#45;&gt;Node12</title>
<path fill="none" stroke="orange" stroke-dasharray="5,2" d="M75.18,-355.71C81.4,-310.72 101.19,-217.24 161,-172 211.07,-134.13 283.83,-129.26 337.43,-132.12"/>
<polygon fill="orange" stroke="orange" points="71.68,-355.44 73.9,-365.8 78.63,-356.32 71.68,-355.44"/>
<text text-anchor="start" x="186.5" y="-186" font-family="Helvetica,sans-Serif" font-size="10.00"> &lt; lemons::dsp::osc</text>
<text text-anchor="middle" x="235" y="-175" font-family="Helvetica,sans-Serif" font-size="10.00">::Saw&lt; float &gt; &gt;</text>
</g>
<!-- Node13 -->
<g id="node13" class="node">
<title>Node13</title>
<g id="a_node13"><a xlink:href="structlemons_1_1_constructed_array.html" target="_top" xlink:title=" ">
<polygon fill="none" stroke="black" points="334.5,-60.5 334.5,-101.5 483.5,-101.5 483.5,-60.5 334.5,-60.5"/>
<text text-anchor="start" x="342.5" y="-89.5" font-family="Helvetica,sans-Serif" font-size="10.00">lemons::ConstructedArray</text>
<text text-anchor="start" x="342.5" y="-78.5" font-family="Helvetica,sans-Serif" font-size="10.00">&lt; lemons::dsp::osc::Square</text>
<text text-anchor="middle" x="409" y="-67.5" font-family="Helvetica,sans-Serif" font-size="10.00">&lt; SampleType &gt; &gt;</text>
</a>
</g>
</g>
<!-- Node1&#45;&gt;Node13 -->
<g id="edge12" class="edge">
<title>Node1&#45;&gt;Node13</title>
<path fill="none" stroke="orange" stroke-dasharray="5,2" d="M72.11,-355.62C72.78,-300.13 82.95,-167.95 161,-105 209.04,-66.26 280.66,-63.36 334.42,-68.32"/>
<polygon fill="orange" stroke="orange" points="68.61,-355.94 72.09,-365.95 75.61,-355.96 68.61,-355.94"/>
<text text-anchor="start" x="168.5" y="-119" font-family="Helvetica,sans-Serif" font-size="10.00"> &lt; lemons::dsp::osc</text>
<text text-anchor="middle" x="235" y="-108" font-family="Helvetica,sans-Serif" font-size="10.00">::Square&lt; SampleType &gt; &gt;</text>
</g>
<!-- Node14 -->
<g id="node14" class="node">
<title>Node14</title>
<g id="a_node14"><a xlink:href="structlemons_1_1_constructed_array.html" target="_top" xlink:title=" ">
<polygon fill="none" stroke="black" points="327,-0.5 327,-41.5 491,-41.5 491,-0.5 327,-0.5"/>
<text text-anchor="start" x="335" y="-29.5" font-family="Helvetica,sans-Serif" font-size="10.00">lemons::ConstructedArray</text>
<text text-anchor="start" x="335" y="-18.5" font-family="Helvetica,sans-Serif" font-size="10.00">&lt; lemons::dsp::osc::SuperSaw</text>
<text text-anchor="middle" x="409" y="-7.5" font-family="Helvetica,sans-Serif" font-size="10.00">&lt; float &gt; &gt;</text>
</a>
</g>
</g>
<!-- Node1&#45;&gt;Node14 -->
<g id="edge13" class="edge">
<title>Node1&#45;&gt;Node14</title>
<path fill="none" stroke="orange" stroke-dasharray="5,2" d="M75.31,-355.65C83.82,-283.76 111.81,-81.16 161,-40 206.19,-2.19 273.75,0.6 326.8,-4.99"/>
<polygon fill="orange" stroke="orange" points="71.82,-355.31 74.15,-365.64 78.78,-356.11 71.82,-355.31"/>
<text text-anchor="start" x="180" y="-54" font-family="Helvetica,sans-Serif" font-size="10.00"> &lt; lemons::dsp::osc</text>
<text text-anchor="middle" x="235" y="-43" font-family="Helvetica,sans-Serif" font-size="10.00">::SuperSaw&lt; float &gt; &gt;</text>
</g>
</g>
</svg>
