<?xml version="1.0" encoding="UTF-8" standalone="no"?>
<!DOCTYPE svg PUBLIC "-//W3C//DTD SVG 1.1//EN"
 "http://www.w3.org/Graphics/SVG/1.1/DTD/svg11.dtd">
<!-- Generated by graphviz version 2.43.0 (0)
 -->
<!-- Title: lemons::SerializableData Pages: 1 -->
<svg width="1036pt" height="684pt"
 viewBox="0.00 0.00 1036.00 684.00" xmlns="http://www.w3.org/2000/svg" xmlns:xlink="http://www.w3.org/1999/xlink">
<g id="graph0" class="graph" transform="scale(1 1) rotate(0) translate(4 680)">
<title>lemons::SerializableData</title>
<!-- Node1 -->
<g id="node1" class="node">
<title>Node1</title>
<g id="a_node1"><a xlink:title=" ">
<polygon fill="#bfbfbf" stroke="black" points="0,-300 0,-319 139,-319 139,-300 0,-300"/>
<text text-anchor="middle" x="69.5" y="-307" font-family="Helvetica,sans-Serif" font-size="10.00">lemons::SerializableData</text>
</a>
</g>
</g>
<!-- Node2 -->
<g id="node2" class="node">
<title>Node2</title>
<g id="a_node2"><a xlink:href="classlemons_1_1dsp_1_1osc_1_1ChoosableOscillator.html" target="_top" xlink:title=" ">
<polygon fill="none" stroke="black" points="188.5,-617.5 188.5,-647.5 343.5,-647.5 343.5,-617.5 188.5,-617.5"/>
<text text-anchor="start" x="196.5" y="-635.5" font-family="Helvetica,sans-Serif" font-size="10.00">lemons::dsp::osc::Choosable</text>
<text text-anchor="middle" x="266" y="-624.5" font-family="Helvetica,sans-Serif" font-size="10.00">Oscillator&lt; float &gt;</text>
</a>
</g>
</g>
<!-- Node1&#45;&gt;Node2 -->
<g id="edge1" class="edge">
<title>Node1&#45;&gt;Node2</title>
<path fill="none" stroke="midnightblue" d="M71.33,-329.44C74.67,-382.97 91.41,-531 175,-608.5 179.03,-612.24 183.58,-615.41 188.44,-618.09"/>
<polygon fill="midnightblue" stroke="midnightblue" points="74.82,-329.05 70.79,-319.25 67.83,-329.42 74.82,-329.05"/>
</g>
<!-- Node3 -->
<g id="node3" class="node">
<title>Node3</title>
<g id="a_node3"><a xlink:href="classlemons_1_1dsp_1_1osc_1_1ChoosableOscillator.html" target="_top" xlink:title=" ">
<polygon fill="none" stroke="black" points="188.5,-568.5 188.5,-598.5 343.5,-598.5 343.5,-568.5 188.5,-568.5"/>
<text text-anchor="start" x="196.5" y="-586.5" font-family="Helvetica,sans-Serif" font-size="10.00">lemons::dsp::osc::Choosable</text>
<text text-anchor="middle" x="266" y="-575.5" font-family="Helvetica,sans-Serif" font-size="10.00">Oscillator&lt; SampleType &gt;</text>
</a>
</g>
</g>
<!-- Node1&#45;&gt;Node3 -->
<g id="edge2" class="edge">
<title>Node1&#45;&gt;Node3</title>
<path fill="none" stroke="midnightblue" d="M72.92,-329.16C79.77,-376.14 103.67,-495.66 175,-558.5 179.38,-562.36 184.31,-565.63 189.54,-568.39"/>
<polygon fill="midnightblue" stroke="midnightblue" points="76.37,-328.53 71.56,-319.09 69.43,-329.47 76.37,-328.53"/>
</g>
<!-- Node4 -->
<g id="node4" class="node">
<title>Node4</title>
<g id="a_node4"><a xlink:href="structlemons_1_1plugin_1_1Dimensions.html" target="_top" xlink:title=" ">
<polygon fill="none" stroke="black" points="190,-530 190,-549 342,-549 342,-530 190,-530"/>
<text text-anchor="middle" x="266" y="-537" font-family="Helvetica,sans-Serif" font-size="10.00">lemons::plugin::Dimensions</text>
</a>
</g>
</g>
<!-- Node1&#45;&gt;Node4 -->
<g id="edge3" class="edge">
<title>Node1&#45;&gt;Node4</title>
<path fill="none" stroke="midnightblue" d="M74.27,-329.27C83.42,-371.53 110.94,-470.84 175,-520.5 179.92,-524.32 185.43,-527.41 191.24,-529.91"/>
<polygon fill="midnightblue" stroke="midnightblue" points="77.68,-328.48 72.25,-319.38 70.83,-329.88 77.68,-328.48"/>
</g>
<!-- Node5 -->
<g id="node5" class="node">
<title>Node5</title>
<g id="a_node5"><a xlink:href="classlemons_1_1plugin_1_1ModulationManager.html" target="_top" xlink:title=" ">
<polygon fill="none" stroke="black" points="191.5,-480.5 191.5,-510.5 340.5,-510.5 340.5,-480.5 191.5,-480.5"/>
<text text-anchor="start" x="199.5" y="-498.5" font-family="Helvetica,sans-Serif" font-size="10.00">lemons::plugin::Modulation</text>
<text text-anchor="middle" x="266" y="-487.5" font-family="Helvetica,sans-Serif" font-size="10.00">Manager</text>
</a>
</g>
</g>
<!-- Node1&#45;&gt;Node5 -->
<g id="edge4" class="edge">
<title>Node1&#45;&gt;Node5</title>
<path fill="none" stroke="midnightblue" d="M77.69,-328.89C91.29,-362.88 124.09,-433.15 175,-470.5 180.23,-474.34 186.02,-477.59 192.07,-480.34"/>
<polygon fill="midnightblue" stroke="midnightblue" points="80.82,-327.28 73.94,-319.22 74.29,-329.81 80.82,-327.28"/>
</g>
<!-- Node6 -->
<g id="node6" class="node">
<title>Node6</title>
<g id="a_node6"><a xlink:href="classlemons_1_1plugin_1_1Parameter.html" target="_top" xlink:title=" ">
<polygon fill="none" stroke="black" points="193.5,-442 193.5,-461 338.5,-461 338.5,-442 193.5,-442"/>
<text text-anchor="middle" x="266" y="-449" font-family="Helvetica,sans-Serif" font-size="10.00">lemons::plugin::Parameter</text>
</a>
</g>
</g>
<!-- Node1&#45;&gt;Node6 -->
<g id="edge5" class="edge">
<title>Node1&#45;&gt;Node6</title>
<path fill="none" stroke="midnightblue" d="M80.75,-327.99C96.97,-355.42 131.26,-406.44 175,-432.5 181.45,-436.34 188.56,-439.41 195.88,-441.87"/>
<polygon fill="midnightblue" stroke="midnightblue" points="83.62,-325.97 75.6,-319.04 77.55,-329.46 83.62,-325.97"/>
</g>
<!-- Node17 -->
<g id="node17" class="node">
<title>Node17</title>
<g id="a_node17"><a xlink:href="classlemons_1_1plugin_1_1ParameterList.html" target="_top" xlink:title=" ">
<polygon fill="none" stroke="black" points="185,-404 185,-423 347,-423 347,-404 185,-404"/>
<text text-anchor="middle" x="266" y="-411" font-family="Helvetica,sans-Serif" font-size="10.00">lemons::plugin::ParameterList</text>
</a>
</g>
</g>
<!-- Node1&#45;&gt;Node17 -->
<g id="edge16" class="edge">
<title>Node1&#45;&gt;Node17</title>
<path fill="none" stroke="midnightblue" d="M86.23,-326.46C105.32,-345.98 139.39,-377.5 175,-394.5 183.07,-398.35 191.92,-401.43 200.81,-403.89"/>
<polygon fill="midnightblue" stroke="midnightblue" points="88.67,-323.96 79.23,-319.15 83.62,-328.8 88.67,-323.96"/>
</g>
<!-- Node18 -->
<g id="node18" class="node">
<title>Node18</title>
<g id="a_node18"><a xlink:href="structlemons_1_1plugin_1_1ParamHolderBase.html" target="_top" xlink:title=" ">
<polygon fill="none" stroke="black" points="175,-366 175,-385 357,-385 357,-366 175,-366"/>
<text text-anchor="middle" x="266" y="-373" font-family="Helvetica,sans-Serif" font-size="10.00">lemons::plugin::ParamHolderBase</text>
</a>
</g>
</g>
<!-- Node1&#45;&gt;Node18 -->
<g id="edge17" class="edge">
<title>Node1&#45;&gt;Node18</title>
<path fill="none" stroke="midnightblue" d="M97.67,-323.67C118.39,-333.99 147.9,-347.66 175,-356.5 186.23,-360.17 198.49,-363.3 210.25,-365.9"/>
<polygon fill="midnightblue" stroke="midnightblue" points="99.03,-320.43 88.53,-319.04 95.87,-326.68 99.03,-320.43"/>
</g>
<!-- Node21 -->
<g id="node21" class="node">
<title>Node21</title>
<g id="a_node21"><a xlink:href="structlemons_1_1plugin_1_1PluginState.html" target="_top" xlink:title=" ">
<polygon fill="none" stroke="black" points="191,-316.5 191,-346.5 341,-346.5 341,-316.5 191,-316.5"/>
<text text-anchor="start" x="199" y="-334.5" font-family="Helvetica,sans-Serif" font-size="10.00">lemons::plugin::PluginState</text>
<text text-anchor="middle" x="266" y="-323.5" font-family="Helvetica,sans-Serif" font-size="10.00">&lt; StateType, &gt;</text>
</a>
</g>
</g>
<!-- Node1&#45;&gt;Node21 -->
<g id="edge20" class="edge">
<title>Node1&#45;&gt;Node21</title>
<path fill="none" stroke="midnightblue" d="M149.41,-318.43C163.07,-319.97 177.23,-321.57 190.77,-323.1"/>
<polygon fill="midnightblue" stroke="midnightblue" points="149.4,-314.9 139.07,-317.26 148.62,-321.86 149.4,-314.9"/>
</g>
<!-- Node22 -->
<g id="node22" class="node">
<title>Node22</title>
<g id="a_node22"><a xlink:href="structlemons_1_1plugin_1_1Preset.html" target="_top" xlink:title=" ">
<polygon fill="none" stroke="black" points="203.5,-278 203.5,-297 328.5,-297 328.5,-278 203.5,-278"/>
<text text-anchor="middle" x="266" y="-285" font-family="Helvetica,sans-Serif" font-size="10.00">lemons::plugin::Preset</text>
</a>
</g>
</g>
<!-- Node1&#45;&gt;Node22 -->
<g id="edge21" class="edge">
<title>Node1&#45;&gt;Node22</title>
<path fill="none" stroke="midnightblue" d="M149.24,-300.59C167.21,-298.56 186.06,-296.43 203.21,-294.49"/>
<polygon fill="midnightblue" stroke="midnightblue" points="148.62,-297.14 139.07,-301.74 149.4,-304.1 148.62,-297.14"/>
</g>
<!-- Node23 -->
<g id="node23" class="node">
<title>Node23</title>
<g id="a_node23"><a xlink:href="classlemons_1_1plugin_1_1StateBase.html" target="_top" xlink:title=" ">
<polygon fill="none" stroke="black" points="194,-240 194,-259 338,-259 338,-240 194,-240"/>
<text text-anchor="middle" x="266" y="-247" font-family="Helvetica,sans-Serif" font-size="10.00">lemons::plugin::StateBase</text>
</a>
</g>
</g>
<!-- Node1&#45;&gt;Node23 -->
<g id="edge22" class="edge">
<title>Node1&#45;&gt;Node23</title>
<path fill="none" stroke="midnightblue" d="M100.94,-296.01C121.54,-287.26 149.54,-276.13 175,-268.5 186.93,-264.93 199.95,-261.77 212.28,-259.1"/>
<polygon fill="midnightblue" stroke="midnightblue" points="99.55,-292.79 91.75,-299.96 102.32,-299.23 99.55,-292.79"/>
</g>
<!-- Node26 -->
<g id="node26" class="node">
<title>Node26</title>
<g id="a_node26"><a xlink:href="structlemons_1_1plugin_1_1StateToggler.html" target="_top" xlink:title=" ">
<polygon fill="none" stroke="black" points="188.5,-202 188.5,-221 343.5,-221 343.5,-202 188.5,-202"/>
<text text-anchor="middle" x="266" y="-209" font-family="Helvetica,sans-Serif" font-size="10.00">lemons::plugin::StateToggler</text>
</a>
</g>
</g>
<!-- Node1&#45;&gt;Node26 -->
<g id="edge25" class="edge">
<title>Node1&#45;&gt;Node26</title>
<path fill="none" stroke="midnightblue" d="M87.65,-292.67C107.16,-274.51 140.78,-246.1 175,-230.5 183.43,-226.66 192.66,-223.58 201.89,-221.12"/>
<polygon fill="midnightblue" stroke="midnightblue" points="85.03,-290.34 80.19,-299.76 89.85,-295.41 85.03,-290.34"/>
</g>
<!-- Node27 -->
<g id="node27" class="node">
<title>Node27</title>
<g id="a_node27"><a xlink:href="structlemons_1_1spline_1_1Knot.html" target="_top" xlink:title=" ">
<polygon fill="none" stroke="black" points="208,-164 208,-183 324,-183 324,-164 208,-164"/>
<text text-anchor="middle" x="266" y="-171" font-family="Helvetica,sans-Serif" font-size="10.00">lemons::spline::Knot</text>
</a>
</g>
</g>
<!-- Node1&#45;&gt;Node27 -->
<g id="edge26" class="edge">
<title>Node1&#45;&gt;Node27</title>
<path fill="none" stroke="midnightblue" d="M81.47,-291.14C98.18,-264.88 132.6,-217.05 175,-192.5 184.95,-186.74 196.42,-182.71 207.77,-179.91"/>
<polygon fill="midnightblue" stroke="midnightblue" points="78.42,-289.41 76.13,-299.76 84.37,-293.1 78.42,-289.41"/>
</g>
<!-- Node28 -->
<g id="node28" class="node">
<title>Node28</title>
<g id="a_node28"><a xlink:href="structlemons_1_1spline_1_1Knots.html" target="_top" xlink:title=" ">
<polygon fill="none" stroke="black" points="205,-126 205,-145 327,-145 327,-126 205,-126"/>
<text text-anchor="middle" x="266" y="-133" font-family="Helvetica,sans-Serif" font-size="10.00">lemons::spline::Knots</text>
</a>
</g>
</g>
<!-- Node1&#45;&gt;Node28 -->
<g id="edge27" class="edge">
<title>Node1&#45;&gt;Node28</title>
<path fill="none" stroke="midnightblue" d="M77.67,-290.51C91.24,-257.28 124,-188.86 175,-154.5 183.87,-148.52 194.27,-144.37 204.78,-141.5"/>
<polygon fill="midnightblue" stroke="midnightblue" points="74.35,-289.39 73.93,-299.97 80.86,-291.95 74.35,-289.39"/>
</g>
<!-- Node29 -->
<g id="node29" class="node">
<title>Node29</title>
<g id="a_node29"><a xlink:href="structlemons_1_1spline_1_1Spline.html" target="_top" xlink:title=" ">
<polygon fill="none" stroke="black" points="204,-88 204,-107 328,-107 328,-88 204,-88"/>
<text text-anchor="middle" x="266" y="-95" font-family="Helvetica,sans-Serif" font-size="10.00">lemons::spline::Spline</text>
</a>
</g>
</g>
<!-- Node1&#45;&gt;Node29 -->
<g id="edge28" class="edge">
<title>Node1&#45;&gt;Node29</title>
<path fill="none" stroke="midnightblue" d="M75.23,-289.79C85.81,-250.22 115.27,-161.09 175,-116.5 183.45,-110.19 193.52,-105.88 203.82,-102.94"/>
<polygon fill="midnightblue" stroke="midnightblue" points="71.82,-289 72.74,-299.56 78.6,-290.73 71.82,-289"/>
</g>
<!-- Node30 -->
<g id="node30" class="node">
<title>Node30</title>
<g id="a_node30"><a xlink:href="structlemons_1_1Version.html" target="_top" xlink:title=" ">
<polygon fill="none" stroke="black" points="218.5,-50 218.5,-69 313.5,-69 313.5,-50 218.5,-50"/>
<text text-anchor="middle" x="266" y="-57" font-family="Helvetica,sans-Serif" font-size="10.00">lemons::Version</text>
</a>
</g>
</g>
<!-- Node1&#45;&gt;Node30 -->
<g id="edge29" class="edge">
<title>Node1&#45;&gt;Node30</title>
<path fill="none" stroke="midnightblue" d="M73.35,-289.75C80.95,-244.69 106.05,-133.92 175,-78.5 187.2,-68.7 203.25,-63.61 218.41,-61.07"/>
<polygon fill="midnightblue" stroke="midnightblue" points="69.88,-289.29 71.78,-299.72 76.8,-290.38 69.88,-289.29"/>
</g>
<!-- Node31 -->
<g id="node31" class="node">
<title>Node31</title>
<g id="a_node31"><a xlink:href="structlemons_1_1plugin_1_1PluginState.html" target="_top" xlink:title=" ">
<polygon fill="none" stroke="black" points="191,-0.5 191,-30.5 341,-30.5 341,-0.5 191,-0.5"/>
<text text-anchor="start" x="199" y="-18.5" font-family="Helvetica,sans-Serif" font-size="10.00">lemons::plugin::PluginState</text>
<text text-anchor="middle" x="266" y="-7.5" font-family="Helvetica,sans-Serif" font-size="10.00">&lt; StateType &gt;</text>
</a>
</g>
</g>
<!-- Node1&#45;&gt;Node31 -->
<g id="edge30" class="edge">
<title>Node1&#45;&gt;Node31</title>
<path fill="none" stroke="midnightblue" d="M72.22,-289.95C77.64,-240.49 98.84,-109.43 175,-40.5 179.69,-36.26 185.04,-32.72 190.74,-29.79"/>
<polygon fill="midnightblue" stroke="midnightblue" points="68.73,-289.66 71.22,-299.96 75.7,-290.35 68.73,-289.66"/>
</g>
<!-- Node7 -->
<g id="node7" class="node">
<title>Node7</title>
<g id="a_node7"><a xlink:href="classlemons_1_1plugin_1_1TypedParameter.html" target="_top" xlink:title=" ">
<polygon fill="none" stroke="black" points="409,-524.5 409,-554.5 582,-554.5 582,-524.5 409,-524.5"/>
<text text-anchor="start" x="417" y="-542.5" font-family="Helvetica,sans-Serif" font-size="10.00">lemons::plugin::TypedParameter</text>
<text text-anchor="middle" x="495.5" y="-531.5" font-family="Helvetica,sans-Serif" font-size="10.00">&lt; ValueType &gt;</text>
</a>
</g>
</g>
<!-- Node6&#45;&gt;Node7 -->
<g id="edge6" class="edge">
<title>Node6&#45;&gt;Node7</title>
<path fill="none" stroke="midnightblue" d="M329.87,-463.43C339.07,-465.77 348.35,-468.45 357,-471.5 397.56,-485.8 441.67,-509.12 468.71,-524.39"/>
<polygon fill="midnightblue" stroke="midnightblue" points="330.49,-459.98 319.95,-461.04 328.85,-466.79 330.49,-459.98"/>
</g>
<!-- Node14 -->
<g id="node14" class="node">
<title>Node14</title>
<g id="a_node14"><a xlink:href="classlemons_1_1plugin_1_1TypedParameter.html" target="_top" xlink:title=" ">
<polygon fill="none" stroke="black" points="409,-429.5 409,-459.5 582,-459.5 582,-429.5 409,-429.5"/>
<text text-anchor="start" x="417" y="-447.5" font-family="Helvetica,sans-Serif" font-size="10.00">lemons::plugin::TypedParameter</text>
<text text-anchor="middle" x="495.5" y="-436.5" font-family="Helvetica,sans-Serif" font-size="10.00">&lt; bool &gt;</text>
</a>
</g>
</g>
<!-- Node6&#45;&gt;Node14 -->
<g id="edge13" class="edge">
<title>Node6&#45;&gt;Node14</title>
<path fill="none" stroke="midnightblue" d="M348.74,-448.98C368.26,-448.38 389.15,-447.74 408.84,-447.14"/>
<polygon fill="midnightblue" stroke="midnightblue" points="348.56,-445.49 338.67,-449.29 348.77,-452.49 348.56,-445.49"/>
</g>
<!-- Node8 -->
<g id="node8" class="node">
<title>Node8</title>
<g id="a_node8"><a xlink:href="structlemons_1_1plugin_1_1FloatAmountParameter.html" target="_top" xlink:title=" ">
<polygon fill="none" stroke="black" points="646,-645.5 646,-675.5 804,-675.5 804,-645.5 646,-645.5"/>
<text text-anchor="start" x="654" y="-663.5" font-family="Helvetica,sans-Serif" font-size="10.00">lemons::plugin::FloatAmount</text>
<text text-anchor="middle" x="725" y="-652.5" font-family="Helvetica,sans-Serif" font-size="10.00">Parameter&lt; float &gt;</text>
</a>
</g>
</g>
<!-- Node7&#45;&gt;Node8 -->
<g id="edge7" class="edge">
<title>Node7&#45;&gt;Node8</title>
<path fill="none" stroke="midnightblue" d="M521.4,-561.22C547.72,-583.13 591.26,-616.51 634,-636.5 641.18,-639.86 648.9,-642.81 656.71,-645.39"/>
<polygon fill="midnightblue" stroke="midnightblue" points="523.38,-558.31 513.48,-554.53 518.86,-563.66 523.38,-558.31"/>
</g>
<!-- Node9 -->
<g id="node9" class="node">
<title>Node9</title>
<g id="a_node9"><a xlink:href="structlemons_1_1plugin_1_1FrequencyParameter.html" target="_top" xlink:title=" ">
<polygon fill="none" stroke="black" points="652.5,-596.5 652.5,-626.5 797.5,-626.5 797.5,-596.5 652.5,-596.5"/>
<text text-anchor="start" x="660.5" y="-614.5" font-family="Helvetica,sans-Serif" font-size="10.00">lemons::plugin::Frequency</text>
<text text-anchor="middle" x="725" y="-603.5" font-family="Helvetica,sans-Serif" font-size="10.00">Parameter&lt; float &gt;</text>
</a>
</g>
</g>
<!-- Node7&#45;&gt;Node9 -->
<g id="edge8" class="edge">
<title>Node7&#45;&gt;Node9</title>
<path fill="none" stroke="midnightblue" d="M546.75,-558.06C572.66,-567.37 604.85,-578.54 634,-587.5 643.89,-590.54 654.46,-593.56 664.76,-596.38"/>
<polygon fill="midnightblue" stroke="midnightblue" points="547.74,-554.7 537.15,-554.59 545.36,-561.28 547.74,-554.7"/>
</g>
<!-- Node10 -->
<g id="node10" class="node">
<title>Node10</title>
<g id="a_node10"><a xlink:href="structlemons_1_1plugin_1_1GainParameter.html" target="_top" xlink:title=" ">
<polygon fill="none" stroke="black" points="641.5,-547.5 641.5,-577.5 808.5,-577.5 808.5,-547.5 641.5,-547.5"/>
<text text-anchor="start" x="649.5" y="-565.5" font-family="Helvetica,sans-Serif" font-size="10.00">lemons::plugin::GainParameter</text>
<text text-anchor="middle" x="725" y="-554.5" font-family="Helvetica,sans-Serif" font-size="10.00">&lt; float &gt;</text>
</a>
</g>
</g>
<!-- Node7&#45;&gt;Node10 -->
<g id="edge9" class="edge">
<title>Node7&#45;&gt;Node10</title>
<path fill="none" stroke="midnightblue" d="M592.28,-549.18C608.61,-550.83 625.45,-552.54 641.41,-554.15"/>
<polygon fill="midnightblue" stroke="midnightblue" points="592.49,-545.69 582.18,-548.16 591.78,-552.65 592.49,-545.69"/>
</g>
<!-- Node11 -->
<g id="node11" class="node">
<title>Node11</title>
<g id="a_node11"><a xlink:href="structlemons_1_1plugin_1_1MeterParameter.html" target="_top" xlink:title=" ">
<polygon fill="none" stroke="black" points="638.5,-498.5 638.5,-528.5 811.5,-528.5 811.5,-498.5 638.5,-498.5"/>
<text text-anchor="start" x="646.5" y="-516.5" font-family="Helvetica,sans-Serif" font-size="10.00">lemons::plugin::MeterParameter</text>
<text text-anchor="middle" x="725" y="-505.5" font-family="Helvetica,sans-Serif" font-size="10.00">&lt; float &gt;</text>
</a>
</g>
</g>
<!-- Node7&#45;&gt;Node11 -->
<g id="edge10" class="edge">
<title>Node7&#45;&gt;Node11</title>
<path fill="none" stroke="midnightblue" d="M592.19,-528.56C607.52,-526.81 623.31,-525.01 638.39,-523.28"/>
<polygon fill="midnightblue" stroke="midnightblue" points="591.72,-525.09 582.18,-529.71 592.52,-532.05 591.72,-525.09"/>
</g>
<!-- Node13 -->
<g id="node13" class="node">
<title>Node13</title>
<g id="a_node13"><a xlink:href="structlemons_1_1plugin_1_1PercentParameter.html" target="_top" xlink:title=" ">
<polygon fill="none" stroke="black" points="634,-449.5 634,-479.5 816,-479.5 816,-449.5 634,-449.5"/>
<text text-anchor="start" x="642" y="-467.5" font-family="Helvetica,sans-Serif" font-size="10.00">lemons::plugin::PercentParameter</text>
<text text-anchor="middle" x="725" y="-456.5" font-family="Helvetica,sans-Serif" font-size="10.00">&lt; int &gt;</text>
</a>
</g>
</g>
<!-- Node7&#45;&gt;Node13 -->
<g id="edge12" class="edge">
<title>Node7&#45;&gt;Node13</title>
<path fill="none" stroke="midnightblue" d="M545.02,-520.81C571.2,-510.99 604.18,-499.05 634,-489.5 644.66,-486.09 656.11,-482.7 667.15,-479.57"/>
<polygon fill="midnightblue" stroke="midnightblue" points="543.46,-517.66 535.34,-524.46 545.93,-524.21 543.46,-517.66"/>
</g>
<!-- Node12 -->
<g id="node12" class="node">
<title>Node12</title>
<g id="a_node12"><a xlink:href="structlemons_1_1plugin_1_1GainMeterParameter.html" target="_top" xlink:title=" ">
<polygon fill="none" stroke="black" points="867,-498.5 867,-528.5 1013,-528.5 1013,-498.5 867,-498.5"/>
<text text-anchor="start" x="875" y="-516.5" font-family="Helvetica,sans-Serif" font-size="10.00">lemons::plugin::GainMeter</text>
<text text-anchor="middle" x="940" y="-505.5" font-family="Helvetica,sans-Serif" font-size="10.00">Parameter</text>
</a>
</g>
</g>
<!-- Node11&#45;&gt;Node12 -->
<g id="edge11" class="edge">
<title>Node11&#45;&gt;Node12</title>
<path fill="none" stroke="midnightblue" d="M822.06,-513.5C837.1,-513.5 852.41,-513.5 866.79,-513.5"/>
<polygon fill="midnightblue" stroke="midnightblue" points="821.71,-510 811.71,-513.5 821.71,-517 821.71,-510"/>
</g>
<!-- Node15 -->
<g id="node15" class="node">
<title>Node15</title>
<g id="a_node15"><a xlink:href="structlemons_1_1plugin_1_1BoolParameter.html" target="_top" xlink:title=" ">
<polygon fill="none" stroke="black" points="641.5,-411 641.5,-430 808.5,-430 808.5,-411 641.5,-411"/>
<text text-anchor="middle" x="725" y="-418" font-family="Helvetica,sans-Serif" font-size="10.00">lemons::plugin::BoolParameter</text>
</a>
</g>
</g>
<!-- Node14&#45;&gt;Node15 -->
<g id="edge14" class="edge">
<title>Node14&#45;&gt;Node15</title>
<path fill="none" stroke="midnightblue" d="M592.28,-434.4C608.61,-432.67 625.45,-430.9 641.41,-429.21"/>
<polygon fill="midnightblue" stroke="midnightblue" points="591.76,-430.93 582.18,-435.46 592.5,-437.89 591.76,-430.93"/>
</g>
<!-- Node16 -->
<g id="node16" class="node">
<title>Node16</title>
<g id="a_node16"><a xlink:href="structlemons_1_1plugin_1_1ToggleParameter.html" target="_top" xlink:title=" ">
<polygon fill="none" stroke="black" points="852,-411 852,-430 1028,-430 1028,-411 852,-411"/>
<text text-anchor="middle" x="940" y="-418" font-family="Helvetica,sans-Serif" font-size="10.00">lemons::plugin::ToggleParameter</text>
</a>
</g>
</g>
<!-- Node15&#45;&gt;Node16 -->
<g id="edge15" class="edge">
<title>Node15&#45;&gt;Node16</title>
<path fill="none" stroke="midnightblue" d="M818.69,-420.5C829.69,-420.5 840.89,-420.5 851.81,-420.5"/>
<polygon fill="midnightblue" stroke="midnightblue" points="818.66,-417 808.66,-420.5 818.66,-424 818.66,-417"/>
</g>
<!-- Node19 -->
<g id="node19" class="node">
<title>Node19</title>
<g id="a_node19"><a xlink:href="classlemons_1_1plugin_1_1ParameterHolder.html" target="_top" xlink:title=" ">
<polygon fill="none" stroke="black" points="423,-367.5 423,-397.5 568,-397.5 568,-367.5 423,-367.5"/>
<text text-anchor="start" x="431" y="-385.5" font-family="Helvetica,sans-Serif" font-size="10.00">lemons::plugin::Parameter</text>
<text text-anchor="middle" x="495.5" y="-374.5" font-family="Helvetica,sans-Serif" font-size="10.00">Holder&lt; ParameterType &gt;</text>
</a>
</g>
</g>
<!-- Node18&#45;&gt;Node19 -->
<g id="edge18" class="edge">
<title>Node18&#45;&gt;Node19</title>
<path fill="none" stroke="midnightblue" d="M367.29,-378.59C386.04,-379.16 405.29,-379.76 422.96,-380.3"/>
<polygon fill="midnightblue" stroke="midnightblue" points="367.34,-375.09 357.24,-378.28 367.13,-382.08 367.34,-375.09"/>
</g>
<!-- Node20 -->
<g id="node20" class="node">
<title>Node20</title>
<g id="a_node20"><a xlink:href="classlemons_1_1plugin_1_1ParameterHolder.html" target="_top" xlink:title=" ">
<polygon fill="none" stroke="black" points="401,-318.5 401,-348.5 590,-348.5 590,-318.5 401,-318.5"/>
<text text-anchor="start" x="409" y="-336.5" font-family="Helvetica,sans-Serif" font-size="10.00">lemons::plugin::Parameter</text>
<text text-anchor="middle" x="495.5" y="-325.5" font-family="Helvetica,sans-Serif" font-size="10.00">Holder&lt; plugin::ToggleParameter &gt;</text>
</a>
</g>
</g>
<!-- Node18&#45;&gt;Node20 -->
<g id="edge19" class="edge">
<title>Node18&#45;&gt;Node20</title>
<path fill="none" stroke="midnightblue" d="M328.72,-364.11C354.73,-359.3 385.37,-353.65 413.18,-348.51"/>
<polygon fill="midnightblue" stroke="midnightblue" points="327.82,-360.71 318.62,-365.97 329.09,-367.6 327.82,-360.71"/>
</g>
<!-- Node24 -->
<g id="node24" class="node">
<title>Node24</title>
<g id="a_node24"><a xlink:href="structlemons_1_1plugin_1_1CustomState.html" target="_top" xlink:title=" ">
<polygon fill="none" stroke="black" points="393,-248.5 393,-278.5 598,-278.5 598,-248.5 393,-248.5"/>
<text text-anchor="start" x="401" y="-266.5" font-family="Helvetica,sans-Serif" font-size="10.00">lemons::plugin::CustomState</text>
<text text-anchor="middle" x="495.5" y="-255.5" font-family="Helvetica,sans-Serif" font-size="10.00">&lt; ParamListType, CustomDataType,, &gt;</text>
</a>
</g>
</g>
<!-- Node23&#45;&gt;Node24 -->
<g id="edge23" class="edge">
<title>Node23&#45;&gt;Node24</title>
<path fill="none" stroke="midnightblue" d="M348.37,-254.51C362.75,-255.39 377.88,-256.32 392.74,-257.24"/>
<polygon fill="midnightblue" stroke="midnightblue" points="348.24,-250.99 338.05,-253.87 347.81,-257.98 348.24,-250.99"/>
</g>
<!-- Node25 -->
<g id="node25" class="node">
<title>Node25</title>
<g id="a_node25"><a xlink:href="structlemons_1_1plugin_1_1State.html" target="_top" xlink:title=" ">
<polygon fill="none" stroke="black" points="435.5,-199.5 435.5,-229.5 555.5,-229.5 555.5,-199.5 435.5,-199.5"/>
<text text-anchor="start" x="443.5" y="-217.5" font-family="Helvetica,sans-Serif" font-size="10.00">lemons::plugin::State</text>
<text text-anchor="middle" x="495.5" y="-206.5" font-family="Helvetica,sans-Serif" font-size="10.00">&lt; ParamListType, &gt;</text>
</a>
</g>
</g>
<!-- Node23&#45;&gt;Node25 -->
<g id="edge24" class="edge">
<title>Node23&#45;&gt;Node25</title>
<path fill="none" stroke="midnightblue" d="M338.78,-238.46C369.88,-233.67 405.86,-228.14 435.39,-223.59"/>
<polygon fill="midnightblue" stroke="midnightblue" points="338.22,-235 328.86,-239.98 339.28,-241.92 338.22,-235"/>
</g>
</g>
</svg>
