<?xml version="1.0" encoding="UTF-8" standalone="no"?>
<!DOCTYPE svg PUBLIC "-//W3C//DTD SVG 1.1//EN"
 "http://www.w3.org/Graphics/SVG/1.1/DTD/svg11.dtd">
<!-- Generated by graphviz version 2.43.0 (0)
 -->
<!-- Title: lemons::gui::components::ComponentArray&lt; ComponentType, &gt; Pages: 1 -->
<svg width="594pt" height="132pt"
 viewBox="0.00 0.00 594.00 132.00" xmlns="http://www.w3.org/2000/svg" xmlns:xlink="http://www.w3.org/1999/xlink">
<g id="graph0" class="graph" transform="scale(1 1) rotate(0) translate(4 128)">
<title>lemons::gui::components::ComponentArray&lt; ComponentType, &gt;</title>
<!-- Node1 -->
<g id="node1" class="node">
<title>Node1</title>
<g id="a_node1"><a xlink:title=" ">
<polygon fill="#bfbfbf" stroke="black" points="0,-46.5 0,-76.5 209,-76.5 209,-46.5 0,-46.5"/>
<text text-anchor="start" x="8" y="-64.5" font-family="Helvetica,sans-Serif" font-size="10.00">lemons::gui::components</text>
<text text-anchor="middle" x="104.5" y="-53.5" font-family="Helvetica,sans-Serif" font-size="10.00">::ComponentArray&lt; ComponentType, &gt;</text>
</a>
</g>
</g>
<!-- Node2 -->
<g id="node2" class="node">
<title>Node2</title>
<g id="a_node2"><a xlink:href="structlemons_1_1gui_1_1components_1_1_component_array.html" target="_top" xlink:title=" ">
<polygon fill="none" stroke="black" points="411,-71.5 411,-123.5 580,-123.5 580,-71.5 411,-71.5"/>
<text text-anchor="start" x="419" y="-111.5" font-family="Helvetica,sans-Serif" font-size="10.00">lemons::gui::components</text>
<text text-anchor="start" x="419" y="-100.5" font-family="Helvetica,sans-Serif" font-size="10.00">::ComponentArray&lt; lemons</text>
<text text-anchor="start" x="419" y="-89.5" font-family="Helvetica,sans-Serif" font-size="10.00">::gui::components::PluginDetail</text>
<text text-anchor="middle" x="495.5" y="-78.5" font-family="Helvetica,sans-Serif" font-size="10.00">View &gt;</text>
</a>
</g>
</g>
<!-- Node1&#45;&gt;Node2 -->
<g id="edge1" class="edge">
<title>Node1&#45;&gt;Node2</title>
<path fill="none" stroke="orange" stroke-dasharray="5,2" d="M219.29,-74.73C221.89,-74.99 224.46,-75.25 227,-75.5 288.56,-81.58 358.21,-87.27 411,-91.34"/>
<polygon fill="orange" stroke="orange" points="219.51,-71.23 209.21,-73.68 218.79,-78.19 219.51,-71.23"/>
<text text-anchor="start" x="238" y="-102.5" font-family="Helvetica,sans-Serif" font-size="10.00"> &lt; lemons::gui::components</text>
<text text-anchor="middle" x="307" y="-91.5" font-family="Helvetica,sans-Serif" font-size="10.00">::PluginDetailView &gt;</text>
</g>
<!-- Node3 -->
<g id="node3" class="node">
<title>Node3</title>
<g id="a_node3"><a xlink:href="structlemons_1_1gui_1_1components_1_1_component_array.html" target="_top" xlink:title=" ">
<polygon fill="none" stroke="black" points="405,-0.5 405,-52.5 586,-52.5 586,-0.5 405,-0.5"/>
<text text-anchor="start" x="413" y="-40.5" font-family="Helvetica,sans-Serif" font-size="10.00">lemons::gui::components</text>
<text text-anchor="start" x="413" y="-29.5" font-family="Helvetica,sans-Serif" font-size="10.00">::ComponentArray&lt; lemons</text>
<text text-anchor="start" x="413" y="-18.5" font-family="Helvetica,sans-Serif" font-size="10.00">::gui::components::ParameterMidi</text>
<text text-anchor="middle" x="495.5" y="-7.5" font-family="Helvetica,sans-Serif" font-size="10.00">MappingEditor &gt;</text>
</a>
</g>
</g>
<!-- Node1&#45;&gt;Node3 -->
<g id="edge2" class="edge">
<title>Node1&#45;&gt;Node3</title>
<path fill="none" stroke="orange" stroke-dasharray="5,2" d="M219.37,-51.25C278.52,-45.93 349.76,-39.52 404.93,-34.56"/>
<polygon fill="orange" stroke="orange" points="218.88,-47.78 209.23,-52.17 219.51,-54.76 218.88,-47.78"/>
<text text-anchor="start" x="227" y="-63.5" font-family="Helvetica,sans-Serif" font-size="10.00"> &lt; lemons::gui::components</text>
<text text-anchor="middle" x="307" y="-52.5" font-family="Helvetica,sans-Serif" font-size="10.00">::ParameterMidiMappingEditor &gt;</text>
</g>
</g>
</svg>
