<?xml version="1.0" encoding="UTF-8" standalone="no"?>
<!DOCTYPE svg PUBLIC "-//W3C//DTD SVG 1.1//EN"
 "http://www.w3.org/Graphics/SVG/1.1/DTD/svg11.dtd">
<!-- Generated by graphviz version 2.49.1 (20210923.0004)
 -->
<!-- Title: lemons::plugin::MeterParameter Pages: 1 -->
<svg width="167pt" height="263pt"
 viewBox="0.00 0.00 167.00 263.00" xmlns="http://www.w3.org/2000/svg" xmlns:xlink="http://www.w3.org/1999/xlink">
<g id="graph0" class="graph" transform="scale(1 1) rotate(0) translate(4 259)">
<title>lemons::plugin::MeterParameter</title>
<!-- Node1 -->
<g id="node1" class="node">
<title>Node1</title>
<g id="a_node1"><a xlink:title="A parameter that represents a general kind of meter, used for reporting things like level or gain red...">
<polygon fill="#bfbfbf" stroke="black" points="0,-67.5 0,-86.5 159,-86.5 159,-67.5 0,-67.5"/>
<text text-anchor="middle" x="79.5" y="-74.5" font-family="Helvetica,sans-Serif" font-size="10.00">lemons::plugin::MeterParameter</text>
</a>
</g>
</g>
<!-- Node5 -->
<g id="node5" class="node">
<title>Node5</title>
<g id="a_node5"><a xlink:href="structlemons_1_1plugin_1_1GainMeterParameter.html" target="_top" xlink:title="A parameter that represents a meter displaying values in decibels.">
<polygon fill="none" stroke="black" points="13,-0.5 13,-30.5 146,-30.5 146,-0.5 13,-0.5"/>
<text text-anchor="start" x="21" y="-18.5" font-family="Helvetica,sans-Serif" font-size="10.00">lemons::plugin::GainMeter</text>
<text text-anchor="middle" x="79.5" y="-7.5" font-family="Helvetica,sans-Serif" font-size="10.00">Parameter</text>
</a>
</g>
</g>
<!-- Node1&#45;&gt;Node5 -->
<g id="edge4" class="edge">
<title>Node1&#45;&gt;Node5</title>
<path fill="none" stroke="midnightblue" d="M79.5,-57.23C79.5,-48.59 79.5,-38.5 79.5,-30.52"/>
<polygon fill="midnightblue" stroke="midnightblue" points="76,-57.48 79.5,-67.48 83,-57.48 76,-57.48"/>
</g>
<!-- Node2 -->
<g id="node2" class="node">
<title>Node2</title>
<g id="a_node2"><a xlink:href="classlemons_1_1plugin_1_1TypedParameter.html" target="_top" xlink:title="A parameter that can be stored as a type other than a float, but still inherits from my Parameter bas...">
<polygon fill="none" stroke="black" points="37,-123.5 37,-142.5 122,-142.5 122,-123.5 37,-123.5"/>
<text text-anchor="middle" x="79.5" y="-130.5" font-family="Helvetica,sans-Serif" font-size="10.00">FloatParameter</text>
</a>
</g>
</g>
<!-- Node2&#45;&gt;Node1 -->
<g id="edge1" class="edge">
<title>Node2&#45;&gt;Node1</title>
<path fill="none" stroke="midnightblue" d="M79.5,-112.8C79.5,-103.91 79.5,-93.78 79.5,-86.75"/>
<polygon fill="midnightblue" stroke="midnightblue" points="76,-113.08 79.5,-123.08 83,-113.08 76,-113.08"/>
</g>
<!-- Node3 -->
<g id="node3" class="node">
<title>Node3</title>
<g id="a_node3"><a xlink:href="classlemons_1_1plugin_1_1Parameter.html" target="_top" xlink:title="A plugin parameter class that allows you to use my Serializing API, and has a few other cool bells an...">
<polygon fill="none" stroke="black" points="13,-179.5 13,-198.5 146,-198.5 146,-179.5 13,-179.5"/>
<text text-anchor="middle" x="79.5" y="-186.5" font-family="Helvetica,sans-Serif" font-size="10.00">lemons::plugin::Parameter</text>
</a>
</g>
</g>
<!-- Node3&#45;&gt;Node2 -->
<g id="edge2" class="edge">
<title>Node3&#45;&gt;Node2</title>
<path fill="none" stroke="midnightblue" d="M79.5,-168.8C79.5,-159.91 79.5,-149.78 79.5,-142.75"/>
<polygon fill="midnightblue" stroke="midnightblue" points="76,-169.08 79.5,-179.08 83,-169.08 76,-169.08"/>
</g>
<!-- Node4 -->
<g id="node4" class="node">
<title>Node4</title>
<g id="a_node4"><a xlink:href="structlemons_1_1SerializableData.html" target="_top" xlink:title="Base class for any C++ object that needs to be serialized to binary and back.">
<polygon fill="none" stroke="black" points="16,-235.5 16,-254.5 143,-254.5 143,-235.5 16,-235.5"/>
<text text-anchor="middle" x="79.5" y="-242.5" font-family="Helvetica,sans-Serif" font-size="10.00">lemons::SerializableData</text>
</a>
</g>
</g>
<!-- Node4&#45;&gt;Node3 -->
<g id="edge3" class="edge">
<title>Node4&#45;&gt;Node3</title>
<path fill="none" stroke="midnightblue" d="M79.5,-224.8C79.5,-215.91 79.5,-205.78 79.5,-198.75"/>
<polygon fill="midnightblue" stroke="midnightblue" points="76,-225.08 79.5,-235.08 83,-225.08 76,-225.08"/>
</g>
</g>
</svg>
