<?xml version="1.0" encoding="UTF-8" standalone="no"?>
<!DOCTYPE svg PUBLIC "-//W3C//DTD SVG 1.1//EN"
 "http://www.w3.org/Graphics/SVG/1.1/DTD/svg11.dtd">
<!-- Generated by graphviz version 2.43.0 (0)
 -->
<!-- Title: lemons::serializing::TreeReflectorHelpers::ContainerInterface Pages: 1 -->
<svg width="353pt" height="335pt"
 viewBox="0.00 0.00 353.00 335.00" xmlns="http://www.w3.org/2000/svg" xmlns:xlink="http://www.w3.org/1999/xlink">
<g id="graph0" class="graph" transform="scale(1 1) rotate(0) translate(4 331)">
<title>lemons::serializing::TreeReflectorHelpers::ContainerInterface</title>
<!-- Node1 -->
<g id="node1" class="node">
<title>Node1</title>
<g id="a_node1"><a xlink:title=" ">
<polygon fill="#bfbfbf" stroke="black" points="0,-138 0,-179 124,-179 124,-138 0,-138"/>
<text text-anchor="start" x="8" y="-167" font-family="Helvetica,sans-Serif" font-size="10.00">lemons::serializing</text>
<text text-anchor="start" x="8" y="-156" font-family="Helvetica,sans-Serif" font-size="10.00">::TreeReflectorHelpers</text>
<text text-anchor="middle" x="62" y="-145" font-family="Helvetica,sans-Serif" font-size="10.00">::ContainerInterface</text>
</a>
</g>
</g>
<!-- Node2 -->
<g id="node2" class="node">
<title>Node2</title>
<g id="a_node2"><a xlink:href="structlemons_1_1serializing_1_1TreeReflectorHelpers_1_1JuceArrayInterface.html" target="_top" xlink:title=" ">
<polygon fill="none" stroke="black" points="190.5,-274.5 190.5,-326.5 314.5,-326.5 314.5,-274.5 190.5,-274.5"/>
<text text-anchor="start" x="198.5" y="-314.5" font-family="Helvetica,sans-Serif" font-size="10.00">lemons::serializing</text>
<text text-anchor="start" x="198.5" y="-303.5" font-family="Helvetica,sans-Serif" font-size="10.00">::TreeReflectorHelpers</text>
<text text-anchor="start" x="198.5" y="-292.5" font-family="Helvetica,sans-Serif" font-size="10.00">::JuceArrayInterface&lt;</text>
<text text-anchor="middle" x="252.5" y="-281.5" font-family="Helvetica,sans-Serif" font-size="10.00"> ElementType &gt;</text>
</a>
</g>
</g>
<!-- Node1&#45;&gt;Node2 -->
<g id="edge1" class="edge">
<title>Node1&#45;&gt;Node2</title>
<path fill="none" stroke="midnightblue" d="M83.29,-187.6C101.13,-211.35 129.03,-244.32 160,-265.5 169.27,-271.84 179.84,-277.23 190.42,-281.75"/>
<polygon fill="midnightblue" stroke="midnightblue" points="85.93,-185.29 77.18,-179.31 80.29,-189.44 85.93,-185.29"/>
</g>
<!-- Node3 -->
<g id="node3" class="node">
<title>Node3</title>
<g id="a_node3"><a xlink:href="structlemons_1_1serializing_1_1TreeReflectorHelpers_1_1JuceOwnedArrayInterface.html" target="_top" xlink:title=" ">
<polygon fill="none" stroke="black" points="179.5,-203.5 179.5,-255.5 325.5,-255.5 325.5,-203.5 179.5,-203.5"/>
<text text-anchor="start" x="187.5" y="-243.5" font-family="Helvetica,sans-Serif" font-size="10.00">lemons::serializing</text>
<text text-anchor="start" x="187.5" y="-232.5" font-family="Helvetica,sans-Serif" font-size="10.00">::TreeReflectorHelpers</text>
<text text-anchor="start" x="187.5" y="-221.5" font-family="Helvetica,sans-Serif" font-size="10.00">::JuceOwnedArrayInterface</text>
<text text-anchor="middle" x="252.5" y="-210.5" font-family="Helvetica,sans-Serif" font-size="10.00">&lt; ElementType &gt;</text>
</a>
</g>
</g>
<!-- Node1&#45;&gt;Node3 -->
<g id="edge2" class="edge">
<title>Node1&#45;&gt;Node3</title>
<path fill="none" stroke="midnightblue" d="M127.2,-182.68C144.95,-189.37 164.3,-196.65 182.32,-203.44"/>
<polygon fill="midnightblue" stroke="midnightblue" points="128.11,-179.29 117.52,-179.04 125.65,-185.84 128.11,-179.29"/>
</g>
<!-- Node4 -->
<g id="node4" class="node">
<title>Node4</title>
<g id="a_node4"><a xlink:href="structlemons_1_1serializing_1_1TreeReflectorHelpers_1_1StdArrayInterface.html" target="_top" xlink:title=" ">
<polygon fill="none" stroke="black" points="172.5,-132.5 172.5,-184.5 332.5,-184.5 332.5,-132.5 172.5,-132.5"/>
<text text-anchor="start" x="180.5" y="-172.5" font-family="Helvetica,sans-Serif" font-size="10.00">lemons::serializing</text>
<text text-anchor="start" x="180.5" y="-161.5" font-family="Helvetica,sans-Serif" font-size="10.00">::TreeReflectorHelpers</text>
<text text-anchor="start" x="180.5" y="-150.5" font-family="Helvetica,sans-Serif" font-size="10.00">::StdArrayInterface&lt; Element</text>
<text text-anchor="middle" x="252.5" y="-139.5" font-family="Helvetica,sans-Serif" font-size="10.00">Type, size &gt;</text>
</a>
</g>
</g>
<!-- Node1&#45;&gt;Node4 -->
<g id="edge3" class="edge">
<title>Node1&#45;&gt;Node4</title>
<path fill="none" stroke="midnightblue" d="M134.46,-158.5C146.86,-158.5 159.81,-158.5 172.4,-158.5"/>
<polygon fill="midnightblue" stroke="midnightblue" points="134.2,-155 124.2,-158.5 134.2,-162 134.2,-155"/>
</g>
<!-- Node5 -->
<g id="node5" class="node">
<title>Node5</title>
<g id="a_node5"><a xlink:href="structlemons_1_1serializing_1_1TreeReflectorHelpers_1_1StdListInterface.html" target="_top" xlink:title=" ">
<polygon fill="none" stroke="black" points="160,-72 160,-113 345,-113 345,-72 160,-72"/>
<text text-anchor="start" x="168" y="-101" font-family="Helvetica,sans-Serif" font-size="10.00">lemons::serializing</text>
<text text-anchor="start" x="168" y="-90" font-family="Helvetica,sans-Serif" font-size="10.00">::TreeReflectorHelpers</text>
<text text-anchor="middle" x="252.5" y="-79" font-family="Helvetica,sans-Serif" font-size="10.00">::StdListInterface&lt; ElementType &gt;</text>
</a>
</g>
</g>
<!-- Node1&#45;&gt;Node5 -->
<g id="edge4" class="edge">
<title>Node1&#45;&gt;Node5</title>
<path fill="none" stroke="midnightblue" d="M128.83,-134.55C139.25,-130.82 149.91,-127.03 160,-123.5 169.82,-120.07 180.24,-116.48 190.41,-113.01"/>
<polygon fill="midnightblue" stroke="midnightblue" points="127.58,-131.28 119.35,-137.95 129.95,-137.87 127.58,-131.28"/>
</g>
<!-- Node6 -->
<g id="node6" class="node">
<title>Node6</title>
<g id="a_node6"><a xlink:href="structlemons_1_1serializing_1_1TreeReflectorHelpers_1_1StdVectorInterface.html" target="_top" xlink:title=" ">
<polygon fill="none" stroke="black" points="190.5,-0.5 190.5,-52.5 314.5,-52.5 314.5,-0.5 190.5,-0.5"/>
<text text-anchor="start" x="198.5" y="-40.5" font-family="Helvetica,sans-Serif" font-size="10.00">lemons::serializing</text>
<text text-anchor="start" x="198.5" y="-29.5" font-family="Helvetica,sans-Serif" font-size="10.00">::TreeReflectorHelpers</text>
<text text-anchor="start" x="198.5" y="-18.5" font-family="Helvetica,sans-Serif" font-size="10.00">::StdVectorInterface&lt;</text>
<text text-anchor="middle" x="252.5" y="-7.5" font-family="Helvetica,sans-Serif" font-size="10.00"> ElementType &gt;</text>
</a>
</g>
</g>
<!-- Node1&#45;&gt;Node6 -->
<g id="edge5" class="edge">
<title>Node1&#45;&gt;Node6</title>
<path fill="none" stroke="midnightblue" d="M86.17,-130C104.43,-109.04 131.48,-81.08 160,-62.5 169.3,-56.44 179.77,-51.14 190.23,-46.6"/>
<polygon fill="midnightblue" stroke="midnightblue" points="83.46,-127.78 79.62,-137.65 88.78,-132.33 83.46,-127.78"/>
</g>
</g>
</svg>
