<?xml version="1.0" encoding="UTF-8" standalone="no"?>
<!DOCTYPE svg PUBLIC "-//W3C//DTD SVG 1.1//EN"
 "http://www.w3.org/Graphics/SVG/1.1/DTD/svg11.dtd">
<!-- Generated by graphviz version 2.43.0 (0)
 -->
<!-- Title: lemons::plugin::LFO Pages: 1 -->
<svg width="1045pt" height="116pt"
 viewBox="0.00 0.00 1045.00 115.50" xmlns="http://www.w3.org/2000/svg" xmlns:xlink="http://www.w3.org/1999/xlink">
<g id="graph0" class="graph" transform="scale(1 1) rotate(0) translate(4 111.5)">
<title>lemons::plugin::LFO</title>
<!-- Node1 -->
<g id="node1" class="node">
<title>Node1</title>
<g id="a_node1"><a xlink:title="An LFO, to be used by a ModulationManager object.">
<polygon fill="#bfbfbf" stroke="black" points="924,-33.5 924,-52.5 1037,-52.5 1037,-33.5 924,-33.5"/>
<text text-anchor="middle" x="980.5" y="-40.5" font-family="Helvetica,sans-Serif" font-size="10.00">lemons::plugin::LFO</text>
</a>
</g>
</g>
<!-- Node2 -->
<g id="node2" class="node">
<title>Node2</title>
<g id="a_node2"><a xlink:href="classlemons_1_1plugin_1_1_meta_parameter.html" target="_top" xlink:title=" ">
<polygon fill="none" stroke="black" points="717,-28 717,-58 887,-58 887,-28 717,-28"/>
<text text-anchor="start" x="725" y="-46" font-family="Helvetica,sans-Serif" font-size="10.00">lemons::plugin::MetaParameter</text>
<text text-anchor="middle" x="802" y="-35" font-family="Helvetica,sans-Serif" font-size="10.00">&lt; float &gt;</text>
</a>
</g>
</g>
<!-- Node2&#45;&gt;Node1 -->
<g id="edge1" class="edge">
<title>Node2&#45;&gt;Node1</title>
<path fill="none" stroke="midnightblue" d="M897.32,-43C906.34,-43 915.27,-43 923.75,-43"/>
<polygon fill="midnightblue" stroke="midnightblue" points="897.11,-39.5 887.11,-43 897.11,-46.5 897.11,-39.5"/>
</g>
<!-- Node3 -->
<g id="node3" class="node">
<title>Node3</title>
<g id="a_node3"><a xlink:href="classlemons_1_1plugin_1_1_typed_parameter.html" target="_top" xlink:title=" ">
<polygon fill="none" stroke="black" points="460,-77 460,-107 633,-107 633,-77 460,-77"/>
<text text-anchor="start" x="468" y="-95" font-family="Helvetica,sans-Serif" font-size="10.00">lemons::plugin::TypedParameter</text>
<text text-anchor="middle" x="546.5" y="-84" font-family="Helvetica,sans-Serif" font-size="10.00">&lt; float &gt;</text>
</a>
</g>
</g>
<!-- Node3&#45;&gt;Node2 -->
<g id="edge2" class="edge">
<title>Node3&#45;&gt;Node2</title>
<path fill="none" stroke="midnightblue" d="M635.28,-75.03C663.93,-69.5 695.52,-63.39 723.37,-58.01"/>
<polygon fill="midnightblue" stroke="midnightblue" points="634.44,-71.63 625.28,-76.97 635.76,-78.5 634.44,-71.63"/>
</g>
<!-- Node4 -->
<g id="node4" class="node">
<title>Node4</title>
<g id="a_node4"><a xlink:href="classlemons_1_1plugin_1_1_parameter.html" target="_top" xlink:title="A plugin parameter class.">
<polygon fill="none" stroke="black" points="0,-76.5 0,-95.5 145,-95.5 145,-76.5 0,-76.5"/>
<text text-anchor="middle" x="72.5" y="-83.5" font-family="Helvetica,sans-Serif" font-size="10.00">lemons::plugin::Parameter</text>
</a>
</g>
</g>
<!-- Node4&#45;&gt;Node3 -->
<g id="edge3" class="edge">
<title>Node4&#45;&gt;Node3</title>
<path fill="none" stroke="midnightblue" d="M155.35,-89.75C157.93,-89.84 160.48,-89.92 163,-90 286.95,-93.84 317.99,-95.2 442,-94 447.84,-93.94 453.87,-93.87 459.94,-93.78"/>
<polygon fill="midnightblue" stroke="midnightblue" points="155.42,-86.25 145.3,-89.38 155.17,-93.24 155.42,-86.25"/>
</g>
<!-- Node5 -->
<g id="node5" class="node">
<title>Node5</title>
<g id="a_node5"><a xlink:href="classlemons_1_1plugin_1_1_typed_parameter.html" target="_top" xlink:title="A parameter that can be stored as a type other than a float, but still inherits from my Parameter bas...">
<polygon fill="none" stroke="black" points="192.5,-49 192.5,-79 365.5,-79 365.5,-49 192.5,-49"/>
<text text-anchor="start" x="200.5" y="-67" font-family="Helvetica,sans-Serif" font-size="10.00">lemons::plugin::TypedParameter</text>
<text text-anchor="middle" x="279" y="-56" font-family="Helvetica,sans-Serif" font-size="10.00">&lt; ValueType &gt;</text>
</a>
</g>
</g>
<!-- Node4&#45;&gt;Node5 -->
<g id="edge5" class="edge">
<title>Node4&#45;&gt;Node5</title>
<path fill="none" stroke="midnightblue" d="M155.21,-77.21C167.46,-75.89 180.13,-74.53 192.46,-73.2"/>
<polygon fill="midnightblue" stroke="midnightblue" points="154.59,-73.76 145.02,-78.31 155.34,-80.72 154.59,-73.76"/>
</g>
<!-- Node5&#45;&gt;Node3 -->
<g id="edge4" class="edge">
<title>Node5&#45;&gt;Node3</title>
<path fill="none" stroke="orange" stroke-dasharray="5,2" d="M375.85,-74.11C403.34,-77.01 433.13,-80.15 459.96,-82.98"/>
<polygon fill="orange" stroke="orange" points="376.15,-70.62 365.83,-73.05 375.41,-77.58 376.15,-70.62"/>
<text text-anchor="middle" x="418" y="-83" font-family="Helvetica,sans-Serif" font-size="10.00"> &lt; float &gt;</text>
</g>
<!-- Node7 -->
<g id="node7" class="node">
<title>Node7</title>
<g id="a_node7"><a xlink:href="classlemons_1_1plugin_1_1_meta_parameter.html" target="_top" xlink:title=" ">
<polygon fill="none" stroke="black" points="461.5,-28 461.5,-58 631.5,-58 631.5,-28 461.5,-28"/>
<text text-anchor="start" x="469.5" y="-46" font-family="Helvetica,sans-Serif" font-size="10.00">lemons::plugin::MetaParameter</text>
<text text-anchor="middle" x="546.5" y="-35" font-family="Helvetica,sans-Serif" font-size="10.00">&lt; ValueType &gt;</text>
</a>
</g>
</g>
<!-- Node5&#45;&gt;Node7 -->
<g id="edge8" class="edge">
<title>Node5&#45;&gt;Node7</title>
<path fill="none" stroke="midnightblue" d="M376,-56.41C403.92,-54.2 434.19,-51.8 461.32,-49.66"/>
<polygon fill="midnightblue" stroke="midnightblue" points="375.53,-52.93 365.83,-57.21 376.08,-59.91 375.53,-52.93"/>
</g>
<!-- Node6 -->
<g id="node6" class="node">
<title>Node6</title>
<g id="a_node6"><a xlink:href="structlemons_1_1plugin_1_1_meta_parameter_base.html" target="_top" xlink:title=" ">
<polygon fill="none" stroke="black" points="182,-0.5 182,-19.5 376,-19.5 376,-0.5 182,-0.5"/>
<text text-anchor="middle" x="279" y="-7.5" font-family="Helvetica,sans-Serif" font-size="10.00">lemons::plugin::MetaParameterBase</text>
</a>
</g>
</g>
<!-- Node6&#45;&gt;Node2 -->
<g id="edge6" class="edge">
<title>Node6&#45;&gt;Node2</title>
<path fill="none" stroke="midnightblue" d="M386.23,-9.49C456.4,-9.95 550.32,-12.06 633,-19 660.3,-21.29 689.94,-25.08 716.61,-28.99"/>
<polygon fill="midnightblue" stroke="midnightblue" points="386.07,-5.99 376.05,-9.44 386.03,-12.99 386.07,-5.99"/>
</g>
<!-- Node6&#45;&gt;Node7 -->
<g id="edge9" class="edge">
<title>Node6&#45;&gt;Node7</title>
<path fill="none" stroke="midnightblue" d="M366.59,-20.76C396.97,-24.54 431.04,-28.77 461.23,-32.53"/>
<polygon fill="midnightblue" stroke="midnightblue" points="366.79,-17.26 356.44,-19.5 365.93,-24.21 366.79,-17.26"/>
</g>
<!-- Node7&#45;&gt;Node2 -->
<g id="edge7" class="edge">
<title>Node7&#45;&gt;Node2</title>
<path fill="none" stroke="orange" stroke-dasharray="5,2" d="M641.63,-43C666.26,-43 692.65,-43 716.74,-43"/>
<polygon fill="orange" stroke="orange" points="641.56,-39.5 631.56,-43 641.56,-46.5 641.56,-39.5"/>
<text text-anchor="middle" x="675" y="-46" font-family="Helvetica,sans-Serif" font-size="10.00"> &lt; float &gt;</text>
</g>
</g>
</svg>
