<?xml version="1.0" encoding="UTF-8" standalone="no"?>
<!DOCTYPE svg PUBLIC "-//W3C//DTD SVG 1.1//EN"
 "http://www.w3.org/Graphics/SVG/1.1/DTD/svg11.dtd">
<!-- Generated by graphviz version 2.50.0 (20211204.2007)
 -->
<!-- Title: lemons::dsp::is_realtime_move_constructable&lt; T &gt; Pages: 1 -->
<svg width="742pt" height="77pt"
 viewBox="0.00 0.00 742.00 77.00" xmlns="http://www.w3.org/2000/svg" xmlns:xlink="http://www.w3.org/1999/xlink">
<g id="graph0" class="graph" transform="scale(1 1) rotate(0) translate(4 73)">
<title>lemons::dsp::is_realtime_move_constructable&lt; T &gt;</title>
<!-- Node1 -->
<g id="node1" class="node">
<title>Node1</title>
<g id="a_node1"><a xlink:title=" ">
<polygon fill="#bfbfbf" stroke="black" points="600,-33 600,-63 734,-63 734,-33 600,-33"/>
<text text-anchor="start" x="608" y="-51" font-family="Helvetica,sans-Serif" font-size="10.00">lemons::dsp::is_realtime</text>
<text text-anchor="middle" x="667" y="-40" font-family="Helvetica,sans-Serif" font-size="10.00">_move_constructable&lt; T &gt;</text>
</a>
</g>
</g>
<!-- Node2 -->
<g id="node2" class="node">
<title>Node2</title>
<g id="a_node2"><a xlink:href="structlemons_1_1dsp_1_1detail_1_1is__rt__safe.html" target="_top" xlink:title=" ">
<polygon fill="none" stroke="black" points="379,-27.5 379,-68.5 563,-68.5 563,-27.5 379,-27.5"/>
<text text-anchor="start" x="387" y="-56.5" font-family="Helvetica,sans-Serif" font-size="10.00">lemons::dsp::detail</text>
<text text-anchor="start" x="387" y="-45.5" font-family="Helvetica,sans-Serif" font-size="10.00">::is_rt_safe&lt; T, detail</text>
<text text-anchor="middle" x="471" y="-34.5" font-family="Helvetica,sans-Serif" font-size="10.00">::move_tag, detail::constructible_tag &gt;</text>
</a>
</g>
</g>
<!-- Node2&#45;&gt;Node1 -->
<g id="edge1" class="edge">
<title>Node2&#45;&gt;Node1</title>
<path fill="none" stroke="midnightblue" d="M573.22,-48C582.24,-48 591.21,-48 599.82,-48"/>
<polygon fill="midnightblue" stroke="midnightblue" points="573.04,-44.5 563.04,-48 573.04,-51.5 573.04,-44.5"/>
</g>
<!-- Node3 -->
<g id="node3" class="node">
<title>Node3</title>
<g id="a_node3"><a xlink:title=" ">
<polygon fill="none" stroke="black" points="0,-35.5 0,-54.5 81,-54.5 81,-35.5 0,-35.5"/>
<text text-anchor="middle" x="40.5" y="-42.5" font-family="Helvetica,sans-Serif" font-size="10.00">std::false_type</text>
</a>
</g>
</g>
<!-- Node3&#45;&gt;Node2 -->
<g id="edge2" class="edge">
<title>Node3&#45;&gt;Node2</title>
<path fill="none" stroke="midnightblue" d="M91.4,-49.2C100.26,-49.86 109.4,-50.49 118,-51 225.84,-57.35 253.05,-59.96 361,-56 366.78,-55.79 372.74,-55.51 378.74,-55.19"/>
<polygon fill="midnightblue" stroke="midnightblue" points="91.42,-45.69 81.18,-48.41 90.89,-52.67 91.42,-45.69"/>
</g>
<!-- Node4 -->
<g id="node4" class="node">
<title>Node4</title>
<g id="a_node4"><a xlink:href="structlemons_1_1dsp_1_1detail_1_1is__rt__safe.html" target="_top" xlink:title=" ">
<polygon fill="none" stroke="black" points="118,-0.5 118,-41.5 227,-41.5 227,-0.5 118,-0.5"/>
<text text-anchor="start" x="126" y="-29.5" font-family="Helvetica,sans-Serif" font-size="10.00">lemons::dsp::detail</text>
<text text-anchor="start" x="126" y="-18.5" font-family="Helvetica,sans-Serif" font-size="10.00">::is_rt_safe&lt; T, Tag1,</text>
<text text-anchor="middle" x="172.5" y="-7.5" font-family="Helvetica,sans-Serif" font-size="10.00"> Tag2 &gt;</text>
</a>
</g>
</g>
<!-- Node3&#45;&gt;Node4 -->
<g id="edge4" class="edge">
<title>Node3&#45;&gt;Node4</title>
<path fill="none" stroke="midnightblue" d="M91.17,-35.83C99.84,-34.23 108.89,-32.56 117.67,-30.94"/>
<polygon fill="midnightblue" stroke="midnightblue" points="90.41,-32.41 81.21,-37.67 91.68,-39.3 90.41,-32.41"/>
</g>
<!-- Node4&#45;&gt;Node2 -->
<g id="edge3" class="edge">
<title>Node4&#45;&gt;Node2</title>
<path fill="none" stroke="orange" stroke-dasharray="5,2" d="M237.75,-24.52C273.98,-26.74 320.07,-29.96 361,-34 366.79,-34.57 372.75,-35.21 378.75,-35.88"/>
<polygon fill="orange" stroke="orange" points="237.51,-21 227.32,-23.89 237.09,-27.99 237.51,-21"/>
<text text-anchor="start" x="245" y="-48" font-family="Helvetica,sans-Serif" font-size="10.00"> &lt; T, detail::move_tag,</text>
<text text-anchor="middle" x="303" y="-37" font-family="Helvetica,sans-Serif" font-size="10.00"> detail::constructible_tag &gt;</text>
</g>
</g>
</svg>
