<?xml version="1.0" encoding="UTF-8" standalone="no"?>
<!DOCTYPE svg PUBLIC "-//W3C//DTD SVG 1.1//EN"
 "http://www.w3.org/Graphics/SVG/1.1/DTD/svg11.dtd">
<!-- Generated by graphviz version 2.49.1 (20210923.0004)
 -->
<!-- Title: lemons::serializing::TogglerInterface Pages: 1 -->
<svg width="208pt" height="242pt"
 viewBox="0.00 0.00 207.50 242.00" xmlns="http://www.w3.org/2000/svg" xmlns:xlink="http://www.w3.org/1999/xlink">
<g id="graph0" class="graph" transform="scale(1 1) rotate(0) translate(4 238)">
<title>lemons::serializing::TogglerInterface</title>
<!-- Node1 -->
<g id="node1" class="node">
<title>Node1</title>
<g id="a_node1"><a xlink:title="Interface that all Togglers implement to be able to access one without knowing its template arguments...">
<polygon fill="#bfbfbf" stroke="black" points="14,-146.5 14,-176.5 113,-176.5 113,-146.5 14,-146.5"/>
<text text-anchor="start" x="22" y="-164.5" font-family="Helvetica,sans-Serif" font-size="10.00">lemons::serializing</text>
<text text-anchor="middle" x="63.5" y="-153.5" font-family="Helvetica,sans-Serif" font-size="10.00">::TogglerInterface</text>
</a>
</g>
</g>
<!-- Node3 -->
<g id="node3" class="node">
<title>Node3</title>
<g id="a_node3"><a xlink:href="structlemons_1_1serializing_1_1Toggler.html" target="_top" xlink:title=" ">
<polygon fill="none" stroke="black" points="18,-0.5 18,-30.5 117,-30.5 117,-0.5 18,-0.5"/>
<text text-anchor="start" x="26" y="-18.5" font-family="Helvetica,sans-Serif" font-size="10.00">lemons::serializing</text>
<text text-anchor="middle" x="67.5" y="-7.5" font-family="Helvetica,sans-Serif" font-size="10.00">::Toggler&lt; 3 &gt;</text>
</a>
</g>
</g>
<!-- Node1&#45;&gt;Node3 -->
<g id="edge2" class="edge">
<title>Node1&#45;&gt;Node3</title>
<path fill="none" stroke="midnightblue" d="M64.17,-136.32C65.01,-106.14 66.42,-55.49 67.1,-30.84"/>
<polygon fill="midnightblue" stroke="midnightblue" points="60.67,-136.34 63.89,-146.43 67.67,-136.53 60.67,-136.34"/>
</g>
<!-- Node4 -->
<g id="node4" class="node">
<title>Node4</title>
<g id="a_node4"><a xlink:href="structlemons_1_1serializing_1_1Toggler.html" target="_top" xlink:title="Class that manages several versions of the state of a serializable object and allows you to switch be...">
<polygon fill="none" stroke="black" points="79.5,-78.5 79.5,-108.5 199.5,-108.5 199.5,-78.5 79.5,-78.5"/>
<text text-anchor="start" x="87.5" y="-96.5" font-family="Helvetica,sans-Serif" font-size="10.00">lemons::serializing</text>
<text text-anchor="middle" x="139.5" y="-85.5" font-family="Helvetica,sans-Serif" font-size="10.00">::Toggler&lt; numStates &gt;</text>
</a>
</g>
</g>
<!-- Node1&#45;&gt;Node4 -->
<g id="edge3" class="edge">
<title>Node1&#45;&gt;Node4</title>
<path fill="none" stroke="midnightblue" d="M87.66,-139.52C99.3,-129.41 112.93,-117.57 123.3,-108.57"/>
<polygon fill="midnightblue" stroke="midnightblue" points="85.25,-136.98 79.99,-146.18 89.84,-142.26 85.25,-136.98"/>
</g>
<!-- Node2 -->
<g id="node2" class="node">
<title>Node2</title>
<g id="a_node2"><a xlink:href="structlemons_1_1SerializableData.html" target="_top" xlink:title="Base class for any C++ object that needs to be serialized to binary and back.">
<polygon fill="none" stroke="black" points="0,-214.5 0,-233.5 127,-233.5 127,-214.5 0,-214.5"/>
<text text-anchor="middle" x="63.5" y="-221.5" font-family="Helvetica,sans-Serif" font-size="10.00">lemons::SerializableData</text>
</a>
</g>
</g>
<!-- Node2&#45;&gt;Node1 -->
<g id="edge1" class="edge">
<title>Node2&#45;&gt;Node1</title>
<path fill="none" stroke="midnightblue" d="M63.5,-204.22C63.5,-195.36 63.5,-184.96 63.5,-176.76"/>
<polygon fill="midnightblue" stroke="midnightblue" points="60,-204.33 63.5,-214.33 67,-204.33 60,-204.33"/>
</g>
<!-- Node4&#45;&gt;Node3 -->
<g id="edge4" class="edge">
<title>Node4&#45;&gt;Node3</title>
<path fill="none" stroke="orange" stroke-dasharray="5,2" d="M118.82,-70.67C106.66,-57.83 91.63,-41.97 80.98,-30.73"/>
<polygon fill="orange" stroke="orange" points="116.54,-73.35 125.96,-78.2 121.62,-68.54 116.54,-73.35"/>
<text text-anchor="middle" x="120.5" y="-52" font-family="Helvetica,sans-Serif" font-size="10.00"> &lt; 3 &gt;</text>
</g>
</g>
</svg>
