<?xml version="1.0" encoding="UTF-8" standalone="no"?>
<!DOCTYPE svg PUBLIC "-//W3C//DTD SVG 1.1//EN"
 "http://www.w3.org/Graphics/SVG/1.1/DTD/svg11.dtd">
<!-- Generated by graphviz version 2.43.0 (0)
 -->
<!-- Title: lemons::plugin::TypedParameter&lt; ValueType &gt;::Listener Pages: 1 -->
<svg width="278pt" height="162pt"
 viewBox="0.00 0.00 278.00 162.00" xmlns="http://www.w3.org/2000/svg" xmlns:xlink="http://www.w3.org/1999/xlink">
<g id="graph0" class="graph" transform="scale(1 1) rotate(0) translate(4 158)">
<title>lemons::plugin::TypedParameter&lt; ValueType &gt;::Listener</title>
<!-- Node1 -->
<g id="node1" class="node">
<title>Node1</title>
<g id="a_node1"><a xlink:title="A class that will recieve updates when aspects of a TypedParameter change.">
<polygon fill="#bfbfbf" stroke="black" points="51.5,-56.5 51.5,-86.5 224.5,-86.5 224.5,-56.5 51.5,-56.5"/>
<text text-anchor="start" x="59.5" y="-74.5" font-family="Helvetica,sans-Serif" font-size="10.00">lemons::plugin::TypedParameter</text>
<text text-anchor="middle" x="138" y="-63.5" font-family="Helvetica,sans-Serif" font-size="10.00">&lt; ValueType &gt;::Listener</text>
</a>
</g>
</g>
<!-- Node3 -->
<g id="node3" class="node">
<title>Node3</title>
<g id="a_node3"><a xlink:href="classlemons_1_1gui_1_1_float_slider.html" target="_top" xlink:title="Plugin slider that attaches to a float parameter.">
<polygon fill="none" stroke="black" points="0,-0.5 0,-19.5 132,-19.5 132,-0.5 0,-0.5"/>
<text text-anchor="middle" x="66" y="-7.5" font-family="Helvetica,sans-Serif" font-size="10.00">lemons::gui::FloatSlider</text>
</a>
</g>
</g>
<!-- Node1&#45;&gt;Node3 -->
<g id="edge2" class="edge">
<title>Node1&#45;&gt;Node3</title>
<path fill="none" stroke="#8b1a1a" d="M113.06,-49.89C100.54,-39.54 86.04,-27.56 76.48,-19.66"/>
<polygon fill="#8b1a1a" stroke="#8b1a1a" points="111,-52.73 120.94,-56.4 115.46,-47.33 111,-52.73"/>
</g>
<!-- Node4 -->
<g id="node4" class="node">
<title>Node4</title>
<g id="a_node4"><a xlink:href="classlemons_1_1gui_1_1_int_slider.html" target="_top" xlink:title="Plugin slider that attaches to an integer parameter.">
<polygon fill="none" stroke="black" points="150,-0.5 150,-19.5 270,-19.5 270,-0.5 150,-0.5"/>
<text text-anchor="middle" x="210" y="-7.5" font-family="Helvetica,sans-Serif" font-size="10.00">lemons::gui::IntSlider</text>
</a>
</g>
</g>
<!-- Node1&#45;&gt;Node4 -->
<g id="edge3" class="edge">
<title>Node1&#45;&gt;Node4</title>
<path fill="none" stroke="#8b1a1a" d="M162.94,-49.89C175.46,-39.54 189.96,-27.56 199.52,-19.66"/>
<polygon fill="#8b1a1a" stroke="#8b1a1a" points="160.54,-47.33 155.06,-56.4 165,-52.73 160.54,-47.33"/>
</g>
<!-- Node2 -->
<g id="node2" class="node">
<title>Node2</title>
<g id="a_node2"><a xlink:href="structlemons_1_1plugin_1_1_parameter_1_1_listener.html" target="_top" xlink:title="A Listener class that will be notified when aspects of a Parameter change.">
<polygon fill="none" stroke="black" points="65.5,-123.5 65.5,-153.5 210.5,-153.5 210.5,-123.5 65.5,-123.5"/>
<text text-anchor="start" x="73.5" y="-141.5" font-family="Helvetica,sans-Serif" font-size="10.00">lemons::plugin::Parameter</text>
<text text-anchor="middle" x="138" y="-130.5" font-family="Helvetica,sans-Serif" font-size="10.00">::Listener</text>
</a>
</g>
</g>
<!-- Node2&#45;&gt;Node1 -->
<g id="edge1" class="edge">
<title>Node2&#45;&gt;Node1</title>
<path fill="none" stroke="midnightblue" d="M138,-113.11C138,-104.15 138,-94.32 138,-86.58"/>
<polygon fill="midnightblue" stroke="midnightblue" points="134.5,-113.4 138,-123.4 141.5,-113.4 134.5,-113.4"/>
</g>
</g>
</svg>
