<?xml version="1.0" encoding="UTF-8" standalone="no"?>
<!DOCTYPE svg PUBLIC "-//W3C//DTD SVG 1.1//EN"
 "http://www.w3.org/Graphics/SVG/1.1/DTD/svg11.dtd">
<!-- Generated by graphviz version 2.50.0 (20211204.2007)
 -->
<!-- Title: lemons::plugin::LFO Pages: 1 -->
<svg width="1134pt" height="169pt"
 viewBox="0.00 0.00 1134.00 168.50" xmlns="http://www.w3.org/2000/svg" xmlns:xlink="http://www.w3.org/1999/xlink">
<g id="graph0" class="graph" transform="scale(1 1) rotate(0) translate(4 164.5)">
<title>lemons::plugin::LFO</title>
<!-- Node1 -->
<g id="node1" class="node">
<title>Node1</title>
<g id="a_node1"><a xlink:title="An LFO, to be used by a ModulationManager object.">
<polygon fill="#bfbfbf" stroke="black" points="1022,-99 1022,-118 1126,-118 1126,-99 1022,-99"/>
<text text-anchor="middle" x="1074" y="-106" font-family="Helvetica,sans-Serif" font-size="10.00">lemons::plugin::LFO</text>
</a>
</g>
</g>
<!-- Node2 -->
<g id="node2" class="node">
<title>Node2</title>
<g id="a_node2"><a xlink:href="classlemons_1_1plugin_1_1_meta_parameter.html" target="_top" xlink:title=" ">
<polygon fill="none" stroke="black" points="833,-93.5 833,-123.5 985,-123.5 985,-93.5 833,-93.5"/>
<text text-anchor="start" x="841" y="-111.5" font-family="Helvetica,sans-Serif" font-size="10.00">lemons::plugin::MetaParameter</text>
<text text-anchor="middle" x="909" y="-100.5" font-family="Helvetica,sans-Serif" font-size="10.00">&lt; float &gt;</text>
</a>
</g>
</g>
<!-- Node2&#45;&gt;Node1 -->
<g id="edge1" class="edge">
<title>Node2&#45;&gt;Node1</title>
<path fill="none" stroke="midnightblue" d="M995.44,-108.5C1004.43,-108.5 1013.35,-108.5 1021.76,-108.5"/>
<polygon fill="midnightblue" stroke="midnightblue" points="995.3,-105 985.3,-108.5 995.3,-112 995.3,-105"/>
</g>
<!-- Node3 -->
<g id="node3" class="node">
<title>Node3</title>
<g id="a_node3"><a xlink:href="classlemons_1_1plugin_1_1_typed_parameter.html" target="_top" xlink:title=" ">
<polygon fill="none" stroke="black" points="600,-44.5 600,-74.5 757,-74.5 757,-44.5 600,-44.5"/>
<text text-anchor="start" x="608" y="-62.5" font-family="Helvetica,sans-Serif" font-size="10.00">lemons::plugin::TypedParameter</text>
<text text-anchor="middle" x="678.5" y="-51.5" font-family="Helvetica,sans-Serif" font-size="10.00">&lt; float &gt;</text>
</a>
</g>
</g>
<!-- Node3&#45;&gt;Node2 -->
<g id="edge2" class="edge">
<title>Node3&#45;&gt;Node2</title>
<path fill="none" stroke="midnightblue" d="M759.64,-76.69C785.19,-82.16 813.25,-88.18 838.02,-93.49"/>
<polygon fill="midnightblue" stroke="midnightblue" points="760.12,-73.21 749.61,-74.53 758.65,-80.05 760.12,-73.21"/>
</g>
<!-- Node4 -->
<g id="node4" class="node">
<title>Node4</title>
<g id="a_node4"><a xlink:href="classlemons_1_1plugin_1_1_parameter.html" target="_top" xlink:title="A plugin parameter class.">
<polygon fill="none" stroke="black" points="181,-50 181,-69 312,-69 312,-50 181,-50"/>
<text text-anchor="middle" x="246.5" y="-57" font-family="Helvetica,sans-Serif" font-size="10.00">lemons::plugin::Parameter</text>
</a>
</g>
</g>
<!-- Node4&#45;&gt;Node3 -->
<g id="edge3" class="edge">
<title>Node4&#45;&gt;Node3</title>
<path fill="none" stroke="midnightblue" d="M322.54,-59.5C400.23,-59.5 521.05,-59.5 599.73,-59.5"/>
<polygon fill="midnightblue" stroke="midnightblue" points="322.34,-56 312.34,-59.5 322.34,-63 322.34,-56"/>
</g>
<!-- Node6 -->
<g id="node6" class="node">
<title>Node6</title>
<g id="a_node6"><a xlink:href="classlemons_1_1plugin_1_1_typed_parameter.html" target="_top" xlink:title="A parameter that can be stored as a type other than a float, but still inherits from my Parameter bas...">
<polygon fill="none" stroke="black" points="358,-0.5 358,-30.5 515,-30.5 515,-0.5 358,-0.5"/>
<text text-anchor="start" x="366" y="-18.5" font-family="Helvetica,sans-Serif" font-size="10.00">lemons::plugin::TypedParameter</text>
<text text-anchor="middle" x="436.5" y="-7.5" font-family="Helvetica,sans-Serif" font-size="10.00">&lt; ValueType &gt;</text>
</a>
</g>
</g>
<!-- Node4&#45;&gt;Node6 -->
<g id="edge6" class="edge">
<title>Node4&#45;&gt;Node6</title>
<path fill="none" stroke="midnightblue" d="M298.28,-47.62C320.7,-42.37 347.33,-36.14 371.13,-30.57"/>
<polygon fill="midnightblue" stroke="midnightblue" points="297.23,-44.27 288.29,-49.95 298.83,-51.08 297.23,-44.27"/>
</g>
<!-- Node9 -->
<g id="node9" class="node">
<title>Node9</title>
<g id="a_node9"><a xlink:href="classlemons_1_1plugin_1_1_typed_parameter.html" target="_top" xlink:title="A parameter that can be stored as a type other than a float, but still inherits from my Parameter bas...">
<polygon fill="none" stroke="black" points="358,-88.5 358,-118.5 515,-118.5 515,-88.5 358,-88.5"/>
<text text-anchor="start" x="366" y="-106.5" font-family="Helvetica,sans-Serif" font-size="10.00">lemons::plugin::TypedParameter</text>
<text text-anchor="middle" x="436.5" y="-95.5" font-family="Helvetica,sans-Serif" font-size="10.00">&lt; ValueType &gt;</text>
</a>
</g>
</g>
<!-- Node4&#45;&gt;Node9 -->
<g id="edge10" class="edge">
<title>Node4&#45;&gt;Node9</title>
<path fill="none" stroke="midnightblue" d="M298.28,-71.38C320.7,-76.63 347.33,-82.86 371.13,-88.43"/>
<polygon fill="midnightblue" stroke="midnightblue" points="298.83,-67.92 288.29,-69.05 297.23,-74.73 298.83,-67.92"/>
</g>
<!-- Node5 -->
<g id="node5" class="node">
<title>Node5</title>
<g id="a_node5"><a xlink:title=" ">
<polygon fill="none" stroke="black" points="0,-50 0,-69 144,-69 144,-50 0,-50"/>
<text text-anchor="middle" x="72" y="-57" font-family="Helvetica,sans-Serif" font-size="10.00">juce::RangedAudioParameter</text>
</a>
</g>
</g>
<!-- Node5&#45;&gt;Node4 -->
<g id="edge4" class="edge">
<title>Node5&#45;&gt;Node4</title>
<path fill="none" stroke="midnightblue" d="M154.2,-59.5C163.15,-59.5 172.16,-59.5 180.86,-59.5"/>
<polygon fill="midnightblue" stroke="midnightblue" points="154.16,-56 144.16,-59.5 154.16,-63 154.16,-56"/>
</g>
<!-- Node6&#45;&gt;Node3 -->
<g id="edge5" class="edge">
<title>Node6&#45;&gt;Node3</title>
<path fill="none" stroke="orange" stroke-dasharray="5,2" d="M525.09,-25.23C543.94,-27.82 563.69,-30.91 582,-34.5 596.04,-37.25 611.09,-40.87 624.98,-44.49"/>
<polygon fill="orange" stroke="orange" points="525.41,-21.74 515.03,-23.88 524.48,-28.67 525.41,-21.74"/>
<text text-anchor="middle" x="562" y="-37.5" font-family="Helvetica,sans-Serif" font-size="10.00"> &lt; float &gt;</text>
</g>
<!-- Node7 -->
<g id="node7" class="node">
<title>Node7</title>
<g id="a_node7"><a xlink:href="structlemons_1_1plugin_1_1_meta_parameter_base.html" target="_top" xlink:title="A type&#45;erased interface for a parameter that can be connected to other parameters and control their v...">
<polygon fill="none" stroke="black" points="349,-141 349,-160 524,-160 524,-141 349,-141"/>
<text text-anchor="middle" x="436.5" y="-148" font-family="Helvetica,sans-Serif" font-size="10.00">lemons::plugin::MetaParameterBase</text>
</a>
</g>
</g>
<!-- Node7&#45;&gt;Node2 -->
<g id="edge7" class="edge">
<title>Node7&#45;&gt;Node2</title>
<path fill="none" stroke="midnightblue" d="M534.16,-148.15C597.65,-145.91 682.44,-141.63 757,-133.5 781.83,-130.79 808.79,-126.7 832.96,-122.61"/>
<polygon fill="midnightblue" stroke="midnightblue" points="534.03,-144.65 524.16,-148.49 534.27,-151.64 534.03,-144.65"/>
</g>
<!-- Node8 -->
<g id="node8" class="node">
<title>Node8</title>
<g id="a_node8"><a xlink:href="classlemons_1_1plugin_1_1_meta_parameter.html" target="_top" xlink:title="A meta parameter class that implements the MetaParameterBase interface.">
<polygon fill="none" stroke="black" points="602.5,-93.5 602.5,-123.5 754.5,-123.5 754.5,-93.5 602.5,-93.5"/>
<text text-anchor="start" x="610.5" y="-111.5" font-family="Helvetica,sans-Serif" font-size="10.00">lemons::plugin::MetaParameter</text>
<text text-anchor="middle" x="678.5" y="-100.5" font-family="Helvetica,sans-Serif" font-size="10.00">&lt; ValueType &gt;</text>
</a>
</g>
</g>
<!-- Node7&#45;&gt;Node8 -->
<g id="edge11" class="edge">
<title>Node7&#45;&gt;Node8</title>
<path fill="none" stroke="midnightblue" d="M502.18,-139.18C533.06,-133.78 570.2,-127.28 602.33,-121.65"/>
<polygon fill="midnightblue" stroke="midnightblue" points="501.21,-135.8 491.96,-140.97 502.41,-142.69 501.21,-135.8"/>
</g>
<!-- Node8&#45;&gt;Node2 -->
<g id="edge8" class="edge">
<title>Node8&#45;&gt;Node2</title>
<path fill="none" stroke="orange" stroke-dasharray="5,2" d="M764.78,-108.5C787.12,-108.5 811.05,-108.5 832.82,-108.5"/>
<polygon fill="orange" stroke="orange" points="764.64,-105 754.64,-108.5 764.64,-112 764.64,-105"/>
<text text-anchor="middle" x="795" y="-111.5" font-family="Helvetica,sans-Serif" font-size="10.00"> &lt; float &gt;</text>
</g>
<!-- Node9&#45;&gt;Node8 -->
<g id="edge9" class="edge">
<title>Node9&#45;&gt;Node8</title>
<path fill="none" stroke="midnightblue" d="M525.38,-105.33C550.59,-105.86 577.84,-106.42 602.22,-106.93"/>
<polygon fill="midnightblue" stroke="midnightblue" points="525.16,-101.83 515.09,-105.12 525.01,-108.82 525.16,-101.83"/>
</g>
</g>
</svg>
