<?xml version="1.0" encoding="UTF-8" standalone="no"?>
<!DOCTYPE svg PUBLIC "-//W3C//DTD SVG 1.1//EN"
 "http://www.w3.org/Graphics/SVG/1.1/DTD/svg11.dtd">
<!-- Generated by graphviz version 2.50.0 (20211204.2007)
 -->
<!-- Title: lemons::dsp::Oscillator&lt; SampleType &gt; Pages: 1 -->
<svg width="675pt" height="235pt"
 viewBox="0.00 0.00 675.00 235.00" xmlns="http://www.w3.org/2000/svg" xmlns:xlink="http://www.w3.org/1999/xlink">
<g id="graph0" class="graph" transform="scale(1 1) rotate(0) translate(4 231)">
<title>lemons::dsp::Oscillator&lt; SampleType &gt;</title>
<!-- Node1 -->
<g id="node1" class="node">
<title>Node1</title>
<g id="a_node1"><a xlink:title="Base class for any kind of oscillator.">
<polygon fill="#bfbfbf" stroke="black" points="176,-98.5 176,-128.5 293,-128.5 293,-98.5 176,-98.5"/>
<text text-anchor="start" x="184" y="-116.5" font-family="Helvetica,sans-Serif" font-size="10.00">lemons::dsp::Oscillator</text>
<text text-anchor="middle" x="234.5" y="-105.5" font-family="Helvetica,sans-Serif" font-size="10.00">&lt; SampleType &gt;</text>
</a>
</g>
</g>
<!-- Node3 -->
<g id="node3" class="node">
<title>Node3</title>
<g id="a_node3"><a xlink:href="classlemons_1_1dsp_1_1osc_1_1_detunable_base.html" target="_top" xlink:title=" ">
<polygon fill="none" stroke="black" points="329,-196.5 329,-226.5 471,-226.5 471,-196.5 329,-196.5"/>
<text text-anchor="start" x="337" y="-214.5" font-family="Helvetica,sans-Serif" font-size="10.00">lemons::dsp::osc::Detunable</text>
<text text-anchor="middle" x="400" y="-203.5" font-family="Helvetica,sans-Serif" font-size="10.00">Base&lt; SampleType &gt;</text>
</a>
</g>
</g>
<!-- Node1&#45;&gt;Node3 -->
<g id="edge2" class="edge">
<title>Node1&#45;&gt;Node3</title>
<path fill="none" stroke="midnightblue" d="M259.28,-135.58C277.33,-151.42 303.34,-172.38 329,-186.5 335.67,-190.17 342.98,-193.48 350.29,-196.39"/>
<polygon fill="midnightblue" stroke="midnightblue" points="261.37,-132.75 251.58,-128.7 256.71,-137.97 261.37,-132.75"/>
</g>
<!-- Node5 -->
<g id="node5" class="node">
<title>Node5</title>
<g id="a_node5"><a xlink:href="structlemons_1_1dsp_1_1osc_1_1_saw.html" target="_top" xlink:title="A basic sawtooth wave oscillator.">
<polygon fill="none" stroke="black" points="341.5,-147.5 341.5,-177.5 458.5,-177.5 458.5,-147.5 341.5,-147.5"/>
<text text-anchor="start" x="349.5" y="-165.5" font-family="Helvetica,sans-Serif" font-size="10.00">lemons::dsp::osc::Saw</text>
<text text-anchor="middle" x="400" y="-154.5" font-family="Helvetica,sans-Serif" font-size="10.00">&lt; SampleType &gt;</text>
</a>
</g>
</g>
<!-- Node1&#45;&gt;Node5 -->
<g id="edge4" class="edge">
<title>Node1&#45;&gt;Node5</title>
<path fill="none" stroke="midnightblue" d="M295.94,-131.61C313.32,-136.82 332.08,-142.45 348.78,-147.45"/>
<polygon fill="midnightblue" stroke="midnightblue" points="296.47,-128.12 285.89,-128.6 294.46,-134.82 296.47,-128.12"/>
</g>
<!-- Node6 -->
<g id="node6" class="node">
<title>Node6</title>
<g id="a_node6"><a xlink:href="structlemons_1_1dsp_1_1osc_1_1_sine.html" target="_top" xlink:title="A basic sine wave oscillator.">
<polygon fill="none" stroke="black" points="341.5,-98.5 341.5,-128.5 458.5,-128.5 458.5,-98.5 341.5,-98.5"/>
<text text-anchor="start" x="349.5" y="-116.5" font-family="Helvetica,sans-Serif" font-size="10.00">lemons::dsp::osc::Sine</text>
<text text-anchor="middle" x="400" y="-105.5" font-family="Helvetica,sans-Serif" font-size="10.00">&lt; SampleType &gt;</text>
</a>
</g>
</g>
<!-- Node1&#45;&gt;Node6 -->
<g id="edge5" class="edge">
<title>Node1&#45;&gt;Node6</title>
<path fill="none" stroke="midnightblue" d="M303.18,-113.5C315.85,-113.5 328.99,-113.5 341.33,-113.5"/>
<polygon fill="midnightblue" stroke="midnightblue" points="303.14,-110 293.14,-113.5 303.14,-117 303.14,-110"/>
</g>
<!-- Node7 -->
<g id="node7" class="node">
<title>Node7</title>
<g id="a_node7"><a xlink:href="structlemons_1_1dsp_1_1osc_1_1_square.html" target="_top" xlink:title="A basic square wave oscillator.">
<polygon fill="none" stroke="black" points="336,-49.5 336,-79.5 464,-79.5 464,-49.5 336,-49.5"/>
<text text-anchor="start" x="344" y="-67.5" font-family="Helvetica,sans-Serif" font-size="10.00">lemons::dsp::osc::Square</text>
<text text-anchor="middle" x="400" y="-56.5" font-family="Helvetica,sans-Serif" font-size="10.00">&lt; SampleType &gt;</text>
</a>
</g>
</g>
<!-- Node1&#45;&gt;Node7 -->
<g id="edge6" class="edge">
<title>Node1&#45;&gt;Node7</title>
<path fill="none" stroke="midnightblue" d="M295.94,-95.39C313.32,-90.18 332.08,-84.55 348.78,-79.55"/>
<polygon fill="midnightblue" stroke="midnightblue" points="294.46,-92.18 285.89,-98.4 296.47,-98.88 294.46,-92.18"/>
</g>
<!-- Node8 -->
<g id="node8" class="node">
<title>Node8</title>
<g id="a_node8"><a xlink:href="structlemons_1_1dsp_1_1osc_1_1_triangle.html" target="_top" xlink:title="A basic triangle wave oscillator.">
<polygon fill="none" stroke="black" points="334,-0.5 334,-30.5 466,-30.5 466,-0.5 334,-0.5"/>
<text text-anchor="start" x="342" y="-18.5" font-family="Helvetica,sans-Serif" font-size="10.00">lemons::dsp::osc::Triangle</text>
<text text-anchor="middle" x="400" y="-7.5" font-family="Helvetica,sans-Serif" font-size="10.00">&lt; SampleType &gt;</text>
</a>
</g>
</g>
<!-- Node1&#45;&gt;Node8 -->
<g id="edge7" class="edge">
<title>Node1&#45;&gt;Node8</title>
<path fill="none" stroke="midnightblue" d="M258.85,-91.3C276.86,-75.14 303,-53.7 329,-39.5 335.09,-36.17 341.72,-33.18 348.4,-30.54"/>
<polygon fill="midnightblue" stroke="midnightblue" points="256.2,-88.97 251.18,-98.3 260.92,-94.14 256.2,-88.97"/>
</g>
<!-- Node2 -->
<g id="node2" class="node">
<title>Node2</title>
<g id="a_node2"><a xlink:href="structlemons_1_1dsp_1_1_sample_stream.html" target="_top" xlink:title="Base class for any object that can output a stream of audio samples, with no audio or MIDI input.">
<polygon fill="none" stroke="black" points="0,-98.5 0,-128.5 140,-128.5 140,-98.5 0,-98.5"/>
<text text-anchor="start" x="8" y="-116.5" font-family="Helvetica,sans-Serif" font-size="10.00">lemons::dsp::SampleStream</text>
<text text-anchor="middle" x="70" y="-105.5" font-family="Helvetica,sans-Serif" font-size="10.00">&lt; SampleType &gt;</text>
</a>
</g>
</g>
<!-- Node2&#45;&gt;Node1 -->
<g id="edge1" class="edge">
<title>Node2&#45;&gt;Node1</title>
<path fill="none" stroke="midnightblue" d="M150.42,-113.5C158.99,-113.5 167.59,-113.5 175.84,-113.5"/>
<polygon fill="midnightblue" stroke="midnightblue" points="150.39,-110 140.39,-113.5 150.39,-117 150.39,-110"/>
</g>
<!-- Node4 -->
<g id="node4" class="node">
<title>Node4</title>
<g id="a_node4"><a xlink:href="classlemons_1_1dsp_1_1osc_1_1_detunable.html" target="_top" xlink:title=" ">
<polygon fill="none" stroke="black" points="507,-196.5 507,-226.5 667,-226.5 667,-196.5 507,-196.5"/>
<text text-anchor="start" x="515" y="-214.5" font-family="Helvetica,sans-Serif" font-size="10.00">lemons::dsp::osc::Detunable</text>
<text text-anchor="middle" x="587" y="-203.5" font-family="Helvetica,sans-Serif" font-size="10.00">&lt; SampleType, OscillatorType, &gt;</text>
</a>
</g>
</g>
<!-- Node3&#45;&gt;Node4 -->
<g id="edge3" class="edge">
<title>Node3&#45;&gt;Node4</title>
<path fill="none" stroke="midnightblue" d="M481.42,-211.5C489.86,-211.5 498.44,-211.5 506.87,-211.5"/>
<polygon fill="midnightblue" stroke="midnightblue" points="481.2,-208 471.2,-211.5 481.2,-215 481.2,-208"/>
</g>
</g>
</svg>
