<?xml version="1.0" encoding="UTF-8" standalone="no"?>
<!DOCTYPE svg PUBLIC "-//W3C//DTD SVG 1.1//EN"
 "http://www.w3.org/Graphics/SVG/1.1/DTD/svg11.dtd">
<!-- Generated by graphviz version 2.43.0 (0)
 -->
<!-- Title: lemons::dsp::OscSynth&lt; SampleType, OscType &gt; Pages: 1 -->
<svg width="869pt" height="69pt"
 viewBox="0.00 0.00 869.00 68.50" xmlns="http://www.w3.org/2000/svg" xmlns:xlink="http://www.w3.org/1999/xlink">
<g id="graph0" class="graph" transform="scale(1 1) rotate(0) translate(4 64.5)">
<title>lemons::dsp::OscSynth&lt; SampleType, OscType &gt;</title>
<!-- Node1 -->
<g id="node1" class="node">
<title>Node1</title>
<g id="a_node1"><a xlink:title=" ">
<polygon fill="#bfbfbf" stroke="black" points="716,-24.5 716,-54.5 861,-54.5 861,-24.5 716,-24.5"/>
<text text-anchor="start" x="724" y="-42.5" font-family="Helvetica,sans-Serif" font-size="10.00">lemons::dsp::OscSynth</text>
<text text-anchor="middle" x="788.5" y="-31.5" font-family="Helvetica,sans-Serif" font-size="10.00">&lt; SampleType, OscType &gt;</text>
</a>
</g>
</g>
<!-- Node2 -->
<g id="node2" class="node">
<title>Node2</title>
<g id="a_node2"><a xlink:href="structlemons_1_1dsp_1_1_template_synth.html" target="_top" xlink:title=" ">
<polygon fill="none" stroke="black" points="514,-19 514,-60 679,-60 679,-19 514,-19"/>
<text text-anchor="start" x="522" y="-48" font-family="Helvetica,sans-Serif" font-size="10.00">lemons::dsp::TemplateSynth</text>
<text text-anchor="start" x="522" y="-37" font-family="Helvetica,sans-Serif" font-size="10.00">&lt; SampleType, OscSynthVoice</text>
<text text-anchor="middle" x="596.5" y="-26" font-family="Helvetica,sans-Serif" font-size="10.00">&lt; SampleType, OscType &gt; &gt;</text>
</a>
</g>
</g>
<!-- Node2&#45;&gt;Node1 -->
<g id="edge1" class="edge">
<title>Node2&#45;&gt;Node1</title>
<path fill="none" stroke="midnightblue" d="M689.21,-39.5C698.13,-39.5 707.08,-39.5 715.76,-39.5"/>
<polygon fill="midnightblue" stroke="midnightblue" points="689.18,-36 679.18,-39.5 689.18,-43 689.18,-36"/>
</g>
<!-- Node3 -->
<g id="node3" class="node">
<title>Node3</title>
<g id="a_node3"><a xlink:href="classlemons_1_1dsp_1_1_synth_base.html" target="_top" xlink:title=" ">
<polygon fill="none" stroke="black" points="0,-22.5 0,-52.5 134,-52.5 134,-22.5 0,-22.5"/>
<text text-anchor="start" x="8" y="-40.5" font-family="Helvetica,sans-Serif" font-size="10.00">lemons::dsp::SynthBase</text>
<text text-anchor="middle" x="67" y="-29.5" font-family="Helvetica,sans-Serif" font-size="10.00">&lt; SampleType &gt;</text>
</a>
</g>
</g>
<!-- Node3&#45;&gt;Node2 -->
<g id="edge2" class="edge">
<title>Node3&#45;&gt;Node2</title>
<path fill="none" stroke="midnightblue" d="M144.23,-41.22C146.85,-41.32 149.45,-41.41 152,-41.5 304.81,-46.73 343.17,-50.1 496,-45.5 501.79,-45.33 507.78,-45.09 513.8,-44.82"/>
<polygon fill="midnightblue" stroke="midnightblue" points="144.16,-37.71 134.02,-40.81 143.88,-44.71 144.16,-37.71"/>
</g>
<!-- Node4 -->
<g id="node4" class="node">
<title>Node4</title>
<g id="a_node4"><a xlink:href="structlemons_1_1dsp_1_1_template_synth.html" target="_top" xlink:title=" ">
<polygon fill="none" stroke="black" points="171,-0.5 171,-30.5 326,-30.5 326,-0.5 171,-0.5"/>
<text text-anchor="start" x="179" y="-18.5" font-family="Helvetica,sans-Serif" font-size="10.00">lemons::dsp::TemplateSynth</text>
<text text-anchor="middle" x="248.5" y="-7.5" font-family="Helvetica,sans-Serif" font-size="10.00">&lt; SampleType, VoiceType &gt;</text>
</a>
</g>
</g>
<!-- Node3&#45;&gt;Node4 -->
<g id="edge4" class="edge">
<title>Node3&#45;&gt;Node4</title>
<path fill="none" stroke="midnightblue" d="M144.03,-28.18C152.94,-27.09 162.03,-25.98 170.94,-24.88"/>
<polygon fill="midnightblue" stroke="midnightblue" points="143.57,-24.71 134.07,-29.4 144.43,-31.66 143.57,-24.71"/>
</g>
<!-- Node4&#45;&gt;Node2 -->
<g id="edge3" class="edge">
<title>Node4&#45;&gt;Node2</title>
<path fill="none" stroke="orange" stroke-dasharray="5,2" d="M336.48,-15.63C383.75,-16.38 443.19,-18.42 496,-23.5 501.83,-24.06 507.85,-24.75 513.89,-25.52"/>
<polygon fill="orange" stroke="orange" points="336.32,-12.13 326.27,-15.49 336.22,-19.13 336.32,-12.13"/>
<text text-anchor="start" x="344" y="-37.5" font-family="Helvetica,sans-Serif" font-size="10.00"> &lt; SampleType, OscSynthVoice</text>
<text text-anchor="middle" x="420" y="-26.5" font-family="Helvetica,sans-Serif" font-size="10.00">&lt; SampleType, OscType &gt; &gt;</text>
</g>
</g>
</svg>
