<?xml version="1.0" encoding="UTF-8" standalone="no"?>
<!DOCTYPE svg PUBLIC "-//W3C//DTD SVG 1.1//EN"
 "http://www.w3.org/Graphics/SVG/1.1/DTD/svg11.dtd">
<!-- Generated by graphviz version 2.43.0 (0)
 -->
<!-- Title: lemons::serializing::Toggler&lt; numStates &gt; Pages: 1 -->
<svg width="147pt" height="242pt"
 viewBox="0.00 0.00 147.00 242.00" xmlns="http://www.w3.org/2000/svg" xmlns:xlink="http://www.w3.org/1999/xlink">
<g id="graph0" class="graph" transform="scale(1 1) rotate(0) translate(4 238)">
<title>lemons::serializing::Toggler&lt; numStates &gt;</title>
<!-- Node1 -->
<g id="node1" class="node">
<title>Node1</title>
<g id="a_node1"><a xlink:title="Class that manages several versions of the state of a serializable object and allows you to switch be...">
<polygon fill="#bfbfbf" stroke="black" points="3,-78.5 3,-108.5 136,-108.5 136,-78.5 3,-78.5"/>
<text text-anchor="start" x="11" y="-96.5" font-family="Helvetica,sans-Serif" font-size="10.00">lemons::serializing</text>
<text text-anchor="middle" x="69.5" y="-85.5" font-family="Helvetica,sans-Serif" font-size="10.00">::Toggler&lt; numStates &gt;</text>
</a>
</g>
</g>
<!-- Node4 -->
<g id="node4" class="node">
<title>Node4</title>
<g id="a_node4"><a xlink:href="structlemons_1_1serializing_1_1_toggler.html" target="_top" xlink:title=" ">
<polygon fill="none" stroke="black" points="15,-0.5 15,-30.5 124,-30.5 124,-0.5 15,-0.5"/>
<text text-anchor="start" x="23" y="-18.5" font-family="Helvetica,sans-Serif" font-size="10.00">lemons::serializing</text>
<text text-anchor="middle" x="69.5" y="-7.5" font-family="Helvetica,sans-Serif" font-size="10.00">::Toggler&lt; 3 &gt;</text>
</a>
</g>
</g>
<!-- Node1&#45;&gt;Node4 -->
<g id="edge3" class="edge">
<title>Node1&#45;&gt;Node4</title>
<path fill="none" stroke="orange" stroke-dasharray="5,2" d="M69.5,-68.09C69.5,-55.76 69.5,-41.22 69.5,-30.73"/>
<polygon fill="orange" stroke="orange" points="66,-68.2 69.5,-78.2 73,-68.21 66,-68.2"/>
<text text-anchor="middle" x="85.5" y="-52" font-family="Helvetica,sans-Serif" font-size="10.00"> &lt; 3 &gt;</text>
</g>
<!-- Node2 -->
<g id="node2" class="node">
<title>Node2</title>
<g id="a_node2"><a xlink:href="structlemons_1_1serializing_1_1_toggler_interface.html" target="_top" xlink:title="Interface that all Togglers implement to be able to access one without knowing its template arguments...">
<polygon fill="none" stroke="black" points="15,-146.5 15,-176.5 124,-176.5 124,-146.5 15,-146.5"/>
<text text-anchor="start" x="23" y="-164.5" font-family="Helvetica,sans-Serif" font-size="10.00">lemons::serializing</text>
<text text-anchor="middle" x="69.5" y="-153.5" font-family="Helvetica,sans-Serif" font-size="10.00">::TogglerInterface</text>
</a>
</g>
</g>
<!-- Node2&#45;&gt;Node1 -->
<g id="edge1" class="edge">
<title>Node2&#45;&gt;Node1</title>
<path fill="none" stroke="midnightblue" d="M69.5,-136.03C69.5,-126.86 69.5,-116.74 69.5,-108.79"/>
<polygon fill="midnightblue" stroke="midnightblue" points="66,-136.18 69.5,-146.18 73,-136.18 66,-136.18"/>
</g>
<!-- Node3 -->
<g id="node3" class="node">
<title>Node3</title>
<g id="a_node3"><a xlink:href="structlemons_1_1_serializable_data.html" target="_top" xlink:title="Base class for any C++ object that needs to be serialized to binary and back.">
<polygon fill="none" stroke="black" points="0,-214.5 0,-233.5 139,-233.5 139,-214.5 0,-214.5"/>
<text text-anchor="middle" x="69.5" y="-221.5" font-family="Helvetica,sans-Serif" font-size="10.00">lemons::SerializableData</text>
</a>
</g>
</g>
<!-- Node3&#45;&gt;Node2 -->
<g id="edge2" class="edge">
<title>Node3&#45;&gt;Node2</title>
<path fill="none" stroke="midnightblue" d="M69.5,-204.22C69.5,-195.36 69.5,-184.96 69.5,-176.76"/>
<polygon fill="midnightblue" stroke="midnightblue" points="66,-204.33 69.5,-214.33 73,-204.33 66,-204.33"/>
</g>
</g>
</svg>
