<?xml version="1.0" encoding="UTF-8" standalone="no"?>
<!DOCTYPE svg PUBLIC "-//W3C//DTD SVG 1.1//EN"
 "http://www.w3.org/Graphics/SVG/1.1/DTD/svg11.dtd">
<!-- Generated by graphviz version 2.50.0 (20211204.2007)
 -->
<!-- Title: lemons::plugin::GainParameter Pages: 1 -->
<svg width="254pt" height="277pt"
 viewBox="0.00 0.00 253.50 277.00" xmlns="http://www.w3.org/2000/svg" xmlns:xlink="http://www.w3.org/1999/xlink">
<g id="graph0" class="graph" transform="scale(1 1) rotate(0) translate(4 273)">
<title>lemons::plugin::GainParameter</title>
<!-- Node1 -->
<g id="node1" class="node">
<title>Node1</title>
<g id="a_node1"><a xlink:title="A parameter that represents a gain value in decibels.">
<polygon fill="#bfbfbf" stroke="black" points="0.5,-0.5 0.5,-19.5 151.5,-19.5 151.5,-0.5 0.5,-0.5"/>
<text text-anchor="middle" x="76" y="-7.5" font-family="Helvetica,sans-Serif" font-size="10.00">lemons::plugin::GainParameter</text>
</a>
</g>
</g>
<!-- Node2 -->
<g id="node2" class="node">
<title>Node2</title>
<g id="a_node2"><a xlink:href="classlemons_1_1plugin_1_1_typed_parameter.html" target="_top" xlink:title=" ">
<polygon fill="none" stroke="black" points="34.5,-57.5 34.5,-76.5 117.5,-76.5 117.5,-57.5 34.5,-57.5"/>
<text text-anchor="middle" x="76" y="-64.5" font-family="Helvetica,sans-Serif" font-size="10.00">FloatParameter</text>
</a>
</g>
</g>
<!-- Node2&#45;&gt;Node1 -->
<g id="edge1" class="edge">
<title>Node2&#45;&gt;Node1</title>
<path fill="none" stroke="midnightblue" d="M76,-47.12C76,-37.82 76,-27.06 76,-19.71"/>
<polygon fill="midnightblue" stroke="midnightblue" points="72.5,-47.41 76,-57.41 79.5,-47.41 72.5,-47.41"/>
</g>
<!-- Node3 -->
<g id="node3" class="node">
<title>Node3</title>
<g id="a_node3"><a xlink:href="classlemons_1_1plugin_1_1_parameter.html" target="_top" xlink:title="A plugin parameter class.">
<polygon fill="none" stroke="black" points="6.5,-192.5 6.5,-211.5 137.5,-211.5 137.5,-192.5 6.5,-192.5"/>
<text text-anchor="middle" x="72" y="-199.5" font-family="Helvetica,sans-Serif" font-size="10.00">lemons::plugin::Parameter</text>
</a>
</g>
</g>
<!-- Node3&#45;&gt;Node2 -->
<g id="edge2" class="edge">
<title>Node3&#45;&gt;Node2</title>
<path fill="none" stroke="midnightblue" d="M72.57,-182.13C73.45,-152.88 75.1,-97.76 75.74,-76.59"/>
<polygon fill="midnightblue" stroke="midnightblue" points="69.06,-182.17 72.26,-192.27 76.06,-182.38 69.06,-182.17"/>
</g>
<!-- Node5 -->
<g id="node5" class="node">
<title>Node5</title>
<g id="a_node5"><a xlink:href="classlemons_1_1plugin_1_1_typed_parameter.html" target="_top" xlink:title="A parameter that can be stored as a type other than a float, but still inherits from my Parameter bas...">
<polygon fill="none" stroke="black" points="88.5,-124.5 88.5,-154.5 245.5,-154.5 245.5,-124.5 88.5,-124.5"/>
<text text-anchor="start" x="96.5" y="-142.5" font-family="Helvetica,sans-Serif" font-size="10.00">lemons::plugin::TypedParameter</text>
<text text-anchor="middle" x="167" y="-131.5" font-family="Helvetica,sans-Serif" font-size="10.00">&lt; ValueType &gt;</text>
</a>
</g>
</g>
<!-- Node3&#45;&gt;Node5 -->
<g id="edge5" class="edge">
<title>Node3&#45;&gt;Node5</title>
<path fill="none" stroke="midnightblue" d="M94.4,-186.73C109.67,-177.01 129.79,-164.2 144.98,-154.53"/>
<polygon fill="midnightblue" stroke="midnightblue" points="92.17,-184.01 85.61,-192.33 95.93,-189.91 92.17,-184.01"/>
</g>
<!-- Node4 -->
<g id="node4" class="node">
<title>Node4</title>
<g id="a_node4"><a xlink:title=" ">
<polygon fill="none" stroke="#bfbfbf" points="0,-249.5 0,-268.5 144,-268.5 144,-249.5 0,-249.5"/>
<text text-anchor="middle" x="72" y="-256.5" font-family="Helvetica,sans-Serif" font-size="10.00">juce::RangedAudioParameter</text>
</a>
</g>
</g>
<!-- Node4&#45;&gt;Node3 -->
<g id="edge3" class="edge">
<title>Node4&#45;&gt;Node3</title>
<path fill="none" stroke="midnightblue" d="M72,-239.12C72,-229.82 72,-219.06 72,-211.71"/>
<polygon fill="midnightblue" stroke="midnightblue" points="68.5,-239.41 72,-249.41 75.5,-239.41 68.5,-239.41"/>
</g>
<!-- Node5&#45;&gt;Node2 -->
<g id="edge4" class="edge">
<title>Node5&#45;&gt;Node2</title>
<path fill="none" stroke="orange" stroke-dasharray="5,2" d="M140.34,-117.84C122.66,-104.15 100.38,-86.89 87.22,-76.69"/>
<polygon fill="orange" stroke="orange" points="138.54,-120.88 148.58,-124.23 142.82,-115.34 138.54,-120.88"/>
<text text-anchor="middle" x="144" y="-98" font-family="Helvetica,sans-Serif" font-size="10.00"> &lt; float &gt;</text>
</g>
</g>
</svg>
