<?xml version="1.0" encoding="UTF-8" standalone="no"?>
<!DOCTYPE svg PUBLIC "-//W3C//DTD SVG 1.1//EN"
 "http://www.w3.org/Graphics/SVG/1.1/DTD/svg11.dtd">
<!-- Generated by graphviz version 2.50.0 (20211204.2007)
 -->
<!-- Title: lemons::gui::components::ComponentArray&lt; ComponentType, &gt; Pages: 1 -->
<svg width="537pt" height="132pt"
 viewBox="0.00 0.00 537.00 132.00" xmlns="http://www.w3.org/2000/svg" xmlns:xlink="http://www.w3.org/1999/xlink">
<g id="graph0" class="graph" transform="scale(1 1) rotate(0) translate(4 128)">
<title>lemons::gui::components::ComponentArray&lt; ComponentType, &gt;</title>
<!-- Node1 -->
<g id="node1" class="node">
<title>Node1</title>
<g id="a_node1"><a xlink:title=" ">
<polygon fill="#bfbfbf" stroke="black" points="0,-46.5 0,-76.5 188,-76.5 188,-46.5 0,-46.5"/>
<text text-anchor="start" x="8" y="-64.5" font-family="Helvetica,sans-Serif" font-size="10.00">lemons::gui::components</text>
<text text-anchor="middle" x="94" y="-53.5" font-family="Helvetica,sans-Serif" font-size="10.00">::ComponentArray&lt; ComponentType, &gt;</text>
</a>
</g>
</g>
<!-- Node2 -->
<g id="node2" class="node">
<title>Node2</title>
<g id="a_node2"><a xlink:href="structlemons_1_1gui_1_1components_1_1_component_array.html" target="_top" xlink:title=" ">
<polygon fill="none" stroke="black" points="365,-71.5 365,-123.5 529,-123.5 529,-71.5 365,-71.5"/>
<text text-anchor="start" x="373" y="-111.5" font-family="Helvetica,sans-Serif" font-size="10.00">lemons::gui::components</text>
<text text-anchor="start" x="373" y="-100.5" font-family="Helvetica,sans-Serif" font-size="10.00">::ComponentArray&lt; lemons</text>
<text text-anchor="start" x="373" y="-89.5" font-family="Helvetica,sans-Serif" font-size="10.00">::gui::components::ParameterMidi</text>
<text text-anchor="middle" x="447" y="-78.5" font-family="Helvetica,sans-Serif" font-size="10.00">MappingEditor &gt;</text>
</a>
</g>
</g>
<!-- Node1&#45;&gt;Node2 -->
<g id="edge1" class="edge">
<title>Node1&#45;&gt;Node2</title>
<path fill="none" stroke="orange" stroke-dasharray="5,2" d="M198.31,-74.65C200.9,-74.94 203.47,-75.22 206,-75.5 258.83,-81.25 318.31,-86.71 364.84,-90.75"/>
<polygon fill="orange" stroke="orange" points="198.57,-71.16 188.24,-73.49 197.78,-78.11 198.57,-71.16"/>
<text text-anchor="start" x="206" y="-102.5" font-family="Helvetica,sans-Serif" font-size="10.00"> &lt; lemons::gui::components</text>
<text text-anchor="middle" x="276.5" y="-91.5" font-family="Helvetica,sans-Serif" font-size="10.00">::ParameterMidiMappingEditor &gt;</text>
</g>
<!-- Node3 -->
<g id="node3" class="node">
<title>Node3</title>
<g id="a_node3"><a xlink:href="structlemons_1_1gui_1_1components_1_1_component_array.html" target="_top" xlink:title=" ">
<polygon fill="none" stroke="black" points="370.5,-0.5 370.5,-52.5 523.5,-52.5 523.5,-0.5 370.5,-0.5"/>
<text text-anchor="start" x="378.5" y="-40.5" font-family="Helvetica,sans-Serif" font-size="10.00">lemons::gui::components</text>
<text text-anchor="start" x="378.5" y="-29.5" font-family="Helvetica,sans-Serif" font-size="10.00">::ComponentArray&lt; lemons</text>
<text text-anchor="start" x="378.5" y="-18.5" font-family="Helvetica,sans-Serif" font-size="10.00">::gui::components::PluginDetail</text>
<text text-anchor="middle" x="447" y="-7.5" font-family="Helvetica,sans-Serif" font-size="10.00">View &gt;</text>
</a>
</g>
</g>
<!-- Node1&#45;&gt;Node3 -->
<g id="edge2" class="edge">
<title>Node1&#45;&gt;Node3</title>
<path fill="none" stroke="orange" stroke-dasharray="5,2" d="M198.3,-51.2C253.48,-45.7 320.18,-39.05 370.46,-34.03"/>
<polygon fill="orange" stroke="orange" points="197.74,-47.74 188.14,-52.21 198.44,-54.7 197.74,-47.74"/>
<text text-anchor="start" x="215.5" y="-63.5" font-family="Helvetica,sans-Serif" font-size="10.00"> &lt; lemons::gui::components</text>
<text text-anchor="middle" x="276.5" y="-52.5" font-family="Helvetica,sans-Serif" font-size="10.00">::PluginDetailView &gt;</text>
</g>
</g>
</svg>
