<?xml version="1.0" encoding="UTF-8" standalone="no"?>
<!DOCTYPE svg PUBLIC "-//W3C//DTD SVG 1.1//EN"
 "http://www.w3.org/Graphics/SVG/1.1/DTD/svg11.dtd">
<!-- Generated by graphviz version 2.43.0 (0)
 -->
<!-- Title: lemons::SerializableData Pages: 1 -->
<svg width="1504pt" height="1039pt"
 viewBox="0.00 0.00 1504.00 1039.00" xmlns="http://www.w3.org/2000/svg" xmlns:xlink="http://www.w3.org/1999/xlink">
<g id="graph0" class="graph" transform="scale(1 1) rotate(0) translate(4 1035)">
<title>lemons::SerializableData</title>
<!-- Node1 -->
<g id="node1" class="node">
<title>Node1</title>
<g id="a_node1"><a xlink:title="Base class for any C++ object that needs to be serialized to binary and back.">
<polygon fill="#bfbfbf" stroke="black" points="0,-354.5 0,-373.5 139,-373.5 139,-354.5 0,-354.5"/>
<text text-anchor="middle" x="69.5" y="-361.5" font-family="Helvetica,sans-Serif" font-size="10.00">lemons::SerializableData</text>
</a>
</g>
</g>
<!-- Node2 -->
<g id="node2" class="node">
<title>Node2</title>
<g id="a_node2"><a xlink:href="structlemons_1_1dsp_1_1FX_1_1AudioEffect.html" target="_top" xlink:title=" ">
<polygon fill="none" stroke="black" points="492.5,-913 492.5,-943 648.5,-943 648.5,-913 492.5,-913"/>
<text text-anchor="start" x="500.5" y="-931" font-family="Helvetica,sans-Serif" font-size="10.00">lemons::dsp::FX::AudioEffect</text>
<text text-anchor="middle" x="570.5" y="-920" font-family="Helvetica,sans-Serif" font-size="10.00">&lt; float &gt;</text>
</a>
</g>
</g>
<!-- Node1&#45;&gt;Node2 -->
<g id="edge1" class="edge">
<title>Node1&#45;&gt;Node2</title>
<path fill="none" stroke="midnightblue" d="M72.08,-383.88C79.08,-466.83 109.84,-784.33 176,-855 256.37,-940.85 402.46,-945.09 492.25,-938.11"/>
<polygon fill="midnightblue" stroke="midnightblue" points="75.56,-383.46 71.25,-373.78 68.58,-384.04 75.56,-383.46"/>
</g>
<!-- Node7 -->
<g id="node7" class="node">
<title>Node7</title>
<g id="a_node7"><a xlink:href="classlemons_1_1dsp_1_1osc_1_1ChoosableOscillator.html" target="_top" xlink:title=" ">
<polygon fill="none" stroke="black" points="493,-619 493,-649 648,-649 648,-619 493,-619"/>
<text text-anchor="start" x="501" y="-637" font-family="Helvetica,sans-Serif" font-size="10.00">lemons::dsp::osc::Choosable</text>
<text text-anchor="middle" x="570.5" y="-626" font-family="Helvetica,sans-Serif" font-size="10.00">Oscillator&lt; float &gt;</text>
</a>
</g>
</g>
<!-- Node1&#45;&gt;Node7 -->
<g id="edge6" class="edge">
<title>Node1&#45;&gt;Node7</title>
<path fill="none" stroke="midnightblue" d="M72.88,-383.79C79.58,-429.87 103.12,-544.35 176,-596 225.28,-630.92 392.79,-635.79 492.67,-635.42"/>
<polygon fill="midnightblue" stroke="midnightblue" points="76.31,-383.07 71.52,-373.63 69.38,-384 76.31,-383.07"/>
</g>
<!-- Node8 -->
<g id="node8" class="node">
<title>Node8</title>
<g id="a_node8"><a xlink:href="structlemons_1_1dsp_1_1FX_1_1AudioEffect.html" target="_top" xlink:title="Base class for any kind of audio effect.">
<polygon fill="none" stroke="black" points="189,-815 189,-845 345,-845 345,-815 189,-815"/>
<text text-anchor="start" x="197" y="-833" font-family="Helvetica,sans-Serif" font-size="10.00">lemons::dsp::FX::AudioEffect</text>
<text text-anchor="middle" x="267" y="-822" font-family="Helvetica,sans-Serif" font-size="10.00">&lt; SampleType &gt;</text>
</a>
</g>
</g>
<!-- Node1&#45;&gt;Node8 -->
<g id="edge7" class="edge">
<title>Node1&#45;&gt;Node8</title>
<path fill="none" stroke="midnightblue" d="M74.48,-383.76C85.43,-435.43 118.97,-577.9 176,-684 202.36,-733.05 238.23,-788.34 255.66,-814.59"/>
<polygon fill="midnightblue" stroke="midnightblue" points="77.85,-382.73 72.39,-373.65 70.99,-384.15 77.85,-382.73"/>
</g>
<!-- Node23 -->
<g id="node18" class="node">
<title>Node23</title>
<g id="a_node18"><a xlink:href="classlemons_1_1dsp_1_1FX_1_1Reverb.html" target="_top" xlink:title="Reverb effect class that wraps juce::Reverb with some other useful bells and whistles,...">
<polygon fill="none" stroke="black" points="199.5,-567.5 199.5,-586.5 334.5,-586.5 334.5,-567.5 199.5,-567.5"/>
<text text-anchor="middle" x="267" y="-574.5" font-family="Helvetica,sans-Serif" font-size="10.00">lemons::dsp::FX::Reverb</text>
</a>
</g>
</g>
<!-- Node1&#45;&gt;Node23 -->
<g id="edge21" class="edge">
<title>Node1&#45;&gt;Node23</title>
<path fill="none" stroke="midnightblue" d="M75.15,-383.26C85.75,-422.75 115.58,-512.98 176,-558 182.91,-563.15 190.92,-566.98 199.24,-569.8"/>
<polygon fill="midnightblue" stroke="midnightblue" points="78.54,-382.36 72.67,-373.54 71.76,-384.1 78.54,-382.36"/>
</g>
<!-- Node24 -->
<g id="node19" class="node">
<title>Node24</title>
<g id="a_node19"><a xlink:href="classlemons_1_1dsp_1_1osc_1_1ChoosableOscillator.html" target="_top" xlink:title="A class that encapsulates together all the kinds of oscillators, and allows you to seamlessly switch ...">
<polygon fill="none" stroke="black" points="189.5,-644 189.5,-674 344.5,-674 344.5,-644 189.5,-644"/>
<text text-anchor="start" x="197.5" y="-662" font-family="Helvetica,sans-Serif" font-size="10.00">lemons::dsp::osc::Choosable</text>
<text text-anchor="middle" x="267" y="-651" font-family="Helvetica,sans-Serif" font-size="10.00">Oscillator&lt; SampleType &gt;</text>
</a>
</g>
</g>
<!-- Node1&#45;&gt;Node24 -->
<g id="edge22" class="edge">
<title>Node1&#45;&gt;Node24</title>
<path fill="none" stroke="midnightblue" d="M70.91,-383.83C73.04,-432.87 85.52,-560.8 157,-629 166.09,-637.67 177.44,-643.88 189.37,-648.32"/>
<polygon fill="midnightblue" stroke="midnightblue" points="74.4,-383.5 70.57,-373.62 67.41,-383.73 74.4,-383.5"/>
</g>
<!-- Node25 -->
<g id="node20" class="node">
<title>Node25</title>
<g id="a_node20"><a xlink:href="classlemons_1_1plugin_1_1ModulationManager.html" target="_top" xlink:title=" ">
<polygon fill="none" stroke="black" points="192.5,-518 192.5,-548 341.5,-548 341.5,-518 192.5,-518"/>
<text text-anchor="start" x="200.5" y="-536" font-family="Helvetica,sans-Serif" font-size="10.00">lemons::plugin::Modulation</text>
<text text-anchor="middle" x="267" y="-525" font-family="Helvetica,sans-Serif" font-size="10.00">Manager</text>
</a>
</g>
</g>
<!-- Node1&#45;&gt;Node25 -->
<g id="edge24" class="edge">
<title>Node1&#45;&gt;Node25</title>
<path fill="none" stroke="midnightblue" d="M78.93,-382.81C93.87,-413.96 128.02,-476.09 176,-509 181.07,-512.48 186.61,-515.45 192.38,-517.99"/>
<polygon fill="midnightblue" stroke="midnightblue" points="82,-381.11 74.6,-373.52 75.65,-384.06 82,-381.11"/>
</g>
<!-- Node26 -->
<g id="node21" class="node">
<title>Node26</title>
<g id="a_node21"><a xlink:href="structlemons_1_1plugin_1_1ModulationManager_1_1LFO.html" target="_top" xlink:title=" ">
<polygon fill="none" stroke="black" points="192.5,-469 192.5,-499 341.5,-499 341.5,-469 192.5,-469"/>
<text text-anchor="start" x="200.5" y="-487" font-family="Helvetica,sans-Serif" font-size="10.00">lemons::plugin::Modulation</text>
<text text-anchor="middle" x="267" y="-476" font-family="Helvetica,sans-Serif" font-size="10.00">Manager::LFO</text>
</a>
</g>
</g>
<!-- Node1&#45;&gt;Node26 -->
<g id="edge25" class="edge">
<title>Node1&#45;&gt;Node26</title>
<path fill="none" stroke="midnightblue" d="M85.07,-381.33C103.93,-402.67 138.81,-438.58 176,-459 182.97,-462.82 190.56,-466.1 198.29,-468.9"/>
<polygon fill="midnightblue" stroke="midnightblue" points="87.63,-378.94 78.44,-373.67 82.34,-383.52 87.63,-378.94"/>
</g>
<!-- Node27 -->
<g id="node22" class="node">
<title>Node27</title>
<g id="a_node22"><a xlink:href="classlemons_1_1plugin_1_1Parameter.html" target="_top" xlink:title="A plugin parameter class that allows you to use my Serializing API, and has a few other cool bells an...">
<polygon fill="none" stroke="black" points="194.5,-430.5 194.5,-449.5 339.5,-449.5 339.5,-430.5 194.5,-430.5"/>
<text text-anchor="middle" x="267" y="-437.5" font-family="Helvetica,sans-Serif" font-size="10.00">lemons::plugin::Parameter</text>
</a>
</g>
</g>
<!-- Node1&#45;&gt;Node27 -->
<g id="edge26" class="edge">
<title>Node1&#45;&gt;Node27</title>
<path fill="none" stroke="midnightblue" d="M93.62,-379.02C114.41,-391.9 146.17,-410.05 176,-421 186.34,-424.8 197.65,-427.93 208.65,-430.47"/>
<polygon fill="midnightblue" stroke="midnightblue" points="95.22,-375.89 84.89,-373.52 91.49,-381.81 95.22,-375.89"/>
</g>
<!-- Node42 -->
<g id="node35" class="node">
<title>Node42</title>
<g id="a_node35"><a xlink:href="classlemons_1_1plugin_1_1ParameterList.html" target="_top" xlink:title="This class manages a list of a plugin&#39;s parameters.">
<polygon fill="none" stroke="black" points="186,-392.5 186,-411.5 348,-411.5 348,-392.5 186,-392.5"/>
<text text-anchor="middle" x="267" y="-399.5" font-family="Helvetica,sans-Serif" font-size="10.00">lemons::plugin::ParameterList</text>
</a>
</g>
</g>
<!-- Node1&#45;&gt;Node42 -->
<g id="edge40" class="edge">
<title>Node1&#45;&gt;Node42</title>
<path fill="none" stroke="midnightblue" d="M129.61,-375.49C157.5,-380.91 190.4,-387.31 216.9,-392.46"/>
<polygon fill="midnightblue" stroke="midnightblue" points="130.06,-372.01 119.58,-373.54 128.73,-378.88 130.06,-372.01"/>
</g>
<!-- Node43 -->
<g id="node36" class="node">
<title>Node43</title>
<g id="a_node36"><a xlink:href="structlemons_1_1plugin_1_1ParamHolderBase.html" target="_top" xlink:title="Base class for ParameterHolder that allows any kind of parameter to be accessed without knowing the f...">
<polygon fill="none" stroke="black" points="176,-354.5 176,-373.5 358,-373.5 358,-354.5 176,-354.5"/>
<text text-anchor="middle" x="267" y="-361.5" font-family="Helvetica,sans-Serif" font-size="10.00">lemons::plugin::ParamHolderBase</text>
</a>
</g>
</g>
<!-- Node1&#45;&gt;Node43 -->
<g id="edge41" class="edge">
<title>Node1&#45;&gt;Node43</title>
<path fill="none" stroke="midnightblue" d="M149.31,-364C158.06,-364 167.02,-364 175.9,-364"/>
<polygon fill="midnightblue" stroke="midnightblue" points="149.15,-360.5 139.15,-364 149.15,-367.5 149.15,-360.5"/>
</g>
<!-- Node46 -->
<g id="node39" class="node">
<title>Node46</title>
<g id="a_node39"><a xlink:href="structlemons_1_1plugin_1_1PluginState.html" target="_top" xlink:title=" ">
<polygon fill="none" stroke="black" points="192,-305 192,-335 342,-335 342,-305 192,-305"/>
<text text-anchor="start" x="200" y="-323" font-family="Helvetica,sans-Serif" font-size="10.00">lemons::plugin::PluginState</text>
<text text-anchor="middle" x="267" y="-312" font-family="Helvetica,sans-Serif" font-size="10.00">&lt; StateType, &gt;</text>
</a>
</g>
</g>
<!-- Node1&#45;&gt;Node46 -->
<g id="edge45" class="edge">
<title>Node1&#45;&gt;Node46</title>
<path fill="none" stroke="midnightblue" d="M122.99,-352.19C146.38,-346.92 174.2,-340.66 199.06,-335.07"/>
<polygon fill="midnightblue" stroke="midnightblue" points="121.91,-348.84 112.92,-354.45 123.45,-355.67 121.91,-348.84"/>
</g>
<!-- Node47 -->
<g id="node40" class="node">
<title>Node47</title>
<g id="a_node40"><a xlink:href="structlemons_1_1plugin_1_1PluginState.html" target="_top" xlink:title=" ">
<polygon fill="none" stroke="black" points="495.5,-252 495.5,-282 645.5,-282 645.5,-252 495.5,-252"/>
<text text-anchor="start" x="503.5" y="-270" font-family="Helvetica,sans-Serif" font-size="10.00">lemons::plugin::PluginState</text>
<text text-anchor="middle" x="570.5" y="-259" font-family="Helvetica,sans-Serif" font-size="10.00">&lt; StateType &gt;</text>
</a>
</g>
</g>
<!-- Node1&#45;&gt;Node47 -->
<g id="edge56" class="edge">
<title>Node1&#45;&gt;Node47</title>
<path fill="none" stroke="midnightblue" d="M88.91,-347.99C108.86,-331.69 142.37,-307.26 176,-296 282.69,-260.28 414.46,-258.46 495.21,-261.74"/>
<polygon fill="midnightblue" stroke="midnightblue" points="86.65,-345.31 81.23,-354.41 91.14,-350.68 86.65,-345.31"/>
</g>
<!-- Node48 -->
<g id="node41" class="node">
<title>Node48</title>
<g id="a_node41"><a xlink:href="structlemons_1_1plugin_1_1Preset.html" target="_top" xlink:title=" ">
<polygon fill="none" stroke="black" points="204.5,-228.5 204.5,-247.5 329.5,-247.5 329.5,-228.5 204.5,-228.5"/>
<text text-anchor="middle" x="267" y="-235.5" font-family="Helvetica,sans-Serif" font-size="10.00">lemons::plugin::Preset</text>
</a>
</g>
</g>
<!-- Node1&#45;&gt;Node48 -->
<g id="edge47" class="edge">
<title>Node1&#45;&gt;Node48</title>
<path fill="none" stroke="midnightblue" d="M80.97,-345.42C95.11,-322.13 122.54,-282.75 157,-262 171.19,-253.45 188.06,-247.94 204.24,-244.38"/>
<polygon fill="midnightblue" stroke="midnightblue" points="77.79,-343.92 75.74,-354.32 83.83,-347.47 77.79,-343.92"/>
</g>
<!-- Node49 -->
<g id="node42" class="node">
<title>Node49</title>
<g id="a_node42"><a xlink:href="classlemons_1_1plugin_1_1StateBase.html" target="_top" xlink:title="Base class for a plugin&#39;s state.">
<polygon fill="none" stroke="black" points="195,-190.5 195,-209.5 339,-209.5 339,-190.5 195,-190.5"/>
<text text-anchor="middle" x="267" y="-197.5" font-family="Helvetica,sans-Serif" font-size="10.00">lemons::plugin::StateBase</text>
</a>
</g>
</g>
<!-- Node1&#45;&gt;Node49 -->
<g id="edge48" class="edge">
<title>Node1&#45;&gt;Node49</title>
<path fill="none" stroke="midnightblue" d="M78.74,-344.91C93.41,-313.35 127.18,-250.64 176,-219 181.9,-215.18 188.43,-212.11 195.19,-209.65"/>
<polygon fill="midnightblue" stroke="midnightblue" points="75.42,-343.78 74.5,-354.33 81.8,-346.65 75.42,-343.78"/>
</g>
<!-- Node52 -->
<g id="node45" class="node">
<title>Node52</title>
<g id="a_node45"><a xlink:href="structlemons_1_1plugin_1_1StateToggler.html" target="_top" xlink:title=" ">
<polygon fill="none" stroke="black" points="189.5,-152.5 189.5,-171.5 344.5,-171.5 344.5,-152.5 189.5,-152.5"/>
<text text-anchor="middle" x="267" y="-159.5" font-family="Helvetica,sans-Serif" font-size="10.00">lemons::plugin::StateToggler</text>
</a>
</g>
</g>
<!-- Node1&#45;&gt;Node52 -->
<g id="edge51" class="edge">
<title>Node1&#45;&gt;Node52</title>
<path fill="none" stroke="midnightblue" d="M75.96,-344.27C87.57,-306.22 118.47,-222.77 176,-181 181.3,-177.15 187.21,-174.05 193.4,-171.55"/>
<polygon fill="midnightblue" stroke="midnightblue" points="72.53,-343.55 73.08,-354.13 79.24,-345.51 72.53,-343.55"/>
</g>
<!-- Node53 -->
<g id="node46" class="node">
<title>Node53</title>
<g id="a_node46"><a xlink:href="structlemons_1_1spline_1_1Knot.html" target="_top" xlink:title=" ">
<polygon fill="none" stroke="black" points="209,-114.5 209,-133.5 325,-133.5 325,-114.5 209,-114.5"/>
<text text-anchor="middle" x="267" y="-121.5" font-family="Helvetica,sans-Serif" font-size="10.00">lemons::spline::Knot</text>
</a>
</g>
</g>
<!-- Node1&#45;&gt;Node53 -->
<g id="edge52" class="edge">
<title>Node1&#45;&gt;Node53</title>
<path fill="none" stroke="midnightblue" d="M73.89,-344.2C82.47,-300.5 109.3,-195.49 176,-143 185.41,-135.59 197.03,-130.9 208.76,-127.96"/>
<polygon fill="midnightblue" stroke="midnightblue" points="70.43,-343.68 72.05,-354.15 77.31,-344.95 70.43,-343.68"/>
</g>
<!-- Node54 -->
<g id="node47" class="node">
<title>Node54</title>
<g id="a_node47"><a xlink:href="structlemons_1_1spline_1_1Knots.html" target="_top" xlink:title=" ">
<polygon fill="none" stroke="black" points="206,-76.5 206,-95.5 328,-95.5 328,-76.5 206,-76.5"/>
<text text-anchor="middle" x="267" y="-83.5" font-family="Helvetica,sans-Serif" font-size="10.00">lemons::spline::Knots</text>
</a>
</g>
</g>
<!-- Node1&#45;&gt;Node54 -->
<g id="edge53" class="edge">
<title>Node1&#45;&gt;Node54</title>
<path fill="none" stroke="midnightblue" d="M72.37,-344.24C78.1,-295.43 99.94,-168.55 176,-105 184.46,-97.94 194.89,-93.3 205.63,-90.29"/>
<polygon fill="midnightblue" stroke="midnightblue" points="68.87,-344.08 71.28,-354.4 75.83,-344.83 68.87,-344.08"/>
</g>
<!-- Node55 -->
<g id="node48" class="node">
<title>Node55</title>
<g id="a_node48"><a xlink:href="structlemons_1_1spline_1_1Spline.html" target="_top" xlink:title=" ">
<polygon fill="none" stroke="black" points="205,-38.5 205,-57.5 329,-57.5 329,-38.5 205,-38.5"/>
<text text-anchor="middle" x="267" y="-45.5" font-family="Helvetica,sans-Serif" font-size="10.00">lemons::spline::Spline</text>
</a>
</g>
</g>
<!-- Node1&#45;&gt;Node55 -->
<g id="edge54" class="edge">
<title>Node1&#45;&gt;Node55</title>
<path fill="none" stroke="midnightblue" d="M71.18,-344.27C74.14,-290.67 90.11,-141.47 176,-67 184.2,-59.89 194.4,-55.21 204.95,-52.18"/>
<polygon fill="midnightblue" stroke="midnightblue" points="67.67,-344.3 70.71,-354.45 74.66,-344.62 67.67,-344.3"/>
</g>
<!-- Node56 -->
<g id="node49" class="node">
<title>Node56</title>
<g id="a_node49"><a xlink:href="structlemons_1_1Version.html" target="_top" xlink:title="A class that represents a version of something, with major, minor, and patch numbers.">
<polygon fill="none" stroke="black" points="219.5,-0.5 219.5,-19.5 314.5,-19.5 314.5,-0.5 219.5,-0.5"/>
<text text-anchor="middle" x="267" y="-7.5" font-family="Helvetica,sans-Serif" font-size="10.00">lemons::Version</text>
</a>
</g>
</g>
<!-- Node1&#45;&gt;Node56 -->
<g id="edge55" class="edge">
<title>Node1&#45;&gt;Node56</title>
<path fill="none" stroke="midnightblue" d="M70.12,-344.35C70.16,-286.1 78.82,-113.25 176,-29 187.95,-18.64 204.11,-13.46 219.45,-10.99"/>
<polygon fill="midnightblue" stroke="midnightblue" points="66.62,-344.44 70.21,-354.41 73.62,-344.38 66.62,-344.44"/>
</g>
<!-- Node3 -->
<g id="node3" class="node">
<title>Node3</title>
<g id="a_node3"><a xlink:href="structlemons_1_1dsp_1_1FX_1_1SidechainableAudioEffect.html" target="_top" xlink:title=" ">
<polygon fill="none" stroke="black" points="863,-923 863,-953 1032,-953 1032,-923 863,-923"/>
<text text-anchor="start" x="871" y="-941" font-family="Helvetica,sans-Serif" font-size="10.00">lemons::dsp::FX::Sidechainable</text>
<text text-anchor="middle" x="947.5" y="-930" font-family="Helvetica,sans-Serif" font-size="10.00">AudioEffect&lt; float &gt;</text>
</a>
</g>
</g>
<!-- Node2&#45;&gt;Node3 -->
<g id="edge2" class="edge">
<title>Node2&#45;&gt;Node3</title>
<path fill="none" stroke="midnightblue" d="M658.82,-930.33C720.32,-931.97 802.17,-934.15 862.84,-935.77"/>
<polygon fill="midnightblue" stroke="midnightblue" points="658.84,-926.83 648.75,-930.06 658.65,-933.83 658.84,-926.83"/>
</g>
<!-- Node6 -->
<g id="node6" class="node">
<title>Node6</title>
<g id="a_node6"><a xlink:href="classlemons_1_1dsp_1_1FX_1_1SmoothedGain.html" target="_top" xlink:title=" ">
<polygon fill="none" stroke="black" points="872.5,-849 872.5,-879 1022.5,-879 1022.5,-849 872.5,-849"/>
<text text-anchor="start" x="880.5" y="-867" font-family="Helvetica,sans-Serif" font-size="10.00">lemons::dsp::FX::Smoothed</text>
<text text-anchor="middle" x="947.5" y="-856" font-family="Helvetica,sans-Serif" font-size="10.00">Gain&lt; float, 2 &gt;</text>
</a>
</g>
</g>
<!-- Node2&#45;&gt;Node6 -->
<g id="edge5" class="edge">
<title>Node2&#45;&gt;Node6</title>
<path fill="none" stroke="midnightblue" d="M658.93,-913.08C723.65,-902.03 810.87,-887.15 872.23,-876.68"/>
<polygon fill="midnightblue" stroke="midnightblue" points="658.01,-909.68 648.75,-914.82 659.19,-916.58 658.01,-909.68"/>
</g>
<!-- Node4 -->
<g id="node4" class="node">
<title>Node4</title>
<g id="a_node4"><a xlink:href="structlemons_1_1dsp_1_1FX_1_1LevelReportingAudioEffect.html" target="_top" xlink:title=" ">
<polygon fill="none" stroke="black" points="1126,-943 1126,-973 1300,-973 1300,-943 1126,-943"/>
<text text-anchor="start" x="1134" y="-961" font-family="Helvetica,sans-Serif" font-size="10.00">lemons::dsp::FX::LevelReporting</text>
<text text-anchor="middle" x="1213" y="-950" font-family="Helvetica,sans-Serif" font-size="10.00">AudioEffect&lt; float &gt;</text>
</a>
</g>
</g>
<!-- Node3&#45;&gt;Node4 -->
<g id="edge3" class="edge">
<title>Node3&#45;&gt;Node4</title>
<path fill="none" stroke="midnightblue" d="M1042.51,-945.14C1069.65,-947.2 1099.12,-949.43 1125.76,-951.45"/>
<polygon fill="midnightblue" stroke="midnightblue" points="1042.47,-941.62 1032.24,-944.36 1041.94,-948.6 1042.47,-941.62"/>
</g>
<!-- Node5 -->
<g id="node5" class="node">
<title>Node5</title>
<g id="a_node5"><a xlink:href="classlemons_1_1dsp_1_1FX_1_1Compressor.html" target="_top" xlink:title=" ">
<polygon fill="none" stroke="red" points="1337,-943 1337,-973 1496,-973 1496,-943 1337,-943"/>
<text text-anchor="start" x="1345" y="-961" font-family="Helvetica,sans-Serif" font-size="10.00">lemons::dsp::FX::Compressor</text>
<text text-anchor="middle" x="1416.5" y="-950" font-family="Helvetica,sans-Serif" font-size="10.00">&lt; float &gt;</text>
</a>
</g>
</g>
<!-- Node4&#45;&gt;Node5 -->
<g id="edge4" class="edge">
<title>Node4&#45;&gt;Node5</title>
<path fill="none" stroke="midnightblue" d="M1310.09,-958C1319.03,-958 1328.01,-958 1336.77,-958"/>
<polygon fill="midnightblue" stroke="midnightblue" points="1310.04,-954.5 1300.04,-958 1310.04,-961.5 1310.04,-954.5"/>
</g>
<!-- Node8&#45;&gt;Node2 -->
<g id="edge20" class="edge">
<title>Node8&#45;&gt;Node2</title>
<path fill="none" stroke="orange" stroke-dasharray="5,2" d="M313.92,-848.82C354.11,-864.84 414.3,-887.78 468,-904 478.57,-907.19 489.87,-910.23 500.95,-913"/>
<polygon fill="orange" stroke="orange" points="314.99,-845.47 304.4,-845 312.38,-851.97 314.99,-845.47"/>
<text text-anchor="middle" x="413" y="-900" font-family="Helvetica,sans-Serif" font-size="10.00"> &lt; float &gt;</text>
</g>
<!-- Node9 -->
<g id="node9" class="node">
<title>Node9</title>
<g id="a_node9"><a xlink:href="classlemons_1_1dsp_1_1FX_1_1EQ.html" target="_top" xlink:title="An equalizer effect class.">
<polygon fill="none" stroke="black" points="513.5,-864 513.5,-894 627.5,-894 627.5,-864 513.5,-864"/>
<text text-anchor="start" x="521.5" y="-882" font-family="Helvetica,sans-Serif" font-size="10.00">lemons::dsp::FX::EQ</text>
<text text-anchor="middle" x="570.5" y="-871" font-family="Helvetica,sans-Serif" font-size="10.00">&lt; SampleType &gt;</text>
</a>
</g>
</g>
<!-- Node8&#45;&gt;Node9 -->
<g id="edge8" class="edge">
<title>Node8&#45;&gt;Node9</title>
<path fill="none" stroke="midnightblue" d="M355.27,-844.18C406.22,-852.46 469,-862.67 513.39,-869.88"/>
<polygon fill="midnightblue" stroke="midnightblue" points="355.68,-840.7 345.25,-842.56 354.56,-847.61 355.68,-840.7"/>
</g>
<!-- Node10 -->
<g id="node10" class="node">
<title>Node10</title>
<g id="a_node10"><a xlink:href="classlemons_1_1dsp_1_1FX_1_1Filter.html" target="_top" xlink:title="A filter audio effect class that wraps the more low&#45;level filters::Filter.">
<polygon fill="none" stroke="black" points="508,-815 508,-845 633,-845 633,-815 508,-815"/>
<text text-anchor="start" x="516" y="-833" font-family="Helvetica,sans-Serif" font-size="10.00">lemons::dsp::FX::Filter</text>
<text text-anchor="middle" x="570.5" y="-822" font-family="Helvetica,sans-Serif" font-size="10.00">&lt; SampleType &gt;</text>
</a>
</g>
</g>
<!-- Node8&#45;&gt;Node10 -->
<g id="edge9" class="edge">
<title>Node8&#45;&gt;Node10</title>
<path fill="none" stroke="midnightblue" d="M355.48,-830C404.22,-830 463.74,-830 507.63,-830"/>
<polygon fill="midnightblue" stroke="midnightblue" points="355.25,-826.5 345.25,-830 355.25,-833.5 355.25,-826.5"/>
</g>
<!-- Node11 -->
<g id="node11" class="node">
<title>Node11</title>
<g id="a_node11"><a xlink:href="classlemons_1_1dsp_1_1FX_1_1Saturator.html" target="_top" xlink:title=" ">
<polygon fill="none" stroke="black" points="497.5,-717 497.5,-747 643.5,-747 643.5,-717 497.5,-717"/>
<text text-anchor="start" x="505.5" y="-735" font-family="Helvetica,sans-Serif" font-size="10.00">lemons::dsp::FX::Saturator</text>
<text text-anchor="middle" x="570.5" y="-724" font-family="Helvetica,sans-Serif" font-size="10.00">&lt; SampleType &gt;</text>
</a>
</g>
</g>
<!-- Node8&#45;&gt;Node11 -->
<g id="edge10" class="edge">
<title>Node8&#45;&gt;Node11</title>
<path fill="none" stroke="#8b1a1a" d="M315.1,-811.17C355.32,-795.48 414.92,-773.17 468,-757 479.54,-753.48 491.94,-750.11 503.97,-747.03"/>
<polygon fill="#8b1a1a" stroke="#8b1a1a" points="313.59,-808 305.56,-814.9 316.14,-814.52 313.59,-808"/>
</g>
<!-- Node12 -->
<g id="node12" class="node">
<title>Node12</title>
<g id="a_node12"><a xlink:href="structlemons_1_1dsp_1_1FX_1_1SidechainableAudioEffect.html" target="_top" xlink:title="Base class for audio effects that accept a sidechain signal.">
<polygon fill="none" stroke="black" points="486,-962 486,-992 655,-992 655,-962 486,-962"/>
<text text-anchor="start" x="494" y="-980" font-family="Helvetica,sans-Serif" font-size="10.00">lemons::dsp::FX::Sidechainable</text>
<text text-anchor="middle" x="570.5" y="-969" font-family="Helvetica,sans-Serif" font-size="10.00">AudioEffect&lt; SampleType &gt;</text>
</a>
</g>
</g>
<!-- Node8&#45;&gt;Node12 -->
<g id="edge11" class="edge">
<title>Node8&#45;&gt;Node12</title>
<path fill="none" stroke="midnightblue" d="M292.66,-852.03C313.68,-869.96 345.27,-894.99 376,-912 406.77,-929.03 419.03,-923.34 450,-940 458.69,-944.68 459.03,-948.9 468,-953 475.49,-956.43 483.53,-959.39 491.68,-961.95"/>
<polygon fill="midnightblue" stroke="midnightblue" points="294.74,-849.19 284.88,-845.3 290.16,-854.49 294.74,-849.19"/>
</g>
<!-- Node19 -->
<g id="node14" class="node">
<title>Node19</title>
<g id="a_node14"><a xlink:href="classlemons_1_1dsp_1_1FX_1_1SmoothedGain.html" target="_top" xlink:title="A handy effect class that allows you to change the gain of a stream of audio, and will smooth the cha...">
<polygon fill="none" stroke="black" points="495.5,-766 495.5,-796 645.5,-796 645.5,-766 495.5,-766"/>
<text text-anchor="start" x="503.5" y="-784" font-family="Helvetica,sans-Serif" font-size="10.00">lemons::dsp::FX::Smoothed</text>
<text text-anchor="middle" x="570.5" y="-773" font-family="Helvetica,sans-Serif" font-size="10.00">Gain&lt; SampleType &gt;</text>
</a>
</g>
</g>
<!-- Node8&#45;&gt;Node19 -->
<g id="edge15" class="edge">
<title>Node8&#45;&gt;Node19</title>
<path fill="none" stroke="midnightblue" d="M355.16,-815.83C399.54,-808.62 452.92,-799.95 495.31,-793.06"/>
<polygon fill="midnightblue" stroke="midnightblue" points="354.56,-812.39 345.25,-817.44 355.68,-819.3 354.56,-812.39"/>
</g>
<!-- Node21 -->
<g id="node16" class="node">
<title>Node21</title>
<g id="a_node16"><a xlink:href="classlemons_1_1dsp_1_1FX_1_1StereoPanner.html" target="_top" xlink:title=" ">
<polygon fill="none" stroke="black" points="488,-668 488,-698 653,-698 653,-668 488,-668"/>
<text text-anchor="start" x="496" y="-686" font-family="Helvetica,sans-Serif" font-size="10.00">lemons::dsp::FX::StereoPanner</text>
<text text-anchor="middle" x="570.5" y="-675" font-family="Helvetica,sans-Serif" font-size="10.00">&lt; SampleType &gt;</text>
</a>
</g>
</g>
<!-- Node8&#45;&gt;Node21 -->
<g id="edge18" class="edge">
<title>Node8&#45;&gt;Node21</title>
<path fill="none" stroke="midnightblue" d="M295.81,-808.66C333,-781.19 401.92,-733.92 468,-708 477.55,-704.26 487.82,-700.95 498.04,-698.06"/>
<polygon fill="midnightblue" stroke="midnightblue" points="293.42,-806.08 287.5,-814.87 297.6,-811.69 293.42,-806.08"/>
</g>
<!-- Node22 -->
<g id="node17" class="node">
<title>Node22</title>
<g id="a_node17"><a xlink:href="classlemons_1_1dsp_1_1FX_1_1SmoothedGain.html" target="_top" xlink:title=" ">
<polygon fill="none" stroke="black" points="479.5,-1011.5 479.5,-1030.5 661.5,-1030.5 661.5,-1011.5 479.5,-1011.5"/>
<text text-anchor="middle" x="570.5" y="-1018.5" font-family="Helvetica,sans-Serif" font-size="10.00">SmoothedGain&lt; SampleType, 1 &gt;</text>
</a>
</g>
</g>
<!-- Node8&#45;&gt;Node22 -->
<g id="edge19" class="edge">
<title>Node8&#45;&gt;Node22</title>
<path fill="none" stroke="midnightblue" d="M286.39,-853.27C318.51,-891.97 388.98,-968.59 468,-1002 477.25,-1005.91 487.3,-1009.02 497.38,-1011.49"/>
<polygon fill="midnightblue" stroke="midnightblue" points="288.82,-850.71 279.78,-845.18 283.4,-855.14 288.82,-850.71"/>
</g>
<!-- Node12&#45;&gt;Node3 -->
<g id="edge14" class="edge">
<title>Node12&#45;&gt;Node3</title>
<path fill="none" stroke="orange" stroke-dasharray="5,2" d="M665.15,-967.26C725.82,-960.95 804.14,-952.81 862.74,-946.71"/>
<polygon fill="orange" stroke="orange" points="664.77,-963.78 655.19,-968.3 665.5,-970.74 664.77,-963.78"/>
<text text-anchor="middle" x="763" y="-967" font-family="Helvetica,sans-Serif" font-size="10.00"> &lt; float &gt;</text>
</g>
<!-- Node13 -->
<g id="node13" class="node">
<title>Node13</title>
<g id="a_node13"><a xlink:href="structlemons_1_1dsp_1_1FX_1_1LevelReportingAudioEffect.html" target="_top" xlink:title="Base class for audio effects that can report their level or gain reduction.">
<polygon fill="none" stroke="red" points="860.5,-972 860.5,-1002 1034.5,-1002 1034.5,-972 860.5,-972"/>
<text text-anchor="start" x="868.5" y="-990" font-family="Helvetica,sans-Serif" font-size="10.00">lemons::dsp::FX::LevelReporting</text>
<text text-anchor="middle" x="947.5" y="-979" font-family="Helvetica,sans-Serif" font-size="10.00">AudioEffect&lt; SampleType &gt;</text>
</a>
</g>
</g>
<!-- Node12&#45;&gt;Node13 -->
<g id="edge12" class="edge">
<title>Node12&#45;&gt;Node13</title>
<path fill="none" stroke="midnightblue" d="M665.4,-979.5C725.25,-981.1 802.21,-983.15 860.46,-984.71"/>
<polygon fill="midnightblue" stroke="midnightblue" points="665.28,-976 655.19,-979.23 665.09,-983 665.28,-976"/>
</g>
<!-- Node13&#45;&gt;Node4 -->
<g id="edge13" class="edge">
<title>Node13&#45;&gt;Node4</title>
<path fill="none" stroke="orange" stroke-dasharray="5,2" d="M1044.85,-976.4C1071.41,-973.47 1100.04,-970.32 1125.98,-967.47"/>
<polygon fill="orange" stroke="orange" points="1044.34,-972.93 1034.78,-977.5 1045.1,-979.89 1044.34,-972.93"/>
<text text-anchor="middle" x="1084" y="-977" font-family="Helvetica,sans-Serif" font-size="10.00"> &lt; float &gt;</text>
</g>
<!-- Node19&#45;&gt;Node6 -->
<g id="edge17" class="edge">
<title>Node19&#45;&gt;Node6</title>
<path fill="none" stroke="orange" stroke-dasharray="5,2" d="M649.58,-798.28C717.18,-813.24 813.98,-834.67 878.46,-848.94"/>
<polygon fill="orange" stroke="orange" points="649.93,-794.77 639.41,-796.03 648.42,-801.61 649.93,-794.77"/>
<text text-anchor="middle" x="763" y="-840" font-family="Helvetica,sans-Serif" font-size="10.00"> &lt; float, 2 &gt;</text>
</g>
<!-- Node20 -->
<g id="node15" class="node">
<title>Node20</title>
<g id="a_node15"><a xlink:href="classlemons_1_1dsp_1_1FX_1_1SmoothedGain.html" target="_top" xlink:title=" ">
<polygon fill="none" stroke="black" points="872.5,-766 872.5,-796 1022.5,-796 1022.5,-766 872.5,-766"/>
<text text-anchor="start" x="880.5" y="-784" font-family="Helvetica,sans-Serif" font-size="10.00">lemons::dsp::FX::Smoothed</text>
<text text-anchor="middle" x="947.5" y="-773" font-family="Helvetica,sans-Serif" font-size="10.00">Gain&lt; SampleType, 1 &gt;</text>
</a>
</g>
</g>
<!-- Node19&#45;&gt;Node20 -->
<g id="edge16" class="edge">
<title>Node19&#45;&gt;Node20</title>
<path fill="none" stroke="orange" stroke-dasharray="5,2" d="M655.81,-781C720.83,-781 809.9,-781 872.25,-781"/>
<polygon fill="orange" stroke="orange" points="655.59,-777.5 645.59,-781 655.59,-784.5 655.59,-777.5"/>
<text text-anchor="middle" x="763" y="-784" font-family="Helvetica,sans-Serif" font-size="10.00"> &lt; SampleType, 1 &gt;</text>
</g>
<!-- Node24&#45;&gt;Node7 -->
<g id="edge23" class="edge">
<title>Node24&#45;&gt;Node7</title>
<path fill="none" stroke="orange" stroke-dasharray="5,2" d="M354.87,-651.8C398.43,-648.18 450.72,-643.85 492.78,-640.36"/>
<polygon fill="orange" stroke="orange" points="354.54,-648.31 344.86,-652.63 355.12,-655.29 354.54,-648.31"/>
<text text-anchor="middle" x="413" y="-652" font-family="Helvetica,sans-Serif" font-size="10.00"> &lt; float &gt;</text>
</g>
<!-- Node28 -->
<g id="node23" class="node">
<title>Node28</title>
<g id="a_node23"><a xlink:href="classlemons_1_1plugin_1_1TypedParameter.html" target="_top" xlink:title="A parameter that can be stored as a type other than a float, but still inherits from my Parameter bas...">
<polygon fill="none" stroke="black" points="484,-449 484,-479 657,-479 657,-449 484,-449"/>
<text text-anchor="start" x="492" y="-467" font-family="Helvetica,sans-Serif" font-size="10.00">lemons::plugin::TypedParameter</text>
<text text-anchor="middle" x="570.5" y="-456" font-family="Helvetica,sans-Serif" font-size="10.00">&lt; ValueType &gt;</text>
</a>
</g>
</g>
<!-- Node27&#45;&gt;Node28 -->
<g id="edge27" class="edge">
<title>Node27&#45;&gt;Node28</title>
<path fill="none" stroke="midnightblue" d="M349.9,-446.52C391.39,-449.82 441.73,-453.83 483.74,-457.17"/>
<polygon fill="midnightblue" stroke="midnightblue" points="350.08,-443.02 339.83,-445.72 349.52,-450 350.08,-443.02"/>
</g>
<!-- Node39 -->
<g id="node33" class="node">
<title>Node39</title>
<g id="a_node33"><a xlink:href="classlemons_1_1plugin_1_1TypedParameter.html" target="_top" xlink:title=" ">
<polygon fill="none" stroke="black" points="861,-694 861,-724 1034,-724 1034,-694 861,-694"/>
<text text-anchor="start" x="869" y="-712" font-family="Helvetica,sans-Serif" font-size="10.00">lemons::plugin::TypedParameter</text>
<text text-anchor="middle" x="947.5" y="-701" font-family="Helvetica,sans-Serif" font-size="10.00">&lt; bool &gt;</text>
</a>
</g>
</g>
<!-- Node27&#45;&gt;Node39 -->
<g id="edge39" class="edge">
<title>Node27&#45;&gt;Node39</title>
<path fill="none" stroke="midnightblue" d="M330.18,-451.89C339.6,-454.24 349.13,-456.95 358,-460 504.62,-510.47 561.69,-502.04 673,-610 685.56,-622.18 677.3,-634.13 691,-645 739.1,-683.15 807.01,-698.89 860.73,-705.23"/>
<polygon fill="midnightblue" stroke="midnightblue" points="330.97,-448.48 320.43,-449.56 329.34,-455.29 330.97,-448.48"/>
</g>
<!-- Node29 -->
<g id="node24" class="node">
<title>Node29</title>
<g id="a_node24"><a xlink:href="structlemons_1_1plugin_1_1FloatAmountParameter.html" target="_top" xlink:title="A parameter that represents a value in a normalized 0&#45;1 range.">
<polygon fill="none" stroke="black" points="868.5,-400 868.5,-430 1026.5,-430 1026.5,-400 868.5,-400"/>
<text text-anchor="start" x="876.5" y="-418" font-family="Helvetica,sans-Serif" font-size="10.00">lemons::plugin::FloatAmount</text>
<text text-anchor="middle" x="947.5" y="-407" font-family="Helvetica,sans-Serif" font-size="10.00">Parameter&lt; float &gt;</text>
</a>
</g>
</g>
<!-- Node28&#45;&gt;Node29 -->
<g id="edge28" class="edge">
<title>Node28&#45;&gt;Node29</title>
<path fill="none" stroke="midnightblue" d="M667.3,-451.48C729.62,-443.34 809.87,-432.85 868.33,-425.21"/>
<polygon fill="midnightblue" stroke="midnightblue" points="666.52,-448.05 657.06,-452.82 667.43,-454.99 666.52,-448.05"/>
</g>
<!-- Node30 -->
<g id="node25" class="node">
<title>Node30</title>
<g id="a_node25"><a xlink:href="structlemons_1_1plugin_1_1FrequencyParameter.html" target="_top" xlink:title="A parameter that represents a frequency in Hz.">
<polygon fill="none" stroke="black" points="875,-351 875,-381 1020,-381 1020,-351 875,-351"/>
<text text-anchor="start" x="883" y="-369" font-family="Helvetica,sans-Serif" font-size="10.00">lemons::plugin::Frequency</text>
<text text-anchor="middle" x="947.5" y="-358" font-family="Helvetica,sans-Serif" font-size="10.00">Parameter&lt; float &gt;</text>
</a>
</g>
</g>
<!-- Node28&#45;&gt;Node30 -->
<g id="edge29" class="edge">
<title>Node28&#45;&gt;Node30</title>
<path fill="none" stroke="midnightblue" d="M625.81,-445.75C646.15,-439.18 669.54,-431.92 691,-426 753.04,-408.88 824.4,-392.38 875.91,-381.04"/>
<polygon fill="midnightblue" stroke="midnightblue" points="624.51,-442.5 616.09,-448.92 626.68,-449.15 624.51,-442.5"/>
</g>
<!-- Node31 -->
<g id="node26" class="node">
<title>Node31</title>
<g id="a_node26"><a xlink:href="structlemons_1_1plugin_1_1GainParameter.html" target="_top" xlink:title="A parameter that represents a gain value in decibels.">
<polygon fill="none" stroke="black" points="864,-302 864,-332 1031,-332 1031,-302 864,-302"/>
<text text-anchor="start" x="872" y="-320" font-family="Helvetica,sans-Serif" font-size="10.00">lemons::plugin::GainParameter</text>
<text text-anchor="middle" x="947.5" y="-309" font-family="Helvetica,sans-Serif" font-size="10.00">&lt; float &gt;</text>
</a>
</g>
</g>
<!-- Node28&#45;&gt;Node31 -->
<g id="edge30" class="edge">
<title>Node28&#45;&gt;Node31</title>
<path fill="none" stroke="midnightblue" d="M598.8,-442.99C622.18,-425.86 657.31,-402.11 691,-387 759.18,-356.42 780.9,-361.65 853,-342 864.83,-338.77 877.52,-335.36 889.61,-332.12"/>
<polygon fill="midnightblue" stroke="midnightblue" points="596.68,-440.2 590.74,-448.98 600.86,-445.82 596.68,-440.2"/>
</g>
<!-- Node32 -->
<g id="node27" class="node">
<title>Node32</title>
<g id="a_node27"><a xlink:href="structlemons_1_1plugin_1_1MeterParameter.html" target="_top" xlink:title="A parameter that represents a general kind of meter, used for reporting things like level or gain red...">
<polygon fill="none" stroke="red" points="861,-253 861,-283 1034,-283 1034,-253 861,-253"/>
<text text-anchor="start" x="869" y="-271" font-family="Helvetica,sans-Serif" font-size="10.00">lemons::plugin::MeterParameter</text>
<text text-anchor="middle" x="947.5" y="-260" font-family="Helvetica,sans-Serif" font-size="10.00">&lt; float &gt;</text>
</a>
</g>
</g>
<!-- Node28&#45;&gt;Node32 -->
<g id="edge31" class="edge">
<title>Node28&#45;&gt;Node32</title>
<path fill="none" stroke="midnightblue" d="M600.5,-442.43C622.14,-425.41 651.54,-400.23 673,-374 683.09,-361.67 678.05,-352.28 691,-343 744.07,-304.98 778.69,-347.03 835,-314 845.6,-307.78 842.6,-299.55 853,-293 859.12,-289.15 865.81,-285.89 872.73,-283.13"/>
<polygon fill="midnightblue" stroke="midnightblue" points="598.09,-439.87 592.33,-448.76 602.38,-445.4 598.09,-439.87"/>
</g>
<!-- Node34 -->
<g id="node28" class="node">
<title>Node34</title>
<g id="a_node28"><a xlink:href="structlemons_1_1plugin_1_1MidiPanParameter.html" target="_top" xlink:title="A parameter that represents a MIDI panning value in the range 0 to 127.">
<polygon fill="none" stroke="black" points="856,-645 856,-675 1039,-675 1039,-645 856,-645"/>
<text text-anchor="start" x="864" y="-663" font-family="Helvetica,sans-Serif" font-size="10.00">lemons::plugin::MidiPanParameter</text>
<text text-anchor="middle" x="947.5" y="-652" font-family="Helvetica,sans-Serif" font-size="10.00">&lt; int &gt;</text>
</a>
</g>
</g>
<!-- Node28&#45;&gt;Node34 -->
<g id="edge32" class="edge">
<title>Node28&#45;&gt;Node34</title>
<path fill="none" stroke="midnightblue" d="M591.1,-486.7C613.12,-510.87 651.05,-548.64 691,-571 749.29,-603.62 779.41,-576.97 835,-614 845.51,-621 842.35,-629.2 853,-636 858.37,-639.43 864.2,-642.36 870.25,-644.88"/>
<polygon fill="midnightblue" stroke="midnightblue" points="593.54,-484.18 584.26,-479.07 588.33,-488.85 593.54,-484.18"/>
</g>
<!-- Node35 -->
<g id="node29" class="node">
<title>Node35</title>
<g id="a_node29"><a xlink:href="structlemons_1_1plugin_1_1MidiPitchParameter.html" target="_top" xlink:title="A parameter that represents a MIDI pitch.">
<polygon fill="none" stroke="black" points="877.5,-596 877.5,-626 1017.5,-626 1017.5,-596 877.5,-596"/>
<text text-anchor="start" x="885.5" y="-614" font-family="Helvetica,sans-Serif" font-size="10.00">lemons::plugin::MidiPitch</text>
<text text-anchor="middle" x="947.5" y="-603" font-family="Helvetica,sans-Serif" font-size="10.00">Parameter&lt; int &gt;</text>
</a>
</g>
</g>
<!-- Node28&#45;&gt;Node35 -->
<g id="edge33" class="edge">
<title>Node28&#45;&gt;Node35</title>
<path fill="none" stroke="midnightblue" d="M603.09,-484.6C626.66,-499.38 660,-519.06 691,-533 760.21,-564.13 780.2,-565.55 853,-587 863.45,-590.08 874.62,-593.14 885.47,-596"/>
<polygon fill="midnightblue" stroke="midnightblue" points="604.88,-481.59 594.56,-479.2 601.14,-487.51 604.88,-481.59"/>
</g>
<!-- Node36 -->
<g id="node30" class="node">
<title>Node36</title>
<g id="a_node30"><a xlink:href="structlemons_1_1plugin_1_1PercentParameter.html" target="_top" xlink:title="A parameter that represents an integer value in the range 0&#45;100.">
<polygon fill="none" stroke="black" points="856.5,-547 856.5,-577 1038.5,-577 1038.5,-547 856.5,-547"/>
<text text-anchor="start" x="864.5" y="-565" font-family="Helvetica,sans-Serif" font-size="10.00">lemons::plugin::PercentParameter</text>
<text text-anchor="middle" x="947.5" y="-554" font-family="Helvetica,sans-Serif" font-size="10.00">&lt; int &gt;</text>
</a>
</g>
</g>
<!-- Node28&#45;&gt;Node36 -->
<g id="edge34" class="edge">
<title>Node28&#45;&gt;Node36</title>
<path fill="none" stroke="midnightblue" d="M625.81,-482.25C646.15,-488.82 669.54,-496.08 691,-502 753.04,-519.12 824.4,-535.62 875.91,-546.96"/>
<polygon fill="midnightblue" stroke="midnightblue" points="626.68,-478.85 616.09,-479.08 624.51,-485.5 626.68,-478.85"/>
</g>
<!-- Node37 -->
<g id="node31" class="node">
<title>Node37</title>
<g id="a_node31"><a xlink:href="structlemons_1_1plugin_1_1SecondsParameter.html" target="_top" xlink:title="A parameter that represents a time value in seconds, expressed as a float.">
<polygon fill="none" stroke="black" points="855,-498 855,-528 1040,-528 1040,-498 855,-498"/>
<text text-anchor="start" x="863" y="-516" font-family="Helvetica,sans-Serif" font-size="10.00">lemons::plugin::SecondsParameter</text>
<text text-anchor="middle" x="947.5" y="-505" font-family="Helvetica,sans-Serif" font-size="10.00">&lt; float &gt;</text>
</a>
</g>
</g>
<!-- Node28&#45;&gt;Node37 -->
<g id="edge35" class="edge">
<title>Node28&#45;&gt;Node37</title>
<path fill="none" stroke="midnightblue" d="M667.27,-476.51C724.9,-484.04 797.86,-493.58 854.75,-501.01"/>
<polygon fill="midnightblue" stroke="midnightblue" points="667.43,-473.01 657.06,-475.18 666.52,-479.95 667.43,-473.01"/>
</g>
<!-- Node38 -->
<g id="node32" class="node">
<title>Node38</title>
<g id="a_node32"><a xlink:href="structlemons_1_1plugin_1_1SemitonesParameter.html" target="_top" xlink:title="A parameter that represents a number of semitones, as an integer.">
<polygon fill="none" stroke="black" points="874.5,-449 874.5,-479 1020.5,-479 1020.5,-449 874.5,-449"/>
<text text-anchor="start" x="882.5" y="-467" font-family="Helvetica,sans-Serif" font-size="10.00">lemons::plugin::Semitones</text>
<text text-anchor="middle" x="947.5" y="-456" font-family="Helvetica,sans-Serif" font-size="10.00">Parameter&lt; int &gt;</text>
</a>
</g>
</g>
<!-- Node28&#45;&gt;Node38 -->
<g id="edge36" class="edge">
<title>Node28&#45;&gt;Node38</title>
<path fill="none" stroke="midnightblue" d="M667.24,-464C731.69,-464 815.35,-464 874.24,-464"/>
<polygon fill="midnightblue" stroke="midnightblue" points="667.06,-460.5 657.06,-464 667.06,-467.5 667.06,-460.5"/>
</g>
<!-- Node28&#45;&gt;Node39 -->
<g id="edge37" class="edge">
<title>Node28&#45;&gt;Node39</title>
<path fill="none" stroke="orange" stroke-dasharray="5,2" d="M594.1,-486.27C615.66,-508.09 648.38,-542.82 673,-576 682.27,-588.49 678.27,-597.08 691,-606 744.39,-643.41 785.63,-591.41 835,-634 853.2,-649.7 835.27,-668.77 853,-685 856.71,-688.4 860.83,-691.32 865.22,-693.85"/>
<polygon fill="orange" stroke="orange" points="596.51,-483.73 586.98,-479.11 591.55,-488.67 596.51,-483.73"/>
<text text-anchor="middle" x="763" y="-637" font-family="Helvetica,sans-Serif" font-size="10.00"> &lt; bool &gt;</text>
</g>
<!-- Node40 -->
<g id="node34" class="node">
<title>Node40</title>
<g id="a_node34"><a xlink:href="structlemons_1_1plugin_1_1BoolParameter.html" target="_top" xlink:title="Helper struct that simplifies the constructor for boolean parameters.">
<polygon fill="none" stroke="red" points="1129.5,-699.5 1129.5,-718.5 1296.5,-718.5 1296.5,-699.5 1129.5,-699.5"/>
<text text-anchor="middle" x="1213" y="-706.5" font-family="Helvetica,sans-Serif" font-size="10.00">lemons::plugin::BoolParameter</text>
</a>
</g>
</g>
<!-- Node39&#45;&gt;Node40 -->
<g id="edge38" class="edge">
<title>Node39&#45;&gt;Node40</title>
<path fill="none" stroke="midnightblue" d="M1044.19,-709C1072.01,-709 1102.16,-709 1129.12,-709"/>
<polygon fill="midnightblue" stroke="midnightblue" points="1044.05,-705.5 1034.05,-709 1044.05,-712.5 1044.05,-705.5"/>
</g>
<!-- Node44 -->
<g id="node37" class="node">
<title>Node44</title>
<g id="a_node37"><a xlink:href="classlemons_1_1plugin_1_1ParameterHolder.html" target="_top" xlink:title="Class that holds a parameter object, and can retain a reference to it after it has been added to an A...">
<polygon fill="none" stroke="black" points="498,-301 498,-331 643,-331 643,-301 498,-301"/>
<text text-anchor="start" x="506" y="-319" font-family="Helvetica,sans-Serif" font-size="10.00">lemons::plugin::Parameter</text>
<text text-anchor="middle" x="570.5" y="-308" font-family="Helvetica,sans-Serif" font-size="10.00">Holder&lt; ParameterType &gt;</text>
</a>
</g>
</g>
<!-- Node43&#45;&gt;Node44 -->
<g id="edge42" class="edge">
<title>Node43&#45;&gt;Node44</title>
<path fill="none" stroke="midnightblue" d="M337.92,-352.87C385.89,-345.23 449.37,-335.12 497.74,-327.42"/>
<polygon fill="midnightblue" stroke="midnightblue" points="337.25,-349.43 327.93,-354.46 338.35,-356.34 337.25,-349.43"/>
</g>
<!-- Node45 -->
<g id="node38" class="node">
<title>Node45</title>
<g id="a_node38"><a xlink:href="classlemons_1_1plugin_1_1ParameterHolder.html" target="_top" xlink:title=" ">
<polygon fill="none" stroke="black" points="853,-204 853,-234 1042,-234 1042,-204 853,-204"/>
<text text-anchor="start" x="861" y="-222" font-family="Helvetica,sans-Serif" font-size="10.00">lemons::plugin::Parameter</text>
<text text-anchor="middle" x="947.5" y="-211" font-family="Helvetica,sans-Serif" font-size="10.00">Holder&lt; plugin::ToggleParameter &gt;</text>
</a>
</g>
</g>
<!-- Node43&#45;&gt;Node45 -->
<g id="edge44" class="edge">
<title>Node43&#45;&gt;Node45</title>
<path fill="none" stroke="midnightblue" d="M325.35,-375.11C407.69,-388.03 561.72,-400.64 673,-341 684.75,-334.7 679.7,-324.08 691,-317 746.25,-282.39 784.76,-330.56 835,-289 851.6,-275.27 836.89,-258.3 853,-244 857.27,-240.21 862.06,-236.98 867.15,-234.24"/>
<polygon fill="midnightblue" stroke="midnightblue" points="325.86,-371.65 315.43,-373.5 324.74,-378.56 325.86,-371.65"/>
</g>
<!-- Node44&#45;&gt;Node45 -->
<g id="edge43" class="edge">
<title>Node44&#45;&gt;Node45</title>
<path fill="none" stroke="orange" stroke-dasharray="5,2" d="M652.64,-300.17C659.66,-297.8 666.54,-295.09 673,-292 682.14,-287.62 681.85,-282.35 691,-278 741.77,-253.85 803.02,-239.27 852.82,-230.65"/>
<polygon fill="orange" stroke="orange" points="651.49,-296.86 643,-303.2 653.59,-303.54 651.49,-296.86"/>
<text text-anchor="middle" x="763" y="-281" font-family="Helvetica,sans-Serif" font-size="10.00"> &lt; plugin::ToggleParameter &gt;</text>
</g>
<!-- Node46&#45;&gt;Node47 -->
<g id="edge46" class="edge">
<title>Node46&#45;&gt;Node47</title>
<path fill="none" stroke="orange" stroke-dasharray="5,2" d="M352.17,-305.2C397.15,-297.3 452.03,-287.65 495.38,-280.03"/>
<polygon fill="orange" stroke="orange" points="351.38,-301.79 342.14,-306.97 352.6,-308.68 351.38,-301.79"/>
<text text-anchor="middle" x="413" y="-302" font-family="Helvetica,sans-Serif" font-size="10.00"> &lt; StateType &gt;</text>
</g>
<!-- Node50 -->
<g id="node43" class="node">
<title>Node50</title>
<g id="a_node43"><a xlink:href="structlemons_1_1plugin_1_1CustomState.html" target="_top" xlink:title="A plugin state class that instantiates the appropriate ParameterList and custom serializable object a...">
<polygon fill="none" stroke="black" points="468,-145 468,-175 673,-175 673,-145 468,-145"/>
<text text-anchor="start" x="476" y="-163" font-family="Helvetica,sans-Serif" font-size="10.00">lemons::plugin::CustomState</text>
<text text-anchor="middle" x="570.5" y="-152" font-family="Helvetica,sans-Serif" font-size="10.00">&lt; ParamListType, CustomDataType,, &gt;</text>
</a>
</g>
</g>
<!-- Node49&#45;&gt;Node50 -->
<g id="edge49" class="edge">
<title>Node49&#45;&gt;Node50</title>
<path fill="none" stroke="midnightblue" d="M349.17,-189.23C385.68,-184.39 429.15,-178.62 467.8,-173.49"/>
<polygon fill="midnightblue" stroke="midnightblue" points="348.52,-185.79 339.07,-190.57 349.44,-192.73 348.52,-185.79"/>
</g>
<!-- Node51 -->
<g id="node44" class="node">
<title>Node51</title>
<g id="a_node44"><a xlink:href="structlemons_1_1plugin_1_1State.html" target="_top" xlink:title="A plugin state class that instantiates the appropriate ParameterList and passes it to the StateBase c...">
<polygon fill="none" stroke="black" points="510.5,-194 510.5,-224 630.5,-224 630.5,-194 510.5,-194"/>
<text text-anchor="start" x="518.5" y="-212" font-family="Helvetica,sans-Serif" font-size="10.00">lemons::plugin::State</text>
<text text-anchor="middle" x="570.5" y="-201" font-family="Helvetica,sans-Serif" font-size="10.00">&lt; ParamListType, &gt;</text>
</a>
</g>
</g>
<!-- Node49&#45;&gt;Node51 -->
<g id="edge50" class="edge">
<title>Node49&#45;&gt;Node51</title>
<path fill="none" stroke="midnightblue" d="M349.35,-202.43C400.04,-203.94 464.13,-205.85 510.07,-207.23"/>
<polygon fill="midnightblue" stroke="midnightblue" points="349.17,-198.92 339.07,-202.12 348.96,-205.92 349.17,-198.92"/>
</g>
</g>
</svg>
