<?xml version="1.0" encoding="UTF-8" standalone="no"?>
<!DOCTYPE svg PUBLIC "-//W3C//DTD SVG 1.1//EN"
 "http://www.w3.org/Graphics/SVG/1.1/DTD/svg11.dtd">
<!-- Generated by graphviz version 2.43.0 (0)
 -->
<!-- Title: lemons::dsp::filters::Coefs&lt; T &gt; Pages: 1 -->
<svg width="381pt" height="137pt"
 viewBox="0.00 0.00 381.00 137.00" xmlns="http://www.w3.org/2000/svg" xmlns:xlink="http://www.w3.org/1999/xlink">
<g id="graph0" class="graph" transform="scale(1 1) rotate(0) translate(4 133)">
<title>lemons::dsp::filters::Coefs&lt; T &gt;</title>
<!-- Node1 -->
<g id="node1" class="node">
<title>Node1</title>
<g id="a_node1"><a xlink:title=" ">
<polygon fill="#bfbfbf" stroke="black" points="0,-49.5 0,-79.5 110,-79.5 110,-49.5 0,-49.5"/>
<text text-anchor="start" x="8" y="-67.5" font-family="Helvetica,sans-Serif" font-size="10.00">lemons::dsp::filters</text>
<text text-anchor="middle" x="55" y="-56.5" font-family="Helvetica,sans-Serif" font-size="10.00">::Coefs&lt; T &gt;</text>
</a>
</g>
</g>
<!-- Node2 -->
<g id="node2" class="node">
<title>Node2</title>
<g id="a_node2"><a xlink:href="structlemons_1_1dsp_1_1filters_1_1Coefs.html" target="_top" xlink:title=" ">
<polygon fill="none" stroke="black" points="238.5,-98.5 238.5,-128.5 370.5,-128.5 370.5,-98.5 238.5,-98.5"/>
<text text-anchor="start" x="246.5" y="-116.5" font-family="Helvetica,sans-Serif" font-size="10.00">lemons::dsp::filters</text>
<text text-anchor="middle" x="304.5" y="-105.5" font-family="Helvetica,sans-Serif" font-size="10.00">::Coefs&lt; SampleType &gt;</text>
</a>
</g>
</g>
<!-- Node1&#45;&gt;Node2 -->
<g id="edge1" class="edge">
<title>Node1&#45;&gt;Node2</title>
<path fill="none" stroke="orange" stroke-dasharray="5,2" d="M120.04,-77.89C122.73,-78.44 125.39,-78.98 128,-79.5 164.51,-86.84 205.36,-94.77 238.45,-101.12"/>
<polygon fill="orange" stroke="orange" points="120.74,-74.46 110.24,-75.88 119.33,-81.32 120.74,-74.46"/>
<text text-anchor="middle" x="173" y="-98.5" font-family="Helvetica,sans-Serif" font-size="10.00"> &lt; SampleType &gt;</text>
</g>
<!-- Node3 -->
<g id="node3" class="node">
<title>Node3</title>
<g id="a_node3"><a xlink:href="structlemons_1_1dsp_1_1filters_1_1Coefs.html" target="_top" xlink:title=" ">
<polygon fill="none" stroke="black" points="249.5,-49.5 249.5,-79.5 359.5,-79.5 359.5,-49.5 249.5,-49.5"/>
<text text-anchor="start" x="257.5" y="-67.5" font-family="Helvetica,sans-Serif" font-size="10.00">lemons::dsp::filters</text>
<text text-anchor="middle" x="304.5" y="-56.5" font-family="Helvetica,sans-Serif" font-size="10.00">::Coefs&lt; float &gt;</text>
</a>
</g>
</g>
<!-- Node1&#45;&gt;Node3 -->
<g id="edge2" class="edge">
<title>Node1&#45;&gt;Node3</title>
<path fill="none" stroke="orange" stroke-dasharray="5,2" d="M120.2,-64.5C160.22,-64.5 211.16,-64.5 249.18,-64.5"/>
<polygon fill="orange" stroke="orange" points="120.01,-61 110.01,-64.5 120.01,-68 120.01,-61"/>
<text text-anchor="middle" x="173" y="-67.5" font-family="Helvetica,sans-Serif" font-size="10.00"> &lt; float &gt;</text>
</g>
<!-- Node4 -->
<g id="node4" class="node">
<title>Node4</title>
<g id="a_node4"><a xlink:href="structlemons_1_1dsp_1_1filters_1_1Coefs.html" target="_top" xlink:title=" ">
<polygon fill="none" stroke="black" points="236,-0.5 236,-30.5 373,-30.5 373,-0.5 236,-0.5"/>
<text text-anchor="start" x="244" y="-18.5" font-family="Helvetica,sans-Serif" font-size="10.00">lemons::dsp::filters</text>
<text text-anchor="middle" x="304.5" y="-7.5" font-family="Helvetica,sans-Serif" font-size="10.00">::Coefs&lt; NumericType &gt;</text>
</a>
</g>
</g>
<!-- Node1&#45;&gt;Node4 -->
<g id="edge3" class="edge">
<title>Node1&#45;&gt;Node4</title>
<path fill="none" stroke="orange" stroke-dasharray="5,2" d="M120.04,-51.11C122.73,-50.56 125.39,-50.02 128,-49.5 163.6,-42.34 203.32,-34.63 235.95,-28.36"/>
<polygon fill="orange" stroke="orange" points="119.33,-47.68 110.24,-53.12 120.74,-54.54 119.33,-47.68"/>
<text text-anchor="middle" x="173" y="-52.5" font-family="Helvetica,sans-Serif" font-size="10.00"> &lt; NumericType &gt;</text>
</g>
</g>
</svg>
