<?xml version="1.0" encoding="UTF-8" standalone="no"?>
<!DOCTYPE svg PUBLIC "-//W3C//DTD SVG 1.1//EN"
 "http://www.w3.org/Graphics/SVG/1.1/DTD/svg11.dtd">
<!-- Generated by graphviz version 2.43.0 (0)
 -->
<!-- Title: lemons::serializing::TreeReflectorHelpers::ContainerInterface Pages: 1 -->
<svg width="328pt" height="132pt"
 viewBox="0.00 0.00 328.00 132.00" xmlns="http://www.w3.org/2000/svg" xmlns:xlink="http://www.w3.org/1999/xlink">
<g id="graph0" class="graph" transform="scale(1 1) rotate(0) translate(4 128)">
<title>lemons::serializing::TreeReflectorHelpers::ContainerInterface</title>
<!-- Node1 -->
<g id="node1" class="node">
<title>Node1</title>
<g id="a_node1"><a xlink:title=" ">
<polygon fill="#bfbfbf" stroke="black" points="0,-41 0,-82 124,-82 124,-41 0,-41"/>
<text text-anchor="start" x="8" y="-70" font-family="Helvetica,sans-Serif" font-size="10.00">lemons::serializing</text>
<text text-anchor="start" x="8" y="-59" font-family="Helvetica,sans-Serif" font-size="10.00">::TreeReflectorHelpers</text>
<text text-anchor="middle" x="62" y="-48" font-family="Helvetica,sans-Serif" font-size="10.00">::ContainerInterface</text>
</a>
</g>
</g>
<!-- Node2 -->
<g id="node2" class="node">
<title>Node2</title>
<g id="a_node2"><a xlink:href="structlemons_1_1serializing_1_1TreeReflectorHelpers_1_1JuceOwnedArrayInterface.html" target="_top" xlink:title=" ">
<polygon fill="none" stroke="black" points="167,-71.5 167,-123.5 313,-123.5 313,-71.5 167,-71.5"/>
<text text-anchor="start" x="175" y="-111.5" font-family="Helvetica,sans-Serif" font-size="10.00">lemons::serializing</text>
<text text-anchor="start" x="175" y="-100.5" font-family="Helvetica,sans-Serif" font-size="10.00">::TreeReflectorHelpers</text>
<text text-anchor="start" x="175" y="-89.5" font-family="Helvetica,sans-Serif" font-size="10.00">::JuceOwnedArrayInterface</text>
<text text-anchor="middle" x="240" y="-78.5" font-family="Helvetica,sans-Serif" font-size="10.00">&lt; ElementType &gt;</text>
</a>
</g>
</g>
<!-- Node1&#45;&gt;Node2 -->
<g id="edge1" class="edge">
<title>Node1&#45;&gt;Node2</title>
<path fill="none" stroke="midnightblue" d="M133.91,-76C144.76,-78.22 155.97,-80.52 166.85,-82.74"/>
<polygon fill="midnightblue" stroke="midnightblue" points="134.56,-72.57 124.06,-73.99 133.16,-79.42 134.56,-72.57"/>
</g>
<!-- Node3 -->
<g id="node3" class="node">
<title>Node3</title>
<g id="a_node3"><a xlink:href="structlemons_1_1serializing_1_1TreeReflectorHelpers_1_1StdArrayInterface.html" target="_top" xlink:title=" ">
<polygon fill="none" stroke="black" points="160,-0.5 160,-52.5 320,-52.5 320,-0.5 160,-0.5"/>
<text text-anchor="start" x="168" y="-40.5" font-family="Helvetica,sans-Serif" font-size="10.00">lemons::serializing</text>
<text text-anchor="start" x="168" y="-29.5" font-family="Helvetica,sans-Serif" font-size="10.00">::TreeReflectorHelpers</text>
<text text-anchor="start" x="168" y="-18.5" font-family="Helvetica,sans-Serif" font-size="10.00">::StdArrayInterface&lt; Element</text>
<text text-anchor="middle" x="240" y="-7.5" font-family="Helvetica,sans-Serif" font-size="10.00">Type, size &gt;</text>
</a>
</g>
</g>
<!-- Node1&#45;&gt;Node3 -->
<g id="edge2" class="edge">
<title>Node1&#45;&gt;Node3</title>
<path fill="none" stroke="midnightblue" d="M133.92,-47.4C142.42,-45.71 151.15,-43.97 159.76,-42.26"/>
<polygon fill="midnightblue" stroke="midnightblue" points="133.19,-43.97 124.06,-49.36 134.55,-50.84 133.19,-43.97"/>
</g>
</g>
</svg>
