<?xml version="1.0" encoding="UTF-8" standalone="no"?>
<!DOCTYPE svg PUBLIC "-//W3C//DTD SVG 1.1//EN"
 "http://www.w3.org/Graphics/SVG/1.1/DTD/svg11.dtd">
<!-- Generated by graphviz version 2.50.0 (20211204.2007)
 -->
<!-- Title: lemons::plugin::FloatAmountParameter Pages: 1 -->
<svg width="254pt" height="288pt"
 viewBox="0.00 0.00 253.50 288.00" xmlns="http://www.w3.org/2000/svg" xmlns:xlink="http://www.w3.org/1999/xlink">
<g id="graph0" class="graph" transform="scale(1 1) rotate(0) translate(4 284)">
<title>lemons::plugin::FloatAmountParameter</title>
<!-- Node1 -->
<g id="node1" class="node">
<title>Node1</title>
<g id="a_node1"><a xlink:title="A parameter that represents a value in a normalized 0&#45;1 range.">
<polygon fill="#bfbfbf" stroke="black" points="5.5,-0.5 5.5,-30.5 146.5,-30.5 146.5,-0.5 5.5,-0.5"/>
<text text-anchor="start" x="13.5" y="-18.5" font-family="Helvetica,sans-Serif" font-size="10.00">lemons::plugin::FloatAmount</text>
<text text-anchor="middle" x="76" y="-7.5" font-family="Helvetica,sans-Serif" font-size="10.00">Parameter</text>
</a>
</g>
</g>
<!-- Node2 -->
<g id="node2" class="node">
<title>Node2</title>
<g id="a_node2"><a xlink:href="classlemons_1_1plugin_1_1_typed_parameter.html" target="_top" xlink:title=" ">
<polygon fill="none" stroke="black" points="34.5,-68.5 34.5,-87.5 117.5,-87.5 117.5,-68.5 34.5,-68.5"/>
<text text-anchor="middle" x="76" y="-75.5" font-family="Helvetica,sans-Serif" font-size="10.00">FloatParameter</text>
</a>
</g>
</g>
<!-- Node2&#45;&gt;Node1 -->
<g id="edge1" class="edge">
<title>Node2&#45;&gt;Node1</title>
<path fill="none" stroke="midnightblue" d="M76,-58.22C76,-49.36 76,-38.96 76,-30.76"/>
<polygon fill="midnightblue" stroke="midnightblue" points="72.5,-58.33 76,-68.33 79.5,-58.33 72.5,-58.33"/>
</g>
<!-- Node3 -->
<g id="node3" class="node">
<title>Node3</title>
<g id="a_node3"><a xlink:href="classlemons_1_1plugin_1_1_parameter.html" target="_top" xlink:title="A plugin parameter class.">
<polygon fill="none" stroke="black" points="6.5,-203.5 6.5,-222.5 137.5,-222.5 137.5,-203.5 6.5,-203.5"/>
<text text-anchor="middle" x="72" y="-210.5" font-family="Helvetica,sans-Serif" font-size="10.00">lemons::plugin::Parameter</text>
</a>
</g>
</g>
<!-- Node3&#45;&gt;Node2 -->
<g id="edge2" class="edge">
<title>Node3&#45;&gt;Node2</title>
<path fill="none" stroke="midnightblue" d="M72.57,-193.13C73.45,-163.88 75.1,-108.76 75.74,-87.59"/>
<polygon fill="midnightblue" stroke="midnightblue" points="69.06,-193.17 72.26,-203.27 76.06,-193.38 69.06,-193.17"/>
</g>
<!-- Node5 -->
<g id="node5" class="node">
<title>Node5</title>
<g id="a_node5"><a xlink:href="classlemons_1_1plugin_1_1_typed_parameter.html" target="_top" xlink:title="A parameter that can be stored as a type other than a float, but still inherits from my Parameter bas...">
<polygon fill="none" stroke="black" points="88.5,-135.5 88.5,-165.5 245.5,-165.5 245.5,-135.5 88.5,-135.5"/>
<text text-anchor="start" x="96.5" y="-153.5" font-family="Helvetica,sans-Serif" font-size="10.00">lemons::plugin::TypedParameter</text>
<text text-anchor="middle" x="167" y="-142.5" font-family="Helvetica,sans-Serif" font-size="10.00">&lt; ValueType &gt;</text>
</a>
</g>
</g>
<!-- Node3&#45;&gt;Node5 -->
<g id="edge5" class="edge">
<title>Node3&#45;&gt;Node5</title>
<path fill="none" stroke="midnightblue" d="M94.4,-197.73C109.67,-188.01 129.79,-175.2 144.98,-165.53"/>
<polygon fill="midnightblue" stroke="midnightblue" points="92.17,-195.01 85.61,-203.33 95.93,-200.91 92.17,-195.01"/>
</g>
<!-- Node4 -->
<g id="node4" class="node">
<title>Node4</title>
<g id="a_node4"><a xlink:title=" ">
<polygon fill="none" stroke="#bfbfbf" points="0,-260.5 0,-279.5 144,-279.5 144,-260.5 0,-260.5"/>
<text text-anchor="middle" x="72" y="-267.5" font-family="Helvetica,sans-Serif" font-size="10.00">juce::RangedAudioParameter</text>
</a>
</g>
</g>
<!-- Node4&#45;&gt;Node3 -->
<g id="edge3" class="edge">
<title>Node4&#45;&gt;Node3</title>
<path fill="none" stroke="midnightblue" d="M72,-250.12C72,-240.82 72,-230.06 72,-222.71"/>
<polygon fill="midnightblue" stroke="midnightblue" points="68.5,-250.41 72,-260.41 75.5,-250.41 68.5,-250.41"/>
</g>
<!-- Node5&#45;&gt;Node2 -->
<g id="edge4" class="edge">
<title>Node5&#45;&gt;Node2</title>
<path fill="none" stroke="orange" stroke-dasharray="5,2" d="M140.34,-128.84C122.66,-115.15 100.38,-97.89 87.22,-87.69"/>
<polygon fill="orange" stroke="orange" points="138.54,-131.88 148.58,-135.23 142.82,-126.34 138.54,-131.88"/>
<text text-anchor="middle" x="144" y="-109" font-family="Helvetica,sans-Serif" font-size="10.00"> &lt; float &gt;</text>
</g>
</g>
</svg>
