<?xml version="1.0" encoding="UTF-8" standalone="no"?>
<!DOCTYPE svg PUBLIC "-//W3C//DTD SVG 1.1//EN"
 "http://www.w3.org/Graphics/SVG/1.1/DTD/svg11.dtd">
<!-- Generated by graphviz version 2.43.0 (0)
 -->
<!-- Title: lemons::serializing::ContainerInterface Pages: 1 -->
<!--zoomable 309 -->
<svg id="main" version="1.1" xmlns="http://www.w3.org/2000/svg" xmlns:xlink="http://www.w3.org/1999/xlink" xml:space="preserve" onload="init(evt)">
<style type="text/css"><![CDATA[
.edge:hover path { stroke: red; }
.edge:hover polygon { stroke: red; fill: red; }
]]></style>
<script type="text/javascript"><![CDATA[
var edges = document.getElementsByTagName('g');
if (edges && edges.length) {
  for (var i=0;i<edges.length;i++) {
    if (edges[i].id.substr(0,4)=='edge') {
      edges[i].setAttribute('class','edge');
    }
  }
}
]]></script>
        <defs>
                <circle id="rim" cx="0" cy="0" r="7"/>
                <circle id="rim2" cx="0" cy="0" r="3.5"/>
                <g id="zoomPlus">
                        <use xlink:href="#rim" fill="#404040">
                                <set attributeName="fill" to="#808080" begin="zoomplus.mouseover" end="zoomplus.mouseout"/>
                        </use>
                        <path d="M-4,0h8M0,-4v8" fill="none" stroke="white" stroke-width="1.5" pointer-events="none"/>
                </g>
                <g id="zoomMin">
                        <use xlink:href="#rim" fill="#404040">
                                <set attributeName="fill" to="#808080" begin="zoomminus.mouseover" end="zoomminus.mouseout"/>
                        </use>
                        <path d="M-4,0h8" fill="none" stroke="white" stroke-width="1.5" pointer-events="none"/>
                </g>
                <g id="dirArrow">
                        <path fill="none" stroke="white" stroke-width="1.5" d="M0,-3.0v7 M-2.5,-0.5L0,-3.0L2.5,-0.5"/>
                </g>
               <g id="resetDef">
                       <use xlink:href="#rim2" fill="#404040">
                               <set attributeName="fill" to="#808080" begin="reset.mouseover" end="reset.mouseout"/>
                       </use>
               </g>
        </defs>

<script type="text/javascript">
var viewWidth = 904;
var viewHeight = 309;
var sectionId = 'dynsection-0';
</script>
<script xlink:href="svgpan.js"/>
<svg id="graph" class="graph">
<g id="viewport">
<title>lemons::serializing::ContainerInterface</title>
<!-- Node1 -->
<g id="node1" class="node">
<title>Node1</title>
<g id="a_node1"><a xlink:title="Interface that defines how a TreeReflector can resize a given container during deserialization.">
<polygon fill="#bfbfbf" stroke="black" points="0,-138.5 0,-168.5 113,-168.5 113,-138.5 0,-138.5"/>
<text text-anchor="start" x="8" y="-156.5" font-family="Helvetica,sans-Serif" font-size="10.00">lemons::serializing</text>
<text text-anchor="middle" x="56.5" y="-145.5" font-family="Helvetica,sans-Serif" font-size="10.00">::ContainerInterface</text>
</a>
</g>
</g>
<!-- Node2 -->
<g id="node2" class="node">
<title>Node2</title>
<g id="a_node2"><a xlink:href="structlemons_1_1serializing_1_1_lambda_container_interface.html" target="_top" xlink:title=" ">
<polygon fill="none" stroke="black" points="519,-259 519,-300 696,-300 696,-259 519,-259"/>
<text text-anchor="start" x="527" y="-288" font-family="Helvetica,sans-Serif" font-size="10.00">lemons::serializing</text>
<text text-anchor="start" x="527" y="-277" font-family="Helvetica,sans-Serif" font-size="10.00">::LambdaContainerInterface</text>
<text text-anchor="middle" x="607.5" y="-266" font-family="Helvetica,sans-Serif" font-size="10.00">&lt; juce::Array&lt; ElementType &gt; &gt;</text>
</a>
</g>
</g>
<!-- Node1&#45;&gt;Node2 -->
<g id="edge1" class="edge">
<title>Node1&#45;&gt;Node2</title>
<path fill="none" stroke="midnightblue" d="M87.48,-174.35C105.13,-186.01 128.21,-200.23 150,-210.5 222.21,-244.54 241.51,-253.93 320,-268.5 385.95,-280.74 461.85,-283.15 518.95,-282.68"/>
<polygon fill="midnightblue" stroke="midnightblue" points="89.04,-171.18 78.78,-168.52 85.14,-176.99 89.04,-171.18"/>
</g>
<!-- Node4 -->
<g id="node4" class="node">
<title>Node4</title>
<g id="a_node4"><a xlink:href="structlemons_1_1serializing_1_1_lambda_container_interface.html" target="_top" xlink:title=" ">
<polygon fill="none" stroke="black" points="502,-195 502,-236 713,-236 713,-195 502,-195"/>
<text text-anchor="start" x="510" y="-224" font-family="Helvetica,sans-Serif" font-size="10.00">lemons::serializing</text>
<text text-anchor="start" x="510" y="-213" font-family="Helvetica,sans-Serif" font-size="10.00">::LambdaContainerInterface</text>
<text text-anchor="middle" x="607.5" y="-202" font-family="Helvetica,sans-Serif" font-size="10.00">&lt; juce::OwnedArray&lt; ElementType &gt; &gt;</text>
</a>
</g>
</g>
<!-- Node1&#45;&gt;Node4 -->
<g id="edge3" class="edge">
<title>Node1&#45;&gt;Node4</title>
<path fill="none" stroke="midnightblue" d="M108.51,-171.68C121.89,-175.99 136.38,-180.27 150,-183.5 268.28,-211.53 408.24,-217.49 501.71,-217.74"/>
<polygon fill="midnightblue" stroke="midnightblue" points="109.59,-168.35 99,-168.54 107.4,-174.99 109.59,-168.35"/>
</g>
<!-- Node6 -->
<g id="node6" class="node">
<title>Node6</title>
<g id="a_node6"><a xlink:href="structlemons_1_1serializing_1_1_lambda_container_interface.html" target="_top" xlink:title=" ">
<polygon fill="none" stroke="black" points="531.5,-73 531.5,-114 683.5,-114 683.5,-73 531.5,-73"/>
<text text-anchor="start" x="539.5" y="-102" font-family="Helvetica,sans-Serif" font-size="10.00">lemons::serializing</text>
<text text-anchor="start" x="539.5" y="-91" font-family="Helvetica,sans-Serif" font-size="10.00">::LambdaContainerInterface</text>
<text text-anchor="middle" x="607.5" y="-80" font-family="Helvetica,sans-Serif" font-size="10.00">&lt; juce::StringArray &gt;</text>
</a>
</g>
</g>
<!-- Node1&#45;&gt;Node6 -->
<g id="edge5" class="edge">
<title>Node1&#45;&gt;Node6</title>
<path fill="none" stroke="midnightblue" d="M106.82,-135.17C120.62,-130.69 135.75,-126.36 150,-123.5 282.39,-96.95 440.25,-92.44 531.38,-92.39"/>
<polygon fill="midnightblue" stroke="midnightblue" points="105.4,-131.96 97.03,-138.45 107.62,-138.59 105.4,-131.96"/>
</g>
<!-- Node8 -->
<g id="node8" class="node">
<title>Node8</title>
<g id="a_node8"><a xlink:href="structlemons_1_1serializing_1_1_lambda_container_interface.html" target="_top" xlink:title=" ">
<polygon fill="none" stroke="black" points="531.5,-0.5 531.5,-52.5 683.5,-52.5 683.5,-0.5 531.5,-0.5"/>
<text text-anchor="start" x="539.5" y="-40.5" font-family="Helvetica,sans-Serif" font-size="10.00">lemons::serializing</text>
<text text-anchor="start" x="539.5" y="-29.5" font-family="Helvetica,sans-Serif" font-size="10.00">::LambdaContainerInterface</text>
<text text-anchor="start" x="539.5" y="-18.5" font-family="Helvetica,sans-Serif" font-size="10.00">&lt; std::array&lt; ElementType,</text>
<text text-anchor="middle" x="607.5" y="-7.5" font-family="Helvetica,sans-Serif" font-size="10.00"> size &gt; &gt;</text>
</a>
</g>
</g>
<!-- Node1&#45;&gt;Node8 -->
<g id="edge7" class="edge">
<title>Node1&#45;&gt;Node8</title>
<path fill="none" stroke="midnightblue" d="M88.68,-132.86C106.23,-121.79 128.82,-108.42 150,-98.5 222.56,-64.53 241.33,-53.68 320,-38.5 390.76,-24.85 473.09,-22.8 531.3,-23.6"/>
<polygon fill="midnightblue" stroke="midnightblue" points="86.54,-130.08 80,-138.41 90.31,-135.97 86.54,-130.08"/>
</g>
<!-- Node10 -->
<g id="node10" class="node">
<title>Node10</title>
<g id="a_node10"><a xlink:href="structlemons_1_1serializing_1_1_lambda_container_interface.html" target="_top" xlink:title="Provides a slightly slicker interface to ContainerInterface, allowing you to supply a lambda function...">
<polygon fill="none" stroke="black" points="150,-133 150,-174 302,-174 302,-133 150,-133"/>
<text text-anchor="start" x="158" y="-162" font-family="Helvetica,sans-Serif" font-size="10.00">lemons::serializing</text>
<text text-anchor="start" x="158" y="-151" font-family="Helvetica,sans-Serif" font-size="10.00">::LambdaContainerInterface</text>
<text text-anchor="middle" x="226" y="-140" font-family="Helvetica,sans-Serif" font-size="10.00">&lt; ContainerType &gt;</text>
</a>
</g>
</g>
<!-- Node1&#45;&gt;Node10 -->
<g id="edge9" class="edge">
<title>Node1&#45;&gt;Node10</title>
<path fill="none" stroke="midnightblue" d="M123.32,-153.5C132.01,-153.5 140.96,-153.5 149.79,-153.5"/>
<polygon fill="midnightblue" stroke="midnightblue" points="123.28,-150 113.28,-153.5 123.28,-157 123.28,-150"/>
</g>
<!-- Node3 -->
<g id="node3" class="node">
<title>Node3</title>
<g id="a_node3"><a xlink:href="structlemons_1_1serializing_1_1_juce_array_interface.html" target="_top" xlink:title="Container interface that provides support for serializing juce::Arrays with TreeReflector.">
<polygon fill="none" stroke="black" points="766.5,-259 766.5,-300 879.5,-300 879.5,-259 766.5,-259"/>
<text text-anchor="start" x="774.5" y="-288" font-family="Helvetica,sans-Serif" font-size="10.00">lemons::serializing</text>
<text text-anchor="start" x="774.5" y="-277" font-family="Helvetica,sans-Serif" font-size="10.00">::JuceArrayInterface</text>
<text text-anchor="middle" x="823" y="-266" font-family="Helvetica,sans-Serif" font-size="10.00">&lt; ElementType &gt;</text>
</a>
</g>
</g>
<!-- Node2&#45;&gt;Node3 -->
<g id="edge2" class="edge">
<title>Node2&#45;&gt;Node3</title>
<path fill="none" stroke="midnightblue" d="M706.32,-279.5C726.91,-279.5 747.95,-279.5 766.34,-279.5"/>
<polygon fill="midnightblue" stroke="midnightblue" points="706.26,-276 696.26,-279.5 706.26,-283 706.26,-276"/>
</g>
<!-- Node5 -->
<g id="node5" class="node">
<title>Node5</title>
<g id="a_node5"><a xlink:href="structlemons_1_1serializing_1_1_juce_owned_array_interface.html" target="_top" xlink:title="Container interface that provides support for serializing juce::OwnedArrays with TreeReflector.">
<polygon fill="none" stroke="black" points="750,-195 750,-236 896,-236 896,-195 750,-195"/>
<text text-anchor="start" x="758" y="-224" font-family="Helvetica,sans-Serif" font-size="10.00">lemons::serializing</text>
<text text-anchor="start" x="758" y="-213" font-family="Helvetica,sans-Serif" font-size="10.00">::JuceOwnedArrayInterface</text>
<text text-anchor="middle" x="823" y="-202" font-family="Helvetica,sans-Serif" font-size="10.00">&lt; ElementType &gt;</text>
</a>
</g>
</g>
<!-- Node4&#45;&gt;Node5 -->
<g id="edge4" class="edge">
<title>Node4&#45;&gt;Node5</title>
<path fill="none" stroke="midnightblue" d="M723.28,-215.5C732.32,-215.5 741.28,-215.5 749.9,-215.5"/>
<polygon fill="midnightblue" stroke="midnightblue" points="723.06,-212 713.06,-215.5 723.06,-219 723.06,-212"/>
</g>
<!-- Node7 -->
<g id="node7" class="node">
<title>Node7</title>
<g id="a_node7"><a xlink:href="structlemons_1_1serializing_1_1_string_array_interface.html" target="_top" xlink:title="Container interface that provides support for serializing juce::StringArrays with TreeReflector.">
<polygon fill="none" stroke="black" points="762.5,-78.5 762.5,-108.5 883.5,-108.5 883.5,-78.5 762.5,-78.5"/>
<text text-anchor="start" x="770.5" y="-96.5" font-family="Helvetica,sans-Serif" font-size="10.00">lemons::serializing</text>
<text text-anchor="middle" x="823" y="-85.5" font-family="Helvetica,sans-Serif" font-size="10.00">::StringArrayInterface</text>
</a>
</g>
</g>
<!-- Node6&#45;&gt;Node7 -->
<g id="edge6" class="edge">
<title>Node6&#45;&gt;Node7</title>
<path fill="none" stroke="midnightblue" d="M693.87,-93.5C716.87,-93.5 741.24,-93.5 762.48,-93.5"/>
<polygon fill="midnightblue" stroke="midnightblue" points="693.77,-90 683.77,-93.5 693.77,-97 693.77,-90"/>
</g>
<!-- Node9 -->
<g id="node9" class="node">
<title>Node9</title>
<g id="a_node9"><a xlink:href="structlemons_1_1serializing_1_1_std_array_interface.html" target="_top" xlink:title="Container interface that provides support for serializing std::arrays with TreeReflector.">
<polygon fill="none" stroke="black" points="759,-6 759,-47 887,-47 887,-6 759,-6"/>
<text text-anchor="start" x="767" y="-35" font-family="Helvetica,sans-Serif" font-size="10.00">lemons::serializing</text>
<text text-anchor="start" x="767" y="-24" font-family="Helvetica,sans-Serif" font-size="10.00">::StdArrayInterface</text>
<text text-anchor="middle" x="823" y="-13" font-family="Helvetica,sans-Serif" font-size="10.00">&lt; ElementType, size &gt;</text>
</a>
</g>
</g>
<!-- Node8&#45;&gt;Node9 -->
<g id="edge8" class="edge">
<title>Node8&#45;&gt;Node9</title>
<path fill="none" stroke="midnightblue" d="M693.94,-26.5C715.56,-26.5 738.4,-26.5 758.71,-26.5"/>
<polygon fill="midnightblue" stroke="midnightblue" points="693.77,-23 683.77,-26.5 693.77,-30 693.77,-23"/>
</g>
<!-- Node10&#45;&gt;Node2 -->
<g id="edge12" class="edge">
<title>Node10&#45;&gt;Node2</title>
<path fill="none" stroke="orange" stroke-dasharray="5,2" d="M262.05,-180.24C278.82,-191.93 299.65,-204.9 320,-213.5 355.38,-228.45 448.18,-248.63 518.66,-262.73"/>
<polygon fill="orange" stroke="orange" points="263.85,-177.23 253.67,-174.28 259.79,-182.93 263.85,-177.23"/>
<text text-anchor="middle" x="402" y="-256.5" font-family="Helvetica,sans-Serif" font-size="10.00"> &lt; juce::Array&lt; ElementType &gt; &gt;</text>
</g>
<!-- Node10&#45;&gt;Node4 -->
<g id="edge11" class="edge">
<title>Node10&#45;&gt;Node4</title>
<path fill="none" stroke="orange" stroke-dasharray="5,2" d="M312.33,-163.92C374.03,-171.62 451.95,-181.73 484,-187.5 496.13,-189.68 508.87,-192.27 521.37,-194.97"/>
<polygon fill="orange" stroke="orange" points="312.54,-160.42 302.19,-162.66 311.68,-167.37 312.54,-160.42"/>
<text text-anchor="start" x="351.5" y="-201.5" font-family="Helvetica,sans-Serif" font-size="10.00"> &lt; juce::OwnedArray</text>
<text text-anchor="middle" x="402" y="-190.5" font-family="Helvetica,sans-Serif" font-size="10.00">&lt; ElementType &gt; &gt;</text>
</g>
<!-- Node10&#45;&gt;Node6 -->
<g id="edge14" class="edge">
<title>Node10&#45;&gt;Node6</title>
<path fill="none" stroke="orange" stroke-dasharray="5,2" d="M312.27,-139.73C314.87,-139.32 317.46,-138.9 320,-138.5 391.73,-127.08 473.59,-114.24 531.39,-105.21"/>
<polygon fill="orange" stroke="orange" points="311.44,-136.32 302.12,-141.36 312.55,-143.23 311.44,-136.32"/>
<text text-anchor="middle" x="402" y="-141.5" font-family="Helvetica,sans-Serif" font-size="10.00"> &lt; juce::StringArray &gt;</text>
</g>
<!-- Node10&#45;&gt;Node8 -->
<g id="edge13" class="edge">
<title>Node10&#45;&gt;Node8</title>
<path fill="none" stroke="orange" stroke-dasharray="5,2" d="M258.21,-126.45C275.4,-112.88 297.72,-97.28 320,-87.5 388.11,-57.62 471.9,-41.97 531.23,-34.04"/>
<polygon fill="orange" stroke="orange" points="255.79,-123.92 250.21,-132.92 260.19,-129.36 255.79,-123.92"/>
<text text-anchor="start" x="332.5" y="-101.5" font-family="Helvetica,sans-Serif" font-size="10.00"> &lt; std::array&lt; ElementType,</text>
<text text-anchor="middle" x="402" y="-90.5" font-family="Helvetica,sans-Serif" font-size="10.00"> size &gt; &gt;</text>
</g>
<!-- Node11 -->
<g id="node11" class="node">
<title>Node11</title>
<g id="a_node11"><a xlink:href="structlemons_1_1serializing_1_1_s_t_l_container_interface.html" target="_top" xlink:title="Container interface that provides support for serializing most STL containers with TreeReflector.">
<polygon fill="none" stroke="black" points="542,-133 542,-174 673,-174 673,-133 542,-133"/>
<text text-anchor="start" x="550" y="-162" font-family="Helvetica,sans-Serif" font-size="10.00">lemons::serializing</text>
<text text-anchor="start" x="550" y="-151" font-family="Helvetica,sans-Serif" font-size="10.00">::STLContainerInterface</text>
<text text-anchor="middle" x="607.5" y="-140" font-family="Helvetica,sans-Serif" font-size="10.00">&lt; ContainerType &gt;</text>
</a>
</g>
</g>
<!-- Node10&#45;&gt;Node11 -->
<g id="edge10" class="edge">
<title>Node10&#45;&gt;Node11</title>
<path fill="none" stroke="midnightblue" d="M312.49,-153.5C382.06,-153.5 478.74,-153.5 541.95,-153.5"/>
<polygon fill="midnightblue" stroke="midnightblue" points="312.43,-150 302.43,-153.5 312.43,-157 312.43,-150"/>
</g>
</g>
</svg>
        <g id="navigator" transform="translate(0 0)" fill="#404254">
                <rect fill="#f2f5e9" fill-opacity="0.5" stroke="#606060" stroke-width=".5" x="0" y="0" width="60" height="60"/>
                <use id="zoomplus" xlink:href="#zoomPlus" x="17" y="9" onmousedown="handleZoom(evt,'in')"/>
                <use id="zoomminus" xlink:href="#zoomMin" x="42" y="9" onmousedown="handleZoom(evt,'out')"/>
                <use id="reset" xlink:href="#resetDef" x="30" y="36" onmousedown="handleReset()"/>
                <g id="arrowUp" xlink:href="#dirArrow" transform="translate(30 24)" onmousedown="handlePan(0,-1)">
                  <use xlink:href="#rim" fill="#404040">
                        <set attributeName="fill" to="#808080" begin="arrowUp.mouseover" end="arrowUp.mouseout"/>
                  </use>
                  <path fill="none" stroke="white" stroke-width="1.5" d="M0,-3.0v7 M-2.5,-0.5L0,-3.0L2.5,-0.5"/>
                </g>
                <g id="arrowRight" xlink:href="#dirArrow" transform="rotate(90) translate(36 -43)" onmousedown="handlePan(1,0)">
                  <use xlink:href="#rim" fill="#404040">
                        <set attributeName="fill" to="#808080" begin="arrowRight.mouseover" end="arrowRight.mouseout"/>
                  </use>
                  <path fill="none" stroke="white" stroke-width="1.5" d="M0,-3.0v7 M-2.5,-0.5L0,-3.0L2.5,-0.5"/>
                </g>
                <g id="arrowDown" xlink:href="#dirArrow" transform="rotate(180) translate(-30 -48)" onmousedown="handlePan(0,1)">
                  <use xlink:href="#rim" fill="#404040">
                        <set attributeName="fill" to="#808080" begin="arrowDown.mouseover" end="arrowDown.mouseout"/>
                  </use>
                  <path fill="none" stroke="white" stroke-width="1.5" d="M0,-3.0v7 M-2.5,-0.5L0,-3.0L2.5,-0.5"/>
                </g>
                <g id="arrowLeft" xlink:href="#dirArrow" transform="rotate(270) translate(-36 17)" onmousedown="handlePan(-1,0)">
                  <use xlink:href="#rim" fill="#404040">
                        <set attributeName="fill" to="#808080" begin="arrowLeft.mouseover" end="arrowLeft.mouseout"/>
                  </use>
                  <path fill="none" stroke="white" stroke-width="1.5" d="M0,-3.0v7 M-2.5,-0.5L0,-3.0L2.5,-0.5"/>
                </g>
        </g>
        <svg viewBox="0 0 15 15" width="100%" height="30px" preserveAspectRatio="xMaxYMin meet">
         <g id="arrow_out" transform="scale(0.3 0.3)">
          <a xlink:href="structlemons_1_1serializing_1_1_container_interface__inherit__graph_org.svg" target="_base">
           <rect id="button" ry="5" rx="5" y="6" x="6" height="38" width="38"
                fill="#f2f5e9" fill-opacity="0.5" stroke="#606060" stroke-width="1.0"/>
           <path id="arrow"
             d="M 11.500037,31.436501 C 11.940474,20.09759 22.043105,11.32322 32.158766,21.979434 L 37.068811,17.246167 C 37.068811,17.246167 37.088388,32 37.088388,32 L 22.160133,31.978069 C 22.160133,31.978069 26.997745,27.140456 26.997745,27.140456 C 18.528582,18.264221 13.291696,25.230495 11.500037,31.436501 z"
             style="fill:#404040;"/>
          </a>
         </g>
        </svg>
</svg>
