<?xml version="1.0" encoding="UTF-8" standalone="no"?>
<!DOCTYPE svg PUBLIC "-//W3C//DTD SVG 1.1//EN"
 "http://www.w3.org/Graphics/SVG/1.1/DTD/svg11.dtd">
<!-- Generated by graphviz version 2.43.0 (0)
 -->
<!-- Title: lemons::serializing::TogglerInterface Pages: 1 -->
<svg width="191pt" height="242pt"
 viewBox="0.00 0.00 191.00 242.00" xmlns="http://www.w3.org/2000/svg" xmlns:xlink="http://www.w3.org/1999/xlink">
<g id="graph0" class="graph" transform="scale(1 1) rotate(0) translate(4 238)">
<title>lemons::serializing::TogglerInterface</title>
<!-- Node1 -->
<g id="node1" class="node">
<title>Node1</title>
<g id="a_node1"><a xlink:title="Interface that all Togglers implement to be able to access one without knowing its template arguments...">
<polygon fill="#bfbfbf" stroke="black" points="59,-146.5 59,-176.5 168,-176.5 168,-146.5 59,-146.5"/>
<text text-anchor="start" x="67" y="-164.5" font-family="Helvetica,sans-Serif" font-size="10.00">lemons::serializing</text>
<text text-anchor="middle" x="113.5" y="-153.5" font-family="Helvetica,sans-Serif" font-size="10.00">::TogglerInterface</text>
</a>
</g>
</g>
<!-- Node3 -->
<g id="node3" class="node">
<title>Node3</title>
<g id="a_node3"><a xlink:href="structlemons_1_1serializing_1_1_toggler.html" target="_top" xlink:title="Class that manages several versions of the state of a serializable object and allows you to switch be...">
<polygon fill="none" stroke="black" points="0,-78.5 0,-108.5 133,-108.5 133,-78.5 0,-78.5"/>
<text text-anchor="start" x="8" y="-96.5" font-family="Helvetica,sans-Serif" font-size="10.00">lemons::serializing</text>
<text text-anchor="middle" x="66.5" y="-85.5" font-family="Helvetica,sans-Serif" font-size="10.00">::Toggler&lt; numStates &gt;</text>
</a>
</g>
</g>
<!-- Node1&#45;&gt;Node3 -->
<g id="edge2" class="edge">
<title>Node1&#45;&gt;Node3</title>
<path fill="none" stroke="midnightblue" d="M97.34,-137.81C90.49,-128.19 82.71,-117.26 76.68,-108.79"/>
<polygon fill="midnightblue" stroke="midnightblue" points="94.65,-140.06 103.3,-146.18 100.35,-136 94.65,-140.06"/>
</g>
<!-- Node4 -->
<g id="node4" class="node">
<title>Node4</title>
<g id="a_node4"><a xlink:href="structlemons_1_1serializing_1_1_toggler.html" target="_top" xlink:title=" ">
<polygon fill="none" stroke="black" points="59,-0.5 59,-30.5 168,-30.5 168,-0.5 59,-0.5"/>
<text text-anchor="start" x="67" y="-18.5" font-family="Helvetica,sans-Serif" font-size="10.00">lemons::serializing</text>
<text text-anchor="middle" x="113.5" y="-7.5" font-family="Helvetica,sans-Serif" font-size="10.00">::Toggler&lt; 3 &gt;</text>
</a>
</g>
</g>
<!-- Node1&#45;&gt;Node4 -->
<g id="edge4" class="edge">
<title>Node1&#45;&gt;Node4</title>
<path fill="none" stroke="midnightblue" d="M129.58,-137.84C134.77,-129.22 139.86,-119.06 142.5,-109 149.84,-81 134.23,-48.87 123.19,-30.8"/>
<polygon fill="midnightblue" stroke="midnightblue" points="126.48,-136.19 124.02,-146.49 132.37,-139.97 126.48,-136.19"/>
</g>
<!-- Node2 -->
<g id="node2" class="node">
<title>Node2</title>
<g id="a_node2"><a xlink:href="structlemons_1_1_serializable_data.html" target="_top" xlink:title="Base class for any C++ object that needs to be serialized to binary and back.">
<polygon fill="none" stroke="black" points="44,-214.5 44,-233.5 183,-233.5 183,-214.5 44,-214.5"/>
<text text-anchor="middle" x="113.5" y="-221.5" font-family="Helvetica,sans-Serif" font-size="10.00">lemons::SerializableData</text>
</a>
</g>
</g>
<!-- Node2&#45;&gt;Node1 -->
<g id="edge1" class="edge">
<title>Node2&#45;&gt;Node1</title>
<path fill="none" stroke="midnightblue" d="M113.5,-204.22C113.5,-195.36 113.5,-184.96 113.5,-176.76"/>
<polygon fill="midnightblue" stroke="midnightblue" points="110,-204.33 113.5,-214.33 117,-204.33 110,-204.33"/>
</g>
<!-- Node3&#45;&gt;Node4 -->
<g id="edge3" class="edge">
<title>Node3&#45;&gt;Node4</title>
<path fill="none" stroke="orange" stroke-dasharray="5,2" d="M80.68,-69.57C88.49,-56.94 97.95,-41.65 104.7,-30.73"/>
<polygon fill="orange" stroke="orange" points="77.62,-67.86 75.34,-78.2 83.58,-71.54 77.62,-67.86"/>
<text text-anchor="middle" x="109.5" y="-52" font-family="Helvetica,sans-Serif" font-size="10.00"> &lt; 3 &gt;</text>
</g>
</g>
</svg>
