<?xml version="1.0" encoding="UTF-8" standalone="no"?>
<!DOCTYPE svg PUBLIC "-//W3C//DTD SVG 1.1//EN"
 "http://www.w3.org/Graphics/SVG/1.1/DTD/svg11.dtd">
<!-- Generated by graphviz version 2.43.0 (0)
 -->
<!-- Title: lemons::plugin::Parameter::Listener Pages: 1 -->
<svg width="571pt" height="161pt"
 viewBox="0.00 0.00 571.00 161.00" xmlns="http://www.w3.org/2000/svg" xmlns:xlink="http://www.w3.org/1999/xlink">
<g id="graph0" class="graph" transform="scale(1 1) rotate(0) translate(4 157)">
<title>lemons::plugin::Parameter::Listener</title>
<!-- Node1 -->
<g id="node1" class="node">
<title>Node1</title>
<g id="a_node1"><a xlink:title="A Listener class that will be notified when aspects of a Parameter change.">
<polygon fill="#bfbfbf" stroke="black" points="0,-73.5 0,-103.5 145,-103.5 145,-73.5 0,-73.5"/>
<text text-anchor="start" x="8" y="-91.5" font-family="Helvetica,sans-Serif" font-size="10.00">lemons::plugin::Parameter</text>
<text text-anchor="middle" x="72.5" y="-80.5" font-family="Helvetica,sans-Serif" font-size="10.00">::Listener</text>
</a>
</g>
</g>
<!-- Node2 -->
<g id="node2" class="node">
<title>Node2</title>
<g id="a_node2"><a xlink:href="classlemons_1_1gui_1_1components_1_1_float_slider.html" target="_top" xlink:title="Plugin slider that attaches to a float parameter.">
<polygon fill="none" stroke="black" points="197.5,-122.5 197.5,-152.5 337.5,-152.5 337.5,-122.5 197.5,-122.5"/>
<text text-anchor="start" x="205.5" y="-140.5" font-family="Helvetica,sans-Serif" font-size="10.00">lemons::gui::components</text>
<text text-anchor="middle" x="267.5" y="-129.5" font-family="Helvetica,sans-Serif" font-size="10.00">::FloatSlider</text>
</a>
</g>
</g>
<!-- Node1&#45;&gt;Node2 -->
<g id="edge1" class="edge">
<title>Node1&#45;&gt;Node2</title>
<path fill="none" stroke="#8b1a1a" d="M142.62,-106.05C163.82,-111.43 186.93,-117.3 207.39,-122.49"/>
<polygon fill="#8b1a1a" stroke="#8b1a1a" points="143.27,-102.6 132.72,-103.53 141.55,-109.39 143.27,-102.6"/>
</g>
<!-- Node3 -->
<g id="node3" class="node">
<title>Node3</title>
<g id="a_node3"><a xlink:href="structlemons_1_1plugin_1_1_parameter_1_1_lambda_listener.html" target="_top" xlink:title="A listener class that fires lambdas for each callback.">
<polygon fill="none" stroke="black" points="195,-73.5 195,-103.5 340,-103.5 340,-73.5 195,-73.5"/>
<text text-anchor="start" x="203" y="-91.5" font-family="Helvetica,sans-Serif" font-size="10.00">lemons::plugin::Parameter</text>
<text text-anchor="middle" x="267.5" y="-80.5" font-family="Helvetica,sans-Serif" font-size="10.00">::LambdaListener</text>
</a>
</g>
</g>
<!-- Node1&#45;&gt;Node3 -->
<g id="edge2" class="edge">
<title>Node1&#45;&gt;Node3</title>
<path fill="none" stroke="midnightblue" d="M155.46,-88.5C168.5,-88.5 181.91,-88.5 194.7,-88.5"/>
<polygon fill="midnightblue" stroke="midnightblue" points="155.09,-85 145.09,-88.5 155.09,-92 155.09,-85"/>
</g>
<!-- Node4 -->
<g id="node4" class="node">
<title>Node4</title>
<g id="a_node4"><a xlink:href="structlemons_1_1plugin_1_1_typed_parameter_1_1_listener.html" target="_top" xlink:title="A class that will recieve updates when aspects of a TypedParameter change.">
<polygon fill="none" stroke="black" points="181,-24.5 181,-54.5 354,-54.5 354,-24.5 181,-24.5"/>
<text text-anchor="start" x="189" y="-42.5" font-family="Helvetica,sans-Serif" font-size="10.00">lemons::plugin::TypedParameter</text>
<text text-anchor="middle" x="267.5" y="-31.5" font-family="Helvetica,sans-Serif" font-size="10.00">&lt; ValueType &gt;::Listener</text>
</a>
</g>
</g>
<!-- Node1&#45;&gt;Node4 -->
<g id="edge3" class="edge">
<title>Node1&#45;&gt;Node4</title>
<path fill="none" stroke="midnightblue" d="M142.62,-70.95C163.82,-65.57 186.93,-59.7 207.39,-54.51"/>
<polygon fill="midnightblue" stroke="midnightblue" points="141.55,-67.61 132.72,-73.47 143.27,-74.4 141.55,-67.61"/>
</g>
<!-- Node5 -->
<g id="node5" class="node">
<title>Node5</title>
<g id="a_node5"><a xlink:href="classlemons_1_1gui_1_1components_1_1_int_slider.html" target="_top" xlink:title="Plugin slider that attaches to an integer parameter.">
<polygon fill="none" stroke="black" points="406.5,-49.5 406.5,-79.5 546.5,-79.5 546.5,-49.5 406.5,-49.5"/>
<text text-anchor="start" x="414.5" y="-67.5" font-family="Helvetica,sans-Serif" font-size="10.00">lemons::gui::components</text>
<text text-anchor="middle" x="476.5" y="-56.5" font-family="Helvetica,sans-Serif" font-size="10.00">::IntSlider</text>
</a>
</g>
</g>
<!-- Node4&#45;&gt;Node5 -->
<g id="edge4" class="edge">
<title>Node4&#45;&gt;Node5</title>
<path fill="none" stroke="#8b1a1a" d="M364.42,-51.08C378.54,-52.79 392.84,-54.52 406.28,-56.14"/>
<polygon fill="#8b1a1a" stroke="#8b1a1a" points="364.54,-47.57 354.19,-49.85 363.7,-54.52 364.54,-47.57"/>
</g>
<!-- Node6 -->
<g id="node6" class="node">
<title>Node6</title>
<g id="a_node6"><a xlink:href="structlemons_1_1plugin_1_1_typed_parameter_1_1_lambda_listener.html" target="_top" xlink:title="A listener that fires lambdas for each callback.">
<polygon fill="none" stroke="black" points="390,-0.5 390,-30.5 563,-30.5 563,-0.5 390,-0.5"/>
<text text-anchor="start" x="398" y="-18.5" font-family="Helvetica,sans-Serif" font-size="10.00">lemons::plugin::TypedParameter</text>
<text text-anchor="middle" x="476.5" y="-7.5" font-family="Helvetica,sans-Serif" font-size="10.00">&lt; ValueType &gt;::LambdaListener</text>
</a>
</g>
</g>
<!-- Node4&#45;&gt;Node6 -->
<g id="edge5" class="edge">
<title>Node4&#45;&gt;Node6</title>
<path fill="none" stroke="midnightblue" d="M364.2,-28.4C372.76,-27.41 381.4,-26.41 389.88,-25.43"/>
<polygon fill="midnightblue" stroke="midnightblue" points="363.72,-24.94 354.19,-29.57 364.53,-31.89 363.72,-24.94"/>
</g>
</g>
</svg>
