<?xml version="1.0" encoding="UTF-8" standalone="no"?>
<!DOCTYPE svg PUBLIC "-//W3C//DTD SVG 1.1//EN"
 "http://www.w3.org/Graphics/SVG/1.1/DTD/svg11.dtd">
<!-- Generated by graphviz version 2.50.0 (20211204.2007)
 -->
<!-- Title: lemons::dsp::is_realtime_copy_assignable&lt; T &gt; Pages: 1 -->
<svg width="240pt" height="275pt"
 viewBox="0.00 0.00 240.00 275.00" xmlns="http://www.w3.org/2000/svg" xmlns:xlink="http://www.w3.org/1999/xlink">
<g id="graph0" class="graph" transform="scale(1 1) rotate(0) translate(4 271)">
<title>lemons::dsp::is_realtime_copy_assignable&lt; T &gt;</title>
<!-- Node1 -->
<g id="node1" class="node">
<title>Node1</title>
<g id="a_node1"><a xlink:title=" ">
<polygon fill="#bfbfbf" stroke="black" points="24.5,-0.5 24.5,-30.5 147.5,-30.5 147.5,-0.5 24.5,-0.5"/>
<text text-anchor="start" x="32.5" y="-18.5" font-family="Helvetica,sans-Serif" font-size="10.00">lemons::dsp::is_realtime</text>
<text text-anchor="middle" x="86" y="-7.5" font-family="Helvetica,sans-Serif" font-size="10.00">_copy_assignable&lt; T &gt;</text>
</a>
</g>
</g>
<!-- Node2 -->
<g id="node2" class="node">
<title>Node2</title>
<g id="a_node2"><a xlink:href="structlemons_1_1dsp_1_1detail_1_1is__rt__safe.html" target="_top" xlink:title=" ">
<polygon fill="none" stroke="black" points="0,-68.5 0,-109.5 172,-109.5 172,-68.5 0,-68.5"/>
<text text-anchor="start" x="8" y="-97.5" font-family="Helvetica,sans-Serif" font-size="10.00">lemons::dsp::detail</text>
<text text-anchor="start" x="8" y="-86.5" font-family="Helvetica,sans-Serif" font-size="10.00">::is_rt_safe&lt; T, detail</text>
<text text-anchor="middle" x="86" y="-75.5" font-family="Helvetica,sans-Serif" font-size="10.00">::copy_tag, detail::assignable_tag &gt;</text>
</a>
</g>
</g>
<!-- Node2&#45;&gt;Node1 -->
<g id="edge1" class="edge">
<title>Node2&#45;&gt;Node1</title>
<path fill="none" stroke="midnightblue" d="M86,-58.16C86,-48.69 86,-38.65 86,-30.8"/>
<polygon fill="midnightblue" stroke="midnightblue" points="82.5,-58.46 86,-68.46 89.5,-58.46 82.5,-58.46"/>
</g>
<!-- Node3 -->
<g id="node3" class="node">
<title>Node3</title>
<g id="a_node3"><a xlink:title=" ">
<polygon fill="none" stroke="black" points="41.5,-247.5 41.5,-266.5 122.5,-266.5 122.5,-247.5 41.5,-247.5"/>
<text text-anchor="middle" x="82" y="-254.5" font-family="Helvetica,sans-Serif" font-size="10.00">std::false_type</text>
</a>
</g>
</g>
<!-- Node3&#45;&gt;Node2 -->
<g id="edge2" class="edge">
<title>Node3&#45;&gt;Node2</title>
<path fill="none" stroke="midnightblue" d="M82.46,-236.93C83.22,-205.19 84.75,-141.84 85.53,-109.69"/>
<polygon fill="midnightblue" stroke="midnightblue" points="78.96,-236.99 82.22,-247.08 85.96,-237.16 78.96,-236.99"/>
</g>
<!-- Node4 -->
<g id="node4" class="node">
<title>Node4</title>
<g id="a_node4"><a xlink:href="structlemons_1_1dsp_1_1detail_1_1is__rt__safe.html" target="_top" xlink:title=" ">
<polygon fill="none" stroke="black" points="98.5,-168.5 98.5,-209.5 207.5,-209.5 207.5,-168.5 98.5,-168.5"/>
<text text-anchor="start" x="106.5" y="-197.5" font-family="Helvetica,sans-Serif" font-size="10.00">lemons::dsp::detail</text>
<text text-anchor="start" x="106.5" y="-186.5" font-family="Helvetica,sans-Serif" font-size="10.00">::is_rt_safe&lt; T, Tag1,</text>
<text text-anchor="middle" x="153" y="-175.5" font-family="Helvetica,sans-Serif" font-size="10.00"> Tag2 &gt;</text>
</a>
</g>
</g>
<!-- Node3&#45;&gt;Node4 -->
<g id="edge4" class="edge">
<title>Node3&#45;&gt;Node4</title>
<path fill="none" stroke="midnightblue" d="M98.83,-240.36C108.69,-231.19 121.24,-219.53 131.77,-209.74"/>
<polygon fill="midnightblue" stroke="midnightblue" points="96.22,-238 91.28,-247.37 100.99,-243.13 96.22,-238"/>
</g>
<!-- Node4&#45;&gt;Node2 -->
<g id="edge3" class="edge">
<title>Node4&#45;&gt;Node2</title>
<path fill="none" stroke="orange" stroke-dasharray="5,2" d="M133.66,-159.71C122.73,-143.73 109.34,-124.14 99.54,-109.8"/>
<polygon fill="orange" stroke="orange" points="130.91,-161.89 139.44,-168.17 136.69,-157.94 130.91,-161.89"/>
<text text-anchor="start" x="125" y="-142" font-family="Helvetica,sans-Serif" font-size="10.00"> &lt; T, detail::copy_tag,</text>
<text text-anchor="middle" x="178.5" y="-131" font-family="Helvetica,sans-Serif" font-size="10.00"> detail::assignable_tag &gt;</text>
</g>
</g>
</svg>
