<?xml version="1.0" encoding="UTF-8" standalone="no"?>
<!DOCTYPE svg PUBLIC "-//W3C//DTD SVG 1.1//EN"
 "http://www.w3.org/Graphics/SVG/1.1/DTD/svg11.dtd">
<!-- Generated by graphviz version 2.49.3 (20211023.0002)
 -->
<!-- Title: lemons::gui::components::ComponentArray&lt; ComponentType, &gt; Pages: 1 -->
<svg width="536pt" height="132pt"
 viewBox="0.00 0.00 536.00 132.00" xmlns="http://www.w3.org/2000/svg" xmlns:xlink="http://www.w3.org/1999/xlink">
<g id="graph0" class="graph" transform="scale(1 1) rotate(0) translate(4 128)">
<title>lemons::gui::components::ComponentArray&lt; ComponentType, &gt;</title>
<!-- Node1 -->
<g id="node1" class="node">
<title>Node1</title>
<g id="a_node1"><a xlink:title=" ">
<polygon fill="#bfbfbf" stroke="black" points="0,-46.5 0,-76.5 187,-76.5 187,-46.5 0,-46.5"/>
<text text-anchor="start" x="8" y="-64.5" font-family="Helvetica,sans-Serif" font-size="10.00">lemons::gui::components</text>
<text text-anchor="middle" x="93.5" y="-53.5" font-family="Helvetica,sans-Serif" font-size="10.00">::ComponentArray&lt; ComponentType, &gt;</text>
</a>
</g>
</g>
<!-- Node2 -->
<g id="node2" class="node">
<title>Node2</title>
<g id="a_node2"><a xlink:href="structlemons_1_1gui_1_1components_1_1_component_array.html" target="_top" xlink:title=" ">
<polygon fill="none" stroke="black" points="364,-71.5 364,-123.5 528,-123.5 528,-71.5 364,-71.5"/>
<text text-anchor="start" x="372" y="-111.5" font-family="Helvetica,sans-Serif" font-size="10.00">lemons::gui::components</text>
<text text-anchor="start" x="372" y="-100.5" font-family="Helvetica,sans-Serif" font-size="10.00">::ComponentArray&lt; lemons</text>
<text text-anchor="start" x="372" y="-89.5" font-family="Helvetica,sans-Serif" font-size="10.00">::gui::components::ParameterMidi</text>
<text text-anchor="middle" x="446" y="-78.5" font-family="Helvetica,sans-Serif" font-size="10.00">MappingEditor &gt;</text>
</a>
</g>
</g>
<!-- Node1&#45;&gt;Node2 -->
<g id="edge1" class="edge">
<title>Node1&#45;&gt;Node2</title>
<path fill="none" stroke="orange" stroke-dasharray="5,2" d="M197.22,-74.64C199.84,-74.93 202.43,-75.22 205,-75.5 257.82,-81.27 317.3,-86.73 363.83,-90.76"/>
<polygon fill="orange" stroke="orange" points="197.36,-71.13 187.02,-73.46 196.55,-78.08 197.36,-71.13"/>
<text text-anchor="start" x="205" y="-102.5" font-family="Helvetica,sans-Serif" font-size="10.00"> &lt; lemons::gui::components</text>
<text text-anchor="middle" x="275.5" y="-91.5" font-family="Helvetica,sans-Serif" font-size="10.00">::ParameterMidiMappingEditor &gt;</text>
</g>
<!-- Node3 -->
<g id="node3" class="node">
<title>Node3</title>
<g id="a_node3"><a xlink:href="structlemons_1_1gui_1_1components_1_1_component_array.html" target="_top" xlink:title=" ">
<polygon fill="none" stroke="black" points="370,-0.5 370,-52.5 522,-52.5 522,-0.5 370,-0.5"/>
<text text-anchor="start" x="378" y="-40.5" font-family="Helvetica,sans-Serif" font-size="10.00">lemons::gui::components</text>
<text text-anchor="start" x="378" y="-29.5" font-family="Helvetica,sans-Serif" font-size="10.00">::ComponentArray&lt; lemons</text>
<text text-anchor="start" x="378" y="-18.5" font-family="Helvetica,sans-Serif" font-size="10.00">::gui::components::PluginDetail</text>
<text text-anchor="middle" x="446" y="-7.5" font-family="Helvetica,sans-Serif" font-size="10.00">View &gt;</text>
</a>
</g>
</g>
<!-- Node1&#45;&gt;Node3 -->
<g id="edge2" class="edge">
<title>Node1&#45;&gt;Node3</title>
<path fill="none" stroke="orange" stroke-dasharray="5,2" d="M197.23,-51.24C252.55,-45.72 319.57,-39.03 369.95,-33.99"/>
<polygon fill="orange" stroke="orange" points="196.65,-47.78 187.05,-52.26 197.35,-54.75 196.65,-47.78"/>
<text text-anchor="start" x="214.5" y="-63.5" font-family="Helvetica,sans-Serif" font-size="10.00"> &lt; lemons::gui::components</text>
<text text-anchor="middle" x="275.5" y="-52.5" font-family="Helvetica,sans-Serif" font-size="10.00">::PluginDetailView &gt;</text>
</g>
</g>
</svg>
