<?xml version="1.0" encoding="UTF-8" standalone="no"?>
<!DOCTYPE svg PUBLIC "-//W3C//DTD SVG 1.1//EN"
 "http://www.w3.org/Graphics/SVG/1.1/DTD/svg11.dtd">
<!-- Generated by graphviz version 2.43.0 (0)
 -->
<!-- Title: lemons::serializing::ContainerInterface Pages: 1 -->
<svg width="303pt" height="290pt"
 viewBox="0.00 0.00 303.00 290.00" xmlns="http://www.w3.org/2000/svg" xmlns:xlink="http://www.w3.org/1999/xlink">
<g id="graph0" class="graph" transform="scale(1 1) rotate(0) translate(4 286)">
<title>lemons::serializing::ContainerInterface</title>
<!-- Node1 -->
<g id="node1" class="node">
<title>Node1</title>
<g id="a_node1"><a xlink:title="Interface that defines how a TreeReflector can resize a given container during deserialization.">
<polygon fill="#bfbfbf" stroke="black" points="0,-126 0,-156 113,-156 113,-126 0,-126"/>
<text text-anchor="start" x="8" y="-144" font-family="Helvetica,sans-Serif" font-size="10.00">lemons::serializing</text>
<text text-anchor="middle" x="56.5" y="-133" font-family="Helvetica,sans-Serif" font-size="10.00">::ContainerInterface</text>
</a>
</g>
</g>
<!-- Node2 -->
<g id="node2" class="node">
<title>Node2</title>
<g id="a_node2"><a xlink:href="structlemons_1_1serializing_1_1JuceArrayInterface.html" target="_top" xlink:title=" ">
<polygon fill="none" stroke="black" points="165.5,-240.5 165.5,-281.5 278.5,-281.5 278.5,-240.5 165.5,-240.5"/>
<text text-anchor="start" x="173.5" y="-269.5" font-family="Helvetica,sans-Serif" font-size="10.00">lemons::serializing</text>
<text text-anchor="start" x="173.5" y="-258.5" font-family="Helvetica,sans-Serif" font-size="10.00">::JuceArrayInterface</text>
<text text-anchor="middle" x="222" y="-247.5" font-family="Helvetica,sans-Serif" font-size="10.00">&lt; ElementType &gt;</text>
</a>
</g>
</g>
<!-- Node1&#45;&gt;Node2 -->
<g id="edge1" class="edge">
<title>Node1&#45;&gt;Node2</title>
<path fill="none" stroke="midnightblue" d="M76.25,-163.86C93.49,-183.71 120.61,-212.16 149,-231 154.08,-234.37 159.59,-237.48 165.24,-240.32"/>
<polygon fill="midnightblue" stroke="midnightblue" points="78.86,-161.52 69.71,-156.19 73.53,-166.07 78.86,-161.52"/>
</g>
<!-- Node3 -->
<g id="node3" class="node">
<title>Node3</title>
<g id="a_node3"><a xlink:href="structlemons_1_1serializing_1_1JuceOwnedArrayInterface.html" target="_top" xlink:title=" ">
<polygon fill="none" stroke="black" points="149,-180.5 149,-221.5 295,-221.5 295,-180.5 149,-180.5"/>
<text text-anchor="start" x="157" y="-209.5" font-family="Helvetica,sans-Serif" font-size="10.00">lemons::serializing</text>
<text text-anchor="start" x="157" y="-198.5" font-family="Helvetica,sans-Serif" font-size="10.00">::JuceOwnedArrayInterface</text>
<text text-anchor="middle" x="222" y="-187.5" font-family="Helvetica,sans-Serif" font-size="10.00">&lt; ElementType &gt;</text>
</a>
</g>
</g>
<!-- Node1&#45;&gt;Node3 -->
<g id="edge2" class="edge">
<title>Node1&#45;&gt;Node3</title>
<path fill="none" stroke="midnightblue" d="M108.45,-159.7C126.37,-166.27 146.61,-173.7 164.93,-180.42"/>
<polygon fill="midnightblue" stroke="midnightblue" points="109.35,-156.3 98.76,-156.14 106.94,-162.87 109.35,-156.3"/>
</g>
<!-- Node4 -->
<g id="node4" class="node">
<title>Node4</title>
<g id="a_node4"><a xlink:href="structlemons_1_1serializing_1_1StdArrayInterface.html" target="_top" xlink:title=" ">
<polygon fill="none" stroke="black" points="158,-120.5 158,-161.5 286,-161.5 286,-120.5 158,-120.5"/>
<text text-anchor="start" x="166" y="-149.5" font-family="Helvetica,sans-Serif" font-size="10.00">lemons::serializing</text>
<text text-anchor="start" x="166" y="-138.5" font-family="Helvetica,sans-Serif" font-size="10.00">::StdArrayInterface</text>
<text text-anchor="middle" x="222" y="-127.5" font-family="Helvetica,sans-Serif" font-size="10.00">&lt; ElementType, size &gt;</text>
</a>
</g>
</g>
<!-- Node1&#45;&gt;Node4 -->
<g id="edge3" class="edge">
<title>Node1&#45;&gt;Node4</title>
<path fill="none" stroke="midnightblue" d="M123.56,-141C134.88,-141 146.62,-141 157.86,-141"/>
<polygon fill="midnightblue" stroke="midnightblue" points="123.31,-137.5 113.31,-141 123.31,-144.5 123.31,-137.5"/>
</g>
<!-- Node5 -->
<g id="node5" class="node">
<title>Node5</title>
<g id="a_node5"><a xlink:href="structlemons_1_1serializing_1_1StdListInterface.html" target="_top" xlink:title=" ">
<polygon fill="none" stroke="black" points="167.5,-60.5 167.5,-101.5 276.5,-101.5 276.5,-60.5 167.5,-60.5"/>
<text text-anchor="start" x="175.5" y="-89.5" font-family="Helvetica,sans-Serif" font-size="10.00">lemons::serializing</text>
<text text-anchor="start" x="175.5" y="-78.5" font-family="Helvetica,sans-Serif" font-size="10.00">::StdListInterface&lt;</text>
<text text-anchor="middle" x="222" y="-67.5" font-family="Helvetica,sans-Serif" font-size="10.00"> ElementType &gt;</text>
</a>
</g>
</g>
<!-- Node1&#45;&gt;Node5 -->
<g id="edge4" class="edge">
<title>Node1&#45;&gt;Node5</title>
<path fill="none" stroke="midnightblue" d="M108.31,-122.35C127.07,-115.47 148.38,-107.65 167.38,-100.68"/>
<polygon fill="midnightblue" stroke="midnightblue" points="106.94,-119.13 98.76,-125.86 109.35,-125.7 106.94,-119.13"/>
</g>
<!-- Node6 -->
<g id="node6" class="node">
<title>Node6</title>
<g id="a_node6"><a xlink:href="structlemons_1_1serializing_1_1StdVectorInterface.html" target="_top" xlink:title=" ">
<polygon fill="none" stroke="black" points="165.5,-0.5 165.5,-41.5 278.5,-41.5 278.5,-0.5 165.5,-0.5"/>
<text text-anchor="start" x="173.5" y="-29.5" font-family="Helvetica,sans-Serif" font-size="10.00">lemons::serializing</text>
<text text-anchor="start" x="173.5" y="-18.5" font-family="Helvetica,sans-Serif" font-size="10.00">::StdVectorInterface</text>
<text text-anchor="middle" x="222" y="-7.5" font-family="Helvetica,sans-Serif" font-size="10.00">&lt; ElementType &gt;</text>
</a>
</g>
</g>
<!-- Node1&#45;&gt;Node6 -->
<g id="edge5" class="edge">
<title>Node1&#45;&gt;Node6</title>
<path fill="none" stroke="midnightblue" d="M76.25,-118.14C93.49,-98.29 120.61,-69.84 149,-51 154.08,-47.63 159.59,-44.52 165.24,-41.68"/>
<polygon fill="midnightblue" stroke="midnightblue" points="73.53,-115.93 69.71,-125.81 78.86,-120.48 73.53,-115.93"/>
</g>
</g>
</svg>
