<?xml version="1.0" encoding="UTF-8" standalone="no"?>
<!DOCTYPE svg PUBLIC "-//W3C//DTD SVG 1.1//EN"
 "http://www.w3.org/Graphics/SVG/1.1/DTD/svg11.dtd">
<!-- Generated by graphviz version 2.49.1 (20210923.0004)
 -->
<!-- Title: lemons::plugin::Parameter::Listener Pages: 1 -->
<svg width="494pt" height="91pt"
 viewBox="0.00 0.00 494.00 91.00" xmlns="http://www.w3.org/2000/svg" xmlns:xlink="http://www.w3.org/1999/xlink">
<g id="graph0" class="graph" transform="scale(1 1) rotate(0) translate(4 87)">
<title>lemons::plugin::Parameter::Listener</title>
<!-- Node1 -->
<g id="node1" class="node">
<title>Node1</title>
<g id="a_node1"><a xlink:title="A Listener class that will be notified when aspects of a Parameter change.">
<polygon fill="#bfbfbf" stroke="black" points="0,-36 0,-66 133,-66 133,-36 0,-36"/>
<text text-anchor="start" x="8" y="-54" font-family="Helvetica,sans-Serif" font-size="10.00">lemons::plugin::Parameter</text>
<text text-anchor="middle" x="66.5" y="-43" font-family="Helvetica,sans-Serif" font-size="10.00">::Listener</text>
</a>
</g>
</g>
<!-- Node2 -->
<g id="node2" class="node">
<title>Node2</title>
<g id="a_node2"><a xlink:href="structlemons_1_1plugin_1_1ParamUpdater.html" target="_top" xlink:title="A listener class that calls lambda functions when a parameter&#39;s value or gesture state changes.">
<polygon fill="none" stroke="black" points="173,-63.5 173,-82.5 325,-82.5 325,-63.5 173,-63.5"/>
<text text-anchor="middle" x="249" y="-70.5" font-family="Helvetica,sans-Serif" font-size="10.00">lemons::plugin::ParamUpdater</text>
</a>
</g>
</g>
<!-- Node1&#45;&gt;Node2 -->
<g id="edge1" class="edge">
<title>Node1&#45;&gt;Node2</title>
<path fill="none" stroke="midnightblue" d="M143.28,-60.24C153.07,-61.43 163.1,-62.65 172.89,-63.85"/>
<polygon fill="midnightblue" stroke="midnightblue" points="143.53,-56.74 133.18,-59 142.68,-63.69 143.53,-56.74"/>
</g>
<!-- Node3 -->
<g id="node3" class="node">
<title>Node3</title>
<g id="a_node3"><a xlink:href="structlemons_1_1plugin_1_1TypedParameter_1_1Listener.html" target="_top" xlink:title="A class that will recieve updates when aspects of a TypedParameter change.">
<polygon fill="none" stroke="black" points="169,-14 169,-44 329,-44 329,-14 169,-14"/>
<text text-anchor="start" x="177" y="-32" font-family="Helvetica,sans-Serif" font-size="10.00">lemons::plugin::TypedParameter</text>
<text text-anchor="middle" x="249" y="-21" font-family="Helvetica,sans-Serif" font-size="10.00">&lt; ValueType &gt;::Listener</text>
</a>
</g>
</g>
<!-- Node1&#45;&gt;Node3 -->
<g id="edge2" class="edge">
<title>Node1&#45;&gt;Node3</title>
<path fill="none" stroke="midnightblue" d="M143.35,-41.75C151.79,-40.73 160.39,-39.68 168.86,-38.65"/>
<polygon fill="midnightblue" stroke="midnightblue" points="142.68,-38.31 133.18,-43 143.53,-45.26 142.68,-38.31"/>
</g>
<!-- Node4 -->
<g id="node4" class="node">
<title>Node4</title>
<g id="a_node4"><a xlink:href="classlemons_1_1gui_1_1FloatSlider.html" target="_top" xlink:title="Plugin slider that attaches to a float parameter.">
<polygon fill="none" stroke="black" points="365,-38.5 365,-57.5 486,-57.5 486,-38.5 365,-38.5"/>
<text text-anchor="middle" x="425.5" y="-45.5" font-family="Helvetica,sans-Serif" font-size="10.00">lemons::gui::FloatSlider</text>
</a>
</g>
</g>
<!-- Node3&#45;&gt;Node4 -->
<g id="edge3" class="edge">
<title>Node3&#45;&gt;Node4</title>
<path fill="none" stroke="#8b1a1a" d="M339.23,-38.72C347.88,-39.66 356.51,-40.6 364.77,-41.5"/>
<polygon fill="#8b1a1a" stroke="#8b1a1a" points="339.4,-35.21 329.08,-37.61 338.64,-42.17 339.4,-35.21"/>
</g>
<!-- Node5 -->
<g id="node5" class="node">
<title>Node5</title>
<g id="a_node5"><a xlink:href="classlemons_1_1gui_1_1IntSlider.html" target="_top" xlink:title="Plugin slider that attaches to an integer parameter.">
<polygon fill="none" stroke="black" points="370.5,-0.5 370.5,-19.5 480.5,-19.5 480.5,-0.5 370.5,-0.5"/>
<text text-anchor="middle" x="425.5" y="-7.5" font-family="Helvetica,sans-Serif" font-size="10.00">lemons::gui::IntSlider</text>
</a>
</g>
</g>
<!-- Node3&#45;&gt;Node5 -->
<g id="edge4" class="edge">
<title>Node3&#45;&gt;Node5</title>
<path fill="none" stroke="#8b1a1a" d="M339.27,-19.28C349.9,-18.12 360.49,-16.97 370.41,-15.89"/>
<polygon fill="#8b1a1a" stroke="#8b1a1a" points="338.64,-15.83 329.08,-20.39 339.4,-22.79 338.64,-15.83"/>
</g>
</g>
</svg>
