<?xml version="1.0" encoding="UTF-8" standalone="no"?>
<!DOCTYPE svg PUBLIC "-//W3C//DTD SVG 1.1//EN"
 "http://www.w3.org/Graphics/SVG/1.1/DTD/svg11.dtd">
<!-- Generated by graphviz version 2.43.0 (0)
 -->
<!-- Title: lemons::gui::components::OptionalComponent&lt; ComponentType, &gt; Pages: 1 -->
<svg width="741pt" height="51pt"
 viewBox="0.00 0.00 741.00 51.00" xmlns="http://www.w3.org/2000/svg" xmlns:xlink="http://www.w3.org/1999/xlink">
<g id="graph0" class="graph" transform="scale(1 1) rotate(0) translate(4 47)">
<title>lemons::gui::components::OptionalComponent&lt; ComponentType, &gt;</title>
<!-- Node1 -->
<g id="node1" class="node">
<title>Node1</title>
<g id="a_node1"><a xlink:title=" ">
<polygon fill="#bfbfbf" stroke="black" points="110,-0.5 110,-41.5 298,-41.5 298,-0.5 110,-0.5"/>
<text text-anchor="start" x="118" y="-29.5" font-family="Helvetica,sans-Serif" font-size="10.00">lemons::gui::components</text>
<text text-anchor="start" x="118" y="-18.5" font-family="Helvetica,sans-Serif" font-size="10.00">::OptionalComponent&lt; Component</text>
<text text-anchor="middle" x="204" y="-7.5" font-family="Helvetica,sans-Serif" font-size="10.00">Type, &gt;</text>
</a>
</g>
</g>
<!-- Node3 -->
<g id="node3" class="node">
<title>Node3</title>
<g id="a_node3"><a xlink:href="structlemons_1_1gui_1_1components_1_1_optional_component.html" target="_top" xlink:title=" ">
<polygon fill="none" stroke="black" points="482,-0.5 482,-41.5 733,-41.5 733,-0.5 482,-0.5"/>
<text text-anchor="start" x="490" y="-29.5" font-family="Helvetica,sans-Serif" font-size="10.00">lemons::gui::components</text>
<text text-anchor="start" x="490" y="-18.5" font-family="Helvetica,sans-Serif" font-size="10.00">::OptionalComponent&lt; lemons</text>
<text text-anchor="middle" x="607.5" y="-7.5" font-family="Helvetica,sans-Serif" font-size="10.00">::gui::components::PluginCategoryComponent &gt;</text>
</a>
</g>
</g>
<!-- Node1&#45;&gt;Node3 -->
<g id="edge2" class="edge">
<title>Node1&#45;&gt;Node3</title>
<path fill="none" stroke="orange" stroke-dasharray="5,2" d="M308.21,-21C361.2,-21 426.18,-21 481.94,-21"/>
<polygon fill="orange" stroke="orange" points="308.12,-17.5 298.12,-21 308.12,-24.5 308.12,-17.5"/>
<text text-anchor="start" x="316" y="-35" font-family="Helvetica,sans-Serif" font-size="10.00"> &lt; lemons::gui::components</text>
<text text-anchor="middle" x="390" y="-24" font-family="Helvetica,sans-Serif" font-size="10.00">::PluginCategoryComponent &gt;</text>
</g>
<!-- Node2 -->
<g id="node2" class="node">
<title>Node2</title>
<g id="a_node2"><a xlink:title=" ">
<polygon fill="none" stroke="#bfbfbf" points="0,-11.5 0,-30.5 73,-30.5 73,-11.5 0,-11.5"/>
<text text-anchor="middle" x="36.5" y="-18.5" font-family="Helvetica,sans-Serif" font-size="10.00">Component</text>
</a>
</g>
</g>
<!-- Node2&#45;&gt;Node1 -->
<g id="edge1" class="edge">
<title>Node2&#45;&gt;Node1</title>
<path fill="none" stroke="midnightblue" d="M83.23,-21C91.59,-21 100.59,-21 109.77,-21"/>
<polygon fill="midnightblue" stroke="midnightblue" points="83,-17.5 73,-21 83,-24.5 83,-17.5"/>
</g>
</g>
</svg>
