<?xml version="1.0" encoding="UTF-8" standalone="no"?>
<!DOCTYPE svg PUBLIC "-//W3C//DTD SVG 1.1//EN"
 "http://www.w3.org/Graphics/SVG/1.1/DTD/svg11.dtd">
<!-- Generated by graphviz version 2.50.0 (20211204.2007)
 -->
<!-- Title: lemons::dsp::detail::is_rt_safe&lt; T, Tag1, Tag2 &gt; Pages: 1 -->
<!--zoomable 399 -->
<svg id="main" version="1.1" xmlns="http://www.w3.org/2000/svg" xmlns:xlink="http://www.w3.org/1999/xlink" xml:space="preserve" onload="init(evt)">
<style type="text/css"><![CDATA[
.edge:hover path { stroke: red; }
.edge:hover polygon { stroke: red; fill: red; }
]]></style>
<script type="text/javascript"><![CDATA[
var edges = document.getElementsByTagName('g');
if (edges && edges.length) {
  for (var i=0;i<edges.length;i++) {
    if (edges[i].id.substr(0,4)=='edge') {
      edges[i].setAttribute('class','edge');
    }
  }
}
]]></script>
        <defs>
                <circle id="rim" cx="0" cy="0" r="7"/>
                <circle id="rim2" cx="0" cy="0" r="3.5"/>
                <g id="zoomPlus">
                        <use xlink:href="#rim" fill="#404040">
                                <set attributeName="fill" to="#808080" begin="zoomplus.mouseover" end="zoomplus.mouseout"/>
                        </use>
                        <path d="M-4,0h8M0,-4v8" fill="none" stroke="white" stroke-width="1.5" pointer-events="none"/>
                </g>
                <g id="zoomMin">
                        <use xlink:href="#rim" fill="#404040">
                                <set attributeName="fill" to="#808080" begin="zoomminus.mouseover" end="zoomminus.mouseout"/>
                        </use>
                        <path d="M-4,0h8" fill="none" stroke="white" stroke-width="1.5" pointer-events="none"/>
                </g>
                <g id="dirArrow">
                        <path fill="none" stroke="white" stroke-width="1.5" d="M0,-3.0v7 M-2.5,-0.5L0,-3.0L2.5,-0.5"/>
                </g>
               <g id="resetDef">
                       <use xlink:href="#rim2" fill="#404040">
                               <set attributeName="fill" to="#808080" begin="reset.mouseover" end="reset.mouseout"/>
                       </use>
               </g>
        </defs>

<script type="text/javascript">
var viewWidth = 747;
var viewHeight = 399;
var sectionId = 'dynsection-0';
</script>
<script xlink:href="svgpan.js"/>
<svg id="graph" class="graph">
<g id="viewport">
<title>lemons::dsp::detail::is_rt_safe&lt; T, Tag1, Tag2 &gt;</title>
<!-- Node1 -->
<g id="node1" class="node">
<title>Node1</title>
<g id="a_node1"><a xlink:title=" ">
<polygon fill="#bfbfbf" stroke="black" points="118,-120.5 118,-161.5 227,-161.5 227,-120.5 118,-120.5"/>
<text text-anchor="start" x="126" y="-149.5" font-family="Helvetica,sans-Serif" font-size="10.00">lemons::dsp::detail</text>
<text text-anchor="start" x="126" y="-138.5" font-family="Helvetica,sans-Serif" font-size="10.00">::is_rt_safe&lt; T, Tag1,</text>
<text text-anchor="middle" x="172.5" y="-127.5" font-family="Helvetica,sans-Serif" font-size="10.00"> Tag2 &gt;</text>
</a>
</g>
</g>
<!-- Node3 -->
<g id="node3" class="node">
<title>Node3</title>
<g id="a_node3"><a xlink:href="structlemons_1_1dsp_1_1detail_1_1is__rt__safe.html" target="_top" xlink:title=" ">
<polygon fill="none" stroke="black" points="416.5,-271.5 416.5,-312.5 525.5,-312.5 525.5,-271.5 416.5,-271.5"/>
<text text-anchor="start" x="424.5" y="-300.5" font-family="Helvetica,sans-Serif" font-size="10.00">lemons::dsp::detail</text>
<text text-anchor="start" x="424.5" y="-289.5" font-family="Helvetica,sans-Serif" font-size="10.00">::is_rt_safe&lt; T, move</text>
<text text-anchor="middle" x="471" y="-278.5" font-family="Helvetica,sans-Serif" font-size="10.00">_tag, Tag &gt;</text>
</a>
</g>
</g>
<!-- Node1&#45;&gt;Node3 -->
<g id="edge2" class="edge">
<title>Node1&#45;&gt;Node3</title>
<path fill="none" stroke="orange" stroke-dasharray="5,2" d="M195.83,-169.5C208.82,-184.48 226.29,-202.14 245,-214 298.61,-247.96 368.82,-269.24 416.46,-280.83"/>
<polygon fill="orange" stroke="orange" points="198.22,-166.91 189.1,-161.51 192.86,-171.42 198.22,-166.91"/>
<text text-anchor="middle" x="303" y="-267" font-family="Helvetica,sans-Serif" font-size="10.00"> &lt; T, move_tag, Tag &gt;</text>
</g>
<!-- Node7 -->
<g id="node7" class="node">
<title>Node7</title>
<g id="a_node7"><a xlink:href="structlemons_1_1dsp_1_1detail_1_1is__rt__safe.html" target="_top" xlink:title=" ">
<polygon fill="none" stroke="black" points="385,-180.5 385,-221.5 557,-221.5 557,-180.5 385,-180.5"/>
<text text-anchor="start" x="393" y="-209.5" font-family="Helvetica,sans-Serif" font-size="10.00">lemons::dsp::detail</text>
<text text-anchor="start" x="393" y="-198.5" font-family="Helvetica,sans-Serif" font-size="10.00">::is_rt_safe&lt; T, detail</text>
<text text-anchor="middle" x="471" y="-187.5" font-family="Helvetica,sans-Serif" font-size="10.00">::copy_tag, detail::assignable_tag &gt;</text>
</a>
</g>
</g>
<!-- Node1&#45;&gt;Node7 -->
<g id="edge6" class="edge">
<title>Node1&#45;&gt;Node7</title>
<path fill="none" stroke="orange" stroke-dasharray="5,2" d="M235.96,-164.52C239,-165.41 242.02,-166.24 245,-167 290.56,-178.6 342.38,-186.76 384.8,-192.18"/>
<polygon fill="orange" stroke="orange" points="236.82,-161.12 226.23,-161.5 234.75,-167.81 236.82,-161.12"/>
<text text-anchor="start" x="249.5" y="-202" font-family="Helvetica,sans-Serif" font-size="10.00"> &lt; T, detail::copy_tag,</text>
<text text-anchor="middle" x="303" y="-191" font-family="Helvetica,sans-Serif" font-size="10.00"> detail::assignable_tag &gt;</text>
</g>
<!-- Node9 -->
<g id="node9" class="node">
<title>Node9</title>
<g id="a_node9"><a xlink:href="structlemons_1_1dsp_1_1detail_1_1is__rt__safe.html" target="_top" xlink:title=" ">
<polygon fill="none" stroke="black" points="380.5,-120.5 380.5,-161.5 561.5,-161.5 561.5,-120.5 380.5,-120.5"/>
<text text-anchor="start" x="388.5" y="-149.5" font-family="Helvetica,sans-Serif" font-size="10.00">lemons::dsp::detail</text>
<text text-anchor="start" x="388.5" y="-138.5" font-family="Helvetica,sans-Serif" font-size="10.00">::is_rt_safe&lt; T, detail</text>
<text text-anchor="middle" x="471" y="-127.5" font-family="Helvetica,sans-Serif" font-size="10.00">::copy_tag, detail::constructible_tag &gt;</text>
</a>
</g>
</g>
<!-- Node1&#45;&gt;Node9 -->
<g id="edge8" class="edge">
<title>Node1&#45;&gt;Node9</title>
<path fill="none" stroke="orange" stroke-dasharray="5,2" d="M237.24,-141C278.99,-141 334.19,-141 380.34,-141"/>
<polygon fill="orange" stroke="orange" points="237.19,-137.5 227.19,-141 237.19,-144.5 237.19,-137.5"/>
<text text-anchor="start" x="245" y="-155" font-family="Helvetica,sans-Serif" font-size="10.00"> &lt; T, detail::copy_tag,</text>
<text text-anchor="middle" x="303" y="-144" font-family="Helvetica,sans-Serif" font-size="10.00"> detail::constructible_tag &gt;</text>
</g>
<!-- Node11 -->
<g id="node11" class="node">
<title>Node11</title>
<g id="a_node11"><a xlink:href="structlemons_1_1dsp_1_1detail_1_1is__rt__safe.html" target="_top" xlink:title=" ">
<polygon fill="none" stroke="black" points="383.5,-60.5 383.5,-101.5 558.5,-101.5 558.5,-60.5 383.5,-60.5"/>
<text text-anchor="start" x="391.5" y="-89.5" font-family="Helvetica,sans-Serif" font-size="10.00">lemons::dsp::detail</text>
<text text-anchor="start" x="391.5" y="-78.5" font-family="Helvetica,sans-Serif" font-size="10.00">::is_rt_safe&lt; T, detail</text>
<text text-anchor="middle" x="471" y="-67.5" font-family="Helvetica,sans-Serif" font-size="10.00">::move_tag, detail::assignable_tag &gt;</text>
</a>
</g>
</g>
<!-- Node1&#45;&gt;Node11 -->
<g id="edge10" class="edge">
<title>Node1&#45;&gt;Node11</title>
<path fill="none" stroke="orange" stroke-dasharray="5,2" d="M235.96,-117.48C239,-116.59 242.02,-115.76 245,-115 290.08,-103.52 341.29,-95.41 383.46,-89.99"/>
<polygon fill="orange" stroke="orange" points="234.75,-114.19 226.23,-120.5 236.82,-120.88 234.75,-114.19"/>
<text text-anchor="start" x="249.5" y="-129" font-family="Helvetica,sans-Serif" font-size="10.00"> &lt; T, detail::move_tag,</text>
<text text-anchor="middle" x="303" y="-118" font-family="Helvetica,sans-Serif" font-size="10.00"> detail::assignable_tag &gt;</text>
</g>
<!-- Node13 -->
<g id="node13" class="node">
<title>Node13</title>
<g id="a_node13"><a xlink:href="structlemons_1_1dsp_1_1detail_1_1is__rt__safe.html" target="_top" xlink:title=" ">
<polygon fill="none" stroke="black" points="379,-0.5 379,-41.5 563,-41.5 563,-0.5 379,-0.5"/>
<text text-anchor="start" x="387" y="-29.5" font-family="Helvetica,sans-Serif" font-size="10.00">lemons::dsp::detail</text>
<text text-anchor="start" x="387" y="-18.5" font-family="Helvetica,sans-Serif" font-size="10.00">::is_rt_safe&lt; T, detail</text>
<text text-anchor="middle" x="471" y="-7.5" font-family="Helvetica,sans-Serif" font-size="10.00">::move_tag, detail::constructible_tag &gt;</text>
</a>
</g>
</g>
<!-- Node1&#45;&gt;Node13 -->
<g id="edge12" class="edge">
<title>Node1&#45;&gt;Node13</title>
<path fill="none" stroke="orange" stroke-dasharray="5,2" d="M194.39,-112.58C207.28,-97.08 225.12,-78.88 245,-68 285.87,-45.63 336.26,-33.89 378.98,-27.73"/>
<polygon fill="orange" stroke="orange" points="191.65,-110.4 188.12,-120.39 197.11,-114.79 191.65,-110.4"/>
<text text-anchor="start" x="245" y="-82" font-family="Helvetica,sans-Serif" font-size="10.00"> &lt; T, detail::move_tag,</text>
<text text-anchor="middle" x="303" y="-71" font-family="Helvetica,sans-Serif" font-size="10.00"> detail::constructible_tag &gt;</text>
</g>
<!-- Node2 -->
<g id="node2" class="node">
<title>Node2</title>
<g id="a_node2"><a xlink:title=" ">
<polygon fill="none" stroke="black" points="0,-131.5 0,-150.5 81,-150.5 81,-131.5 0,-131.5"/>
<text text-anchor="middle" x="40.5" y="-138.5" font-family="Helvetica,sans-Serif" font-size="10.00">std::false_type</text>
</a>
</g>
</g>
<!-- Node2&#45;&gt;Node1 -->
<g id="edge1" class="edge">
<title>Node2&#45;&gt;Node1</title>
<path fill="none" stroke="midnightblue" d="M91.45,-141C100.04,-141 108.99,-141 117.67,-141"/>
<polygon fill="midnightblue" stroke="midnightblue" points="91.21,-137.5 81.21,-141 91.21,-144.5 91.21,-137.5"/>
</g>
<!-- Node4 -->
<g id="node4" class="node">
<title>Node4</title>
<g id="a_node4"><a xlink:href="structlemons_1_1dsp_1_1detail_1_1is__rt__safe_3_01std_1_1set_3_01_t_01_4_00_01move__tag_00_01_tag_01_4.html" target="_top" xlink:title=" ">
<polygon fill="none" stroke="black" points="609.5,-349.5 609.5,-390.5 729.5,-390.5 729.5,-349.5 609.5,-349.5"/>
<text text-anchor="start" x="617.5" y="-378.5" font-family="Helvetica,sans-Serif" font-size="10.00">lemons::dsp::detail</text>
<text text-anchor="start" x="617.5" y="-367.5" font-family="Helvetica,sans-Serif" font-size="10.00">::is_rt_safe&lt; std::set</text>
<text text-anchor="middle" x="669.5" y="-356.5" font-family="Helvetica,sans-Serif" font-size="10.00">&lt; T &gt;, move_tag, Tag &gt;</text>
</a>
</g>
</g>
<!-- Node3&#45;&gt;Node4 -->
<g id="edge3" class="edge">
<title>Node3&#45;&gt;Node4</title>
<path fill="none" stroke="midnightblue" d="M533.51,-316.42C560.22,-327.02 591.15,-339.3 616.67,-349.42"/>
<polygon fill="midnightblue" stroke="midnightblue" points="534.47,-313.03 523.89,-312.6 531.89,-319.54 534.47,-313.03"/>
</g>
<!-- Node5 -->
<g id="node5" class="node">
<title>Node5</title>
<g id="a_node5"><a xlink:href="structlemons_1_1dsp_1_1detail_1_1is__rt__safe_3_01std_1_1unordered__set_3_01_t_01_4_00_01move__tag_00_01_tag_01_4.html" target="_top" xlink:title=" ">
<polygon fill="none" stroke="black" points="600,-289.5 600,-330.5 739,-330.5 739,-289.5 600,-289.5"/>
<text text-anchor="start" x="608" y="-318.5" font-family="Helvetica,sans-Serif" font-size="10.00">lemons::dsp::detail</text>
<text text-anchor="start" x="608" y="-307.5" font-family="Helvetica,sans-Serif" font-size="10.00">::is_rt_safe&lt; std::unordered</text>
<text text-anchor="middle" x="669.5" y="-296.5" font-family="Helvetica,sans-Serif" font-size="10.00">_set&lt; T &gt;, move_tag, Tag &gt;</text>
</a>
</g>
</g>
<!-- Node3&#45;&gt;Node5 -->
<g id="edge4" class="edge">
<title>Node3&#45;&gt;Node5</title>
<path fill="none" stroke="midnightblue" d="M535.83,-297.85C556.26,-299.72 578.96,-301.8 599.72,-303.7"/>
<polygon fill="midnightblue" stroke="midnightblue" points="535.97,-294.35 525.69,-296.92 535.33,-301.32 535.97,-294.35"/>
</g>
<!-- Node6 -->
<g id="node6" class="node">
<title>Node6</title>
<g id="a_node6"><a xlink:href="structlemons_1_1dsp_1_1detail_1_1is__rt__safe_3_01std_1_1vector_3_01_t_01_4_00_01move__tag_00_01_tag_01_4.html" target="_top" xlink:title=" ">
<polygon fill="none" stroke="black" points="609,-229.5 609,-270.5 730,-270.5 730,-229.5 609,-229.5"/>
<text text-anchor="start" x="617" y="-258.5" font-family="Helvetica,sans-Serif" font-size="10.00">lemons::dsp::detail</text>
<text text-anchor="start" x="617" y="-247.5" font-family="Helvetica,sans-Serif" font-size="10.00">::is_rt_safe&lt; std::vector</text>
<text text-anchor="middle" x="669.5" y="-236.5" font-family="Helvetica,sans-Serif" font-size="10.00">&lt; T &gt;, move_tag, Tag &gt;</text>
</a>
</g>
</g>
<!-- Node3&#45;&gt;Node6 -->
<g id="edge5" class="edge">
<title>Node3&#45;&gt;Node6</title>
<path fill="none" stroke="midnightblue" d="M535.59,-278.41C559.17,-273.37 585.8,-267.68 608.99,-262.72"/>
<polygon fill="midnightblue" stroke="midnightblue" points="534.74,-275.01 525.69,-280.52 536.21,-281.86 534.74,-275.01"/>
</g>
<!-- Node8 -->
<g id="node8" class="node">
<title>Node8</title>
<g id="a_node8"><a xlink:href="structlemons_1_1dsp_1_1is__realtime__copy__assignable.html" target="_top" xlink:title=" ">
<polygon fill="none" stroke="black" points="608,-180 608,-210 731,-210 731,-180 608,-180"/>
<text text-anchor="start" x="616" y="-198" font-family="Helvetica,sans-Serif" font-size="10.00">lemons::dsp::is_realtime</text>
<text text-anchor="middle" x="669.5" y="-187" font-family="Helvetica,sans-Serif" font-size="10.00">_copy_assignable&lt; T &gt;</text>
</a>
</g>
</g>
<!-- Node7&#45;&gt;Node8 -->
<g id="edge7" class="edge">
<title>Node7&#45;&gt;Node8</title>
<path fill="none" stroke="midnightblue" d="M567.12,-198.1C581,-197.67 594.96,-197.25 607.89,-196.85"/>
<polygon fill="midnightblue" stroke="midnightblue" points="566.93,-194.6 557.04,-198.4 567.15,-201.6 566.93,-194.6"/>
</g>
<!-- Node10 -->
<g id="node10" class="node">
<title>Node10</title>
<g id="a_node10"><a xlink:href="structlemons_1_1dsp_1_1is__realtime__copy__constructable.html" target="_top" xlink:title=" ">
<polygon fill="none" stroke="black" points="604,-126 604,-156 735,-156 735,-126 604,-126"/>
<text text-anchor="start" x="612" y="-144" font-family="Helvetica,sans-Serif" font-size="10.00">lemons::dsp::is_realtime</text>
<text text-anchor="middle" x="669.5" y="-133" font-family="Helvetica,sans-Serif" font-size="10.00">_copy_constructable&lt; T &gt;</text>
</a>
</g>
</g>
<!-- Node9&#45;&gt;Node10 -->
<g id="edge9" class="edge">
<title>Node9&#45;&gt;Node10</title>
<path fill="none" stroke="midnightblue" d="M571.68,-141C582.65,-141 593.59,-141 603.96,-141"/>
<polygon fill="midnightblue" stroke="midnightblue" points="571.62,-137.5 561.62,-141 571.62,-144.5 571.62,-137.5"/>
</g>
<!-- Node12 -->
<g id="node12" class="node">
<title>Node12</title>
<g id="a_node12"><a xlink:href="structlemons_1_1dsp_1_1is__realtime__move__assignable.html" target="_top" xlink:title=" ">
<polygon fill="none" stroke="black" points="608,-66 608,-96 731,-96 731,-66 608,-66"/>
<text text-anchor="start" x="616" y="-84" font-family="Helvetica,sans-Serif" font-size="10.00">lemons::dsp::is_realtime</text>
<text text-anchor="middle" x="669.5" y="-73" font-family="Helvetica,sans-Serif" font-size="10.00">_move_assignable&lt; T &gt;</text>
</a>
</g>
</g>
<!-- Node11&#45;&gt;Node12 -->
<g id="edge11" class="edge">
<title>Node11&#45;&gt;Node12</title>
<path fill="none" stroke="midnightblue" d="M568.89,-81C582.16,-81 595.46,-81 607.83,-81"/>
<polygon fill="midnightblue" stroke="midnightblue" points="568.76,-77.5 558.76,-81 568.76,-84.5 568.76,-77.5"/>
</g>
<!-- Node14 -->
<g id="node14" class="node">
<title>Node14</title>
<g id="a_node14"><a xlink:href="structlemons_1_1dsp_1_1is__realtime__move__constructable.html" target="_top" xlink:title=" ">
<polygon fill="none" stroke="black" points="602.5,-6 602.5,-36 736.5,-36 736.5,-6 602.5,-6"/>
<text text-anchor="start" x="610.5" y="-24" font-family="Helvetica,sans-Serif" font-size="10.00">lemons::dsp::is_realtime</text>
<text text-anchor="middle" x="669.5" y="-13" font-family="Helvetica,sans-Serif" font-size="10.00">_move_constructable&lt; T &gt;</text>
</a>
</g>
</g>
<!-- Node13&#45;&gt;Node14 -->
<g id="edge13" class="edge">
<title>Node13&#45;&gt;Node14</title>
<path fill="none" stroke="midnightblue" d="M573.33,-21C583.18,-21 593,-21 602.37,-21"/>
<polygon fill="midnightblue" stroke="midnightblue" points="573.06,-17.5 563.06,-21 573.06,-24.5 573.06,-17.5"/>
</g>
</g>
</svg>
        <g id="navigator" transform="translate(0 0)" fill="#404254">
                <rect fill="#f2f5e9" fill-opacity="0.5" stroke="#606060" stroke-width=".5" x="0" y="0" width="60" height="60"/>
                <use id="zoomplus" xlink:href="#zoomPlus" x="17" y="9" onmousedown="handleZoom(evt,'in')"/>
                <use id="zoomminus" xlink:href="#zoomMin" x="42" y="9" onmousedown="handleZoom(evt,'out')"/>
                <use id="reset" xlink:href="#resetDef" x="30" y="36" onmousedown="handleReset()"/>
                <g id="arrowUp" xlink:href="#dirArrow" transform="translate(30 24)" onmousedown="handlePan(0,-1)">
                  <use xlink:href="#rim" fill="#404040">
                        <set attributeName="fill" to="#808080" begin="arrowUp.mouseover" end="arrowUp.mouseout"/>
                  </use>
                  <path fill="none" stroke="white" stroke-width="1.5" d="M0,-3.0v7 M-2.5,-0.5L0,-3.0L2.5,-0.5"/>
                </g>
                <g id="arrowRight" xlink:href="#dirArrow" transform="rotate(90) translate(36 -43)" onmousedown="handlePan(1,0)">
                  <use xlink:href="#rim" fill="#404040">
                        <set attributeName="fill" to="#808080" begin="arrowRight.mouseover" end="arrowRight.mouseout"/>
                  </use>
                  <path fill="none" stroke="white" stroke-width="1.5" d="M0,-3.0v7 M-2.5,-0.5L0,-3.0L2.5,-0.5"/>
                </g>
                <g id="arrowDown" xlink:href="#dirArrow" transform="rotate(180) translate(-30 -48)" onmousedown="handlePan(0,1)">
                  <use xlink:href="#rim" fill="#404040">
                        <set attributeName="fill" to="#808080" begin="arrowDown.mouseover" end="arrowDown.mouseout"/>
                  </use>
                  <path fill="none" stroke="white" stroke-width="1.5" d="M0,-3.0v7 M-2.5,-0.5L0,-3.0L2.5,-0.5"/>
                </g>
                <g id="arrowLeft" xlink:href="#dirArrow" transform="rotate(270) translate(-36 17)" onmousedown="handlePan(-1,0)">
                  <use xlink:href="#rim" fill="#404040">
                        <set attributeName="fill" to="#808080" begin="arrowLeft.mouseover" end="arrowLeft.mouseout"/>
                  </use>
                  <path fill="none" stroke="white" stroke-width="1.5" d="M0,-3.0v7 M-2.5,-0.5L0,-3.0L2.5,-0.5"/>
                </g>
        </g>
        <svg viewBox="0 0 15 15" width="100%" height="30px" preserveAspectRatio="xMaxYMin meet">
         <g id="arrow_out" transform="scale(0.3 0.3)">
          <a xlink:href="structlemons_1_1dsp_1_1detail_1_1is__rt__safe__inherit__graph_org.svg" target="_base">
           <rect id="button" ry="5" rx="5" y="6" x="6" height="38" width="38"
                fill="#f2f5e9" fill-opacity="0.5" stroke="#606060" stroke-width="1.0"/>
           <path id="arrow"
             d="M 11.500037,31.436501 C 11.940474,20.09759 22.043105,11.32322 32.158766,21.979434 L 37.068811,17.246167 C 37.068811,17.246167 37.088388,32 37.088388,32 L 22.160133,31.978069 C 22.160133,31.978069 26.997745,27.140456 26.997745,27.140456 C 18.528582,18.264221 13.291696,25.230495 11.500037,31.436501 z"
             style="fill:#404040;"/>
          </a>
         </g>
        </svg>
</svg>
