<?xml version="1.0" encoding="UTF-8" standalone="no"?>
<!DOCTYPE svg PUBLIC "-//W3C//DTD SVG 1.1//EN"
 "http://www.w3.org/Graphics/SVG/1.1/DTD/svg11.dtd">
<!-- Generated by graphviz version 2.43.0 (0)
 -->
<!-- Title: lemons::TreeReflector Pages: 1 -->
<svg width="246pt" height="84pt"
 viewBox="0.00 0.00 245.50 84.00" xmlns="http://www.w3.org/2000/svg" xmlns:xlink="http://www.w3.org/1999/xlink">
<g id="graph0" class="graph" transform="scale(1 1) rotate(0) translate(4 80)">
<title>lemons::TreeReflector</title>
<!-- Node1 -->
<g id="node1" class="node">
<title>Node1</title>
<g id="a_node1"><a xlink:title="Utility class that provides a convenient API for assigning data members or lambdas to ValueTree prope...">
<polygon fill="#bfbfbf" stroke="black" points="59,-56.5 59,-75.5 181,-75.5 181,-56.5 59,-56.5"/>
<text text-anchor="middle" x="120" y="-63.5" font-family="Helvetica,sans-Serif" font-size="10.00">lemons::TreeReflector</text>
</a>
</g>
</g>
<!-- Node2 -->
<g id="node2" class="node">
<title>Node2</title>
<g id="a_node2"><a xlink:href="structlemons_1_1TreeLoader.html" target="_top" xlink:title="Subclass of TreeReflector used for loading state.">
<polygon fill="none" stroke="black" points="0,-0.5 0,-19.5 112,-19.5 112,-0.5 0,-0.5"/>
<text text-anchor="middle" x="56" y="-7.5" font-family="Helvetica,sans-Serif" font-size="10.00">lemons::TreeLoader</text>
</a>
</g>
</g>
<!-- Node1&#45;&gt;Node2 -->
<g id="edge1" class="edge">
<title>Node1&#45;&gt;Node2</title>
<path fill="none" stroke="midnightblue" d="M102.01,-49.82C90.54,-40.15 76.09,-27.95 66.47,-19.83"/>
<polygon fill="midnightblue" stroke="midnightblue" points="99.82,-52.55 109.72,-56.32 104.33,-47.2 99.82,-52.55"/>
</g>
<!-- Node3 -->
<g id="node3" class="node">
<title>Node3</title>
<g id="a_node3"><a xlink:href="structlemons_1_1TreeSaver.html" target="_top" xlink:title="Subclass of TreeReflector used for saving state.">
<polygon fill="none" stroke="black" points="130.5,-0.5 130.5,-19.5 237.5,-19.5 237.5,-0.5 130.5,-0.5"/>
<text text-anchor="middle" x="184" y="-7.5" font-family="Helvetica,sans-Serif" font-size="10.00">lemons::TreeSaver</text>
</a>
</g>
</g>
<!-- Node1&#45;&gt;Node3 -->
<g id="edge2" class="edge">
<title>Node1&#45;&gt;Node3</title>
<path fill="none" stroke="midnightblue" d="M137.99,-49.82C149.46,-40.15 163.91,-27.95 173.53,-19.83"/>
<polygon fill="midnightblue" stroke="midnightblue" points="135.67,-47.2 130.28,-56.32 140.18,-52.55 135.67,-47.2"/>
</g>
</g>
</svg>
