<?xml version="1.0" encoding="UTF-8" standalone="no"?>
<!DOCTYPE svg PUBLIC "-//W3C//DTD SVG 1.1//EN"
 "http://www.w3.org/Graphics/SVG/1.1/DTD/svg11.dtd">
<!-- Generated by graphviz version 2.43.0 (0)
 -->
<!-- Title: lemons::plugin::PercentParameter Pages: 1 -->
<svg width="285pt" height="220pt"
 viewBox="0.00 0.00 284.50 220.00" xmlns="http://www.w3.org/2000/svg" xmlns:xlink="http://www.w3.org/1999/xlink">
<g id="graph0" class="graph" transform="scale(1 1) rotate(0) translate(4 216)">
<title>lemons::plugin::PercentParameter</title>
<!-- Node1 -->
<g id="node1" class="node">
<title>Node1</title>
<g id="a_node1"><a xlink:title="A parameter that represents an integer value in the range 0&#45;100.">
<polygon fill="#bfbfbf" stroke="black" points="0,-0.5 0,-19.5 182,-19.5 182,-0.5 0,-0.5"/>
<text text-anchor="middle" x="91" y="-7.5" font-family="Helvetica,sans-Serif" font-size="10.00">lemons::plugin::PercentParameter</text>
</a>
</g>
</g>
<!-- Node2 -->
<g id="node2" class="node">
<title>Node2</title>
<g id="a_node2"><a xlink:href="classlemons_1_1plugin_1_1_typed_parameter.html" target="_top" xlink:title=" ">
<polygon fill="none" stroke="black" points="51,-57.5 51,-76.5 131,-76.5 131,-57.5 51,-57.5"/>
<text text-anchor="middle" x="91" y="-64.5" font-family="Helvetica,sans-Serif" font-size="10.00">IntParameter</text>
</a>
</g>
</g>
<!-- Node2&#45;&gt;Node1 -->
<g id="edge1" class="edge">
<title>Node2&#45;&gt;Node1</title>
<path fill="none" stroke="midnightblue" d="M91,-47.12C91,-37.82 91,-27.06 91,-19.71"/>
<polygon fill="midnightblue" stroke="midnightblue" points="87.5,-47.41 91,-57.41 94.5,-47.41 87.5,-47.41"/>
</g>
<!-- Node3 -->
<g id="node3" class="node">
<title>Node3</title>
<g id="a_node3"><a xlink:href="classlemons_1_1plugin_1_1_parameter.html" target="_top" xlink:title="A plugin parameter class.">
<polygon fill="none" stroke="black" points="14.5,-192.5 14.5,-211.5 159.5,-211.5 159.5,-192.5 14.5,-192.5"/>
<text text-anchor="middle" x="87" y="-199.5" font-family="Helvetica,sans-Serif" font-size="10.00">lemons::plugin::Parameter</text>
</a>
</g>
</g>
<!-- Node3&#45;&gt;Node2 -->
<g id="edge2" class="edge">
<title>Node3&#45;&gt;Node2</title>
<path fill="none" stroke="midnightblue" d="M87.57,-182.13C88.45,-152.88 90.1,-97.76 90.74,-76.59"/>
<polygon fill="midnightblue" stroke="midnightblue" points="84.06,-182.17 87.26,-192.27 91.06,-182.38 84.06,-182.17"/>
</g>
<!-- Node4 -->
<g id="node4" class="node">
<title>Node4</title>
<g id="a_node4"><a xlink:href="classlemons_1_1plugin_1_1_typed_parameter.html" target="_top" xlink:title="A parameter that can be stored as a type other than a float, but still inherits from my Parameter bas...">
<polygon fill="none" stroke="black" points="103.5,-124.5 103.5,-154.5 276.5,-154.5 276.5,-124.5 103.5,-124.5"/>
<text text-anchor="start" x="111.5" y="-142.5" font-family="Helvetica,sans-Serif" font-size="10.00">lemons::plugin::TypedParameter</text>
<text text-anchor="middle" x="190" y="-131.5" font-family="Helvetica,sans-Serif" font-size="10.00">&lt; ValueType &gt;</text>
</a>
</g>
</g>
<!-- Node3&#45;&gt;Node4 -->
<g id="edge4" class="edge">
<title>Node3&#45;&gt;Node4</title>
<path fill="none" stroke="midnightblue" d="M110.82,-187.01C127.43,-177.25 149.5,-164.29 166.12,-154.53"/>
<polygon fill="midnightblue" stroke="midnightblue" points="108.61,-184.25 101.76,-192.33 112.15,-190.28 108.61,-184.25"/>
</g>
<!-- Node4&#45;&gt;Node2 -->
<g id="edge3" class="edge">
<title>Node4&#45;&gt;Node2</title>
<path fill="none" stroke="orange" stroke-dasharray="5,2" d="M161.78,-118.4C142.43,-104.62 117.72,-87.03 103.2,-76.69"/>
<polygon fill="orange" stroke="orange" points="159.79,-121.28 169.97,-124.23 163.85,-115.58 159.79,-121.28"/>
<text text-anchor="middle" x="162.5" y="-98" font-family="Helvetica,sans-Serif" font-size="10.00"> &lt; int &gt;</text>
</g>
</g>
</svg>
