<?xml version="1.0" encoding="UTF-8" standalone="no"?>
<!DOCTYPE svg PUBLIC "-//W3C//DTD SVG 1.1//EN"
 "http://www.w3.org/Graphics/SVG/1.1/DTD/svg11.dtd">
<!-- Generated by graphviz version 2.43.0 (0)
 -->
<!-- Title: lemons::dsp::osc::Oscillator&lt; SampleType &gt; Pages: 1 -->
<svg width="631pt" height="297pt"
 viewBox="0.00 0.00 631.00 297.00" xmlns="http://www.w3.org/2000/svg" xmlns:xlink="http://www.w3.org/1999/xlink">
<g id="graph0" class="graph" transform="scale(1 1) rotate(0) translate(4 293)">
<title>lemons::dsp::osc::Oscillator&lt; SampleType &gt;</title>
<!-- Node1 -->
<g id="node1" class="node">
<title>Node1</title>
<g id="a_node1"><a xlink:title=" ">
<polygon fill="#bfbfbf" stroke="black" points="0,-122.5 0,-152.5 151,-152.5 151,-122.5 0,-122.5"/>
<text text-anchor="start" x="8" y="-140.5" font-family="Helvetica,sans-Serif" font-size="10.00">lemons::dsp::osc::Oscillator</text>
<text text-anchor="middle" x="75.5" y="-129.5" font-family="Helvetica,sans-Serif" font-size="10.00">&lt; SampleType &gt;</text>
</a>
</g>
</g>
<!-- Node2 -->
<g id="node2" class="node">
<title>Node2</title>
<g id="a_node2"><a xlink:href="structlemons_1_1dsp_1_1osc_1_1Saw.html" target="_top" xlink:title=" ">
<polygon fill="none" stroke="black" points="248.5,-205.5 248.5,-235.5 373.5,-235.5 373.5,-205.5 248.5,-205.5"/>
<text text-anchor="start" x="256.5" y="-223.5" font-family="Helvetica,sans-Serif" font-size="10.00">lemons::dsp::osc::Saw</text>
<text text-anchor="middle" x="311" y="-212.5" font-family="Helvetica,sans-Serif" font-size="10.00">&lt; SampleType &gt;</text>
</a>
</g>
</g>
<!-- Node1&#45;&gt;Node2 -->
<g id="edge1" class="edge">
<title>Node1&#45;&gt;Node2</title>
<path fill="none" stroke="midnightblue" d="M128.26,-155.9C170.17,-170.8 228.47,-191.52 267.64,-205.44"/>
<polygon fill="midnightblue" stroke="midnightblue" points="129.38,-152.58 118.79,-152.53 127.04,-159.18 129.38,-152.58"/>
</g>
<!-- Node4 -->
<g id="node4" class="node">
<title>Node4</title>
<g id="a_node4"><a xlink:href="structlemons_1_1dsp_1_1osc_1_1Sine.html" target="_top" xlink:title=" ">
<polygon fill="none" stroke="black" points="248.5,-258.5 248.5,-288.5 373.5,-288.5 373.5,-258.5 248.5,-258.5"/>
<text text-anchor="start" x="256.5" y="-276.5" font-family="Helvetica,sans-Serif" font-size="10.00">lemons::dsp::osc::Sine</text>
<text text-anchor="middle" x="311" y="-265.5" font-family="Helvetica,sans-Serif" font-size="10.00">&lt; SampleType &gt;</text>
</a>
</g>
</g>
<!-- Node1&#45;&gt;Node4 -->
<g id="edge3" class="edge">
<title>Node1&#45;&gt;Node4</title>
<path fill="none" stroke="midnightblue" d="M103.6,-158.97C134.19,-182.47 186.08,-220.17 235,-245.5 244.26,-250.29 254.53,-254.68 264.42,-258.49"/>
<polygon fill="midnightblue" stroke="midnightblue" points="105.61,-156.1 95.56,-152.74 101.32,-161.63 105.61,-156.1"/>
</g>
<!-- Node6 -->
<g id="node6" class="node">
<title>Node6</title>
<g id="a_node6"><a xlink:href="structlemons_1_1dsp_1_1osc_1_1Square.html" target="_top" xlink:title=" ">
<polygon fill="none" stroke="black" points="242,-49.5 242,-79.5 380,-79.5 380,-49.5 242,-49.5"/>
<text text-anchor="start" x="250" y="-67.5" font-family="Helvetica,sans-Serif" font-size="10.00">lemons::dsp::osc::Square</text>
<text text-anchor="middle" x="311" y="-56.5" font-family="Helvetica,sans-Serif" font-size="10.00">&lt; SampleType &gt;</text>
</a>
</g>
</g>
<!-- Node1&#45;&gt;Node6 -->
<g id="edge5" class="edge">
<title>Node1&#45;&gt;Node6</title>
<path fill="none" stroke="midnightblue" d="M134.31,-119.43C173.59,-107.15 224.93,-91.09 261.96,-79.52"/>
<polygon fill="midnightblue" stroke="midnightblue" points="133.1,-116.14 124.6,-122.46 135.19,-122.82 133.1,-116.14"/>
</g>
<!-- Node8 -->
<g id="node8" class="node">
<title>Node8</title>
<g id="a_node8"><a xlink:href="classlemons_1_1dsp_1_1osc_1_1SuperSaw.html" target="_top" xlink:title=" ">
<polygon fill="none" stroke="black" points="235,-0.5 235,-30.5 387,-30.5 387,-0.5 235,-0.5"/>
<text text-anchor="start" x="243" y="-18.5" font-family="Helvetica,sans-Serif" font-size="10.00">lemons::dsp::osc::SuperSaw</text>
<text text-anchor="middle" x="311" y="-7.5" font-family="Helvetica,sans-Serif" font-size="10.00">&lt; SampleType &gt;</text>
</a>
</g>
</g>
<!-- Node1&#45;&gt;Node8 -->
<g id="edge7" class="edge">
<title>Node1&#45;&gt;Node8</title>
<path fill="none" stroke="midnightblue" d="M105.66,-116.44C136.57,-94.85 187.4,-61.43 235,-39.5 242.08,-36.24 249.72,-33.24 257.33,-30.55"/>
<polygon fill="midnightblue" stroke="midnightblue" points="103.27,-113.84 97.11,-122.46 107.3,-119.56 103.27,-113.84"/>
</g>
<!-- Node10 -->
<g id="node10" class="node">
<title>Node10</title>
<g id="a_node10"><a xlink:href="structlemons_1_1dsp_1_1osc_1_1Triangle.html" target="_top" xlink:title=" ">
<polygon fill="none" stroke="black" points="239.5,-98.5 239.5,-128.5 382.5,-128.5 382.5,-98.5 239.5,-98.5"/>
<text text-anchor="start" x="247.5" y="-116.5" font-family="Helvetica,sans-Serif" font-size="10.00">lemons::dsp::osc::Triangle</text>
<text text-anchor="middle" x="311" y="-105.5" font-family="Helvetica,sans-Serif" font-size="10.00">&lt; SampleType &gt;</text>
</a>
</g>
</g>
<!-- Node1&#45;&gt;Node10 -->
<g id="edge9" class="edge">
<title>Node1&#45;&gt;Node10</title>
<path fill="none" stroke="midnightblue" d="M161.12,-128.8C186.79,-126.16 214.71,-123.29 239.36,-120.76"/>
<polygon fill="midnightblue" stroke="midnightblue" points="160.61,-125.34 151.02,-129.84 161.33,-132.3 160.61,-125.34"/>
</g>
<!-- Node12 -->
<g id="node12" class="node">
<title>Node12</title>
<g id="a_node12"><a xlink:href="structlemons_1_1dsp_1_1osc_1_1Oscillator.html" target="_top" xlink:title=" ">
<polygon fill="none" stroke="black" points="235.5,-147.5 235.5,-177.5 386.5,-177.5 386.5,-147.5 235.5,-147.5"/>
<text text-anchor="start" x="243.5" y="-165.5" font-family="Helvetica,sans-Serif" font-size="10.00">lemons::dsp::osc::Oscillator</text>
<text text-anchor="middle" x="311" y="-154.5" font-family="Helvetica,sans-Serif" font-size="10.00">&lt; float &gt;</text>
</a>
</g>
</g>
<!-- Node1&#45;&gt;Node12 -->
<g id="edge11" class="edge">
<title>Node1&#45;&gt;Node12</title>
<path fill="none" stroke="orange" stroke-dasharray="5,2" d="M161.28,-146.58C185.54,-149.17 211.79,-151.98 235.38,-154.51"/>
<polygon fill="orange" stroke="orange" points="161.34,-143.06 151.02,-145.48 160.59,-150.02 161.34,-143.06"/>
<text text-anchor="middle" x="193" y="-154.5" font-family="Helvetica,sans-Serif" font-size="10.00"> &lt; float &gt;</text>
</g>
<!-- Node3 -->
<g id="node3" class="node">
<title>Node3</title>
<g id="a_node3"><a xlink:href="structlemons_1_1dsp_1_1osc_1_1Saw.html" target="_top" xlink:title=" ">
<polygon fill="none" stroke="black" points="484.5,-184.5 484.5,-214.5 609.5,-214.5 609.5,-184.5 484.5,-184.5"/>
<text text-anchor="start" x="492.5" y="-202.5" font-family="Helvetica,sans-Serif" font-size="10.00">lemons::dsp::osc::Saw</text>
<text text-anchor="middle" x="547" y="-191.5" font-family="Helvetica,sans-Serif" font-size="10.00">&lt; float &gt;</text>
</a>
</g>
</g>
<!-- Node2&#45;&gt;Node3 -->
<g id="edge2" class="edge">
<title>Node2&#45;&gt;Node3</title>
<path fill="none" stroke="orange" stroke-dasharray="5,2" d="M384,-214.04C416.08,-211.16 453.49,-207.8 484.27,-205.04"/>
<polygon fill="orange" stroke="orange" points="383.43,-210.58 373.79,-214.96 384.06,-217.55 383.43,-210.58"/>
<text text-anchor="middle" x="429" y="-214.5" font-family="Helvetica,sans-Serif" font-size="10.00"> &lt; float &gt;</text>
</g>
<!-- Node5 -->
<g id="node5" class="node">
<title>Node5</title>
<g id="a_node5"><a xlink:href="structlemons_1_1dsp_1_1osc_1_1Sine.html" target="_top" xlink:title=" ">
<polygon fill="none" stroke="black" points="484.5,-248.5 484.5,-278.5 609.5,-278.5 609.5,-248.5 484.5,-248.5"/>
<text text-anchor="start" x="492.5" y="-266.5" font-family="Helvetica,sans-Serif" font-size="10.00">lemons::dsp::osc::Sine</text>
<text text-anchor="middle" x="547" y="-255.5" font-family="Helvetica,sans-Serif" font-size="10.00">&lt; float &gt;</text>
</a>
</g>
</g>
<!-- Node4&#45;&gt;Node5 -->
<g id="edge4" class="edge">
<title>Node4&#45;&gt;Node5</title>
<path fill="none" stroke="orange" stroke-dasharray="5,2" d="M384,-270.42C416.08,-269.05 453.49,-267.45 484.27,-266.14"/>
<polygon fill="orange" stroke="orange" points="383.63,-266.94 373.79,-270.86 383.93,-273.93 383.63,-266.94"/>
<text text-anchor="middle" x="429" y="-271.5" font-family="Helvetica,sans-Serif" font-size="10.00"> &lt; float &gt;</text>
</g>
<!-- Node7 -->
<g id="node7" class="node">
<title>Node7</title>
<g id="a_node7"><a xlink:href="structlemons_1_1dsp_1_1osc_1_1Square.html" target="_top" xlink:title=" ">
<polygon fill="none" stroke="black" points="478,-78.5 478,-108.5 616,-108.5 616,-78.5 478,-78.5"/>
<text text-anchor="start" x="486" y="-96.5" font-family="Helvetica,sans-Serif" font-size="10.00">lemons::dsp::osc::Square</text>
<text text-anchor="middle" x="547" y="-85.5" font-family="Helvetica,sans-Serif" font-size="10.00">&lt; float &gt;</text>
</a>
</g>
</g>
<!-- Node6&#45;&gt;Node7 -->
<g id="edge6" class="edge">
<title>Node6&#45;&gt;Node7</title>
<path fill="none" stroke="orange" stroke-dasharray="5,2" d="M390.45,-70.63C410.85,-72.53 432.78,-74.83 453,-77.5 461.04,-78.56 469.45,-79.81 477.78,-81.13"/>
<polygon fill="orange" stroke="orange" points="390.53,-67.13 380.25,-69.71 389.89,-74.1 390.53,-67.13"/>
<text text-anchor="middle" x="429" y="-80.5" font-family="Helvetica,sans-Serif" font-size="10.00"> &lt; float &gt;</text>
</g>
<!-- Node9 -->
<g id="node9" class="node">
<title>Node9</title>
<g id="a_node9"><a xlink:href="classlemons_1_1dsp_1_1osc_1_1SuperSaw.html" target="_top" xlink:title=" ">
<polygon fill="none" stroke="black" points="471,-18.5 471,-48.5 623,-48.5 623,-18.5 471,-18.5"/>
<text text-anchor="start" x="479" y="-36.5" font-family="Helvetica,sans-Serif" font-size="10.00">lemons::dsp::osc::SuperSaw</text>
<text text-anchor="middle" x="547" y="-25.5" font-family="Helvetica,sans-Serif" font-size="10.00">&lt; float &gt;</text>
</a>
</g>
</g>
<!-- Node8&#45;&gt;Node9 -->
<g id="edge8" class="edge">
<title>Node8&#45;&gt;Node9</title>
<path fill="none" stroke="orange" stroke-dasharray="5,2" d="M397.23,-15.41C415.65,-15.92 435,-16.86 453,-18.5 458.86,-19.03 464.92,-19.71 470.99,-20.49"/>
<polygon fill="orange" stroke="orange" points="397.19,-11.91 387.11,-15.17 397.03,-18.91 397.19,-11.91"/>
<text text-anchor="middle" x="429" y="-21.5" font-family="Helvetica,sans-Serif" font-size="10.00"> &lt; float &gt;</text>
</g>
<!-- Node11 -->
<g id="node11" class="node">
<title>Node11</title>
<g id="a_node11"><a xlink:href="structlemons_1_1dsp_1_1osc_1_1Triangle.html" target="_top" xlink:title=" ">
<polygon fill="none" stroke="black" points="475.5,-132.5 475.5,-162.5 618.5,-162.5 618.5,-132.5 475.5,-132.5"/>
<text text-anchor="start" x="483.5" y="-150.5" font-family="Helvetica,sans-Serif" font-size="10.00">lemons::dsp::osc::Triangle</text>
<text text-anchor="middle" x="547" y="-139.5" font-family="Helvetica,sans-Serif" font-size="10.00">&lt; float &gt;</text>
</a>
</g>
</g>
<!-- Node10&#45;&gt;Node11 -->
<g id="edge10" class="edge">
<title>Node10&#45;&gt;Node11</title>
<path fill="none" stroke="orange" stroke-dasharray="5,2" d="M392.66,-125.22C419.5,-129.12 449.18,-133.43 475.22,-137.22"/>
<polygon fill="orange" stroke="orange" points="392.92,-121.72 382.53,-123.75 391.92,-128.65 392.92,-121.72"/>
<text text-anchor="middle" x="429" y="-136.5" font-family="Helvetica,sans-Serif" font-size="10.00"> &lt; float &gt;</text>
</g>
<!-- Node12&#45;&gt;Node3 -->
<g id="edge12" class="edge">
<title>Node12&#45;&gt;Node3</title>
<path fill="none" stroke="midnightblue" d="M396.77,-175.9C425.67,-180.47 457.41,-185.49 484.16,-189.72"/>
<polygon fill="midnightblue" stroke="midnightblue" points="397.11,-172.41 386.68,-174.31 396.01,-179.33 397.11,-172.41"/>
</g>
<!-- Node12&#45;&gt;Node5 -->
<g id="edge13" class="edge">
<title>Node12&#45;&gt;Node5</title>
<path fill="none" stroke="midnightblue" d="M355.98,-181.48C400.89,-200.87 469.7,-230.57 511.03,-248.41"/>
<polygon fill="midnightblue" stroke="midnightblue" points="357.35,-178.26 346.78,-177.51 354.57,-184.69 357.35,-178.26"/>
</g>
<!-- Node12&#45;&gt;Node7 -->
<g id="edge14" class="edge">
<title>Node12&#45;&gt;Node7</title>
<path fill="none" stroke="midnightblue" d="M376.09,-144.7C400.24,-137.89 427.92,-129.97 453,-122.5 467.75,-118.11 483.77,-113.17 498.28,-108.64"/>
<polygon fill="midnightblue" stroke="midnightblue" points="375.01,-141.36 366.33,-147.44 376.9,-148.1 375.01,-141.36"/>
</g>
<!-- Node12&#45;&gt;Node9 -->
<g id="edge15" class="edge">
<title>Node12&#45;&gt;Node9</title>
<path fill="none" stroke="midnightblue" d="M377.44,-143.42C380.73,-141.88 383.94,-140.25 387,-138.5 396.3,-133.2 396.82,-129.41 405,-122.5 433.73,-98.22 439.17,-89.55 471,-69.5 483.34,-61.73 497.62,-54.48 510.39,-48.56"/>
<polygon fill="midnightblue" stroke="midnightblue" points="375.81,-140.31 368,-147.47 378.57,-146.74 375.81,-140.31"/>
</g>
<!-- Node12&#45;&gt;Node11 -->
<g id="edge16" class="edge">
<title>Node12&#45;&gt;Node11</title>
<path fill="none" stroke="midnightblue" d="M396.8,-157.06C422.52,-155.42 450.51,-153.62 475.21,-152.04"/>
<polygon fill="midnightblue" stroke="midnightblue" points="396.44,-153.58 386.68,-157.71 396.89,-160.57 396.44,-153.58"/>
</g>
</g>
</svg>
