<?xml version="1.0" encoding="UTF-8" standalone="no"?>
<!DOCTYPE svg PUBLIC "-//W3C//DTD SVG 1.1//EN"
 "http://www.w3.org/Graphics/SVG/1.1/DTD/svg11.dtd">
<!-- Generated by graphviz version 2.43.0 (0)
 -->
<!-- Title: lemons::dsp::FX::FilterEngine&lt; SampleType &gt; Pages: 1 -->
<svg width="829pt" height="65pt"
 viewBox="0.00 0.00 829.00 65.00" xmlns="http://www.w3.org/2000/svg" xmlns:xlink="http://www.w3.org/1999/xlink">
<g id="graph0" class="graph" transform="scale(1 1) rotate(0) translate(4 61)">
<title>lemons::dsp::FX::FilterEngine&lt; SampleType &gt;</title>
<!-- Node1 -->
<g id="node1" class="node">
<title>Node1</title>
<g id="a_node1"><a xlink:title="A class that represents an audio engine holding a filter effect.">
<polygon fill="#bfbfbf" stroke="black" points="663,-26.5 663,-56.5 821,-56.5 821,-26.5 663,-26.5"/>
<text text-anchor="start" x="671" y="-44.5" font-family="Helvetica,sans-Serif" font-size="10.00">lemons::dsp::FX::FilterEngine</text>
<text text-anchor="middle" x="742" y="-33.5" font-family="Helvetica,sans-Serif" font-size="10.00">&lt; SampleType &gt;</text>
</a>
</g>
</g>
<!-- Node2 -->
<g id="node2" class="node">
<title>Node2</title>
<g id="a_node2"><a xlink:href="classlemons_1_1dsp_1_1_f_x_1_1_effect_engine.html" target="_top" xlink:title=" ">
<polygon fill="none" stroke="black" points="465,-26.5 465,-56.5 626,-56.5 626,-26.5 465,-26.5"/>
<text text-anchor="start" x="473" y="-44.5" font-family="Helvetica,sans-Serif" font-size="10.00">lemons::dsp::FX::EffectEngine</text>
<text text-anchor="middle" x="545.5" y="-33.5" font-family="Helvetica,sans-Serif" font-size="10.00">&lt; Filter, SampleType &gt;</text>
</a>
</g>
</g>
<!-- Node2&#45;&gt;Node1 -->
<g id="edge1" class="edge">
<title>Node2&#45;&gt;Node1</title>
<path fill="none" stroke="midnightblue" d="M636.42,-41.5C645.2,-41.5 654.06,-41.5 662.71,-41.5"/>
<polygon fill="midnightblue" stroke="midnightblue" points="636.17,-38 626.17,-41.5 636.17,-45 636.17,-38"/>
</g>
<!-- Node3 -->
<g id="node3" class="node">
<title>Node3</title>
<g id="a_node3"><a xlink:href="classlemons_1_1dsp_1_1_engine.html" target="_top" xlink:title=" ">
<polygon fill="none" stroke="black" points="0,-22.5 0,-52.5 115,-52.5 115,-22.5 0,-22.5"/>
<text text-anchor="start" x="8" y="-40.5" font-family="Helvetica,sans-Serif" font-size="10.00">lemons::dsp::Engine</text>
<text text-anchor="middle" x="57.5" y="-29.5" font-family="Helvetica,sans-Serif" font-size="10.00">&lt; SampleType &gt;</text>
</a>
</g>
</g>
<!-- Node3&#45;&gt;Node2 -->
<g id="edge2" class="edge">
<title>Node3&#45;&gt;Node2</title>
<path fill="none" stroke="midnightblue" d="M125.23,-42.15C127.85,-42.28 130.45,-42.4 133,-42.5 272.44,-48.23 307.47,-48.36 447,-45.5 452.84,-45.38 458.88,-45.22 464.96,-45.03"/>
<polygon fill="midnightblue" stroke="midnightblue" points="125.2,-38.64 115.02,-41.6 124.82,-45.63 125.2,-38.64"/>
</g>
<!-- Node4 -->
<g id="node4" class="node">
<title>Node4</title>
<g id="a_node4"><a xlink:href="classlemons_1_1dsp_1_1_f_x_1_1_effect_engine.html" target="_top" xlink:title="A class that wraps an AudioEffect into a dsp::Engine.">
<polygon fill="none" stroke="black" points="152,-0.5 152,-30.5 313,-30.5 313,-0.5 152,-0.5"/>
<text text-anchor="start" x="160" y="-18.5" font-family="Helvetica,sans-Serif" font-size="10.00">lemons::dsp::FX::EffectEngine</text>
<text text-anchor="middle" x="232.5" y="-7.5" font-family="Helvetica,sans-Serif" font-size="10.00">&lt; EffectType, SampleType, &gt;</text>
</a>
</g>
</g>
<!-- Node3&#45;&gt;Node4 -->
<g id="edge4" class="edge">
<title>Node3&#45;&gt;Node4</title>
<path fill="none" stroke="midnightblue" d="M125.22,-29.02C133.92,-27.91 142.91,-26.77 151.81,-25.63"/>
<polygon fill="midnightblue" stroke="midnightblue" points="124.63,-25.56 115.15,-30.3 125.51,-32.51 124.63,-25.56"/>
</g>
<!-- Node4&#45;&gt;Node2 -->
<g id="edge3" class="edge">
<title>Node4&#45;&gt;Node2</title>
<path fill="none" stroke="orange" stroke-dasharray="5,2" d="M323.17,-23C367.88,-26.73 421.49,-31.22 464.75,-34.83"/>
<polygon fill="orange" stroke="orange" points="323.44,-19.51 313.19,-22.16 322.86,-26.48 323.44,-19.51"/>
<text text-anchor="middle" x="389" y="-36.5" font-family="Helvetica,sans-Serif" font-size="10.00"> &lt; Filter, SampleType &gt;</text>
</g>
</g>
</svg>
