<?xml version="1.0" encoding="UTF-8" standalone="no"?>
<!DOCTYPE svg PUBLIC "-//W3C//DTD SVG 1.1//EN"
 "http://www.w3.org/Graphics/SVG/1.1/DTD/svg11.dtd">
<!-- Generated by graphviz version 2.50.0 (20211204.2007)
 -->
<!-- Title: lemons::dsp::SampleStream&lt; SampleType &gt; Pages: 1 -->
<svg width="728pt" height="235pt"
 viewBox="0.00 0.00 728.00 235.00" xmlns="http://www.w3.org/2000/svg" xmlns:xlink="http://www.w3.org/1999/xlink">
<g id="graph0" class="graph" transform="scale(1 1) rotate(0) translate(4 231)">
<title>lemons::dsp::SampleStream&lt; SampleType &gt;</title>
<!-- Node1 -->
<g id="node1" class="node">
<title>Node1</title>
<g id="a_node1"><a xlink:title="Base class for any object that can output a stream of audio samples, with no audio or MIDI input.">
<polygon fill="#bfbfbf" stroke="black" points="0,-73.5 0,-103.5 140,-103.5 140,-73.5 0,-73.5"/>
<text text-anchor="start" x="8" y="-91.5" font-family="Helvetica,sans-Serif" font-size="10.00">lemons::dsp::SampleStream</text>
<text text-anchor="middle" x="70" y="-80.5" font-family="Helvetica,sans-Serif" font-size="10.00">&lt; SampleType &gt;</text>
</a>
</g>
</g>
<!-- Node2 -->
<g id="node2" class="node">
<title>Node2</title>
<g id="a_node2"><a xlink:href="structlemons_1_1dsp_1_1_oscillator.html" target="_top" xlink:title="Base class for any kind of oscillator.">
<polygon fill="none" stroke="black" points="202.5,-98.5 202.5,-128.5 319.5,-128.5 319.5,-98.5 202.5,-98.5"/>
<text text-anchor="start" x="210.5" y="-116.5" font-family="Helvetica,sans-Serif" font-size="10.00">lemons::dsp::Oscillator</text>
<text text-anchor="middle" x="261" y="-105.5" font-family="Helvetica,sans-Serif" font-size="10.00">&lt; SampleType &gt;</text>
</a>
</g>
</g>
<!-- Node1&#45;&gt;Node2 -->
<g id="edge1" class="edge">
<title>Node1&#45;&gt;Node2</title>
<path fill="none" stroke="midnightblue" d="M150.22,-98.98C167.7,-101.29 185.9,-103.7 202.33,-105.87"/>
<polygon fill="midnightblue" stroke="midnightblue" points="150.41,-95.47 140.04,-97.63 149.49,-102.41 150.41,-95.47"/>
</g>
<!-- Node9 -->
<g id="node9" class="node">
<title>Node9</title>
<g id="a_node9"><a xlink:href="classlemons_1_1dsp_1_1_white_noise_generator.html" target="_top" xlink:title="A simple processor that generates random noise.">
<polygon fill="none" stroke="black" points="176,-49.5 176,-79.5 346,-79.5 346,-49.5 176,-49.5"/>
<text text-anchor="start" x="184" y="-67.5" font-family="Helvetica,sans-Serif" font-size="10.00">lemons::dsp::WhiteNoiseGenerator</text>
<text text-anchor="middle" x="261" y="-56.5" font-family="Helvetica,sans-Serif" font-size="10.00">&lt; SampleType &gt;</text>
</a>
</g>
</g>
<!-- Node1&#45;&gt;Node9 -->
<g id="edge8" class="edge">
<title>Node1&#45;&gt;Node9</title>
<path fill="none" stroke="midnightblue" d="M150.21,-78.44C158.64,-77.37 167.24,-76.28 175.72,-75.2"/>
<polygon fill="midnightblue" stroke="midnightblue" points="149.52,-75 140.04,-79.73 150.4,-81.95 149.52,-75"/>
</g>
<!-- Node3 -->
<g id="node3" class="node">
<title>Node3</title>
<g id="a_node3"><a xlink:href="classlemons_1_1dsp_1_1osc_1_1_detunable_base.html" target="_top" xlink:title=" ">
<polygon fill="none" stroke="black" points="382,-196.5 382,-226.5 524,-226.5 524,-196.5 382,-196.5"/>
<text text-anchor="start" x="390" y="-214.5" font-family="Helvetica,sans-Serif" font-size="10.00">lemons::dsp::osc::Detunable</text>
<text text-anchor="middle" x="453" y="-203.5" font-family="Helvetica,sans-Serif" font-size="10.00">Base&lt; SampleType &gt;</text>
</a>
</g>
</g>
<!-- Node2&#45;&gt;Node3 -->
<g id="edge2" class="edge">
<title>Node2&#45;&gt;Node3</title>
<path fill="none" stroke="midnightblue" d="M291.81,-134.48C315.48,-150.48 349.82,-172.29 382,-187.5 388.85,-190.74 396.27,-193.76 403.62,-196.49"/>
<polygon fill="midnightblue" stroke="midnightblue" points="293.52,-131.41 283.29,-128.66 289.57,-137.19 293.52,-131.41"/>
</g>
<!-- Node5 -->
<g id="node5" class="node">
<title>Node5</title>
<g id="a_node5"><a xlink:href="structlemons_1_1dsp_1_1osc_1_1_saw.html" target="_top" xlink:title="A basic sawtooth wave oscillator.">
<polygon fill="none" stroke="black" points="394.5,-147.5 394.5,-177.5 511.5,-177.5 511.5,-147.5 394.5,-147.5"/>
<text text-anchor="start" x="402.5" y="-165.5" font-family="Helvetica,sans-Serif" font-size="10.00">lemons::dsp::osc::Saw</text>
<text text-anchor="middle" x="453" y="-154.5" font-family="Helvetica,sans-Serif" font-size="10.00">&lt; SampleType &gt;</text>
</a>
</g>
</g>
<!-- Node2&#45;&gt;Node5 -->
<g id="edge4" class="edge">
<title>Node2&#45;&gt;Node5</title>
<path fill="none" stroke="midnightblue" d="M329.43,-130.89C350.65,-136.36 373.87,-142.35 394.35,-147.63"/>
<polygon fill="midnightblue" stroke="midnightblue" points="330.08,-127.44 319.52,-128.33 328.33,-134.22 330.08,-127.44"/>
</g>
<!-- Node6 -->
<g id="node6" class="node">
<title>Node6</title>
<g id="a_node6"><a xlink:href="structlemons_1_1dsp_1_1osc_1_1_sine.html" target="_top" xlink:title="A basic sine wave oscillator.">
<polygon fill="none" stroke="black" points="394.5,-98.5 394.5,-128.5 511.5,-128.5 511.5,-98.5 394.5,-98.5"/>
<text text-anchor="start" x="402.5" y="-116.5" font-family="Helvetica,sans-Serif" font-size="10.00">lemons::dsp::osc::Sine</text>
<text text-anchor="middle" x="453" y="-105.5" font-family="Helvetica,sans-Serif" font-size="10.00">&lt; SampleType &gt;</text>
</a>
</g>
</g>
<!-- Node2&#45;&gt;Node6 -->
<g id="edge5" class="edge">
<title>Node2&#45;&gt;Node6</title>
<path fill="none" stroke="midnightblue" d="M329.72,-113.5C350.86,-113.5 373.97,-113.5 394.35,-113.5"/>
<polygon fill="midnightblue" stroke="midnightblue" points="329.52,-110 319.52,-113.5 329.52,-117 329.52,-110"/>
</g>
<!-- Node7 -->
<g id="node7" class="node">
<title>Node7</title>
<g id="a_node7"><a xlink:href="structlemons_1_1dsp_1_1osc_1_1_square.html" target="_top" xlink:title="A basic square wave oscillator.">
<polygon fill="none" stroke="black" points="389,-49.5 389,-79.5 517,-79.5 517,-49.5 389,-49.5"/>
<text text-anchor="start" x="397" y="-67.5" font-family="Helvetica,sans-Serif" font-size="10.00">lemons::dsp::osc::Square</text>
<text text-anchor="middle" x="453" y="-56.5" font-family="Helvetica,sans-Serif" font-size="10.00">&lt; SampleType &gt;</text>
</a>
</g>
</g>
<!-- Node2&#45;&gt;Node7 -->
<g id="edge6" class="edge">
<title>Node2&#45;&gt;Node7</title>
<path fill="none" stroke="midnightblue" d="M329.34,-96.13C350.35,-90.71 373.35,-84.78 393.69,-79.54"/>
<polygon fill="midnightblue" stroke="midnightblue" points="328.33,-92.78 319.52,-98.67 330.08,-99.56 328.33,-92.78"/>
</g>
<!-- Node8 -->
<g id="node8" class="node">
<title>Node8</title>
<g id="a_node8"><a xlink:href="structlemons_1_1dsp_1_1osc_1_1_triangle.html" target="_top" xlink:title="A basic triangle wave oscillator.">
<polygon fill="none" stroke="black" points="387,-0.5 387,-30.5 519,-30.5 519,-0.5 387,-0.5"/>
<text text-anchor="start" x="395" y="-18.5" font-family="Helvetica,sans-Serif" font-size="10.00">lemons::dsp::osc::Triangle</text>
<text text-anchor="middle" x="453" y="-7.5" font-family="Helvetica,sans-Serif" font-size="10.00">&lt; SampleType &gt;</text>
</a>
</g>
</g>
<!-- Node2&#45;&gt;Node8 -->
<g id="edge7" class="edge">
<title>Node2&#45;&gt;Node8</title>
<path fill="none" stroke="midnightblue" d="M329.28,-98.73C335.18,-96.13 340.85,-93.08 346,-89.5 368.18,-74.07 360.33,-56.64 382,-40.5 387.17,-36.65 393,-33.34 399.02,-30.53"/>
<polygon fill="midnightblue" stroke="midnightblue" points="327.88,-95.52 319.87,-102.45 330.45,-102.03 327.88,-95.52"/>
</g>
<!-- Node4 -->
<g id="node4" class="node">
<title>Node4</title>
<g id="a_node4"><a xlink:href="classlemons_1_1dsp_1_1osc_1_1_detunable.html" target="_top" xlink:title=" ">
<polygon fill="none" stroke="black" points="560,-196.5 560,-226.5 720,-226.5 720,-196.5 560,-196.5"/>
<text text-anchor="start" x="568" y="-214.5" font-family="Helvetica,sans-Serif" font-size="10.00">lemons::dsp::osc::Detunable</text>
<text text-anchor="middle" x="640" y="-203.5" font-family="Helvetica,sans-Serif" font-size="10.00">&lt; SampleType, OscillatorType, &gt;</text>
</a>
</g>
</g>
<!-- Node3&#45;&gt;Node4 -->
<g id="edge3" class="edge">
<title>Node3&#45;&gt;Node4</title>
<path fill="none" stroke="midnightblue" d="M534.42,-211.5C542.86,-211.5 551.44,-211.5 559.87,-211.5"/>
<polygon fill="midnightblue" stroke="midnightblue" points="534.2,-208 524.2,-211.5 534.2,-215 534.2,-208"/>
</g>
</g>
</svg>
