<?xml version="1.0" encoding="UTF-8" standalone="no"?>
<!DOCTYPE svg PUBLIC "-//W3C//DTD SVG 1.1//EN"
 "http://www.w3.org/Graphics/SVG/1.1/DTD/svg11.dtd">
<!-- Generated by graphviz version 2.50.0 (20211204.2007)
 -->
<!-- Title: lemons::plugin::ToggleParameter Pages: 1 -->
<svg width="257pt" height="345pt"
 viewBox="0.00 0.00 257.00 345.00" xmlns="http://www.w3.org/2000/svg" xmlns:xlink="http://www.w3.org/1999/xlink">
<g id="graph0" class="graph" transform="scale(1 1) rotate(0) translate(4 341)">
<title>lemons::plugin::ToggleParameter</title>
<!-- Node1 -->
<g id="node1" class="node">
<title>Node1</title>
<g id="a_node1"><a xlink:title="A parameter that represents a boolean on/off toggle.">
<polygon fill="#bfbfbf" stroke="black" points="0,-0.5 0,-19.5 159,-19.5 159,-0.5 0,-0.5"/>
<text text-anchor="middle" x="79.5" y="-7.5" font-family="Helvetica,sans-Serif" font-size="10.00">lemons::plugin::ToggleParameter</text>
</a>
</g>
</g>
<!-- Node2 -->
<g id="node2" class="node">
<title>Node2</title>
<g id="a_node2"><a xlink:href="structlemons_1_1plugin_1_1_bool_parameter.html" target="_top" xlink:title="Helper struct that simplifies the constructor for boolean parameters.">
<polygon fill="none" stroke="black" points="4.5,-57.5 4.5,-76.5 154.5,-76.5 154.5,-57.5 4.5,-57.5"/>
<text text-anchor="middle" x="79.5" y="-64.5" font-family="Helvetica,sans-Serif" font-size="10.00">lemons::plugin::BoolParameter</text>
</a>
</g>
</g>
<!-- Node2&#45;&gt;Node1 -->
<g id="edge1" class="edge">
<title>Node2&#45;&gt;Node1</title>
<path fill="none" stroke="midnightblue" d="M79.5,-47.12C79.5,-37.82 79.5,-27.06 79.5,-19.71"/>
<polygon fill="midnightblue" stroke="midnightblue" points="76,-47.41 79.5,-57.41 83,-47.41 76,-47.41"/>
</g>
<!-- Node3 -->
<g id="node3" class="node">
<title>Node3</title>
<g id="a_node3"><a xlink:href="classlemons_1_1plugin_1_1_typed_parameter.html" target="_top" xlink:title=" ">
<polygon fill="none" stroke="black" points="1,-114.5 1,-144.5 158,-144.5 158,-114.5 1,-114.5"/>
<text text-anchor="start" x="9" y="-132.5" font-family="Helvetica,sans-Serif" font-size="10.00">lemons::plugin::TypedParameter</text>
<text text-anchor="middle" x="79.5" y="-121.5" font-family="Helvetica,sans-Serif" font-size="10.00">&lt; bool &gt;</text>
</a>
</g>
</g>
<!-- Node3&#45;&gt;Node2 -->
<g id="edge2" class="edge">
<title>Node3&#45;&gt;Node2</title>
<path fill="none" stroke="midnightblue" d="M79.5,-104.35C79.5,-94.51 79.5,-83.78 79.5,-76.54"/>
<polygon fill="midnightblue" stroke="midnightblue" points="76,-104.47 79.5,-114.47 83,-104.47 76,-104.47"/>
</g>
<!-- Node4 -->
<g id="node4" class="node">
<title>Node4</title>
<g id="a_node4"><a xlink:href="classlemons_1_1plugin_1_1_parameter.html" target="_top" xlink:title="A plugin parameter class.">
<polygon fill="none" stroke="black" points="10,-260.5 10,-279.5 141,-279.5 141,-260.5 10,-260.5"/>
<text text-anchor="middle" x="75.5" y="-267.5" font-family="Helvetica,sans-Serif" font-size="10.00">lemons::plugin::Parameter</text>
</a>
</g>
</g>
<!-- Node4&#45;&gt;Node3 -->
<g id="edge3" class="edge">
<title>Node4&#45;&gt;Node3</title>
<path fill="none" stroke="midnightblue" d="M76.04,-250.25C76.85,-222.19 78.36,-169.88 79.09,-144.73"/>
<polygon fill="midnightblue" stroke="midnightblue" points="72.54,-250.24 75.75,-260.34 79.54,-250.44 72.54,-250.24"/>
</g>
<!-- Node6 -->
<g id="node6" class="node">
<title>Node6</title>
<g id="a_node6"><a xlink:href="classlemons_1_1plugin_1_1_typed_parameter.html" target="_top" xlink:title="A parameter that can be stored as a type other than a float, but still inherits from my Parameter bas...">
<polygon fill="none" stroke="black" points="92,-192.5 92,-222.5 249,-222.5 249,-192.5 92,-192.5"/>
<text text-anchor="start" x="100" y="-210.5" font-family="Helvetica,sans-Serif" font-size="10.00">lemons::plugin::TypedParameter</text>
<text text-anchor="middle" x="170.5" y="-199.5" font-family="Helvetica,sans-Serif" font-size="10.00">&lt; ValueType &gt;</text>
</a>
</g>
</g>
<!-- Node4&#45;&gt;Node6 -->
<g id="edge6" class="edge">
<title>Node4&#45;&gt;Node6</title>
<path fill="none" stroke="midnightblue" d="M97.9,-254.73C113.17,-245.01 133.29,-232.2 148.48,-222.53"/>
<polygon fill="midnightblue" stroke="midnightblue" points="95.67,-252.01 89.11,-260.33 99.43,-257.91 95.67,-252.01"/>
</g>
<!-- Node5 -->
<g id="node5" class="node">
<title>Node5</title>
<g id="a_node5"><a xlink:title=" ">
<polygon fill="none" stroke="black" points="3.5,-317.5 3.5,-336.5 147.5,-336.5 147.5,-317.5 3.5,-317.5"/>
<text text-anchor="middle" x="75.5" y="-324.5" font-family="Helvetica,sans-Serif" font-size="10.00">juce::RangedAudioParameter</text>
</a>
</g>
</g>
<!-- Node5&#45;&gt;Node4 -->
<g id="edge4" class="edge">
<title>Node5&#45;&gt;Node4</title>
<path fill="none" stroke="midnightblue" d="M75.5,-307.12C75.5,-297.82 75.5,-287.06 75.5,-279.71"/>
<polygon fill="midnightblue" stroke="midnightblue" points="72,-307.41 75.5,-317.41 79,-307.41 72,-307.41"/>
</g>
<!-- Node6&#45;&gt;Node3 -->
<g id="edge5" class="edge">
<title>Node6&#45;&gt;Node3</title>
<path fill="none" stroke="orange" stroke-dasharray="5,2" d="M145.66,-185.75C130.07,-172.73 110.37,-156.28 96.54,-144.73"/>
<polygon fill="orange" stroke="orange" points="143.46,-188.48 153.38,-192.2 147.95,-183.11 143.46,-188.48"/>
<text text-anchor="middle" x="149.5" y="-166" font-family="Helvetica,sans-Serif" font-size="10.00"> &lt; bool &gt;</text>
</g>
</g>
</svg>
