<?xml version="1.0" encoding="UTF-8" standalone="no"?>
<!DOCTYPE svg PUBLIC "-//W3C//DTD SVG 1.1//EN"
 "http://www.w3.org/Graphics/SVG/1.1/DTD/svg11.dtd">
<!-- Generated by graphviz version 2.43.0 (0)
 -->
<!-- Title: lemons::serializing::ContainerInterface Pages: 1 -->
<!--zoomable 259 -->
<svg id="main" version="1.1" xmlns="http://www.w3.org/2000/svg" xmlns:xlink="http://www.w3.org/1999/xlink" xml:space="preserve" onload="init(evt)">
<style type="text/css"><![CDATA[
.edge:hover path { stroke: red; }
.edge:hover polygon { stroke: red; fill: red; }
]]></style>
<script type="text/javascript"><![CDATA[
var edges = document.getElementsByTagName('g');
if (edges && edges.length) {
  for (var i=0;i<edges.length;i++) {
    if (edges[i].id.substr(0,4)=='edge') {
      edges[i].setAttribute('class','edge');
    }
  }
}
]]></script>
        <defs>
                <circle id="rim" cx="0" cy="0" r="7"/>
                <circle id="rim2" cx="0" cy="0" r="3.5"/>
                <g id="zoomPlus">
                        <use xlink:href="#rim" fill="#404040">
                                <set attributeName="fill" to="#808080" begin="zoomplus.mouseover" end="zoomplus.mouseout"/>
                        </use>
                        <path d="M-4,0h8M0,-4v8" fill="none" stroke="white" stroke-width="1.5" pointer-events="none"/>
                </g>
                <g id="zoomMin">
                        <use xlink:href="#rim" fill="#404040">
                                <set attributeName="fill" to="#808080" begin="zoomminus.mouseover" end="zoomminus.mouseout"/>
                        </use>
                        <path d="M-4,0h8" fill="none" stroke="white" stroke-width="1.5" pointer-events="none"/>
                </g>
                <g id="dirArrow">
                        <path fill="none" stroke="white" stroke-width="1.5" d="M0,-3.0v7 M-2.5,-0.5L0,-3.0L2.5,-0.5"/>
                </g>
               <g id="resetDef">
                       <use xlink:href="#rim2" fill="#404040">
                               <set attributeName="fill" to="#808080" begin="reset.mouseover" end="reset.mouseout"/>
                       </use>
               </g>
        </defs>

<script type="text/javascript">
var viewWidth = 904;
var viewHeight = 259;
var sectionId = 'dynsection-0';
</script>
<script xlink:href="svgpan.js"/>
<svg id="graph" class="graph">
<g id="viewport">
<title>lemons::serializing::ContainerInterface</title>
<!-- Node1 -->
<g id="node1" class="node">
<title>Node1</title>
<g id="a_node1"><a xlink:title="Interface that defines how a TreeReflector can resize a given container during deserialization.">
<polygon fill="#bfbfbf" stroke="black" points="0,-84.5 0,-114.5 113,-114.5 113,-84.5 0,-84.5"/>
<text text-anchor="start" x="8" y="-102.5" font-family="Helvetica,sans-Serif" font-size="10.00">lemons::serializing</text>
<text text-anchor="middle" x="56.5" y="-91.5" font-family="Helvetica,sans-Serif" font-size="10.00">::ContainerInterface</text>
</a>
</g>
</g>
<!-- Node2 -->
<g id="node2" class="node">
<title>Node2</title>
<g id="a_node2"><a xlink:href="structlemons_1_1serializing_1_1LambdaContainerInterface.html" target="_top" xlink:title=" ">
<polygon fill="none" stroke="black" points="519,-80 519,-121 696,-121 696,-80 519,-80"/>
<text text-anchor="start" x="527" y="-109" font-family="Helvetica,sans-Serif" font-size="10.00">lemons::serializing</text>
<text text-anchor="start" x="527" y="-98" font-family="Helvetica,sans-Serif" font-size="10.00">::LambdaContainerInterface</text>
<text text-anchor="middle" x="607.5" y="-87" font-family="Helvetica,sans-Serif" font-size="10.00">&lt; juce::Array&lt; ElementType &gt; &gt;</text>
</a>
</g>
</g>
<!-- Node1&#45;&gt;Node2 -->
<g id="edge1" class="edge">
<title>Node1&#45;&gt;Node2</title>
<path fill="none" stroke="midnightblue" d="M123.33,-89C207.25,-77.15 356.71,-61.14 484,-74.5 496,-75.76 508.56,-77.69 520.86,-79.95"/>
<polygon fill="midnightblue" stroke="midnightblue" points="122.58,-85.58 113.18,-90.46 123.58,-92.51 122.58,-85.58"/>
</g>
<!-- Node4 -->
<g id="node4" class="node">
<title>Node4</title>
<g id="a_node4"><a xlink:href="structlemons_1_1serializing_1_1LambdaContainerInterface.html" target="_top" xlink:title=" ">
<polygon fill="none" stroke="black" points="502,-209 502,-250 713,-250 713,-209 502,-209"/>
<text text-anchor="start" x="510" y="-238" font-family="Helvetica,sans-Serif" font-size="10.00">lemons::serializing</text>
<text text-anchor="start" x="510" y="-227" font-family="Helvetica,sans-Serif" font-size="10.00">::LambdaContainerInterface</text>
<text text-anchor="middle" x="607.5" y="-216" font-family="Helvetica,sans-Serif" font-size="10.00">&lt; juce::OwnedArray&lt; ElementType &gt; &gt;</text>
</a>
</g>
</g>
<!-- Node1&#45;&gt;Node4 -->
<g id="edge3" class="edge">
<title>Node1&#45;&gt;Node4</title>
<path fill="none" stroke="midnightblue" d="M81.67,-121.2C99.48,-136.24 124.89,-155.78 150,-168.5 260.92,-224.68 405.52,-235.12 501.96,-234.65"/>
<polygon fill="midnightblue" stroke="midnightblue" points="83.91,-118.51 74.04,-114.64 79.35,-123.82 83.91,-118.51"/>
</g>
<!-- Node6 -->
<g id="node6" class="node">
<title>Node6</title>
<g id="a_node6"><a xlink:href="structlemons_1_1serializing_1_1LambdaContainerInterface.html" target="_top" xlink:title=" ">
<polygon fill="none" stroke="black" points="531.5,-0.5 531.5,-52.5 683.5,-52.5 683.5,-0.5 531.5,-0.5"/>
<text text-anchor="start" x="539.5" y="-40.5" font-family="Helvetica,sans-Serif" font-size="10.00">lemons::serializing</text>
<text text-anchor="start" x="539.5" y="-29.5" font-family="Helvetica,sans-Serif" font-size="10.00">::LambdaContainerInterface</text>
<text text-anchor="start" x="539.5" y="-18.5" font-family="Helvetica,sans-Serif" font-size="10.00">&lt; std::array&lt; ElementType,</text>
<text text-anchor="middle" x="607.5" y="-7.5" font-family="Helvetica,sans-Serif" font-size="10.00"> size &gt; &gt;</text>
</a>
</g>
</g>
<!-- Node1&#45;&gt;Node6 -->
<g id="edge5" class="edge">
<title>Node1&#45;&gt;Node6</title>
<path fill="none" stroke="midnightblue" d="M105.22,-81.16C119.44,-76.34 135.19,-71.62 150,-68.5 282.4,-40.62 440.26,-31.25 531.38,-28.1"/>
<polygon fill="midnightblue" stroke="midnightblue" points="103.94,-77.9 95.65,-84.5 106.25,-84.51 103.94,-77.9"/>
</g>
<!-- Node8 -->
<g id="node8" class="node">
<title>Node8</title>
<g id="a_node8"><a xlink:href="structlemons_1_1serializing_1_1LambdaContainerInterface.html" target="_top" xlink:title="Provides a slightly slicker interface to ContainerInterface, allowing you to supply a lambda function...">
<polygon fill="none" stroke="black" points="150,-118 150,-159 302,-159 302,-118 150,-118"/>
<text text-anchor="start" x="158" y="-147" font-family="Helvetica,sans-Serif" font-size="10.00">lemons::serializing</text>
<text text-anchor="start" x="158" y="-136" font-family="Helvetica,sans-Serif" font-size="10.00">::LambdaContainerInterface</text>
<text text-anchor="middle" x="226" y="-125" font-family="Helvetica,sans-Serif" font-size="10.00">&lt; ContainerType &gt;</text>
</a>
</g>
</g>
<!-- Node1&#45;&gt;Node8 -->
<g id="edge7" class="edge">
<title>Node1&#45;&gt;Node8</title>
<path fill="none" stroke="midnightblue" d="M123.04,-114.76C131.81,-116.8 140.87,-118.91 149.79,-120.99"/>
<polygon fill="midnightblue" stroke="midnightblue" points="123.81,-111.35 113.28,-112.49 122.22,-118.16 123.81,-111.35"/>
</g>
<!-- Node3 -->
<g id="node3" class="node">
<title>Node3</title>
<g id="a_node3"><a xlink:href="structlemons_1_1serializing_1_1JuceArrayInterface.html" target="_top" xlink:title=" ">
<polygon fill="none" stroke="black" points="766.5,-80 766.5,-121 879.5,-121 879.5,-80 766.5,-80"/>
<text text-anchor="start" x="774.5" y="-109" font-family="Helvetica,sans-Serif" font-size="10.00">lemons::serializing</text>
<text text-anchor="start" x="774.5" y="-98" font-family="Helvetica,sans-Serif" font-size="10.00">::JuceArrayInterface</text>
<text text-anchor="middle" x="823" y="-87" font-family="Helvetica,sans-Serif" font-size="10.00">&lt; ElementType &gt;</text>
</a>
</g>
</g>
<!-- Node2&#45;&gt;Node3 -->
<g id="edge2" class="edge">
<title>Node2&#45;&gt;Node3</title>
<path fill="none" stroke="midnightblue" d="M706.32,-100.5C726.91,-100.5 747.95,-100.5 766.34,-100.5"/>
<polygon fill="midnightblue" stroke="midnightblue" points="706.26,-97 696.26,-100.5 706.26,-104 706.26,-97"/>
</g>
<!-- Node5 -->
<g id="node5" class="node">
<title>Node5</title>
<g id="a_node5"><a xlink:href="structlemons_1_1serializing_1_1JuceOwnedArrayInterface.html" target="_top" xlink:title=" ">
<polygon fill="none" stroke="black" points="750,-209 750,-250 896,-250 896,-209 750,-209"/>
<text text-anchor="start" x="758" y="-238" font-family="Helvetica,sans-Serif" font-size="10.00">lemons::serializing</text>
<text text-anchor="start" x="758" y="-227" font-family="Helvetica,sans-Serif" font-size="10.00">::JuceOwnedArrayInterface</text>
<text text-anchor="middle" x="823" y="-216" font-family="Helvetica,sans-Serif" font-size="10.00">&lt; ElementType &gt;</text>
</a>
</g>
</g>
<!-- Node4&#45;&gt;Node5 -->
<g id="edge4" class="edge">
<title>Node4&#45;&gt;Node5</title>
<path fill="none" stroke="midnightblue" d="M723.28,-229.5C732.32,-229.5 741.28,-229.5 749.9,-229.5"/>
<polygon fill="midnightblue" stroke="midnightblue" points="723.06,-226 713.06,-229.5 723.06,-233 723.06,-226"/>
</g>
<!-- Node7 -->
<g id="node7" class="node">
<title>Node7</title>
<g id="a_node7"><a xlink:href="structlemons_1_1serializing_1_1StdArrayInterface.html" target="_top" xlink:title=" ">
<polygon fill="none" stroke="black" points="759,-6 759,-47 887,-47 887,-6 759,-6"/>
<text text-anchor="start" x="767" y="-35" font-family="Helvetica,sans-Serif" font-size="10.00">lemons::serializing</text>
<text text-anchor="start" x="767" y="-24" font-family="Helvetica,sans-Serif" font-size="10.00">::StdArrayInterface</text>
<text text-anchor="middle" x="823" y="-13" font-family="Helvetica,sans-Serif" font-size="10.00">&lt; ElementType, size &gt;</text>
</a>
</g>
</g>
<!-- Node6&#45;&gt;Node7 -->
<g id="edge6" class="edge">
<title>Node6&#45;&gt;Node7</title>
<path fill="none" stroke="midnightblue" d="M693.94,-26.5C715.56,-26.5 738.4,-26.5 758.71,-26.5"/>
<polygon fill="midnightblue" stroke="midnightblue" points="693.77,-23 683.77,-26.5 693.77,-30 693.77,-23"/>
</g>
<!-- Node8&#45;&gt;Node2 -->
<g id="edge10" class="edge">
<title>Node8&#45;&gt;Node2</title>
<path fill="none" stroke="orange" stroke-dasharray="5,2" d="M312.29,-132.16C362.36,-128.19 426.83,-122.68 484,-116.5 495.3,-115.28 507.17,-113.88 518.9,-112.42"/>
<polygon fill="orange" stroke="orange" points="311.84,-128.68 302.15,-132.95 312.39,-135.66 311.84,-128.68"/>
<text text-anchor="middle" x="402" y="-134.5" font-family="Helvetica,sans-Serif" font-size="10.00"> &lt; juce::Array&lt; ElementType &gt; &gt;</text>
</g>
<!-- Node8&#45;&gt;Node4 -->
<g id="edge9" class="edge">
<title>Node8&#45;&gt;Node4</title>
<path fill="none" stroke="orange" stroke-dasharray="5,2" d="M291.8,-162.29C301.19,-165.3 310.79,-168.15 320,-170.5 391.64,-188.81 411.66,-183.2 484,-198.5 498.7,-201.61 514.31,-205.28 529.28,-208.98"/>
<polygon fill="orange" stroke="orange" points="292.72,-158.91 282.12,-159.11 290.53,-165.56 292.72,-158.91"/>
<text text-anchor="start" x="351.5" y="-212.5" font-family="Helvetica,sans-Serif" font-size="10.00"> &lt; juce::OwnedArray</text>
<text text-anchor="middle" x="402" y="-201.5" font-family="Helvetica,sans-Serif" font-size="10.00">&lt; ElementType &gt; &gt;</text>
</g>
<!-- Node8&#45;&gt;Node6 -->
<g id="edge11" class="edge">
<title>Node8&#45;&gt;Node6</title>
<path fill="none" stroke="orange" stroke-dasharray="5,2" d="M270.94,-112.88C286.11,-104.84 303.45,-96.51 320,-90.5 389.71,-65.2 472.73,-47.99 531.41,-37.84"/>
<polygon fill="orange" stroke="orange" points="268.93,-109.99 261.81,-117.83 272.27,-116.15 268.93,-109.99"/>
<text text-anchor="start" x="332.5" y="-104.5" font-family="Helvetica,sans-Serif" font-size="10.00"> &lt; std::array&lt; ElementType,</text>
<text text-anchor="middle" x="402" y="-93.5" font-family="Helvetica,sans-Serif" font-size="10.00"> size &gt; &gt;</text>
</g>
<!-- Node9 -->
<g id="node9" class="node">
<title>Node9</title>
<g id="a_node9"><a xlink:href="structlemons_1_1serializing_1_1STLContainerInterface.html" target="_top" xlink:title=" ">
<polygon fill="none" stroke="black" points="542,-144 542,-185 673,-185 673,-144 542,-144"/>
<text text-anchor="start" x="550" y="-173" font-family="Helvetica,sans-Serif" font-size="10.00">lemons::serializing</text>
<text text-anchor="start" x="550" y="-162" font-family="Helvetica,sans-Serif" font-size="10.00">::STLContainerInterface</text>
<text text-anchor="middle" x="607.5" y="-151" font-family="Helvetica,sans-Serif" font-size="10.00">&lt; ContainerType &gt;</text>
</a>
</g>
</g>
<!-- Node8&#45;&gt;Node9 -->
<g id="edge8" class="edge">
<title>Node8&#45;&gt;Node9</title>
<path fill="none" stroke="midnightblue" d="M312.24,-149.77C314.85,-150.03 317.45,-150.27 320,-150.5 396.02,-157.25 483.69,-160.94 541.83,-162.81"/>
<polygon fill="midnightblue" stroke="midnightblue" points="312.38,-146.27 302.07,-148.71 311.65,-153.23 312.38,-146.27"/>
</g>
</g>
</svg>
        <g id="navigator" transform="translate(0 0)" fill="#404254">
                <rect fill="#f2f5e9" fill-opacity="0.5" stroke="#606060" stroke-width=".5" x="0" y="0" width="60" height="60"/>
                <use id="zoomplus" xlink:href="#zoomPlus" x="17" y="9" onmousedown="handleZoom(evt,'in')"/>
                <use id="zoomminus" xlink:href="#zoomMin" x="42" y="9" onmousedown="handleZoom(evt,'out')"/>
                <use id="reset" xlink:href="#resetDef" x="30" y="36" onmousedown="handleReset()"/>
                <g id="arrowUp" xlink:href="#dirArrow" transform="translate(30 24)" onmousedown="handlePan(0,-1)">
                  <use xlink:href="#rim" fill="#404040">
                        <set attributeName="fill" to="#808080" begin="arrowUp.mouseover" end="arrowUp.mouseout"/>
                  </use>
                  <path fill="none" stroke="white" stroke-width="1.5" d="M0,-3.0v7 M-2.5,-0.5L0,-3.0L2.5,-0.5"/>
                </g>
                <g id="arrowRight" xlink:href="#dirArrow" transform="rotate(90) translate(36 -43)" onmousedown="handlePan(1,0)">
                  <use xlink:href="#rim" fill="#404040">
                        <set attributeName="fill" to="#808080" begin="arrowRight.mouseover" end="arrowRight.mouseout"/>
                  </use>
                  <path fill="none" stroke="white" stroke-width="1.5" d="M0,-3.0v7 M-2.5,-0.5L0,-3.0L2.5,-0.5"/>
                </g>
                <g id="arrowDown" xlink:href="#dirArrow" transform="rotate(180) translate(-30 -48)" onmousedown="handlePan(0,1)">
                  <use xlink:href="#rim" fill="#404040">
                        <set attributeName="fill" to="#808080" begin="arrowDown.mouseover" end="arrowDown.mouseout"/>
                  </use>
                  <path fill="none" stroke="white" stroke-width="1.5" d="M0,-3.0v7 M-2.5,-0.5L0,-3.0L2.5,-0.5"/>
                </g>
                <g id="arrowLeft" xlink:href="#dirArrow" transform="rotate(270) translate(-36 17)" onmousedown="handlePan(-1,0)">
                  <use xlink:href="#rim" fill="#404040">
                        <set attributeName="fill" to="#808080" begin="arrowLeft.mouseover" end="arrowLeft.mouseout"/>
                  </use>
                  <path fill="none" stroke="white" stroke-width="1.5" d="M0,-3.0v7 M-2.5,-0.5L0,-3.0L2.5,-0.5"/>
                </g>
        </g>
        <svg viewBox="0 0 15 15" width="100%" height="30px" preserveAspectRatio="xMaxYMin meet">
         <g id="arrow_out" transform="scale(0.3 0.3)">
          <a xlink:href="structlemons_1_1serializing_1_1ContainerInterface__inherit__graph_org.svg" target="_base">
           <rect id="button" ry="5" rx="5" y="6" x="6" height="38" width="38"
                fill="#f2f5e9" fill-opacity="0.5" stroke="#606060" stroke-width="1.0"/>
           <path id="arrow"
             d="M 11.500037,31.436501 C 11.940474,20.09759 22.043105,11.32322 32.158766,21.979434 L 37.068811,17.246167 C 37.068811,17.246167 37.088388,32 37.088388,32 L 22.160133,31.978069 C 22.160133,31.978069 26.997745,27.140456 26.997745,27.140456 C 18.528582,18.264221 13.291696,25.230495 11.500037,31.436501 z"
             style="fill:#404040;"/>
          </a>
         </g>
        </svg>
</svg>
