<?xml version="1.0" encoding="UTF-8" standalone="no"?>
<!DOCTYPE svg PUBLIC "-//W3C//DTD SVG 1.1//EN"
 "http://www.w3.org/Graphics/SVG/1.1/DTD/svg11.dtd">
<!-- Generated by graphviz version 2.49.3 (20211023.0002)
 -->
<!-- Title: lemons::dsp::factory::EngineCreator Pages: 1 -->
<svg width="280pt" height="110pt"
 viewBox="0.00 0.00 280.00 110.00" xmlns="http://www.w3.org/2000/svg" xmlns:xlink="http://www.w3.org/1999/xlink">
<g id="graph0" class="graph" transform="scale(1 1) rotate(0) translate(4 106)">
<title>lemons::dsp::factory::EngineCreator</title>
<!-- Node1 -->
<g id="node1" class="node">
<title>Node1</title>
<g id="a_node1"><a xlink:title=" ">
<polygon fill="#bfbfbf" stroke="black" points="0,-36 0,-66 105,-66 105,-36 0,-36"/>
<text text-anchor="start" x="8" y="-54" font-family="Helvetica,sans-Serif" font-size="10.00">lemons::dsp::factory</text>
<text text-anchor="middle" x="52.5" y="-43" font-family="Helvetica,sans-Serif" font-size="10.00">::EngineCreator</text>
</a>
</g>
</g>
<!-- Node2 -->
<g id="node2" class="node">
<title>Node2</title>
<g id="a_node2"><a xlink:href="structlemons_1_1dsp_1_1factory_1_1_arguments_engine_creator.html" target="_top" xlink:title=" ">
<polygon fill="none" stroke="black" points="141,-60.5 141,-101.5 272,-101.5 272,-60.5 141,-60.5"/>
<text text-anchor="start" x="149" y="-89.5" font-family="Helvetica,sans-Serif" font-size="10.00">lemons::dsp::factory</text>
<text text-anchor="start" x="149" y="-78.5" font-family="Helvetica,sans-Serif" font-size="10.00">::ArgumentsEngineCreator</text>
<text text-anchor="middle" x="206.5" y="-67.5" font-family="Helvetica,sans-Serif" font-size="10.00">&lt; EngineType, Args &gt;</text>
</a>
</g>
</g>
<!-- Node1&#45;&gt;Node2 -->
<g id="edge1" class="edge">
<title>Node1&#45;&gt;Node2</title>
<path fill="none" stroke="midnightblue" d="M115.2,-63.18C123.68,-64.85 132.41,-66.57 140.94,-68.26"/>
<polygon fill="midnightblue" stroke="midnightblue" points="115.87,-59.74 105.38,-61.24 114.52,-66.61 115.87,-59.74"/>
</g>
<!-- Node3 -->
<g id="node3" class="node">
<title>Node3</title>
<g id="a_node3"><a xlink:href="structlemons_1_1dsp_1_1factory_1_1_default_engine_creator.html" target="_top" xlink:title=" ">
<polygon fill="none" stroke="black" points="149.5,-0.5 149.5,-41.5 263.5,-41.5 263.5,-0.5 149.5,-0.5"/>
<text text-anchor="start" x="157.5" y="-29.5" font-family="Helvetica,sans-Serif" font-size="10.00">lemons::dsp::factory</text>
<text text-anchor="start" x="157.5" y="-18.5" font-family="Helvetica,sans-Serif" font-size="10.00">::DefaultEngineCreator</text>
<text text-anchor="middle" x="206.5" y="-7.5" font-family="Helvetica,sans-Serif" font-size="10.00">&lt; EngineType, &gt;</text>
</a>
</g>
</g>
<!-- Node1&#45;&gt;Node3 -->
<g id="edge2" class="edge">
<title>Node1&#45;&gt;Node3</title>
<path fill="none" stroke="midnightblue" d="M115.2,-38.82C126.52,-36.59 138.28,-34.27 149.43,-32.07"/>
<polygon fill="midnightblue" stroke="midnightblue" points="114.52,-35.39 105.38,-40.76 115.87,-42.26 114.52,-35.39"/>
</g>
</g>
</svg>
