<?xml version="1.0" encoding="UTF-8" standalone="no"?>
<!DOCTYPE svg PUBLIC "-//W3C//DTD SVG 1.1//EN"
 "http://www.w3.org/Graphics/SVG/1.1/DTD/svg11.dtd">
<!-- Generated by graphviz version 2.43.0 (0)
 -->
<!-- Title: lemons::plugin::FloatAmountParameter Pages: 1 -->
<svg width="277pt" height="288pt"
 viewBox="0.00 0.00 276.50 288.00" xmlns="http://www.w3.org/2000/svg" xmlns:xlink="http://www.w3.org/1999/xlink">
<g id="graph0" class="graph" transform="scale(1 1) rotate(0) translate(4 284)">
<title>lemons::plugin::FloatAmountParameter</title>
<!-- Node1 -->
<g id="node1" class="node">
<title>Node1</title>
<g id="a_node1"><a xlink:title=" ">
<polygon fill="#bfbfbf" stroke="black" points="4,-0.5 4,-30.5 162,-30.5 162,-0.5 4,-0.5"/>
<text text-anchor="start" x="12" y="-18.5" font-family="Helvetica,sans-Serif" font-size="10.00">lemons::plugin::FloatAmount</text>
<text text-anchor="middle" x="83" y="-7.5" font-family="Helvetica,sans-Serif" font-size="10.00">Parameter</text>
</a>
</g>
</g>
<!-- Node2 -->
<g id="node2" class="node">
<title>Node2</title>
<g id="a_node2"><a xlink:href="classlemons_1_1plugin_1_1_typed_parameter.html" target="_top" xlink:title=" ">
<polygon fill="none" stroke="black" points="37,-68.5 37,-87.5 129,-87.5 129,-68.5 37,-68.5"/>
<text text-anchor="middle" x="83" y="-75.5" font-family="Helvetica,sans-Serif" font-size="10.00">FloatParameter</text>
</a>
</g>
</g>
<!-- Node2&#45;&gt;Node1 -->
<g id="edge1" class="edge">
<title>Node2&#45;&gt;Node1</title>
<path fill="none" stroke="midnightblue" d="M83,-58.22C83,-49.36 83,-38.96 83,-30.76"/>
<polygon fill="midnightblue" stroke="midnightblue" points="79.5,-58.33 83,-68.33 86.5,-58.33 79.5,-58.33"/>
</g>
<!-- Node3 -->
<g id="node3" class="node">
<title>Node3</title>
<g id="a_node3"><a xlink:href="classlemons_1_1plugin_1_1_parameter.html" target="_top" xlink:title=" ">
<polygon fill="none" stroke="black" points="6.5,-203.5 6.5,-222.5 151.5,-222.5 151.5,-203.5 6.5,-203.5"/>
<text text-anchor="middle" x="79" y="-210.5" font-family="Helvetica,sans-Serif" font-size="10.00">lemons::plugin::Parameter</text>
</a>
</g>
</g>
<!-- Node3&#45;&gt;Node2 -->
<g id="edge2" class="edge">
<title>Node3&#45;&gt;Node2</title>
<path fill="none" stroke="midnightblue" d="M79.57,-193.13C80.45,-163.88 82.1,-108.76 82.74,-87.59"/>
<polygon fill="midnightblue" stroke="midnightblue" points="76.06,-193.17 79.26,-203.27 83.06,-193.38 76.06,-193.17"/>
</g>
<!-- Node5 -->
<g id="node5" class="node">
<title>Node5</title>
<g id="a_node5"><a xlink:href="classlemons_1_1plugin_1_1_typed_parameter.html" target="_top" xlink:title=" ">
<polygon fill="none" stroke="black" points="95.5,-135.5 95.5,-165.5 268.5,-165.5 268.5,-135.5 95.5,-135.5"/>
<text text-anchor="start" x="103.5" y="-153.5" font-family="Helvetica,sans-Serif" font-size="10.00">lemons::plugin::TypedParameter</text>
<text text-anchor="middle" x="182" y="-142.5" font-family="Helvetica,sans-Serif" font-size="10.00">&lt; ValueType &gt;</text>
</a>
</g>
</g>
<!-- Node3&#45;&gt;Node5 -->
<g id="edge5" class="edge">
<title>Node3&#45;&gt;Node5</title>
<path fill="none" stroke="midnightblue" d="M102.82,-198.01C119.43,-188.25 141.5,-175.29 158.12,-165.53"/>
<polygon fill="midnightblue" stroke="midnightblue" points="100.61,-195.25 93.76,-203.33 104.15,-201.28 100.61,-195.25"/>
</g>
<!-- Node4 -->
<g id="node4" class="node">
<title>Node4</title>
<g id="a_node4"><a xlink:title=" ">
<polygon fill="none" stroke="#bfbfbf" points="0,-260.5 0,-279.5 158,-279.5 158,-260.5 0,-260.5"/>
<text text-anchor="middle" x="79" y="-267.5" font-family="Helvetica,sans-Serif" font-size="10.00">juce::RangedAudioParameter</text>
</a>
</g>
</g>
<!-- Node4&#45;&gt;Node3 -->
<g id="edge3" class="edge">
<title>Node4&#45;&gt;Node3</title>
<path fill="none" stroke="midnightblue" d="M79,-250.12C79,-240.82 79,-230.06 79,-222.71"/>
<polygon fill="midnightblue" stroke="midnightblue" points="75.5,-250.41 79,-260.41 82.5,-250.41 75.5,-250.41"/>
</g>
<!-- Node5&#45;&gt;Node2 -->
<g id="edge4" class="edge">
<title>Node5&#45;&gt;Node2</title>
<path fill="none" stroke="orange" stroke-dasharray="5,2" d="M153.78,-129.4C134.43,-115.62 109.72,-98.03 95.2,-87.69"/>
<polygon fill="orange" stroke="orange" points="151.79,-132.28 161.97,-135.23 155.85,-126.58 151.79,-132.28"/>
<text text-anchor="middle" x="159" y="-109" font-family="Helvetica,sans-Serif" font-size="10.00"> &lt; float &gt;</text>
</g>
</g>
</svg>
