<?xml version="1.0" encoding="UTF-8" standalone="no"?>
<!DOCTYPE svg PUBLIC "-//W3C//DTD SVG 1.1//EN"
 "http://www.w3.org/Graphics/SVG/1.1/DTD/svg11.dtd">
<!-- Generated by graphviz version 2.43.0 (0)
 -->
<!-- Title: lemons::plugin::ParamHolderBase Pages: 1 -->
<!--zoomable 97 -->
<svg id="main" version="1.1" xmlns="http://www.w3.org/2000/svg" xmlns:xlink="http://www.w3.org/1999/xlink" xml:space="preserve" onload="init(evt)">
<style type="text/css"><![CDATA[
.edge:hover path { stroke: red; }
.edge:hover polygon { stroke: red; fill: red; }
]]></style>
<script type="text/javascript"><![CDATA[
var edges = document.getElementsByTagName('g');
if (edges && edges.length) {
  for (var i=0;i<edges.length;i++) {
    if (edges[i].id.substr(0,4)=='edge') {
      edges[i].setAttribute('class','edge');
    }
  }
}
]]></script>
        <defs>
                <circle id="rim" cx="0" cy="0" r="7"/>
                <circle id="rim2" cx="0" cy="0" r="3.5"/>
                <g id="zoomPlus">
                        <use xlink:href="#rim" fill="#404040">
                                <set attributeName="fill" to="#808080" begin="zoomplus.mouseover" end="zoomplus.mouseout"/>
                        </use>
                        <path d="M-4,0h8M0,-4v8" fill="none" stroke="white" stroke-width="1.5" pointer-events="none"/>
                </g>
                <g id="zoomMin">
                        <use xlink:href="#rim" fill="#404040">
                                <set attributeName="fill" to="#808080" begin="zoomminus.mouseover" end="zoomminus.mouseout"/>
                        </use>
                        <path d="M-4,0h8" fill="none" stroke="white" stroke-width="1.5" pointer-events="none"/>
                </g>
                <g id="dirArrow">
                        <path fill="none" stroke="white" stroke-width="1.5" d="M0,-3.0v7 M-2.5,-0.5L0,-3.0L2.5,-0.5"/>
                </g>
               <g id="resetDef">
                       <use xlink:href="#rim2" fill="#404040">
                               <set attributeName="fill" to="#808080" begin="reset.mouseover" end="reset.mouseout"/>
                       </use>
               </g>
        </defs>

<script type="text/javascript">
var viewWidth = 975;
var viewHeight = 97;
var sectionId = 'dynsection-0';
</script>
<script xlink:href="svgpan.js"/>
<svg id="graph" class="graph">
<g id="viewport">
<title>lemons::plugin::ParamHolderBase</title>
<!-- Node1 -->
<g id="node1" class="node">
<title>Node1</title>
<g id="a_node1"><a xlink:title="Base class for ParameterHolder that allows any kind of parameter to be accessed without knowing the f...">
<polygon fill="#bfbfbf" stroke="black" points="176,-31 176,-50 358,-50 358,-31 176,-31"/>
<text text-anchor="middle" x="267" y="-38" font-family="Helvetica,sans-Serif" font-size="10.00">lemons::plugin::ParamHolderBase</text>
</a>
</g>
</g>
<!-- Node3 -->
<g id="node3" class="node">
<title>Node3</title>
<g id="a_node3"><a xlink:href="classlemons_1_1plugin_1_1ParameterHolder.html" target="_top" xlink:title="Class that holds a parameter object, and can retain a reference to it after it has been added to an A...">
<polygon fill="none" stroke="black" points="395,-25.5 395,-55.5 540,-55.5 540,-25.5 395,-25.5"/>
<text text-anchor="start" x="403" y="-43.5" font-family="Helvetica,sans-Serif" font-size="10.00">lemons::plugin::Parameter</text>
<text text-anchor="middle" x="467.5" y="-32.5" font-family="Helvetica,sans-Serif" font-size="10.00">Holder&lt; ParameterType &gt;</text>
</a>
</g>
</g>
<!-- Node1&#45;&gt;Node3 -->
<g id="edge2" class="edge">
<title>Node1&#45;&gt;Node3</title>
<path fill="none" stroke="midnightblue" d="M368.35,-40.5C377.32,-40.5 386.27,-40.5 394.91,-40.5"/>
<polygon fill="midnightblue" stroke="midnightblue" points="368.25,-37 358.25,-40.5 368.25,-44 368.25,-37"/>
</g>
<!-- Node4 -->
<g id="node4" class="node">
<title>Node4</title>
<g id="a_node4"><a xlink:href="classlemons_1_1plugin_1_1ParameterHolder.html" target="_top" xlink:title=" ">
<polygon fill="none" stroke="black" points="763.5,-58.5 763.5,-88.5 952.5,-88.5 952.5,-58.5 763.5,-58.5"/>
<text text-anchor="start" x="771.5" y="-76.5" font-family="Helvetica,sans-Serif" font-size="10.00">lemons::plugin::Parameter</text>
<text text-anchor="middle" x="858" y="-65.5" font-family="Helvetica,sans-Serif" font-size="10.00">Holder&lt; plugin::ToggleParameter &gt;</text>
</a>
</g>
</g>
<!-- Node1&#45;&gt;Node4 -->
<g id="edge6" class="edge">
<title>Node1&#45;&gt;Node4</title>
<path fill="none" stroke="midnightblue" d="M320.51,-52.03C343.3,-56.62 370.36,-61.5 395,-64.5 521.82,-79.92 669.64,-79.64 763.26,-77.22"/>
<polygon fill="midnightblue" stroke="midnightblue" points="321.19,-48.6 310.69,-50.02 319.79,-55.46 321.19,-48.6"/>
</g>
<!-- Node5 -->
<g id="node5" class="node">
<title>Node5</title>
<g id="a_node5"><a xlink:href="classlemons_1_1plugin_1_1ParameterHolder.html" target="_top" xlink:title=" ">
<polygon fill="none" stroke="black" points="749,-0.5 749,-30.5 967,-30.5 967,-0.5 749,-0.5"/>
<text text-anchor="start" x="757" y="-18.5" font-family="Helvetica,sans-Serif" font-size="10.00">lemons::plugin::Parameter</text>
<text text-anchor="middle" x="858" y="-7.5" font-family="Helvetica,sans-Serif" font-size="10.00">Holder&lt; plugin::DefaultMetaParameter &gt;</text>
</a>
</g>
</g>
<!-- Node1&#45;&gt;Node5 -->
<g id="edge5" class="edge">
<title>Node1&#45;&gt;Node5</title>
<path fill="none" stroke="midnightblue" d="M315.84,-28.8C339.5,-23.6 368.58,-18.08 395,-15.5 515.74,-3.73 655.08,-5.87 748.89,-9.59"/>
<polygon fill="midnightblue" stroke="midnightblue" points="315.05,-25.39 306.06,-31 316.58,-32.22 315.05,-25.39"/>
</g>
<!-- Node2 -->
<g id="node2" class="node">
<title>Node2</title>
<g id="a_node2"><a xlink:href="structlemons_1_1SerializableData.html" target="_top" xlink:title="Base class for any C++ object that needs to be serialized to binary and back.">
<polygon fill="none" stroke="black" points="0,-31 0,-50 139,-50 139,-31 0,-31"/>
<text text-anchor="middle" x="69.5" y="-38" font-family="Helvetica,sans-Serif" font-size="10.00">lemons::SerializableData</text>
</a>
</g>
</g>
<!-- Node2&#45;&gt;Node1 -->
<g id="edge1" class="edge">
<title>Node2&#45;&gt;Node1</title>
<path fill="none" stroke="midnightblue" d="M149.31,-40.5C158.06,-40.5 167.02,-40.5 175.9,-40.5"/>
<polygon fill="midnightblue" stroke="midnightblue" points="149.15,-37 139.15,-40.5 149.15,-44 149.15,-37"/>
</g>
<!-- Node3&#45;&gt;Node4 -->
<g id="edge3" class="edge">
<title>Node3&#45;&gt;Node4</title>
<path fill="none" stroke="orange" stroke-dasharray="5,2" d="M550.22,-47.28C602.02,-51.59 670.45,-57.32 731,-62.5 741.5,-63.4 752.49,-64.35 763.43,-65.29"/>
<polygon fill="orange" stroke="orange" points="550.34,-43.77 540.09,-46.43 549.76,-50.75 550.34,-43.77"/>
<text text-anchor="middle" x="644.5" y="-65.5" font-family="Helvetica,sans-Serif" font-size="10.00"> &lt; plugin::ToggleParameter &gt;</text>
</g>
<!-- Node3&#45;&gt;Node5 -->
<g id="edge4" class="edge">
<title>Node3&#45;&gt;Node5</title>
<path fill="none" stroke="orange" stroke-dasharray="5,2" d="M550.32,-29.23C552.91,-28.97 555.47,-28.72 558,-28.5 621.14,-22.91 692.01,-19.69 748.9,-17.86"/>
<polygon fill="orange" stroke="orange" points="549.82,-25.76 540.25,-30.3 550.56,-32.72 549.82,-25.76"/>
<text text-anchor="middle" x="644.5" y="-31.5" font-family="Helvetica,sans-Serif" font-size="10.00"> &lt; plugin::DefaultMetaParameter &gt;</text>
</g>
</g>
</svg>
        <g id="navigator" transform="translate(0 0)" fill="#404254">
                <rect fill="#f2f5e9" fill-opacity="0.5" stroke="#606060" stroke-width=".5" x="0" y="0" width="60" height="60"/>
                <use id="zoomplus" xlink:href="#zoomPlus" x="17" y="9" onmousedown="handleZoom(evt,'in')"/>
                <use id="zoomminus" xlink:href="#zoomMin" x="42" y="9" onmousedown="handleZoom(evt,'out')"/>
                <use id="reset" xlink:href="#resetDef" x="30" y="36" onmousedown="handleReset()"/>
                <g id="arrowUp" xlink:href="#dirArrow" transform="translate(30 24)" onmousedown="handlePan(0,-1)">
                  <use xlink:href="#rim" fill="#404040">
                        <set attributeName="fill" to="#808080" begin="arrowUp.mouseover" end="arrowUp.mouseout"/>
                  </use>
                  <path fill="none" stroke="white" stroke-width="1.5" d="M0,-3.0v7 M-2.5,-0.5L0,-3.0L2.5,-0.5"/>
                </g>
                <g id="arrowRight" xlink:href="#dirArrow" transform="rotate(90) translate(36 -43)" onmousedown="handlePan(1,0)">
                  <use xlink:href="#rim" fill="#404040">
                        <set attributeName="fill" to="#808080" begin="arrowRight.mouseover" end="arrowRight.mouseout"/>
                  </use>
                  <path fill="none" stroke="white" stroke-width="1.5" d="M0,-3.0v7 M-2.5,-0.5L0,-3.0L2.5,-0.5"/>
                </g>
                <g id="arrowDown" xlink:href="#dirArrow" transform="rotate(180) translate(-30 -48)" onmousedown="handlePan(0,1)">
                  <use xlink:href="#rim" fill="#404040">
                        <set attributeName="fill" to="#808080" begin="arrowDown.mouseover" end="arrowDown.mouseout"/>
                  </use>
                  <path fill="none" stroke="white" stroke-width="1.5" d="M0,-3.0v7 M-2.5,-0.5L0,-3.0L2.5,-0.5"/>
                </g>
                <g id="arrowLeft" xlink:href="#dirArrow" transform="rotate(270) translate(-36 17)" onmousedown="handlePan(-1,0)">
                  <use xlink:href="#rim" fill="#404040">
                        <set attributeName="fill" to="#808080" begin="arrowLeft.mouseover" end="arrowLeft.mouseout"/>
                  </use>
                  <path fill="none" stroke="white" stroke-width="1.5" d="M0,-3.0v7 M-2.5,-0.5L0,-3.0L2.5,-0.5"/>
                </g>
        </g>
        <svg viewBox="0 0 15 15" width="100%" height="30px" preserveAspectRatio="xMaxYMin meet">
         <g id="arrow_out" transform="scale(0.3 0.3)">
          <a xlink:href="structlemons_1_1plugin_1_1ParamHolderBase__inherit__graph_org.svg" target="_base">
           <rect id="button" ry="5" rx="5" y="6" x="6" height="38" width="38"
                fill="#f2f5e9" fill-opacity="0.5" stroke="#606060" stroke-width="1.0"/>
           <path id="arrow"
             d="M 11.500037,31.436501 C 11.940474,20.09759 22.043105,11.32322 32.158766,21.979434 L 37.068811,17.246167 C 37.068811,17.246167 37.088388,32 37.088388,32 L 22.160133,31.978069 C 22.160133,31.978069 26.997745,27.140456 26.997745,27.140456 C 18.528582,18.264221 13.291696,25.230495 11.500037,31.436501 z"
             style="fill:#404040;"/>
          </a>
         </g>
        </svg>
</svg>
