<?xml version="1.0" encoding="UTF-8" standalone="no"?>
<!DOCTYPE svg PUBLIC "-//W3C//DTD SVG 1.1//EN"
 "http://www.w3.org/Graphics/SVG/1.1/DTD/svg11.dtd">
<!-- Generated by graphviz version 2.43.0 (0)
 -->
<!-- Title: lemons::serializing::StdArrayInterface&lt; ElementType, size &gt; Pages: 1 -->
<svg width="802pt" height="83pt"
 viewBox="0.00 0.00 802.00 82.50" xmlns="http://www.w3.org/2000/svg" xmlns:xlink="http://www.w3.org/1999/xlink">
<g id="graph0" class="graph" transform="scale(1 1) rotate(0) translate(4 78.5)">
<title>lemons::serializing::StdArrayInterface&lt; ElementType, size &gt;</title>
<!-- Node1 -->
<g id="node1" class="node">
<title>Node1</title>
<g id="a_node1"><a xlink:title="Container interface that provides support for serializing std::arrays with TreeReflector.">
<polygon fill="#bfbfbf" stroke="black" points="666,-27.5 666,-68.5 794,-68.5 794,-27.5 666,-27.5"/>
<text text-anchor="start" x="674" y="-56.5" font-family="Helvetica,sans-Serif" font-size="10.00">lemons::serializing</text>
<text text-anchor="start" x="674" y="-45.5" font-family="Helvetica,sans-Serif" font-size="10.00">::StdArrayInterface</text>
<text text-anchor="middle" x="730" y="-34.5" font-family="Helvetica,sans-Serif" font-size="10.00">&lt; ElementType, size &gt;</text>
</a>
</g>
</g>
<!-- Node2 -->
<g id="node2" class="node">
<title>Node2</title>
<g id="a_node2"><a xlink:href="structlemons_1_1serializing_1_1LambdaContainerInterface.html" target="_top" xlink:title=" ">
<polygon fill="none" stroke="black" points="477,-22 477,-74 629,-74 629,-22 477,-22"/>
<text text-anchor="start" x="485" y="-62" font-family="Helvetica,sans-Serif" font-size="10.00">lemons::serializing</text>
<text text-anchor="start" x="485" y="-51" font-family="Helvetica,sans-Serif" font-size="10.00">::LambdaContainerInterface</text>
<text text-anchor="start" x="485" y="-40" font-family="Helvetica,sans-Serif" font-size="10.00">&lt; std::array&lt; ElementType,</text>
<text text-anchor="middle" x="553" y="-29" font-family="Helvetica,sans-Serif" font-size="10.00"> size &gt; &gt;</text>
</a>
</g>
</g>
<!-- Node2&#45;&gt;Node1 -->
<g id="edge1" class="edge">
<title>Node2&#45;&gt;Node1</title>
<path fill="none" stroke="midnightblue" d="M639.32,-48C648.28,-48 657.27,-48 665.91,-48"/>
<polygon fill="midnightblue" stroke="midnightblue" points="639.23,-44.5 629.23,-48 639.23,-51.5 639.23,-44.5"/>
</g>
<!-- Node3 -->
<g id="node3" class="node">
<title>Node3</title>
<g id="a_node3"><a xlink:href="structlemons_1_1serializing_1_1ContainerInterface.html" target="_top" xlink:title="Interface that defines how a TreeReflector can resize a given container during deserialization.">
<polygon fill="none" stroke="black" points="0,-30 0,-60 113,-60 113,-30 0,-30"/>
<text text-anchor="start" x="8" y="-48" font-family="Helvetica,sans-Serif" font-size="10.00">lemons::serializing</text>
<text text-anchor="middle" x="56.5" y="-37" font-family="Helvetica,sans-Serif" font-size="10.00">::ContainerInterface</text>
</a>
</g>
</g>
<!-- Node3&#45;&gt;Node2 -->
<g id="edge2" class="edge">
<title>Node3&#45;&gt;Node2</title>
<path fill="none" stroke="midnightblue" d="M123.41,-49.64C202.97,-54.59 340.82,-61.07 459,-56 464.83,-55.75 470.86,-55.41 476.91,-55.02"/>
<polygon fill="midnightblue" stroke="midnightblue" points="123.25,-46.13 113.05,-48.99 122.81,-53.11 123.25,-46.13"/>
</g>
<!-- Node4 -->
<g id="node4" class="node">
<title>Node4</title>
<g id="a_node4"><a xlink:href="structlemons_1_1serializing_1_1LambdaContainerInterface.html" target="_top" xlink:title="Provides a slightly slicker interface to ContainerInterface, allowing you to supply a lambda function...">
<polygon fill="none" stroke="black" points="150,-0.5 150,-41.5 302,-41.5 302,-0.5 150,-0.5"/>
<text text-anchor="start" x="158" y="-29.5" font-family="Helvetica,sans-Serif" font-size="10.00">lemons::serializing</text>
<text text-anchor="start" x="158" y="-18.5" font-family="Helvetica,sans-Serif" font-size="10.00">::LambdaContainerInterface</text>
<text text-anchor="middle" x="226" y="-7.5" font-family="Helvetica,sans-Serif" font-size="10.00">&lt; ContainerType &gt;</text>
</a>
</g>
</g>
<!-- Node3&#45;&gt;Node4 -->
<g id="edge4" class="edge">
<title>Node3&#45;&gt;Node4</title>
<path fill="none" stroke="midnightblue" d="M123.32,-35.57C132.01,-34.32 140.96,-33.04 149.79,-31.78"/>
<polygon fill="midnightblue" stroke="midnightblue" points="122.68,-32.13 113.28,-37.01 123.67,-39.05 122.68,-32.13"/>
</g>
<!-- Node4&#45;&gt;Node2 -->
<g id="edge3" class="edge">
<title>Node4&#45;&gt;Node2</title>
<path fill="none" stroke="orange" stroke-dasharray="5,2" d="M312.17,-23.87C356.11,-25.83 410.51,-29 459,-34 464.85,-34.6 470.89,-35.31 476.95,-36.09"/>
<polygon fill="orange" stroke="orange" points="312.25,-20.37 302.11,-23.43 311.95,-27.36 312.25,-20.37"/>
<text text-anchor="start" x="320" y="-48" font-family="Helvetica,sans-Serif" font-size="10.00"> &lt; std::array&lt; ElementType,</text>
<text text-anchor="middle" x="389.5" y="-37" font-family="Helvetica,sans-Serif" font-size="10.00"> size &gt; &gt;</text>
</g>
</g>
</svg>
