<?xml version="1.0" encoding="UTF-8" standalone="no"?>
<!DOCTYPE svg PUBLIC "-//W3C//DTD SVG 1.1//EN"
 "http://www.w3.org/Graphics/SVG/1.1/DTD/svg11.dtd">
<!-- Generated by graphviz version 2.49.1 (20210923.0004)
 -->
<!-- Title: lemons::plugin::TypedParameter&lt; ValueType &gt;::Listener Pages: 1 -->
<svg width="258pt" height="162pt"
 viewBox="0.00 0.00 257.50 162.00" xmlns="http://www.w3.org/2000/svg" xmlns:xlink="http://www.w3.org/1999/xlink">
<g id="graph0" class="graph" transform="scale(1 1) rotate(0) translate(4 158)">
<title>lemons::plugin::TypedParameter&lt; ValueType &gt;::Listener</title>
<!-- Node1 -->
<g id="node1" class="node">
<title>Node1</title>
<g id="a_node1"><a xlink:title="A class that will recieve updates when aspects of a TypedParameter change.">
<polygon fill="#bfbfbf" stroke="black" points="47.5,-56.5 47.5,-86.5 207.5,-86.5 207.5,-56.5 47.5,-56.5"/>
<text text-anchor="start" x="55.5" y="-74.5" font-family="Helvetica,sans-Serif" font-size="10.00">lemons::plugin::TypedParameter</text>
<text text-anchor="middle" x="127.5" y="-63.5" font-family="Helvetica,sans-Serif" font-size="10.00">&lt; ValueType &gt;::Listener</text>
</a>
</g>
</g>
<!-- Node3 -->
<g id="node3" class="node">
<title>Node3</title>
<g id="a_node3"><a xlink:href="classlemons_1_1gui_1_1FloatSlider.html" target="_top" xlink:title="Plugin slider that attaches to a float parameter.">
<polygon fill="none" stroke="black" points="0,-0.5 0,-19.5 121,-19.5 121,-0.5 0,-0.5"/>
<text text-anchor="middle" x="60.5" y="-7.5" font-family="Helvetica,sans-Serif" font-size="10.00">lemons::gui::FloatSlider</text>
</a>
</g>
</g>
<!-- Node1&#45;&gt;Node3 -->
<g id="edge2" class="edge">
<title>Node1&#45;&gt;Node3</title>
<path fill="none" stroke="#8b1a1a" d="M103.96,-49.6C92.38,-39.32 79.06,-27.48 70.25,-19.66"/>
<polygon fill="#8b1a1a" stroke="#8b1a1a" points="101.82,-52.38 111.62,-56.4 106.47,-47.14 101.82,-52.38"/>
</g>
<!-- Node4 -->
<g id="node4" class="node">
<title>Node4</title>
<g id="a_node4"><a xlink:href="classlemons_1_1gui_1_1IntSlider.html" target="_top" xlink:title="Plugin slider that attaches to an integer parameter.">
<polygon fill="none" stroke="black" points="139.5,-0.5 139.5,-19.5 249.5,-19.5 249.5,-0.5 139.5,-0.5"/>
<text text-anchor="middle" x="194.5" y="-7.5" font-family="Helvetica,sans-Serif" font-size="10.00">lemons::gui::IntSlider</text>
</a>
</g>
</g>
<!-- Node1&#45;&gt;Node4 -->
<g id="edge3" class="edge">
<title>Node1&#45;&gt;Node4</title>
<path fill="none" stroke="#8b1a1a" d="M151.04,-49.6C162.62,-39.32 175.94,-27.48 184.75,-19.66"/>
<polygon fill="#8b1a1a" stroke="#8b1a1a" points="148.53,-47.14 143.38,-56.4 153.18,-52.38 148.53,-47.14"/>
</g>
<!-- Node2 -->
<g id="node2" class="node">
<title>Node2</title>
<g id="a_node2"><a xlink:href="structlemons_1_1plugin_1_1Parameter_1_1Listener.html" target="_top" xlink:title="A Listener class that will be notified when aspects of a Parameter change.">
<polygon fill="none" stroke="black" points="61,-123.5 61,-153.5 194,-153.5 194,-123.5 61,-123.5"/>
<text text-anchor="start" x="69" y="-141.5" font-family="Helvetica,sans-Serif" font-size="10.00">lemons::plugin::Parameter</text>
<text text-anchor="middle" x="127.5" y="-130.5" font-family="Helvetica,sans-Serif" font-size="10.00">::Listener</text>
</a>
</g>
</g>
<!-- Node2&#45;&gt;Node1 -->
<g id="edge1" class="edge">
<title>Node2&#45;&gt;Node1</title>
<path fill="none" stroke="midnightblue" d="M127.5,-113.11C127.5,-104.15 127.5,-94.32 127.5,-86.58"/>
<polygon fill="midnightblue" stroke="midnightblue" points="124,-113.4 127.5,-123.4 131,-113.4 124,-113.4"/>
</g>
</g>
</svg>
