<?xml version="1.0" encoding="UTF-8" standalone="no"?>
<!DOCTYPE svg PUBLIC "-//W3C//DTD SVG 1.1//EN"
 "http://www.w3.org/Graphics/SVG/1.1/DTD/svg11.dtd">
<!-- Generated by graphviz version 2.49.1 (20210923.0004)
 -->
<!-- Title: lemons::dsp::FX::AudioEffect&lt; SampleType &gt; Pages: 1 -->
<!--zoomable 284 -->
<svg id="main" version="1.1" xmlns="http://www.w3.org/2000/svg" xmlns:xlink="http://www.w3.org/1999/xlink" xml:space="preserve" onload="init(evt)">
<style type="text/css"><![CDATA[
.edge:hover path { stroke: red; }
.edge:hover polygon { stroke: red; fill: red; }
]]></style>
<script type="text/javascript"><![CDATA[
var edges = document.getElementsByTagName('g');
if (edges && edges.length) {
  for (var i=0;i<edges.length;i++) {
    if (edges[i].id.substr(0,4)=='edge') {
      edges[i].setAttribute('class','edge');
    }
  }
}
]]></script>
        <defs>
                <circle id="rim" cx="0" cy="0" r="7"/>
                <circle id="rim2" cx="0" cy="0" r="3.5"/>
                <g id="zoomPlus">
                        <use xlink:href="#rim" fill="#404040">
                                <set attributeName="fill" to="#808080" begin="zoomplus.mouseover" end="zoomplus.mouseout"/>
                        </use>
                        <path d="M-4,0h8M0,-4v8" fill="none" stroke="white" stroke-width="1.5" pointer-events="none"/>
                </g>
                <g id="zoomMin">
                        <use xlink:href="#rim" fill="#404040">
                                <set attributeName="fill" to="#808080" begin="zoomminus.mouseover" end="zoomminus.mouseout"/>
                        </use>
                        <path d="M-4,0h8" fill="none" stroke="white" stroke-width="1.5" pointer-events="none"/>
                </g>
                <g id="dirArrow">
                        <path fill="none" stroke="white" stroke-width="1.5" d="M0,-3.0v7 M-2.5,-0.5L0,-3.0L2.5,-0.5"/>
                </g>
               <g id="resetDef">
                       <use xlink:href="#rim2" fill="#404040">
                               <set attributeName="fill" to="#808080" begin="reset.mouseover" end="reset.mouseout"/>
                       </use>
               </g>
        </defs>

<script type="text/javascript">
var viewWidth = 892;
var viewHeight = 284;
var sectionId = 'dynsection-0';
</script>
<script xlink:href="svgpan.js"/>
<svg id="graph" class="graph">
<g id="viewport">
<title>lemons::dsp::FX::AudioEffect&lt; SampleType &gt;</title>
<!-- Node1 -->
<g id="node1" class="node">
<title>Node1</title>
<g id="a_node1"><a xlink:title="Base class for any kind of audio effect.">
<polygon fill="#bfbfbf" stroke="black" points="163,-122.5 163,-152.5 308,-152.5 308,-122.5 163,-122.5"/>
<text text-anchor="start" x="171" y="-140.5" font-family="Helvetica,sans-Serif" font-size="10.00">lemons::dsp::FX::AudioEffect</text>
<text text-anchor="middle" x="235.5" y="-129.5" font-family="Helvetica,sans-Serif" font-size="10.00">&lt; SampleType &gt;</text>
</a>
</g>
</g>
<!-- Node3 -->
<g id="node3" class="node">
<title>Node3</title>
<g id="a_node3"><a xlink:href="classlemons_1_1dsp_1_1FX_1_1EQ.html" target="_top" xlink:title="An equalizer effect class.">
<polygon fill="none" stroke="black" points="368,-245.5 368,-275.5 477,-275.5 477,-245.5 368,-245.5"/>
<text text-anchor="start" x="376" y="-263.5" font-family="Helvetica,sans-Serif" font-size="10.00">lemons::dsp::FX::EQ</text>
<text text-anchor="middle" x="422.5" y="-252.5" font-family="Helvetica,sans-Serif" font-size="10.00">&lt; SampleType &gt;</text>
</a>
</g>
</g>
<!-- Node1&#45;&gt;Node3 -->
<g id="edge2" class="edge">
<title>Node1&#45;&gt;Node3</title>
<path fill="none" stroke="midnightblue" d="M255.89,-160.52C275.86,-182.88 308.94,-216.32 344,-236.5 351.32,-240.72 359.47,-244.27 367.66,-247.25"/>
<polygon fill="midnightblue" stroke="midnightblue" points="258.37,-158.04 249.14,-152.83 253.1,-162.66 258.37,-158.04"/>
</g>
<!-- Node4 -->
<g id="node4" class="node">
<title>Node4</title>
<g id="a_node4"><a xlink:href="classlemons_1_1dsp_1_1FX_1_1Filter.html" target="_top" xlink:title="A filter audio effect class that wraps the more low&#45;level filters::Filter.">
<polygon fill="none" stroke="black" points="364,-196.5 364,-226.5 481,-226.5 481,-196.5 364,-196.5"/>
<text text-anchor="start" x="372" y="-214.5" font-family="Helvetica,sans-Serif" font-size="10.00">lemons::dsp::FX::Filter</text>
<text text-anchor="middle" x="422.5" y="-203.5" font-family="Helvetica,sans-Serif" font-size="10.00">&lt; SampleType &gt;</text>
</a>
</g>
</g>
<!-- Node1&#45;&gt;Node4 -->
<g id="edge3" class="edge">
<title>Node1&#45;&gt;Node4</title>
<path fill="none" stroke="midnightblue" d="M276.29,-156.97C296.36,-166.44 321.22,-177.67 344,-186.5 352.96,-189.98 362.63,-193.37 372,-196.48"/>
<polygon fill="midnightblue" stroke="midnightblue" points="277.68,-153.75 267.14,-152.61 274.67,-160.07 277.68,-153.75"/>
</g>
<!-- Node5 -->
<g id="node5" class="node">
<title>Node5</title>
<g id="a_node5"><a xlink:href="classlemons_1_1dsp_1_1FX_1_1Saturator.html" target="_top" xlink:title=" ">
<polygon fill="none" stroke="black" points="355,-147.5 355,-177.5 490,-177.5 490,-147.5 355,-147.5"/>
<text text-anchor="start" x="363" y="-165.5" font-family="Helvetica,sans-Serif" font-size="10.00">lemons::dsp::FX::Saturator</text>
<text text-anchor="middle" x="422.5" y="-154.5" font-family="Helvetica,sans-Serif" font-size="10.00">&lt; SampleType &gt;</text>
</a>
</g>
</g>
<!-- Node1&#45;&gt;Node5 -->
<g id="edge4" class="edge">
<title>Node1&#45;&gt;Node5</title>
<path fill="none" stroke="#8b1a1a" d="M318.2,-148.54C330.4,-150.19 342.86,-151.87 354.71,-153.47"/>
<polygon fill="#8b1a1a" stroke="#8b1a1a" points="318.4,-145.04 308.03,-147.17 317.47,-151.97 318.4,-145.04"/>
</g>
<!-- Node6 -->
<g id="node6" class="node">
<title>Node6</title>
<g id="a_node6"><a xlink:href="structlemons_1_1dsp_1_1FX_1_1SidechainableAudioEffect.html" target="_top" xlink:title="Base class for audio effects that accept a sidechain signal.">
<polygon fill="none" stroke="black" points="344,-98.5 344,-128.5 501,-128.5 501,-98.5 344,-98.5"/>
<text text-anchor="start" x="352" y="-116.5" font-family="Helvetica,sans-Serif" font-size="10.00">lemons::dsp::FX::Sidechainable</text>
<text text-anchor="middle" x="422.5" y="-105.5" font-family="Helvetica,sans-Serif" font-size="10.00">AudioEffect&lt; SampleType &gt;</text>
</a>
</g>
</g>
<!-- Node1&#45;&gt;Node6 -->
<g id="edge5" class="edge">
<title>Node1&#45;&gt;Node6</title>
<path fill="none" stroke="midnightblue" d="M317.99,-126.93C326.54,-125.82 335.21,-124.69 343.72,-123.59"/>
<polygon fill="midnightblue" stroke="midnightblue" points="317.49,-123.46 308.03,-128.22 318.39,-130.41 317.49,-123.46"/>
</g>
<!-- Node13 -->
<g id="node13" class="node">
<title>Node13</title>
<g id="a_node13"><a xlink:href="classlemons_1_1dsp_1_1FX_1_1SmoothedGain.html" target="_top" xlink:title="A handy effect class that allows you to change the gain of a stream of audio, and will smooth the cha...">
<polygon fill="none" stroke="black" points="344.5,-49.5 344.5,-79.5 500.5,-79.5 500.5,-49.5 344.5,-49.5"/>
<text text-anchor="start" x="352.5" y="-67.5" font-family="Helvetica,sans-Serif" font-size="10.00">lemons::dsp::FX::Smoothed</text>
<text text-anchor="middle" x="422.5" y="-56.5" font-family="Helvetica,sans-Serif" font-size="10.00">Gain&lt; SampleType, channels &gt;</text>
</a>
</g>
</g>
<!-- Node1&#45;&gt;Node13 -->
<g id="edge12" class="edge">
<title>Node1&#45;&gt;Node13</title>
<path fill="none" stroke="midnightblue" d="M276.25,-117.92C296.3,-108.41 321.17,-97.2 344,-88.5 352.16,-85.39 360.91,-82.38 369.49,-79.6"/>
<polygon fill="midnightblue" stroke="midnightblue" points="274.62,-114.82 267.1,-122.29 277.64,-121.13 274.62,-114.82"/>
</g>
<!-- Node14 -->
<g id="node14" class="node">
<title>Node14</title>
<g id="a_node14"><a xlink:href="classlemons_1_1dsp_1_1FX_1_1StereoPanner.html" target="_top" xlink:title=" ">
<polygon fill="none" stroke="black" points="344.5,-0.5 344.5,-30.5 500.5,-30.5 500.5,-0.5 344.5,-0.5"/>
<text text-anchor="start" x="352.5" y="-18.5" font-family="Helvetica,sans-Serif" font-size="10.00">lemons::dsp::FX::StereoPanner</text>
<text text-anchor="middle" x="422.5" y="-7.5" font-family="Helvetica,sans-Serif" font-size="10.00">&lt; SampleType &gt;</text>
</a>
</g>
</g>
<!-- Node1&#45;&gt;Node14 -->
<g id="edge13" class="edge">
<title>Node1&#45;&gt;Node14</title>
<path fill="none" stroke="midnightblue" d="M255.94,-114.72C275.94,-92.59 309.06,-59.5 344,-39.5 349.87,-36.14 356.26,-33.2 362.77,-30.63"/>
<polygon fill="midnightblue" stroke="midnightblue" points="253.2,-112.53 249.18,-122.33 258.43,-117.18 253.2,-112.53"/>
</g>
<!-- Node2 -->
<g id="node2" class="node">
<title>Node2</title>
<g id="a_node2"><a xlink:href="structlemons_1_1SerializableData.html" target="_top" xlink:title="Base class for any C++ object that needs to be serialized to binary and back.">
<polygon fill="none" stroke="black" points="0,-128 0,-147 127,-147 127,-128 0,-128"/>
<text text-anchor="middle" x="63.5" y="-135" font-family="Helvetica,sans-Serif" font-size="10.00">lemons::SerializableData</text>
</a>
</g>
</g>
<!-- Node2&#45;&gt;Node1 -->
<g id="edge1" class="edge">
<title>Node2&#45;&gt;Node1</title>
<path fill="none" stroke="midnightblue" d="M137.45,-137.5C145.84,-137.5 154.39,-137.5 162.76,-137.5"/>
<polygon fill="midnightblue" stroke="midnightblue" points="137.32,-134 127.32,-137.5 137.32,-141 137.32,-134"/>
</g>
<!-- Node7 -->
<g id="node7" class="node">
<title>Node7</title>
<g id="a_node7"><a xlink:href="structlemons_1_1dsp_1_1FX_1_1LevelReportingAudioEffect.html" target="_top" xlink:title="Base class for audio effects that can report their level or gain reduction.">
<polygon fill="none" stroke="black" points="537,-98.5 537,-128.5 699,-128.5 699,-98.5 537,-98.5"/>
<text text-anchor="start" x="545" y="-116.5" font-family="Helvetica,sans-Serif" font-size="10.00">lemons::dsp::FX::LevelReporting</text>
<text text-anchor="middle" x="618" y="-105.5" font-family="Helvetica,sans-Serif" font-size="10.00">AudioEffect&lt; SampleType &gt;</text>
</a>
</g>
</g>
<!-- Node6&#45;&gt;Node7 -->
<g id="edge6" class="edge">
<title>Node6&#45;&gt;Node7</title>
<path fill="none" stroke="midnightblue" d="M511.1,-113.5C519.68,-113.5 528.36,-113.5 536.86,-113.5"/>
<polygon fill="midnightblue" stroke="midnightblue" points="511.09,-110 501.09,-113.5 511.09,-117 511.09,-110"/>
</g>
<!-- Node8 -->
<g id="node8" class="node">
<title>Node8</title>
<g id="a_node8"><a xlink:href="classlemons_1_1dsp_1_1FX_1_1Compressor.html" target="_top" xlink:title="A simple compressor effect class that allows you to optionally sidechain the signal.">
<polygon fill="none" stroke="black" points="735,-196.5 735,-226.5 884,-226.5 884,-196.5 735,-196.5"/>
<text text-anchor="start" x="743" y="-214.5" font-family="Helvetica,sans-Serif" font-size="10.00">lemons::dsp::FX::Compressor</text>
<text text-anchor="middle" x="809.5" y="-203.5" font-family="Helvetica,sans-Serif" font-size="10.00">&lt; SampleType &gt;</text>
</a>
</g>
</g>
<!-- Node7&#45;&gt;Node8 -->
<g id="edge7" class="edge">
<title>Node7&#45;&gt;Node8</title>
<path fill="none" stroke="midnightblue" d="M647.75,-134.26C670.58,-150.08 703.76,-171.61 735,-186.5 742.54,-190.1 750.74,-193.42 758.84,-196.38"/>
<polygon fill="midnightblue" stroke="midnightblue" points="649.73,-131.37 639.53,-128.5 645.71,-137.11 649.73,-131.37"/>
</g>
<!-- Node9 -->
<g id="node9" class="node">
<title>Node9</title>
<g id="a_node9"><a xlink:href="classlemons_1_1dsp_1_1FX_1_1DeEsser.html" target="_top" xlink:title="A basic &quot;de&#45;esser&quot; effect class.">
<polygon fill="none" stroke="black" points="743,-147.5 743,-177.5 876,-177.5 876,-147.5 743,-147.5"/>
<text text-anchor="start" x="751" y="-165.5" font-family="Helvetica,sans-Serif" font-size="10.00">lemons::dsp::FX::DeEsser</text>
<text text-anchor="middle" x="809.5" y="-154.5" font-family="Helvetica,sans-Serif" font-size="10.00">&lt; SampleType &gt;</text>
</a>
</g>
</g>
<!-- Node7&#45;&gt;Node9 -->
<g id="edge8" class="edge">
<title>Node7&#45;&gt;Node9</title>
<path fill="none" stroke="midnightblue" d="M686.87,-131.05C707.68,-136.43 730.38,-142.3 750.47,-147.49"/>
<polygon fill="midnightblue" stroke="midnightblue" points="687.7,-127.65 677.14,-128.53 685.95,-134.43 687.7,-127.65"/>
</g>
<!-- Node10 -->
<g id="node10" class="node">
<title>Node10</title>
<g id="a_node10"><a xlink:href="classlemons_1_1dsp_1_1FX_1_1Delay.html" target="_top" xlink:title=" ">
<polygon fill="none" stroke="black" points="749.5,-98.5 749.5,-128.5 869.5,-128.5 869.5,-98.5 749.5,-98.5"/>
<text text-anchor="start" x="757.5" y="-116.5" font-family="Helvetica,sans-Serif" font-size="10.00">lemons::dsp::FX::Delay</text>
<text text-anchor="middle" x="809.5" y="-105.5" font-family="Helvetica,sans-Serif" font-size="10.00">&lt; SampleType &gt;</text>
</a>
</g>
</g>
<!-- Node7&#45;&gt;Node10 -->
<g id="edge9" class="edge">
<title>Node7&#45;&gt;Node10</title>
<path fill="none" stroke="midnightblue" d="M709.43,-113.5C723.01,-113.5 736.7,-113.5 749.39,-113.5"/>
<polygon fill="midnightblue" stroke="midnightblue" points="709.09,-110 699.09,-113.5 709.09,-117 709.09,-110"/>
</g>
<!-- Node11 -->
<g id="node11" class="node">
<title>Node11</title>
<g id="a_node11"><a xlink:href="classlemons_1_1dsp_1_1FX_1_1Limiter.html" target="_top" xlink:title="A simple limiter effect class that allows you to optionally sidechain the signal.">
<polygon fill="none" stroke="black" points="747.5,-49.5 747.5,-79.5 871.5,-79.5 871.5,-49.5 747.5,-49.5"/>
<text text-anchor="start" x="755.5" y="-67.5" font-family="Helvetica,sans-Serif" font-size="10.00">lemons::dsp::FX::Limiter</text>
<text text-anchor="middle" x="809.5" y="-56.5" font-family="Helvetica,sans-Serif" font-size="10.00">&lt; SampleType &gt;</text>
</a>
</g>
</g>
<!-- Node7&#45;&gt;Node11 -->
<g id="edge10" class="edge">
<title>Node7&#45;&gt;Node11</title>
<path fill="none" stroke="midnightblue" d="M686.87,-95.95C707.68,-90.57 730.38,-84.7 750.47,-79.51"/>
<polygon fill="midnightblue" stroke="midnightblue" points="685.95,-92.57 677.14,-98.47 687.7,-99.35 685.95,-92.57"/>
</g>
<!-- Node12 -->
<g id="node12" class="node">
<title>Node12</title>
<g id="a_node12"><a xlink:href="classlemons_1_1dsp_1_1FX_1_1NoiseGate.html" target="_top" xlink:title="A simple noise gate effect class that allows you to optionally sidechain the signal.">
<polygon fill="none" stroke="black" points="738.5,-0.5 738.5,-30.5 880.5,-30.5 880.5,-0.5 738.5,-0.5"/>
<text text-anchor="start" x="746.5" y="-18.5" font-family="Helvetica,sans-Serif" font-size="10.00">lemons::dsp::FX::NoiseGate</text>
<text text-anchor="middle" x="809.5" y="-7.5" font-family="Helvetica,sans-Serif" font-size="10.00">&lt; SampleType &gt;</text>
</a>
</g>
</g>
<!-- Node7&#45;&gt;Node12 -->
<g id="edge11" class="edge">
<title>Node7&#45;&gt;Node12</title>
<path fill="none" stroke="midnightblue" d="M647.24,-92.61C670.03,-76.47 703.4,-54.44 735,-39.5 741.92,-36.23 749.4,-33.22 756.85,-30.53"/>
<polygon fill="midnightblue" stroke="midnightblue" points="645.14,-89.81 639.05,-98.48 649.21,-95.51 645.14,-89.81"/>
</g>
</g>
</svg>
        <g id="navigator" transform="translate(0 0)" fill="#404254">
                <rect fill="#f2f5e9" fill-opacity="0.5" stroke="#606060" stroke-width=".5" x="0" y="0" width="60" height="60"/>
                <use id="zoomplus" xlink:href="#zoomPlus" x="17" y="9" onmousedown="handleZoom(evt,'in')"/>
                <use id="zoomminus" xlink:href="#zoomMin" x="42" y="9" onmousedown="handleZoom(evt,'out')"/>
                <use id="reset" xlink:href="#resetDef" x="30" y="36" onmousedown="handleReset()"/>
                <g id="arrowUp" xlink:href="#dirArrow" transform="translate(30 24)" onmousedown="handlePan(0,-1)">
                  <use xlink:href="#rim" fill="#404040">
                        <set attributeName="fill" to="#808080" begin="arrowUp.mouseover" end="arrowUp.mouseout"/>
                  </use>
                  <path fill="none" stroke="white" stroke-width="1.5" d="M0,-3.0v7 M-2.5,-0.5L0,-3.0L2.5,-0.5"/>
                </g>
                <g id="arrowRight" xlink:href="#dirArrow" transform="rotate(90) translate(36 -43)" onmousedown="handlePan(1,0)">
                  <use xlink:href="#rim" fill="#404040">
                        <set attributeName="fill" to="#808080" begin="arrowRight.mouseover" end="arrowRight.mouseout"/>
                  </use>
                  <path fill="none" stroke="white" stroke-width="1.5" d="M0,-3.0v7 M-2.5,-0.5L0,-3.0L2.5,-0.5"/>
                </g>
                <g id="arrowDown" xlink:href="#dirArrow" transform="rotate(180) translate(-30 -48)" onmousedown="handlePan(0,1)">
                  <use xlink:href="#rim" fill="#404040">
                        <set attributeName="fill" to="#808080" begin="arrowDown.mouseover" end="arrowDown.mouseout"/>
                  </use>
                  <path fill="none" stroke="white" stroke-width="1.5" d="M0,-3.0v7 M-2.5,-0.5L0,-3.0L2.5,-0.5"/>
                </g>
                <g id="arrowLeft" xlink:href="#dirArrow" transform="rotate(270) translate(-36 17)" onmousedown="handlePan(-1,0)">
                  <use xlink:href="#rim" fill="#404040">
                        <set attributeName="fill" to="#808080" begin="arrowLeft.mouseover" end="arrowLeft.mouseout"/>
                  </use>
                  <path fill="none" stroke="white" stroke-width="1.5" d="M0,-3.0v7 M-2.5,-0.5L0,-3.0L2.5,-0.5"/>
                </g>
        </g>
        <svg viewBox="0 0 15 15" width="100%" height="30px" preserveAspectRatio="xMaxYMin meet">
         <g id="arrow_out" transform="scale(0.3 0.3)">
          <a xlink:href="structlemons_1_1dsp_1_1FX_1_1AudioEffect__inherit__graph_org.svg" target="_base">
           <rect id="button" ry="5" rx="5" y="6" x="6" height="38" width="38"
                fill="#f2f5e9" fill-opacity="0.5" stroke="#606060" stroke-width="1.0"/>
           <path id="arrow"
             d="M 11.500037,31.436501 C 11.940474,20.09759 22.043105,11.32322 32.158766,21.979434 L 37.068811,17.246167 C 37.068811,17.246167 37.088388,32 37.088388,32 L 22.160133,31.978069 C 22.160133,31.978069 26.997745,27.140456 26.997745,27.140456 C 18.528582,18.264221 13.291696,25.230495 11.500037,31.436501 z"
             style="fill:#404040;"/>
          </a>
         </g>
        </svg>
</svg>
