<?xml version="1.0" encoding="UTF-8" standalone="no"?>
<!DOCTYPE svg PUBLIC "-//W3C//DTD SVG 1.1//EN"
 "http://www.w3.org/Graphics/SVG/1.1/DTD/svg11.dtd">
<!-- Generated by graphviz version 2.49.1 (20210923.0004)
 -->
<!-- Title: lemons::plugin::ToggleParameter Pages: 1 -->
<svg width="262pt" height="345pt"
 viewBox="0.00 0.00 261.50 345.00" xmlns="http://www.w3.org/2000/svg" xmlns:xlink="http://www.w3.org/1999/xlink">
<g id="graph0" class="graph" transform="scale(1 1) rotate(0) translate(4 341)">
<title>lemons::plugin::ToggleParameter</title>
<!-- Node1 -->
<g id="node1" class="node">
<title>Node1</title>
<g id="a_node1"><a xlink:title="A parameter that represents a boolean on/off toggle.">
<polygon fill="#bfbfbf" stroke="black" points="0,-0.5 0,-19.5 163,-19.5 163,-0.5 0,-0.5"/>
<text text-anchor="middle" x="81.5" y="-7.5" font-family="Helvetica,sans-Serif" font-size="10.00">lemons::plugin::ToggleParameter</text>
</a>
</g>
</g>
<!-- Node2 -->
<g id="node2" class="node">
<title>Node2</title>
<g id="a_node2"><a xlink:href="structlemons_1_1plugin_1_1BoolParameter.html" target="_top" xlink:title="Helper struct that simplifies the constructor for boolean parameters.">
<polygon fill="none" stroke="black" points="5,-57.5 5,-76.5 158,-76.5 158,-57.5 5,-57.5"/>
<text text-anchor="middle" x="81.5" y="-64.5" font-family="Helvetica,sans-Serif" font-size="10.00">lemons::plugin::BoolParameter</text>
</a>
</g>
</g>
<!-- Node2&#45;&gt;Node1 -->
<g id="edge1" class="edge">
<title>Node2&#45;&gt;Node1</title>
<path fill="none" stroke="midnightblue" d="M81.5,-47.12C81.5,-37.82 81.5,-27.06 81.5,-19.71"/>
<polygon fill="midnightblue" stroke="midnightblue" points="78,-47.41 81.5,-57.41 85,-47.41 78,-47.41"/>
</g>
<!-- Node3 -->
<g id="node3" class="node">
<title>Node3</title>
<g id="a_node3"><a xlink:href="classlemons_1_1plugin_1_1TypedParameter.html" target="_top" xlink:title=" ">
<polygon fill="none" stroke="black" points="1.5,-114.5 1.5,-144.5 161.5,-144.5 161.5,-114.5 1.5,-114.5"/>
<text text-anchor="start" x="9.5" y="-132.5" font-family="Helvetica,sans-Serif" font-size="10.00">lemons::plugin::TypedParameter</text>
<text text-anchor="middle" x="81.5" y="-121.5" font-family="Helvetica,sans-Serif" font-size="10.00">&lt; bool &gt;</text>
</a>
</g>
</g>
<!-- Node3&#45;&gt;Node2 -->
<g id="edge2" class="edge">
<title>Node3&#45;&gt;Node2</title>
<path fill="none" stroke="midnightblue" d="M81.5,-104.35C81.5,-94.51 81.5,-83.78 81.5,-76.54"/>
<polygon fill="midnightblue" stroke="midnightblue" points="78,-104.47 81.5,-114.47 85,-104.47 78,-104.47"/>
</g>
<!-- Node4 -->
<g id="node4" class="node">
<title>Node4</title>
<g id="a_node4"><a xlink:href="classlemons_1_1plugin_1_1Parameter.html" target="_top" xlink:title="A plugin parameter class that allows you to use my Serializing API, and has a few other cool bells an...">
<polygon fill="none" stroke="black" points="11,-260.5 11,-279.5 144,-279.5 144,-260.5 11,-260.5"/>
<text text-anchor="middle" x="77.5" y="-267.5" font-family="Helvetica,sans-Serif" font-size="10.00">lemons::plugin::Parameter</text>
</a>
</g>
</g>
<!-- Node4&#45;&gt;Node3 -->
<g id="edge3" class="edge">
<title>Node4&#45;&gt;Node3</title>
<path fill="none" stroke="midnightblue" d="M78.04,-250.25C78.85,-222.19 80.36,-169.88 81.09,-144.73"/>
<polygon fill="midnightblue" stroke="midnightblue" points="74.54,-250.24 77.75,-260.34 81.54,-250.44 74.54,-250.24"/>
</g>
<!-- Node6 -->
<g id="node6" class="node">
<title>Node6</title>
<g id="a_node6"><a xlink:href="classlemons_1_1plugin_1_1TypedParameter.html" target="_top" xlink:title="A parameter that can be stored as a type other than a float, but still inherits from my Parameter bas...">
<polygon fill="none" stroke="black" points="93.5,-192.5 93.5,-222.5 253.5,-222.5 253.5,-192.5 93.5,-192.5"/>
<text text-anchor="start" x="101.5" y="-210.5" font-family="Helvetica,sans-Serif" font-size="10.00">lemons::plugin::TypedParameter</text>
<text text-anchor="middle" x="173.5" y="-199.5" font-family="Helvetica,sans-Serif" font-size="10.00">&lt; ValueType &gt;</text>
</a>
</g>
</g>
<!-- Node4&#45;&gt;Node6 -->
<g id="edge6" class="edge">
<title>Node4&#45;&gt;Node6</title>
<path fill="none" stroke="midnightblue" d="M100.14,-254.73C115.57,-245.01 135.9,-232.2 151.24,-222.53"/>
<polygon fill="midnightblue" stroke="midnightblue" points="97.85,-252.04 91.25,-260.33 101.58,-257.96 97.85,-252.04"/>
</g>
<!-- Node5 -->
<g id="node5" class="node">
<title>Node5</title>
<g id="a_node5"><a xlink:href="structlemons_1_1SerializableData.html" target="_top" xlink:title="Base class for any C++ object that needs to be serialized to binary and back.">
<polygon fill="none" stroke="black" points="14,-317.5 14,-336.5 141,-336.5 141,-317.5 14,-317.5"/>
<text text-anchor="middle" x="77.5" y="-324.5" font-family="Helvetica,sans-Serif" font-size="10.00">lemons::SerializableData</text>
</a>
</g>
</g>
<!-- Node5&#45;&gt;Node4 -->
<g id="edge4" class="edge">
<title>Node5&#45;&gt;Node4</title>
<path fill="none" stroke="midnightblue" d="M77.5,-307.12C77.5,-297.82 77.5,-287.06 77.5,-279.71"/>
<polygon fill="midnightblue" stroke="midnightblue" points="74,-307.41 77.5,-317.41 81,-307.41 74,-307.41"/>
</g>
<!-- Node6&#45;&gt;Node3 -->
<g id="edge5" class="edge">
<title>Node6&#45;&gt;Node3</title>
<path fill="none" stroke="orange" stroke-dasharray="5,2" d="M148.39,-185.75C132.62,-172.73 112.71,-156.28 98.73,-144.73"/>
<polygon fill="orange" stroke="orange" points="146.26,-188.53 156.2,-192.2 150.71,-183.14 146.26,-188.53"/>
<text text-anchor="middle" x="152" y="-166" font-family="Helvetica,sans-Serif" font-size="10.00"> &lt; bool &gt;</text>
</g>
</g>
</svg>
