<?xml version="1.0" encoding="UTF-8" standalone="no"?>
<!DOCTYPE svg PUBLIC "-//W3C//DTD SVG 1.1//EN"
 "http://www.w3.org/Graphics/SVG/1.1/DTD/svg11.dtd">
<!-- Generated by graphviz version 2.49.1 (20210923.0004)
 -->
<!-- Title: lemons::serializing::StdArrayInterface&lt; ElementType, size &gt; Pages: 1 -->
<svg width="740pt" height="83pt"
 viewBox="0.00 0.00 740.00 82.50" xmlns="http://www.w3.org/2000/svg" xmlns:xlink="http://www.w3.org/1999/xlink">
<g id="graph0" class="graph" transform="scale(1 1) rotate(0) translate(4 78.5)">
<title>lemons::serializing::StdArrayInterface&lt; ElementType, size &gt;</title>
<!-- Node1 -->
<g id="node1" class="node">
<title>Node1</title>
<g id="a_node1"><a xlink:title="Container interface that provides support for serializing std::arrays with TreeReflector.">
<polygon fill="#bfbfbf" stroke="black" points="617,-27.5 617,-68.5 732,-68.5 732,-27.5 617,-27.5"/>
<text text-anchor="start" x="625" y="-56.5" font-family="Helvetica,sans-Serif" font-size="10.00">lemons::serializing</text>
<text text-anchor="start" x="625" y="-45.5" font-family="Helvetica,sans-Serif" font-size="10.00">::StdArrayInterface</text>
<text text-anchor="middle" x="674.5" y="-34.5" font-family="Helvetica,sans-Serif" font-size="10.00">&lt; ElementType, size &gt;</text>
</a>
</g>
</g>
<!-- Node2 -->
<g id="node2" class="node">
<title>Node2</title>
<g id="a_node2"><a xlink:href="structlemons_1_1serializing_1_1LambdaContainerInterface.html" target="_top" xlink:title=" ">
<polygon fill="none" stroke="black" points="440,-22 440,-74 580,-74 580,-22 440,-22"/>
<text text-anchor="start" x="448" y="-62" font-family="Helvetica,sans-Serif" font-size="10.00">lemons::serializing</text>
<text text-anchor="start" x="448" y="-51" font-family="Helvetica,sans-Serif" font-size="10.00">::LambdaContainerInterface</text>
<text text-anchor="start" x="448" y="-40" font-family="Helvetica,sans-Serif" font-size="10.00">&lt; std::array&lt; ElementType,</text>
<text text-anchor="middle" x="510" y="-29" font-family="Helvetica,sans-Serif" font-size="10.00"> size &gt; &gt;</text>
</a>
</g>
</g>
<!-- Node2&#45;&gt;Node1 -->
<g id="edge1" class="edge">
<title>Node2&#45;&gt;Node1</title>
<path fill="none" stroke="midnightblue" d="M590.42,-48C599.34,-48 608.29,-48 616.84,-48"/>
<polygon fill="midnightblue" stroke="midnightblue" points="590.39,-44.5 580.39,-48 590.39,-51.5 590.39,-44.5"/>
</g>
<!-- Node3 -->
<g id="node3" class="node">
<title>Node3</title>
<g id="a_node3"><a xlink:href="structlemons_1_1serializing_1_1ContainerInterface.html" target="_top" xlink:title="Interface that defines how a TreeReflector can resize a given container during deserialization.">
<polygon fill="none" stroke="black" points="0,-30 0,-60 104,-60 104,-30 0,-30"/>
<text text-anchor="start" x="8" y="-48" font-family="Helvetica,sans-Serif" font-size="10.00">lemons::serializing</text>
<text text-anchor="middle" x="52" y="-37" font-family="Helvetica,sans-Serif" font-size="10.00">::ContainerInterface</text>
</a>
</g>
</g>
<!-- Node3&#45;&gt;Node2 -->
<g id="edge2" class="edge">
<title>Node3&#45;&gt;Node2</title>
<path fill="none" stroke="midnightblue" d="M114.47,-49.67C187.73,-54.58 313.84,-60.96 422,-56 427.76,-55.74 433.72,-55.37 439.71,-54.95"/>
<polygon fill="midnightblue" stroke="midnightblue" points="114.27,-46.15 104.06,-48.96 113.79,-53.13 114.27,-46.15"/>
</g>
<!-- Node4 -->
<g id="node4" class="node">
<title>Node4</title>
<g id="a_node4"><a xlink:href="structlemons_1_1serializing_1_1LambdaContainerInterface.html" target="_top" xlink:title="Provides a slightly slicker interface to ContainerInterface, allowing you to supply a lambda function...">
<polygon fill="none" stroke="black" points="141,-0.5 141,-41.5 281,-41.5 281,-0.5 141,-0.5"/>
<text text-anchor="start" x="149" y="-29.5" font-family="Helvetica,sans-Serif" font-size="10.00">lemons::serializing</text>
<text text-anchor="start" x="149" y="-18.5" font-family="Helvetica,sans-Serif" font-size="10.00">::LambdaContainerInterface</text>
<text text-anchor="middle" x="211" y="-7.5" font-family="Helvetica,sans-Serif" font-size="10.00">&lt; ContainerType &gt;</text>
</a>
</g>
</g>
<!-- Node3&#45;&gt;Node4 -->
<g id="edge4" class="edge">
<title>Node3&#45;&gt;Node4</title>
<path fill="none" stroke="midnightblue" d="M114.4,-35.61C123.06,-34.29 132,-32.92 140.79,-31.58"/>
<polygon fill="midnightblue" stroke="midnightblue" points="113.76,-32.17 104.41,-37.14 114.82,-39.09 113.76,-32.17"/>
</g>
<!-- Node4&#45;&gt;Node2 -->
<g id="edge3" class="edge">
<title>Node4&#45;&gt;Node2</title>
<path fill="none" stroke="orange" stroke-dasharray="5,2" d="M291.27,-24.08C330.65,-26.07 378.92,-29.21 422,-34 427.78,-34.64 433.76,-35.4 439.75,-36.23"/>
<polygon fill="orange" stroke="orange" points="291.35,-20.58 281.19,-23.58 291.01,-27.57 291.35,-20.58"/>
<text text-anchor="start" x="299" y="-48" font-family="Helvetica,sans-Serif" font-size="10.00"> &lt; std::array&lt; ElementType,</text>
<text text-anchor="middle" x="360.5" y="-37" font-family="Helvetica,sans-Serif" font-size="10.00"> size &gt; &gt;</text>
</g>
</g>
</svg>
