<?xml version="1.0" encoding="UTF-8" standalone="no"?>
<!DOCTYPE svg PUBLIC "-//W3C//DTD SVG 1.1//EN"
 "http://www.w3.org/Graphics/SVG/1.1/DTD/svg11.dtd">
<!-- Generated by graphviz version 2.49.3 (20211023.0002)
 -->
<!-- Title: lemons::plugin::FrequencyParameter Pages: 1 -->
<svg width="253pt" height="288pt"
 viewBox="0.00 0.00 253.00 288.00" xmlns="http://www.w3.org/2000/svg" xmlns:xlink="http://www.w3.org/1999/xlink">
<g id="graph0" class="graph" transform="scale(1 1) rotate(0) translate(4 284)">
<title>lemons::plugin::FrequencyParameter</title>
<!-- Node1 -->
<g id="node1" class="node">
<title>Node1</title>
<g id="a_node1"><a xlink:title="A parameter that represents a frequency in Hz.">
<polygon fill="#bfbfbf" stroke="black" points="10,-0.5 10,-30.5 141,-30.5 141,-0.5 10,-0.5"/>
<text text-anchor="start" x="18" y="-18.5" font-family="Helvetica,sans-Serif" font-size="10.00">lemons::plugin::Frequency</text>
<text text-anchor="middle" x="75.5" y="-7.5" font-family="Helvetica,sans-Serif" font-size="10.00">Parameter</text>
</a>
</g>
</g>
<!-- Node2 -->
<g id="node2" class="node">
<title>Node2</title>
<g id="a_node2"><a xlink:href="classlemons_1_1plugin_1_1_typed_parameter.html" target="_top" xlink:title=" ">
<polygon fill="none" stroke="black" points="34,-68.5 34,-87.5 117,-87.5 117,-68.5 34,-68.5"/>
<text text-anchor="middle" x="75.5" y="-75.5" font-family="Helvetica,sans-Serif" font-size="10.00">FloatParameter</text>
</a>
</g>
</g>
<!-- Node2&#45;&gt;Node1 -->
<g id="edge1" class="edge">
<title>Node2&#45;&gt;Node1</title>
<path fill="none" stroke="midnightblue" d="M75.5,-58.22C75.5,-49.36 75.5,-38.96 75.5,-30.76"/>
<polygon fill="midnightblue" stroke="midnightblue" points="72,-58.33 75.5,-68.33 79,-58.33 72,-58.33"/>
</g>
<!-- Node3 -->
<g id="node3" class="node">
<title>Node3</title>
<g id="a_node3"><a xlink:href="classlemons_1_1plugin_1_1_parameter.html" target="_top" xlink:title="A plugin parameter class.">
<polygon fill="none" stroke="black" points="6,-203.5 6,-222.5 137,-222.5 137,-203.5 6,-203.5"/>
<text text-anchor="middle" x="71.5" y="-210.5" font-family="Helvetica,sans-Serif" font-size="10.00">lemons::plugin::Parameter</text>
</a>
</g>
</g>
<!-- Node3&#45;&gt;Node2 -->
<g id="edge2" class="edge">
<title>Node3&#45;&gt;Node2</title>
<path fill="none" stroke="midnightblue" d="M72.07,-193.13C72.95,-163.88 74.6,-108.76 75.24,-87.59"/>
<polygon fill="midnightblue" stroke="midnightblue" points="68.56,-193.17 71.76,-203.27 75.56,-193.38 68.56,-193.17"/>
</g>
<!-- Node5 -->
<g id="node5" class="node">
<title>Node5</title>
<g id="a_node5"><a xlink:href="classlemons_1_1plugin_1_1_typed_parameter.html" target="_top" xlink:title="A parameter that can be stored as a type other than a float, but still inherits from my Parameter bas...">
<polygon fill="none" stroke="black" points="88,-135.5 88,-165.5 245,-165.5 245,-135.5 88,-135.5"/>
<text text-anchor="start" x="96" y="-153.5" font-family="Helvetica,sans-Serif" font-size="10.00">lemons::plugin::TypedParameter</text>
<text text-anchor="middle" x="166.5" y="-142.5" font-family="Helvetica,sans-Serif" font-size="10.00">&lt; ValueType &gt;</text>
</a>
</g>
</g>
<!-- Node3&#45;&gt;Node5 -->
<g id="edge5" class="edge">
<title>Node3&#45;&gt;Node5</title>
<path fill="none" stroke="midnightblue" d="M93.9,-197.73C109.17,-188.01 129.29,-175.2 144.48,-165.53"/>
<polygon fill="midnightblue" stroke="midnightblue" points="91.67,-195.01 85.11,-203.33 95.43,-200.91 91.67,-195.01"/>
</g>
<!-- Node4 -->
<g id="node4" class="node">
<title>Node4</title>
<g id="a_node4"><a xlink:title=" ">
<polygon fill="none" stroke="black" points="0,-260.5 0,-279.5 143,-279.5 143,-260.5 0,-260.5"/>
<text text-anchor="middle" x="71.5" y="-267.5" font-family="Helvetica,sans-Serif" font-size="10.00">juce::RangedAudioParameter</text>
</a>
</g>
</g>
<!-- Node4&#45;&gt;Node3 -->
<g id="edge3" class="edge">
<title>Node4&#45;&gt;Node3</title>
<path fill="none" stroke="midnightblue" d="M71.5,-250.12C71.5,-240.82 71.5,-230.06 71.5,-222.71"/>
<polygon fill="midnightblue" stroke="midnightblue" points="68,-250.41 71.5,-260.41 75,-250.41 68,-250.41"/>
</g>
<!-- Node5&#45;&gt;Node2 -->
<g id="edge4" class="edge">
<title>Node5&#45;&gt;Node2</title>
<path fill="none" stroke="orange" stroke-dasharray="5,2" d="M139.84,-128.84C122.16,-115.15 99.88,-97.89 86.72,-87.69"/>
<polygon fill="orange" stroke="orange" points="138.04,-131.88 148.08,-135.23 142.32,-126.34 138.04,-131.88"/>
<text text-anchor="middle" x="143.5" y="-109" font-family="Helvetica,sans-Serif" font-size="10.00"> &lt; float &gt;</text>
</g>
</g>
</svg>
