<?xml version="1.0" encoding="UTF-8" standalone="no"?>
<!DOCTYPE svg PUBLIC "-//W3C//DTD SVG 1.1//EN"
 "http://www.w3.org/Graphics/SVG/1.1/DTD/svg11.dtd">
<!-- Generated by graphviz version 2.43.0 (0)
 -->
<!-- Title: lemons::dsp::FX::AudioEffect&lt; SampleType &gt; Pages: 1 -->
<svg width="1238pt" height="416pt"
 viewBox="0.00 0.00 1238.00 415.50" xmlns="http://www.w3.org/2000/svg" xmlns:xlink="http://www.w3.org/1999/xlink">
<g id="graph0" class="graph" transform="scale(1 1) rotate(0) translate(4 411.5)">
<title>lemons::dsp::FX::AudioEffect&lt; SampleType &gt;</title>
<!-- Node1 -->
<g id="node1" class="node">
<title>Node1</title>
<g id="a_node1"><a xlink:title="Base class for any kind of audio effect.">
<polygon fill="#bfbfbf" stroke="black" points="0,-167 0,-197 156,-197 156,-167 0,-167"/>
<text text-anchor="start" x="8" y="-185" font-family="Helvetica,sans-Serif" font-size="10.00">lemons::dsp::FX::AudioEffect</text>
<text text-anchor="middle" x="78" y="-174" font-family="Helvetica,sans-Serif" font-size="10.00">&lt; SampleType &gt;</text>
</a>
</g>
</g>
<!-- Node2 -->
<g id="node2" class="node">
<title>Node2</title>
<g id="a_node2"><a xlink:href="classlemons_1_1dsp_1_1FX_1_1EQ.html" target="_top" xlink:title="An equalizer effect class.">
<polygon fill="none" stroke="black" points="274,-333 274,-363 388,-363 388,-333 274,-333"/>
<text text-anchor="start" x="282" y="-351" font-family="Helvetica,sans-Serif" font-size="10.00">lemons::dsp::FX::EQ</text>
<text text-anchor="middle" x="331" y="-340" font-family="Helvetica,sans-Serif" font-size="10.00">&lt; SampleType &gt;</text>
</a>
</g>
</g>
<!-- Node1&#45;&gt;Node2 -->
<g id="edge1" class="edge">
<title>Node1&#45;&gt;Node2</title>
<path fill="none" stroke="midnightblue" d="M98.28,-204.97C126.21,-236.71 181.06,-293.49 240,-324 250.48,-329.43 262.31,-333.71 273.85,-337.06"/>
<polygon fill="midnightblue" stroke="midnightblue" points="100.65,-202.37 91.46,-197.1 95.36,-206.95 100.65,-202.37"/>
</g>
<!-- Node3 -->
<g id="node3" class="node">
<title>Node3</title>
<g id="a_node3"><a xlink:href="classlemons_1_1dsp_1_1FX_1_1Filter.html" target="_top" xlink:title="A filter audio effect class.">
<polygon fill="none" stroke="black" points="268.5,-284 268.5,-314 393.5,-314 393.5,-284 268.5,-284"/>
<text text-anchor="start" x="276.5" y="-302" font-family="Helvetica,sans-Serif" font-size="10.00">lemons::dsp::FX::Filter</text>
<text text-anchor="middle" x="331" y="-291" font-family="Helvetica,sans-Serif" font-size="10.00">&lt; SampleType &gt;</text>
</a>
</g>
</g>
<!-- Node1&#45;&gt;Node3 -->
<g id="edge2" class="edge">
<title>Node1&#45;&gt;Node3</title>
<path fill="none" stroke="midnightblue" d="M109.43,-202.85C140.91,-223.61 192.08,-255.18 240,-275 248.97,-278.71 258.67,-282 268.28,-284.86"/>
<polygon fill="midnightblue" stroke="midnightblue" points="110.97,-199.67 100.7,-197.04 107.09,-205.49 110.97,-199.67"/>
</g>
<!-- Node4 -->
<g id="node4" class="node">
<title>Node4</title>
<g id="a_node4"><a xlink:href="classlemons_1_1dsp_1_1FX_1_1Saturator.html" target="_top" xlink:title=" ">
<polygon fill="none" stroke="black" points="258,-235 258,-265 404,-265 404,-235 258,-235"/>
<text text-anchor="start" x="266" y="-253" font-family="Helvetica,sans-Serif" font-size="10.00">lemons::dsp::FX::Saturator</text>
<text text-anchor="middle" x="331" y="-242" font-family="Helvetica,sans-Serif" font-size="10.00">&lt; SampleType &gt;</text>
</a>
</g>
</g>
<!-- Node1&#45;&gt;Node4 -->
<g id="edge3" class="edge">
<title>Node1&#45;&gt;Node4</title>
<path fill="none" stroke="#8b1a1a" d="M143.49,-199.72C172.91,-207.78 208.21,-217.42 240,-226 250.77,-228.91 262.28,-231.99 273.33,-234.95"/>
<polygon fill="#8b1a1a" stroke="#8b1a1a" points="144.32,-196.32 133.75,-197.05 142.47,-203.07 144.32,-196.32"/>
</g>
<!-- Node5 -->
<g id="node5" class="node">
<title>Node5</title>
<g id="a_node5"><a xlink:href="structlemons_1_1dsp_1_1FX_1_1SidechainableAudioEffect.html" target="_top" xlink:title="Base class for audio effects that accept a sidechain signal.">
<polygon fill="none" stroke="black" points="246.5,-186 246.5,-216 415.5,-216 415.5,-186 246.5,-186"/>
<text text-anchor="start" x="254.5" y="-204" font-family="Helvetica,sans-Serif" font-size="10.00">lemons::dsp::FX::Sidechainable</text>
<text text-anchor="middle" x="331" y="-193" font-family="Helvetica,sans-Serif" font-size="10.00">AudioEffect&lt; SampleType &gt;</text>
</a>
</g>
</g>
<!-- Node1&#45;&gt;Node5 -->
<g id="edge4" class="edge">
<title>Node1&#45;&gt;Node5</title>
<path fill="none" stroke="midnightblue" d="M166.2,-188.6C192.11,-190.56 220.44,-192.71 246.14,-194.65"/>
<polygon fill="midnightblue" stroke="midnightblue" points="166.25,-185.09 156.01,-187.83 165.72,-192.07 166.25,-185.09"/>
</g>
<!-- Node15 -->
<g id="node15" class="node">
<title>Node15</title>
<g id="a_node15"><a xlink:href="classlemons_1_1dsp_1_1FX_1_1SmoothedGain.html" target="_top" xlink:title=" ">
<polygon fill="none" stroke="black" points="256,-88 256,-118 406,-118 406,-88 256,-88"/>
<text text-anchor="start" x="264" y="-106" font-family="Helvetica,sans-Serif" font-size="10.00">lemons::dsp::FX::Smoothed</text>
<text text-anchor="middle" x="331" y="-95" font-family="Helvetica,sans-Serif" font-size="10.00">Gain&lt; SampleType &gt;</text>
</a>
</g>
</g>
<!-- Node1&#45;&gt;Node15 -->
<g id="edge16" class="edge">
<title>Node1&#45;&gt;Node15</title>
<path fill="none" stroke="midnightblue" d="M131.68,-163.55C163.02,-152.77 203.63,-139.14 240,-128 251.01,-124.63 262.83,-121.2 274.18,-118.01"/>
<polygon fill="midnightblue" stroke="midnightblue" points="130.16,-160.37 121.85,-166.94 132.45,-166.99 130.16,-160.37"/>
</g>
<!-- Node18 -->
<g id="node18" class="node">
<title>Node18</title>
<g id="a_node18"><a xlink:href="classlemons_1_1dsp_1_1FX_1_1StereoPanner.html" target="_top" xlink:title=" ">
<polygon fill="none" stroke="black" points="248.5,-39 248.5,-69 413.5,-69 413.5,-39 248.5,-39"/>
<text text-anchor="start" x="256.5" y="-57" font-family="Helvetica,sans-Serif" font-size="10.00">lemons::dsp::FX::StereoPanner</text>
<text text-anchor="middle" x="331" y="-46" font-family="Helvetica,sans-Serif" font-size="10.00">&lt; SampleType &gt;</text>
</a>
</g>
</g>
<!-- Node1&#45;&gt;Node18 -->
<g id="edge19" class="edge">
<title>Node1&#45;&gt;Node18</title>
<path fill="none" stroke="midnightblue" d="M106.37,-160.86C137.29,-137.86 189.87,-101.39 240,-79 248.44,-75.23 257.58,-71.9 266.7,-69"/>
<polygon fill="midnightblue" stroke="midnightblue" points="104.13,-158.16 98.24,-166.96 108.34,-163.76 104.13,-158.16"/>
</g>
<!-- Node19 -->
<g id="node19" class="node">
<title>Node19</title>
<g id="a_node19"><a xlink:href="classlemons_1_1dsp_1_1FX_1_1SmoothedGain.html" target="_top" xlink:title=" ">
<polygon fill="none" stroke="black" points="240,-0.5 240,-19.5 422,-19.5 422,-0.5 240,-0.5"/>
<text text-anchor="middle" x="331" y="-7.5" font-family="Helvetica,sans-Serif" font-size="10.00">SmoothedGain&lt; SampleType, 1 &gt;</text>
</a>
</g>
</g>
<!-- Node1&#45;&gt;Node19 -->
<g id="edge20" class="edge">
<title>Node1&#45;&gt;Node19</title>
<path fill="none" stroke="midnightblue" d="M95.94,-158.61C122.4,-124.06 177.07,-60.22 240,-30 249.09,-25.64 259.16,-22.21 269.17,-19.52"/>
<polygon fill="midnightblue" stroke="midnightblue" points="93.05,-156.63 89.84,-166.72 98.64,-160.84 93.05,-156.63"/>
</g>
<!-- Node20 -->
<g id="node20" class="node">
<title>Node20</title>
<g id="a_node20"><a xlink:href="structlemons_1_1dsp_1_1FX_1_1AudioEffect.html" target="_top" xlink:title=" ">
<polygon fill="none" stroke="black" points="253,-137 253,-167 409,-167 409,-137 253,-137"/>
<text text-anchor="start" x="261" y="-155" font-family="Helvetica,sans-Serif" font-size="10.00">lemons::dsp::FX::AudioEffect</text>
<text text-anchor="middle" x="331" y="-144" font-family="Helvetica,sans-Serif" font-size="10.00">&lt; float &gt;</text>
</a>
</g>
</g>
<!-- Node1&#45;&gt;Node20 -->
<g id="edge21" class="edge">
<title>Node1&#45;&gt;Node20</title>
<path fill="none" stroke="orange" stroke-dasharray="5,2" d="M166.24,-171.57C194.37,-168.21 225.34,-164.51 252.7,-161.24"/>
<polygon fill="orange" stroke="orange" points="165.53,-168.13 156.01,-172.8 166.36,-175.08 165.53,-168.13"/>
<text text-anchor="middle" x="198" y="-173" font-family="Helvetica,sans-Serif" font-size="10.00"> &lt; float &gt;</text>
</g>
<!-- Node6 -->
<g id="node6" class="node">
<title>Node6</title>
<g id="a_node6"><a xlink:href="structlemons_1_1dsp_1_1FX_1_1LevelReportingAudioEffect.html" target="_top" xlink:title="Base class for audio effects that can report their level or gain reduction.">
<polygon fill="none" stroke="black" points="555,-230 555,-260 729,-260 729,-230 555,-230"/>
<text text-anchor="start" x="563" y="-248" font-family="Helvetica,sans-Serif" font-size="10.00">lemons::dsp::FX::LevelReporting</text>
<text text-anchor="middle" x="642" y="-237" font-family="Helvetica,sans-Serif" font-size="10.00">AudioEffect&lt; SampleType &gt;</text>
</a>
</g>
</g>
<!-- Node5&#45;&gt;Node6 -->
<g id="edge5" class="edge">
<title>Node5&#45;&gt;Node6</title>
<path fill="none" stroke="midnightblue" d="M425.64,-214.33C466.74,-220.19 514.69,-227.01 554.89,-232.74"/>
<polygon fill="midnightblue" stroke="midnightblue" points="426.01,-210.85 415.62,-212.91 425.03,-217.78 426.01,-210.85"/>
</g>
<!-- Node14 -->
<g id="node14" class="node">
<title>Node14</title>
<g id="a_node14"><a xlink:href="structlemons_1_1dsp_1_1FX_1_1SidechainableAudioEffect.html" target="_top" xlink:title=" ">
<polygon fill="none" stroke="black" points="557.5,-157 557.5,-187 726.5,-187 726.5,-157 557.5,-157"/>
<text text-anchor="start" x="565.5" y="-175" font-family="Helvetica,sans-Serif" font-size="10.00">lemons::dsp::FX::Sidechainable</text>
<text text-anchor="middle" x="642" y="-164" font-family="Helvetica,sans-Serif" font-size="10.00">AudioEffect&lt; float &gt;</text>
</a>
</g>
</g>
<!-- Node5&#45;&gt;Node14 -->
<g id="edge14" class="edge">
<title>Node5&#45;&gt;Node14</title>
<path fill="none" stroke="orange" stroke-dasharray="5,2" d="M425.83,-192.19C467.72,-188.26 516.68,-183.67 557.31,-179.85"/>
<polygon fill="orange" stroke="orange" points="425.25,-188.73 415.62,-193.15 425.9,-195.7 425.25,-188.73"/>
<text text-anchor="middle" x="488.5" y="-193" font-family="Helvetica,sans-Serif" font-size="10.00"> &lt; float &gt;</text>
</g>
<!-- Node7 -->
<g id="node7" class="node">
<title>Node7</title>
<g id="a_node7"><a xlink:href="classlemons_1_1dsp_1_1FX_1_1Compressor.html" target="_top" xlink:title=" ">
<polygon fill="none" stroke="black" points="820.5,-328 820.5,-358 979.5,-358 979.5,-328 820.5,-328"/>
<text text-anchor="start" x="828.5" y="-346" font-family="Helvetica,sans-Serif" font-size="10.00">lemons::dsp::FX::Compressor</text>
<text text-anchor="middle" x="900" y="-335" font-family="Helvetica,sans-Serif" font-size="10.00">&lt; SampleType &gt;</text>
</a>
</g>
</g>
<!-- Node6&#45;&gt;Node7 -->
<g id="edge6" class="edge">
<title>Node6&#45;&gt;Node7</title>
<path fill="none" stroke="midnightblue" d="M683.28,-264.42C717.33,-280.37 767.67,-302.9 813,-319 821.91,-322.17 831.46,-325.18 840.83,-327.95"/>
<polygon fill="midnightblue" stroke="midnightblue" points="684.66,-261.2 674.12,-260.1 681.67,-267.53 684.66,-261.2"/>
</g>
<!-- Node9 -->
<g id="node9" class="node">
<title>Node9</title>
<g id="a_node9"><a xlink:href="classlemons_1_1dsp_1_1FX_1_1DeEsser.html" target="_top" xlink:title=" ">
<polygon fill="none" stroke="black" points="830,-279 830,-309 970,-309 970,-279 830,-279"/>
<text text-anchor="start" x="838" y="-297" font-family="Helvetica,sans-Serif" font-size="10.00">lemons::dsp::FX::DeEsser</text>
<text text-anchor="middle" x="900" y="-286" font-family="Helvetica,sans-Serif" font-size="10.00">&lt; SampleType &gt;</text>
</a>
</g>
</g>
<!-- Node6&#45;&gt;Node9 -->
<g id="edge8" class="edge">
<title>Node6&#45;&gt;Node9</title>
<path fill="none" stroke="midnightblue" d="M731.4,-261.92C763.57,-268.08 799.44,-274.94 829.71,-280.74"/>
<polygon fill="midnightblue" stroke="midnightblue" points="732.03,-258.48 721.55,-260.03 730.71,-265.35 732.03,-258.48"/>
</g>
<!-- Node10 -->
<g id="node10" class="node">
<title>Node10</title>
<g id="a_node10"><a xlink:href="classlemons_1_1dsp_1_1FX_1_1Delay.html" target="_top" xlink:title=" ">
<polygon fill="none" stroke="black" points="835.5,-230 835.5,-260 964.5,-260 964.5,-230 835.5,-230"/>
<text text-anchor="start" x="843.5" y="-248" font-family="Helvetica,sans-Serif" font-size="10.00">lemons::dsp::FX::Delay</text>
<text text-anchor="middle" x="900" y="-237" font-family="Helvetica,sans-Serif" font-size="10.00">&lt; SampleType &gt;</text>
</a>
</g>
</g>
<!-- Node6&#45;&gt;Node10 -->
<g id="edge9" class="edge">
<title>Node6&#45;&gt;Node10</title>
<path fill="none" stroke="midnightblue" d="M739.6,-245C771.61,-245 806.41,-245 835.31,-245"/>
<polygon fill="midnightblue" stroke="midnightblue" points="739.31,-241.5 729.31,-245 739.31,-248.5 739.31,-241.5"/>
</g>
<!-- Node11 -->
<g id="node11" class="node">
<title>Node11</title>
<g id="a_node11"><a xlink:href="classlemons_1_1dsp_1_1FX_1_1Limiter.html" target="_top" xlink:title=" ">
<polygon fill="none" stroke="black" points="832.5,-181 832.5,-211 967.5,-211 967.5,-181 832.5,-181"/>
<text text-anchor="start" x="840.5" y="-199" font-family="Helvetica,sans-Serif" font-size="10.00">lemons::dsp::FX::Limiter</text>
<text text-anchor="middle" x="900" y="-188" font-family="Helvetica,sans-Serif" font-size="10.00">&lt; SampleType &gt;</text>
</a>
</g>
</g>
<!-- Node6&#45;&gt;Node11 -->
<g id="edge10" class="edge">
<title>Node6&#45;&gt;Node11</title>
<path fill="none" stroke="midnightblue" d="M731.66,-228.03C764.66,-221.71 801.54,-214.65 832.26,-208.78"/>
<polygon fill="midnightblue" stroke="midnightblue" points="730.71,-224.65 721.55,-229.97 732.03,-231.52 730.71,-224.65"/>
</g>
<!-- Node12 -->
<g id="node12" class="node">
<title>Node12</title>
<g id="a_node12"><a xlink:href="classlemons_1_1dsp_1_1FX_1_1NoiseGate.html" target="_top" xlink:title=" ">
<polygon fill="none" stroke="black" points="824,-377 824,-407 976,-407 976,-377 824,-377"/>
<text text-anchor="start" x="832" y="-395" font-family="Helvetica,sans-Serif" font-size="10.00">lemons::dsp::FX::NoiseGate</text>
<text text-anchor="middle" x="900" y="-384" font-family="Helvetica,sans-Serif" font-size="10.00">&lt; SampleType &gt;</text>
</a>
</g>
</g>
<!-- Node6&#45;&gt;Node12 -->
<g id="edge11" class="edge">
<title>Node6&#45;&gt;Node12</title>
<path fill="none" stroke="midnightblue" d="M667.35,-266.97C698.83,-294.31 756.37,-340.7 813,-368 819.98,-371.37 827.52,-374.33 835.12,-376.93"/>
<polygon fill="midnightblue" stroke="midnightblue" points="669.38,-264.1 659.55,-260.13 664.76,-269.36 669.38,-264.1"/>
</g>
<!-- Node13 -->
<g id="node13" class="node">
<title>Node13</title>
<g id="a_node13"><a xlink:href="structlemons_1_1dsp_1_1FX_1_1LevelReportingAudioEffect.html" target="_top" xlink:title=" ">
<polygon fill="none" stroke="black" points="813,-132 813,-162 987,-162 987,-132 813,-132"/>
<text text-anchor="start" x="821" y="-150" font-family="Helvetica,sans-Serif" font-size="10.00">lemons::dsp::FX::LevelReporting</text>
<text text-anchor="middle" x="900" y="-139" font-family="Helvetica,sans-Serif" font-size="10.00">AudioEffect&lt; float &gt;</text>
</a>
</g>
</g>
<!-- Node6&#45;&gt;Node13 -->
<g id="edge12" class="edge">
<title>Node6&#45;&gt;Node13</title>
<path fill="none" stroke="orange" stroke-dasharray="5,2" d="M683.98,-225.72C718.06,-210.09 768.09,-188.1 813,-172 822.81,-168.48 833.37,-165.1 843.62,-162.01"/>
<polygon fill="orange" stroke="orange" points="682.42,-222.58 674.8,-229.95 685.35,-228.94 682.42,-222.58"/>
<text text-anchor="middle" x="771" y="-199" font-family="Helvetica,sans-Serif" font-size="10.00"> &lt; float &gt;</text>
</g>
<!-- Node8 -->
<g id="node8" class="node">
<title>Node8</title>
<g id="a_node8"><a xlink:href="classlemons_1_1dsp_1_1FX_1_1Compressor.html" target="_top" xlink:title=" ">
<polygon fill="none" stroke="black" points="1071,-229 1071,-259 1230,-259 1230,-229 1071,-229"/>
<text text-anchor="start" x="1079" y="-247" font-family="Helvetica,sans-Serif" font-size="10.00">lemons::dsp::FX::Compressor</text>
<text text-anchor="middle" x="1150.5" y="-236" font-family="Helvetica,sans-Serif" font-size="10.00">&lt; float &gt;</text>
</a>
</g>
</g>
<!-- Node7&#45;&gt;Node8 -->
<g id="edge7" class="edge">
<title>Node7&#45;&gt;Node8</title>
<path fill="none" stroke="orange" stroke-dasharray="5,2" d="M969.65,-324.92C975.56,-323.04 981.41,-321.06 987,-319 1034.97,-301.36 1088.39,-275.43 1120.45,-259.14"/>
<polygon fill="orange" stroke="orange" points="968.22,-321.69 959.69,-327.98 970.28,-328.38 968.22,-321.69"/>
<text text-anchor="middle" x="1029" y="-315" font-family="Helvetica,sans-Serif" font-size="10.00"> &lt; float &gt;</text>
</g>
<!-- Node13&#45;&gt;Node8 -->
<g id="edge13" class="edge">
<title>Node13&#45;&gt;Node8</title>
<path fill="none" stroke="midnightblue" d="M966.87,-165.16C973.71,-167.34 980.52,-169.64 987,-172 1033.96,-189.14 1086.56,-213.42 1118.86,-228.94"/>
<polygon fill="midnightblue" stroke="midnightblue" points="967.46,-161.68 956.87,-162.06 965.38,-168.36 967.46,-161.68"/>
</g>
<!-- Node14&#45;&gt;Node13 -->
<g id="edge15" class="edge">
<title>Node14&#45;&gt;Node13</title>
<path fill="none" stroke="midnightblue" d="M736.96,-162C740.35,-161.66 743.7,-161.33 747,-161 768.36,-158.89 791.42,-156.71 812.97,-154.72"/>
<polygon fill="midnightblue" stroke="midnightblue" points="736.31,-158.55 726.72,-163.05 737.02,-165.52 736.31,-158.55"/>
</g>
<!-- Node16 -->
<g id="node16" class="node">
<title>Node16</title>
<g id="a_node16"><a xlink:href="classlemons_1_1dsp_1_1FX_1_1SmoothedGain.html" target="_top" xlink:title=" ">
<polygon fill="none" stroke="black" points="567,-59 567,-89 717,-89 717,-59 567,-59"/>
<text text-anchor="start" x="575" y="-77" font-family="Helvetica,sans-Serif" font-size="10.00">lemons::dsp::FX::Smoothed</text>
<text text-anchor="middle" x="642" y="-66" font-family="Helvetica,sans-Serif" font-size="10.00">Gain&lt; SampleType, 1 &gt;</text>
</a>
</g>
</g>
<!-- Node15&#45;&gt;Node16 -->
<g id="edge17" class="edge">
<title>Node15&#45;&gt;Node16</title>
<path fill="none" stroke="orange" stroke-dasharray="5,2" d="M416.2,-92.53C424.24,-91.63 432.27,-90.77 440,-90 481.97,-85.8 528.97,-82.01 566.95,-79.18"/>
<polygon fill="orange" stroke="orange" points="415.57,-89.08 406.03,-93.69 416.36,-96.04 415.57,-89.08"/>
<text text-anchor="middle" x="488.5" y="-93" font-family="Helvetica,sans-Serif" font-size="10.00"> &lt; SampleType, 1 &gt;</text>
</g>
<!-- Node17 -->
<g id="node17" class="node">
<title>Node17</title>
<g id="a_node17"><a xlink:href="classlemons_1_1dsp_1_1FX_1_1SmoothedGain.html" target="_top" xlink:title=" ">
<polygon fill="none" stroke="black" points="567,-108 567,-138 717,-138 717,-108 567,-108"/>
<text text-anchor="start" x="575" y="-126" font-family="Helvetica,sans-Serif" font-size="10.00">lemons::dsp::FX::Smoothed</text>
<text text-anchor="middle" x="642" y="-115" font-family="Helvetica,sans-Serif" font-size="10.00">Gain&lt; float, 2 &gt;</text>
</a>
</g>
</g>
<!-- Node15&#45;&gt;Node17 -->
<g id="edge18" class="edge">
<title>Node15&#45;&gt;Node17</title>
<path fill="none" stroke="orange" stroke-dasharray="5,2" d="M416.35,-104.85C453.4,-106.04 497.4,-107.95 537,-111 546.7,-111.75 556.88,-112.71 566.93,-113.76"/>
<polygon fill="orange" stroke="orange" points="416.19,-101.34 406.09,-104.54 415.98,-108.34 416.19,-101.34"/>
<text text-anchor="middle" x="488.5" y="-114" font-family="Helvetica,sans-Serif" font-size="10.00"> &lt; float, 2 &gt;</text>
</g>
<!-- Node20&#45;&gt;Node14 -->
<g id="edge22" class="edge">
<title>Node20&#45;&gt;Node14</title>
<path fill="none" stroke="midnightblue" d="M419.41,-157.66C462.71,-160.46 514.74,-163.83 557.5,-166.6"/>
<polygon fill="midnightblue" stroke="midnightblue" points="419.38,-154.15 409.18,-157 418.93,-161.13 419.38,-154.15"/>
</g>
<!-- Node20&#45;&gt;Node17 -->
<g id="edge23" class="edge">
<title>Node20&#45;&gt;Node17</title>
<path fill="none" stroke="midnightblue" d="M419.26,-143.81C465.83,-139.44 522.53,-134.12 566.93,-129.95"/>
<polygon fill="midnightblue" stroke="midnightblue" points="418.81,-140.34 409.18,-144.76 419.46,-147.31 418.81,-140.34"/>
</g>
</g>
</svg>
