<?xml version="1.0" encoding="UTF-8" standalone="no"?>
<!DOCTYPE svg PUBLIC "-//W3C//DTD SVG 1.1//EN"
 "http://www.w3.org/Graphics/SVG/1.1/DTD/svg11.dtd">
<!-- Generated by graphviz version 2.49.1 (20210923.0004)
 -->
<!-- Title: lemons::plugin::MidiPitchParameter Pages: 1 -->
<svg width="141pt" height="207pt"
 viewBox="0.00 0.00 141.00 207.00" xmlns="http://www.w3.org/2000/svg" xmlns:xlink="http://www.w3.org/1999/xlink">
<g id="graph0" class="graph" transform="scale(1 1) rotate(0) translate(4 203)">
<title>lemons::plugin::MidiPitchParameter</title>
<!-- Node1 -->
<g id="node1" class="node">
<title>Node1</title>
<g id="a_node1"><a xlink:title="A parameter that represents a MIDI pitch.">
<polygon fill="#bfbfbf" stroke="black" points="3,-0.5 3,-30.5 130,-30.5 130,-0.5 3,-0.5"/>
<text text-anchor="start" x="11" y="-18.5" font-family="Helvetica,sans-Serif" font-size="10.00">lemons::plugin::MidiPitch</text>
<text text-anchor="middle" x="66.5" y="-7.5" font-family="Helvetica,sans-Serif" font-size="10.00">Parameter</text>
</a>
</g>
</g>
<!-- Node2 -->
<g id="node2" class="node">
<title>Node2</title>
<g id="a_node2"><a xlink:href="classlemons_1_1plugin_1_1TypedParameter.html" target="_top" xlink:title="A parameter that can be stored as a type other than a float, but still inherits from my Parameter bas...">
<polygon fill="none" stroke="black" points="29.5,-67.5 29.5,-86.5 103.5,-86.5 103.5,-67.5 29.5,-67.5"/>
<text text-anchor="middle" x="66.5" y="-74.5" font-family="Helvetica,sans-Serif" font-size="10.00">IntParameter</text>
</a>
</g>
</g>
<!-- Node2&#45;&gt;Node1 -->
<g id="edge1" class="edge">
<title>Node2&#45;&gt;Node1</title>
<path fill="none" stroke="midnightblue" d="M66.5,-57.23C66.5,-48.59 66.5,-38.5 66.5,-30.52"/>
<polygon fill="midnightblue" stroke="midnightblue" points="63,-57.48 66.5,-67.48 70,-57.48 63,-57.48"/>
</g>
<!-- Node3 -->
<g id="node3" class="node">
<title>Node3</title>
<g id="a_node3"><a xlink:href="classlemons_1_1plugin_1_1Parameter.html" target="_top" xlink:title="A plugin parameter class that allows you to use my Serializing API, and has a few other cool bells an...">
<polygon fill="none" stroke="black" points="0,-123.5 0,-142.5 133,-142.5 133,-123.5 0,-123.5"/>
<text text-anchor="middle" x="66.5" y="-130.5" font-family="Helvetica,sans-Serif" font-size="10.00">lemons::plugin::Parameter</text>
</a>
</g>
</g>
<!-- Node3&#45;&gt;Node2 -->
<g id="edge2" class="edge">
<title>Node3&#45;&gt;Node2</title>
<path fill="none" stroke="midnightblue" d="M66.5,-112.8C66.5,-103.91 66.5,-93.78 66.5,-86.75"/>
<polygon fill="midnightblue" stroke="midnightblue" points="63,-113.08 66.5,-123.08 70,-113.08 63,-113.08"/>
</g>
<!-- Node4 -->
<g id="node4" class="node">
<title>Node4</title>
<g id="a_node4"><a xlink:href="structlemons_1_1SerializableData.html" target="_top" xlink:title="Base class for any C++ object that needs to be serialized to binary and back.">
<polygon fill="none" stroke="black" points="3,-179.5 3,-198.5 130,-198.5 130,-179.5 3,-179.5"/>
<text text-anchor="middle" x="66.5" y="-186.5" font-family="Helvetica,sans-Serif" font-size="10.00">lemons::SerializableData</text>
</a>
</g>
</g>
<!-- Node4&#45;&gt;Node3 -->
<g id="edge3" class="edge">
<title>Node4&#45;&gt;Node3</title>
<path fill="none" stroke="midnightblue" d="M66.5,-168.8C66.5,-159.91 66.5,-149.78 66.5,-142.75"/>
<polygon fill="midnightblue" stroke="midnightblue" points="63,-169.08 66.5,-179.08 70,-169.08 63,-169.08"/>
</g>
</g>
</svg>
