<?xml version="1.0" encoding="UTF-8" standalone="no"?>
<!DOCTYPE svg PUBLIC "-//W3C//DTD SVG 1.1//EN"
 "http://www.w3.org/Graphics/SVG/1.1/DTD/svg11.dtd">
<!-- Generated by graphviz version 2.43.0 (0)
 -->
<!-- Title: lemons::plugin::GainMeterParameter Pages: 1 -->
<svg width="1255pt" height="88pt"
 viewBox="0.00 0.00 1255.00 88.00" xmlns="http://www.w3.org/2000/svg" xmlns:xlink="http://www.w3.org/1999/xlink">
<g id="graph0" class="graph" transform="scale(1 1) rotate(0) translate(4 84)">
<title>lemons::plugin::GainMeterParameter</title>
<!-- Node1 -->
<g id="node1" class="node">
<title>Node1</title>
<g id="a_node1"><a xlink:title=" ">
<polygon fill="#bfbfbf" stroke="black" points="1101,-24.5 1101,-54.5 1247,-54.5 1247,-24.5 1101,-24.5"/>
<text text-anchor="start" x="1109" y="-42.5" font-family="Helvetica,sans-Serif" font-size="10.00">lemons::plugin::GainMeter</text>
<text text-anchor="middle" x="1174" y="-31.5" font-family="Helvetica,sans-Serif" font-size="10.00">Parameter</text>
</a>
</g>
</g>
<!-- Node2 -->
<g id="node2" class="node">
<title>Node2</title>
<g id="a_node2"><a xlink:href="structlemons_1_1plugin_1_1_meter_parameter.html" target="_top" xlink:title=" ">
<polygon fill="none" stroke="black" points="891,-24.5 891,-54.5 1064,-54.5 1064,-24.5 891,-24.5"/>
<text text-anchor="start" x="899" y="-42.5" font-family="Helvetica,sans-Serif" font-size="10.00">lemons::plugin::MeterParameter</text>
<text text-anchor="middle" x="977.5" y="-31.5" font-family="Helvetica,sans-Serif" font-size="10.00">&lt; float &gt;</text>
</a>
</g>
</g>
<!-- Node2&#45;&gt;Node1 -->
<g id="edge1" class="edge">
<title>Node2&#45;&gt;Node1</title>
<path fill="none" stroke="midnightblue" d="M1074.17,-39.5C1083.11,-39.5 1092.07,-39.5 1100.74,-39.5"/>
<polygon fill="midnightblue" stroke="midnightblue" points="1074.09,-36 1064.09,-39.5 1074.09,-43 1074.09,-36"/>
</g>
<!-- Node3 -->
<g id="node3" class="node">
<title>Node3</title>
<g id="a_node3"><a xlink:href="classlemons_1_1plugin_1_1_typed_parameter.html" target="_top" xlink:title=" ">
<polygon fill="none" stroke="black" points="634,-49.5 634,-79.5 807,-79.5 807,-49.5 634,-49.5"/>
<text text-anchor="start" x="642" y="-67.5" font-family="Helvetica,sans-Serif" font-size="10.00">lemons::plugin::TypedParameter</text>
<text text-anchor="middle" x="720.5" y="-56.5" font-family="Helvetica,sans-Serif" font-size="10.00">&lt; float &gt;</text>
</a>
</g>
</g>
<!-- Node3&#45;&gt;Node2 -->
<g id="edge2" class="edge">
<title>Node3&#45;&gt;Node2</title>
<path fill="none" stroke="midnightblue" d="M817.33,-55.1C841.42,-52.74 867.11,-50.22 890.67,-47.91"/>
<polygon fill="midnightblue" stroke="midnightblue" points="816.73,-51.65 807.12,-56.11 817.41,-58.61 816.73,-51.65"/>
</g>
<!-- Node4 -->
<g id="node4" class="node">
<title>Node4</title>
<g id="a_node4"><a xlink:href="classlemons_1_1plugin_1_1_parameter.html" target="_top" xlink:title=" ">
<polygon fill="none" stroke="black" points="195,-43 195,-62 340,-62 340,-43 195,-43"/>
<text text-anchor="middle" x="267.5" y="-50" font-family="Helvetica,sans-Serif" font-size="10.00">lemons::plugin::Parameter</text>
</a>
</g>
</g>
<!-- Node4&#45;&gt;Node3 -->
<g id="edge3" class="edge">
<title>Node4&#45;&gt;Node3</title>
<path fill="none" stroke="midnightblue" d="M350.35,-56.23C352.93,-56.33 355.48,-56.42 358,-56.5 452.27,-59.65 560.41,-61.86 633.66,-63.14"/>
<polygon fill="midnightblue" stroke="midnightblue" points="350.43,-52.73 340.3,-55.85 350.16,-59.73 350.43,-52.73"/>
</g>
<!-- Node6 -->
<g id="node6" class="node">
<title>Node6</title>
<g id="a_node6"><a xlink:href="classlemons_1_1plugin_1_1_typed_parameter.html" target="_top" xlink:title=" ">
<polygon fill="none" stroke="black" points="377,-15.5 377,-45.5 550,-45.5 550,-15.5 377,-15.5"/>
<text text-anchor="start" x="385" y="-33.5" font-family="Helvetica,sans-Serif" font-size="10.00">lemons::plugin::TypedParameter</text>
<text text-anchor="middle" x="463.5" y="-22.5" font-family="Helvetica,sans-Serif" font-size="10.00">&lt; ValueType &gt;</text>
</a>
</g>
</g>
<!-- Node4&#45;&gt;Node6 -->
<g id="edge6" class="edge">
<title>Node4&#45;&gt;Node6</title>
<path fill="none" stroke="midnightblue" d="M350.41,-43.21C359.2,-42.21 368.16,-41.2 376.99,-40.2"/>
<polygon fill="midnightblue" stroke="midnightblue" points="349.73,-39.77 340.19,-44.37 350.52,-46.72 349.73,-39.77"/>
</g>
<!-- Node5 -->
<g id="node5" class="node">
<title>Node5</title>
<g id="a_node5"><a xlink:title=" ">
<polygon fill="none" stroke="#bfbfbf" points="0,-43 0,-62 158,-62 158,-43 0,-43"/>
<text text-anchor="middle" x="79" y="-50" font-family="Helvetica,sans-Serif" font-size="10.00">juce::RangedAudioParameter</text>
</a>
</g>
</g>
<!-- Node5&#45;&gt;Node4 -->
<g id="edge4" class="edge">
<title>Node5&#45;&gt;Node4</title>
<path fill="none" stroke="midnightblue" d="M168.06,-52.5C177.01,-52.5 186.01,-52.5 194.75,-52.5"/>
<polygon fill="midnightblue" stroke="midnightblue" points="168.01,-49 158.01,-52.5 168.01,-56 168.01,-49"/>
</g>
<!-- Node6&#45;&gt;Node3 -->
<g id="edge5" class="edge">
<title>Node6&#45;&gt;Node3</title>
<path fill="none" stroke="orange" stroke-dasharray="5,2" d="M560.43,-42.25C578.88,-44.59 598.05,-47.07 616,-49.5 621.85,-50.29 627.88,-51.12 633.95,-51.97"/>
<polygon fill="orange" stroke="orange" points="560.63,-38.75 550.27,-40.97 559.75,-45.69 560.63,-38.75"/>
<text text-anchor="middle" x="592" y="-52.5" font-family="Helvetica,sans-Serif" font-size="10.00"> &lt; float &gt;</text>
</g>
<!-- Node7 -->
<g id="node7" class="node">
<title>Node7</title>
<g id="a_node7"><a xlink:href="structlemons_1_1plugin_1_1_meter_parameter.html" target="_top" xlink:title=" ">
<polygon fill="none" stroke="black" points="634,-0.5 634,-30.5 807,-30.5 807,-0.5 634,-0.5"/>
<text text-anchor="start" x="642" y="-18.5" font-family="Helvetica,sans-Serif" font-size="10.00">lemons::plugin::MeterParameter</text>
<text text-anchor="middle" x="720.5" y="-7.5" font-family="Helvetica,sans-Serif" font-size="10.00">&lt; ValueType &gt;</text>
</a>
</g>
</g>
<!-- Node6&#45;&gt;Node7 -->
<g id="edge8" class="edge">
<title>Node6&#45;&gt;Node7</title>
<path fill="none" stroke="midnightblue" d="M560.33,-24.86C584.42,-23.45 610.11,-21.93 633.67,-20.55"/>
<polygon fill="midnightblue" stroke="midnightblue" points="559.9,-21.38 550.12,-25.46 560.31,-28.37 559.9,-21.38"/>
</g>
<!-- Node7&#45;&gt;Node2 -->
<g id="edge7" class="edge">
<title>Node7&#45;&gt;Node2</title>
<path fill="none" stroke="orange" stroke-dasharray="5,2" d="M817.33,-24.52C841.42,-26.79 867.11,-29.2 890.67,-31.42"/>
<polygon fill="orange" stroke="orange" points="817.4,-21.01 807.12,-23.56 816.75,-27.98 817.4,-21.01"/>
<text text-anchor="middle" x="849" y="-33.5" font-family="Helvetica,sans-Serif" font-size="10.00"> &lt; float &gt;</text>
</g>
</g>
</svg>
