<?xml version="1.0" encoding="UTF-8" standalone="no"?>
<!DOCTYPE svg PUBLIC "-//W3C//DTD SVG 1.1//EN"
 "http://www.w3.org/Graphics/SVG/1.1/DTD/svg11.dtd">
<!-- Generated by graphviz version 2.49.3 (20211023.0002)
 -->
<!-- Title: lemons::plugin::LFO Pages: 1 -->
<svg width="1133pt" height="169pt"
 viewBox="0.00 0.00 1133.00 168.50" xmlns="http://www.w3.org/2000/svg" xmlns:xlink="http://www.w3.org/1999/xlink">
<g id="graph0" class="graph" transform="scale(1 1) rotate(0) translate(4 164.5)">
<title>lemons::plugin::LFO</title>
<!-- Node1 -->
<g id="node1" class="node">
<title>Node1</title>
<g id="a_node1"><a xlink:title="An LFO, to be used by a ModulationManager object.">
<polygon fill="#bfbfbf" stroke="black" points="1021,-99 1021,-118 1125,-118 1125,-99 1021,-99"/>
<text text-anchor="middle" x="1073" y="-106" font-family="Helvetica,sans-Serif" font-size="10.00">lemons::plugin::LFO</text>
</a>
</g>
</g>
<!-- Node2 -->
<g id="node2" class="node">
<title>Node2</title>
<g id="a_node2"><a xlink:href="classlemons_1_1plugin_1_1_meta_parameter.html" target="_top" xlink:title=" ">
<polygon fill="none" stroke="black" points="832,-93.5 832,-123.5 984,-123.5 984,-93.5 832,-93.5"/>
<text text-anchor="start" x="840" y="-111.5" font-family="Helvetica,sans-Serif" font-size="10.00">lemons::plugin::MetaParameter</text>
<text text-anchor="middle" x="908" y="-100.5" font-family="Helvetica,sans-Serif" font-size="10.00">&lt; float &gt;</text>
</a>
</g>
</g>
<!-- Node2&#45;&gt;Node1 -->
<g id="edge1" class="edge">
<title>Node2&#45;&gt;Node1</title>
<path fill="none" stroke="midnightblue" d="M994.44,-108.5C1003.43,-108.5 1012.35,-108.5 1020.76,-108.5"/>
<polygon fill="midnightblue" stroke="midnightblue" points="994.3,-105 984.3,-108.5 994.3,-112 994.3,-105"/>
</g>
<!-- Node3 -->
<g id="node3" class="node">
<title>Node3</title>
<g id="a_node3"><a xlink:href="classlemons_1_1plugin_1_1_typed_parameter.html" target="_top" xlink:title=" ">
<polygon fill="none" stroke="black" points="599,-44.5 599,-74.5 756,-74.5 756,-44.5 599,-44.5"/>
<text text-anchor="start" x="607" y="-62.5" font-family="Helvetica,sans-Serif" font-size="10.00">lemons::plugin::TypedParameter</text>
<text text-anchor="middle" x="677.5" y="-51.5" font-family="Helvetica,sans-Serif" font-size="10.00">&lt; float &gt;</text>
</a>
</g>
</g>
<!-- Node3&#45;&gt;Node2 -->
<g id="edge2" class="edge">
<title>Node3&#45;&gt;Node2</title>
<path fill="none" stroke="midnightblue" d="M758.64,-76.69C784.19,-82.16 812.25,-88.18 837.02,-93.49"/>
<polygon fill="midnightblue" stroke="midnightblue" points="759.12,-73.21 748.61,-74.53 757.65,-80.05 759.12,-73.21"/>
</g>
<!-- Node4 -->
<g id="node4" class="node">
<title>Node4</title>
<g id="a_node4"><a xlink:href="classlemons_1_1plugin_1_1_parameter.html" target="_top" xlink:title="A plugin parameter class.">
<polygon fill="none" stroke="black" points="180,-50 180,-69 311,-69 311,-50 180,-50"/>
<text text-anchor="middle" x="245.5" y="-57" font-family="Helvetica,sans-Serif" font-size="10.00">lemons::plugin::Parameter</text>
</a>
</g>
</g>
<!-- Node4&#45;&gt;Node3 -->
<g id="edge3" class="edge">
<title>Node4&#45;&gt;Node3</title>
<path fill="none" stroke="midnightblue" d="M321.54,-59.5C399.23,-59.5 520.05,-59.5 598.73,-59.5"/>
<polygon fill="midnightblue" stroke="midnightblue" points="321.34,-56 311.34,-59.5 321.34,-63 321.34,-56"/>
</g>
<!-- Node6 -->
<g id="node6" class="node">
<title>Node6</title>
<g id="a_node6"><a xlink:href="classlemons_1_1plugin_1_1_typed_parameter.html" target="_top" xlink:title="A parameter that can be stored as a type other than a float, but still inherits from my Parameter bas...">
<polygon fill="none" stroke="black" points="357,-0.5 357,-30.5 514,-30.5 514,-0.5 357,-0.5"/>
<text text-anchor="start" x="365" y="-18.5" font-family="Helvetica,sans-Serif" font-size="10.00">lemons::plugin::TypedParameter</text>
<text text-anchor="middle" x="435.5" y="-7.5" font-family="Helvetica,sans-Serif" font-size="10.00">&lt; ValueType &gt;</text>
</a>
</g>
</g>
<!-- Node4&#45;&gt;Node6 -->
<g id="edge6" class="edge">
<title>Node4&#45;&gt;Node6</title>
<path fill="none" stroke="midnightblue" d="M297.28,-47.62C319.7,-42.37 346.33,-36.14 370.13,-30.57"/>
<polygon fill="midnightblue" stroke="midnightblue" points="296.23,-44.27 287.29,-49.95 297.83,-51.08 296.23,-44.27"/>
</g>
<!-- Node9 -->
<g id="node9" class="node">
<title>Node9</title>
<g id="a_node9"><a xlink:href="classlemons_1_1plugin_1_1_typed_parameter.html" target="_top" xlink:title="A parameter that can be stored as a type other than a float, but still inherits from my Parameter bas...">
<polygon fill="none" stroke="black" points="357,-88.5 357,-118.5 514,-118.5 514,-88.5 357,-88.5"/>
<text text-anchor="start" x="365" y="-106.5" font-family="Helvetica,sans-Serif" font-size="10.00">lemons::plugin::TypedParameter</text>
<text text-anchor="middle" x="435.5" y="-95.5" font-family="Helvetica,sans-Serif" font-size="10.00">&lt; ValueType &gt;</text>
</a>
</g>
</g>
<!-- Node4&#45;&gt;Node9 -->
<g id="edge10" class="edge">
<title>Node4&#45;&gt;Node9</title>
<path fill="none" stroke="midnightblue" d="M297.28,-71.38C319.7,-76.63 346.33,-82.86 370.13,-88.43"/>
<polygon fill="midnightblue" stroke="midnightblue" points="297.83,-67.92 287.29,-69.05 296.23,-74.73 297.83,-67.92"/>
</g>
<!-- Node5 -->
<g id="node5" class="node">
<title>Node5</title>
<g id="a_node5"><a xlink:title=" ">
<polygon fill="none" stroke="black" points="0,-50 0,-69 143,-69 143,-50 0,-50"/>
<text text-anchor="middle" x="71.5" y="-57" font-family="Helvetica,sans-Serif" font-size="10.00">juce::RangedAudioParameter</text>
</a>
</g>
</g>
<!-- Node5&#45;&gt;Node4 -->
<g id="edge4" class="edge">
<title>Node5&#45;&gt;Node4</title>
<path fill="none" stroke="midnightblue" d="M153.68,-59.5C162.43,-59.5 171.25,-59.5 179.78,-59.5"/>
<polygon fill="midnightblue" stroke="midnightblue" points="153.45,-56 143.45,-59.5 153.45,-63 153.45,-56"/>
</g>
<!-- Node6&#45;&gt;Node3 -->
<g id="edge5" class="edge">
<title>Node6&#45;&gt;Node3</title>
<path fill="none" stroke="orange" stroke-dasharray="5,2" d="M524.09,-25.23C542.94,-27.82 562.69,-30.91 581,-34.5 595.04,-37.25 610.09,-40.87 623.98,-44.49"/>
<polygon fill="orange" stroke="orange" points="524.41,-21.74 514.03,-23.88 523.48,-28.67 524.41,-21.74"/>
<text text-anchor="middle" x="561" y="-37.5" font-family="Helvetica,sans-Serif" font-size="10.00"> &lt; float &gt;</text>
</g>
<!-- Node7 -->
<g id="node7" class="node">
<title>Node7</title>
<g id="a_node7"><a xlink:href="structlemons_1_1plugin_1_1_meta_parameter_base.html" target="_top" xlink:title="A type&#45;erased interface for a parameter that can be connected to other parameters and control their v...">
<polygon fill="none" stroke="black" points="348,-141 348,-160 523,-160 523,-141 348,-141"/>
<text text-anchor="middle" x="435.5" y="-148" font-family="Helvetica,sans-Serif" font-size="10.00">lemons::plugin::MetaParameterBase</text>
</a>
</g>
</g>
<!-- Node7&#45;&gt;Node2 -->
<g id="edge7" class="edge">
<title>Node7&#45;&gt;Node2</title>
<path fill="none" stroke="midnightblue" d="M533.16,-148.15C596.65,-145.91 681.44,-141.63 756,-133.5 780.83,-130.79 807.79,-126.7 831.96,-122.61"/>
<polygon fill="midnightblue" stroke="midnightblue" points="533.03,-144.65 523.16,-148.49 533.27,-151.64 533.03,-144.65"/>
</g>
<!-- Node8 -->
<g id="node8" class="node">
<title>Node8</title>
<g id="a_node8"><a xlink:href="classlemons_1_1plugin_1_1_meta_parameter.html" target="_top" xlink:title="A meta parameter class that implements the MetaParameterBase interface.">
<polygon fill="none" stroke="black" points="601.5,-93.5 601.5,-123.5 753.5,-123.5 753.5,-93.5 601.5,-93.5"/>
<text text-anchor="start" x="609.5" y="-111.5" font-family="Helvetica,sans-Serif" font-size="10.00">lemons::plugin::MetaParameter</text>
<text text-anchor="middle" x="677.5" y="-100.5" font-family="Helvetica,sans-Serif" font-size="10.00">&lt; ValueType &gt;</text>
</a>
</g>
</g>
<!-- Node7&#45;&gt;Node8 -->
<g id="edge11" class="edge">
<title>Node7&#45;&gt;Node8</title>
<path fill="none" stroke="midnightblue" d="M501.18,-139.18C532.06,-133.78 569.2,-127.28 601.33,-121.65"/>
<polygon fill="midnightblue" stroke="midnightblue" points="500.21,-135.8 490.96,-140.97 501.41,-142.69 500.21,-135.8"/>
</g>
<!-- Node8&#45;&gt;Node2 -->
<g id="edge8" class="edge">
<title>Node8&#45;&gt;Node2</title>
<path fill="none" stroke="orange" stroke-dasharray="5,2" d="M763.78,-108.5C786.12,-108.5 810.05,-108.5 831.82,-108.5"/>
<polygon fill="orange" stroke="orange" points="763.64,-105 753.64,-108.5 763.64,-112 763.64,-105"/>
<text text-anchor="middle" x="794" y="-111.5" font-family="Helvetica,sans-Serif" font-size="10.00"> &lt; float &gt;</text>
</g>
<!-- Node9&#45;&gt;Node8 -->
<g id="edge9" class="edge">
<title>Node9&#45;&gt;Node8</title>
<path fill="none" stroke="midnightblue" d="M524.38,-105.33C549.59,-105.86 576.84,-106.42 601.22,-106.93"/>
<polygon fill="midnightblue" stroke="midnightblue" points="524.16,-101.83 514.09,-105.12 524.01,-108.82 524.16,-101.83"/>
</g>
</g>
</svg>
