<?xml version="1.0" encoding="UTF-8" standalone="no"?>
<!DOCTYPE svg PUBLIC "-//W3C//DTD SVG 1.1//EN"
 "http://www.w3.org/Graphics/SVG/1.1/DTD/svg11.dtd">
<!-- Generated by graphviz version 2.49.1 (20210923.0004)
 -->
<!-- Title: lemons::TreeReflector Pages: 1 -->
<svg width="234pt" height="84pt"
 viewBox="0.00 0.00 233.50 84.00" xmlns="http://www.w3.org/2000/svg" xmlns:xlink="http://www.w3.org/1999/xlink">
<g id="graph0" class="graph" transform="scale(1 1) rotate(0) translate(4 80)">
<title>lemons::TreeReflector</title>
<!-- Node1 -->
<g id="node1" class="node">
<title>Node1</title>
<g id="a_node1"><a xlink:title="Utility class that provides a convenient API for assigning data members or lambdas to ValueTree prope...">
<polygon fill="#bfbfbf" stroke="black" points="57,-56.5 57,-75.5 171,-75.5 171,-56.5 57,-56.5"/>
<text text-anchor="middle" x="114" y="-63.5" font-family="Helvetica,sans-Serif" font-size="10.00">lemons::TreeReflector</text>
</a>
</g>
</g>
<!-- Node2 -->
<g id="node2" class="node">
<title>Node2</title>
<g id="a_node2"><a xlink:href="structlemons_1_1TreeLoader.html" target="_top" xlink:title="Subclass of TreeReflector used for loading state.">
<polygon fill="none" stroke="black" points="0,-0.5 0,-19.5 106,-19.5 106,-0.5 0,-0.5"/>
<text text-anchor="middle" x="53" y="-7.5" font-family="Helvetica,sans-Serif" font-size="10.00">lemons::TreeLoader</text>
</a>
</g>
</g>
<!-- Node1&#45;&gt;Node2 -->
<g id="edge1" class="edge">
<title>Node1&#45;&gt;Node2</title>
<path fill="none" stroke="midnightblue" d="M96.53,-49.54C85.66,-39.91 72.06,-27.87 62.98,-19.83"/>
<polygon fill="midnightblue" stroke="midnightblue" points="94.39,-52.32 104.2,-56.32 99.03,-47.07 94.39,-52.32"/>
</g>
<!-- Node3 -->
<g id="node3" class="node">
<title>Node3</title>
<g id="a_node3"><a xlink:href="structlemons_1_1TreeSaver.html" target="_top" xlink:title="Subclass of TreeReflector used for saving state.">
<polygon fill="none" stroke="black" points="124.5,-0.5 124.5,-19.5 225.5,-19.5 225.5,-0.5 124.5,-0.5"/>
<text text-anchor="middle" x="175" y="-7.5" font-family="Helvetica,sans-Serif" font-size="10.00">lemons::TreeSaver</text>
</a>
</g>
</g>
<!-- Node1&#45;&gt;Node3 -->
<g id="edge2" class="edge">
<title>Node1&#45;&gt;Node3</title>
<path fill="none" stroke="midnightblue" d="M131.47,-49.54C142.34,-39.91 155.94,-27.87 165.02,-19.83"/>
<polygon fill="midnightblue" stroke="midnightblue" points="128.97,-47.07 123.8,-56.32 133.61,-52.32 128.97,-47.07"/>
</g>
</g>
</svg>
