<?xml version="1.0" encoding="UTF-8" standalone="no"?>
<!DOCTYPE svg PUBLIC "-//W3C//DTD SVG 1.1//EN"
 "http://www.w3.org/Graphics/SVG/1.1/DTD/svg11.dtd">
<!-- Generated by graphviz version 2.49.1 (20210923.0004)
 -->
<!-- Title: lemons::dsp::osc::Oscillator&lt; SampleType &gt; Pages: 1 -->
<svg width="326pt" height="235pt"
 viewBox="0.00 0.00 326.00 235.00" xmlns="http://www.w3.org/2000/svg" xmlns:xlink="http://www.w3.org/1999/xlink">
<g id="graph0" class="graph" transform="scale(1 1) rotate(0) translate(4 231)">
<title>lemons::dsp::osc::Oscillator&lt; SampleType &gt;</title>
<!-- Node1 -->
<g id="node1" class="node">
<title>Node1</title>
<g id="a_node1"><a xlink:title="Base class for any kind of oscillator.">
<polygon fill="#bfbfbf" stroke="black" points="0,-98.5 0,-128.5 139,-128.5 139,-98.5 0,-98.5"/>
<text text-anchor="start" x="8" y="-116.5" font-family="Helvetica,sans-Serif" font-size="10.00">lemons::dsp::osc::Oscillator</text>
<text text-anchor="middle" x="69.5" y="-105.5" font-family="Helvetica,sans-Serif" font-size="10.00">&lt; SampleType &gt;</text>
</a>
</g>
</g>
<!-- Node2 -->
<g id="node2" class="node">
<title>Node2</title>
<g id="a_node2"><a xlink:href="structlemons_1_1dsp_1_1osc_1_1Saw.html" target="_top" xlink:title="A basic sawtooth wave oscillator.">
<polygon fill="none" stroke="black" points="188,-196.5 188,-226.5 305,-226.5 305,-196.5 188,-196.5"/>
<text text-anchor="start" x="196" y="-214.5" font-family="Helvetica,sans-Serif" font-size="10.00">lemons::dsp::osc::Saw</text>
<text text-anchor="middle" x="246.5" y="-203.5" font-family="Helvetica,sans-Serif" font-size="10.00">&lt; SampleType &gt;</text>
</a>
</g>
</g>
<!-- Node1&#45;&gt;Node2 -->
<g id="edge1" class="edge">
<title>Node1&#45;&gt;Node2</title>
<path fill="none" stroke="midnightblue" d="M96.2,-134.9C116.57,-151.04 146.29,-172.84 175,-187.5 181.45,-190.79 188.45,-193.79 195.45,-196.47"/>
<polygon fill="midnightblue" stroke="midnightblue" points="98.33,-132.12 88.34,-128.58 93.94,-137.57 98.33,-132.12"/>
</g>
<!-- Node3 -->
<g id="node3" class="node">
<title>Node3</title>
<g id="a_node3"><a xlink:href="structlemons_1_1dsp_1_1osc_1_1Sine.html" target="_top" xlink:title="A basic sine wave oscillator.">
<polygon fill="none" stroke="black" points="188,-147.5 188,-177.5 305,-177.5 305,-147.5 188,-147.5"/>
<text text-anchor="start" x="196" y="-165.5" font-family="Helvetica,sans-Serif" font-size="10.00">lemons::dsp::osc::Sine</text>
<text text-anchor="middle" x="246.5" y="-154.5" font-family="Helvetica,sans-Serif" font-size="10.00">&lt; SampleType &gt;</text>
</a>
</g>
</g>
<!-- Node1&#45;&gt;Node3 -->
<g id="edge2" class="edge">
<title>Node1&#45;&gt;Node3</title>
<path fill="none" stroke="midnightblue" d="M134.15,-131.32C153.04,-136.61 173.54,-142.35 191.74,-147.45"/>
<polygon fill="midnightblue" stroke="midnightblue" points="135.01,-127.93 124.43,-128.6 133.12,-134.67 135.01,-127.93"/>
</g>
<!-- Node4 -->
<g id="node4" class="node">
<title>Node4</title>
<g id="a_node4"><a xlink:href="structlemons_1_1dsp_1_1osc_1_1Square.html" target="_top" xlink:title="A basic square wave oscillator.">
<polygon fill="none" stroke="black" points="182,-98.5 182,-128.5 311,-128.5 311,-98.5 182,-98.5"/>
<text text-anchor="start" x="190" y="-116.5" font-family="Helvetica,sans-Serif" font-size="10.00">lemons::dsp::osc::Square</text>
<text text-anchor="middle" x="246.5" y="-105.5" font-family="Helvetica,sans-Serif" font-size="10.00">&lt; SampleType &gt;</text>
</a>
</g>
</g>
<!-- Node1&#45;&gt;Node4 -->
<g id="edge3" class="edge">
<title>Node1&#45;&gt;Node4</title>
<path fill="none" stroke="midnightblue" d="M149.49,-113.5C160.34,-113.5 171.36,-113.5 181.89,-113.5"/>
<polygon fill="midnightblue" stroke="midnightblue" points="149.16,-110 139.16,-113.5 149.16,-117 149.16,-110"/>
</g>
<!-- Node5 -->
<g id="node5" class="node">
<title>Node5</title>
<g id="a_node5"><a xlink:href="classlemons_1_1dsp_1_1osc_1_1SuperSaw.html" target="_top" xlink:title="A basic &quot;super saw&quot; oscillator.">
<polygon fill="none" stroke="black" points="175,-49.5 175,-79.5 318,-79.5 318,-49.5 175,-49.5"/>
<text text-anchor="start" x="183" y="-67.5" font-family="Helvetica,sans-Serif" font-size="10.00">lemons::dsp::osc::SuperSaw</text>
<text text-anchor="middle" x="246.5" y="-56.5" font-family="Helvetica,sans-Serif" font-size="10.00">&lt; SampleType &gt;</text>
</a>
</g>
</g>
<!-- Node1&#45;&gt;Node5 -->
<g id="edge4" class="edge">
<title>Node1&#45;&gt;Node5</title>
<path fill="none" stroke="midnightblue" d="M134.15,-95.68C153.04,-90.39 173.54,-84.65 191.74,-79.55"/>
<polygon fill="midnightblue" stroke="midnightblue" points="133.12,-92.33 124.43,-98.4 135.01,-99.07 133.12,-92.33"/>
</g>
<!-- Node6 -->
<g id="node6" class="node">
<title>Node6</title>
<g id="a_node6"><a xlink:href="structlemons_1_1dsp_1_1osc_1_1Triangle.html" target="_top" xlink:title="A basic triangle wave oscillator.">
<polygon fill="none" stroke="black" points="180,-0.5 180,-30.5 313,-30.5 313,-0.5 180,-0.5"/>
<text text-anchor="start" x="188" y="-18.5" font-family="Helvetica,sans-Serif" font-size="10.00">lemons::dsp::osc::Triangle</text>
<text text-anchor="middle" x="246.5" y="-7.5" font-family="Helvetica,sans-Serif" font-size="10.00">&lt; SampleType &gt;</text>
</a>
</g>
</g>
<!-- Node1&#45;&gt;Node6 -->
<g id="edge5" class="edge">
<title>Node1&#45;&gt;Node6</title>
<path fill="none" stroke="midnightblue" d="M96.67,-92.23C117.08,-76.4 146.64,-55.1 175,-40.5 182.04,-36.88 189.73,-33.56 197.36,-30.61"/>
<polygon fill="midnightblue" stroke="midnightblue" points="94.48,-89.5 88.78,-98.43 98.81,-95 94.48,-89.5"/>
</g>
</g>
</svg>
