<?xml version="1.0" encoding="UTF-8" standalone="no"?>
<!DOCTYPE svg PUBLIC "-//W3C//DTD SVG 1.1//EN"
 "http://www.w3.org/Graphics/SVG/1.1/DTD/svg11.dtd">
<!-- Generated by graphviz version 2.43.0 (0)
 -->
<!-- Title: lemons::plugin::MidiPanParameter Pages: 1 -->
<svg width="285pt" height="220pt"
 viewBox="0.00 0.00 285.00 220.00" xmlns="http://www.w3.org/2000/svg" xmlns:xlink="http://www.w3.org/1999/xlink">
<g id="graph0" class="graph" transform="scale(1 1) rotate(0) translate(4 216)">
<title>lemons::plugin::MidiPanParameter</title>
<!-- Node1 -->
<g id="node1" class="node">
<title>Node1</title>
<g id="a_node1"><a xlink:title="A parameter that represents a MIDI panning value in the range 0 to 127.">
<polygon fill="#bfbfbf" stroke="black" points="0,-0.5 0,-19.5 183,-19.5 183,-0.5 0,-0.5"/>
<text text-anchor="middle" x="91.5" y="-7.5" font-family="Helvetica,sans-Serif" font-size="10.00">lemons::plugin::MidiPanParameter</text>
</a>
</g>
</g>
<!-- Node2 -->
<g id="node2" class="node">
<title>Node2</title>
<g id="a_node2"><a xlink:href="classlemons_1_1plugin_1_1_typed_parameter.html" target="_top" xlink:title=" ">
<polygon fill="none" stroke="black" points="51.5,-57.5 51.5,-76.5 131.5,-76.5 131.5,-57.5 51.5,-57.5"/>
<text text-anchor="middle" x="91.5" y="-64.5" font-family="Helvetica,sans-Serif" font-size="10.00">IntParameter</text>
</a>
</g>
</g>
<!-- Node2&#45;&gt;Node1 -->
<g id="edge1" class="edge">
<title>Node2&#45;&gt;Node1</title>
<path fill="none" stroke="midnightblue" d="M91.5,-47.12C91.5,-37.82 91.5,-27.06 91.5,-19.71"/>
<polygon fill="midnightblue" stroke="midnightblue" points="88,-47.41 91.5,-57.41 95,-47.41 88,-47.41"/>
</g>
<!-- Node3 -->
<g id="node3" class="node">
<title>Node3</title>
<g id="a_node3"><a xlink:href="classlemons_1_1plugin_1_1_parameter.html" target="_top" xlink:title="A plugin parameter class that allows you to use my Serializing API, and has a few other cool bells an...">
<polygon fill="none" stroke="black" points="15,-192.5 15,-211.5 160,-211.5 160,-192.5 15,-192.5"/>
<text text-anchor="middle" x="87.5" y="-199.5" font-family="Helvetica,sans-Serif" font-size="10.00">lemons::plugin::Parameter</text>
</a>
</g>
</g>
<!-- Node3&#45;&gt;Node2 -->
<g id="edge2" class="edge">
<title>Node3&#45;&gt;Node2</title>
<path fill="none" stroke="midnightblue" d="M88.07,-182.13C88.95,-152.88 90.6,-97.76 91.24,-76.59"/>
<polygon fill="midnightblue" stroke="midnightblue" points="84.56,-182.17 87.76,-192.27 91.56,-182.38 84.56,-182.17"/>
</g>
<!-- Node4 -->
<g id="node4" class="node">
<title>Node4</title>
<g id="a_node4"><a xlink:href="classlemons_1_1plugin_1_1_typed_parameter.html" target="_top" xlink:title="A parameter that can be stored as a type other than a float, but still inherits from my Parameter bas...">
<polygon fill="none" stroke="black" points="104,-124.5 104,-154.5 277,-154.5 277,-124.5 104,-124.5"/>
<text text-anchor="start" x="112" y="-142.5" font-family="Helvetica,sans-Serif" font-size="10.00">lemons::plugin::TypedParameter</text>
<text text-anchor="middle" x="190.5" y="-131.5" font-family="Helvetica,sans-Serif" font-size="10.00">&lt; ValueType &gt;</text>
</a>
</g>
</g>
<!-- Node3&#45;&gt;Node4 -->
<g id="edge4" class="edge">
<title>Node3&#45;&gt;Node4</title>
<path fill="none" stroke="midnightblue" d="M111.32,-187.01C127.93,-177.25 150,-164.29 166.62,-154.53"/>
<polygon fill="midnightblue" stroke="midnightblue" points="109.11,-184.25 102.26,-192.33 112.65,-190.28 109.11,-184.25"/>
</g>
<!-- Node4&#45;&gt;Node2 -->
<g id="edge3" class="edge">
<title>Node4&#45;&gt;Node2</title>
<path fill="none" stroke="orange" stroke-dasharray="5,2" d="M162.28,-118.4C142.93,-104.62 118.22,-87.03 103.7,-76.69"/>
<polygon fill="orange" stroke="orange" points="160.29,-121.28 170.47,-124.23 164.35,-115.58 160.29,-121.28"/>
<text text-anchor="middle" x="163" y="-98" font-family="Helvetica,sans-Serif" font-size="10.00"> &lt; int &gt;</text>
</g>
</g>
</svg>
