<?xml version="1.0" encoding="UTF-8" standalone="no"?>
<!DOCTYPE svg PUBLIC "-//W3C//DTD SVG 1.1//EN"
 "http://www.w3.org/Graphics/SVG/1.1/DTD/svg11.dtd">
<!-- Generated by graphviz version 2.43.0 (0)
 -->
<!-- Title: lemons::dsp::factory::EngineCreator Pages: 1 -->
<svg width="305pt" height="110pt"
 viewBox="0.00 0.00 305.00 110.00" xmlns="http://www.w3.org/2000/svg" xmlns:xlink="http://www.w3.org/1999/xlink">
<g id="graph0" class="graph" transform="scale(1 1) rotate(0) translate(4 106)">
<title>lemons::dsp::factory::EngineCreator</title>
<!-- Node1 -->
<g id="node1" class="node">
<title>Node1</title>
<g id="a_node1"><a xlink:title=" ">
<polygon fill="#bfbfbf" stroke="black" points="0,-36 0,-66 116,-66 116,-36 0,-36"/>
<text text-anchor="start" x="8" y="-54" font-family="Helvetica,sans-Serif" font-size="10.00">lemons::dsp::factory</text>
<text text-anchor="middle" x="58" y="-43" font-family="Helvetica,sans-Serif" font-size="10.00">::EngineCreator</text>
</a>
</g>
</g>
<!-- Node2 -->
<g id="node2" class="node">
<title>Node2</title>
<g id="a_node2"><a xlink:href="structlemons_1_1dsp_1_1factory_1_1_arguments_engine_creator.html" target="_top" xlink:title=" ">
<polygon fill="none" stroke="black" points="152,-60.5 152,-101.5 297,-101.5 297,-60.5 152,-60.5"/>
<text text-anchor="start" x="160" y="-89.5" font-family="Helvetica,sans-Serif" font-size="10.00">lemons::dsp::factory</text>
<text text-anchor="start" x="160" y="-78.5" font-family="Helvetica,sans-Serif" font-size="10.00">::ArgumentsEngineCreator</text>
<text text-anchor="middle" x="224.5" y="-67.5" font-family="Helvetica,sans-Serif" font-size="10.00">&lt; EngineType, Args &gt;</text>
</a>
</g>
</g>
<!-- Node1&#45;&gt;Node2 -->
<g id="edge1" class="edge">
<title>Node1&#45;&gt;Node2</title>
<path fill="none" stroke="midnightblue" d="M125.93,-63.21C134.44,-64.76 143.17,-66.35 151.75,-67.91"/>
<polygon fill="midnightblue" stroke="midnightblue" points="126.54,-59.76 116.07,-61.41 125.28,-66.65 126.54,-59.76"/>
</g>
<!-- Node3 -->
<g id="node3" class="node">
<title>Node3</title>
<g id="a_node3"><a xlink:href="structlemons_1_1dsp_1_1factory_1_1_default_engine_creator.html" target="_top" xlink:title=" ">
<polygon fill="none" stroke="black" points="160.5,-0.5 160.5,-41.5 288.5,-41.5 288.5,-0.5 160.5,-0.5"/>
<text text-anchor="start" x="168.5" y="-29.5" font-family="Helvetica,sans-Serif" font-size="10.00">lemons::dsp::factory</text>
<text text-anchor="start" x="168.5" y="-18.5" font-family="Helvetica,sans-Serif" font-size="10.00">::DefaultEngineCreator</text>
<text text-anchor="middle" x="224.5" y="-7.5" font-family="Helvetica,sans-Serif" font-size="10.00">&lt; EngineType, &gt;</text>
</a>
</g>
</g>
<!-- Node1&#45;&gt;Node3 -->
<g id="edge2" class="edge">
<title>Node1&#45;&gt;Node3</title>
<path fill="none" stroke="midnightblue" d="M125.94,-38.79C137.3,-36.72 149.08,-34.57 160.34,-32.52"/>
<polygon fill="midnightblue" stroke="midnightblue" points="125.28,-35.35 116.07,-40.59 126.54,-42.24 125.28,-35.35"/>
</g>
</g>
</svg>
