<?xml version="1.0" encoding="UTF-8" standalone="no"?>
<!DOCTYPE svg PUBLIC "-//W3C//DTD SVG 1.1//EN"
 "http://www.w3.org/Graphics/SVG/1.1/DTD/svg11.dtd">
<!-- Generated by graphviz version 2.50.0 (20211204.2007)
 -->
<!-- Title: lemons::dsp::detail::is_rt_safe&lt; std::set&lt; T &gt;, move_tag, Tag &gt; Pages: 1 -->
<svg width="202pt" height="275pt"
 viewBox="0.00 0.00 202.00 275.00" xmlns="http://www.w3.org/2000/svg" xmlns:xlink="http://www.w3.org/1999/xlink">
<g id="graph0" class="graph" transform="scale(1 1) rotate(0) translate(4 271)">
<title>lemons::dsp::detail::is_rt_safe&lt; std::set&lt; T &gt;, move_tag, Tag &gt;</title>
<!-- Node1 -->
<g id="node1" class="node">
<title>Node1</title>
<g id="a_node1"><a xlink:title=" ">
<polygon fill="#bfbfbf" stroke="black" points="0,-0.5 0,-41.5 120,-41.5 120,-0.5 0,-0.5"/>
<text text-anchor="start" x="8" y="-29.5" font-family="Helvetica,sans-Serif" font-size="10.00">lemons::dsp::detail</text>
<text text-anchor="start" x="8" y="-18.5" font-family="Helvetica,sans-Serif" font-size="10.00">::is_rt_safe&lt; std::set</text>
<text text-anchor="middle" x="60" y="-7.5" font-family="Helvetica,sans-Serif" font-size="10.00">&lt; T &gt;, move_tag, Tag &gt;</text>
</a>
</g>
</g>
<!-- Node2 -->
<g id="node2" class="node">
<title>Node2</title>
<g id="a_node2"><a xlink:href="structlemons_1_1dsp_1_1detail_1_1is__rt__safe.html" target="_top" xlink:title=" ">
<polygon fill="none" stroke="black" points="5.5,-79.5 5.5,-120.5 114.5,-120.5 114.5,-79.5 5.5,-79.5"/>
<text text-anchor="start" x="13.5" y="-108.5" font-family="Helvetica,sans-Serif" font-size="10.00">lemons::dsp::detail</text>
<text text-anchor="start" x="13.5" y="-97.5" font-family="Helvetica,sans-Serif" font-size="10.00">::is_rt_safe&lt; T, move</text>
<text text-anchor="middle" x="60" y="-86.5" font-family="Helvetica,sans-Serif" font-size="10.00">_tag, Tag &gt;</text>
</a>
</g>
</g>
<!-- Node2&#45;&gt;Node1 -->
<g id="edge1" class="edge">
<title>Node2&#45;&gt;Node1</title>
<path fill="none" stroke="midnightblue" d="M60,-68.91C60,-59.79 60,-50.02 60,-41.76"/>
<polygon fill="midnightblue" stroke="midnightblue" points="56.5,-69.17 60,-79.17 63.5,-69.17 56.5,-69.17"/>
</g>
<!-- Node3 -->
<g id="node3" class="node">
<title>Node3</title>
<g id="a_node3"><a xlink:title=" ">
<polygon fill="none" stroke="black" points="15.5,-247.5 15.5,-266.5 96.5,-266.5 96.5,-247.5 15.5,-247.5"/>
<text text-anchor="middle" x="56" y="-254.5" font-family="Helvetica,sans-Serif" font-size="10.00">std::false_type</text>
</a>
</g>
</g>
<!-- Node3&#45;&gt;Node2 -->
<g id="edge2" class="edge">
<title>Node3&#45;&gt;Node2</title>
<path fill="none" stroke="midnightblue" d="M56.49,-237C57.25,-207.38 58.72,-150.51 59.5,-120.56"/>
<polygon fill="midnightblue" stroke="midnightblue" points="52.99,-237.14 56.23,-247.22 59.98,-237.32 52.99,-237.14"/>
</g>
<!-- Node4 -->
<g id="node4" class="node">
<title>Node4</title>
<g id="a_node4"><a xlink:href="structlemons_1_1dsp_1_1detail_1_1is__rt__safe.html" target="_top" xlink:title=" ">
<polygon fill="none" stroke="black" points="72.5,-168.5 72.5,-209.5 181.5,-209.5 181.5,-168.5 72.5,-168.5"/>
<text text-anchor="start" x="80.5" y="-197.5" font-family="Helvetica,sans-Serif" font-size="10.00">lemons::dsp::detail</text>
<text text-anchor="start" x="80.5" y="-186.5" font-family="Helvetica,sans-Serif" font-size="10.00">::is_rt_safe&lt; T, Tag1,</text>
<text text-anchor="middle" x="127" y="-175.5" font-family="Helvetica,sans-Serif" font-size="10.00"> Tag2 &gt;</text>
</a>
</g>
</g>
<!-- Node3&#45;&gt;Node4 -->
<g id="edge4" class="edge">
<title>Node3&#45;&gt;Node4</title>
<path fill="none" stroke="midnightblue" d="M72.83,-240.36C82.69,-231.19 95.24,-219.53 105.77,-209.74"/>
<polygon fill="midnightblue" stroke="midnightblue" points="70.22,-238 65.28,-247.37 74.99,-243.13 70.22,-238"/>
</g>
<!-- Node4&#45;&gt;Node2 -->
<g id="edge3" class="edge">
<title>Node4&#45;&gt;Node2</title>
<path fill="none" stroke="orange" stroke-dasharray="5,2" d="M105.56,-160.17C95.66,-147.3 84.13,-132.33 75.14,-120.66"/>
<polygon fill="orange" stroke="orange" points="102.92,-162.47 111.8,-168.26 108.47,-158.2 102.92,-162.47"/>
<text text-anchor="middle" x="145.5" y="-142" font-family="Helvetica,sans-Serif" font-size="10.00"> &lt; T, move_tag, Tag &gt;</text>
</g>
</g>
</svg>
