<?xml version="1.0" encoding="UTF-8" standalone="no"?>
<!DOCTYPE svg PUBLIC "-//W3C//DTD SVG 1.1//EN"
 "http://www.w3.org/Graphics/SVG/1.1/DTD/svg11.dtd">
<!-- Generated by graphviz version 2.49.1 (20210923.0004)
 -->
<!-- Title: lemons::plugin::MidiPanParameter Pages: 1 -->
<svg width="177pt" height="196pt"
 viewBox="0.00 0.00 177.00 196.00" xmlns="http://www.w3.org/2000/svg" xmlns:xlink="http://www.w3.org/1999/xlink">
<g id="graph0" class="graph" transform="scale(1 1) rotate(0) translate(4 192)">
<title>lemons::plugin::MidiPanParameter</title>
<!-- Node1 -->
<g id="node1" class="node">
<title>Node1</title>
<g id="a_node1"><a xlink:title="A parameter that represents a MIDI panning value in the range 0 to 127.">
<polygon fill="#bfbfbf" stroke="black" points="0,-0.5 0,-19.5 169,-19.5 169,-0.5 0,-0.5"/>
<text text-anchor="middle" x="84.5" y="-7.5" font-family="Helvetica,sans-Serif" font-size="10.00">lemons::plugin::MidiPanParameter</text>
</a>
</g>
</g>
<!-- Node2 -->
<g id="node2" class="node">
<title>Node2</title>
<g id="a_node2"><a xlink:href="classlemons_1_1plugin_1_1TypedParameter.html" target="_top" xlink:title="A parameter that can be stored as a type other than a float, but still inherits from my Parameter bas...">
<polygon fill="none" stroke="black" points="47.5,-56.5 47.5,-75.5 121.5,-75.5 121.5,-56.5 47.5,-56.5"/>
<text text-anchor="middle" x="84.5" y="-63.5" font-family="Helvetica,sans-Serif" font-size="10.00">IntParameter</text>
</a>
</g>
</g>
<!-- Node2&#45;&gt;Node1 -->
<g id="edge1" class="edge">
<title>Node2&#45;&gt;Node1</title>
<path fill="none" stroke="midnightblue" d="M84.5,-45.8C84.5,-36.91 84.5,-26.78 84.5,-19.75"/>
<polygon fill="midnightblue" stroke="midnightblue" points="81,-46.08 84.5,-56.08 88,-46.08 81,-46.08"/>
</g>
<!-- Node3 -->
<g id="node3" class="node">
<title>Node3</title>
<g id="a_node3"><a xlink:href="classlemons_1_1plugin_1_1Parameter.html" target="_top" xlink:title="A plugin parameter class that allows you to use my Serializing API, and has a few other cool bells an...">
<polygon fill="none" stroke="black" points="18,-112.5 18,-131.5 151,-131.5 151,-112.5 18,-112.5"/>
<text text-anchor="middle" x="84.5" y="-119.5" font-family="Helvetica,sans-Serif" font-size="10.00">lemons::plugin::Parameter</text>
</a>
</g>
</g>
<!-- Node3&#45;&gt;Node2 -->
<g id="edge2" class="edge">
<title>Node3&#45;&gt;Node2</title>
<path fill="none" stroke="midnightblue" d="M84.5,-101.8C84.5,-92.91 84.5,-82.78 84.5,-75.75"/>
<polygon fill="midnightblue" stroke="midnightblue" points="81,-102.08 84.5,-112.08 88,-102.08 81,-102.08"/>
</g>
<!-- Node4 -->
<g id="node4" class="node">
<title>Node4</title>
<g id="a_node4"><a xlink:href="structlemons_1_1SerializableData.html" target="_top" xlink:title="Base class for any C++ object that needs to be serialized to binary and back.">
<polygon fill="none" stroke="black" points="21,-168.5 21,-187.5 148,-187.5 148,-168.5 21,-168.5"/>
<text text-anchor="middle" x="84.5" y="-175.5" font-family="Helvetica,sans-Serif" font-size="10.00">lemons::SerializableData</text>
</a>
</g>
</g>
<!-- Node4&#45;&gt;Node3 -->
<g id="edge3" class="edge">
<title>Node4&#45;&gt;Node3</title>
<path fill="none" stroke="midnightblue" d="M84.5,-157.8C84.5,-148.91 84.5,-138.78 84.5,-131.75"/>
<polygon fill="midnightblue" stroke="midnightblue" points="81,-158.08 84.5,-168.08 88,-158.08 81,-158.08"/>
</g>
</g>
</svg>
