<?xml version="1.0" encoding="UTF-8" standalone="no"?>
<!DOCTYPE svg PUBLIC "-//W3C//DTD SVG 1.1//EN"
 "http://www.w3.org/Graphics/SVG/1.1/DTD/svg11.dtd">
<!-- Generated by graphviz version 2.49.3 (20211023.0002)
 -->
<!-- Title: lemons::dsp::FX::SidechainableAudioEffect&lt; SampleType &gt; Pages: 1 -->
<svg width="1028pt" height="284pt"
 viewBox="0.00 0.00 1028.00 284.00" xmlns="http://www.w3.org/2000/svg" xmlns:xlink="http://www.w3.org/1999/xlink">
<g id="graph0" class="graph" transform="scale(1 1) rotate(0) translate(4 280)">
<title>lemons::dsp::FX::SidechainableAudioEffect&lt; SampleType &gt;</title>
<!-- Node1 -->
<g id="node1" class="node">
<title>Node1</title>
<g id="a_node1"><a xlink:title="Base class for audio effects that accept a sidechain signal.">
<polygon fill="#bfbfbf" stroke="black" points="180,-49.5 180,-79.5 334,-79.5 334,-49.5 180,-49.5"/>
<text text-anchor="start" x="188" y="-67.5" font-family="Helvetica,sans-Serif" font-size="10.00">lemons::dsp::FX::Sidechainable</text>
<text text-anchor="middle" x="257" y="-56.5" font-family="Helvetica,sans-Serif" font-size="10.00">AudioEffect&lt; SampleType &gt;</text>
</a>
</g>
</g>
<!-- Node3 -->
<g id="node3" class="node">
<title>Node3</title>
<g id="a_node3"><a xlink:href="structlemons_1_1dsp_1_1_f_x_1_1_level_reporting_audio_effect.html" target="_top" xlink:title="Base class for audio effects that can report their level or gain reduction.">
<polygon fill="none" stroke="black" points="410,-98.5 410,-128.5 566,-128.5 566,-98.5 410,-98.5"/>
<text text-anchor="start" x="418" y="-116.5" font-family="Helvetica,sans-Serif" font-size="10.00">lemons::dsp::FX::LevelReporting</text>
<text text-anchor="middle" x="488" y="-105.5" font-family="Helvetica,sans-Serif" font-size="10.00">AudioEffect&lt; SampleType &gt;</text>
</a>
</g>
</g>
<!-- Node1&#45;&gt;Node3 -->
<g id="edge2" class="edge">
<title>Node1&#45;&gt;Node3</title>
<path fill="none" stroke="midnightblue" d="M338.32,-81.69C363.92,-87.16 392.04,-93.18 416.87,-98.49"/>
<polygon fill="midnightblue" stroke="midnightblue" points="338.77,-78.2 328.26,-79.53 337.31,-85.05 338.77,-78.2"/>
</g>
<!-- Node11 -->
<g id="node11" class="node">
<title>Node11</title>
<g id="a_node11"><a xlink:href="structlemons_1_1dsp_1_1_f_x_1_1_sidechainable_audio_effect.html" target="_top" xlink:title=" ">
<polygon fill="none" stroke="black" points="411,-25.5 411,-55.5 565,-55.5 565,-25.5 411,-25.5"/>
<text text-anchor="start" x="419" y="-43.5" font-family="Helvetica,sans-Serif" font-size="10.00">lemons::dsp::FX::Sidechainable</text>
<text text-anchor="middle" x="488" y="-32.5" font-family="Helvetica,sans-Serif" font-size="10.00">AudioEffect&lt; float &gt;</text>
</a>
</g>
</g>
<!-- Node1&#45;&gt;Node11 -->
<g id="edge11" class="edge">
<title>Node1&#45;&gt;Node11</title>
<path fill="none" stroke="orange" stroke-dasharray="5,2" d="M344.48,-55.44C366.25,-53.16 389.46,-50.72 410.69,-48.5"/>
<polygon fill="orange" stroke="orange" points="343.83,-51.98 334.25,-56.51 344.56,-58.95 343.83,-51.98"/>
<text text-anchor="middle" x="372" y="-57.5" font-family="Helvetica,sans-Serif" font-size="10.00"> &lt; float &gt;</text>
</g>
<!-- Node2 -->
<g id="node2" class="node">
<title>Node2</title>
<g id="a_node2"><a xlink:href="structlemons_1_1dsp_1_1_f_x_1_1_audio_effect.html" target="_top" xlink:title="Base class for any kind of audio effect.">
<polygon fill="none" stroke="black" points="0,-49.5 0,-79.5 143,-79.5 143,-49.5 0,-49.5"/>
<text text-anchor="start" x="8" y="-67.5" font-family="Helvetica,sans-Serif" font-size="10.00">lemons::dsp::FX::AudioEffect</text>
<text text-anchor="middle" x="71.5" y="-56.5" font-family="Helvetica,sans-Serif" font-size="10.00">&lt; SampleType &gt;</text>
</a>
</g>
</g>
<!-- Node2&#45;&gt;Node1 -->
<g id="edge1" class="edge">
<title>Node2&#45;&gt;Node1</title>
<path fill="none" stroke="midnightblue" d="M153.42,-64.5C162.21,-64.5 171.14,-64.5 179.87,-64.5"/>
<polygon fill="midnightblue" stroke="midnightblue" points="153.18,-61 143.18,-64.5 153.18,-68 153.18,-61"/>
</g>
<!-- Node4 -->
<g id="node4" class="node">
<title>Node4</title>
<g id="a_node4"><a xlink:href="classlemons_1_1dsp_1_1_f_x_1_1_compressor.html" target="_top" xlink:title="A simple compressor effect class that allows you to optionally sidechain the signal.">
<polygon fill="none" stroke="black" points="647,-245.5 647,-275.5 793,-275.5 793,-245.5 647,-245.5"/>
<text text-anchor="start" x="655" y="-263.5" font-family="Helvetica,sans-Serif" font-size="10.00">lemons::dsp::FX::Compressor</text>
<text text-anchor="middle" x="720" y="-252.5" font-family="Helvetica,sans-Serif" font-size="10.00">&lt; SampleType &gt;</text>
</a>
</g>
</g>
<!-- Node3&#45;&gt;Node4 -->
<g id="edge3" class="edge">
<title>Node3&#45;&gt;Node4</title>
<path fill="none" stroke="midnightblue" d="M510.98,-135.71C539.08,-162.97 590.31,-208.96 642,-236.5 648.3,-239.86 655.15,-242.83 662.07,-245.44"/>
<polygon fill="midnightblue" stroke="midnightblue" points="513.27,-133.05 503.68,-128.55 508.37,-138.05 513.27,-133.05"/>
</g>
<!-- Node6 -->
<g id="node6" class="node">
<title>Node6</title>
<g id="a_node6"><a xlink:href="classlemons_1_1dsp_1_1_f_x_1_1_de_esser.html" target="_top" xlink:title="A basic &quot;de&#45;esser&quot; effect class.">
<polygon fill="none" stroke="black" points="654.5,-196.5 654.5,-226.5 785.5,-226.5 785.5,-196.5 654.5,-196.5"/>
<text text-anchor="start" x="662.5" y="-214.5" font-family="Helvetica,sans-Serif" font-size="10.00">lemons::dsp::FX::DeEsser</text>
<text text-anchor="middle" x="720" y="-203.5" font-family="Helvetica,sans-Serif" font-size="10.00">&lt; SampleType &gt;</text>
</a>
</g>
</g>
<!-- Node3&#45;&gt;Node6 -->
<g id="edge5" class="edge">
<title>Node3&#45;&gt;Node6</title>
<path fill="none" stroke="midnightblue" d="M525.92,-133.27C556.49,-149.17 601.34,-171.43 642,-187.5 649.94,-190.64 658.47,-193.64 666.86,-196.4"/>
<polygon fill="midnightblue" stroke="midnightblue" points="527.4,-130.1 516.92,-128.56 524.15,-136.3 527.4,-130.1"/>
</g>
<!-- Node7 -->
<g id="node7" class="node">
<title>Node7</title>
<g id="a_node7"><a xlink:href="classlemons_1_1dsp_1_1_f_x_1_1_delay.html" target="_top" xlink:title=" ">
<polygon fill="none" stroke="black" points="661,-147.5 661,-177.5 779,-177.5 779,-147.5 661,-147.5"/>
<text text-anchor="start" x="669" y="-165.5" font-family="Helvetica,sans-Serif" font-size="10.00">lemons::dsp::FX::Delay</text>
<text text-anchor="middle" x="720" y="-154.5" font-family="Helvetica,sans-Serif" font-size="10.00">&lt; SampleType &gt;</text>
</a>
</g>
</g>
<!-- Node3&#45;&gt;Node7 -->
<g id="edge6" class="edge">
<title>Node3&#45;&gt;Node7</title>
<path fill="none" stroke="midnightblue" d="M569.63,-130.68C599.71,-137.09 633.26,-144.23 660.92,-150.13"/>
<polygon fill="midnightblue" stroke="midnightblue" points="570.08,-127.2 559.57,-128.53 568.62,-134.04 570.08,-127.2"/>
</g>
<!-- Node8 -->
<g id="node8" class="node">
<title>Node8</title>
<g id="a_node8"><a xlink:href="classlemons_1_1dsp_1_1_f_x_1_1_limiter.html" target="_top" xlink:title="A simple limiter effect class that allows you to optionally sidechain the signal.">
<polygon fill="none" stroke="black" points="659,-98.5 659,-128.5 781,-128.5 781,-98.5 659,-98.5"/>
<text text-anchor="start" x="667" y="-116.5" font-family="Helvetica,sans-Serif" font-size="10.00">lemons::dsp::FX::Limiter</text>
<text text-anchor="middle" x="720" y="-105.5" font-family="Helvetica,sans-Serif" font-size="10.00">&lt; SampleType &gt;</text>
</a>
</g>
</g>
<!-- Node3&#45;&gt;Node8 -->
<g id="edge7" class="edge">
<title>Node3&#45;&gt;Node8</title>
<path fill="none" stroke="midnightblue" d="M576.25,-113.5C603.75,-113.5 633.51,-113.5 658.7,-113.5"/>
<polygon fill="midnightblue" stroke="midnightblue" points="576.23,-110 566.23,-113.5 576.23,-117 576.23,-110"/>
</g>
<!-- Node9 -->
<g id="node9" class="node">
<title>Node9</title>
<g id="a_node9"><a xlink:href="classlemons_1_1dsp_1_1_f_x_1_1_noise_gate.html" target="_top" xlink:title="A simple noise gate effect class that allows you to optionally sidechain the signal.">
<polygon fill="none" stroke="black" points="650.5,-49.5 650.5,-79.5 789.5,-79.5 789.5,-49.5 650.5,-49.5"/>
<text text-anchor="start" x="658.5" y="-67.5" font-family="Helvetica,sans-Serif" font-size="10.00">lemons::dsp::FX::NoiseGate</text>
<text text-anchor="middle" x="720" y="-56.5" font-family="Helvetica,sans-Serif" font-size="10.00">&lt; SampleType &gt;</text>
</a>
</g>
</g>
<!-- Node3&#45;&gt;Node9 -->
<g id="edge8" class="edge">
<title>Node3&#45;&gt;Node9</title>
<path fill="none" stroke="midnightblue" d="M569.51,-96.35C595.82,-90.74 624.77,-84.57 650.14,-79.17"/>
<polygon fill="midnightblue" stroke="midnightblue" points="568.62,-92.96 559.57,-98.47 570.08,-99.8 568.62,-92.96"/>
</g>
<!-- Node10 -->
<g id="node10" class="node">
<title>Node10</title>
<g id="a_node10"><a xlink:href="structlemons_1_1dsp_1_1_f_x_1_1_level_reporting_audio_effect.html" target="_top" xlink:title=" ">
<polygon fill="none" stroke="black" points="642,-0.5 642,-30.5 798,-30.5 798,-0.5 642,-0.5"/>
<text text-anchor="start" x="650" y="-18.5" font-family="Helvetica,sans-Serif" font-size="10.00">lemons::dsp::FX::LevelReporting</text>
<text text-anchor="middle" x="720" y="-7.5" font-family="Helvetica,sans-Serif" font-size="10.00">AudioEffect&lt; float &gt;</text>
</a>
</g>
</g>
<!-- Node3&#45;&gt;Node10 -->
<g id="edge9" class="edge">
<title>Node3&#45;&gt;Node10</title>
<path fill="none" stroke="orange" stroke-dasharray="5,2" d="M525.92,-93.73C556.49,-77.83 601.34,-55.57 642,-39.5 649.94,-36.36 658.47,-33.36 666.86,-30.6"/>
<polygon fill="orange" stroke="orange" points="524.15,-90.7 516.92,-98.44 527.4,-96.9 524.15,-90.7"/>
<text text-anchor="middle" x="604" y="-67.5" font-family="Helvetica,sans-Serif" font-size="10.00"> &lt; float &gt;</text>
</g>
<!-- Node5 -->
<g id="node5" class="node">
<title>Node5</title>
<g id="a_node5"><a xlink:href="classlemons_1_1dsp_1_1_f_x_1_1_compressor.html" target="_top" xlink:title=" ">
<polygon fill="none" stroke="black" points="874,-122.5 874,-152.5 1020,-152.5 1020,-122.5 874,-122.5"/>
<text text-anchor="start" x="882" y="-140.5" font-family="Helvetica,sans-Serif" font-size="10.00">lemons::dsp::FX::Compressor</text>
<text text-anchor="middle" x="947" y="-129.5" font-family="Helvetica,sans-Serif" font-size="10.00">&lt; float &gt;</text>
</a>
</g>
</g>
<!-- Node4&#45;&gt;Node5 -->
<g id="edge4" class="edge">
<title>Node4&#45;&gt;Node5</title>
<path fill="none" stroke="orange" stroke-dasharray="5,2" d="M785.49,-241.94C789.78,-240.23 793.98,-238.42 798,-236.5 847.93,-212.64 900.39,-173.74 927.44,-152.51"/>
<polygon fill="orange" stroke="orange" points="784.15,-238.7 776.01,-245.49 786.61,-245.26 784.15,-238.7"/>
<text text-anchor="middle" x="836" y="-227.5" font-family="Helvetica,sans-Serif" font-size="10.00"> &lt; float &gt;</text>
</g>
<!-- Node10&#45;&gt;Node5 -->
<g id="edge10" class="edge">
<title>Node10&#45;&gt;Node5</title>
<path fill="none" stroke="midnightblue" d="M785.48,-34.08C789.77,-35.78 793.98,-37.59 798,-39.5 847.55,-63.04 899.74,-101.22 926.95,-122.31"/>
<polygon fill="midnightblue" stroke="midnightblue" points="786.59,-30.77 776,-30.54 784.14,-37.32 786.59,-30.77"/>
</g>
<!-- Node11&#45;&gt;Node10 -->
<g id="edge12" class="edge">
<title>Node11&#45;&gt;Node10</title>
<path fill="none" stroke="midnightblue" d="M575.29,-30.46C578.23,-30.14 581.14,-29.81 584,-29.5 602.74,-27.44 622.95,-25.31 641.88,-23.34"/>
<polygon fill="midnightblue" stroke="midnightblue" points="574.76,-27 565.21,-31.59 575.54,-33.96 574.76,-27"/>
</g>
</g>
</svg>
