<?xml version="1.0" encoding="UTF-8" standalone="no"?>
<!DOCTYPE svg PUBLIC "-//W3C//DTD SVG 1.1//EN"
 "http://www.w3.org/Graphics/SVG/1.1/DTD/svg11.dtd">
<!-- Generated by graphviz version 2.43.0 (0)
 -->
<!-- Title: lemons::plugin::ParamHolderBase Pages: 1 -->
<svg width="590pt" height="88pt"
 viewBox="0.00 0.00 590.00 88.00" xmlns="http://www.w3.org/2000/svg" xmlns:xlink="http://www.w3.org/1999/xlink">
<g id="graph0" class="graph" transform="scale(1 1) rotate(0) translate(4 84)">
<title>lemons::plugin::ParamHolderBase</title>
<!-- Node1 -->
<g id="node1" class="node">
<title>Node1</title>
<g id="a_node1"><a xlink:title=" ">
<polygon fill="#bfbfbf" stroke="black" points="175,-30 175,-49 357,-49 357,-30 175,-30"/>
<text text-anchor="middle" x="266" y="-37" font-family="Helvetica,sans-Serif" font-size="10.00">lemons::plugin::ParamHolderBase</text>
</a>
</g>
</g>
<!-- Node3 -->
<g id="node3" class="node">
<title>Node3</title>
<g id="a_node3"><a xlink:href="classlemons_1_1plugin_1_1ParameterHolder.html" target="_top" xlink:title=" ">
<polygon fill="none" stroke="black" points="415,-49.5 415,-79.5 560,-79.5 560,-49.5 415,-49.5"/>
<text text-anchor="start" x="423" y="-67.5" font-family="Helvetica,sans-Serif" font-size="10.00">lemons::plugin::Parameter</text>
<text text-anchor="middle" x="487.5" y="-56.5" font-family="Helvetica,sans-Serif" font-size="10.00">Holder&lt; ParameterType &gt;</text>
</a>
</g>
</g>
<!-- Node1&#45;&gt;Node3 -->
<g id="edge2" class="edge">
<title>Node1&#45;&gt;Node3</title>
<path fill="none" stroke="midnightblue" d="M360.64,-50.16C378.82,-52.24 397.61,-54.38 414.94,-56.35"/>
<polygon fill="midnightblue" stroke="midnightblue" points="360.94,-46.68 350.61,-49.02 360.15,-53.63 360.94,-46.68"/>
</g>
<!-- Node4 -->
<g id="node4" class="node">
<title>Node4</title>
<g id="a_node4"><a xlink:href="classlemons_1_1plugin_1_1ParameterHolder.html" target="_top" xlink:title=" ">
<polygon fill="none" stroke="black" points="393,-0.5 393,-30.5 582,-30.5 582,-0.5 393,-0.5"/>
<text text-anchor="start" x="401" y="-18.5" font-family="Helvetica,sans-Serif" font-size="10.00">lemons::plugin::Parameter</text>
<text text-anchor="middle" x="487.5" y="-7.5" font-family="Helvetica,sans-Serif" font-size="10.00">Holder&lt; plugin::ToggleParameter &gt;</text>
</a>
</g>
</g>
<!-- Node1&#45;&gt;Node4 -->
<g id="edge3" class="edge">
<title>Node1&#45;&gt;Node4</title>
<path fill="none" stroke="midnightblue" d="M364.25,-28.87C373.7,-27.83 383.27,-26.79 392.68,-25.76"/>
<polygon fill="midnightblue" stroke="midnightblue" points="363.63,-25.41 354.07,-29.98 364.39,-32.37 363.63,-25.41"/>
</g>
<!-- Node2 -->
<g id="node2" class="node">
<title>Node2</title>
<g id="a_node2"><a xlink:href="structlemons_1_1SerializableData.html" target="_top" xlink:title=" ">
<polygon fill="none" stroke="black" points="0,-30 0,-49 139,-49 139,-30 0,-30"/>
<text text-anchor="middle" x="69.5" y="-37" font-family="Helvetica,sans-Serif" font-size="10.00">lemons::SerializableData</text>
</a>
</g>
</g>
<!-- Node2&#45;&gt;Node1 -->
<g id="edge1" class="edge">
<title>Node2&#45;&gt;Node1</title>
<path fill="none" stroke="midnightblue" d="M149.26,-39.5C157.7,-39.5 166.34,-39.5 174.9,-39.5"/>
<polygon fill="midnightblue" stroke="midnightblue" points="149.07,-36 139.07,-39.5 149.07,-43 149.07,-36"/>
</g>
</g>
</svg>
