<?xml version="1.0" encoding="UTF-8" standalone="no"?>
<!DOCTYPE svg PUBLIC "-//W3C//DTD SVG 1.1//EN"
 "http://www.w3.org/Graphics/SVG/1.1/DTD/svg11.dtd">
<!-- Generated by graphviz version 2.50.0 (20211204.2007)
 -->
<!-- Title: lemons::dsp::is_realtime_move_assignable&lt; T &gt; Pages: 1 -->
<svg width="242pt" height="275pt"
 viewBox="0.00 0.00 241.50 275.00" xmlns="http://www.w3.org/2000/svg" xmlns:xlink="http://www.w3.org/1999/xlink">
<g id="graph0" class="graph" transform="scale(1 1) rotate(0) translate(4 271)">
<title>lemons::dsp::is_realtime_move_assignable&lt; T &gt;</title>
<!-- Node1 -->
<g id="node1" class="node">
<title>Node1</title>
<g id="a_node1"><a xlink:title=" ">
<polygon fill="#bfbfbf" stroke="black" points="26,-0.5 26,-30.5 149,-30.5 149,-0.5 26,-0.5"/>
<text text-anchor="start" x="34" y="-18.5" font-family="Helvetica,sans-Serif" font-size="10.00">lemons::dsp::is_realtime</text>
<text text-anchor="middle" x="87.5" y="-7.5" font-family="Helvetica,sans-Serif" font-size="10.00">_move_assignable&lt; T &gt;</text>
</a>
</g>
</g>
<!-- Node2 -->
<g id="node2" class="node">
<title>Node2</title>
<g id="a_node2"><a xlink:href="structlemons_1_1dsp_1_1detail_1_1is__rt__safe.html" target="_top" xlink:title=" ">
<polygon fill="none" stroke="black" points="0,-68.5 0,-109.5 175,-109.5 175,-68.5 0,-68.5"/>
<text text-anchor="start" x="8" y="-97.5" font-family="Helvetica,sans-Serif" font-size="10.00">lemons::dsp::detail</text>
<text text-anchor="start" x="8" y="-86.5" font-family="Helvetica,sans-Serif" font-size="10.00">::is_rt_safe&lt; T, detail</text>
<text text-anchor="middle" x="87.5" y="-75.5" font-family="Helvetica,sans-Serif" font-size="10.00">::move_tag, detail::assignable_tag &gt;</text>
</a>
</g>
</g>
<!-- Node2&#45;&gt;Node1 -->
<g id="edge1" class="edge">
<title>Node2&#45;&gt;Node1</title>
<path fill="none" stroke="midnightblue" d="M87.5,-58.16C87.5,-48.69 87.5,-38.65 87.5,-30.8"/>
<polygon fill="midnightblue" stroke="midnightblue" points="84,-58.46 87.5,-68.46 91,-58.46 84,-58.46"/>
</g>
<!-- Node3 -->
<g id="node3" class="node">
<title>Node3</title>
<g id="a_node3"><a xlink:title=" ">
<polygon fill="none" stroke="black" points="43,-247.5 43,-266.5 124,-266.5 124,-247.5 43,-247.5"/>
<text text-anchor="middle" x="83.5" y="-254.5" font-family="Helvetica,sans-Serif" font-size="10.00">std::false_type</text>
</a>
</g>
</g>
<!-- Node3&#45;&gt;Node2 -->
<g id="edge2" class="edge">
<title>Node3&#45;&gt;Node2</title>
<path fill="none" stroke="midnightblue" d="M83.96,-236.93C84.72,-205.19 86.25,-141.84 87.03,-109.69"/>
<polygon fill="midnightblue" stroke="midnightblue" points="80.46,-236.99 83.72,-247.08 87.46,-237.16 80.46,-236.99"/>
</g>
<!-- Node4 -->
<g id="node4" class="node">
<title>Node4</title>
<g id="a_node4"><a xlink:href="structlemons_1_1dsp_1_1detail_1_1is__rt__safe.html" target="_top" xlink:title=" ">
<polygon fill="none" stroke="black" points="100,-168.5 100,-209.5 209,-209.5 209,-168.5 100,-168.5"/>
<text text-anchor="start" x="108" y="-197.5" font-family="Helvetica,sans-Serif" font-size="10.00">lemons::dsp::detail</text>
<text text-anchor="start" x="108" y="-186.5" font-family="Helvetica,sans-Serif" font-size="10.00">::is_rt_safe&lt; T, Tag1,</text>
<text text-anchor="middle" x="154.5" y="-175.5" font-family="Helvetica,sans-Serif" font-size="10.00"> Tag2 &gt;</text>
</a>
</g>
</g>
<!-- Node3&#45;&gt;Node4 -->
<g id="edge4" class="edge">
<title>Node3&#45;&gt;Node4</title>
<path fill="none" stroke="midnightblue" d="M100.33,-240.36C110.19,-231.19 122.74,-219.53 133.27,-209.74"/>
<polygon fill="midnightblue" stroke="midnightblue" points="97.72,-238 92.78,-247.37 102.49,-243.13 97.72,-238"/>
</g>
<!-- Node4&#45;&gt;Node2 -->
<g id="edge3" class="edge">
<title>Node4&#45;&gt;Node2</title>
<path fill="none" stroke="orange" stroke-dasharray="5,2" d="M135.16,-159.71C124.23,-143.73 110.84,-124.14 101.04,-109.8"/>
<polygon fill="orange" stroke="orange" points="132.41,-161.89 140.94,-168.17 138.19,-157.94 132.41,-161.89"/>
<text text-anchor="start" x="126.5" y="-142" font-family="Helvetica,sans-Serif" font-size="10.00"> &lt; T, detail::move_tag,</text>
<text text-anchor="middle" x="180" y="-131" font-family="Helvetica,sans-Serif" font-size="10.00"> detail::assignable_tag &gt;</text>
</g>
</g>
</svg>
