<?xml version="1.0" encoding="UTF-8" standalone="no"?>
<!DOCTYPE svg PUBLIC "-//W3C//DTD SVG 1.1//EN"
 "http://www.w3.org/Graphics/SVG/1.1/DTD/svg11.dtd">
<!-- Generated by graphviz version 2.49.3 (20211023.0002)
 -->
<!-- Title: lemons::plugin::MetaParameterBase Pages: 1 -->
<svg width="248pt" height="231pt"
 viewBox="0.00 0.00 248.00 231.00" xmlns="http://www.w3.org/2000/svg" xmlns:xlink="http://www.w3.org/1999/xlink">
<g id="graph0" class="graph" transform="scale(1 1) rotate(0) translate(4 227)">
<title>lemons::plugin::MetaParameterBase</title>
<!-- Node1 -->
<g id="node1" class="node">
<title>Node1</title>
<g id="a_node1"><a xlink:title="A type&#45;erased interface for a parameter that can be connected to other parameters and control their v...">
<polygon fill="#bfbfbf" stroke="black" points="4.5,-203.5 4.5,-222.5 179.5,-222.5 179.5,-203.5 4.5,-203.5"/>
<text text-anchor="middle" x="92" y="-210.5" font-family="Helvetica,sans-Serif" font-size="10.00">lemons::plugin::MetaParameterBase</text>
</a>
</g>
</g>
<!-- Node2 -->
<g id="node2" class="node">
<title>Node2</title>
<g id="a_node2"><a xlink:href="classlemons_1_1plugin_1_1_meta_parameter.html" target="_top" xlink:title=" ">
<polygon fill="none" stroke="black" points="0,-57.5 0,-87.5 152,-87.5 152,-57.5 0,-57.5"/>
<text text-anchor="start" x="8" y="-75.5" font-family="Helvetica,sans-Serif" font-size="10.00">lemons::plugin::MetaParameter</text>
<text text-anchor="middle" x="76" y="-64.5" font-family="Helvetica,sans-Serif" font-size="10.00">&lt; float &gt;</text>
</a>
</g>
</g>
<!-- Node1&#45;&gt;Node2 -->
<g id="edge1" class="edge">
<title>Node1&#45;&gt;Node2</title>
<path fill="none" stroke="midnightblue" d="M85.68,-193.57C83.12,-185.25 80.43,-175.24 79,-166 74.74,-138.53 74.87,-105.95 75.4,-87.7"/>
<polygon fill="midnightblue" stroke="midnightblue" points="82.44,-194.9 88.86,-203.32 89.09,-192.73 82.44,-194.9"/>
</g>
<!-- Node4 -->
<g id="node4" class="node">
<title>Node4</title>
<g id="a_node4"><a xlink:href="classlemons_1_1plugin_1_1_meta_parameter.html" target="_top" xlink:title="A meta parameter class that implements the MetaParameterBase interface.">
<polygon fill="none" stroke="black" points="88,-135.5 88,-165.5 240,-165.5 240,-135.5 88,-135.5"/>
<text text-anchor="start" x="96" y="-153.5" font-family="Helvetica,sans-Serif" font-size="10.00">lemons::plugin::MetaParameter</text>
<text text-anchor="middle" x="164" y="-142.5" font-family="Helvetica,sans-Serif" font-size="10.00">&lt; ValueType &gt;</text>
</a>
</g>
</g>
<!-- Node1&#45;&gt;Node4 -->
<g id="edge3" class="edge">
<title>Node1&#45;&gt;Node4</title>
<path fill="none" stroke="midnightblue" d="M110.3,-196.62C121.7,-187.05 136.23,-174.83 147.31,-165.53"/>
<polygon fill="midnightblue" stroke="midnightblue" points="107.72,-194.22 102.32,-203.33 112.22,-199.58 107.72,-194.22"/>
</g>
<!-- Node3 -->
<g id="node3" class="node">
<title>Node3</title>
<g id="a_node3"><a xlink:href="structlemons_1_1plugin_1_1_l_f_o.html" target="_top" xlink:title="An LFO, to be used by a ModulationManager object.">
<polygon fill="none" stroke="black" points="24,-0.5 24,-19.5 128,-19.5 128,-0.5 24,-0.5"/>
<text text-anchor="middle" x="76" y="-7.5" font-family="Helvetica,sans-Serif" font-size="10.00">lemons::plugin::LFO</text>
</a>
</g>
</g>
<!-- Node2&#45;&gt;Node3 -->
<g id="edge2" class="edge">
<title>Node2&#45;&gt;Node3</title>
<path fill="none" stroke="midnightblue" d="M76,-47.35C76,-37.51 76,-26.78 76,-19.54"/>
<polygon fill="midnightblue" stroke="midnightblue" points="72.5,-47.47 76,-57.47 79.5,-47.47 72.5,-47.47"/>
</g>
<!-- Node4&#45;&gt;Node2 -->
<g id="edge4" class="edge">
<title>Node4&#45;&gt;Node2</title>
<path fill="none" stroke="orange" stroke-dasharray="5,2" d="M139.56,-128.39C124.55,-115.43 105.73,-99.18 92.48,-87.73"/>
<polygon fill="orange" stroke="orange" points="137.59,-131.32 147.45,-135.2 142.17,-126.02 137.59,-131.32"/>
<text text-anchor="middle" x="145" y="-109" font-family="Helvetica,sans-Serif" font-size="10.00"> &lt; float &gt;</text>
</g>
</g>
</svg>
