<?xml version="1.0" encoding="UTF-8" standalone="no"?>
<!DOCTYPE svg PUBLIC "-//W3C//DTD SVG 1.1//EN"
 "http://www.w3.org/Graphics/SVG/1.1/DTD/svg11.dtd">
<!-- Generated by graphviz version 2.50.0 (20211204.2007)
 -->
<!-- Title: lemons::dsp::SampleStream&lt; SampleType &gt; Pages: 1 -->
<svg width="741pt" height="382pt"
 viewBox="0.00 0.00 741.00 382.00" xmlns="http://www.w3.org/2000/svg" xmlns:xlink="http://www.w3.org/1999/xlink">
<g id="graph0" class="graph" transform="scale(1 1) rotate(0) translate(4 378)">
<title>lemons::dsp::SampleStream&lt; SampleType &gt;</title>
<!-- Node1 -->
<g id="node1" class="node">
<title>Node1</title>
<g id="a_node1"><a xlink:title="Base class for any object that can output a stream of audio samples, with no audio or MIDI input.">
<polygon fill="#bfbfbf" stroke="black" points="0,-153.5 0,-183.5 140,-183.5 140,-153.5 0,-153.5"/>
<text text-anchor="start" x="8" y="-171.5" font-family="Helvetica,sans-Serif" font-size="10.00">lemons::dsp::SampleStream</text>
<text text-anchor="middle" x="70" y="-160.5" font-family="Helvetica,sans-Serif" font-size="10.00">&lt; SampleType &gt;</text>
</a>
</g>
</g>
<!-- Node2 -->
<g id="node2" class="node">
<title>Node2</title>
<g id="a_node2"><a xlink:href="structlemons_1_1dsp_1_1_oscillator.html" target="_top" xlink:title="Base class for any kind of oscillator.">
<polygon fill="none" stroke="black" points="202.5,-214.5 202.5,-244.5 319.5,-244.5 319.5,-214.5 202.5,-214.5"/>
<text text-anchor="start" x="210.5" y="-232.5" font-family="Helvetica,sans-Serif" font-size="10.00">lemons::dsp::Oscillator</text>
<text text-anchor="middle" x="261" y="-221.5" font-family="Helvetica,sans-Serif" font-size="10.00">&lt; SampleType &gt;</text>
</a>
</g>
</g>
<!-- Node1&#45;&gt;Node2 -->
<g id="edge1" class="edge">
<title>Node1&#45;&gt;Node2</title>
<path fill="none" stroke="midnightblue" d="M127.57,-186.76C155,-195.61 187.53,-206.11 213.49,-214.49"/>
<polygon fill="midnightblue" stroke="midnightblue" points="128.31,-183.32 117.72,-183.58 126.16,-189.98 128.31,-183.32"/>
</g>
<!-- Node9 -->
<g id="node9" class="node">
<title>Node9</title>
<g id="a_node9"><a xlink:href="classlemons_1_1dsp_1_1_white_noise_generator.html" target="_top" xlink:title="A simple processor that generates random noise.">
<polygon fill="none" stroke="black" points="176,-153.5 176,-183.5 346,-183.5 346,-153.5 176,-153.5"/>
<text text-anchor="start" x="184" y="-171.5" font-family="Helvetica,sans-Serif" font-size="10.00">lemons::dsp::WhiteNoiseGenerator</text>
<text text-anchor="middle" x="261" y="-160.5" font-family="Helvetica,sans-Serif" font-size="10.00">&lt; SampleType &gt;</text>
</a>
</g>
</g>
<!-- Node1&#45;&gt;Node9 -->
<g id="edge8" class="edge">
<title>Node1&#45;&gt;Node9</title>
<path fill="none" stroke="midnightblue" d="M150.21,-168.5C158.64,-168.5 167.24,-168.5 175.72,-168.5"/>
<polygon fill="midnightblue" stroke="midnightblue" points="150.04,-165 140.04,-168.5 150.04,-172 150.04,-165"/>
</g>
<!-- Node10 -->
<g id="node10" class="node">
<title>Node10</title>
<g id="a_node10"><a xlink:href="classlemons_1_1dsp_1_1psola_1_1_shifter.html" target="_top" xlink:title="A class that repitches a stream of monophonic audio using PSOLA&#45;like techniques.">
<polygon fill="none" stroke="black" points="199.5,-80.5 199.5,-110.5 322.5,-110.5 322.5,-80.5 199.5,-80.5"/>
<text text-anchor="start" x="207.5" y="-98.5" font-family="Helvetica,sans-Serif" font-size="10.00">lemons::dsp::psola</text>
<text text-anchor="middle" x="261" y="-87.5" font-family="Helvetica,sans-Serif" font-size="10.00">::Shifter&lt; SampleType &gt;</text>
</a>
</g>
</g>
<!-- Node1&#45;&gt;Node10 -->
<g id="edge9" class="edge">
<title>Node1&#45;&gt;Node10</title>
<path fill="none" stroke="midnightblue" d="M119.62,-149.72C151.08,-137.57 191.51,-121.96 220.89,-110.61"/>
<polygon fill="midnightblue" stroke="midnightblue" points="118.23,-146.51 110.16,-153.37 120.75,-153.04 118.23,-146.51"/>
</g>
<!-- Node3 -->
<g id="node3" class="node">
<title>Node3</title>
<g id="a_node3"><a xlink:href="classlemons_1_1dsp_1_1osc_1_1_detunable_base.html" target="_top" xlink:title=" ">
<polygon fill="none" stroke="black" points="388.5,-343.5 388.5,-373.5 530.5,-373.5 530.5,-343.5 388.5,-343.5"/>
<text text-anchor="start" x="396.5" y="-361.5" font-family="Helvetica,sans-Serif" font-size="10.00">lemons::dsp::osc::Detunable</text>
<text text-anchor="middle" x="459.5" y="-350.5" font-family="Helvetica,sans-Serif" font-size="10.00">Base&lt; SampleType &gt;</text>
</a>
</g>
</g>
<!-- Node2&#45;&gt;Node3 -->
<g id="edge2" class="edge">
<title>Node2&#45;&gt;Node3</title>
<path fill="none" stroke="midnightblue" d="M282.68,-252.11C305.11,-275.43 342.98,-311.42 382,-333.5 388.69,-337.28 396.03,-340.6 403.45,-343.47"/>
<polygon fill="midnightblue" stroke="midnightblue" points="285.1,-249.57 275.68,-244.72 280.02,-254.39 285.1,-249.57"/>
</g>
<!-- Node5 -->
<g id="node5" class="node">
<title>Node5</title>
<g id="a_node5"><a xlink:href="structlemons_1_1dsp_1_1osc_1_1_saw.html" target="_top" xlink:title="A basic sawtooth wave oscillator.">
<polygon fill="none" stroke="black" points="401,-294.5 401,-324.5 518,-324.5 518,-294.5 401,-294.5"/>
<text text-anchor="start" x="409" y="-312.5" font-family="Helvetica,sans-Serif" font-size="10.00">lemons::dsp::osc::Saw</text>
<text text-anchor="middle" x="459.5" y="-301.5" font-family="Helvetica,sans-Serif" font-size="10.00">&lt; SampleType &gt;</text>
</a>
</g>
</g>
<!-- Node2&#45;&gt;Node5 -->
<g id="edge4" class="edge">
<title>Node2&#45;&gt;Node5</title>
<path fill="none" stroke="midnightblue" d="M301.81,-249.13C324.94,-260.19 354.8,-273.86 382,-284.5 390.85,-287.96 400.39,-291.35 409.64,-294.45"/>
<polygon fill="midnightblue" stroke="midnightblue" points="303.19,-245.91 292.66,-244.73 300.16,-252.22 303.19,-245.91"/>
</g>
<!-- Node6 -->
<g id="node6" class="node">
<title>Node6</title>
<g id="a_node6"><a xlink:href="structlemons_1_1dsp_1_1osc_1_1_sine.html" target="_top" xlink:title="A basic sine wave oscillator.">
<polygon fill="none" stroke="black" points="401,-245.5 401,-275.5 518,-275.5 518,-245.5 401,-245.5"/>
<text text-anchor="start" x="409" y="-263.5" font-family="Helvetica,sans-Serif" font-size="10.00">lemons::dsp::osc::Sine</text>
<text text-anchor="middle" x="459.5" y="-252.5" font-family="Helvetica,sans-Serif" font-size="10.00">&lt; SampleType &gt;</text>
</a>
</g>
</g>
<!-- Node2&#45;&gt;Node6 -->
<g id="edge5" class="edge">
<title>Node2&#45;&gt;Node6</title>
<path fill="none" stroke="midnightblue" d="M329.73,-240.19C352.9,-243.84 378.58,-247.89 400.87,-251.41"/>
<polygon fill="midnightblue" stroke="midnightblue" points="330.05,-236.69 319.63,-238.59 328.96,-243.61 330.05,-236.69"/>
</g>
<!-- Node7 -->
<g id="node7" class="node">
<title>Node7</title>
<g id="a_node7"><a xlink:href="structlemons_1_1dsp_1_1osc_1_1_square.html" target="_top" xlink:title="A basic square wave oscillator.">
<polygon fill="none" stroke="black" points="395.5,-196.5 395.5,-226.5 523.5,-226.5 523.5,-196.5 395.5,-196.5"/>
<text text-anchor="start" x="403.5" y="-214.5" font-family="Helvetica,sans-Serif" font-size="10.00">lemons::dsp::osc::Square</text>
<text text-anchor="middle" x="459.5" y="-203.5" font-family="Helvetica,sans-Serif" font-size="10.00">&lt; SampleType &gt;</text>
</a>
</g>
</g>
<!-- Node2&#45;&gt;Node7 -->
<g id="edge6" class="edge">
<title>Node2&#45;&gt;Node7</title>
<path fill="none" stroke="midnightblue" d="M329.87,-223.28C351.12,-221.34 374.47,-219.2 395.37,-217.28"/>
<polygon fill="midnightblue" stroke="midnightblue" points="329.27,-219.82 319.63,-224.22 329.91,-226.79 329.27,-219.82"/>
</g>
<!-- Node8 -->
<g id="node8" class="node">
<title>Node8</title>
<g id="a_node8"><a xlink:href="structlemons_1_1dsp_1_1osc_1_1_triangle.html" target="_top" xlink:title="A basic triangle wave oscillator.">
<polygon fill="none" stroke="black" points="393.5,-147.5 393.5,-177.5 525.5,-177.5 525.5,-147.5 393.5,-147.5"/>
<text text-anchor="start" x="401.5" y="-165.5" font-family="Helvetica,sans-Serif" font-size="10.00">lemons::dsp::osc::Triangle</text>
<text text-anchor="middle" x="459.5" y="-154.5" font-family="Helvetica,sans-Serif" font-size="10.00">&lt; SampleType &gt;</text>
</a>
</g>
</g>
<!-- Node2&#45;&gt;Node8 -->
<g id="edge7" class="edge">
<title>Node2&#45;&gt;Node8</title>
<path fill="none" stroke="midnightblue" d="M312.23,-210.99C333.66,-203.23 358.99,-194.23 382,-186.5 390.84,-183.53 400.29,-180.47 409.43,-177.57"/>
<polygon fill="midnightblue" stroke="midnightblue" points="310.88,-207.76 302.68,-214.46 313.28,-214.34 310.88,-207.76"/>
</g>
<!-- Node4 -->
<g id="node4" class="node">
<title>Node4</title>
<g id="a_node4"><a xlink:href="classlemons_1_1dsp_1_1osc_1_1_detunable.html" target="_top" xlink:title=" ">
<polygon fill="none" stroke="black" points="573,-343.5 573,-373.5 733,-373.5 733,-343.5 573,-343.5"/>
<text text-anchor="start" x="581" y="-361.5" font-family="Helvetica,sans-Serif" font-size="10.00">lemons::dsp::osc::Detunable</text>
<text text-anchor="middle" x="653" y="-350.5" font-family="Helvetica,sans-Serif" font-size="10.00">&lt; SampleType, OscillatorType, &gt;</text>
</a>
</g>
</g>
<!-- Node3&#45;&gt;Node4 -->
<g id="edge3" class="edge">
<title>Node3&#45;&gt;Node4</title>
<path fill="none" stroke="midnightblue" d="M540.76,-358.5C551.34,-358.5 562.17,-358.5 572.73,-358.5"/>
<polygon fill="midnightblue" stroke="midnightblue" points="540.72,-355 530.72,-358.5 540.72,-362 540.72,-355"/>
</g>
<!-- Node11 -->
<g id="node11" class="node">
<title>Node11</title>
<g id="a_node11"><a xlink:href="classlemons_1_1dsp_1_1psola_1_1_interval_shifter.html" target="_top" xlink:title=" ">
<polygon fill="none" stroke="black" points="382,-98.5 382,-128.5 537,-128.5 537,-98.5 382,-98.5"/>
<text text-anchor="start" x="390" y="-116.5" font-family="Helvetica,sans-Serif" font-size="10.00">lemons::dsp::psola</text>
<text text-anchor="middle" x="459.5" y="-105.5" font-family="Helvetica,sans-Serif" font-size="10.00">::IntervalShifter&lt; SampleType &gt;</text>
</a>
</g>
</g>
<!-- Node10&#45;&gt;Node11 -->
<g id="edge10" class="edge">
<title>Node10&#45;&gt;Node11</title>
<path fill="none" stroke="midnightblue" d="M332.84,-101.99C348.74,-103.45 365.68,-105 381.81,-106.47"/>
<polygon fill="midnightblue" stroke="midnightblue" points="332.84,-98.47 322.56,-101.05 332.2,-105.45 332.84,-98.47"/>
</g>
<!-- Node12 -->
<g id="node12" class="node">
<title>Node12</title>
<g id="a_node12"><a xlink:href="classlemons_1_1dsp_1_1psola_1_1_midi_shifter.html" target="_top" xlink:title=" ">
<polygon fill="none" stroke="black" points="389,-49.5 389,-79.5 530,-79.5 530,-49.5 389,-49.5"/>
<text text-anchor="start" x="397" y="-67.5" font-family="Helvetica,sans-Serif" font-size="10.00">lemons::dsp::psola</text>
<text text-anchor="middle" x="459.5" y="-56.5" font-family="Helvetica,sans-Serif" font-size="10.00">::MidiShifter&lt; SampleType &gt;</text>
</a>
</g>
</g>
<!-- Node10&#45;&gt;Node12 -->
<g id="edge11" class="edge">
<title>Node10&#45;&gt;Node12</title>
<path fill="none" stroke="midnightblue" d="M332.57,-84.37C350.88,-81.48 370.59,-78.37 388.86,-75.49"/>
<polygon fill="midnightblue" stroke="midnightblue" points="331.89,-80.93 322.56,-85.95 332.98,-87.84 331.89,-80.93"/>
</g>
<!-- Node13 -->
<g id="node13" class="node">
<title>Node13</title>
<g id="a_node13"><a xlink:href="classlemons_1_1dsp_1_1psola_1_1_ratio_shifter.html" target="_top" xlink:title=" ">
<polygon fill="none" stroke="black" points="386.5,-0.5 386.5,-30.5 532.5,-30.5 532.5,-0.5 386.5,-0.5"/>
<text text-anchor="start" x="394.5" y="-18.5" font-family="Helvetica,sans-Serif" font-size="10.00">lemons::dsp::psola</text>
<text text-anchor="middle" x="459.5" y="-7.5" font-family="Helvetica,sans-Serif" font-size="10.00">::RatioShifter&lt; SampleType &gt;</text>
</a>
</g>
</g>
<!-- Node10&#45;&gt;Node13 -->
<g id="edge12" class="edge">
<title>Node10&#45;&gt;Node13</title>
<path fill="none" stroke="midnightblue" d="M300.78,-75.81C324,-64.41 354.31,-50.25 382,-39.5 390.05,-36.38 398.68,-33.36 407.15,-30.58"/>
<polygon fill="midnightblue" stroke="midnightblue" points="299.02,-72.77 291.6,-80.34 302.12,-79.05 299.02,-72.77"/>
</g>
</g>
</svg>
