<?xml version="1.0" encoding="UTF-8" standalone="no"?>
<!DOCTYPE svg PUBLIC "-//W3C//DTD SVG 1.1//EN"
 "http://www.w3.org/Graphics/SVG/1.1/DTD/svg11.dtd">
<!-- Generated by graphviz version 2.43.0 (0)
 -->
<!-- Title: lemons::SerializableData Pages: 1 -->
<!--zoomable 702 -->
<svg id="main" version="1.1" xmlns="http://www.w3.org/2000/svg" xmlns:xlink="http://www.w3.org/1999/xlink" xml:space="preserve" onload="init(evt)">
<style type="text/css"><![CDATA[
.edge:hover path { stroke: red; }
.edge:hover polygon { stroke: red; fill: red; }
]]></style>
<script type="text/javascript"><![CDATA[
var edges = document.getElementsByTagName('g');
if (edges && edges.length) {
  for (var i=0;i<edges.length;i++) {
    if (edges[i].id.substr(0,4)=='edge') {
      edges[i].setAttribute('class','edge');
    }
  }
}
]]></script>
        <defs>
                <circle id="rim" cx="0" cy="0" r="7"/>
                <circle id="rim2" cx="0" cy="0" r="3.5"/>
                <g id="zoomPlus">
                        <use xlink:href="#rim" fill="#404040">
                                <set attributeName="fill" to="#808080" begin="zoomplus.mouseover" end="zoomplus.mouseout"/>
                        </use>
                        <path d="M-4,0h8M0,-4v8" fill="none" stroke="white" stroke-width="1.5" pointer-events="none"/>
                </g>
                <g id="zoomMin">
                        <use xlink:href="#rim" fill="#404040">
                                <set attributeName="fill" to="#808080" begin="zoomminus.mouseover" end="zoomminus.mouseout"/>
                        </use>
                        <path d="M-4,0h8" fill="none" stroke="white" stroke-width="1.5" pointer-events="none"/>
                </g>
                <g id="dirArrow">
                        <path fill="none" stroke="white" stroke-width="1.5" d="M0,-3.0v7 M-2.5,-0.5L0,-3.0L2.5,-0.5"/>
                </g>
               <g id="resetDef">
                       <use xlink:href="#rim2" fill="#404040">
                               <set attributeName="fill" to="#808080" begin="reset.mouseover" end="reset.mouseout"/>
                       </use>
               </g>
        </defs>

<script type="text/javascript">
var viewWidth = 1467;
var viewHeight = 702;
var sectionId = 'dynsection-0';
</script>
<script xlink:href="svgpan.js"/>
<svg id="graph" class="graph">
<g id="viewport">
<title>lemons::SerializableData</title>
<!-- Node1 -->
<g id="node1" class="node">
<title>Node1</title>
<g id="a_node1"><a xlink:title="Base class for any C++ object that needs to be serialized to binary and back.">
<polygon fill="#bfbfbf" stroke="black" points="0,-288.5 0,-307.5 139,-307.5 139,-288.5 0,-288.5"/>
<text text-anchor="middle" x="69.5" y="-295.5" font-family="Helvetica,sans-Serif" font-size="10.00">lemons::SerializableData</text>
</a>
</g>
</g>
<!-- Node2 -->
<g id="node2" class="node">
<title>Node2</title>
<g id="a_node2"><a xlink:href="classlemons_1_1dsp_1_1osc_1_1ChoosableOscillator.html" target="_top" xlink:title=" ">
<polygon fill="none" stroke="black" points="493,-587 493,-617 648,-617 648,-587 493,-587"/>
<text text-anchor="start" x="501" y="-605" font-family="Helvetica,sans-Serif" font-size="10.00">lemons::dsp::osc::Choosable</text>
<text text-anchor="middle" x="570.5" y="-594" font-family="Helvetica,sans-Serif" font-size="10.00">Oscillator&lt; float &gt;</text>
</a>
</g>
</g>
<!-- Node1&#45;&gt;Node2 -->
<g id="edge1" class="edge">
<title>Node1&#45;&gt;Node2</title>
<path fill="none" stroke="midnightblue" d="M70.46,-317.97C71.54,-373.39 83.08,-529.49 176,-597 280.05,-672.6 443.86,-639.72 523.27,-617.02"/>
<polygon fill="midnightblue" stroke="midnightblue" points="73.95,-317.7 70.36,-307.74 66.95,-317.77 73.95,-317.7"/>
</g>
<!-- Node3 -->
<g id="node3" class="node">
<title>Node3</title>
<g id="a_node3"><a xlink:href="classlemons_1_1dsp_1_1osc_1_1ChoosableOscillator.html" target="_top" xlink:title=" ">
<polygon fill="none" stroke="black" points="189.5,-557 189.5,-587 344.5,-587 344.5,-557 189.5,-557"/>
<text text-anchor="start" x="197.5" y="-575" font-family="Helvetica,sans-Serif" font-size="10.00">lemons::dsp::osc::Choosable</text>
<text text-anchor="middle" x="267" y="-564" font-family="Helvetica,sans-Serif" font-size="10.00">Oscillator&lt; SampleType &gt;</text>
</a>
</g>
</g>
<!-- Node1&#45;&gt;Node3 -->
<g id="edge2" class="edge">
<title>Node1&#45;&gt;Node3</title>
<path fill="none" stroke="midnightblue" d="M72.87,-317.82C79.63,-365.15 103.42,-485.38 176,-547 180.57,-550.88 185.71,-554.17 191.14,-556.94"/>
<polygon fill="midnightblue" stroke="midnightblue" points="76.31,-317.13 71.53,-307.67 69.37,-318.05 76.31,-317.13"/>
</g>
<!-- Node4 -->
<g id="node4" class="node">
<title>Node4</title>
<g id="a_node4"><a xlink:href="structlemons_1_1plugin_1_1Dimensions.html" target="_top" xlink:title=" ">
<polygon fill="none" stroke="black" points="191,-518.5 191,-537.5 343,-537.5 343,-518.5 191,-518.5"/>
<text text-anchor="middle" x="267" y="-525.5" font-family="Helvetica,sans-Serif" font-size="10.00">lemons::plugin::Dimensions</text>
</a>
</g>
</g>
<!-- Node1&#45;&gt;Node4 -->
<g id="edge4" class="edge">
<title>Node1&#45;&gt;Node4</title>
<path fill="none" stroke="midnightblue" d="M74.37,-317.77C83.73,-360.04 111.73,-459.36 176,-509 180.93,-512.81 186.45,-515.89 192.26,-518.39"/>
<polygon fill="midnightblue" stroke="midnightblue" points="77.77,-316.95 72.29,-307.88 70.92,-318.39 77.77,-316.95"/>
</g>
<!-- Node5 -->
<g id="node5" class="node">
<title>Node5</title>
<g id="a_node5"><a xlink:href="classlemons_1_1plugin_1_1ModulationManager.html" target="_top" xlink:title=" ">
<polygon fill="none" stroke="black" points="192.5,-469 192.5,-499 341.5,-499 341.5,-469 192.5,-469"/>
<text text-anchor="start" x="200.5" y="-487" font-family="Helvetica,sans-Serif" font-size="10.00">lemons::plugin::Modulation</text>
<text text-anchor="middle" x="267" y="-476" font-family="Helvetica,sans-Serif" font-size="10.00">Manager</text>
</a>
</g>
</g>
<!-- Node1&#45;&gt;Node5 -->
<g id="edge5" class="edge">
<title>Node1&#45;&gt;Node5</title>
<path fill="none" stroke="midnightblue" d="M77.81,-317.39C91.63,-351.38 124.86,-421.65 176,-459 181.24,-462.83 187.04,-466.07 193.09,-468.81"/>
<polygon fill="midnightblue" stroke="midnightblue" points="80.92,-315.74 74.01,-307.72 74.41,-318.3 80.92,-315.74"/>
</g>
<!-- Node6 -->
<g id="node6" class="node">
<title>Node6</title>
<g id="a_node6"><a xlink:href="classlemons_1_1plugin_1_1Parameter.html" target="_top" xlink:title=" ">
<polygon fill="none" stroke="black" points="194.5,-430.5 194.5,-449.5 339.5,-449.5 339.5,-430.5 194.5,-430.5"/>
<text text-anchor="middle" x="267" y="-437.5" font-family="Helvetica,sans-Serif" font-size="10.00">lemons::plugin::Parameter</text>
</a>
</g>
</g>
<!-- Node1&#45;&gt;Node6 -->
<g id="edge6" class="edge">
<title>Node1&#45;&gt;Node6</title>
<path fill="none" stroke="midnightblue" d="M80.89,-316.49C97.33,-343.92 132.03,-394.94 176,-421 182.59,-424.91 189.88,-428.02 197.37,-430.49"/>
<polygon fill="midnightblue" stroke="midnightblue" points="83.74,-314.42 75.68,-307.54 77.69,-317.94 83.74,-314.42"/>
</g>
<!-- Node17 -->
<g id="node17" class="node">
<title>Node17</title>
<g id="a_node17"><a xlink:href="classlemons_1_1plugin_1_1ParameterList.html" target="_top" xlink:title=" ">
<polygon fill="none" stroke="black" points="186,-392.5 186,-411.5 348,-411.5 348,-392.5 186,-392.5"/>
<text text-anchor="middle" x="267" y="-399.5" font-family="Helvetica,sans-Serif" font-size="10.00">lemons::plugin::ParameterList</text>
</a>
</g>
</g>
<!-- Node1&#45;&gt;Node17 -->
<g id="edge18" class="edge">
<title>Node1&#45;&gt;Node17</title>
<path fill="none" stroke="midnightblue" d="M86.42,-314.96C105.72,-334.47 140.14,-365.98 176,-383 184.22,-386.9 193.25,-390.01 202.31,-392.48"/>
<polygon fill="midnightblue" stroke="midnightblue" points="88.81,-312.4 79.33,-307.65 83.78,-317.27 88.81,-312.4"/>
</g>
<!-- Node18 -->
<g id="node18" class="node">
<title>Node18</title>
<g id="a_node18"><a xlink:href="structlemons_1_1plugin_1_1ParamHolderBase.html" target="_top" xlink:title=" ">
<polygon fill="none" stroke="black" points="176,-354.5 176,-373.5 358,-373.5 358,-354.5 176,-354.5"/>
<text text-anchor="middle" x="267" y="-361.5" font-family="Helvetica,sans-Serif" font-size="10.00">lemons::plugin::ParamHolderBase</text>
</a>
</g>
</g>
<!-- Node1&#45;&gt;Node18 -->
<g id="edge19" class="edge">
<title>Node1&#45;&gt;Node18</title>
<path fill="none" stroke="midnightblue" d="M97.66,-312.01C118.61,-322.34 148.54,-336.1 176,-345 187.39,-348.69 199.84,-351.86 211.73,-354.48"/>
<polygon fill="midnightblue" stroke="midnightblue" points="99.22,-308.88 88.71,-307.54 96.09,-315.14 99.22,-308.88"/>
</g>
<!-- Node21 -->
<g id="node21" class="node">
<title>Node21</title>
<g id="a_node21"><a xlink:href="structlemons_1_1plugin_1_1PluginState.html" target="_top" xlink:title=" ">
<polygon fill="none" stroke="black" points="192,-305 192,-335 342,-335 342,-305 192,-305"/>
<text text-anchor="start" x="200" y="-323" font-family="Helvetica,sans-Serif" font-size="10.00">lemons::plugin::PluginState</text>
<text text-anchor="middle" x="267" y="-312" font-family="Helvetica,sans-Serif" font-size="10.00">&lt; StateType, &gt;</text>
</a>
</g>
</g>
<!-- Node1&#45;&gt;Node21 -->
<g id="edge23" class="edge">
<title>Node1&#45;&gt;Node21</title>
<path fill="none" stroke="midnightblue" d="M149.27,-306.86C163.33,-308.45 177.94,-310.09 191.86,-311.66"/>
<polygon fill="midnightblue" stroke="midnightblue" points="149.48,-303.37 139.15,-305.73 148.7,-310.32 149.48,-303.37"/>
</g>
<!-- Node22 -->
<g id="node22" class="node">
<title>Node22</title>
<g id="a_node22"><a xlink:href="structlemons_1_1plugin_1_1PluginState.html" target="_top" xlink:title=" ">
<polygon fill="none" stroke="black" points="495.5,-274 495.5,-304 645.5,-304 645.5,-274 495.5,-274"/>
<text text-anchor="start" x="503.5" y="-292" font-family="Helvetica,sans-Serif" font-size="10.00">lemons::plugin::PluginState</text>
<text text-anchor="middle" x="570.5" y="-281" font-family="Helvetica,sans-Serif" font-size="10.00">&lt; StateType &gt;</text>
</a>
</g>
</g>
<!-- Node1&#45;&gt;Node22 -->
<g id="edge34" class="edge">
<title>Node1&#45;&gt;Node22</title>
<path fill="none" stroke="midnightblue" d="M149.29,-296.5C158.3,-296.33 167.35,-296.16 176,-296 287.18,-293.96 416.04,-291.68 495.16,-290.3"/>
<polygon fill="midnightblue" stroke="midnightblue" points="149.1,-293 139.17,-296.69 149.23,-300 149.1,-293"/>
</g>
<!-- Node23 -->
<g id="node23" class="node">
<title>Node23</title>
<g id="a_node23"><a xlink:href="structlemons_1_1plugin_1_1Preset.html" target="_top" xlink:title=" ">
<polygon fill="none" stroke="black" points="204.5,-228.5 204.5,-247.5 329.5,-247.5 329.5,-228.5 204.5,-228.5"/>
<text text-anchor="middle" x="267" y="-235.5" font-family="Helvetica,sans-Serif" font-size="10.00">lemons::plugin::Preset</text>
</a>
</g>
</g>
<!-- Node1&#45;&gt;Node23 -->
<g id="edge25" class="edge">
<title>Node1&#45;&gt;Node23</title>
<path fill="none" stroke="midnightblue" d="M99.88,-284.24C116.4,-276.9 137.55,-268.14 157,-262 175.2,-256.26 195.53,-251.38 213.66,-247.56"/>
<polygon fill="midnightblue" stroke="midnightblue" points="98.41,-281.06 90.74,-288.37 101.3,-287.44 98.41,-281.06"/>
</g>
<!-- Node24 -->
<g id="node24" class="node">
<title>Node24</title>
<g id="a_node24"><a xlink:href="classlemons_1_1plugin_1_1StateBase.html" target="_top" xlink:title=" ">
<polygon fill="none" stroke="black" points="195,-190.5 195,-209.5 339,-209.5 339,-190.5 195,-190.5"/>
<text text-anchor="middle" x="267" y="-197.5" font-family="Helvetica,sans-Serif" font-size="10.00">lemons::plugin::StateBase</text>
</a>
</g>
</g>
<!-- Node1&#45;&gt;Node24 -->
<g id="edge26" class="edge">
<title>Node1&#45;&gt;Node24</title>
<path fill="none" stroke="midnightblue" d="M87.84,-281.18C107.57,-263.02 141.53,-234.62 176,-219 184.58,-215.11 193.99,-212.01 203.38,-209.53"/>
<polygon fill="midnightblue" stroke="midnightblue" points="85.19,-278.87 80.3,-288.27 89.99,-283.97 85.19,-278.87"/>
</g>
<!-- Node27 -->
<g id="node27" class="node">
<title>Node27</title>
<g id="a_node27"><a xlink:href="structlemons_1_1plugin_1_1StateToggler.html" target="_top" xlink:title=" ">
<polygon fill="none" stroke="black" points="189.5,-152.5 189.5,-171.5 344.5,-171.5 344.5,-152.5 189.5,-152.5"/>
<text text-anchor="middle" x="267" y="-159.5" font-family="Helvetica,sans-Serif" font-size="10.00">lemons::plugin::StateToggler</text>
</a>
</g>
</g>
<!-- Node1&#45;&gt;Node27 -->
<g id="edge29" class="edge">
<title>Node1&#45;&gt;Node27</title>
<path fill="none" stroke="midnightblue" d="M81.62,-279.64C98.55,-253.38 133.36,-205.56 176,-181 182.78,-177.09 190.26,-173.99 197.93,-171.52"/>
<polygon fill="midnightblue" stroke="midnightblue" points="78.56,-277.93 76.21,-288.26 84.49,-281.65 78.56,-277.93"/>
</g>
<!-- Node28 -->
<g id="node28" class="node">
<title>Node28</title>
<g id="a_node28"><a xlink:href="structlemons_1_1spline_1_1Knot.html" target="_top" xlink:title=" ">
<polygon fill="none" stroke="black" points="209,-114.5 209,-133.5 325,-133.5 325,-114.5 209,-114.5"/>
<text text-anchor="middle" x="267" y="-121.5" font-family="Helvetica,sans-Serif" font-size="10.00">lemons::spline::Knot</text>
</a>
</g>
</g>
<!-- Node1&#45;&gt;Node28 -->
<g id="edge30" class="edge">
<title>Node1&#45;&gt;Node28</title>
<path fill="none" stroke="midnightblue" d="M77.79,-279.01C91.58,-245.77 124.77,-177.35 176,-143 185.68,-136.51 197.16,-132.17 208.62,-129.29"/>
<polygon fill="midnightblue" stroke="midnightblue" points="74.47,-277.89 74,-288.47 80.96,-280.49 74.47,-277.89"/>
</g>
<!-- Node29 -->
<g id="node29" class="node">
<title>Node29</title>
<g id="a_node29"><a xlink:href="structlemons_1_1spline_1_1Knots.html" target="_top" xlink:title=" ">
<polygon fill="none" stroke="black" points="206,-76.5 206,-95.5 328,-95.5 328,-76.5 206,-76.5"/>
<text text-anchor="middle" x="267" y="-83.5" font-family="Helvetica,sans-Serif" font-size="10.00">lemons::spline::Knots</text>
</a>
</g>
</g>
<!-- Node1&#45;&gt;Node29 -->
<g id="edge31" class="edge">
<title>Node1&#45;&gt;Node29</title>
<path fill="none" stroke="midnightblue" d="M75.34,-278.29C86.12,-238.71 116.06,-149.57 176,-105 184.71,-98.52 195.15,-94.14 205.78,-91.21"/>
<polygon fill="midnightblue" stroke="midnightblue" points="71.92,-277.5 72.79,-288.06 78.7,-279.26 71.92,-277.5"/>
</g>
<!-- Node30 -->
<g id="node30" class="node">
<title>Node30</title>
<g id="a_node30"><a xlink:href="structlemons_1_1spline_1_1Spline.html" target="_top" xlink:title=" ">
<polygon fill="none" stroke="black" points="205,-38.5 205,-57.5 329,-57.5 329,-38.5 205,-38.5"/>
<text text-anchor="middle" x="267" y="-45.5" font-family="Helvetica,sans-Serif" font-size="10.00">lemons::spline::Spline</text>
</a>
</g>
</g>
<!-- Node1&#45;&gt;Node30 -->
<g id="edge32" class="edge">
<title>Node1&#45;&gt;Node30</title>
<path fill="none" stroke="midnightblue" d="M73.44,-278.24C81.25,-233.17 106.84,-122.38 176,-67 184.35,-60.31 194.5,-55.82 204.92,-52.84"/>
<polygon fill="midnightblue" stroke="midnightblue" points="69.97,-277.78 71.82,-288.21 76.88,-278.9 69.97,-277.78"/>
</g>
<!-- Node31 -->
<g id="node31" class="node">
<title>Node31</title>
<g id="a_node31"><a xlink:href="structlemons_1_1Version.html" target="_top" xlink:title=" ">
<polygon fill="none" stroke="black" points="219.5,-0.5 219.5,-19.5 314.5,-19.5 314.5,-0.5 219.5,-0.5"/>
<text text-anchor="middle" x="267" y="-7.5" font-family="Helvetica,sans-Serif" font-size="10.00">lemons::Version</text>
</a>
</g>
</g>
<!-- Node1&#45;&gt;Node31 -->
<g id="edge33" class="edge">
<title>Node1&#45;&gt;Node31</title>
<path fill="none" stroke="midnightblue" d="M72.05,-278.16C77.07,-228.01 97.5,-95.46 176,-29 187.94,-18.89 203.93,-13.73 219.12,-11.22"/>
<polygon fill="midnightblue" stroke="midnightblue" points="68.54,-278.03 71.13,-288.31 75.51,-278.66 68.54,-278.03"/>
</g>
<!-- Node3&#45;&gt;Node2 -->
<g id="edge3" class="edge">
<title>Node3&#45;&gt;Node2</title>
<path fill="none" stroke="orange" stroke-dasharray="5,2" d="M354.87,-580.64C398.43,-584.98 450.72,-590.18 492.78,-594.37"/>
<polygon fill="orange" stroke="orange" points="355.16,-577.16 344.86,-579.65 354.47,-584.12 355.16,-577.16"/>
<text text-anchor="middle" x="413" y="-592" font-family="Helvetica,sans-Serif" font-size="10.00"> &lt; float &gt;</text>
</g>
<!-- Node7 -->
<g id="node7" class="node">
<title>Node7</title>
<g id="a_node7"><a xlink:href="classlemons_1_1plugin_1_1TypedParameter.html" target="_top" xlink:title=" ">
<polygon fill="none" stroke="black" points="484,-516 484,-546 657,-546 657,-516 484,-516"/>
<text text-anchor="start" x="492" y="-534" font-family="Helvetica,sans-Serif" font-size="10.00">lemons::plugin::TypedParameter</text>
<text text-anchor="middle" x="570.5" y="-523" font-family="Helvetica,sans-Serif" font-size="10.00">&lt; ValueType &gt;</text>
</a>
</g>
</g>
<!-- Node6&#45;&gt;Node7 -->
<g id="edge7" class="edge">
<title>Node6&#45;&gt;Node7</title>
<path fill="none" stroke="midnightblue" d="M325.29,-451.78C336.2,-454.29 347.49,-457.08 358,-460 418.27,-476.76 486.67,-500.63 528.95,-515.97"/>
<polygon fill="midnightblue" stroke="midnightblue" points="325.93,-448.34 315.41,-449.56 324.39,-455.17 325.93,-448.34"/>
</g>
<!-- Node14 -->
<g id="node14" class="node">
<title>Node14</title>
<g id="a_node14"><a xlink:href="classlemons_1_1plugin_1_1TypedParameter.html" target="_top" xlink:title=" ">
<polygon fill="none" stroke="black" points="861,-418 861,-448 1034,-448 1034,-418 861,-418"/>
<text text-anchor="start" x="869" y="-436" font-family="Helvetica,sans-Serif" font-size="10.00">lemons::plugin::TypedParameter</text>
<text text-anchor="middle" x="947.5" y="-425" font-family="Helvetica,sans-Serif" font-size="10.00">&lt; bool &gt;</text>
</a>
</g>
</g>
<!-- Node6&#45;&gt;Node14 -->
<g id="edge17" class="edge">
<title>Node6&#45;&gt;Node14</title>
<path fill="none" stroke="midnightblue" d="M349.88,-439.16C479.16,-437.82 729.34,-435.24 860.89,-433.88"/>
<polygon fill="midnightblue" stroke="midnightblue" points="349.61,-435.66 339.65,-439.26 349.68,-442.66 349.61,-435.66"/>
</g>
<!-- Node8 -->
<g id="node8" class="node">
<title>Node8</title>
<g id="a_node8"><a xlink:href="structlemons_1_1plugin_1_1FloatAmountParameter.html" target="_top" xlink:title=" ">
<polygon fill="none" stroke="black" points="868.5,-663 868.5,-693 1026.5,-693 1026.5,-663 868.5,-663"/>
<text text-anchor="start" x="876.5" y="-681" font-family="Helvetica,sans-Serif" font-size="10.00">lemons::plugin::FloatAmount</text>
<text text-anchor="middle" x="947.5" y="-670" font-family="Helvetica,sans-Serif" font-size="10.00">Parameter&lt; float &gt;</text>
</a>
</g>
</g>
<!-- Node7&#45;&gt;Node8 -->
<g id="edge8" class="edge">
<title>Node7&#45;&gt;Node8</title>
<path fill="none" stroke="midnightblue" d="M624.42,-550.1C640.88,-557.42 658.5,-566.76 673,-578 682.99,-585.74 680.6,-592.83 691,-600 753.49,-643.07 780.2,-632.55 853,-654 863.45,-657.08 874.62,-660.14 885.47,-663"/>
<polygon fill="midnightblue" stroke="midnightblue" points="625.47,-546.74 614.89,-546.03 622.71,-553.18 625.47,-546.74"/>
</g>
<!-- Node9 -->
<g id="node9" class="node">
<title>Node9</title>
<g id="a_node9"><a xlink:href="structlemons_1_1plugin_1_1FrequencyParameter.html" target="_top" xlink:title=" ">
<polygon fill="none" stroke="black" points="875,-614 875,-644 1020,-644 1020,-614 875,-614"/>
<text text-anchor="start" x="883" y="-632" font-family="Helvetica,sans-Serif" font-size="10.00">lemons::plugin::Frequency</text>
<text text-anchor="middle" x="947.5" y="-621" font-family="Helvetica,sans-Serif" font-size="10.00">Parameter&lt; float &gt;</text>
</a>
</g>
</g>
<!-- Node7&#45;&gt;Node9 -->
<g id="edge9" class="edge">
<title>Node7&#45;&gt;Node9</title>
<path fill="none" stroke="midnightblue" d="M625.81,-549.25C646.15,-555.82 669.54,-563.08 691,-569 753.04,-586.12 824.4,-602.62 875.91,-613.96"/>
<polygon fill="midnightblue" stroke="midnightblue" points="626.68,-545.85 616.09,-546.08 624.51,-552.5 626.68,-545.85"/>
</g>
<!-- Node10 -->
<g id="node10" class="node">
<title>Node10</title>
<g id="a_node10"><a xlink:href="structlemons_1_1plugin_1_1GainParameter.html" target="_top" xlink:title=" ">
<polygon fill="none" stroke="black" points="864,-565 864,-595 1031,-595 1031,-565 864,-565"/>
<text text-anchor="start" x="872" y="-583" font-family="Helvetica,sans-Serif" font-size="10.00">lemons::plugin::GainParameter</text>
<text text-anchor="middle" x="947.5" y="-572" font-family="Helvetica,sans-Serif" font-size="10.00">&lt; float &gt;</text>
</a>
</g>
</g>
<!-- Node7&#45;&gt;Node10 -->
<g id="edge10" class="edge">
<title>Node7&#45;&gt;Node10</title>
<path fill="none" stroke="midnightblue" d="M667.05,-543.49C727.84,-551.43 805.77,-561.61 863.88,-569.2"/>
<polygon fill="midnightblue" stroke="midnightblue" points="667.43,-540.01 657.06,-542.18 666.52,-546.95 667.43,-540.01"/>
</g>
<!-- Node11 -->
<g id="node11" class="node">
<title>Node11</title>
<g id="a_node11"><a xlink:href="structlemons_1_1plugin_1_1MeterParameter.html" target="_top" xlink:title=" ">
<polygon fill="none" stroke="black" points="861,-516 861,-546 1034,-546 1034,-516 861,-516"/>
<text text-anchor="start" x="869" y="-534" font-family="Helvetica,sans-Serif" font-size="10.00">lemons::plugin::MeterParameter</text>
<text text-anchor="middle" x="947.5" y="-523" font-family="Helvetica,sans-Serif" font-size="10.00">&lt; float &gt;</text>
</a>
</g>
</g>
<!-- Node7&#45;&gt;Node11 -->
<g id="edge11" class="edge">
<title>Node7&#45;&gt;Node11</title>
<path fill="none" stroke="midnightblue" d="M667.26,-531C727.01,-531 803.26,-531 860.98,-531"/>
<polygon fill="midnightblue" stroke="midnightblue" points="667.06,-527.5 657.06,-531 667.06,-534.5 667.06,-527.5"/>
</g>
<!-- Node13 -->
<g id="node13" class="node">
<title>Node13</title>
<g id="a_node13"><a xlink:href="structlemons_1_1plugin_1_1PercentParameter.html" target="_top" xlink:title=" ">
<polygon fill="none" stroke="black" points="856.5,-467 856.5,-497 1038.5,-497 1038.5,-467 856.5,-467"/>
<text text-anchor="start" x="864.5" y="-485" font-family="Helvetica,sans-Serif" font-size="10.00">lemons::plugin::PercentParameter</text>
<text text-anchor="middle" x="947.5" y="-474" font-family="Helvetica,sans-Serif" font-size="10.00">&lt; int &gt;</text>
</a>
</g>
</g>
<!-- Node7&#45;&gt;Node13 -->
<g id="edge13" class="edge">
<title>Node7&#45;&gt;Node13</title>
<path fill="none" stroke="midnightblue" d="M667,-518.52C725.23,-510.91 799.19,-501.25 856.4,-493.77"/>
<polygon fill="midnightblue" stroke="midnightblue" points="666.52,-515.05 657.06,-519.82 667.43,-521.99 666.52,-515.05"/>
</g>
<!-- Node7&#45;&gt;Node14 -->
<g id="edge14" class="edge">
<title>Node7&#45;&gt;Node14</title>
<path fill="none" stroke="orange" stroke-dasharray="5,2" d="M612.66,-511.74C635.36,-501.72 664.3,-489.95 691,-482 746.63,-465.44 810.78,-453.16 860.89,-445.04"/>
<polygon fill="orange" stroke="orange" points="611.03,-508.63 603.33,-515.91 613.89,-515.02 611.03,-508.63"/>
<text text-anchor="middle" x="763" y="-485" font-family="Helvetica,sans-Serif" font-size="10.00"> &lt; bool &gt;</text>
</g>
<!-- Node12 -->
<g id="node12" class="node">
<title>Node12</title>
<g id="a_node12"><a xlink:href="structlemons_1_1plugin_1_1GainMeterParameter.html" target="_top" xlink:title=" ">
<polygon fill="none" stroke="black" points="1089.5,-516 1089.5,-546 1235.5,-546 1235.5,-516 1089.5,-516"/>
<text text-anchor="start" x="1097.5" y="-534" font-family="Helvetica,sans-Serif" font-size="10.00">lemons::plugin::GainMeter</text>
<text text-anchor="middle" x="1162.5" y="-523" font-family="Helvetica,sans-Serif" font-size="10.00">Parameter</text>
</a>
</g>
</g>
<!-- Node11&#45;&gt;Node12 -->
<g id="edge12" class="edge">
<title>Node11&#45;&gt;Node12</title>
<path fill="none" stroke="midnightblue" d="M1044.56,-531C1059.6,-531 1074.91,-531 1089.29,-531"/>
<polygon fill="midnightblue" stroke="midnightblue" points="1044.21,-527.5 1034.21,-531 1044.21,-534.5 1044.21,-527.5"/>
</g>
<!-- Node15 -->
<g id="node15" class="node">
<title>Node15</title>
<g id="a_node15"><a xlink:href="structlemons_1_1plugin_1_1BoolParameter.html" target="_top" xlink:title=" ">
<polygon fill="none" stroke="black" points="1079,-423.5 1079,-442.5 1246,-442.5 1246,-423.5 1079,-423.5"/>
<text text-anchor="middle" x="1162.5" y="-430.5" font-family="Helvetica,sans-Serif" font-size="10.00">lemons::plugin::BoolParameter</text>
</a>
</g>
</g>
<!-- Node14&#45;&gt;Node15 -->
<g id="edge15" class="edge">
<title>Node14&#45;&gt;Node15</title>
<path fill="none" stroke="midnightblue" d="M1044.26,-433C1055.76,-433 1067.43,-433 1078.73,-433"/>
<polygon fill="midnightblue" stroke="midnightblue" points="1044.21,-429.5 1034.21,-433 1044.21,-436.5 1044.21,-429.5"/>
</g>
<!-- Node16 -->
<g id="node16" class="node">
<title>Node16</title>
<g id="a_node16"><a xlink:href="structlemons_1_1plugin_1_1ToggleParameter.html" target="_top" xlink:title=" ">
<polygon fill="none" stroke="black" points="1283,-423.5 1283,-442.5 1459,-442.5 1459,-423.5 1283,-423.5"/>
<text text-anchor="middle" x="1371" y="-430.5" font-family="Helvetica,sans-Serif" font-size="10.00">lemons::plugin::ToggleParameter</text>
</a>
</g>
</g>
<!-- Node15&#45;&gt;Node16 -->
<g id="edge16" class="edge">
<title>Node15&#45;&gt;Node16</title>
<path fill="none" stroke="midnightblue" d="M1256.03,-433C1264.97,-433 1274.01,-433 1282.89,-433"/>
<polygon fill="midnightblue" stroke="midnightblue" points="1256,-429.5 1246,-433 1256,-436.5 1256,-429.5"/>
</g>
<!-- Node19 -->
<g id="node19" class="node">
<title>Node19</title>
<g id="a_node19"><a xlink:href="classlemons_1_1plugin_1_1ParameterHolder.html" target="_top" xlink:title=" ">
<polygon fill="none" stroke="black" points="498,-370 498,-400 643,-400 643,-370 498,-370"/>
<text text-anchor="start" x="506" y="-388" font-family="Helvetica,sans-Serif" font-size="10.00">lemons::plugin::Parameter</text>
<text text-anchor="middle" x="570.5" y="-377" font-family="Helvetica,sans-Serif" font-size="10.00">Holder&lt; ParameterType &gt;</text>
</a>
</g>
</g>
<!-- Node18&#45;&gt;Node19 -->
<g id="edge20" class="edge">
<title>Node18&#45;&gt;Node19</title>
<path fill="none" stroke="midnightblue" d="M368.11,-370.97C410.47,-373.92 458.85,-377.29 497.58,-379.99"/>
<polygon fill="midnightblue" stroke="midnightblue" points="368.27,-367.48 358.05,-370.27 367.78,-374.46 368.27,-367.48"/>
</g>
<!-- Node20 -->
<g id="node20" class="node">
<title>Node20</title>
<g id="a_node20"><a xlink:href="classlemons_1_1plugin_1_1ParameterHolder.html" target="_top" xlink:title=" ">
<polygon fill="none" stroke="black" points="853,-346 853,-376 1042,-376 1042,-346 853,-346"/>
<text text-anchor="start" x="861" y="-364" font-family="Helvetica,sans-Serif" font-size="10.00">lemons::plugin::Parameter</text>
<text text-anchor="middle" x="947.5" y="-353" font-family="Helvetica,sans-Serif" font-size="10.00">Holder&lt; plugin::ToggleParameter &gt;</text>
</a>
</g>
</g>
<!-- Node18&#45;&gt;Node20 -->
<g id="edge22" class="edge">
<title>Node18&#45;&gt;Node20</title>
<path fill="none" stroke="midnightblue" d="M368.31,-362.2C400.18,-361.71 435.57,-361.24 468,-361 601.74,-360 756.52,-360.26 852.98,-360.59"/>
<polygon fill="midnightblue" stroke="midnightblue" points="368.04,-358.7 358.1,-362.36 368.15,-365.7 368.04,-358.7"/>
</g>
<!-- Node19&#45;&gt;Node20 -->
<g id="edge21" class="edge">
<title>Node19&#45;&gt;Node20</title>
<path fill="none" stroke="orange" stroke-dasharray="5,2" d="M653.35,-379.76C712.15,-376 791.53,-370.92 852.86,-366.99"/>
<polygon fill="orange" stroke="orange" points="653.12,-376.27 643.36,-380.4 653.56,-383.26 653.12,-376.27"/>
<text text-anchor="middle" x="763" y="-380" font-family="Helvetica,sans-Serif" font-size="10.00"> &lt; plugin::ToggleParameter &gt;</text>
</g>
<!-- Node21&#45;&gt;Node22 -->
<g id="edge24" class="edge">
<title>Node21&#45;&gt;Node22</title>
<path fill="none" stroke="orange" stroke-dasharray="5,2" d="M352.17,-311.35C397.15,-306.72 452.03,-301.08 495.38,-296.62"/>
<polygon fill="orange" stroke="orange" points="351.73,-307.87 342.14,-312.38 352.45,-314.84 351.73,-307.87"/>
<text text-anchor="middle" x="413" y="-311" font-family="Helvetica,sans-Serif" font-size="10.00"> &lt; StateType &gt;</text>
</g>
<!-- Node25 -->
<g id="node25" class="node">
<title>Node25</title>
<g id="a_node25"><a xlink:href="structlemons_1_1plugin_1_1CustomState.html" target="_top" xlink:title=" ">
<polygon fill="none" stroke="black" points="468,-205 468,-235 673,-235 673,-205 468,-205"/>
<text text-anchor="start" x="476" y="-223" font-family="Helvetica,sans-Serif" font-size="10.00">lemons::plugin::CustomState</text>
<text text-anchor="middle" x="570.5" y="-212" font-family="Helvetica,sans-Serif" font-size="10.00">&lt; ParamListType, CustomDataType,, &gt;</text>
</a>
</g>
</g>
<!-- Node24&#45;&gt;Node25 -->
<g id="edge27" class="edge">
<title>Node24&#45;&gt;Node25</title>
<path fill="none" stroke="midnightblue" d="M349.17,-205.38C385.68,-207.81 429.15,-210.69 467.8,-213.25"/>
<polygon fill="midnightblue" stroke="midnightblue" points="349.28,-201.88 339.07,-204.71 348.82,-208.87 349.28,-201.88"/>
</g>
<!-- Node26 -->
<g id="node26" class="node">
<title>Node26</title>
<g id="a_node26"><a xlink:href="structlemons_1_1plugin_1_1State.html" target="_top" xlink:title=" ">
<polygon fill="none" stroke="black" points="510.5,-156 510.5,-186 630.5,-186 630.5,-156 510.5,-156"/>
<text text-anchor="start" x="518.5" y="-174" font-family="Helvetica,sans-Serif" font-size="10.00">lemons::plugin::State</text>
<text text-anchor="middle" x="570.5" y="-163" font-family="Helvetica,sans-Serif" font-size="10.00">&lt; ParamListType, &gt;</text>
</a>
</g>
</g>
<!-- Node24&#45;&gt;Node26 -->
<g id="edge28" class="edge">
<title>Node24&#45;&gt;Node26</title>
<path fill="none" stroke="midnightblue" d="M349.03,-192.21C399.77,-187.33 464.03,-181.14 510.07,-176.72"/>
<polygon fill="midnightblue" stroke="midnightblue" points="348.69,-188.72 339.07,-193.16 349.36,-195.69 348.69,-188.72"/>
</g>
</g>
</svg>
        <g id="navigator" transform="translate(0 0)" fill="#404254">
                <rect fill="#f2f5e9" fill-opacity="0.5" stroke="#606060" stroke-width=".5" x="0" y="0" width="60" height="60"/>
                <use id="zoomplus" xlink:href="#zoomPlus" x="17" y="9" onmousedown="handleZoom(evt,'in')"/>
                <use id="zoomminus" xlink:href="#zoomMin" x="42" y="9" onmousedown="handleZoom(evt,'out')"/>
                <use id="reset" xlink:href="#resetDef" x="30" y="36" onmousedown="handleReset()"/>
                <g id="arrowUp" xlink:href="#dirArrow" transform="translate(30 24)" onmousedown="handlePan(0,-1)">
                  <use xlink:href="#rim" fill="#404040">
                        <set attributeName="fill" to="#808080" begin="arrowUp.mouseover" end="arrowUp.mouseout"/>
                  </use>
                  <path fill="none" stroke="white" stroke-width="1.5" d="M0,-3.0v7 M-2.5,-0.5L0,-3.0L2.5,-0.5"/>
                </g>
                <g id="arrowRight" xlink:href="#dirArrow" transform="rotate(90) translate(36 -43)" onmousedown="handlePan(1,0)">
                  <use xlink:href="#rim" fill="#404040">
                        <set attributeName="fill" to="#808080" begin="arrowRight.mouseover" end="arrowRight.mouseout"/>
                  </use>
                  <path fill="none" stroke="white" stroke-width="1.5" d="M0,-3.0v7 M-2.5,-0.5L0,-3.0L2.5,-0.5"/>
                </g>
                <g id="arrowDown" xlink:href="#dirArrow" transform="rotate(180) translate(-30 -48)" onmousedown="handlePan(0,1)">
                  <use xlink:href="#rim" fill="#404040">
                        <set attributeName="fill" to="#808080" begin="arrowDown.mouseover" end="arrowDown.mouseout"/>
                  </use>
                  <path fill="none" stroke="white" stroke-width="1.5" d="M0,-3.0v7 M-2.5,-0.5L0,-3.0L2.5,-0.5"/>
                </g>
                <g id="arrowLeft" xlink:href="#dirArrow" transform="rotate(270) translate(-36 17)" onmousedown="handlePan(-1,0)">
                  <use xlink:href="#rim" fill="#404040">
                        <set attributeName="fill" to="#808080" begin="arrowLeft.mouseover" end="arrowLeft.mouseout"/>
                  </use>
                  <path fill="none" stroke="white" stroke-width="1.5" d="M0,-3.0v7 M-2.5,-0.5L0,-3.0L2.5,-0.5"/>
                </g>
        </g>
        <svg viewBox="0 0 15 15" width="100%" height="30px" preserveAspectRatio="xMaxYMin meet">
         <g id="arrow_out" transform="scale(0.3 0.3)">
          <a xlink:href="structlemons_1_1SerializableData__inherit__graph_org.svg" target="_base">
           <rect id="button" ry="5" rx="5" y="6" x="6" height="38" width="38"
                fill="#f2f5e9" fill-opacity="0.5" stroke="#606060" stroke-width="1.0"/>
           <path id="arrow"
             d="M 11.500037,31.436501 C 11.940474,20.09759 22.043105,11.32322 32.158766,21.979434 L 37.068811,17.246167 C 37.068811,17.246167 37.088388,32 37.088388,32 L 22.160133,31.978069 C 22.160133,31.978069 26.997745,27.140456 26.997745,27.140456 C 18.528582,18.264221 13.291696,25.230495 11.500037,31.436501 z"
             style="fill:#404040;"/>
          </a>
         </g>
        </svg>
</svg>
