<?xml version="1.0" encoding="UTF-8" standalone="no"?>
<!DOCTYPE svg PUBLIC "-//W3C//DTD SVG 1.1//EN"
 "http://www.w3.org/Graphics/SVG/1.1/DTD/svg11.dtd">
<!-- Generated by graphviz version 2.43.0 (0)
 -->
<!-- Title: lemons::ConstructedArray&lt; ObjectType &gt; Pages: 1 -->
<svg width="494pt" height="100pt"
 viewBox="0.00 0.00 494.00 99.50" xmlns="http://www.w3.org/2000/svg" xmlns:xlink="http://www.w3.org/1999/xlink">
<g id="graph0" class="graph" transform="scale(1 1) rotate(0) translate(4 95.5)">
<title>lemons::ConstructedArray&lt; ObjectType &gt;</title>
<!-- Node1 -->
<g id="node1" class="node">
<title>Node1</title>
<g id="a_node1"><a xlink:title="A wrapper around juce::OwnedArray that automatically deletes or creates objects when you resize it.">
<polygon fill="#bfbfbf" stroke="black" points="0,-27.5 0,-57.5 143,-57.5 143,-27.5 0,-27.5"/>
<text text-anchor="start" x="8" y="-45.5" font-family="Helvetica,sans-Serif" font-size="10.00">lemons::ConstructedArray</text>
<text text-anchor="middle" x="71.5" y="-34.5" font-family="Helvetica,sans-Serif" font-size="10.00">&lt; ObjectType &gt;</text>
</a>
</g>
</g>
<!-- Node2 -->
<g id="node2" class="node">
<title>Node2</title>
<g id="a_node2"><a xlink:href="structlemons_1_1_constructed_array.html" target="_top" xlink:title=" ">
<polygon fill="none" stroke="black" points="326,-50 326,-91 486,-91 486,-50 326,-50"/>
<text text-anchor="start" x="334" y="-79" font-family="Helvetica,sans-Serif" font-size="10.00">lemons::ConstructedArray</text>
<text text-anchor="start" x="334" y="-68" font-family="Helvetica,sans-Serif" font-size="10.00">&lt; lemons::dsp::CircularBuffer</text>
<text text-anchor="middle" x="406" y="-57" font-family="Helvetica,sans-Serif" font-size="10.00">&lt; SampleType &gt; &gt;</text>
</a>
</g>
</g>
<!-- Node1&#45;&gt;Node2 -->
<g id="edge1" class="edge">
<title>Node1&#45;&gt;Node2</title>
<path fill="none" stroke="orange" stroke-dasharray="5,2" d="M153.28,-49.3C205.72,-53.72 273.74,-59.45 325.85,-63.83"/>
<polygon fill="orange" stroke="orange" points="153.27,-45.79 143.01,-48.44 152.69,-52.76 153.27,-45.79"/>
<text text-anchor="start" x="161" y="-75.5" font-family="Helvetica,sans-Serif" font-size="10.00"> &lt; lemons::dsp::CircularBuffer</text>
<text text-anchor="middle" x="234.5" y="-64.5" font-family="Helvetica,sans-Serif" font-size="10.00">&lt; SampleType &gt; &gt;</text>
</g>
<!-- Node3 -->
<g id="node3" class="node">
<title>Node3</title>
<g id="a_node3"><a xlink:href="structlemons_1_1_constructed_array.html" target="_top" xlink:title=" ">
<polygon fill="none" stroke="black" points="334.5,-0.5 334.5,-30.5 477.5,-30.5 477.5,-0.5 334.5,-0.5"/>
<text text-anchor="start" x="342.5" y="-18.5" font-family="Helvetica,sans-Serif" font-size="10.00">lemons::ConstructedArray</text>
<text text-anchor="middle" x="406" y="-7.5" font-family="Helvetica,sans-Serif" font-size="10.00">&lt; InterpolatorType &gt;</text>
</a>
</g>
</g>
<!-- Node1&#45;&gt;Node3 -->
<g id="edge2" class="edge">
<title>Node1&#45;&gt;Node3</title>
<path fill="none" stroke="orange" stroke-dasharray="5,2" d="M153.14,-35.95C208.48,-31.46 281.22,-25.55 334.3,-21.24"/>
<polygon fill="orange" stroke="orange" points="152.7,-32.48 143.01,-36.77 153.27,-39.45 152.7,-32.48"/>
<text text-anchor="middle" x="234.5" y="-38.5" font-family="Helvetica,sans-Serif" font-size="10.00"> &lt; InterpolatorType &gt;</text>
</g>
</g>
</svg>
