<?xml version="1.0" encoding="UTF-8" standalone="no"?>
<!DOCTYPE svg PUBLIC "-//W3C//DTD SVG 1.1//EN"
 "http://www.w3.org/Graphics/SVG/1.1/DTD/svg11.dtd">
<!-- Generated by graphviz version 2.43.0 (0)
 -->
<!-- Title: lemons::serializing::StringArrayInterface Pages: 1 -->
<svg width="763pt" height="80pt"
 viewBox="0.00 0.00 763.00 80.00" xmlns="http://www.w3.org/2000/svg" xmlns:xlink="http://www.w3.org/1999/xlink">
<g id="graph0" class="graph" transform="scale(1 1) rotate(0) translate(4 76)">
<title>lemons::serializing::StringArrayInterface</title>
<!-- Node1 -->
<g id="node1" class="node">
<title>Node1</title>
<g id="a_node1"><a xlink:title="Container interface that provides support for serializing juce::StringArrays with TreeReflector.">
<polygon fill="#bfbfbf" stroke="black" points="634,-36 634,-66 755,-66 755,-36 634,-36"/>
<text text-anchor="start" x="642" y="-54" font-family="Helvetica,sans-Serif" font-size="10.00">lemons::serializing</text>
<text text-anchor="middle" x="694.5" y="-43" font-family="Helvetica,sans-Serif" font-size="10.00">::StringArrayInterface</text>
</a>
</g>
</g>
<!-- Node2 -->
<g id="node2" class="node">
<title>Node2</title>
<g id="a_node2"><a xlink:href="structlemons_1_1serializing_1_1LambdaContainerInterface.html" target="_top" xlink:title=" ">
<polygon fill="none" stroke="black" points="445,-30.5 445,-71.5 597,-71.5 597,-30.5 445,-30.5"/>
<text text-anchor="start" x="453" y="-59.5" font-family="Helvetica,sans-Serif" font-size="10.00">lemons::serializing</text>
<text text-anchor="start" x="453" y="-48.5" font-family="Helvetica,sans-Serif" font-size="10.00">::LambdaContainerInterface</text>
<text text-anchor="middle" x="521" y="-37.5" font-family="Helvetica,sans-Serif" font-size="10.00">&lt; juce::StringArray &gt;</text>
</a>
</g>
</g>
<!-- Node2&#45;&gt;Node1 -->
<g id="edge1" class="edge">
<title>Node2&#45;&gt;Node1</title>
<path fill="none" stroke="midnightblue" d="M607.31,-51C616.26,-51 625.22,-51 633.8,-51"/>
<polygon fill="midnightblue" stroke="midnightblue" points="607.22,-47.5 597.22,-51 607.22,-54.5 607.22,-47.5"/>
</g>
<!-- Node3 -->
<g id="node3" class="node">
<title>Node3</title>
<g id="a_node3"><a xlink:href="structlemons_1_1serializing_1_1ContainerInterface.html" target="_top" xlink:title="Interface that defines how a TreeReflector can resize a given container during deserialization.">
<polygon fill="none" stroke="black" points="0,-30 0,-60 113,-60 113,-30 0,-30"/>
<text text-anchor="start" x="8" y="-48" font-family="Helvetica,sans-Serif" font-size="10.00">lemons::serializing</text>
<text text-anchor="middle" x="56.5" y="-37" font-family="Helvetica,sans-Serif" font-size="10.00">::ContainerInterface</text>
</a>
</g>
</g>
<!-- Node3&#45;&gt;Node2 -->
<g id="edge2" class="edge">
<title>Node3&#45;&gt;Node2</title>
<path fill="none" stroke="midnightblue" d="M123.29,-49.55C132.26,-50.09 141.36,-50.59 150,-51 272.99,-56.8 303.91,-59.31 427,-56 432.82,-55.84 438.84,-55.63 444.89,-55.38"/>
<polygon fill="midnightblue" stroke="midnightblue" points="123.44,-46.06 113.24,-48.94 123.01,-53.04 123.44,-46.06"/>
</g>
<!-- Node4 -->
<g id="node4" class="node">
<title>Node4</title>
<g id="a_node4"><a xlink:href="structlemons_1_1serializing_1_1LambdaContainerInterface.html" target="_top" xlink:title="Provides a slightly slicker interface to ContainerInterface, allowing you to supply a lambda function...">
<polygon fill="none" stroke="black" points="150,-0.5 150,-41.5 302,-41.5 302,-0.5 150,-0.5"/>
<text text-anchor="start" x="158" y="-29.5" font-family="Helvetica,sans-Serif" font-size="10.00">lemons::serializing</text>
<text text-anchor="start" x="158" y="-18.5" font-family="Helvetica,sans-Serif" font-size="10.00">::LambdaContainerInterface</text>
<text text-anchor="middle" x="226" y="-7.5" font-family="Helvetica,sans-Serif" font-size="10.00">&lt; ContainerType &gt;</text>
</a>
</g>
</g>
<!-- Node3&#45;&gt;Node4 -->
<g id="edge4" class="edge">
<title>Node3&#45;&gt;Node4</title>
<path fill="none" stroke="midnightblue" d="M123.32,-35.57C132.01,-34.32 140.96,-33.04 149.79,-31.78"/>
<polygon fill="midnightblue" stroke="midnightblue" points="122.68,-32.13 113.28,-37.01 123.67,-39.05 122.68,-32.13"/>
</g>
<!-- Node4&#45;&gt;Node2 -->
<g id="edge3" class="edge">
<title>Node4&#45;&gt;Node2</title>
<path fill="none" stroke="orange" stroke-dasharray="5,2" d="M312.28,-29.73C354.24,-34.03 404.37,-39.16 444.87,-43.31"/>
<polygon fill="orange" stroke="orange" points="312.38,-26.22 302.07,-28.69 311.67,-33.19 312.38,-26.22"/>
<text text-anchor="middle" x="373.5" y="-44" font-family="Helvetica,sans-Serif" font-size="10.00"> &lt; juce::StringArray &gt;</text>
</g>
</g>
</svg>
