<?xml version="1.0" encoding="UTF-8" standalone="no"?>
<!DOCTYPE svg PUBLIC "-//W3C//DTD SVG 1.1//EN"
 "http://www.w3.org/Graphics/SVG/1.1/DTD/svg11.dtd">
<!-- Generated by graphviz version 2.43.0 (0)
 -->
<!-- Title: lemons::serializing::LambdaContainerInterface&lt; ContainerType &gt; Pages: 1 -->
<svg width="904pt" height="242pt"
 viewBox="0.00 0.00 904.00 241.50" xmlns="http://www.w3.org/2000/svg" xmlns:xlink="http://www.w3.org/1999/xlink">
<g id="graph0" class="graph" transform="scale(1 1) rotate(0) translate(4 237.5)">
<title>lemons::serializing::LambdaContainerInterface&lt; ContainerType &gt;</title>
<!-- Node1 -->
<g id="node1" class="node">
<title>Node1</title>
<g id="a_node1"><a xlink:title="Provides a slightly slicker interface to ContainerInterface, allowing you to supply a lambda function...">
<polygon fill="#bfbfbf" stroke="black" points="150,-108 150,-149 302,-149 302,-108 150,-108"/>
<text text-anchor="start" x="158" y="-137" font-family="Helvetica,sans-Serif" font-size="10.00">lemons::serializing</text>
<text text-anchor="start" x="158" y="-126" font-family="Helvetica,sans-Serif" font-size="10.00">::LambdaContainerInterface</text>
<text text-anchor="middle" x="226" y="-115" font-family="Helvetica,sans-Serif" font-size="10.00">&lt; ContainerType &gt;</text>
</a>
</g>
</g>
<!-- Node3 -->
<g id="node3" class="node">
<title>Node3</title>
<g id="a_node3"><a xlink:href="structlemons_1_1serializing_1_1STLContainerInterface.html" target="_top" xlink:title=" ">
<polygon fill="none" stroke="black" points="542,-192 542,-233 673,-233 673,-192 542,-192"/>
<text text-anchor="start" x="550" y="-221" font-family="Helvetica,sans-Serif" font-size="10.00">lemons::serializing</text>
<text text-anchor="start" x="550" y="-210" font-family="Helvetica,sans-Serif" font-size="10.00">::STLContainerInterface</text>
<text text-anchor="middle" x="607.5" y="-199" font-family="Helvetica,sans-Serif" font-size="10.00">&lt; ContainerType &gt;</text>
</a>
</g>
</g>
<!-- Node1&#45;&gt;Node3 -->
<g id="edge2" class="edge">
<title>Node1&#45;&gt;Node3</title>
<path fill="none" stroke="midnightblue" d="M274.12,-153.51C288.51,-160.26 304.61,-166.95 320,-171.5 394.32,-193.49 483.09,-203.86 541.92,-208.64"/>
<polygon fill="midnightblue" stroke="midnightblue" points="275.46,-150.27 264.94,-149.09 272.43,-156.58 275.46,-150.27"/>
</g>
<!-- Node4 -->
<g id="node4" class="node">
<title>Node4</title>
<g id="a_node4"><a xlink:href="structlemons_1_1serializing_1_1LambdaContainerInterface.html" target="_top" xlink:title=" ">
<polygon fill="none" stroke="black" points="502,-132 502,-173 713,-173 713,-132 502,-132"/>
<text text-anchor="start" x="510" y="-161" font-family="Helvetica,sans-Serif" font-size="10.00">lemons::serializing</text>
<text text-anchor="start" x="510" y="-150" font-family="Helvetica,sans-Serif" font-size="10.00">::LambdaContainerInterface</text>
<text text-anchor="middle" x="607.5" y="-139" font-family="Helvetica,sans-Serif" font-size="10.00">&lt; juce::OwnedArray&lt; ElementType &gt; &gt;</text>
</a>
</g>
</g>
<!-- Node1&#45;&gt;Node4 -->
<g id="edge3" class="edge">
<title>Node1&#45;&gt;Node4</title>
<path fill="none" stroke="orange" stroke-dasharray="5,2" d="M312.68,-133.92C368.71,-137.46 442.26,-142.11 501.76,-145.88"/>
<polygon fill="orange" stroke="orange" points="312.63,-130.41 302.43,-133.27 312.19,-137.39 312.63,-130.41"/>
<text text-anchor="start" x="351.5" y="-159.5" font-family="Helvetica,sans-Serif" font-size="10.00"> &lt; juce::OwnedArray</text>
<text text-anchor="middle" x="402" y="-148.5" font-family="Helvetica,sans-Serif" font-size="10.00">&lt; ElementType &gt; &gt;</text>
</g>
<!-- Node6 -->
<g id="node6" class="node">
<title>Node6</title>
<g id="a_node6"><a xlink:href="structlemons_1_1serializing_1_1LambdaContainerInterface.html" target="_top" xlink:title=" ">
<polygon fill="none" stroke="black" points="519,-72 519,-113 696,-113 696,-72 519,-72"/>
<text text-anchor="start" x="527" y="-101" font-family="Helvetica,sans-Serif" font-size="10.00">lemons::serializing</text>
<text text-anchor="start" x="527" y="-90" font-family="Helvetica,sans-Serif" font-size="10.00">::LambdaContainerInterface</text>
<text text-anchor="middle" x="607.5" y="-79" font-family="Helvetica,sans-Serif" font-size="10.00">&lt; juce::Array&lt; ElementType &gt; &gt;</text>
</a>
</g>
</g>
<!-- Node1&#45;&gt;Node6 -->
<g id="edge5" class="edge">
<title>Node1&#45;&gt;Node6</title>
<path fill="none" stroke="orange" stroke-dasharray="5,2" d="M312.51,-120.39C374.08,-114.55 456.87,-106.69 518.91,-100.81"/>
<polygon fill="orange" stroke="orange" points="312.06,-116.92 302.43,-121.34 312.72,-123.88 312.06,-116.92"/>
<text text-anchor="middle" x="402" y="-122.5" font-family="Helvetica,sans-Serif" font-size="10.00"> &lt; juce::Array&lt; ElementType &gt; &gt;</text>
</g>
<!-- Node8 -->
<g id="node8" class="node">
<title>Node8</title>
<g id="a_node8"><a xlink:href="structlemons_1_1serializing_1_1LambdaContainerInterface.html" target="_top" xlink:title=" ">
<polygon fill="none" stroke="black" points="531.5,-0.5 531.5,-52.5 683.5,-52.5 683.5,-0.5 531.5,-0.5"/>
<text text-anchor="start" x="539.5" y="-40.5" font-family="Helvetica,sans-Serif" font-size="10.00">lemons::serializing</text>
<text text-anchor="start" x="539.5" y="-29.5" font-family="Helvetica,sans-Serif" font-size="10.00">::LambdaContainerInterface</text>
<text text-anchor="start" x="539.5" y="-18.5" font-family="Helvetica,sans-Serif" font-size="10.00">&lt; std::array&lt; ElementType,</text>
<text text-anchor="middle" x="607.5" y="-7.5" font-family="Helvetica,sans-Serif" font-size="10.00"> size &gt; &gt;</text>
</a>
</g>
</g>
<!-- Node1&#45;&gt;Node8 -->
<g id="edge7" class="edge">
<title>Node1&#45;&gt;Node8</title>
<path fill="none" stroke="orange" stroke-dasharray="5,2" d="M268.32,-102.68C284.01,-93.86 302.35,-84.67 320,-78.5 389.43,-54.22 472.49,-40.74 531.25,-33.63"/>
<polygon fill="orange" stroke="orange" points="266.33,-99.79 259.42,-107.81 269.83,-105.85 266.33,-99.79"/>
<text text-anchor="start" x="332.5" y="-92.5" font-family="Helvetica,sans-Serif" font-size="10.00"> &lt; std::array&lt; ElementType,</text>
<text text-anchor="middle" x="402" y="-81.5" font-family="Helvetica,sans-Serif" font-size="10.00"> size &gt; &gt;</text>
</g>
<!-- Node2 -->
<g id="node2" class="node">
<title>Node2</title>
<g id="a_node2"><a xlink:href="structlemons_1_1serializing_1_1ContainerInterface.html" target="_top" xlink:title="Interface that defines how a TreeReflector can resize a given container during deserialization.">
<polygon fill="none" stroke="black" points="0,-113.5 0,-143.5 113,-143.5 113,-113.5 0,-113.5"/>
<text text-anchor="start" x="8" y="-131.5" font-family="Helvetica,sans-Serif" font-size="10.00">lemons::serializing</text>
<text text-anchor="middle" x="56.5" y="-120.5" font-family="Helvetica,sans-Serif" font-size="10.00">::ContainerInterface</text>
</a>
</g>
</g>
<!-- Node2&#45;&gt;Node1 -->
<g id="edge1" class="edge">
<title>Node2&#45;&gt;Node1</title>
<path fill="none" stroke="midnightblue" d="M123.32,-128.5C132.01,-128.5 140.96,-128.5 149.79,-128.5"/>
<polygon fill="midnightblue" stroke="midnightblue" points="123.28,-125 113.28,-128.5 123.28,-132 123.28,-125"/>
</g>
<!-- Node5 -->
<g id="node5" class="node">
<title>Node5</title>
<g id="a_node5"><a xlink:href="structlemons_1_1serializing_1_1JuceOwnedArrayInterface.html" target="_top" xlink:title=" ">
<polygon fill="none" stroke="black" points="750,-132 750,-173 896,-173 896,-132 750,-132"/>
<text text-anchor="start" x="758" y="-161" font-family="Helvetica,sans-Serif" font-size="10.00">lemons::serializing</text>
<text text-anchor="start" x="758" y="-150" font-family="Helvetica,sans-Serif" font-size="10.00">::JuceOwnedArrayInterface</text>
<text text-anchor="middle" x="823" y="-139" font-family="Helvetica,sans-Serif" font-size="10.00">&lt; ElementType &gt;</text>
</a>
</g>
</g>
<!-- Node4&#45;&gt;Node5 -->
<g id="edge4" class="edge">
<title>Node4&#45;&gt;Node5</title>
<path fill="none" stroke="midnightblue" d="M723.28,-152.5C732.32,-152.5 741.28,-152.5 749.9,-152.5"/>
<polygon fill="midnightblue" stroke="midnightblue" points="723.06,-149 713.06,-152.5 723.06,-156 723.06,-149"/>
</g>
<!-- Node7 -->
<g id="node7" class="node">
<title>Node7</title>
<g id="a_node7"><a xlink:href="structlemons_1_1serializing_1_1JuceArrayInterface.html" target="_top" xlink:title=" ">
<polygon fill="none" stroke="black" points="766.5,-72 766.5,-113 879.5,-113 879.5,-72 766.5,-72"/>
<text text-anchor="start" x="774.5" y="-101" font-family="Helvetica,sans-Serif" font-size="10.00">lemons::serializing</text>
<text text-anchor="start" x="774.5" y="-90" font-family="Helvetica,sans-Serif" font-size="10.00">::JuceArrayInterface</text>
<text text-anchor="middle" x="823" y="-79" font-family="Helvetica,sans-Serif" font-size="10.00">&lt; ElementType &gt;</text>
</a>
</g>
</g>
<!-- Node6&#45;&gt;Node7 -->
<g id="edge6" class="edge">
<title>Node6&#45;&gt;Node7</title>
<path fill="none" stroke="midnightblue" d="M706.32,-92.5C726.91,-92.5 747.95,-92.5 766.34,-92.5"/>
<polygon fill="midnightblue" stroke="midnightblue" points="706.26,-89 696.26,-92.5 706.26,-96 706.26,-89"/>
</g>
<!-- Node9 -->
<g id="node9" class="node">
<title>Node9</title>
<g id="a_node9"><a xlink:href="structlemons_1_1serializing_1_1StdArrayInterface.html" target="_top" xlink:title=" ">
<polygon fill="none" stroke="black" points="759,-6 759,-47 887,-47 887,-6 759,-6"/>
<text text-anchor="start" x="767" y="-35" font-family="Helvetica,sans-Serif" font-size="10.00">lemons::serializing</text>
<text text-anchor="start" x="767" y="-24" font-family="Helvetica,sans-Serif" font-size="10.00">::StdArrayInterface</text>
<text text-anchor="middle" x="823" y="-13" font-family="Helvetica,sans-Serif" font-size="10.00">&lt; ElementType, size &gt;</text>
</a>
</g>
</g>
<!-- Node8&#45;&gt;Node9 -->
<g id="edge8" class="edge">
<title>Node8&#45;&gt;Node9</title>
<path fill="none" stroke="midnightblue" d="M693.94,-26.5C715.56,-26.5 738.4,-26.5 758.71,-26.5"/>
<polygon fill="midnightblue" stroke="midnightblue" points="693.77,-23 683.77,-26.5 693.77,-30 693.77,-23"/>
</g>
</g>
</svg>
