<?xml version="1.0" encoding="UTF-8" standalone="no"?>
<!DOCTYPE svg PUBLIC "-//W3C//DTD SVG 1.1//EN"
 "http://www.w3.org/Graphics/SVG/1.1/DTD/svg11.dtd">
<!-- Generated by graphviz version 2.43.0 (0)
 -->
<!-- Title: lemons::plugin::MetaParameterBase Pages: 1 -->
<svg width="274pt" height="231pt"
 viewBox="0.00 0.00 274.00 231.00" xmlns="http://www.w3.org/2000/svg" xmlns:xlink="http://www.w3.org/1999/xlink">
<g id="graph0" class="graph" transform="scale(1 1) rotate(0) translate(4 227)">
<title>lemons::plugin::MetaParameterBase</title>
<!-- Node1 -->
<g id="node1" class="node">
<title>Node1</title>
<g id="a_node1"><a xlink:title=" ">
<polygon fill="#bfbfbf" stroke="black" points="72,-203.5 72,-222.5 266,-222.5 266,-203.5 72,-203.5"/>
<text text-anchor="middle" x="169" y="-210.5" font-family="Helvetica,sans-Serif" font-size="10.00">lemons::plugin::MetaParameterBase</text>
</a>
</g>
</g>
<!-- Node2 -->
<g id="node2" class="node">
<title>Node2</title>
<g id="a_node2"><a xlink:href="classlemons_1_1plugin_1_1_meta_parameter.html" target="_top" xlink:title=" ">
<polygon fill="none" stroke="black" points="0,-135.5 0,-165.5 170,-165.5 170,-135.5 0,-135.5"/>
<text text-anchor="start" x="8" y="-153.5" font-family="Helvetica,sans-Serif" font-size="10.00">lemons::plugin::MetaParameter</text>
<text text-anchor="middle" x="85" y="-142.5" font-family="Helvetica,sans-Serif" font-size="10.00">&lt; ValueType &gt;</text>
</a>
</g>
</g>
<!-- Node1&#45;&gt;Node2 -->
<g id="edge1" class="edge">
<title>Node1&#45;&gt;Node2</title>
<path fill="none" stroke="midnightblue" d="M148.81,-197.46C135.36,-187.77 117.78,-175.11 104.47,-165.53"/>
<polygon fill="midnightblue" stroke="midnightblue" points="146.8,-200.33 156.96,-203.33 150.9,-194.65 146.8,-200.33"/>
</g>
<!-- Node3 -->
<g id="node3" class="node">
<title>Node3</title>
<g id="a_node3"><a xlink:href="classlemons_1_1plugin_1_1_meta_parameter.html" target="_top" xlink:title=" ">
<polygon fill="none" stroke="black" points="56,-57.5 56,-87.5 226,-87.5 226,-57.5 56,-57.5"/>
<text text-anchor="start" x="64" y="-75.5" font-family="Helvetica,sans-Serif" font-size="10.00">lemons::plugin::MetaParameter</text>
<text text-anchor="middle" x="141" y="-64.5" font-family="Helvetica,sans-Serif" font-size="10.00">&lt; float &gt;</text>
</a>
</g>
</g>
<!-- Node1&#45;&gt;Node3 -->
<g id="edge4" class="edge">
<title>Node1&#45;&gt;Node3</title>
<path fill="none" stroke="midnightblue" d="M174.47,-193.48C178.35,-177.85 182.33,-154.9 179,-135 176.75,-121.55 175.79,-117.82 169,-106 165.29,-99.54 160.2,-93.17 155.39,-87.8"/>
<polygon fill="midnightblue" stroke="midnightblue" points="171.01,-192.86 171.76,-203.42 177.77,-194.69 171.01,-192.86"/>
</g>
<!-- Node2&#45;&gt;Node3 -->
<g id="edge2" class="edge">
<title>Node2&#45;&gt;Node3</title>
<path fill="none" stroke="orange" stroke-dasharray="5,2" d="M101.62,-126.94C110.98,-114.23 122.39,-98.75 130.51,-87.73"/>
<polygon fill="orange" stroke="orange" points="98.65,-125.08 95.53,-135.2 104.28,-129.23 98.65,-125.08"/>
<text text-anchor="middle" x="141" y="-109" font-family="Helvetica,sans-Serif" font-size="10.00"> &lt; float &gt;</text>
</g>
<!-- Node4 -->
<g id="node4" class="node">
<title>Node4</title>
<g id="a_node4"><a xlink:href="structlemons_1_1plugin_1_1_l_f_o.html" target="_top" xlink:title=" ">
<polygon fill="none" stroke="black" points="84.5,-0.5 84.5,-19.5 197.5,-19.5 197.5,-0.5 84.5,-0.5"/>
<text text-anchor="middle" x="141" y="-7.5" font-family="Helvetica,sans-Serif" font-size="10.00">lemons::plugin::LFO</text>
</a>
</g>
</g>
<!-- Node3&#45;&gt;Node4 -->
<g id="edge3" class="edge">
<title>Node3&#45;&gt;Node4</title>
<path fill="none" stroke="midnightblue" d="M141,-47.35C141,-37.51 141,-26.78 141,-19.54"/>
<polygon fill="midnightblue" stroke="midnightblue" points="137.5,-47.47 141,-57.47 144.5,-47.47 137.5,-47.47"/>
</g>
</g>
</svg>
