<?xml version="1.0" encoding="UTF-8" standalone="no"?>
<!DOCTYPE svg PUBLIC "-//W3C//DTD SVG 1.1//EN"
 "http://www.w3.org/Graphics/SVG/1.1/DTD/svg11.dtd">
<!-- Generated by graphviz version 2.49.1 (20210923.0004)
 -->
<!-- Title: lemons::serializing::JuceOwnedArrayInterface&lt; ElementType &gt; Pages: 1 -->
<!--zoomable 77 -->
<svg id="main" version="1.1" xmlns="http://www.w3.org/2000/svg" xmlns:xlink="http://www.w3.org/1999/xlink" xml:space="preserve" onload="init(evt)">
<style type="text/css"><![CDATA[
.edge:hover path { stroke: red; }
.edge:hover polygon { stroke: red; fill: red; }
]]></style>
<script type="text/javascript"><![CDATA[
var edges = document.getElementsByTagName('g');
if (edges && edges.length) {
  for (var i=0;i<edges.length;i++) {
    if (edges[i].id.substr(0,4)=='edge') {
      edges[i].setAttribute('class','edge');
    }
  }
}
]]></script>
        <defs>
                <circle id="rim" cx="0" cy="0" r="7"/>
                <circle id="rim2" cx="0" cy="0" r="3.5"/>
                <g id="zoomPlus">
                        <use xlink:href="#rim" fill="#404040">
                                <set attributeName="fill" to="#808080" begin="zoomplus.mouseover" end="zoomplus.mouseout"/>
                        </use>
                        <path d="M-4,0h8M0,-4v8" fill="none" stroke="white" stroke-width="1.5" pointer-events="none"/>
                </g>
                <g id="zoomMin">
                        <use xlink:href="#rim" fill="#404040">
                                <set attributeName="fill" to="#808080" begin="zoomminus.mouseover" end="zoomminus.mouseout"/>
                        </use>
                        <path d="M-4,0h8" fill="none" stroke="white" stroke-width="1.5" pointer-events="none"/>
                </g>
                <g id="dirArrow">
                        <path fill="none" stroke="white" stroke-width="1.5" d="M0,-3.0v7 M-2.5,-0.5L0,-3.0L2.5,-0.5"/>
                </g>
               <g id="resetDef">
                       <use xlink:href="#rim2" fill="#404040">
                               <set attributeName="fill" to="#808080" begin="reset.mouseover" end="reset.mouseout"/>
                       </use>
               </g>
        </defs>

<script type="text/javascript">
var viewWidth = 780;
var viewHeight = 77;
var sectionId = 'dynsection-0';
</script>
<script xlink:href="svgpan.js"/>
<svg id="graph" class="graph">
<g id="viewport">
<title>lemons::serializing::JuceOwnedArrayInterface&lt; ElementType &gt;</title>
<!-- Node1 -->
<g id="node1" class="node">
<title>Node1</title>
<g id="a_node1"><a xlink:title="Container interface that provides support for serializing juce::OwnedArrays with TreeReflector.">
<polygon fill="#bfbfbf" stroke="black" points="634,-27.5 634,-68.5 772,-68.5 772,-27.5 634,-27.5"/>
<text text-anchor="start" x="642" y="-56.5" font-family="Helvetica,sans-Serif" font-size="10.00">lemons::serializing</text>
<text text-anchor="start" x="642" y="-45.5" font-family="Helvetica,sans-Serif" font-size="10.00">::JuceOwnedArrayInterface</text>
<text text-anchor="middle" x="703" y="-34.5" font-family="Helvetica,sans-Serif" font-size="10.00">&lt; ElementType &gt;</text>
</a>
</g>
</g>
<!-- Node2 -->
<g id="node2" class="node">
<title>Node2</title>
<g id="a_node2"><a xlink:href="structlemons_1_1serializing_1_1LambdaContainerInterface.html" target="_top" xlink:title=" ">
<polygon fill="none" stroke="black" points="408,-27.5 408,-68.5 597,-68.5 597,-27.5 408,-27.5"/>
<text text-anchor="start" x="416" y="-56.5" font-family="Helvetica,sans-Serif" font-size="10.00">lemons::serializing</text>
<text text-anchor="start" x="416" y="-45.5" font-family="Helvetica,sans-Serif" font-size="10.00">::LambdaContainerInterface</text>
<text text-anchor="middle" x="502.5" y="-34.5" font-family="Helvetica,sans-Serif" font-size="10.00">&lt; juce::OwnedArray&lt; ElementType &gt; &gt;</text>
</a>
</g>
</g>
<!-- Node2&#45;&gt;Node1 -->
<g id="edge1" class="edge">
<title>Node2&#45;&gt;Node1</title>
<path fill="none" stroke="midnightblue" d="M607.37,-48C616.34,-48 625.26,-48 633.84,-48"/>
<polygon fill="midnightblue" stroke="midnightblue" points="607.23,-44.5 597.23,-48 607.23,-51.5 607.23,-44.5"/>
</g>
<!-- Node3 -->
<g id="node3" class="node">
<title>Node3</title>
<g id="a_node3"><a xlink:href="structlemons_1_1serializing_1_1ContainerInterface.html" target="_top" xlink:title="Interface that defines how a TreeReflector can resize a given container during deserialization.">
<polygon fill="none" stroke="black" points="0,-30 0,-60 104,-60 104,-30 0,-30"/>
<text text-anchor="start" x="8" y="-48" font-family="Helvetica,sans-Serif" font-size="10.00">lemons::serializing</text>
<text text-anchor="middle" x="52" y="-37" font-family="Helvetica,sans-Serif" font-size="10.00">::ContainerInterface</text>
</a>
</g>
</g>
<!-- Node3&#45;&gt;Node2 -->
<g id="edge2" class="edge">
<title>Node3&#45;&gt;Node2</title>
<path fill="none" stroke="midnightblue" d="M114.21,-49.46C123.19,-50.03 132.33,-50.57 141,-51 251.55,-56.52 279.38,-59.96 390,-56 395.82,-55.79 401.8,-55.52 407.84,-55.21"/>
<polygon fill="midnightblue" stroke="midnightblue" points="114.37,-45.97 104.17,-48.81 113.92,-52.95 114.37,-45.97"/>
</g>
<!-- Node4 -->
<g id="node4" class="node">
<title>Node4</title>
<g id="a_node4"><a xlink:href="structlemons_1_1serializing_1_1LambdaContainerInterface.html" target="_top" xlink:title="Provides a slightly slicker interface to ContainerInterface, allowing you to supply a lambda function...">
<polygon fill="none" stroke="black" points="141,-0.5 141,-41.5 281,-41.5 281,-0.5 141,-0.5"/>
<text text-anchor="start" x="149" y="-29.5" font-family="Helvetica,sans-Serif" font-size="10.00">lemons::serializing</text>
<text text-anchor="start" x="149" y="-18.5" font-family="Helvetica,sans-Serif" font-size="10.00">::LambdaContainerInterface</text>
<text text-anchor="middle" x="211" y="-7.5" font-family="Helvetica,sans-Serif" font-size="10.00">&lt; ContainerType &gt;</text>
</a>
</g>
</g>
<!-- Node3&#45;&gt;Node4 -->
<g id="edge4" class="edge">
<title>Node3&#45;&gt;Node4</title>
<path fill="none" stroke="midnightblue" d="M114.4,-35.61C123.06,-34.29 132,-32.92 140.79,-31.58"/>
<polygon fill="midnightblue" stroke="midnightblue" points="113.76,-32.17 104.41,-37.14 114.82,-39.09 113.76,-32.17"/>
</g>
<!-- Node4&#45;&gt;Node2 -->
<g id="edge3" class="edge">
<title>Node4&#45;&gt;Node2</title>
<path fill="none" stroke="orange" stroke-dasharray="5,2" d="M291.63,-25.93C322.39,-28.06 357.87,-30.81 390,-34 395.82,-34.58 401.81,-35.21 407.85,-35.88"/>
<polygon fill="orange" stroke="orange" points="291.6,-22.42 281.39,-25.23 291.13,-29.4 291.6,-22.42"/>
<text text-anchor="start" x="299" y="-48" font-family="Helvetica,sans-Serif" font-size="10.00"> &lt; juce::OwnedArray</text>
<text text-anchor="middle" x="344.5" y="-37" font-family="Helvetica,sans-Serif" font-size="10.00">&lt; ElementType &gt; &gt;</text>
</g>
</g>
</svg>
        <g id="navigator" transform="translate(0 0)" fill="#404254">
                <rect fill="#f2f5e9" fill-opacity="0.5" stroke="#606060" stroke-width=".5" x="0" y="0" width="60" height="60"/>
                <use id="zoomplus" xlink:href="#zoomPlus" x="17" y="9" onmousedown="handleZoom(evt,'in')"/>
                <use id="zoomminus" xlink:href="#zoomMin" x="42" y="9" onmousedown="handleZoom(evt,'out')"/>
                <use id="reset" xlink:href="#resetDef" x="30" y="36" onmousedown="handleReset()"/>
                <g id="arrowUp" xlink:href="#dirArrow" transform="translate(30 24)" onmousedown="handlePan(0,-1)">
                  <use xlink:href="#rim" fill="#404040">
                        <set attributeName="fill" to="#808080" begin="arrowUp.mouseover" end="arrowUp.mouseout"/>
                  </use>
                  <path fill="none" stroke="white" stroke-width="1.5" d="M0,-3.0v7 M-2.5,-0.5L0,-3.0L2.5,-0.5"/>
                </g>
                <g id="arrowRight" xlink:href="#dirArrow" transform="rotate(90) translate(36 -43)" onmousedown="handlePan(1,0)">
                  <use xlink:href="#rim" fill="#404040">
                        <set attributeName="fill" to="#808080" begin="arrowRight.mouseover" end="arrowRight.mouseout"/>
                  </use>
                  <path fill="none" stroke="white" stroke-width="1.5" d="M0,-3.0v7 M-2.5,-0.5L0,-3.0L2.5,-0.5"/>
                </g>
                <g id="arrowDown" xlink:href="#dirArrow" transform="rotate(180) translate(-30 -48)" onmousedown="handlePan(0,1)">
                  <use xlink:href="#rim" fill="#404040">
                        <set attributeName="fill" to="#808080" begin="arrowDown.mouseover" end="arrowDown.mouseout"/>
                  </use>
                  <path fill="none" stroke="white" stroke-width="1.5" d="M0,-3.0v7 M-2.5,-0.5L0,-3.0L2.5,-0.5"/>
                </g>
                <g id="arrowLeft" xlink:href="#dirArrow" transform="rotate(270) translate(-36 17)" onmousedown="handlePan(-1,0)">
                  <use xlink:href="#rim" fill="#404040">
                        <set attributeName="fill" to="#808080" begin="arrowLeft.mouseover" end="arrowLeft.mouseout"/>
                  </use>
                  <path fill="none" stroke="white" stroke-width="1.5" d="M0,-3.0v7 M-2.5,-0.5L0,-3.0L2.5,-0.5"/>
                </g>
        </g>
        <svg viewBox="0 0 15 15" width="100%" height="30px" preserveAspectRatio="xMaxYMin meet">
         <g id="arrow_out" transform="scale(0.3 0.3)">
          <a xlink:href="structlemons_1_1serializing_1_1JuceOwnedArrayInterface__inherit__graph_org.svg" target="_base">
           <rect id="button" ry="5" rx="5" y="6" x="6" height="38" width="38"
                fill="#f2f5e9" fill-opacity="0.5" stroke="#606060" stroke-width="1.0"/>
           <path id="arrow"
             d="M 11.500037,31.436501 C 11.940474,20.09759 22.043105,11.32322 32.158766,21.979434 L 37.068811,17.246167 C 37.068811,17.246167 37.088388,32 37.088388,32 L 22.160133,31.978069 C 22.160133,31.978069 26.997745,27.140456 26.997745,27.140456 C 18.528582,18.264221 13.291696,25.230495 11.500037,31.436501 z"
             style="fill:#404040;"/>
          </a>
         </g>
        </svg>
</svg>
