<?xml version="1.0" encoding="UTF-8" standalone="no"?>
<!DOCTYPE svg PUBLIC "-//W3C//DTD SVG 1.1//EN"
 "http://www.w3.org/Graphics/SVG/1.1/DTD/svg11.dtd">
<!-- Generated by graphviz version 2.50.0 (20211204.2007)
 -->
<!-- Title: lemons::dsp::FX::AudioEffect&lt; SampleType &gt; Pages: 1 -->
<svg width="1128pt" height="388pt"
 viewBox="0.00 0.00 1128.00 387.83" xmlns="http://www.w3.org/2000/svg" xmlns:xlink="http://www.w3.org/1999/xlink">
<g id="graph0" class="graph" transform="scale(1 1) rotate(0) translate(4 383.83)">
<title>lemons::dsp::FX::AudioEffect&lt; SampleType &gt;</title>
<!-- Node1 -->
<g id="node1" class="node">
<title>Node1</title>
<g id="a_node1"><a xlink:title="Base class for any kind of audio effect.">
<polygon fill="#bfbfbf" stroke="black" points="0,-184.5 0,-214.5 146,-214.5 146,-184.5 0,-184.5"/>
<text text-anchor="start" x="8" y="-202.5" font-family="Helvetica,sans-Serif" font-size="10.00">lemons::dsp::FX::AudioEffect</text>
<text text-anchor="middle" x="73" y="-191.5" font-family="Helvetica,sans-Serif" font-size="10.00">&lt; SampleType &gt;</text>
</a>
</g>
</g>
<!-- Node2 -->
<g id="node2" class="node">
<title>Node2</title>
<g id="a_node2"><a xlink:href="classlemons_1_1dsp_1_1_f_x_1_1_smoothed_gain.html" target="_top" xlink:title=" ">
<polygon fill="none" stroke="black" points="510.5,-345.5 510.5,-375.5 649.5,-375.5 649.5,-345.5 510.5,-345.5"/>
<text text-anchor="start" x="518.5" y="-363.5" font-family="Helvetica,sans-Serif" font-size="10.00">lemons::dsp::FX::Smoothed</text>
<text text-anchor="middle" x="580" y="-352.5" font-family="Helvetica,sans-Serif" font-size="10.00">Gain&lt; SampleType, 1 &gt;</text>
</a>
</g>
</g>
<!-- Node1&#45;&gt;Node2 -->
<g id="edge1" class="edge">
<title>Node1&#45;&gt;Node2</title>
<path fill="none" stroke="midnightblue" d="M89.19,-223.53C112.74,-258.32 161.7,-321.39 222,-347.5 315.48,-387.97 435.97,-381.86 510.32,-372.28"/>
<polygon fill="midnightblue" stroke="midnightblue" points="91.93,-221.33 83.49,-214.93 86.09,-225.2 91.93,-221.33"/>
</g>
<!-- Node3 -->
<g id="node3" class="node">
<title>Node3</title>
<g id="a_node3"><a xlink:href="classlemons_1_1dsp_1_1_f_x_1_1_e_q.html" target="_top" xlink:title="An equalizer effect class.">
<polygon fill="none" stroke="black" points="245,-160.5 245,-190.5 354,-190.5 354,-160.5 245,-160.5"/>
<text text-anchor="start" x="253" y="-178.5" font-family="Helvetica,sans-Serif" font-size="10.00">lemons::dsp::FX::EQ</text>
<text text-anchor="middle" x="299.5" y="-167.5" font-family="Helvetica,sans-Serif" font-size="10.00">&lt; SampleType &gt;</text>
</a>
</g>
</g>
<!-- Node1&#45;&gt;Node3 -->
<g id="edge2" class="edge">
<title>Node1&#45;&gt;Node3</title>
<path fill="none" stroke="midnightblue" d="M156.56,-190.67C186.04,-187.52 218.47,-184.06 244.88,-181.23"/>
<polygon fill="midnightblue" stroke="midnightblue" points="155.84,-187.23 146.27,-191.77 156.58,-194.19 155.84,-187.23"/>
</g>
<!-- Node4 -->
<g id="node4" class="node">
<title>Node4</title>
<g id="a_node4"><a xlink:href="classlemons_1_1dsp_1_1_f_x_1_1_filter.html" target="_top" xlink:title="A filter audio effect class that wraps the more low&#45;level filters::Filter.">
<polygon fill="none" stroke="black" points="241.5,-111.5 241.5,-141.5 357.5,-141.5 357.5,-111.5 241.5,-111.5"/>
<text text-anchor="start" x="249.5" y="-129.5" font-family="Helvetica,sans-Serif" font-size="10.00">lemons::dsp::FX::Filter</text>
<text text-anchor="middle" x="299.5" y="-118.5" font-family="Helvetica,sans-Serif" font-size="10.00">&lt; SampleType &gt;</text>
</a>
</g>
</g>
<!-- Node1&#45;&gt;Node4 -->
<g id="edge3" class="edge">
<title>Node1&#45;&gt;Node4</title>
<path fill="none" stroke="midnightblue" d="M130.06,-181.27C167.76,-169.01 216.86,-153.05 252.32,-141.52"/>
<polygon fill="midnightblue" stroke="midnightblue" points="128.67,-178.04 120.24,-184.46 130.84,-184.7 128.67,-178.04"/>
</g>
<!-- Node5 -->
<g id="node5" class="node">
<title>Node5</title>
<g id="a_node5"><a xlink:href="classlemons_1_1dsp_1_1_f_x_1_1_saturator.html" target="_top" xlink:title=" ">
<polygon fill="none" stroke="black" points="232.5,-62.5 232.5,-92.5 366.5,-92.5 366.5,-62.5 232.5,-62.5"/>
<text text-anchor="start" x="240.5" y="-80.5" font-family="Helvetica,sans-Serif" font-size="10.00">lemons::dsp::FX::Saturator</text>
<text text-anchor="middle" x="299.5" y="-69.5" font-family="Helvetica,sans-Serif" font-size="10.00">&lt; SampleType &gt;</text>
</a>
</g>
</g>
<!-- Node1&#45;&gt;Node5 -->
<g id="edge4" class="edge">
<title>Node1&#45;&gt;Node5</title>
<path fill="none" stroke="#8b1a1a" d="M101.92,-177.95C130.72,-156.53 177.58,-123.85 222,-102.5 229.56,-98.87 237.77,-95.57 245.92,-92.64"/>
<polygon fill="#8b1a1a" stroke="#8b1a1a" points="99.47,-175.41 93.58,-184.22 103.68,-181.01 99.47,-175.41"/>
</g>
<!-- Node6 -->
<g id="node6" class="node">
<title>Node6</title>
<g id="a_node6"><a xlink:href="structlemons_1_1dsp_1_1_f_x_1_1_sidechainable_audio_effect.html" target="_top" xlink:title="Base class for audio effects that accept a sidechain signal.">
<polygon fill="none" stroke="black" points="222,-209.5 222,-239.5 377,-239.5 377,-209.5 222,-209.5"/>
<text text-anchor="start" x="230" y="-227.5" font-family="Helvetica,sans-Serif" font-size="10.00">lemons::dsp::FX::Sidechainable</text>
<text text-anchor="middle" x="299.5" y="-216.5" font-family="Helvetica,sans-Serif" font-size="10.00">AudioEffect&lt; SampleType &gt;</text>
</a>
</g>
</g>
<!-- Node1&#45;&gt;Node6 -->
<g id="edge5" class="edge">
<title>Node1&#45;&gt;Node6</title>
<path fill="none" stroke="midnightblue" d="M156.3,-208.66C177.68,-211.05 200.63,-213.6 221.72,-215.95"/>
<polygon fill="midnightblue" stroke="midnightblue" points="156.59,-205.18 146.27,-207.55 155.82,-212.13 156.59,-205.18"/>
</g>
<!-- Node16 -->
<g id="node16" class="node">
<title>Node16</title>
<g id="a_node16"><a xlink:href="classlemons_1_1dsp_1_1_f_x_1_1_smoothed_gain.html" target="_top" xlink:title="A handy effect class that allows you to change the gain of a stream of audio, and will smooth the cha...">
<polygon fill="none" stroke="black" points="222.5,-307.5 222.5,-337.5 376.5,-337.5 376.5,-307.5 222.5,-307.5"/>
<text text-anchor="start" x="230.5" y="-325.5" font-family="Helvetica,sans-Serif" font-size="10.00">lemons::dsp::FX::Smoothed</text>
<text text-anchor="middle" x="299.5" y="-314.5" font-family="Helvetica,sans-Serif" font-size="10.00">Gain&lt; SampleType, channels &gt;</text>
</a>
</g>
</g>
<!-- Node1&#45;&gt;Node16 -->
<g id="edge17" class="edge">
<title>Node1&#45;&gt;Node16</title>
<path fill="none" stroke="midnightblue" d="M100.94,-220.99C129.56,-242.96 176.83,-276.86 222,-298.5 228.9,-301.81 236.37,-304.8 243.84,-307.46"/>
<polygon fill="midnightblue" stroke="midnightblue" points="103.07,-218.21 93.03,-214.85 98.78,-223.74 103.07,-218.21"/>
</g>
<!-- Node18 -->
<g id="node18" class="node">
<title>Node18</title>
<g id="a_node18"><a xlink:href="classlemons_1_1dsp_1_1_f_x_1_1_stereo_panner.html" target="_top" xlink:title=" ">
<polygon fill="none" stroke="black" points="222.5,-13.5 222.5,-43.5 376.5,-43.5 376.5,-13.5 222.5,-13.5"/>
<text text-anchor="start" x="230.5" y="-31.5" font-family="Helvetica,sans-Serif" font-size="10.00">lemons::dsp::FX::StereoPanner</text>
<text text-anchor="middle" x="299.5" y="-20.5" font-family="Helvetica,sans-Serif" font-size="10.00">&lt; SampleType &gt;</text>
</a>
</g>
</g>
<!-- Node1&#45;&gt;Node18 -->
<g id="edge20" class="edge">
<title>Node1&#45;&gt;Node18</title>
<path fill="none" stroke="midnightblue" d="M91.44,-176.3C116.77,-144.18 166.78,-86.4 222,-53.5 228.36,-49.71 235.37,-46.42 242.48,-43.58"/>
<polygon fill="midnightblue" stroke="midnightblue" points="88.62,-174.22 85.25,-184.26 94.15,-178.51 88.62,-174.22"/>
</g>
<!-- Node19 -->
<g id="node19" class="node">
<title>Node19</title>
<g id="a_node19"><a xlink:href="structlemons_1_1dsp_1_1_f_x_1_1_audio_effect.html" target="_top" xlink:title=" ">
<polygon fill="none" stroke="black" points="226.5,-258.5 226.5,-288.5 372.5,-288.5 372.5,-258.5 226.5,-258.5"/>
<text text-anchor="start" x="234.5" y="-276.5" font-family="Helvetica,sans-Serif" font-size="10.00">lemons::dsp::FX::AudioEffect</text>
<text text-anchor="middle" x="299.5" y="-265.5" font-family="Helvetica,sans-Serif" font-size="10.00">&lt; float &gt;</text>
</a>
</g>
</g>
<!-- Node1&#45;&gt;Node19 -->
<g id="edge21" class="edge">
<title>Node1&#45;&gt;Node19</title>
<path fill="none" stroke="orange" stroke-dasharray="5,2" d="M127.27,-217.81C155.39,-227.4 190.51,-239.24 222,-249.5 231,-252.43 240.62,-255.5 249.89,-258.42"/>
<polygon fill="orange" stroke="orange" points="128.22,-214.44 117.63,-214.52 125.96,-221.06 128.22,-214.44"/>
<text text-anchor="middle" x="184" y="-245.5" font-family="Helvetica,sans-Serif" font-size="10.00"> &lt; float &gt;</text>
</g>
<!-- Node7 -->
<g id="node7" class="node">
<title>Node7</title>
<g id="a_node7"><a xlink:href="structlemons_1_1dsp_1_1_f_x_1_1_level_reporting_audio_effect.html" target="_top" xlink:title="Base class for audio effects that can report their level or gain reduction.">
<polygon fill="none" stroke="black" points="500,-147.5 500,-177.5 660,-177.5 660,-147.5 500,-147.5"/>
<text text-anchor="start" x="508" y="-165.5" font-family="Helvetica,sans-Serif" font-size="10.00">lemons::dsp::FX::LevelReporting</text>
<text text-anchor="middle" x="580" y="-154.5" font-family="Helvetica,sans-Serif" font-size="10.00">AudioEffect&lt; SampleType &gt;</text>
</a>
</g>
</g>
<!-- Node6&#45;&gt;Node7 -->
<g id="edge6" class="edge">
<title>Node6&#45;&gt;Node7</title>
<path fill="none" stroke="midnightblue" d="M377.8,-207.29C419.67,-197.97 470.94,-186.56 511.24,-177.59"/>
<polygon fill="midnightblue" stroke="midnightblue" points="376.92,-203.9 367.92,-209.49 378.44,-210.73 376.92,-203.9"/>
</g>
<!-- Node15 -->
<g id="node15" class="node">
<title>Node15</title>
<g id="a_node15"><a xlink:href="structlemons_1_1dsp_1_1_f_x_1_1_sidechainable_audio_effect.html" target="_top" xlink:title=" ">
<polygon fill="none" stroke="black" points="502.5,-235.5 502.5,-265.5 657.5,-265.5 657.5,-235.5 502.5,-235.5"/>
<text text-anchor="start" x="510.5" y="-253.5" font-family="Helvetica,sans-Serif" font-size="10.00">lemons::dsp::FX::Sidechainable</text>
<text text-anchor="middle" x="580" y="-242.5" font-family="Helvetica,sans-Serif" font-size="10.00">AudioEffect&lt; float &gt;</text>
</a>
</g>
</g>
<!-- Node6&#45;&gt;Node15 -->
<g id="edge15" class="edge">
<title>Node6&#45;&gt;Node15</title>
<path fill="none" stroke="orange" stroke-dasharray="5,2" d="M387.56,-232.63C424.35,-236.06 466.83,-240.03 502.41,-243.35"/>
<polygon fill="orange" stroke="orange" points="387.62,-229.12 377.34,-231.67 386.97,-236.09 387.62,-229.12"/>
<text text-anchor="middle" x="438.5" y="-243.5" font-family="Helvetica,sans-Serif" font-size="10.00"> &lt; float &gt;</text>
</g>
<!-- Node8 -->
<g id="node8" class="node">
<title>Node8</title>
<g id="a_node8"><a xlink:href="classlemons_1_1dsp_1_1_f_x_1_1_compressor.html" target="_top" xlink:title="A simple compressor effect class that allows you to optionally sidechain the signal.">
<polygon fill="none" stroke="black" points="742,-98.5 742,-128.5 890,-128.5 890,-98.5 742,-98.5"/>
<text text-anchor="start" x="750" y="-116.5" font-family="Helvetica,sans-Serif" font-size="10.00">lemons::dsp::FX::Compressor</text>
<text text-anchor="middle" x="816" y="-105.5" font-family="Helvetica,sans-Serif" font-size="10.00">&lt; SampleType &gt;</text>
</a>
</g>
</g>
<!-- Node7&#45;&gt;Node8 -->
<g id="edge7" class="edge">
<title>Node7&#45;&gt;Node8</title>
<path fill="none" stroke="midnightblue" d="M662.72,-145.39C688.98,-139.89 717.86,-133.84 743.34,-128.51"/>
<polygon fill="midnightblue" stroke="midnightblue" points="661.87,-141.99 652.8,-147.47 663.3,-148.84 661.87,-141.99"/>
</g>
<!-- Node10 -->
<g id="node10" class="node">
<title>Node10</title>
<g id="a_node10"><a xlink:href="classlemons_1_1dsp_1_1_f_x_1_1_de_esser.html" target="_top" xlink:title="A basic &quot;de&#45;esser&quot; effect class.">
<polygon fill="none" stroke="black" points="749.5,-0.5 749.5,-30.5 882.5,-30.5 882.5,-0.5 749.5,-0.5"/>
<text text-anchor="start" x="757.5" y="-18.5" font-family="Helvetica,sans-Serif" font-size="10.00">lemons::dsp::FX::DeEsser</text>
<text text-anchor="middle" x="816" y="-7.5" font-family="Helvetica,sans-Serif" font-size="10.00">&lt; SampleType &gt;</text>
</a>
</g>
</g>
<!-- Node7&#45;&gt;Node10 -->
<g id="edge9" class="edge">
<title>Node7&#45;&gt;Node10</title>
<path fill="none" stroke="midnightblue" d="M603.29,-140.25C631.78,-112.94 683.72,-66.91 736,-39.5 742.35,-36.17 749.23,-33.23 756.19,-30.65"/>
<polygon fill="midnightblue" stroke="midnightblue" points="600.63,-137.95 595.89,-147.42 605.51,-142.97 600.63,-137.95"/>
</g>
<!-- Node11 -->
<g id="node11" class="node">
<title>Node11</title>
<g id="a_node11"><a xlink:href="classlemons_1_1dsp_1_1_f_x_1_1_delay.html" target="_top" xlink:title=" ">
<polygon fill="none" stroke="black" points="756,-196.5 756,-226.5 876,-226.5 876,-196.5 756,-196.5"/>
<text text-anchor="start" x="764" y="-214.5" font-family="Helvetica,sans-Serif" font-size="10.00">lemons::dsp::FX::Delay</text>
<text text-anchor="middle" x="816" y="-203.5" font-family="Helvetica,sans-Serif" font-size="10.00">&lt; SampleType &gt;</text>
</a>
</g>
</g>
<!-- Node7&#45;&gt;Node11 -->
<g id="edge10" class="edge">
<title>Node7&#45;&gt;Node11</title>
<path fill="none" stroke="midnightblue" d="M662.63,-179.59C693.34,-186.02 727.64,-193.21 755.91,-199.13"/>
<polygon fill="midnightblue" stroke="midnightblue" points="663.3,-176.16 652.8,-177.53 661.87,-183.01 663.3,-176.16"/>
</g>
<!-- Node12 -->
<g id="node12" class="node">
<title>Node12</title>
<g id="a_node12"><a xlink:href="classlemons_1_1dsp_1_1_f_x_1_1_limiter.html" target="_top" xlink:title="A simple limiter effect class that allows you to optionally sidechain the signal.">
<polygon fill="none" stroke="black" points="754,-147.5 754,-177.5 878,-177.5 878,-147.5 754,-147.5"/>
<text text-anchor="start" x="762" y="-165.5" font-family="Helvetica,sans-Serif" font-size="10.00">lemons::dsp::FX::Limiter</text>
<text text-anchor="middle" x="816" y="-154.5" font-family="Helvetica,sans-Serif" font-size="10.00">&lt; SampleType &gt;</text>
</a>
</g>
</g>
<!-- Node7&#45;&gt;Node12 -->
<g id="edge11" class="edge">
<title>Node7&#45;&gt;Node12</title>
<path fill="none" stroke="midnightblue" d="M670.4,-162.5C698.33,-162.5 728.48,-162.5 753.99,-162.5"/>
<polygon fill="midnightblue" stroke="midnightblue" points="670.22,-159 660.22,-162.5 670.22,-166 670.22,-159"/>
</g>
<!-- Node13 -->
<g id="node13" class="node">
<title>Node13</title>
<g id="a_node13"><a xlink:href="classlemons_1_1dsp_1_1_f_x_1_1_noise_gate.html" target="_top" xlink:title="A simple noise gate effect class that allows you to optionally sidechain the signal.">
<polygon fill="none" stroke="black" points="745.5,-49.5 745.5,-79.5 886.5,-79.5 886.5,-49.5 745.5,-49.5"/>
<text text-anchor="start" x="753.5" y="-67.5" font-family="Helvetica,sans-Serif" font-size="10.00">lemons::dsp::FX::NoiseGate</text>
<text text-anchor="middle" x="816" y="-56.5" font-family="Helvetica,sans-Serif" font-size="10.00">&lt; SampleType &gt;</text>
</a>
</g>
</g>
<!-- Node7&#45;&gt;Node13 -->
<g id="edge12" class="edge">
<title>Node7&#45;&gt;Node13</title>
<path fill="none" stroke="midnightblue" d="M619.06,-142.82C650.06,-127.23 695.21,-105.48 736,-89.5 744.97,-85.98 754.66,-82.6 764.08,-79.51"/>
<polygon fill="midnightblue" stroke="midnightblue" points="617.26,-139.82 609.91,-147.45 620.42,-146.06 617.26,-139.82"/>
</g>
<!-- Node14 -->
<g id="node14" class="node">
<title>Node14</title>
<g id="a_node14"><a xlink:href="structlemons_1_1dsp_1_1_f_x_1_1_level_reporting_audio_effect.html" target="_top" xlink:title=" ">
<polygon fill="none" stroke="black" points="736,-245.5 736,-275.5 896,-275.5 896,-245.5 736,-245.5"/>
<text text-anchor="start" x="744" y="-263.5" font-family="Helvetica,sans-Serif" font-size="10.00">lemons::dsp::FX::LevelReporting</text>
<text text-anchor="middle" x="816" y="-252.5" font-family="Helvetica,sans-Serif" font-size="10.00">AudioEffect&lt; float &gt;</text>
</a>
</g>
</g>
<!-- Node7&#45;&gt;Node14 -->
<g id="edge13" class="edge">
<title>Node7&#45;&gt;Node14</title>
<path fill="none" stroke="orange" stroke-dasharray="5,2" d="M618.41,-182.32C649.37,-198.24 694.81,-220.52 736,-236.5 744.15,-239.66 752.9,-242.68 761.51,-245.44"/>
<polygon fill="orange" stroke="orange" points="619.77,-179.08 609.28,-177.59 616.55,-185.3 619.77,-179.08"/>
<text text-anchor="middle" x="698" y="-230.5" font-family="Helvetica,sans-Serif" font-size="10.00"> &lt; float &gt;</text>
</g>
<!-- Node9 -->
<g id="node9" class="node">
<title>Node9</title>
<g id="a_node9"><a xlink:href="classlemons_1_1dsp_1_1_f_x_1_1_compressor.html" target="_top" xlink:title=" ">
<polygon fill="none" stroke="black" points="972,-171.5 972,-201.5 1120,-201.5 1120,-171.5 972,-171.5"/>
<text text-anchor="start" x="980" y="-189.5" font-family="Helvetica,sans-Serif" font-size="10.00">lemons::dsp::FX::Compressor</text>
<text text-anchor="middle" x="1046" y="-178.5" font-family="Helvetica,sans-Serif" font-size="10.00">&lt; float &gt;</text>
</a>
</g>
</g>
<!-- Node8&#45;&gt;Node9 -->
<g id="edge8" class="edge">
<title>Node8&#45;&gt;Node9</title>
<path fill="none" stroke="orange" stroke-dasharray="5,2" d="M874.45,-131.64C881.71,-133.95 889.03,-136.27 896,-138.5 930.3,-149.45 969.01,-161.93 998.38,-171.41"/>
<polygon fill="orange" stroke="orange" points="875.23,-128.22 864.64,-128.53 873.11,-134.89 875.23,-128.22"/>
<text text-anchor="middle" x="934" y="-159.5" font-family="Helvetica,sans-Serif" font-size="10.00"> &lt; float &gt;</text>
</g>
<!-- Node14&#45;&gt;Node9 -->
<g id="edge14" class="edge">
<title>Node14&#45;&gt;Node9</title>
<path fill="none" stroke="midnightblue" d="M877.17,-242.42C883.54,-240.45 889.91,-238.45 896,-236.5 931.48,-225.16 971.48,-211.7 1001.1,-201.6"/>
<polygon fill="midnightblue" stroke="midnightblue" points="875.75,-239.19 867.22,-245.48 877.8,-245.88 875.75,-239.19"/>
</g>
<!-- Node15&#45;&gt;Node14 -->
<g id="edge16" class="edge">
<title>Node15&#45;&gt;Node14</title>
<path fill="none" stroke="midnightblue" d="M667.74,-254.21C690.04,-255.16 713.91,-256.18 735.8,-257.12"/>
<polygon fill="midnightblue" stroke="midnightblue" points="667.76,-250.7 657.62,-253.77 667.46,-257.7 667.76,-250.7"/>
</g>
<!-- Node16&#45;&gt;Node2 -->
<g id="edge18" class="edge">
<title>Node16&#45;&gt;Node2</title>
<path fill="none" stroke="orange" stroke-dasharray="5,2" d="M386.66,-331.43C416.86,-334.83 450.98,-338.99 482,-343.5 491.22,-344.84 500.91,-346.38 510.46,-347.97"/>
<polygon fill="orange" stroke="orange" points="386.9,-327.93 376.57,-330.3 386.12,-334.89 386.9,-327.93"/>
<text text-anchor="middle" x="438.5" y="-346.5" font-family="Helvetica,sans-Serif" font-size="10.00"> &lt; SampleType, 1 &gt;</text>
</g>
<!-- Node17 -->
<g id="node17" class="node">
<title>Node17</title>
<g id="a_node17"><a xlink:href="classlemons_1_1dsp_1_1_f_x_1_1_smoothed_gain.html" target="_top" xlink:title=" ">
<polygon fill="none" stroke="black" points="510.5,-288.5 510.5,-318.5 649.5,-318.5 649.5,-288.5 510.5,-288.5"/>
<text text-anchor="start" x="518.5" y="-306.5" font-family="Helvetica,sans-Serif" font-size="10.00">lemons::dsp::FX::Smoothed</text>
<text text-anchor="middle" x="580" y="-295.5" font-family="Helvetica,sans-Serif" font-size="10.00">Gain&lt; float, 2 &gt;</text>
</a>
</g>
</g>
<!-- Node16&#45;&gt;Node17 -->
<g id="edge19" class="edge">
<title>Node16&#45;&gt;Node17</title>
<path fill="none" stroke="orange" stroke-dasharray="5,2" d="M386.7,-310.26C389.5,-309.99 392.27,-309.73 395,-309.5 433.06,-306.27 475.68,-304.75 510.31,-304.04"/>
<polygon fill="orange" stroke="orange" points="386.08,-306.81 376.5,-311.34 386.81,-313.77 386.08,-306.81"/>
<text text-anchor="middle" x="438.5" y="-312.5" font-family="Helvetica,sans-Serif" font-size="10.00"> &lt; float, 2 &gt;</text>
</g>
<!-- Node19&#45;&gt;Node15 -->
<g id="edge22" class="edge">
<title>Node19&#45;&gt;Node15</title>
<path fill="none" stroke="midnightblue" d="M382.92,-265.56C387.01,-265.19 391.05,-264.84 395,-264.5 430.27,-261.48 469.38,-258.46 502.43,-256"/>
<polygon fill="midnightblue" stroke="midnightblue" points="382.36,-262.09 372.72,-266.48 382.99,-269.06 382.36,-262.09"/>
</g>
<!-- Node19&#45;&gt;Node17 -->
<g id="edge23" class="edge">
<title>Node19&#45;&gt;Node17</title>
<path fill="none" stroke="midnightblue" d="M382.71,-282.36C423.23,-286.72 471.54,-291.92 510.1,-296.08"/>
<polygon fill="midnightblue" stroke="midnightblue" points="382.9,-278.86 372.58,-281.26 382.15,-285.82 382.9,-278.86"/>
</g>
</g>
</svg>
