<?xml version="1.0" encoding="UTF-8" standalone="no"?>
<!DOCTYPE svg PUBLIC "-//W3C//DTD SVG 1.1//EN"
 "http://www.w3.org/Graphics/SVG/1.1/DTD/svg11.dtd">
<!-- Generated by graphviz version 2.50.0 (20211204.2007)
 -->
<!-- Title: lemons::plugin::GainMeterParameter Pages: 1 -->
<svg width="1146pt" height="102pt"
 viewBox="0.00 0.00 1146.00 101.88" xmlns="http://www.w3.org/2000/svg" xmlns:xlink="http://www.w3.org/1999/xlink">
<g id="graph0" class="graph" transform="scale(1 1) rotate(0) translate(4 97.88)">
<title>lemons::plugin::GainMeterParameter</title>
<!-- Node1 -->
<g id="node1" class="node">
<title>Node1</title>
<g id="a_node1"><a xlink:title="A parameter that represents a meter displaying values in decibels.">
<polygon fill="#bfbfbf" stroke="black" points="1007,-24.5 1007,-54.5 1138,-54.5 1138,-24.5 1007,-24.5"/>
<text text-anchor="start" x="1015" y="-42.5" font-family="Helvetica,sans-Serif" font-size="10.00">lemons::plugin::GainMeter</text>
<text text-anchor="middle" x="1072.5" y="-31.5" font-family="Helvetica,sans-Serif" font-size="10.00">Parameter</text>
</a>
</g>
</g>
<!-- Node2 -->
<g id="node2" class="node">
<title>Node2</title>
<g id="a_node2"><a xlink:href="structlemons_1_1plugin_1_1_meter_parameter.html" target="_top" xlink:title=" ">
<polygon fill="none" stroke="black" points="815,-24.5 815,-54.5 970,-54.5 970,-24.5 815,-24.5"/>
<text text-anchor="start" x="823" y="-42.5" font-family="Helvetica,sans-Serif" font-size="10.00">lemons::plugin::MeterParameter</text>
<text text-anchor="middle" x="892.5" y="-31.5" font-family="Helvetica,sans-Serif" font-size="10.00">&lt; float &gt;</text>
</a>
</g>
</g>
<!-- Node2&#45;&gt;Node1 -->
<g id="edge1" class="edge">
<title>Node2&#45;&gt;Node1</title>
<path fill="none" stroke="midnightblue" d="M980.12,-39.5C989.1,-39.5 998.11,-39.5 1006.78,-39.5"/>
<polygon fill="midnightblue" stroke="midnightblue" points="980.02,-36 970.02,-39.5 980.02,-43 980.02,-36"/>
</g>
<!-- Node3 -->
<g id="node3" class="node">
<title>Node3</title>
<g id="a_node3"><a xlink:href="classlemons_1_1plugin_1_1_typed_parameter.html" target="_top" xlink:title=" ">
<polygon fill="none" stroke="black" points="582,-49.5 582,-79.5 739,-79.5 739,-49.5 582,-49.5"/>
<text text-anchor="start" x="590" y="-67.5" font-family="Helvetica,sans-Serif" font-size="10.00">lemons::plugin::TypedParameter</text>
<text text-anchor="middle" x="660.5" y="-56.5" font-family="Helvetica,sans-Serif" font-size="10.00">&lt; float &gt;</text>
</a>
</g>
</g>
<!-- Node3&#45;&gt;Node2 -->
<g id="edge2" class="edge">
<title>Node3&#45;&gt;Node2</title>
<path fill="none" stroke="midnightblue" d="M749.18,-54.97C770.74,-52.63 793.67,-50.13 814.68,-47.85"/>
<polygon fill="midnightblue" stroke="midnightblue" points="748.61,-51.51 739.05,-56.07 749.37,-58.47 748.61,-51.51"/>
</g>
<!-- Node4 -->
<g id="node4" class="node">
<title>Node4</title>
<g id="a_node4"><a xlink:href="classlemons_1_1plugin_1_1_parameter.html" target="_top" xlink:title="A plugin parameter class.">
<polygon fill="none" stroke="black" points="181,-55 181,-74 312,-74 312,-55 181,-55"/>
<text text-anchor="middle" x="246.5" y="-62" font-family="Helvetica,sans-Serif" font-size="10.00">lemons::plugin::Parameter</text>
</a>
</g>
</g>
<!-- Node4&#45;&gt;Node3 -->
<g id="edge3" class="edge">
<title>Node4&#45;&gt;Node3</title>
<path fill="none" stroke="midnightblue" d="M289.32,-76.7C307.49,-81.39 329.12,-86.18 349,-88.5 418.31,-96.58 436.43,-93.87 506,-88.5 532.01,-86.49 538.23,-83.52 564,-79.5 569.8,-78.59 575.81,-77.66 581.84,-76.71"/>
<polygon fill="midnightblue" stroke="midnightblue" points="290.18,-73.3 279.61,-74.11 288.38,-80.07 290.18,-73.3"/>
</g>
<!-- Node6 -->
<g id="node6" class="node">
<title>Node6</title>
<g id="a_node6"><a xlink:href="classlemons_1_1plugin_1_1_typed_parameter.html" target="_top" xlink:title="A parameter that can be stored as a type other than a float, but still inherits from my Parameter bas...">
<polygon fill="none" stroke="black" points="349,-49.5 349,-79.5 506,-79.5 506,-49.5 349,-49.5"/>
<text text-anchor="start" x="357" y="-67.5" font-family="Helvetica,sans-Serif" font-size="10.00">lemons::plugin::TypedParameter</text>
<text text-anchor="middle" x="427.5" y="-56.5" font-family="Helvetica,sans-Serif" font-size="10.00">&lt; ValueType &gt;</text>
</a>
</g>
</g>
<!-- Node4&#45;&gt;Node6 -->
<g id="edge6" class="edge">
<title>Node4&#45;&gt;Node6</title>
<path fill="none" stroke="midnightblue" d="M322.31,-64.5C331.08,-64.5 340.04,-64.5 348.85,-64.5"/>
<polygon fill="midnightblue" stroke="midnightblue" points="322.12,-61 312.12,-64.5 322.12,-68 322.12,-61"/>
</g>
<!-- Node8 -->
<g id="node8" class="node">
<title>Node8</title>
<g id="a_node8"><a xlink:href="classlemons_1_1plugin_1_1_typed_parameter.html" target="_top" xlink:title="A parameter that can be stored as a type other than a float, but still inherits from my Parameter bas...">
<polygon fill="none" stroke="black" points="349,-0.5 349,-30.5 506,-30.5 506,-0.5 349,-0.5"/>
<text text-anchor="start" x="357" y="-18.5" font-family="Helvetica,sans-Serif" font-size="10.00">lemons::plugin::TypedParameter</text>
<text text-anchor="middle" x="427.5" y="-7.5" font-family="Helvetica,sans-Serif" font-size="10.00">&lt; ValueType &gt;</text>
</a>
</g>
</g>
<!-- Node4&#45;&gt;Node8 -->
<g id="edge9" class="edge">
<title>Node4&#45;&gt;Node8</title>
<path fill="none" stroke="midnightblue" d="M292.35,-52.22C316.37,-45.65 346.17,-37.49 371.57,-30.54"/>
<polygon fill="midnightblue" stroke="midnightblue" points="291.16,-48.92 282.44,-54.94 293.01,-55.67 291.16,-48.92"/>
</g>
<!-- Node5 -->
<g id="node5" class="node">
<title>Node5</title>
<g id="a_node5"><a xlink:title=" ">
<polygon fill="none" stroke="#bfbfbf" points="0,-55 0,-74 144,-74 144,-55 0,-55"/>
<text text-anchor="middle" x="72" y="-62" font-family="Helvetica,sans-Serif" font-size="10.00">juce::RangedAudioParameter</text>
</a>
</g>
</g>
<!-- Node5&#45;&gt;Node4 -->
<g id="edge4" class="edge">
<title>Node5&#45;&gt;Node4</title>
<path fill="none" stroke="midnightblue" d="M154.2,-64.5C163.15,-64.5 172.16,-64.5 180.86,-64.5"/>
<polygon fill="midnightblue" stroke="midnightblue" points="154.16,-61 144.16,-64.5 154.16,-68 154.16,-61"/>
</g>
<!-- Node6&#45;&gt;Node3 -->
<g id="edge5" class="edge">
<title>Node6&#45;&gt;Node3</title>
<path fill="none" stroke="orange" stroke-dasharray="5,2" d="M516.19,-64.5C537.75,-64.5 560.69,-64.5 581.75,-64.5"/>
<polygon fill="orange" stroke="orange" points="516.06,-61 506.06,-64.5 516.06,-68 516.06,-61"/>
<text text-anchor="middle" x="544" y="-67.5" font-family="Helvetica,sans-Serif" font-size="10.00"> &lt; float &gt;</text>
</g>
<!-- Node7 -->
<g id="node7" class="node">
<title>Node7</title>
<g id="a_node7"><a xlink:href="structlemons_1_1plugin_1_1_meter_parameter.html" target="_top" xlink:title="A parameter that represents a general kind of meter, used for reporting things like level or gain red...">
<polygon fill="none" stroke="black" points="583,-0.5 583,-30.5 738,-30.5 738,-0.5 583,-0.5"/>
<text text-anchor="start" x="591" y="-18.5" font-family="Helvetica,sans-Serif" font-size="10.00">lemons::plugin::MeterParameter</text>
<text text-anchor="middle" x="660.5" y="-7.5" font-family="Helvetica,sans-Serif" font-size="10.00">&lt; ValueType &gt;</text>
</a>
</g>
</g>
<!-- Node7&#45;&gt;Node2 -->
<g id="edge7" class="edge">
<title>Node7&#45;&gt;Node2</title>
<path fill="none" stroke="orange" stroke-dasharray="5,2" d="M748.06,-24.53C770.01,-26.82 793.43,-29.27 814.86,-31.5"/>
<polygon fill="orange" stroke="orange" points="748.4,-21.05 738.09,-23.49 747.67,-28.01 748.4,-21.05"/>
<text text-anchor="middle" x="777" y="-32.5" font-family="Helvetica,sans-Serif" font-size="10.00"> &lt; float &gt;</text>
</g>
<!-- Node8&#45;&gt;Node7 -->
<g id="edge8" class="edge">
<title>Node8&#45;&gt;Node7</title>
<path fill="none" stroke="midnightblue" d="M516.36,-15.5C538.27,-15.5 561.6,-15.5 582.93,-15.5"/>
<polygon fill="midnightblue" stroke="midnightblue" points="516.06,-12 506.06,-15.5 516.06,-19 516.06,-12"/>
</g>
</g>
</svg>
