<?xml version="1.0" encoding="UTF-8" standalone="no"?>
<!DOCTYPE svg PUBLIC "-//W3C//DTD SVG 1.1//EN"
 "http://www.w3.org/Graphics/SVG/1.1/DTD/svg11.dtd">
<!-- Generated by graphviz version 2.49.1 (20210923.0004)
 -->
<!-- Title: lemons::plugin::FloatAmountParameter Pages: 1 -->
<svg width="151pt" height="207pt"
 viewBox="0.00 0.00 151.00 207.00" xmlns="http://www.w3.org/2000/svg" xmlns:xlink="http://www.w3.org/1999/xlink">
<g id="graph0" class="graph" transform="scale(1 1) rotate(0) translate(4 203)">
<title>lemons::plugin::FloatAmountParameter</title>
<!-- Node1 -->
<g id="node1" class="node">
<title>Node1</title>
<g id="a_node1"><a xlink:title="A parameter that represents a value in a normalized 0&#45;1 range.">
<polygon fill="#bfbfbf" stroke="black" points="0,-0.5 0,-30.5 143,-30.5 143,-0.5 0,-0.5"/>
<text text-anchor="start" x="8" y="-18.5" font-family="Helvetica,sans-Serif" font-size="10.00">lemons::plugin::FloatAmount</text>
<text text-anchor="middle" x="71.5" y="-7.5" font-family="Helvetica,sans-Serif" font-size="10.00">Parameter</text>
</a>
</g>
</g>
<!-- Node2 -->
<g id="node2" class="node">
<title>Node2</title>
<g id="a_node2"><a xlink:href="classlemons_1_1plugin_1_1TypedParameter.html" target="_top" xlink:title="A parameter that can be stored as a type other than a float, but still inherits from my Parameter bas...">
<polygon fill="none" stroke="black" points="29,-67.5 29,-86.5 114,-86.5 114,-67.5 29,-67.5"/>
<text text-anchor="middle" x="71.5" y="-74.5" font-family="Helvetica,sans-Serif" font-size="10.00">FloatParameter</text>
</a>
</g>
</g>
<!-- Node2&#45;&gt;Node1 -->
<g id="edge1" class="edge">
<title>Node2&#45;&gt;Node1</title>
<path fill="none" stroke="midnightblue" d="M71.5,-57.23C71.5,-48.59 71.5,-38.5 71.5,-30.52"/>
<polygon fill="midnightblue" stroke="midnightblue" points="68,-57.48 71.5,-67.48 75,-57.48 68,-57.48"/>
</g>
<!-- Node3 -->
<g id="node3" class="node">
<title>Node3</title>
<g id="a_node3"><a xlink:href="classlemons_1_1plugin_1_1Parameter.html" target="_top" xlink:title="A plugin parameter class that allows you to use my Serializing API, and has a few other cool bells an...">
<polygon fill="none" stroke="black" points="5,-123.5 5,-142.5 138,-142.5 138,-123.5 5,-123.5"/>
<text text-anchor="middle" x="71.5" y="-130.5" font-family="Helvetica,sans-Serif" font-size="10.00">lemons::plugin::Parameter</text>
</a>
</g>
</g>
<!-- Node3&#45;&gt;Node2 -->
<g id="edge2" class="edge">
<title>Node3&#45;&gt;Node2</title>
<path fill="none" stroke="midnightblue" d="M71.5,-112.8C71.5,-103.91 71.5,-93.78 71.5,-86.75"/>
<polygon fill="midnightblue" stroke="midnightblue" points="68,-113.08 71.5,-123.08 75,-113.08 68,-113.08"/>
</g>
<!-- Node4 -->
<g id="node4" class="node">
<title>Node4</title>
<g id="a_node4"><a xlink:href="structlemons_1_1SerializableData.html" target="_top" xlink:title="Base class for any C++ object that needs to be serialized to binary and back.">
<polygon fill="none" stroke="black" points="8,-179.5 8,-198.5 135,-198.5 135,-179.5 8,-179.5"/>
<text text-anchor="middle" x="71.5" y="-186.5" font-family="Helvetica,sans-Serif" font-size="10.00">lemons::SerializableData</text>
</a>
</g>
</g>
<!-- Node4&#45;&gt;Node3 -->
<g id="edge3" class="edge">
<title>Node4&#45;&gt;Node3</title>
<path fill="none" stroke="midnightblue" d="M71.5,-168.8C71.5,-159.91 71.5,-149.78 71.5,-142.75"/>
<polygon fill="midnightblue" stroke="midnightblue" points="68,-169.08 71.5,-179.08 75,-169.08 68,-169.08"/>
</g>
</g>
</svg>
