<?xml version="1.0" encoding="UTF-8" standalone="no"?>
<!DOCTYPE svg PUBLIC "-//W3C//DTD SVG 1.1//EN"
 "http://www.w3.org/Graphics/SVG/1.1/DTD/svg11.dtd">
<!-- Generated by graphviz version 2.43.0 (0)
 -->
<!-- Title: lemons::plugin::PercentParameter Pages: 1 -->
<svg width="190pt" height="140pt"
 viewBox="0.00 0.00 190.00 140.00" xmlns="http://www.w3.org/2000/svg" xmlns:xlink="http://www.w3.org/1999/xlink">
<g id="graph0" class="graph" transform="scale(1 1) rotate(0) translate(4 136)">
<title>lemons::plugin::PercentParameter</title>
<!-- Node1 -->
<g id="node1" class="node">
<title>Node1</title>
<g id="a_node1"><a xlink:title="A parameter that represents an integer value in the range 0&#45;100.">
<polygon fill="#bfbfbf" stroke="black" points="0,-0.5 0,-19.5 182,-19.5 182,-0.5 0,-0.5"/>
<text text-anchor="middle" x="91" y="-7.5" font-family="Helvetica,sans-Serif" font-size="10.00">lemons::plugin::PercentParameter</text>
</a>
</g>
</g>
<!-- Node2 -->
<g id="node2" class="node">
<title>Node2</title>
<g id="a_node2"><a xlink:href="classlemons_1_1plugin_1_1_typed_parameter.html" target="_top" xlink:title="A parameter that can be stored as a type other than a float, but still inherits from my Parameter bas...">
<polygon fill="none" stroke="black" points="51,-56.5 51,-75.5 131,-75.5 131,-56.5 51,-56.5"/>
<text text-anchor="middle" x="91" y="-63.5" font-family="Helvetica,sans-Serif" font-size="10.00">IntParameter</text>
</a>
</g>
</g>
<!-- Node2&#45;&gt;Node1 -->
<g id="edge1" class="edge">
<title>Node2&#45;&gt;Node1</title>
<path fill="none" stroke="midnightblue" d="M91,-45.8C91,-36.91 91,-26.78 91,-19.75"/>
<polygon fill="midnightblue" stroke="midnightblue" points="87.5,-46.08 91,-56.08 94.5,-46.08 87.5,-46.08"/>
</g>
<!-- Node3 -->
<g id="node3" class="node">
<title>Node3</title>
<g id="a_node3"><a xlink:href="classlemons_1_1plugin_1_1_parameter.html" target="_top" xlink:title="A plugin parameter class.">
<polygon fill="none" stroke="black" points="18.5,-112.5 18.5,-131.5 163.5,-131.5 163.5,-112.5 18.5,-112.5"/>
<text text-anchor="middle" x="91" y="-119.5" font-family="Helvetica,sans-Serif" font-size="10.00">lemons::plugin::Parameter</text>
</a>
</g>
</g>
<!-- Node3&#45;&gt;Node2 -->
<g id="edge2" class="edge">
<title>Node3&#45;&gt;Node2</title>
<path fill="none" stroke="midnightblue" d="M91,-101.8C91,-92.91 91,-82.78 91,-75.75"/>
<polygon fill="midnightblue" stroke="midnightblue" points="87.5,-102.08 91,-112.08 94.5,-102.08 87.5,-102.08"/>
</g>
</g>
</svg>
