<?xml version="1.0" encoding="UTF-8" standalone="no"?>
<!DOCTYPE svg PUBLIC "-//W3C//DTD SVG 1.1//EN"
 "http://www.w3.org/Graphics/SVG/1.1/DTD/svg11.dtd">
<!-- Generated by graphviz version 2.49.1 (20210923.0004)
 -->
<!-- Title: lemons::serializing::MapInterfaceBase Pages: 1 -->
<svg width="677pt" height="75pt"
 viewBox="0.00 0.00 677.00 75.00" xmlns="http://www.w3.org/2000/svg" xmlns:xlink="http://www.w3.org/1999/xlink">
<g id="graph0" class="graph" transform="scale(1 1) rotate(0) translate(4 71)">
<title>lemons::serializing::MapInterfaceBase</title>
<!-- Node1 -->
<g id="node1" class="node">
<title>Node1</title>
<g id="a_node1"><a xlink:title=" ">
<polygon fill="#bfbfbf" stroke="black" points="0,-30 0,-60 103,-60 103,-30 0,-30"/>
<text text-anchor="start" x="8" y="-48" font-family="Helvetica,sans-Serif" font-size="10.00">lemons::serializing</text>
<text text-anchor="middle" x="51.5" y="-37" font-family="Helvetica,sans-Serif" font-size="10.00">::MapInterfaceBase</text>
</a>
</g>
</g>
<!-- Node2 -->
<g id="node2" class="node">
<title>Node2</title>
<g id="a_node2"><a xlink:href="structlemons_1_1serializing_1_1MapInterface.html" target="_top" xlink:title=" ">
<polygon fill="none" stroke="black" points="385,-25.5 385,-66.5 503,-66.5 503,-25.5 385,-25.5"/>
<text text-anchor="start" x="393" y="-54.5" font-family="Helvetica,sans-Serif" font-size="10.00">lemons::serializing</text>
<text text-anchor="start" x="393" y="-43.5" font-family="Helvetica,sans-Serif" font-size="10.00">::MapInterface&lt; String,</text>
<text text-anchor="middle" x="444" y="-32.5" font-family="Helvetica,sans-Serif" font-size="10.00"> String &gt;</text>
</a>
</g>
</g>
<!-- Node1&#45;&gt;Node2 -->
<g id="edge1" class="edge">
<title>Node1&#45;&gt;Node2</title>
<path fill="none" stroke="midnightblue" d="M113.35,-49.66C122.28,-50.2 131.38,-50.68 140,-51 240.82,-54.79 266.19,-55.97 367,-52 372.82,-51.77 378.88,-51.44 384.94,-51.06"/>
<polygon fill="midnightblue" stroke="midnightblue" points="113.57,-46.17 103.37,-49.02 113.12,-53.15 113.57,-46.17"/>
</g>
<!-- Node4 -->
<g id="node4" class="node">
<title>Node4</title>
<g id="a_node4"><a xlink:href="structlemons_1_1serializing_1_1MapInterface.html" target="_top" xlink:title=" ">
<polygon fill="none" stroke="black" points="140,-0.5 140,-41.5 271,-41.5 271,-0.5 140,-0.5"/>
<text text-anchor="start" x="148" y="-29.5" font-family="Helvetica,sans-Serif" font-size="10.00">lemons::serializing</text>
<text text-anchor="start" x="148" y="-18.5" font-family="Helvetica,sans-Serif" font-size="10.00">::MapInterface&lt; KeyType,</text>
<text text-anchor="middle" x="205.5" y="-7.5" font-family="Helvetica,sans-Serif" font-size="10.00"> ValueType &gt;</text>
</a>
</g>
</g>
<!-- Node1&#45;&gt;Node4 -->
<g id="edge3" class="edge">
<title>Node1&#45;&gt;Node4</title>
<path fill="none" stroke="midnightblue" d="M113.21,-35.41C121.95,-34.03 130.97,-32.61 139.78,-31.22"/>
<polygon fill="midnightblue" stroke="midnightblue" points="112.45,-31.99 103.11,-37.01 113.54,-38.91 112.45,-31.99"/>
</g>
<!-- Node3 -->
<g id="node3" class="node">
<title>Node3</title>
<g id="a_node3"><a xlink:href="structlemons_1_1serializing_1_1StringPairArrayInterface.html" target="_top" xlink:title=" ">
<polygon fill="none" stroke="black" points="540,-31 540,-61 669,-61 669,-31 540,-31"/>
<text text-anchor="start" x="548" y="-49" font-family="Helvetica,sans-Serif" font-size="10.00">lemons::serializing</text>
<text text-anchor="middle" x="604.5" y="-38" font-family="Helvetica,sans-Serif" font-size="10.00">::StringPairArrayInterface</text>
</a>
</g>
</g>
<!-- Node2&#45;&gt;Node3 -->
<g id="edge2" class="edge">
<title>Node2&#45;&gt;Node3</title>
<path fill="none" stroke="midnightblue" d="M513.32,-46C522.1,-46 531.07,-46 539.78,-46"/>
<polygon fill="midnightblue" stroke="midnightblue" points="513.12,-42.5 503.12,-46 513.12,-49.5 513.12,-42.5"/>
</g>
<!-- Node4&#45;&gt;Node2 -->
<g id="edge4" class="edge">
<title>Node4&#45;&gt;Node2</title>
<path fill="none" stroke="orange" stroke-dasharray="5,2" d="M281.33,-28.91C314.81,-32.45 353.68,-36.56 384.92,-39.86"/>
<polygon fill="orange" stroke="orange" points="281.44,-25.4 271.12,-27.83 280.7,-32.36 281.44,-25.4"/>
<text text-anchor="middle" x="328" y="-40" font-family="Helvetica,sans-Serif" font-size="10.00"> &lt; String, String &gt;</text>
</g>
</g>
</svg>
