<?xml version="1.0" encoding="UTF-8" standalone="no"?>
<!DOCTYPE svg PUBLIC "-//W3C//DTD SVG 1.1//EN"
 "http://www.w3.org/Graphics/SVG/1.1/DTD/svg11.dtd">
<!-- Generated by graphviz version 2.43.0 (0)
 -->
<!-- Title: lemons::plugin::TypedParameter&lt; ValueType &gt;::LambdaListener Pages: 1 -->
<svg width="181pt" height="173pt"
 viewBox="0.00 0.00 181.00 173.00" xmlns="http://www.w3.org/2000/svg" xmlns:xlink="http://www.w3.org/1999/xlink">
<g id="graph0" class="graph" transform="scale(1 1) rotate(0) translate(4 169)">
<title>lemons::plugin::TypedParameter&lt; ValueType &gt;::LambdaListener</title>
<!-- Node1 -->
<g id="node1" class="node">
<title>Node1</title>
<g id="a_node1"><a xlink:title="A listener that fires lambdas for each callback.">
<polygon fill="#bfbfbf" stroke="black" points="0,-0.5 0,-30.5 173,-30.5 173,-0.5 0,-0.5"/>
<text text-anchor="start" x="8" y="-18.5" font-family="Helvetica,sans-Serif" font-size="10.00">lemons::plugin::TypedParameter</text>
<text text-anchor="middle" x="86.5" y="-7.5" font-family="Helvetica,sans-Serif" font-size="10.00">&lt; ValueType &gt;::LambdaListener</text>
</a>
</g>
</g>
<!-- Node2 -->
<g id="node2" class="node">
<title>Node2</title>
<g id="a_node2"><a xlink:href="structlemons_1_1plugin_1_1_typed_parameter_1_1_listener.html" target="_top" xlink:title="A class that will recieve updates when aspects of a TypedParameter change.">
<polygon fill="none" stroke="black" points="0,-67.5 0,-97.5 173,-97.5 173,-67.5 0,-67.5"/>
<text text-anchor="start" x="8" y="-85.5" font-family="Helvetica,sans-Serif" font-size="10.00">lemons::plugin::TypedParameter</text>
<text text-anchor="middle" x="86.5" y="-74.5" font-family="Helvetica,sans-Serif" font-size="10.00">&lt; ValueType &gt;::Listener</text>
</a>
</g>
</g>
<!-- Node2&#45;&gt;Node1 -->
<g id="edge1" class="edge">
<title>Node2&#45;&gt;Node1</title>
<path fill="none" stroke="midnightblue" d="M86.5,-57.11C86.5,-48.15 86.5,-38.32 86.5,-30.58"/>
<polygon fill="midnightblue" stroke="midnightblue" points="83,-57.4 86.5,-67.4 90,-57.4 83,-57.4"/>
</g>
<!-- Node3 -->
<g id="node3" class="node">
<title>Node3</title>
<g id="a_node3"><a xlink:href="structlemons_1_1plugin_1_1_parameter_1_1_listener.html" target="_top" xlink:title="A Listener class that will be notified when aspects of a Parameter change.">
<polygon fill="none" stroke="black" points="14,-134.5 14,-164.5 159,-164.5 159,-134.5 14,-134.5"/>
<text text-anchor="start" x="22" y="-152.5" font-family="Helvetica,sans-Serif" font-size="10.00">lemons::plugin::Parameter</text>
<text text-anchor="middle" x="86.5" y="-141.5" font-family="Helvetica,sans-Serif" font-size="10.00">::Listener</text>
</a>
</g>
</g>
<!-- Node3&#45;&gt;Node2 -->
<g id="edge2" class="edge">
<title>Node3&#45;&gt;Node2</title>
<path fill="none" stroke="midnightblue" d="M86.5,-124.11C86.5,-115.15 86.5,-105.32 86.5,-97.58"/>
<polygon fill="midnightblue" stroke="midnightblue" points="83,-124.4 86.5,-134.4 90,-124.4 83,-124.4"/>
</g>
</g>
</svg>
