<?xml version="1.0" encoding="UTF-8" standalone="no"?>
<!DOCTYPE svg PUBLIC "-//W3C//DTD SVG 1.1//EN"
 "http://www.w3.org/Graphics/SVG/1.1/DTD/svg11.dtd">
<!-- Generated by graphviz version 2.43.0 (0)
 -->
<!-- Title: lemons::serializing::StringPairArrayInterface Pages: 1 -->
<svg width="729pt" height="80pt"
 viewBox="0.00 0.00 729.00 80.00" xmlns="http://www.w3.org/2000/svg" xmlns:xlink="http://www.w3.org/1999/xlink">
<g id="graph0" class="graph" transform="scale(1 1) rotate(0) translate(4 76)">
<title>lemons::serializing::StringPairArrayInterface</title>
<!-- Node1 -->
<g id="node1" class="node">
<title>Node1</title>
<g id="a_node1"><a xlink:title=" ">
<polygon fill="#bfbfbf" stroke="black" points="582,-36 582,-66 721,-66 721,-36 582,-36"/>
<text text-anchor="start" x="590" y="-54" font-family="Helvetica,sans-Serif" font-size="10.00">lemons::serializing</text>
<text text-anchor="middle" x="651.5" y="-43" font-family="Helvetica,sans-Serif" font-size="10.00">::StringPairArrayInterface</text>
</a>
</g>
</g>
<!-- Node2 -->
<g id="node2" class="node">
<title>Node2</title>
<g id="a_node2"><a xlink:href="structlemons_1_1serializing_1_1MapInterface.html" target="_top" xlink:title=" ">
<polygon fill="none" stroke="black" points="415,-30.5 415,-71.5 545,-71.5 545,-30.5 415,-30.5"/>
<text text-anchor="start" x="423" y="-59.5" font-family="Helvetica,sans-Serif" font-size="10.00">lemons::serializing</text>
<text text-anchor="start" x="423" y="-48.5" font-family="Helvetica,sans-Serif" font-size="10.00">::MapInterface&lt; String,</text>
<text text-anchor="middle" x="480" y="-37.5" font-family="Helvetica,sans-Serif" font-size="10.00"> String &gt;</text>
</a>
</g>
</g>
<!-- Node2&#45;&gt;Node1 -->
<g id="edge1" class="edge">
<title>Node2&#45;&gt;Node1</title>
<path fill="none" stroke="midnightblue" d="M555.32,-51C564.13,-51 573.08,-51 581.8,-51"/>
<polygon fill="midnightblue" stroke="midnightblue" points="555.08,-47.5 545.08,-51 555.08,-54.5 555.08,-47.5"/>
</g>
<!-- Node3 -->
<g id="node3" class="node">
<title>Node3</title>
<g id="a_node3"><a xlink:href="structlemons_1_1serializing_1_1MapInterfaceBase.html" target="_top" xlink:title=" ">
<polygon fill="none" stroke="black" points="0,-30 0,-60 111,-60 111,-30 0,-30"/>
<text text-anchor="start" x="8" y="-48" font-family="Helvetica,sans-Serif" font-size="10.00">lemons::serializing</text>
<text text-anchor="middle" x="55.5" y="-37" font-family="Helvetica,sans-Serif" font-size="10.00">::MapInterfaceBase</text>
</a>
</g>
</g>
<!-- Node3&#45;&gt;Node2 -->
<g id="edge2" class="edge">
<title>Node3&#45;&gt;Node2</title>
<path fill="none" stroke="midnightblue" d="M121.22,-49.52C130.21,-50.07 139.34,-50.58 148,-51 258.56,-56.35 286.36,-59.37 397,-56 402.7,-55.83 408.62,-55.58 414.56,-55.3"/>
<polygon fill="midnightblue" stroke="midnightblue" points="121.36,-46.02 111.16,-48.89 120.92,-53.01 121.36,-46.02"/>
</g>
<!-- Node4 -->
<g id="node4" class="node">
<title>Node4</title>
<g id="a_node4"><a xlink:href="structlemons_1_1serializing_1_1MapInterface.html" target="_top" xlink:title=" ">
<polygon fill="none" stroke="black" points="148,-0.5 148,-41.5 290,-41.5 290,-0.5 148,-0.5"/>
<text text-anchor="start" x="156" y="-29.5" font-family="Helvetica,sans-Serif" font-size="10.00">lemons::serializing</text>
<text text-anchor="start" x="156" y="-18.5" font-family="Helvetica,sans-Serif" font-size="10.00">::MapInterface&lt; KeyType,</text>
<text text-anchor="middle" x="219" y="-7.5" font-family="Helvetica,sans-Serif" font-size="10.00"> ValueType &gt;</text>
</a>
</g>
</g>
<!-- Node3&#45;&gt;Node4 -->
<g id="edge4" class="edge">
<title>Node3&#45;&gt;Node4</title>
<path fill="none" stroke="midnightblue" d="M121.31,-35.37C130.06,-34.07 139.08,-32.73 147.92,-31.41"/>
<polygon fill="midnightblue" stroke="midnightblue" points="120.55,-31.94 111.18,-36.87 121.58,-38.87 120.55,-31.94"/>
</g>
<!-- Node4&#45;&gt;Node2 -->
<g id="edge3" class="edge">
<title>Node4&#45;&gt;Node2</title>
<path fill="none" stroke="orange" stroke-dasharray="5,2" d="M300.28,-30.3C337.05,-34.56 380.03,-39.54 414.63,-43.54"/>
<polygon fill="orange" stroke="orange" points="300.43,-26.79 290.09,-29.12 299.62,-33.75 300.43,-26.79"/>
<text text-anchor="middle" x="352.5" y="-44" font-family="Helvetica,sans-Serif" font-size="10.00"> &lt; String, String &gt;</text>
</g>
</g>
</svg>
