<?xml version="1.0" encoding="UTF-8" standalone="no"?>
<!DOCTYPE svg PUBLIC "-//W3C//DTD SVG 1.1//EN"
 "http://www.w3.org/Graphics/SVG/1.1/DTD/svg11.dtd">
<!-- Generated by graphviz version 2.43.0 (0)
 -->
<!-- Title: lemons::plugin::DefaultMetaParameter Pages: 1 -->
<svg width="370pt" height="320pt"
 viewBox="0.00 0.00 369.50 320.00" xmlns="http://www.w3.org/2000/svg" xmlns:xlink="http://www.w3.org/1999/xlink">
<g id="graph0" class="graph" transform="scale(1 1) rotate(0) translate(4 316)">
<title>lemons::plugin::DefaultMetaParameter</title>
<!-- Node1 -->
<g id="node1" class="node">
<title>Node1</title>
<g id="a_node1"><a xlink:title=" ">
<polygon fill="#bfbfbf" stroke="black" points="103,-0.5 103,-30.5 258,-30.5 258,-0.5 103,-0.5"/>
<text text-anchor="start" x="111" y="-18.5" font-family="Helvetica,sans-Serif" font-size="10.00">lemons::plugin::DefaultMeta</text>
<text text-anchor="middle" x="180.5" y="-7.5" font-family="Helvetica,sans-Serif" font-size="10.00">Parameter</text>
</a>
</g>
</g>
<!-- Node2 -->
<g id="node2" class="node">
<title>Node2</title>
<g id="a_node2"><a xlink:href="classlemons_1_1plugin_1_1_meta_parameter.html" target="_top" xlink:title=" ">
<polygon fill="none" stroke="black" points="95.5,-68.5 95.5,-98.5 265.5,-98.5 265.5,-68.5 95.5,-68.5"/>
<text text-anchor="start" x="103.5" y="-86.5" font-family="Helvetica,sans-Serif" font-size="10.00">lemons::plugin::MetaParameter</text>
<text text-anchor="middle" x="180.5" y="-75.5" font-family="Helvetica,sans-Serif" font-size="10.00">&lt; int &gt;</text>
</a>
</g>
</g>
<!-- Node2&#45;&gt;Node1 -->
<g id="edge1" class="edge">
<title>Node2&#45;&gt;Node1</title>
<path fill="none" stroke="midnightblue" d="M180.5,-58.03C180.5,-48.86 180.5,-38.74 180.5,-30.79"/>
<polygon fill="midnightblue" stroke="midnightblue" points="177,-58.18 180.5,-68.18 184,-58.18 177,-58.18"/>
</g>
<!-- Node3 -->
<g id="node3" class="node">
<title>Node3</title>
<g id="a_node3"><a xlink:href="classlemons_1_1plugin_1_1_typed_parameter.html" target="_top" xlink:title=" ">
<polygon fill="none" stroke="black" points="0,-146.5 0,-176.5 173,-176.5 173,-146.5 0,-146.5"/>
<text text-anchor="start" x="8" y="-164.5" font-family="Helvetica,sans-Serif" font-size="10.00">lemons::plugin::TypedParameter</text>
<text text-anchor="middle" x="86.5" y="-153.5" font-family="Helvetica,sans-Serif" font-size="10.00">&lt; int &gt;</text>
</a>
</g>
</g>
<!-- Node3&#45;&gt;Node2 -->
<g id="edge2" class="edge">
<title>Node3&#45;&gt;Node2</title>
<path fill="none" stroke="midnightblue" d="M112.16,-139.75C128.26,-126.73 148.61,-110.28 162.9,-98.73"/>
<polygon fill="midnightblue" stroke="midnightblue" points="109.76,-137.2 104.18,-146.2 114.16,-142.64 109.76,-137.2"/>
</g>
<!-- Node4 -->
<g id="node4" class="node">
<title>Node4</title>
<g id="a_node4"><a xlink:href="classlemons_1_1plugin_1_1_parameter.html" target="_top" xlink:title="A plugin parameter class that allows you to use my Serializing API, and has a few other cool bells an...">
<polygon fill="none" stroke="black" points="26,-292.5 26,-311.5 171,-311.5 171,-292.5 26,-292.5"/>
<text text-anchor="middle" x="98.5" y="-299.5" font-family="Helvetica,sans-Serif" font-size="10.00">lemons::plugin::Parameter</text>
</a>
</g>
</g>
<!-- Node4&#45;&gt;Node3 -->
<g id="edge3" class="edge">
<title>Node4&#45;&gt;Node3</title>
<path fill="none" stroke="midnightblue" d="M96.88,-282.25C94.44,-254.19 89.91,-201.88 87.73,-176.73"/>
<polygon fill="midnightblue" stroke="midnightblue" points="93.4,-282.68 97.75,-292.34 100.37,-282.07 93.4,-282.68"/>
</g>
<!-- Node5 -->
<g id="node5" class="node">
<title>Node5</title>
<g id="a_node5"><a xlink:href="classlemons_1_1plugin_1_1_typed_parameter.html" target="_top" xlink:title="A parameter that can be stored as a type other than a float, but still inherits from my Parameter bas...">
<polygon fill="none" stroke="black" points="115,-224.5 115,-254.5 288,-254.5 288,-224.5 115,-224.5"/>
<text text-anchor="start" x="123" y="-242.5" font-family="Helvetica,sans-Serif" font-size="10.00">lemons::plugin::TypedParameter</text>
<text text-anchor="middle" x="201.5" y="-231.5" font-family="Helvetica,sans-Serif" font-size="10.00">&lt; ValueType &gt;</text>
</a>
</g>
</g>
<!-- Node4&#45;&gt;Node5 -->
<g id="edge5" class="edge">
<title>Node4&#45;&gt;Node5</title>
<path fill="none" stroke="midnightblue" d="M122.32,-287.01C138.93,-277.25 161,-264.29 177.62,-254.53"/>
<polygon fill="midnightblue" stroke="midnightblue" points="120.11,-284.25 113.26,-292.33 123.65,-290.28 120.11,-284.25"/>
</g>
<!-- Node5&#45;&gt;Node3 -->
<g id="edge4" class="edge">
<title>Node5&#45;&gt;Node3</title>
<path fill="none" stroke="orange" stroke-dasharray="5,2" d="M171.67,-218.79C151.63,-205.55 125.71,-188.41 107.75,-176.54"/>
<polygon fill="orange" stroke="orange" points="169.87,-221.79 180.14,-224.38 173.73,-215.95 169.87,-221.79"/>
<text text-anchor="middle" x="171" y="-198" font-family="Helvetica,sans-Serif" font-size="10.00"> &lt; int &gt;</text>
</g>
<!-- Node6 -->
<g id="node6" class="node">
<title>Node6</title>
<g id="a_node6"><a xlink:href="classlemons_1_1plugin_1_1_meta_parameter.html" target="_top" xlink:title=" ">
<polygon fill="none" stroke="black" points="191.5,-146.5 191.5,-176.5 361.5,-176.5 361.5,-146.5 191.5,-146.5"/>
<text text-anchor="start" x="199.5" y="-164.5" font-family="Helvetica,sans-Serif" font-size="10.00">lemons::plugin::MetaParameter</text>
<text text-anchor="middle" x="276.5" y="-153.5" font-family="Helvetica,sans-Serif" font-size="10.00">&lt; ValueType &gt;</text>
</a>
</g>
</g>
<!-- Node5&#45;&gt;Node6 -->
<g id="edge7" class="edge">
<title>Node5&#45;&gt;Node6</title>
<path fill="none" stroke="midnightblue" d="M222.68,-217.03C235.42,-204.13 251.26,-188.07 262.46,-176.73"/>
<polygon fill="midnightblue" stroke="midnightblue" points="220.14,-214.63 215.61,-224.2 225.12,-219.55 220.14,-214.63"/>
</g>
<!-- Node6&#45;&gt;Node2 -->
<g id="edge6" class="edge">
<title>Node6&#45;&gt;Node2</title>
<path fill="none" stroke="orange" stroke-dasharray="5,2" d="M250.29,-139.75C233.85,-126.73 213.07,-110.28 198.48,-98.73"/>
<polygon fill="orange" stroke="orange" points="248.43,-142.74 258.44,-146.2 252.78,-137.25 248.43,-142.74"/>
<text text-anchor="middle" x="253" y="-120" font-family="Helvetica,sans-Serif" font-size="10.00"> &lt; int &gt;</text>
</g>
</g>
</svg>
