<?xml version="1.0" encoding="UTF-8" standalone="no"?>
<!DOCTYPE svg PUBLIC "-//W3C//DTD SVG 1.1//EN"
 "http://www.w3.org/Graphics/SVG/1.1/DTD/svg11.dtd">
<!-- Generated by graphviz version 2.49.3 (20211023.0002)
 -->
<!-- Title: lemons::plugin::TypedProcessorEngine&lt; SampleType, ProcessorType, &gt; Pages: 1 -->
<svg width="201pt" height="173pt"
 viewBox="0.00 0.00 201.00 173.00" xmlns="http://www.w3.org/2000/svg" xmlns:xlink="http://www.w3.org/1999/xlink">
<g id="graph0" class="graph" transform="scale(1 1) rotate(0) translate(4 169)">
<title>lemons::plugin::TypedProcessorEngine&lt; SampleType, ProcessorType, &gt;</title>
<!-- Node1 -->
<g id="node1" class="node">
<title>Node1</title>
<g id="a_node1"><a xlink:title="A ProcessorEngine that instantiates a custom subclass of AudioProcessor and automatically creates a P...">
<polygon fill="#bfbfbf" stroke="black" points="0,-0.5 0,-30.5 193,-30.5 193,-0.5 0,-0.5"/>
<text text-anchor="start" x="8" y="-18.5" font-family="Helvetica,sans-Serif" font-size="10.00">lemons::plugin::TypedProcessor</text>
<text text-anchor="middle" x="96.5" y="-7.5" font-family="Helvetica,sans-Serif" font-size="10.00">Engine&lt; SampleType, ProcessorType, &gt;</text>
</a>
</g>
</g>
<!-- Node2 -->
<g id="node2" class="node">
<title>Node2</title>
<g id="a_node2"><a xlink:href="classlemons_1_1plugin_1_1_processor_engine.html" target="_top" xlink:title="A kind of dsp::Engine that holds a ProcessorHolder.">
<polygon fill="none" stroke="black" points="31.5,-67.5 31.5,-97.5 161.5,-97.5 161.5,-67.5 31.5,-67.5"/>
<text text-anchor="start" x="39.5" y="-85.5" font-family="Helvetica,sans-Serif" font-size="10.00">lemons::plugin::Processor</text>
<text text-anchor="middle" x="96.5" y="-74.5" font-family="Helvetica,sans-Serif" font-size="10.00">Engine&lt; SampleType &gt;</text>
</a>
</g>
</g>
<!-- Node2&#45;&gt;Node1 -->
<g id="edge1" class="edge">
<title>Node2&#45;&gt;Node1</title>
<path fill="none" stroke="midnightblue" d="M96.5,-57.11C96.5,-48.15 96.5,-38.32 96.5,-30.58"/>
<polygon fill="midnightblue" stroke="midnightblue" points="93,-57.4 96.5,-67.4 100,-57.4 93,-57.4"/>
</g>
<!-- Node3 -->
<g id="node3" class="node">
<title>Node3</title>
<g id="a_node3"><a xlink:href="classlemons_1_1dsp_1_1_engine.html" target="_top" xlink:title="Base class for an audio engine.">
<polygon fill="none" stroke="black" points="43.5,-134.5 43.5,-164.5 149.5,-164.5 149.5,-134.5 43.5,-134.5"/>
<text text-anchor="start" x="51.5" y="-152.5" font-family="Helvetica,sans-Serif" font-size="10.00">lemons::dsp::Engine</text>
<text text-anchor="middle" x="96.5" y="-141.5" font-family="Helvetica,sans-Serif" font-size="10.00">&lt; SampleType &gt;</text>
</a>
</g>
</g>
<!-- Node3&#45;&gt;Node2 -->
<g id="edge2" class="edge">
<title>Node3&#45;&gt;Node2</title>
<path fill="none" stroke="midnightblue" d="M96.5,-124.11C96.5,-115.15 96.5,-105.32 96.5,-97.58"/>
<polygon fill="midnightblue" stroke="midnightblue" points="93,-124.4 96.5,-134.4 100,-124.4 93,-124.4"/>
</g>
</g>
</svg>
