<?xml version="1.0" encoding="UTF-8" standalone="no"?>
<!DOCTYPE svg PUBLIC "-//W3C//DTD SVG 1.1//EN"
 "http://www.w3.org/Graphics/SVG/1.1/DTD/svg11.dtd">
<!-- Generated by graphviz version 2.50.0 (20211204.2007)
 -->
<!-- Title: lemons::dsp::detail::is_rt_safe&lt; std::vector&lt; T &gt;, move_tag, Tag &gt; Pages: 1 -->
<svg width="203pt" height="275pt"
 viewBox="0.00 0.00 202.50 275.00" xmlns="http://www.w3.org/2000/svg" xmlns:xlink="http://www.w3.org/1999/xlink">
<g id="graph0" class="graph" transform="scale(1 1) rotate(0) translate(4 271)">
<title>lemons::dsp::detail::is_rt_safe&lt; std::vector&lt; T &gt;, move_tag, Tag &gt;</title>
<!-- Node1 -->
<g id="node1" class="node">
<title>Node1</title>
<g id="a_node1"><a xlink:title=" ">
<polygon fill="#bfbfbf" stroke="black" points="0,-0.5 0,-41.5 121,-41.5 121,-0.5 0,-0.5"/>
<text text-anchor="start" x="8" y="-29.5" font-family="Helvetica,sans-Serif" font-size="10.00">lemons::dsp::detail</text>
<text text-anchor="start" x="8" y="-18.5" font-family="Helvetica,sans-Serif" font-size="10.00">::is_rt_safe&lt; std::vector</text>
<text text-anchor="middle" x="60.5" y="-7.5" font-family="Helvetica,sans-Serif" font-size="10.00">&lt; T &gt;, move_tag, Tag &gt;</text>
</a>
</g>
</g>
<!-- Node2 -->
<g id="node2" class="node">
<title>Node2</title>
<g id="a_node2"><a xlink:href="structlemons_1_1dsp_1_1detail_1_1is__rt__safe.html" target="_top" xlink:title=" ">
<polygon fill="none" stroke="black" points="6,-79.5 6,-120.5 115,-120.5 115,-79.5 6,-79.5"/>
<text text-anchor="start" x="14" y="-108.5" font-family="Helvetica,sans-Serif" font-size="10.00">lemons::dsp::detail</text>
<text text-anchor="start" x="14" y="-97.5" font-family="Helvetica,sans-Serif" font-size="10.00">::is_rt_safe&lt; T, move</text>
<text text-anchor="middle" x="60.5" y="-86.5" font-family="Helvetica,sans-Serif" font-size="10.00">_tag, Tag &gt;</text>
</a>
</g>
</g>
<!-- Node2&#45;&gt;Node1 -->
<g id="edge1" class="edge">
<title>Node2&#45;&gt;Node1</title>
<path fill="none" stroke="midnightblue" d="M60.5,-68.91C60.5,-59.79 60.5,-50.02 60.5,-41.76"/>
<polygon fill="midnightblue" stroke="midnightblue" points="57,-69.17 60.5,-79.17 64,-69.17 57,-69.17"/>
</g>
<!-- Node3 -->
<g id="node3" class="node">
<title>Node3</title>
<g id="a_node3"><a xlink:title=" ">
<polygon fill="none" stroke="black" points="16,-247.5 16,-266.5 97,-266.5 97,-247.5 16,-247.5"/>
<text text-anchor="middle" x="56.5" y="-254.5" font-family="Helvetica,sans-Serif" font-size="10.00">std::false_type</text>
</a>
</g>
</g>
<!-- Node3&#45;&gt;Node2 -->
<g id="edge2" class="edge">
<title>Node3&#45;&gt;Node2</title>
<path fill="none" stroke="midnightblue" d="M56.99,-237C57.75,-207.38 59.22,-150.51 60,-120.56"/>
<polygon fill="midnightblue" stroke="midnightblue" points="53.49,-237.14 56.73,-247.22 60.48,-237.32 53.49,-237.14"/>
</g>
<!-- Node4 -->
<g id="node4" class="node">
<title>Node4</title>
<g id="a_node4"><a xlink:href="structlemons_1_1dsp_1_1detail_1_1is__rt__safe.html" target="_top" xlink:title=" ">
<polygon fill="none" stroke="black" points="73,-168.5 73,-209.5 182,-209.5 182,-168.5 73,-168.5"/>
<text text-anchor="start" x="81" y="-197.5" font-family="Helvetica,sans-Serif" font-size="10.00">lemons::dsp::detail</text>
<text text-anchor="start" x="81" y="-186.5" font-family="Helvetica,sans-Serif" font-size="10.00">::is_rt_safe&lt; T, Tag1,</text>
<text text-anchor="middle" x="127.5" y="-175.5" font-family="Helvetica,sans-Serif" font-size="10.00"> Tag2 &gt;</text>
</a>
</g>
</g>
<!-- Node3&#45;&gt;Node4 -->
<g id="edge4" class="edge">
<title>Node3&#45;&gt;Node4</title>
<path fill="none" stroke="midnightblue" d="M73.33,-240.36C83.19,-231.19 95.74,-219.53 106.27,-209.74"/>
<polygon fill="midnightblue" stroke="midnightblue" points="70.72,-238 65.78,-247.37 75.49,-243.13 70.72,-238"/>
</g>
<!-- Node4&#45;&gt;Node2 -->
<g id="edge3" class="edge">
<title>Node4&#45;&gt;Node2</title>
<path fill="none" stroke="orange" stroke-dasharray="5,2" d="M106.06,-160.17C96.16,-147.3 84.63,-132.33 75.64,-120.66"/>
<polygon fill="orange" stroke="orange" points="103.42,-162.47 112.3,-168.26 108.97,-158.2 103.42,-162.47"/>
<text text-anchor="middle" x="146" y="-142" font-family="Helvetica,sans-Serif" font-size="10.00"> &lt; T, move_tag, Tag &gt;</text>
</g>
</g>
</svg>
