<?xml version="1.0" encoding="UTF-8" standalone="no"?>
<!DOCTYPE svg PUBLIC "-//W3C//DTD SVG 1.1//EN"
 "http://www.w3.org/Graphics/SVG/1.1/DTD/svg11.dtd">
<!-- Generated by graphviz version 2.43.0 (0)
 -->
<!-- Title: lemons::plugin::TypedParameter&lt; ValueType &gt;::Listener Pages: 1 -->
<svg width="571pt" height="78pt"
 viewBox="0.00 0.00 571.00 77.50" xmlns="http://www.w3.org/2000/svg" xmlns:xlink="http://www.w3.org/1999/xlink">
<g id="graph0" class="graph" transform="scale(1 1) rotate(0) translate(4 73.5)">
<title>lemons::plugin::TypedParameter&lt; ValueType &gt;::Listener</title>
<!-- Node1 -->
<g id="node1" class="node">
<title>Node1</title>
<g id="a_node1"><a xlink:title="A class that will recieve updates when aspects of a TypedParameter change.">
<polygon fill="#bfbfbf" stroke="black" points="181,-22.5 181,-52.5 354,-52.5 354,-22.5 181,-22.5"/>
<text text-anchor="start" x="189" y="-40.5" font-family="Helvetica,sans-Serif" font-size="10.00">lemons::plugin::TypedParameter</text>
<text text-anchor="middle" x="267.5" y="-29.5" font-family="Helvetica,sans-Serif" font-size="10.00">&lt; ValueType &gt;::Listener</text>
</a>
</g>
</g>
<!-- Node3 -->
<g id="node3" class="node">
<title>Node3</title>
<g id="a_node3"><a xlink:href="classlemons_1_1gui_1_1_int_slider.html" target="_top" xlink:title="Plugin slider that attaches to an integer parameter.">
<polygon fill="none" stroke="black" points="416.5,-50 416.5,-69 536.5,-69 536.5,-50 416.5,-50"/>
<text text-anchor="middle" x="476.5" y="-57" font-family="Helvetica,sans-Serif" font-size="10.00">lemons::gui::IntSlider</text>
</a>
</g>
</g>
<!-- Node1&#45;&gt;Node3 -->
<g id="edge2" class="edge">
<title>Node1&#45;&gt;Node3</title>
<path fill="none" stroke="#8b1a1a" d="M364.55,-47.71C382.22,-49.59 400.19,-51.5 416.37,-53.22"/>
<polygon fill="#8b1a1a" stroke="#8b1a1a" points="364.5,-44.18 354.19,-46.61 363.76,-51.14 364.5,-44.18"/>
</g>
<!-- Node4 -->
<g id="node4" class="node">
<title>Node4</title>
<g id="a_node4"><a xlink:href="structlemons_1_1plugin_1_1_typed_parameter_1_1_lambda_listener.html" target="_top" xlink:title="A listener that fires lambdas for each callback.">
<polygon fill="none" stroke="black" points="390,-0.5 390,-30.5 563,-30.5 563,-0.5 390,-0.5"/>
<text text-anchor="start" x="398" y="-18.5" font-family="Helvetica,sans-Serif" font-size="10.00">lemons::plugin::TypedParameter</text>
<text text-anchor="middle" x="476.5" y="-7.5" font-family="Helvetica,sans-Serif" font-size="10.00">&lt; ValueType &gt;::LambdaListener</text>
</a>
</g>
</g>
<!-- Node1&#45;&gt;Node4 -->
<g id="edge3" class="edge">
<title>Node1&#45;&gt;Node4</title>
<path fill="none" stroke="midnightblue" d="M364.2,-27.33C372.76,-26.42 381.4,-25.5 389.88,-24.6"/>
<polygon fill="midnightblue" stroke="midnightblue" points="363.76,-23.86 354.19,-28.39 364.5,-30.82 363.76,-23.86"/>
</g>
<!-- Node2 -->
<g id="node2" class="node">
<title>Node2</title>
<g id="a_node2"><a xlink:href="structlemons_1_1plugin_1_1_parameter_1_1_listener.html" target="_top" xlink:title="A Listener class that will be notified when aspects of a Parameter change.">
<polygon fill="none" stroke="black" points="0,-22.5 0,-52.5 145,-52.5 145,-22.5 0,-22.5"/>
<text text-anchor="start" x="8" y="-40.5" font-family="Helvetica,sans-Serif" font-size="10.00">lemons::plugin::Parameter</text>
<text text-anchor="middle" x="72.5" y="-29.5" font-family="Helvetica,sans-Serif" font-size="10.00">::Listener</text>
</a>
</g>
</g>
<!-- Node2&#45;&gt;Node1 -->
<g id="edge1" class="edge">
<title>Node2&#45;&gt;Node1</title>
<path fill="none" stroke="midnightblue" d="M155.35,-37.5C163.83,-37.5 172.47,-37.5 180.99,-37.5"/>
<polygon fill="midnightblue" stroke="midnightblue" points="155.09,-34 145.09,-37.5 155.09,-41 155.09,-34"/>
</g>
</g>
</svg>
