<?xml version="1.0" encoding="UTF-8" standalone="no"?>
<!DOCTYPE svg PUBLIC "-//W3C//DTD SVG 1.1//EN"
 "http://www.w3.org/Graphics/SVG/1.1/DTD/svg11.dtd">
<!-- Generated by graphviz version 2.49.3 (20211023.0002)
 -->
<!-- Title: lemons::dsp::filters::Coefficients&lt; NumericType &gt; Pages: 1 -->
<svg width="413pt" height="88pt"
 viewBox="0.00 0.00 413.00 88.00" xmlns="http://www.w3.org/2000/svg" xmlns:xlink="http://www.w3.org/1999/xlink">
<g id="graph0" class="graph" transform="scale(1 1) rotate(0) translate(4 84)">
<title>lemons::dsp::filters::Coefficients&lt; NumericType &gt;</title>
<!-- Node1 -->
<g id="node1" class="node">
<title>Node1</title>
<g id="a_node1"><a xlink:title="A filter coefficients class, with lots of methods for creating various filter topologies.">
<polygon fill="#bfbfbf" stroke="black" points="0,-24.5 0,-54.5 148,-54.5 148,-24.5 0,-24.5"/>
<text text-anchor="start" x="8" y="-42.5" font-family="Helvetica,sans-Serif" font-size="10.00">lemons::dsp::filters</text>
<text text-anchor="middle" x="74" y="-31.5" font-family="Helvetica,sans-Serif" font-size="10.00">::Coefficients&lt; NumericType &gt;</text>
</a>
</g>
</g>
<!-- Node2 -->
<g id="node2" class="node">
<title>Node2</title>
<g id="a_node2"><a xlink:href="structlemons_1_1dsp_1_1filters_1_1_coefficients.html" target="_top" xlink:title=" ">
<polygon fill="none" stroke="black" points="260,-49.5 260,-79.5 405,-79.5 405,-49.5 260,-49.5"/>
<text text-anchor="start" x="268" y="-67.5" font-family="Helvetica,sans-Serif" font-size="10.00">lemons::dsp::filters</text>
<text text-anchor="middle" x="332.5" y="-56.5" font-family="Helvetica,sans-Serif" font-size="10.00">::Coefficients&lt; SampleType &gt;</text>
</a>
</g>
</g>
<!-- Node1&#45;&gt;Node2 -->
<g id="edge1" class="edge">
<title>Node1&#45;&gt;Node2</title>
<path fill="none" stroke="orange" stroke-dasharray="5,2" d="M158.15,-47.6C190.86,-50.79 228.05,-54.42 259.57,-57.49"/>
<polygon fill="orange" stroke="orange" points="158.45,-44.12 148.16,-46.63 157.77,-51.08 158.45,-44.12"/>
<text text-anchor="middle" x="204" y="-58.5" font-family="Helvetica,sans-Serif" font-size="10.00"> &lt; SampleType &gt;</text>
</g>
<!-- Node3 -->
<g id="node3" class="node">
<title>Node3</title>
<g id="a_node3"><a xlink:href="structlemons_1_1dsp_1_1filters_1_1_coefficients.html" target="_top" xlink:title=" ">
<polygon fill="none" stroke="black" points="278,-0.5 278,-30.5 387,-30.5 387,-0.5 278,-0.5"/>
<text text-anchor="start" x="286" y="-18.5" font-family="Helvetica,sans-Serif" font-size="10.00">lemons::dsp::filters</text>
<text text-anchor="middle" x="332.5" y="-7.5" font-family="Helvetica,sans-Serif" font-size="10.00">::Coefficients&lt; float &gt;</text>
</a>
</g>
</g>
<!-- Node1&#45;&gt;Node3 -->
<g id="edge2" class="edge">
<title>Node1&#45;&gt;Node3</title>
<path fill="none" stroke="orange" stroke-dasharray="5,2" d="M158.25,-31.71C197.51,-28.04 243.21,-23.76 277.82,-20.52"/>
<polygon fill="orange" stroke="orange" points="157.79,-28.24 148.16,-32.65 158.44,-35.21 157.79,-28.24"/>
<text text-anchor="middle" x="204" y="-32.5" font-family="Helvetica,sans-Serif" font-size="10.00"> &lt; float &gt;</text>
</g>
</g>
</svg>
