<?xml version="1.0" encoding="UTF-8" standalone="no"?>
<!DOCTYPE svg PUBLIC "-//W3C//DTD SVG 1.1//EN"
 "http://www.w3.org/Graphics/SVG/1.1/DTD/svg11.dtd">
<!-- Generated by graphviz version 2.50.0 (20211204.2007)
 -->
<!-- Title: lemons::ConstructedArray&lt; ObjectType &gt; Pages: 1 -->
<!--zoomable 1022 -->
<svg id="main" version="1.1" xmlns="http://www.w3.org/2000/svg" xmlns:xlink="http://www.w3.org/1999/xlink" xml:space="preserve" onload="init(evt)">
<style type="text/css"><![CDATA[
.edge:hover path { stroke: red; }
.edge:hover polygon { stroke: red; fill: red; }
]]></style>
<script type="text/javascript"><![CDATA[
var edges = document.getElementsByTagName('g');
if (edges && edges.length) {
  for (var i=0;i<edges.length;i++) {
    if (edges[i].id.substr(0,4)=='edge') {
      edges[i].setAttribute('class','edge');
    }
  }
}
]]></script>
        <defs>
                <circle id="rim" cx="0" cy="0" r="7"/>
                <circle id="rim2" cx="0" cy="0" r="3.5"/>
                <g id="zoomPlus">
                        <use xlink:href="#rim" fill="#404040">
                                <set attributeName="fill" to="#808080" begin="zoomplus.mouseover" end="zoomplus.mouseout"/>
                        </use>
                        <path d="M-4,0h8M0,-4v8" fill="none" stroke="white" stroke-width="1.5" pointer-events="none"/>
                </g>
                <g id="zoomMin">
                        <use xlink:href="#rim" fill="#404040">
                                <set attributeName="fill" to="#808080" begin="zoomminus.mouseover" end="zoomminus.mouseout"/>
                        </use>
                        <path d="M-4,0h8" fill="none" stroke="white" stroke-width="1.5" pointer-events="none"/>
                </g>
                <g id="dirArrow">
                        <path fill="none" stroke="white" stroke-width="1.5" d="M0,-3.0v7 M-2.5,-0.5L0,-3.0L2.5,-0.5"/>
                </g>
               <g id="resetDef">
                       <use xlink:href="#rim2" fill="#404040">
                               <set attributeName="fill" to="#808080" begin="reset.mouseover" end="reset.mouseout"/>
                       </use>
               </g>
        </defs>

<script type="text/javascript">
var viewWidth = 488;
var viewHeight = 1022;
var sectionId = 'dynsection-0';
</script>
<script xlink:href="svgpan.js"/>
<svg id="graph" class="graph">
<g id="viewport">
<title>lemons::ConstructedArray&lt; ObjectType &gt;</title>
<!-- Node1 -->
<g id="node1" class="node">
<title>Node1</title>
<g id="a_node1"><a xlink:title="A wrapper around juce::OwnedArray that automatically deletes or creates objects when you resize it.">
<polygon fill="#bfbfbf" stroke="black" points="0,-500.57 0,-530.57 131,-530.57 131,-500.57 0,-500.57"/>
<text text-anchor="start" x="8" y="-518.57" font-family="Helvetica,sans-Serif" font-size="10.00">lemons::ConstructedArray</text>
<text text-anchor="middle" x="65.5" y="-507.57" font-family="Helvetica,sans-Serif" font-size="10.00">&lt; ObjectType &gt;</text>
</a>
</g>
</g>
<!-- Node2 -->
<g id="node2" class="node">
<title>Node2</title>
<g id="a_node2"><a xlink:href="structlemons_1_1_constructed_array.html" target="_top" xlink:title=" ">
<polygon fill="none" stroke="black" points="323.5,-973.57 323.5,-1003.57 469.5,-1003.57 469.5,-973.57 323.5,-973.57"/>
<text text-anchor="start" x="331.5" y="-991.57" font-family="Helvetica,sans-Serif" font-size="10.00">lemons::ConstructedArray</text>
<text text-anchor="middle" x="396.5" y="-980.57" font-family="Helvetica,sans-Serif" font-size="10.00">&lt; OscType&lt; SampleType &gt; &gt;</text>
</a>
</g>
</g>
<!-- Node1&#45;&gt;Node2 -->
<g id="edge1" class="edge">
<title>Node1&#45;&gt;Node2</title>
<path fill="none" stroke="orange" stroke-dasharray="5,2" d="M67.39,-541.06C70.94,-626.84 87.06,-902.83 149,-960.57 194.92,-1003.37 268.45,-1006.51 323.27,-1001.28"/>
<polygon fill="orange" stroke="orange" points="70.88,-540.77 66.99,-530.91 63.89,-541.04 70.88,-540.77"/>
<text text-anchor="middle" x="222" y="-1005.57" font-family="Helvetica,sans-Serif" font-size="10.00"> &lt; OscType&lt; SampleType &gt; &gt;</text>
</g>
<!-- Node3 -->
<g id="node3" class="node">
<title>Node3</title>
<g id="a_node3"><a xlink:href="structlemons_1_1_constructed_array.html" target="_top" xlink:title=" ">
<polygon fill="none" stroke="black" points="324,-913.07 324,-954.07 469,-954.07 469,-913.07 324,-913.07"/>
<text text-anchor="start" x="332" y="-942.07" font-family="Helvetica,sans-Serif" font-size="10.00">lemons::ConstructedArray</text>
<text text-anchor="start" x="332" y="-931.07" font-family="Helvetica,sans-Serif" font-size="10.00">&lt; lemons::dsp::CircularBuffer</text>
<text text-anchor="middle" x="396.5" y="-920.07" font-family="Helvetica,sans-Serif" font-size="10.00">&lt; SampleType &gt; &gt;</text>
</a>
</g>
</g>
<!-- Node1&#45;&gt;Node3 -->
<g id="edge2" class="edge">
<title>Node1&#45;&gt;Node3</title>
<path fill="none" stroke="orange" stroke-dasharray="5,2" d="M68.01,-541C73.27,-620.17 93.58,-859.9 149,-909.57 174.02,-931.99 260.32,-935.98 323.78,-935.69"/>
<polygon fill="orange" stroke="orange" points="71.5,-540.69 67.37,-530.93 64.51,-541.13 71.5,-540.69"/>
<text text-anchor="start" x="156" y="-948.57" font-family="Helvetica,sans-Serif" font-size="10.00"> &lt; lemons::dsp::CircularBuffer</text>
<text text-anchor="middle" x="222" y="-937.57" font-family="Helvetica,sans-Serif" font-size="10.00">&lt; SampleType &gt; &gt;</text>
</g>
<!-- Node4 -->
<g id="node4" class="node">
<title>Node4</title>
<g id="a_node4"><a xlink:href="structlemons_1_1_constructed_array.html" target="_top" xlink:title=" ">
<polygon fill="none" stroke="black" points="331,-863.57 331,-893.57 462,-893.57 462,-863.57 331,-863.57"/>
<text text-anchor="start" x="339" y="-881.57" font-family="Helvetica,sans-Serif" font-size="10.00">lemons::ConstructedArray</text>
<text text-anchor="middle" x="396.5" y="-870.57" font-family="Helvetica,sans-Serif" font-size="10.00">&lt; InterpolatorType &gt;</text>
</a>
</g>
</g>
<!-- Node1&#45;&gt;Node4 -->
<g id="edge3" class="edge">
<title>Node1&#45;&gt;Node4</title>
<path fill="none" stroke="orange" stroke-dasharray="5,2" d="M68.87,-540.87C76.14,-612.62 100.61,-814.88 149,-856.57 198.39,-899.13 275.84,-898.96 330.73,-891.77"/>
<polygon fill="orange" stroke="orange" points="72.35,-540.5 67.88,-530.89 65.38,-541.19 72.35,-540.5"/>
<text text-anchor="middle" x="222" y="-897.57" font-family="Helvetica,sans-Serif" font-size="10.00"> &lt; InterpolatorType &gt;</text>
</g>
<!-- Node5 -->
<g id="node5" class="node">
<title>Node5</title>
<g id="a_node5"><a xlink:href="structlemons_1_1_constructed_array.html" target="_top" xlink:title=" ">
<polygon fill="none" stroke="black" points="317,-814.57 317,-844.57 476,-844.57 476,-814.57 317,-814.57"/>
<text text-anchor="start" x="325" y="-832.57" font-family="Helvetica,sans-Serif" font-size="10.00">lemons::ConstructedArray</text>
<text text-anchor="middle" x="396.5" y="-821.57" font-family="Helvetica,sans-Serif" font-size="10.00">&lt; StreamType&lt; SampleType &gt; &gt;</text>
</a>
</g>
</g>
<!-- Node1&#45;&gt;Node5 -->
<g id="edge4" class="edge">
<title>Node1&#45;&gt;Node5</title>
<path fill="none" stroke="orange" stroke-dasharray="5,2" d="M70.01,-540.95C79.44,-605.27 107.5,-772.05 149,-806.57 194.93,-844.77 263.66,-848.27 316.88,-843.49"/>
<polygon fill="orange" stroke="orange" points="73.44,-540.26 68.56,-530.86 66.52,-541.25 73.44,-540.26"/>
<text text-anchor="middle" x="222" y="-847.57" font-family="Helvetica,sans-Serif" font-size="10.00"> &lt; StreamType&lt; SampleType &gt; &gt;</text>
</g>
<!-- Node6 -->
<g id="node6" class="node">
<title>Node6</title>
<g id="a_node6"><a xlink:href="structlemons_1_1_constructed_array.html" target="_top" xlink:title=" ">
<polygon fill="none" stroke="black" points="313,-765.57 313,-795.57 480,-795.57 480,-765.57 313,-765.57"/>
<text text-anchor="start" x="321" y="-783.57" font-family="Helvetica,sans-Serif" font-size="10.00">lemons::ConstructedArray</text>
<text text-anchor="middle" x="396.5" y="-772.57" font-family="Helvetica,sans-Serif" font-size="10.00">&lt; lemons::dsp::SynthVoiceBase &gt;</text>
</a>
</g>
</g>
<!-- Node1&#45;&gt;Node6 -->
<g id="edge5" class="edge">
<title>Node1&#45;&gt;Node6</title>
<path fill="none" stroke="orange" stroke-dasharray="5,2" d="M66.79,-540.85C68.87,-591.04 81.29,-703.04 149,-756.57 173.79,-776.17 251.39,-781.17 312.97,-781.88"/>
<polygon fill="orange" stroke="orange" points="70.29,-540.74 66.48,-530.85 63.29,-540.95 70.29,-540.74"/>
<text text-anchor="start" x="161" y="-794.57" font-family="Helvetica,sans-Serif" font-size="10.00"> &lt; lemons::dsp::SynthVoice</text>
<text text-anchor="middle" x="222" y="-783.57" font-family="Helvetica,sans-Serif" font-size="10.00">Base &gt;</text>
</g>
<!-- Node7 -->
<g id="node7" class="node">
<title>Node7</title>
<g id="a_node7"><a xlink:href="structlemons_1_1_constructed_array.html" target="_top" xlink:title=" ">
<polygon fill="none" stroke="black" points="331,-705.07 331,-746.07 462,-746.07 462,-705.07 331,-705.07"/>
<text text-anchor="start" x="339" y="-734.07" font-family="Helvetica,sans-Serif" font-size="10.00">lemons::ConstructedArray</text>
<text text-anchor="start" x="339" y="-723.07" font-family="Helvetica,sans-Serif" font-size="10.00">&lt; lemons::dsp::osc::Sine</text>
<text text-anchor="middle" x="396.5" y="-712.07" font-family="Helvetica,sans-Serif" font-size="10.00">&lt; SampleType &gt; &gt;</text>
</a>
</g>
</g>
<!-- Node1&#45;&gt;Node7 -->
<g id="edge6" class="edge">
<title>Node1&#45;&gt;Node7</title>
<path fill="none" stroke="orange" stroke-dasharray="5,2" d="M70.77,-540.45C78.77,-578.92 99.87,-652.19 149,-688.57 201.25,-727.26 277.08,-733.28 330.81,-731.65"/>
<polygon fill="orange" stroke="orange" points="74.19,-539.73 68.84,-530.58 67.32,-541.07 74.19,-539.73"/>
<text text-anchor="start" x="168.5" y="-744.57" font-family="Helvetica,sans-Serif" font-size="10.00"> &lt; lemons::dsp::osc</text>
<text text-anchor="middle" x="222" y="-733.57" font-family="Helvetica,sans-Serif" font-size="10.00">::Sine&lt; SampleType &gt; &gt;</text>
</g>
<!-- Node8 -->
<g id="node8" class="node">
<title>Node8</title>
<g id="a_node8"><a xlink:href="structlemons_1_1_constructed_array.html" target="_top" xlink:title=" ">
<polygon fill="none" stroke="black" points="331,-645.07 331,-686.07 462,-686.07 462,-645.07 331,-645.07"/>
<text text-anchor="start" x="339" y="-674.07" font-family="Helvetica,sans-Serif" font-size="10.00">lemons::ConstructedArray</text>
<text text-anchor="start" x="339" y="-663.07" font-family="Helvetica,sans-Serif" font-size="10.00">&lt; lemons::dsp::osc::Saw</text>
<text text-anchor="middle" x="396.5" y="-652.07" font-family="Helvetica,sans-Serif" font-size="10.00">&lt; SampleType &gt; &gt;</text>
</a>
</g>
</g>
<!-- Node1&#45;&gt;Node8 -->
<g id="edge7" class="edge">
<title>Node1&#45;&gt;Node8</title>
<path fill="none" stroke="orange" stroke-dasharray="5,2" d="M78.58,-539.6C92.21,-564.08 116.75,-601.12 149,-620.57 204.32,-653.93 278.4,-663.73 330.87,-666.08"/>
<polygon fill="orange" stroke="orange" points="81.56,-537.74 73.74,-530.59 75.39,-541.05 81.56,-537.74"/>
<text text-anchor="start" x="168.5" y="-676.57" font-family="Helvetica,sans-Serif" font-size="10.00"> &lt; lemons::dsp::osc</text>
<text text-anchor="middle" x="222" y="-665.57" font-family="Helvetica,sans-Serif" font-size="10.00">::Saw&lt; SampleType &gt; &gt;</text>
</g>
<!-- Node9 -->
<g id="node9" class="node">
<title>Node9</title>
<g id="a_node9"><a xlink:href="structlemons_1_1_constructed_array.html" target="_top" xlink:title=" ">
<polygon fill="none" stroke="black" points="328,-585.07 328,-626.07 465,-626.07 465,-585.07 328,-585.07"/>
<text text-anchor="start" x="336" y="-614.07" font-family="Helvetica,sans-Serif" font-size="10.00">lemons::ConstructedArray</text>
<text text-anchor="start" x="336" y="-603.07" font-family="Helvetica,sans-Serif" font-size="10.00">&lt; lemons::dsp::osc::Square</text>
<text text-anchor="middle" x="396.5" y="-592.07" font-family="Helvetica,sans-Serif" font-size="10.00">&lt; SampleType &gt; &gt;</text>
</a>
</g>
</g>
<!-- Node1&#45;&gt;Node9 -->
<g id="edge8" class="edge">
<title>Node1&#45;&gt;Node9</title>
<path fill="none" stroke="orange" stroke-dasharray="5,2" d="M97.48,-536.08C112.48,-545.15 131.09,-555.18 149,-561.57 207.45,-582.42 277.36,-593.7 327.78,-599.6"/>
<polygon fill="orange" stroke="orange" points="98.99,-532.89 88.65,-530.59 95.3,-538.84 98.99,-532.89"/>
<text text-anchor="start" x="163" y="-608.57" font-family="Helvetica,sans-Serif" font-size="10.00"> &lt; lemons::dsp::osc</text>
<text text-anchor="middle" x="222" y="-597.57" font-family="Helvetica,sans-Serif" font-size="10.00">::Square&lt; SampleType &gt; &gt;</text>
</g>
<!-- Node10 -->
<g id="node10" class="node">
<title>Node10</title>
<g id="a_node10"><a xlink:href="structlemons_1_1_constructed_array.html" target="_top" xlink:title=" ">
<polygon fill="none" stroke="black" points="326,-525.07 326,-566.07 467,-566.07 467,-525.07 326,-525.07"/>
<text text-anchor="start" x="334" y="-554.07" font-family="Helvetica,sans-Serif" font-size="10.00">lemons::ConstructedArray</text>
<text text-anchor="start" x="334" y="-543.07" font-family="Helvetica,sans-Serif" font-size="10.00">&lt; lemons::dsp::osc::Triangle</text>
<text text-anchor="middle" x="396.5" y="-532.07" font-family="Helvetica,sans-Serif" font-size="10.00">&lt; SampleType &gt; &gt;</text>
</a>
</g>
</g>
<!-- Node1&#45;&gt;Node10 -->
<g id="edge9" class="edge">
<title>Node1&#45;&gt;Node10</title>
<path fill="none" stroke="orange" stroke-dasharray="5,2" d="M141.22,-522.38C196.67,-527.44 271.74,-534.29 325.93,-539.23"/>
<polygon fill="orange" stroke="orange" points="141.38,-518.88 131.11,-521.46 140.75,-525.85 141.38,-518.88"/>
<text text-anchor="start" x="161" y="-549.57" font-family="Helvetica,sans-Serif" font-size="10.00"> &lt; lemons::dsp::osc</text>
<text text-anchor="middle" x="222" y="-538.57" font-family="Helvetica,sans-Serif" font-size="10.00">::Triangle&lt; SampleType &gt; &gt;</text>
</g>
<!-- Node11 -->
<g id="node11" class="node">
<title>Node11</title>
<g id="a_node11"><a xlink:href="structlemons_1_1_constructed_array.html" target="_top" xlink:title=" ">
<polygon fill="none" stroke="black" points="321,-465.07 321,-506.07 472,-506.07 472,-465.07 321,-465.07"/>
<text text-anchor="start" x="329" y="-494.07" font-family="Helvetica,sans-Serif" font-size="10.00">lemons::ConstructedArray</text>
<text text-anchor="start" x="329" y="-483.07" font-family="Helvetica,sans-Serif" font-size="10.00">&lt; lemons::dsp::osc::Detunable</text>
<text text-anchor="middle" x="396.5" y="-472.07" font-family="Helvetica,sans-Serif" font-size="10.00">&lt; SampleType &gt; &gt;</text>
</a>
</g>
</g>
<!-- Node1&#45;&gt;Node11 -->
<g id="edge10" class="edge">
<title>Node1&#45;&gt;Node11</title>
<path fill="none" stroke="orange" stroke-dasharray="5,2" d="M140.3,-498.84C143.23,-498.38 146.14,-497.95 149,-497.57 206.34,-489.97 271.75,-487.05 320.78,-485.99"/>
<polygon fill="orange" stroke="orange" points="139.54,-495.42 130.27,-500.56 140.72,-502.32 139.54,-495.42"/>
<text text-anchor="start" x="156" y="-511.57" font-family="Helvetica,sans-Serif" font-size="10.00"> &lt; lemons::dsp::osc</text>
<text text-anchor="middle" x="222" y="-500.57" font-family="Helvetica,sans-Serif" font-size="10.00">::Detunable&lt; SampleType &gt; &gt;</text>
</g>
<!-- Node12 -->
<g id="node12" class="node">
<title>Node12</title>
<g id="a_node12"><a xlink:href="structlemons_1_1_constructed_array.html" target="_top" xlink:title=" ">
<polygon fill="none" stroke="black" points="331,-405.07 331,-446.07 462,-446.07 462,-405.07 331,-405.07"/>
<text text-anchor="start" x="339" y="-434.07" font-family="Helvetica,sans-Serif" font-size="10.00">lemons::ConstructedArray</text>
<text text-anchor="start" x="339" y="-423.07" font-family="Helvetica,sans-Serif" font-size="10.00">&lt; lemons::dsp::Oscillator</text>
<text text-anchor="middle" x="396.5" y="-412.07" font-family="Helvetica,sans-Serif" font-size="10.00">&lt; SampleType &gt; &gt;</text>
</a>
</g>
</g>
<!-- Node1&#45;&gt;Node12 -->
<g id="edge11" class="edge">
<title>Node1&#45;&gt;Node12</title>
<path fill="none" stroke="orange" stroke-dasharray="5,2" d="M92.22,-494.03C107.71,-482.23 128.37,-468.44 149,-460.57 208.06,-438.03 280.09,-429.82 331,-426.93"/>
<polygon fill="orange" stroke="orange" points="89.89,-491.41 84.18,-500.33 94.21,-496.92 89.89,-491.41"/>
<text text-anchor="start" x="165.5" y="-474.57" font-family="Helvetica,sans-Serif" font-size="10.00"> &lt; lemons::dsp::Oscillator</text>
<text text-anchor="middle" x="222" y="-463.57" font-family="Helvetica,sans-Serif" font-size="10.00">&lt; SampleType &gt; &gt;</text>
</g>
<!-- Node13 -->
<g id="node13" class="node">
<title>Node13</title>
<g id="a_node13"><a xlink:href="structlemons_1_1_constructed_array.html" target="_top" xlink:title=" ">
<polygon fill="none" stroke="black" points="331,-355.57 331,-385.57 462,-385.57 462,-355.57 331,-355.57"/>
<text text-anchor="start" x="339" y="-373.57" font-family="Helvetica,sans-Serif" font-size="10.00">lemons::ConstructedArray</text>
<text text-anchor="middle" x="396.5" y="-362.57" font-family="Helvetica,sans-Serif" font-size="10.00">&lt; Grain &gt;</text>
</a>
</g>
</g>
<!-- Node1&#45;&gt;Node13 -->
<g id="edge12" class="edge">
<title>Node1&#45;&gt;Node13</title>
<path fill="none" stroke="orange" stroke-dasharray="5,2" d="M79.25,-491.65C93.14,-468.08 117.64,-433 149,-414.57 204.56,-381.92 278.44,-372.33 330.78,-370.04"/>
<polygon fill="orange" stroke="orange" points="76.2,-489.94 74.29,-500.36 82.28,-493.41 76.2,-489.94"/>
<text text-anchor="middle" x="222" y="-417.57" font-family="Helvetica,sans-Serif" font-size="10.00"> &lt; Grain &gt;</text>
</g>
<!-- Node14 -->
<g id="node14" class="node">
<title>Node14</title>
<g id="a_node14"><a xlink:href="structlemons_1_1_constructed_array.html" target="_top" xlink:title=" ">
<polygon fill="none" stroke="black" points="331,-295.07 331,-336.07 462,-336.07 462,-295.07 331,-295.07"/>
<text text-anchor="start" x="339" y="-324.07" font-family="Helvetica,sans-Serif" font-size="10.00">lemons::ConstructedArray</text>
<text text-anchor="start" x="339" y="-313.07" font-family="Helvetica,sans-Serif" font-size="10.00">&lt; lemons::dsp::osc::Sine</text>
<text text-anchor="middle" x="396.5" y="-302.07" font-family="Helvetica,sans-Serif" font-size="10.00">&lt; float &gt; &gt;</text>
</a>
</g>
</g>
<!-- Node1&#45;&gt;Node14 -->
<g id="edge13" class="edge">
<title>Node1&#45;&gt;Node14</title>
<path fill="none" stroke="orange" stroke-dasharray="5,2" d="M71.08,-490.06C79.35,-452 100.66,-381.15 149,-346.57 201.62,-308.93 277.21,-304.76 330.78,-307.75"/>
<polygon fill="orange" stroke="orange" points="67.55,-489.8 68.99,-500.3 74.41,-491.2 67.55,-489.8"/>
<text text-anchor="start" x="178" y="-360.57" font-family="Helvetica,sans-Serif" font-size="10.00"> &lt; lemons::dsp::osc</text>
<text text-anchor="middle" x="222" y="-349.57" font-family="Helvetica,sans-Serif" font-size="10.00">::Sine&lt; float &gt; &gt;</text>
</g>
<!-- Node15 -->
<g id="node15" class="node">
<title>Node15</title>
<g id="a_node15"><a xlink:href="structlemons_1_1_constructed_array.html" target="_top" xlink:title=" ">
<polygon fill="none" stroke="black" points="331,-235.07 331,-276.07 462,-276.07 462,-235.07 331,-235.07"/>
<text text-anchor="start" x="339" y="-264.07" font-family="Helvetica,sans-Serif" font-size="10.00">lemons::ConstructedArray</text>
<text text-anchor="start" x="339" y="-253.07" font-family="Helvetica,sans-Serif" font-size="10.00">&lt; lemons::dsp::osc::Saw</text>
<text text-anchor="middle" x="396.5" y="-242.07" font-family="Helvetica,sans-Serif" font-size="10.00">&lt; float &gt; &gt;</text>
</a>
</g>
</g>
<!-- Node1&#45;&gt;Node15 -->
<g id="edge14" class="edge">
<title>Node1&#45;&gt;Node15</title>
<path fill="none" stroke="orange" stroke-dasharray="5,2" d="M67.06,-490.26C69.66,-441.01 83,-332.55 149,-280.57 200.03,-240.38 276.62,-238.91 330.86,-244.46"/>
<polygon fill="orange" stroke="orange" points="63.56,-490.23 66.64,-500.37 70.56,-490.52 63.56,-490.23"/>
<text text-anchor="start" x="178" y="-294.57" font-family="Helvetica,sans-Serif" font-size="10.00"> &lt; lemons::dsp::osc</text>
<text text-anchor="middle" x="222" y="-283.57" font-family="Helvetica,sans-Serif" font-size="10.00">::Saw&lt; float &gt; &gt;</text>
</g>
<!-- Node16 -->
<g id="node16" class="node">
<title>Node16</title>
<g id="a_node16"><a xlink:href="structlemons_1_1_constructed_array.html" target="_top" xlink:title=" ">
<polygon fill="none" stroke="black" points="328,-175.07 328,-216.07 465,-216.07 465,-175.07 328,-175.07"/>
<text text-anchor="start" x="336" y="-204.07" font-family="Helvetica,sans-Serif" font-size="10.00">lemons::ConstructedArray</text>
<text text-anchor="start" x="336" y="-193.07" font-family="Helvetica,sans-Serif" font-size="10.00">&lt; lemons::dsp::osc::Square</text>
<text text-anchor="middle" x="396.5" y="-182.07" font-family="Helvetica,sans-Serif" font-size="10.00">&lt; float &gt; &gt;</text>
</a>
</g>
</g>
<!-- Node1&#45;&gt;Node16 -->
<g id="edge15" class="edge">
<title>Node1&#45;&gt;Node16</title>
<path fill="none" stroke="orange" stroke-dasharray="5,2" d="M69.74,-490.3C78.7,-424.61 106.04,-251.15 149,-215.57 198.19,-174.83 273.44,-174.68 327.86,-181.71"/>
<polygon fill="orange" stroke="orange" points="66.22,-490.19 68.37,-500.57 73.16,-491.12 66.22,-490.19"/>
<text text-anchor="start" x="178" y="-229.57" font-family="Helvetica,sans-Serif" font-size="10.00"> &lt; lemons::dsp::osc</text>
<text text-anchor="middle" x="222" y="-218.57" font-family="Helvetica,sans-Serif" font-size="10.00">::Square&lt; float &gt; &gt;</text>
</g>
<!-- Node17 -->
<g id="node17" class="node">
<title>Node17</title>
<g id="a_node17"><a xlink:href="structlemons_1_1_constructed_array.html" target="_top" xlink:title=" ">
<polygon fill="none" stroke="black" points="326,-115.07 326,-156.07 467,-156.07 467,-115.07 326,-115.07"/>
<text text-anchor="start" x="334" y="-144.07" font-family="Helvetica,sans-Serif" font-size="10.00">lemons::ConstructedArray</text>
<text text-anchor="start" x="334" y="-133.07" font-family="Helvetica,sans-Serif" font-size="10.00">&lt; lemons::dsp::osc::Triangle</text>
<text text-anchor="middle" x="396.5" y="-122.07" font-family="Helvetica,sans-Serif" font-size="10.00">&lt; float &gt; &gt;</text>
</a>
</g>
</g>
<!-- Node1&#45;&gt;Node17 -->
<g id="edge16" class="edge">
<title>Node1&#45;&gt;Node17</title>
<path fill="none" stroke="orange" stroke-dasharray="5,2" d="M68.42,-490.07C74.64,-414.78 96.96,-195.98 149,-151.57 197.04,-110.58 271.37,-111.45 325.85,-119.59"/>
<polygon fill="orange" stroke="orange" points="64.89,-490.24 67.58,-500.48 71.87,-490.79 64.89,-490.24"/>
<text text-anchor="start" x="178" y="-165.57" font-family="Helvetica,sans-Serif" font-size="10.00"> &lt; lemons::dsp::osc</text>
<text text-anchor="middle" x="222" y="-154.57" font-family="Helvetica,sans-Serif" font-size="10.00">::Triangle&lt; float &gt; &gt;</text>
</g>
<!-- Node18 -->
<g id="node18" class="node">
<title>Node18</title>
<g id="a_node18"><a xlink:href="structlemons_1_1_constructed_array.html" target="_top" xlink:title=" ">
<polygon fill="none" stroke="black" points="321,-55.07 321,-96.07 472,-96.07 472,-55.07 321,-55.07"/>
<text text-anchor="start" x="329" y="-84.07" font-family="Helvetica,sans-Serif" font-size="10.00">lemons::ConstructedArray</text>
<text text-anchor="start" x="329" y="-73.07" font-family="Helvetica,sans-Serif" font-size="10.00">&lt; lemons::dsp::osc::Detunable</text>
<text text-anchor="middle" x="396.5" y="-62.07" font-family="Helvetica,sans-Serif" font-size="10.00">&lt; float &gt; &gt;</text>
</a>
</g>
</g>
<!-- Node1&#45;&gt;Node18 -->
<g id="edge17" class="edge">
<title>Node1&#45;&gt;Node18</title>
<path fill="none" stroke="orange" stroke-dasharray="5,2" d="M67.47,-490.15C71.22,-406.46 87.82,-141.83 149,-88.57 195.22,-48.33 266.72,-48.99 320.83,-57.41"/>
<polygon fill="orange" stroke="orange" points="63.96,-490.15 67.04,-500.29 70.96,-490.45 63.96,-490.15"/>
<text text-anchor="start" x="173.5" y="-102.57" font-family="Helvetica,sans-Serif" font-size="10.00"> &lt; lemons::dsp::osc</text>
<text text-anchor="middle" x="222" y="-91.57" font-family="Helvetica,sans-Serif" font-size="10.00">::Detunable&lt; float &gt; &gt;</text>
</g>
<!-- Node19 -->
<g id="node19" class="node">
<title>Node19</title>
<g id="a_node19"><a xlink:href="structlemons_1_1_constructed_array.html" target="_top" xlink:title=" ">
<polygon fill="none" stroke="black" points="331,-5.57 331,-35.57 462,-35.57 462,-5.57 331,-5.57"/>
<text text-anchor="start" x="339" y="-23.57" font-family="Helvetica,sans-Serif" font-size="10.00">lemons::ConstructedArray</text>
<text text-anchor="middle" x="396.5" y="-12.57" font-family="Helvetica,sans-Serif" font-size="10.00">&lt; lemons::plugin::LFO &gt;</text>
</a>
</g>
</g>
<!-- Node1&#45;&gt;Node19 -->
<g id="edge18" class="edge">
<title>Node1&#45;&gt;Node19</title>
<path fill="none" stroke="orange" stroke-dasharray="5,2" d="M66.96,-489.93C69.14,-399.83 81.45,-99.79 149,-38.57 197.65,5.51 276.19,3.33 331.52,-5.56"/>
<polygon fill="orange" stroke="orange" points="63.46,-490.01 66.73,-500.08 70.45,-490.16 63.46,-490.01"/>
<text text-anchor="middle" x="222" y="-41.57" font-family="Helvetica,sans-Serif" font-size="10.00"> &lt; lemons::plugin::LFO &gt;</text>
</g>
</g>
</svg>
        <g id="navigator" transform="translate(0 0)" fill="#404254">
                <rect fill="#f2f5e9" fill-opacity="0.5" stroke="#606060" stroke-width=".5" x="0" y="0" width="60" height="60"/>
                <use id="zoomplus" xlink:href="#zoomPlus" x="17" y="9" onmousedown="handleZoom(evt,'in')"/>
                <use id="zoomminus" xlink:href="#zoomMin" x="42" y="9" onmousedown="handleZoom(evt,'out')"/>
                <use id="reset" xlink:href="#resetDef" x="30" y="36" onmousedown="handleReset()"/>
                <g id="arrowUp" xlink:href="#dirArrow" transform="translate(30 24)" onmousedown="handlePan(0,-1)">
                  <use xlink:href="#rim" fill="#404040">
                        <set attributeName="fill" to="#808080" begin="arrowUp.mouseover" end="arrowUp.mouseout"/>
                  </use>
                  <path fill="none" stroke="white" stroke-width="1.5" d="M0,-3.0v7 M-2.5,-0.5L0,-3.0L2.5,-0.5"/>
                </g>
                <g id="arrowRight" xlink:href="#dirArrow" transform="rotate(90) translate(36 -43)" onmousedown="handlePan(1,0)">
                  <use xlink:href="#rim" fill="#404040">
                        <set attributeName="fill" to="#808080" begin="arrowRight.mouseover" end="arrowRight.mouseout"/>
                  </use>
                  <path fill="none" stroke="white" stroke-width="1.5" d="M0,-3.0v7 M-2.5,-0.5L0,-3.0L2.5,-0.5"/>
                </g>
                <g id="arrowDown" xlink:href="#dirArrow" transform="rotate(180) translate(-30 -48)" onmousedown="handlePan(0,1)">
                  <use xlink:href="#rim" fill="#404040">
                        <set attributeName="fill" to="#808080" begin="arrowDown.mouseover" end="arrowDown.mouseout"/>
                  </use>
                  <path fill="none" stroke="white" stroke-width="1.5" d="M0,-3.0v7 M-2.5,-0.5L0,-3.0L2.5,-0.5"/>
                </g>
                <g id="arrowLeft" xlink:href="#dirArrow" transform="rotate(270) translate(-36 17)" onmousedown="handlePan(-1,0)">
                  <use xlink:href="#rim" fill="#404040">
                        <set attributeName="fill" to="#808080" begin="arrowLeft.mouseover" end="arrowLeft.mouseout"/>
                  </use>
                  <path fill="none" stroke="white" stroke-width="1.5" d="M0,-3.0v7 M-2.5,-0.5L0,-3.0L2.5,-0.5"/>
                </g>
        </g>
        <svg viewBox="0 0 15 15" width="100%" height="30px" preserveAspectRatio="xMaxYMin meet">
         <g id="arrow_out" transform="scale(0.3 0.3)">
          <a xlink:href="structlemons_1_1_constructed_array__inherit__graph_org.svg" target="_base">
           <rect id="button" ry="5" rx="5" y="6" x="6" height="38" width="38"
                fill="#f2f5e9" fill-opacity="0.5" stroke="#606060" stroke-width="1.0"/>
           <path id="arrow"
             d="M 11.500037,31.436501 C 11.940474,20.09759 22.043105,11.32322 32.158766,21.979434 L 37.068811,17.246167 C 37.068811,17.246167 37.088388,32 37.088388,32 L 22.160133,31.978069 C 22.160133,31.978069 26.997745,27.140456 26.997745,27.140456 C 18.528582,18.264221 13.291696,25.230495 11.500037,31.436501 z"
             style="fill:#404040;"/>
          </a>
         </g>
        </svg>
</svg>
