<?xml version="1.0" encoding="UTF-8" standalone="no"?>
<!DOCTYPE svg PUBLIC "-//W3C//DTD SVG 1.1//EN"
 "http://www.w3.org/Graphics/SVG/1.1/DTD/svg11.dtd">
<!-- Generated by graphviz version 2.49.1 (20210923.0004)
 -->
<!-- Title: lemons::serializing::StringPairArrayInterface Pages: 1 -->
<svg width="677pt" height="80pt"
 viewBox="0.00 0.00 677.00 80.00" xmlns="http://www.w3.org/2000/svg" xmlns:xlink="http://www.w3.org/1999/xlink">
<g id="graph0" class="graph" transform="scale(1 1) rotate(0) translate(4 76)">
<title>lemons::serializing::StringPairArrayInterface</title>
<!-- Node1 -->
<g id="node1" class="node">
<title>Node1</title>
<g id="a_node1"><a xlink:title=" ">
<polygon fill="#bfbfbf" stroke="black" points="540,-36 540,-66 669,-66 669,-36 540,-36"/>
<text text-anchor="start" x="548" y="-54" font-family="Helvetica,sans-Serif" font-size="10.00">lemons::serializing</text>
<text text-anchor="middle" x="604.5" y="-43" font-family="Helvetica,sans-Serif" font-size="10.00">::StringPairArrayInterface</text>
</a>
</g>
</g>
<!-- Node2 -->
<g id="node2" class="node">
<title>Node2</title>
<g id="a_node2"><a xlink:href="structlemons_1_1serializing_1_1MapInterface.html" target="_top" xlink:title=" ">
<polygon fill="none" stroke="black" points="385,-30.5 385,-71.5 503,-71.5 503,-30.5 385,-30.5"/>
<text text-anchor="start" x="393" y="-59.5" font-family="Helvetica,sans-Serif" font-size="10.00">lemons::serializing</text>
<text text-anchor="start" x="393" y="-48.5" font-family="Helvetica,sans-Serif" font-size="10.00">::MapInterface&lt; String,</text>
<text text-anchor="middle" x="444" y="-37.5" font-family="Helvetica,sans-Serif" font-size="10.00"> String &gt;</text>
</a>
</g>
</g>
<!-- Node2&#45;&gt;Node1 -->
<g id="edge1" class="edge">
<title>Node2&#45;&gt;Node1</title>
<path fill="none" stroke="midnightblue" d="M513.32,-51C522.1,-51 531.07,-51 539.78,-51"/>
<polygon fill="midnightblue" stroke="midnightblue" points="513.12,-47.5 503.12,-51 513.12,-54.5 513.12,-47.5"/>
</g>
<!-- Node3 -->
<g id="node3" class="node">
<title>Node3</title>
<g id="a_node3"><a xlink:href="structlemons_1_1serializing_1_1MapInterfaceBase.html" target="_top" xlink:title=" ">
<polygon fill="none" stroke="black" points="0,-30 0,-60 103,-60 103,-30 0,-30"/>
<text text-anchor="start" x="8" y="-48" font-family="Helvetica,sans-Serif" font-size="10.00">lemons::serializing</text>
<text text-anchor="middle" x="51.5" y="-37" font-family="Helvetica,sans-Serif" font-size="10.00">::MapInterfaceBase</text>
</a>
</g>
</g>
<!-- Node3&#45;&gt;Node2 -->
<g id="edge2" class="edge">
<title>Node3&#45;&gt;Node2</title>
<path fill="none" stroke="midnightblue" d="M113.37,-49.57C176.72,-53.76 278.81,-58.9 367,-56 372.81,-55.81 378.88,-55.54 384.93,-55.21"/>
<polygon fill="midnightblue" stroke="midnightblue" points="113.37,-46.07 103.16,-48.89 112.9,-53.05 113.37,-46.07"/>
</g>
<!-- Node4 -->
<g id="node4" class="node">
<title>Node4</title>
<g id="a_node4"><a xlink:href="structlemons_1_1serializing_1_1MapInterface.html" target="_top" xlink:title=" ">
<polygon fill="none" stroke="black" points="140,-0.5 140,-41.5 271,-41.5 271,-0.5 140,-0.5"/>
<text text-anchor="start" x="148" y="-29.5" font-family="Helvetica,sans-Serif" font-size="10.00">lemons::serializing</text>
<text text-anchor="start" x="148" y="-18.5" font-family="Helvetica,sans-Serif" font-size="10.00">::MapInterface&lt; KeyType,</text>
<text text-anchor="middle" x="205.5" y="-7.5" font-family="Helvetica,sans-Serif" font-size="10.00"> ValueType &gt;</text>
</a>
</g>
</g>
<!-- Node3&#45;&gt;Node4 -->
<g id="edge4" class="edge">
<title>Node3&#45;&gt;Node4</title>
<path fill="none" stroke="midnightblue" d="M113.21,-35.41C121.95,-34.03 130.97,-32.61 139.78,-31.22"/>
<polygon fill="midnightblue" stroke="midnightblue" points="112.45,-31.99 103.11,-37.01 113.54,-38.91 112.45,-31.99"/>
</g>
<!-- Node4&#45;&gt;Node2 -->
<g id="edge3" class="edge">
<title>Node4&#45;&gt;Node2</title>
<path fill="none" stroke="orange" stroke-dasharray="5,2" d="M281.33,-30.49C314.81,-34.74 353.68,-39.67 384.92,-43.63"/>
<polygon fill="orange" stroke="orange" points="281.49,-26.98 271.12,-29.2 280.6,-33.93 281.49,-26.98"/>
<text text-anchor="middle" x="328" y="-44" font-family="Helvetica,sans-Serif" font-size="10.00"> &lt; String, String &gt;</text>
</g>
</g>
</svg>
