<?xml version="1.0" encoding="UTF-8" standalone="no"?>
<!DOCTYPE svg PUBLIC "-//W3C//DTD SVG 1.1//EN"
 "http://www.w3.org/Graphics/SVG/1.1/DTD/svg11.dtd">
<!-- Generated by graphviz version 2.43.0 (0)
 -->
<!-- Title: lemons::plugin::TypedParameter&lt; ValueType &gt;::Listener Pages: 1 -->
<svg width="181pt" height="162pt"
 viewBox="0.00 0.00 181.00 162.00" xmlns="http://www.w3.org/2000/svg" xmlns:xlink="http://www.w3.org/1999/xlink">
<g id="graph0" class="graph" transform="scale(1 1) rotate(0) translate(4 158)">
<title>lemons::plugin::TypedParameter&lt; ValueType &gt;::Listener</title>
<!-- Node1 -->
<g id="node1" class="node">
<title>Node1</title>
<g id="a_node1"><a xlink:title="A class that will recieve updates when aspects of a TypedParameter change.">
<polygon fill="#bfbfbf" stroke="black" points="0,-56.5 0,-86.5 173,-86.5 173,-56.5 0,-56.5"/>
<text text-anchor="start" x="8" y="-74.5" font-family="Helvetica,sans-Serif" font-size="10.00">lemons::plugin::TypedParameter</text>
<text text-anchor="middle" x="86.5" y="-63.5" font-family="Helvetica,sans-Serif" font-size="10.00">&lt; ValueType &gt;::Listener</text>
</a>
</g>
</g>
<!-- Node3 -->
<g id="node3" class="node">
<title>Node3</title>
<g id="a_node3"><a xlink:href="classlemons_1_1gui_1_1_float_slider.html" target="_top" xlink:title="Plugin slider that attaches to a float parameter.">
<polygon fill="none" stroke="black" points="20.5,-0.5 20.5,-19.5 152.5,-19.5 152.5,-0.5 20.5,-0.5"/>
<text text-anchor="middle" x="86.5" y="-7.5" font-family="Helvetica,sans-Serif" font-size="10.00">lemons::gui::FloatSlider</text>
</a>
</g>
</g>
<!-- Node1&#45;&gt;Node3 -->
<g id="edge2" class="edge">
<title>Node1&#45;&gt;Node3</title>
<path fill="none" stroke="#8b1a1a" d="M86.5,-46.29C86.5,-36.86 86.5,-26.65 86.5,-19.66"/>
<polygon fill="#8b1a1a" stroke="#8b1a1a" points="83,-46.4 86.5,-56.4 90,-46.4 83,-46.4"/>
</g>
<!-- Node2 -->
<g id="node2" class="node">
<title>Node2</title>
<g id="a_node2"><a xlink:href="structlemons_1_1plugin_1_1_parameter_1_1_listener.html" target="_top" xlink:title="A Listener class that will be notified when aspects of a Parameter change.">
<polygon fill="none" stroke="black" points="14,-123.5 14,-153.5 159,-153.5 159,-123.5 14,-123.5"/>
<text text-anchor="start" x="22" y="-141.5" font-family="Helvetica,sans-Serif" font-size="10.00">lemons::plugin::Parameter</text>
<text text-anchor="middle" x="86.5" y="-130.5" font-family="Helvetica,sans-Serif" font-size="10.00">::Listener</text>
</a>
</g>
</g>
<!-- Node2&#45;&gt;Node1 -->
<g id="edge1" class="edge">
<title>Node2&#45;&gt;Node1</title>
<path fill="none" stroke="midnightblue" d="M86.5,-113.11C86.5,-104.15 86.5,-94.32 86.5,-86.58"/>
<polygon fill="midnightblue" stroke="midnightblue" points="83,-113.4 86.5,-123.4 90,-113.4 83,-113.4"/>
</g>
</g>
</svg>
