<?xml version="1.0" encoding="UTF-8" standalone="no"?>
<!DOCTYPE svg PUBLIC "-//W3C//DTD SVG 1.1//EN"
 "http://www.w3.org/Graphics/SVG/1.1/DTD/svg11.dtd">
<!-- Generated by graphviz version 2.49.1 (20210923.0004)
 -->
<!-- Title: lemons::serializing::StringArrayInterface Pages: 1 -->
<svg width="707pt" height="80pt"
 viewBox="0.00 0.00 707.00 80.00" xmlns="http://www.w3.org/2000/svg" xmlns:xlink="http://www.w3.org/1999/xlink">
<g id="graph0" class="graph" transform="scale(1 1) rotate(0) translate(4 76)">
<title>lemons::serializing::StringArrayInterface</title>
<!-- Node1 -->
<g id="node1" class="node">
<title>Node1</title>
<g id="a_node1"><a xlink:title="Container interface that provides support for serializing juce::StringArrays with TreeReflector.">
<polygon fill="#bfbfbf" stroke="black" points="588,-36 588,-66 699,-66 699,-36 588,-36"/>
<text text-anchor="start" x="596" y="-54" font-family="Helvetica,sans-Serif" font-size="10.00">lemons::serializing</text>
<text text-anchor="middle" x="643.5" y="-43" font-family="Helvetica,sans-Serif" font-size="10.00">::StringArrayInterface</text>
</a>
</g>
</g>
<!-- Node2 -->
<g id="node2" class="node">
<title>Node2</title>
<g id="a_node2"><a xlink:href="structlemons_1_1serializing_1_1LambdaContainerInterface.html" target="_top" xlink:title=" ">
<polygon fill="none" stroke="black" points="411,-30.5 411,-71.5 551,-71.5 551,-30.5 411,-30.5"/>
<text text-anchor="start" x="419" y="-59.5" font-family="Helvetica,sans-Serif" font-size="10.00">lemons::serializing</text>
<text text-anchor="start" x="419" y="-48.5" font-family="Helvetica,sans-Serif" font-size="10.00">::LambdaContainerInterface</text>
<text text-anchor="middle" x="481" y="-37.5" font-family="Helvetica,sans-Serif" font-size="10.00">&lt; juce::StringArray &gt;</text>
</a>
</g>
</g>
<!-- Node2&#45;&gt;Node1 -->
<g id="edge1" class="edge">
<title>Node2&#45;&gt;Node1</title>
<path fill="none" stroke="midnightblue" d="M561.52,-51C570.46,-51 579.41,-51 587.92,-51"/>
<polygon fill="midnightblue" stroke="midnightblue" points="561.46,-47.5 551.46,-51 561.46,-54.5 561.46,-47.5"/>
</g>
<!-- Node3 -->
<g id="node3" class="node">
<title>Node3</title>
<g id="a_node3"><a xlink:href="structlemons_1_1serializing_1_1ContainerInterface.html" target="_top" xlink:title="Interface that defines how a TreeReflector can resize a given container during deserialization.">
<polygon fill="none" stroke="black" points="0,-30 0,-60 104,-60 104,-30 0,-30"/>
<text text-anchor="start" x="8" y="-48" font-family="Helvetica,sans-Serif" font-size="10.00">lemons::serializing</text>
<text text-anchor="middle" x="52" y="-37" font-family="Helvetica,sans-Serif" font-size="10.00">::ContainerInterface</text>
</a>
</g>
</g>
<!-- Node3&#45;&gt;Node2 -->
<g id="edge2" class="edge">
<title>Node3&#45;&gt;Node2</title>
<path fill="none" stroke="midnightblue" d="M114.2,-49.51C123.19,-50.08 132.33,-50.59 141,-51 252.89,-56.23 281.02,-57.57 393,-55 398.74,-54.87 404.7,-54.69 410.68,-54.47"/>
<polygon fill="midnightblue" stroke="midnightblue" points="114.37,-46.01 104.17,-48.86 113.92,-53 114.37,-46.01"/>
</g>
<!-- Node4 -->
<g id="node4" class="node">
<title>Node4</title>
<g id="a_node4"><a xlink:href="structlemons_1_1serializing_1_1LambdaContainerInterface.html" target="_top" xlink:title="Provides a slightly slicker interface to ContainerInterface, allowing you to supply a lambda function...">
<polygon fill="none" stroke="black" points="141,-0.5 141,-41.5 281,-41.5 281,-0.5 141,-0.5"/>
<text text-anchor="start" x="149" y="-29.5" font-family="Helvetica,sans-Serif" font-size="10.00">lemons::serializing</text>
<text text-anchor="start" x="149" y="-18.5" font-family="Helvetica,sans-Serif" font-size="10.00">::LambdaContainerInterface</text>
<text text-anchor="middle" x="211" y="-7.5" font-family="Helvetica,sans-Serif" font-size="10.00">&lt; ContainerType &gt;</text>
</a>
</g>
</g>
<!-- Node3&#45;&gt;Node4 -->
<g id="edge4" class="edge">
<title>Node3&#45;&gt;Node4</title>
<path fill="none" stroke="midnightblue" d="M114.4,-35.61C123.06,-34.29 132,-32.92 140.79,-31.58"/>
<polygon fill="midnightblue" stroke="midnightblue" points="113.76,-32.17 104.41,-37.14 114.82,-39.09 113.76,-32.17"/>
</g>
<!-- Node4&#45;&gt;Node2 -->
<g id="edge3" class="edge">
<title>Node4&#45;&gt;Node2</title>
<path fill="none" stroke="orange" stroke-dasharray="5,2" d="M291.02,-29.85C329.01,-34.1 374.13,-39.15 410.75,-43.25"/>
<polygon fill="orange" stroke="orange" points="291.34,-26.36 281.02,-28.73 290.57,-33.32 291.34,-26.36"/>
<text text-anchor="middle" x="346" y="-43" font-family="Helvetica,sans-Serif" font-size="10.00"> &lt; juce::StringArray &gt;</text>
</g>
</g>
</svg>
