<?xml version="1.0" encoding="UTF-8" standalone="no"?>
<!DOCTYPE svg PUBLIC "-//W3C//DTD SVG 1.1//EN"
 "http://www.w3.org/Graphics/SVG/1.1/DTD/svg11.dtd">
<!-- Generated by graphviz version 2.43.0 (0)
 -->
<!-- Title: lemons::dsp::FX::LevelReportingAudioEffect&lt; SampleType &gt; Pages: 1 -->
<!--zoomable 284 -->
<svg id="main" version="1.1" xmlns="http://www.w3.org/2000/svg" xmlns:xlink="http://www.w3.org/1999/xlink" xml:space="preserve" onload="init(evt)">
<style type="text/css"><![CDATA[
.edge:hover path { stroke: red; }
.edge:hover polygon { stroke: red; fill: red; }
]]></style>
<script type="text/javascript"><![CDATA[
var edges = document.getElementsByTagName('g');
if (edges && edges.length) {
  for (var i=0;i<edges.length;i++) {
    if (edges[i].id.substr(0,4)=='edge') {
      edges[i].setAttribute('class','edge');
    }
  }
}
]]></script>
        <defs>
                <circle id="rim" cx="0" cy="0" r="7"/>
                <circle id="rim2" cx="0" cy="0" r="3.5"/>
                <g id="zoomPlus">
                        <use xlink:href="#rim" fill="#404040">
                                <set attributeName="fill" to="#808080" begin="zoomplus.mouseover" end="zoomplus.mouseout"/>
                        </use>
                        <path d="M-4,0h8M0,-4v8" fill="none" stroke="white" stroke-width="1.5" pointer-events="none"/>
                </g>
                <g id="zoomMin">
                        <use xlink:href="#rim" fill="#404040">
                                <set attributeName="fill" to="#808080" begin="zoomminus.mouseover" end="zoomminus.mouseout"/>
                        </use>
                        <path d="M-4,0h8" fill="none" stroke="white" stroke-width="1.5" pointer-events="none"/>
                </g>
                <g id="dirArrow">
                        <path fill="none" stroke="white" stroke-width="1.5" d="M0,-3.0v7 M-2.5,-0.5L0,-3.0L2.5,-0.5"/>
                </g>
               <g id="resetDef">
                       <use xlink:href="#rim2" fill="#404040">
                               <set attributeName="fill" to="#808080" begin="reset.mouseover" end="reset.mouseout"/>
                       </use>
               </g>
        </defs>

<script type="text/javascript">
var viewWidth = 1258;
var viewHeight = 284;
var sectionId = 'dynsection-0';
</script>
<script xlink:href="svgpan.js"/>
<svg id="graph" class="graph">
<g id="viewport">
<title>lemons::dsp::FX::LevelReportingAudioEffect&lt; SampleType &gt;</title>
<!-- Node1 -->
<g id="node1" class="node">
<title>Node1</title>
<g id="a_node1"><a xlink:title="Base class for audio effects that can report their level or gain reduction.">
<polygon fill="#bfbfbf" stroke="black" points="575,-122.5 575,-152.5 749,-152.5 749,-122.5 575,-122.5"/>
<text text-anchor="start" x="583" y="-140.5" font-family="Helvetica,sans-Serif" font-size="10.00">lemons::dsp::FX::LevelReporting</text>
<text text-anchor="middle" x="662" y="-129.5" font-family="Helvetica,sans-Serif" font-size="10.00">AudioEffect&lt; SampleType &gt;</text>
</a>
</g>
</g>
<!-- Node5 -->
<g id="node5" class="node">
<title>Node5</title>
<g id="a_node5"><a xlink:href="classlemons_1_1dsp_1_1_f_x_1_1_compressor.html" target="_top" xlink:title="A simple compressor effect class that allows you to optionally sidechain the signal.">
<polygon fill="none" stroke="black" points="840.5,-245.5 840.5,-275.5 999.5,-275.5 999.5,-245.5 840.5,-245.5"/>
<text text-anchor="start" x="848.5" y="-263.5" font-family="Helvetica,sans-Serif" font-size="10.00">lemons::dsp::FX::Compressor</text>
<text text-anchor="middle" x="920" y="-252.5" font-family="Helvetica,sans-Serif" font-size="10.00">&lt; SampleType &gt;</text>
</a>
</g>
</g>
<!-- Node1&#45;&gt;Node5 -->
<g id="edge4" class="edge">
<title>Node1&#45;&gt;Node5</title>
<path fill="none" stroke="midnightblue" d="M693.33,-158.38C726.41,-180.36 781.52,-214.75 833,-236.5 840.85,-239.82 849.3,-242.82 857.73,-245.48"/>
<polygon fill="midnightblue" stroke="midnightblue" points="694.86,-155.19 684.6,-152.52 690.96,-161 694.86,-155.19"/>
</g>
<!-- Node7 -->
<g id="node7" class="node">
<title>Node7</title>
<g id="a_node7"><a xlink:href="classlemons_1_1dsp_1_1_f_x_1_1_de_esser.html" target="_top" xlink:title="A basic &quot;de&#45;esser&quot; effect class.">
<polygon fill="none" stroke="black" points="850,-196.5 850,-226.5 990,-226.5 990,-196.5 850,-196.5"/>
<text text-anchor="start" x="858" y="-214.5" font-family="Helvetica,sans-Serif" font-size="10.00">lemons::dsp::FX::DeEsser</text>
<text text-anchor="middle" x="920" y="-203.5" font-family="Helvetica,sans-Serif" font-size="10.00">&lt; SampleType &gt;</text>
</a>
</g>
</g>
<!-- Node1&#45;&gt;Node7 -->
<g id="edge6" class="edge">
<title>Node1&#45;&gt;Node7</title>
<path fill="none" stroke="midnightblue" d="M723.33,-155.46C755.79,-165.08 796.55,-177.05 833,-187.5 843.13,-190.4 853.95,-193.46 864.37,-196.38"/>
<polygon fill="midnightblue" stroke="midnightblue" points="724.11,-152.05 713.53,-152.56 722.12,-158.76 724.11,-152.05"/>
</g>
<!-- Node8 -->
<g id="node8" class="node">
<title>Node8</title>
<g id="a_node8"><a xlink:href="classlemons_1_1dsp_1_1_f_x_1_1_delay.html" target="_top" xlink:title=" ">
<polygon fill="none" stroke="black" points="855.5,-147.5 855.5,-177.5 984.5,-177.5 984.5,-147.5 855.5,-147.5"/>
<text text-anchor="start" x="863.5" y="-165.5" font-family="Helvetica,sans-Serif" font-size="10.00">lemons::dsp::FX::Delay</text>
<text text-anchor="middle" x="920" y="-154.5" font-family="Helvetica,sans-Serif" font-size="10.00">&lt; SampleType &gt;</text>
</a>
</g>
</g>
<!-- Node1&#45;&gt;Node8 -->
<g id="edge7" class="edge">
<title>Node1&#45;&gt;Node8</title>
<path fill="none" stroke="midnightblue" d="M759.6,-146.93C791.61,-150.06 826.41,-153.46 855.31,-156.28"/>
<polygon fill="midnightblue" stroke="midnightblue" points="759.61,-143.42 749.31,-145.93 758.93,-150.38 759.61,-143.42"/>
</g>
<!-- Node9 -->
<g id="node9" class="node">
<title>Node9</title>
<g id="a_node9"><a xlink:href="classlemons_1_1dsp_1_1_f_x_1_1_limiter.html" target="_top" xlink:title="A simple limiter effect class that allows you to optionally sidechain the signal.">
<polygon fill="none" stroke="black" points="852.5,-98.5 852.5,-128.5 987.5,-128.5 987.5,-98.5 852.5,-98.5"/>
<text text-anchor="start" x="860.5" y="-116.5" font-family="Helvetica,sans-Serif" font-size="10.00">lemons::dsp::FX::Limiter</text>
<text text-anchor="middle" x="920" y="-105.5" font-family="Helvetica,sans-Serif" font-size="10.00">&lt; SampleType &gt;</text>
</a>
</g>
</g>
<!-- Node1&#45;&gt;Node9 -->
<g id="edge8" class="edge">
<title>Node1&#45;&gt;Node9</title>
<path fill="none" stroke="midnightblue" d="M759.29,-128.47C790.35,-125.56 824.06,-122.4 852.48,-119.74"/>
<polygon fill="midnightblue" stroke="midnightblue" points="758.94,-124.99 749.31,-129.41 759.6,-131.96 758.94,-124.99"/>
</g>
<!-- Node10 -->
<g id="node10" class="node">
<title>Node10</title>
<g id="a_node10"><a xlink:href="classlemons_1_1dsp_1_1_f_x_1_1_noise_gate.html" target="_top" xlink:title="A simple noise gate effect class that allows you to optionally sidechain the signal.">
<polygon fill="none" stroke="black" points="844,-49.5 844,-79.5 996,-79.5 996,-49.5 844,-49.5"/>
<text text-anchor="start" x="852" y="-67.5" font-family="Helvetica,sans-Serif" font-size="10.00">lemons::dsp::FX::NoiseGate</text>
<text text-anchor="middle" x="920" y="-56.5" font-family="Helvetica,sans-Serif" font-size="10.00">&lt; SampleType &gt;</text>
</a>
</g>
</g>
<!-- Node1&#45;&gt;Node10 -->
<g id="edge9" class="edge">
<title>Node1&#45;&gt;Node10</title>
<path fill="none" stroke="midnightblue" d="M724.43,-119.66C756.72,-110.31 796.98,-98.72 833,-88.5 843.29,-85.58 854.28,-82.49 864.85,-79.54"/>
<polygon fill="midnightblue" stroke="midnightblue" points="723.31,-116.34 714.67,-122.48 725.25,-123.06 723.31,-116.34"/>
</g>
<!-- Node11 -->
<g id="node11" class="node">
<title>Node11</title>
<g id="a_node11"><a xlink:href="structlemons_1_1dsp_1_1_f_x_1_1_level_reporting_audio_effect.html" target="_top" xlink:title=" ">
<polygon fill="none" stroke="black" points="833,-0.5 833,-30.5 1007,-30.5 1007,-0.5 833,-0.5"/>
<text text-anchor="start" x="841" y="-18.5" font-family="Helvetica,sans-Serif" font-size="10.00">lemons::dsp::FX::LevelReporting</text>
<text text-anchor="middle" x="920" y="-7.5" font-family="Helvetica,sans-Serif" font-size="10.00">AudioEffect&lt; float &gt;</text>
</a>
</g>
</g>
<!-- Node1&#45;&gt;Node11 -->
<g id="edge10" class="edge">
<title>Node1&#45;&gt;Node11</title>
<path fill="none" stroke="orange" stroke-dasharray="5,2" d="M693.64,-116.67C726.77,-94.92 781.75,-61.02 833,-39.5 840.86,-36.2 849.31,-33.21 857.74,-30.55"/>
<polygon fill="orange" stroke="orange" points="691.3,-114.03 684.89,-122.47 695.16,-119.86 691.3,-114.03"/>
<text text-anchor="middle" x="791" y="-73.5" font-family="Helvetica,sans-Serif" font-size="10.00"> &lt; float &gt;</text>
</g>
<!-- Node2 -->
<g id="node2" class="node">
<title>Node2</title>
<g id="a_node2"><a xlink:href="structlemons_1_1dsp_1_1_f_x_1_1_sidechainable_audio_effect.html" target="_top" xlink:title="Base class for audio effects that accept a sidechain signal.">
<polygon fill="none" stroke="black" points="369,-122.5 369,-152.5 538,-152.5 538,-122.5 369,-122.5"/>
<text text-anchor="start" x="377" y="-140.5" font-family="Helvetica,sans-Serif" font-size="10.00">lemons::dsp::FX::Sidechainable</text>
<text text-anchor="middle" x="453.5" y="-129.5" font-family="Helvetica,sans-Serif" font-size="10.00">AudioEffect&lt; SampleType &gt;</text>
</a>
</g>
</g>
<!-- Node2&#45;&gt;Node1 -->
<g id="edge1" class="edge">
<title>Node2&#45;&gt;Node1</title>
<path fill="none" stroke="midnightblue" d="M548.45,-137.5C557.24,-137.5 566.12,-137.5 574.83,-137.5"/>
<polygon fill="midnightblue" stroke="midnightblue" points="548.19,-134 538.19,-137.5 548.19,-141 548.19,-134"/>
</g>
<!-- Node3 -->
<g id="node3" class="node">
<title>Node3</title>
<g id="a_node3"><a xlink:href="structlemons_1_1dsp_1_1_f_x_1_1_audio_effect.html" target="_top" xlink:title="Base class for any kind of audio effect.">
<polygon fill="none" stroke="black" points="176,-122.5 176,-152.5 332,-152.5 332,-122.5 176,-122.5"/>
<text text-anchor="start" x="184" y="-140.5" font-family="Helvetica,sans-Serif" font-size="10.00">lemons::dsp::FX::AudioEffect</text>
<text text-anchor="middle" x="254" y="-129.5" font-family="Helvetica,sans-Serif" font-size="10.00">&lt; SampleType &gt;</text>
</a>
</g>
</g>
<!-- Node3&#45;&gt;Node2 -->
<g id="edge2" class="edge">
<title>Node3&#45;&gt;Node2</title>
<path fill="none" stroke="midnightblue" d="M342.43,-137.5C351.2,-137.5 360.09,-137.5 368.82,-137.5"/>
<polygon fill="midnightblue" stroke="midnightblue" points="342.21,-134 332.21,-137.5 342.21,-141 342.21,-134"/>
</g>
<!-- Node4 -->
<g id="node4" class="node">
<title>Node4</title>
<g id="a_node4"><a xlink:href="structlemons_1_1_serializable_data.html" target="_top" xlink:title="Base class for any C++ object that needs to be serialized to binary and back.">
<polygon fill="none" stroke="black" points="0,-128 0,-147 139,-147 139,-128 0,-128"/>
<text text-anchor="middle" x="69.5" y="-135" font-family="Helvetica,sans-Serif" font-size="10.00">lemons::SerializableData</text>
</a>
</g>
</g>
<!-- Node4&#45;&gt;Node3 -->
<g id="edge3" class="edge">
<title>Node4&#45;&gt;Node3</title>
<path fill="none" stroke="midnightblue" d="M149.41,-137.5C158.15,-137.5 167.04,-137.5 175.76,-137.5"/>
<polygon fill="midnightblue" stroke="midnightblue" points="149.24,-134 139.24,-137.5 149.24,-141 149.24,-134"/>
</g>
<!-- Node6 -->
<g id="node6" class="node">
<title>Node6</title>
<g id="a_node6"><a xlink:href="classlemons_1_1dsp_1_1_f_x_1_1_compressor.html" target="_top" xlink:title=" ">
<polygon fill="none" stroke="black" points="1091,-122.5 1091,-152.5 1250,-152.5 1250,-122.5 1091,-122.5"/>
<text text-anchor="start" x="1099" y="-140.5" font-family="Helvetica,sans-Serif" font-size="10.00">lemons::dsp::FX::Compressor</text>
<text text-anchor="middle" x="1170.5" y="-129.5" font-family="Helvetica,sans-Serif" font-size="10.00">&lt; float &gt;</text>
</a>
</g>
</g>
<!-- Node5&#45;&gt;Node6 -->
<g id="edge5" class="edge">
<title>Node5&#45;&gt;Node6</title>
<path fill="none" stroke="orange" stroke-dasharray="5,2" d="M992.44,-242.22C997.42,-240.44 1002.32,-238.53 1007,-236.5 1061.24,-212.95 1119.08,-173.93 1148.96,-152.59"/>
<polygon fill="orange" stroke="orange" points="991.14,-238.96 982.79,-245.48 993.39,-245.59 991.14,-238.96"/>
<text text-anchor="middle" x="1049" y="-230.5" font-family="Helvetica,sans-Serif" font-size="10.00"> &lt; float &gt;</text>
</g>
<!-- Node11&#45;&gt;Node6 -->
<g id="edge11" class="edge">
<title>Node11&#45;&gt;Node6</title>
<path fill="none" stroke="midnightblue" d="M992.43,-33.81C997.42,-35.58 1002.32,-37.48 1007,-39.5 1060.99,-62.8 1118.7,-101.25 1148.68,-122.4"/>
<polygon fill="midnightblue" stroke="midnightblue" points="993.37,-30.43 982.78,-30.55 991.14,-37.06 993.37,-30.43"/>
</g>
</g>
</svg>
        <g id="navigator" transform="translate(0 0)" fill="#404254">
                <rect fill="#f2f5e9" fill-opacity="0.5" stroke="#606060" stroke-width=".5" x="0" y="0" width="60" height="60"/>
                <use id="zoomplus" xlink:href="#zoomPlus" x="17" y="9" onmousedown="handleZoom(evt,'in')"/>
                <use id="zoomminus" xlink:href="#zoomMin" x="42" y="9" onmousedown="handleZoom(evt,'out')"/>
                <use id="reset" xlink:href="#resetDef" x="30" y="36" onmousedown="handleReset()"/>
                <g id="arrowUp" xlink:href="#dirArrow" transform="translate(30 24)" onmousedown="handlePan(0,-1)">
                  <use xlink:href="#rim" fill="#404040">
                        <set attributeName="fill" to="#808080" begin="arrowUp.mouseover" end="arrowUp.mouseout"/>
                  </use>
                  <path fill="none" stroke="white" stroke-width="1.5" d="M0,-3.0v7 M-2.5,-0.5L0,-3.0L2.5,-0.5"/>
                </g>
                <g id="arrowRight" xlink:href="#dirArrow" transform="rotate(90) translate(36 -43)" onmousedown="handlePan(1,0)">
                  <use xlink:href="#rim" fill="#404040">
                        <set attributeName="fill" to="#808080" begin="arrowRight.mouseover" end="arrowRight.mouseout"/>
                  </use>
                  <path fill="none" stroke="white" stroke-width="1.5" d="M0,-3.0v7 M-2.5,-0.5L0,-3.0L2.5,-0.5"/>
                </g>
                <g id="arrowDown" xlink:href="#dirArrow" transform="rotate(180) translate(-30 -48)" onmousedown="handlePan(0,1)">
                  <use xlink:href="#rim" fill="#404040">
                        <set attributeName="fill" to="#808080" begin="arrowDown.mouseover" end="arrowDown.mouseout"/>
                  </use>
                  <path fill="none" stroke="white" stroke-width="1.5" d="M0,-3.0v7 M-2.5,-0.5L0,-3.0L2.5,-0.5"/>
                </g>
                <g id="arrowLeft" xlink:href="#dirArrow" transform="rotate(270) translate(-36 17)" onmousedown="handlePan(-1,0)">
                  <use xlink:href="#rim" fill="#404040">
                        <set attributeName="fill" to="#808080" begin="arrowLeft.mouseover" end="arrowLeft.mouseout"/>
                  </use>
                  <path fill="none" stroke="white" stroke-width="1.5" d="M0,-3.0v7 M-2.5,-0.5L0,-3.0L2.5,-0.5"/>
                </g>
        </g>
        <svg viewBox="0 0 15 15" width="100%" height="30px" preserveAspectRatio="xMaxYMin meet">
         <g id="arrow_out" transform="scale(0.3 0.3)">
          <a xlink:href="structlemons_1_1dsp_1_1_f_x_1_1_level_reporting_audio_effect__inherit__graph_org.svg" target="_base">
           <rect id="button" ry="5" rx="5" y="6" x="6" height="38" width="38"
                fill="#f2f5e9" fill-opacity="0.5" stroke="#606060" stroke-width="1.0"/>
           <path id="arrow"
             d="M 11.500037,31.436501 C 11.940474,20.09759 22.043105,11.32322 32.158766,21.979434 L 37.068811,17.246167 C 37.068811,17.246167 37.088388,32 37.088388,32 L 22.160133,31.978069 C 22.160133,31.978069 26.997745,27.140456 26.997745,27.140456 C 18.528582,18.264221 13.291696,25.230495 11.500037,31.436501 z"
             style="fill:#404040;"/>
          </a>
         </g>
        </svg>
</svg>
