<?xml version="1.0" encoding="UTF-8" standalone="no"?>
<!DOCTYPE svg PUBLIC "-//W3C//DTD SVG 1.1//EN"
 "http://www.w3.org/Graphics/SVG/1.1/DTD/svg11.dtd">
<!-- Generated by graphviz version 2.43.0 (0)
 -->
<!-- Title: lemons::plugin::Parameter::Listener Pages: 1 -->
<svg width="530pt" height="91pt"
 viewBox="0.00 0.00 530.00 91.00" xmlns="http://www.w3.org/2000/svg" xmlns:xlink="http://www.w3.org/1999/xlink">
<g id="graph0" class="graph" transform="scale(1 1) rotate(0) translate(4 87)">
<title>lemons::plugin::Parameter::Listener</title>
<!-- Node1 -->
<g id="node1" class="node">
<title>Node1</title>
<g id="a_node1"><a xlink:title="A Listener class that will be notified when aspects of a Parameter change.">
<polygon fill="#bfbfbf" stroke="black" points="0,-36 0,-66 145,-66 145,-36 0,-36"/>
<text text-anchor="start" x="8" y="-54" font-family="Helvetica,sans-Serif" font-size="10.00">lemons::plugin::Parameter</text>
<text text-anchor="middle" x="72.5" y="-43" font-family="Helvetica,sans-Serif" font-size="10.00">::Listener</text>
</a>
</g>
</g>
<!-- Node2 -->
<g id="node2" class="node">
<title>Node2</title>
<g id="a_node2"><a xlink:href="structlemons_1_1plugin_1_1ParamUpdater.html" target="_top" xlink:title="A listener class that calls lambda functions when a parameter&#39;s value or gesture state changes.">
<polygon fill="none" stroke="black" points="185.5,-63.5 185.5,-82.5 349.5,-82.5 349.5,-63.5 185.5,-63.5"/>
<text text-anchor="middle" x="267.5" y="-70.5" font-family="Helvetica,sans-Serif" font-size="10.00">lemons::plugin::ParamUpdater</text>
</a>
</g>
</g>
<!-- Node1&#45;&gt;Node2 -->
<g id="edge1" class="edge">
<title>Node1&#45;&gt;Node2</title>
<path fill="none" stroke="midnightblue" d="M155.33,-60.33C165.24,-61.46 175.36,-62.61 185.27,-63.74"/>
<polygon fill="midnightblue" stroke="midnightblue" points="155.42,-56.82 145.09,-59.16 154.63,-63.77 155.42,-56.82"/>
</g>
<!-- Node3 -->
<g id="node3" class="node">
<title>Node3</title>
<g id="a_node3"><a xlink:href="structlemons_1_1plugin_1_1TypedParameter_1_1Listener.html" target="_top" xlink:title="A class that will recieve updates when aspects of a TypedParameter change.">
<polygon fill="none" stroke="black" points="181,-14 181,-44 354,-44 354,-14 181,-14"/>
<text text-anchor="start" x="189" y="-32" font-family="Helvetica,sans-Serif" font-size="10.00">lemons::plugin::TypedParameter</text>
<text text-anchor="middle" x="267.5" y="-21" font-family="Helvetica,sans-Serif" font-size="10.00">&lt; ValueType &gt;::Listener</text>
</a>
</g>
</g>
<!-- Node1&#45;&gt;Node3 -->
<g id="edge2" class="edge">
<title>Node1&#45;&gt;Node3</title>
<path fill="none" stroke="midnightblue" d="M155.07,-41.7C163.64,-40.73 172.37,-39.73 180.99,-38.75"/>
<polygon fill="midnightblue" stroke="midnightblue" points="154.63,-38.23 145.09,-42.84 155.42,-45.18 154.63,-38.23"/>
</g>
<!-- Node4 -->
<g id="node4" class="node">
<title>Node4</title>
<g id="a_node4"><a xlink:href="classlemons_1_1gui_1_1FloatSlider.html" target="_top" xlink:title="Plugin slider that attaches to a float parameter.">
<polygon fill="none" stroke="black" points="390,-38.5 390,-57.5 522,-57.5 522,-38.5 390,-38.5"/>
<text text-anchor="middle" x="456" y="-45.5" font-family="Helvetica,sans-Serif" font-size="10.00">lemons::gui::FloatSlider</text>
</a>
</g>
</g>
<!-- Node3&#45;&gt;Node4 -->
<g id="edge3" class="edge">
<title>Node3&#45;&gt;Node4</title>
<path fill="none" stroke="#8b1a1a" d="M364.23,-38.75C372.86,-39.63 381.45,-40.51 389.73,-41.35"/>
<polygon fill="#8b1a1a" stroke="#8b1a1a" points="364.41,-35.25 354.11,-37.72 363.7,-42.22 364.41,-35.25"/>
</g>
<!-- Node5 -->
<g id="node5" class="node">
<title>Node5</title>
<g id="a_node5"><a xlink:href="classlemons_1_1gui_1_1IntSlider.html" target="_top" xlink:title="Plugin slider that attaches to an integer parameter.">
<polygon fill="none" stroke="black" points="396,-0.5 396,-19.5 516,-19.5 516,-0.5 396,-0.5"/>
<text text-anchor="middle" x="456" y="-7.5" font-family="Helvetica,sans-Serif" font-size="10.00">lemons::gui::IntSlider</text>
</a>
</g>
</g>
<!-- Node3&#45;&gt;Node5 -->
<g id="edge4" class="edge">
<title>Node3&#45;&gt;Node5</title>
<path fill="none" stroke="#8b1a1a" d="M364.36,-19.23C375.05,-18.14 385.7,-17.06 395.74,-16.04"/>
<polygon fill="#8b1a1a" stroke="#8b1a1a" points="363.7,-15.78 354.11,-20.28 364.41,-22.75 363.7,-15.78"/>
</g>
</g>
</svg>
