<?xml version="1.0" encoding="UTF-8" standalone="no"?>
<!DOCTYPE svg PUBLIC "-//W3C//DTD SVG 1.1//EN"
 "http://www.w3.org/Graphics/SVG/1.1/DTD/svg11.dtd">
<!-- Generated by graphviz version 2.50.0 (20211204.2007)
 -->
<!-- Title: lemons::dsp::FX::AudioEffect&lt; SampleType &gt; Pages: 1 -->
<svg width="725pt" height="284pt"
 viewBox="0.00 0.00 725.00 284.00" xmlns="http://www.w3.org/2000/svg" xmlns:xlink="http://www.w3.org/1999/xlink">
<g id="graph0" class="graph" transform="scale(1 1) rotate(0) translate(4 280)">
<title>lemons::dsp::FX::AudioEffect&lt; SampleType &gt;</title>
<!-- Node1 -->
<g id="node1" class="node">
<title>Node1</title>
<g id="a_node1"><a xlink:title="Base class for any kind of audio effect.">
<polygon fill="#bfbfbf" stroke="black" points="0,-122.5 0,-152.5 146,-152.5 146,-122.5 0,-122.5"/>
<text text-anchor="start" x="8" y="-140.5" font-family="Helvetica,sans-Serif" font-size="10.00">lemons::dsp::FX::AudioEffect</text>
<text text-anchor="middle" x="73" y="-129.5" font-family="Helvetica,sans-Serif" font-size="10.00">&lt; SampleType &gt;</text>
</a>
</g>
</g>
<!-- Node2 -->
<g id="node2" class="node">
<title>Node2</title>
<g id="a_node2"><a xlink:href="classlemons_1_1dsp_1_1_f_x_1_1_e_q.html" target="_top" xlink:title="An equalizer effect class.">
<polygon fill="none" stroke="black" points="205,-245.5 205,-275.5 314,-275.5 314,-245.5 205,-245.5"/>
<text text-anchor="start" x="213" y="-263.5" font-family="Helvetica,sans-Serif" font-size="10.00">lemons::dsp::FX::EQ</text>
<text text-anchor="middle" x="259.5" y="-252.5" font-family="Helvetica,sans-Serif" font-size="10.00">&lt; SampleType &gt;</text>
</a>
</g>
</g>
<!-- Node1&#45;&gt;Node2 -->
<g id="edge1" class="edge">
<title>Node1&#45;&gt;Node2</title>
<path fill="none" stroke="midnightblue" d="M93.52,-160.49C113.61,-182.83 146.87,-216.25 182,-236.5 189.11,-240.6 197.01,-244.09 204.96,-247.02"/>
<polygon fill="midnightblue" stroke="midnightblue" points="95.97,-157.99 86.73,-152.81 90.73,-162.62 95.97,-157.99"/>
</g>
<!-- Node3 -->
<g id="node3" class="node">
<title>Node3</title>
<g id="a_node3"><a xlink:href="classlemons_1_1dsp_1_1_f_x_1_1_filter.html" target="_top" xlink:title="A filter audio effect class that wraps the more low&#45;level filters::Filter.">
<polygon fill="none" stroke="black" points="201.5,-196.5 201.5,-226.5 317.5,-226.5 317.5,-196.5 201.5,-196.5"/>
<text text-anchor="start" x="209.5" y="-214.5" font-family="Helvetica,sans-Serif" font-size="10.00">lemons::dsp::FX::Filter</text>
<text text-anchor="middle" x="259.5" y="-203.5" font-family="Helvetica,sans-Serif" font-size="10.00">&lt; SampleType &gt;</text>
</a>
</g>
</g>
<!-- Node1&#45;&gt;Node3 -->
<g id="edge2" class="edge">
<title>Node1&#45;&gt;Node3</title>
<path fill="none" stroke="midnightblue" d="M113.04,-157.06C133.34,-166.85 158.71,-178.5 182,-187.5 190.05,-190.61 198.69,-193.62 207.16,-196.4"/>
<polygon fill="midnightblue" stroke="midnightblue" points="114.33,-153.8 103.81,-152.57 111.27,-160.09 114.33,-153.8"/>
</g>
<!-- Node4 -->
<g id="node4" class="node">
<title>Node4</title>
<g id="a_node4"><a xlink:href="classlemons_1_1dsp_1_1_f_x_1_1_saturator.html" target="_top" xlink:title=" ">
<polygon fill="none" stroke="black" points="192.5,-147.5 192.5,-177.5 326.5,-177.5 326.5,-147.5 192.5,-147.5"/>
<text text-anchor="start" x="200.5" y="-165.5" font-family="Helvetica,sans-Serif" font-size="10.00">lemons::dsp::FX::Saturator</text>
<text text-anchor="middle" x="259.5" y="-154.5" font-family="Helvetica,sans-Serif" font-size="10.00">&lt; SampleType &gt;</text>
</a>
</g>
</g>
<!-- Node1&#45;&gt;Node4 -->
<g id="edge3" class="edge">
<title>Node1&#45;&gt;Node4</title>
<path fill="none" stroke="#8b1a1a" d="M156.23,-148.64C168.35,-150.28 180.71,-151.96 192.44,-153.55"/>
<polygon fill="#8b1a1a" stroke="#8b1a1a" points="156.5,-145.15 146.13,-147.27 155.56,-152.08 156.5,-145.15"/>
</g>
<!-- Node5 -->
<g id="node5" class="node">
<title>Node5</title>
<g id="a_node5"><a xlink:href="structlemons_1_1dsp_1_1_f_x_1_1_sidechainable_audio_effect.html" target="_top" xlink:title="Base class for audio effects that accept a sidechain signal.">
<polygon fill="none" stroke="black" points="182,-98.5 182,-128.5 337,-128.5 337,-98.5 182,-98.5"/>
<text text-anchor="start" x="190" y="-116.5" font-family="Helvetica,sans-Serif" font-size="10.00">lemons::dsp::FX::Sidechainable</text>
<text text-anchor="middle" x="259.5" y="-105.5" font-family="Helvetica,sans-Serif" font-size="10.00">AudioEffect&lt; SampleType &gt;</text>
</a>
</g>
</g>
<!-- Node1&#45;&gt;Node5 -->
<g id="edge4" class="edge">
<title>Node1&#45;&gt;Node5</title>
<path fill="none" stroke="midnightblue" d="M156.11,-126.82C164.67,-125.71 173.36,-124.58 181.86,-123.47"/>
<polygon fill="midnightblue" stroke="midnightblue" points="155.59,-123.36 146.13,-128.12 156.49,-130.3 155.59,-123.36"/>
</g>
<!-- Node12 -->
<g id="node12" class="node">
<title>Node12</title>
<g id="a_node12"><a xlink:href="classlemons_1_1dsp_1_1_f_x_1_1_smoothed_gain.html" target="_top" xlink:title="A handy effect class that allows you to change the gain of a stream of audio, and will smooth the cha...">
<polygon fill="none" stroke="black" points="182.5,-49.5 182.5,-79.5 336.5,-79.5 336.5,-49.5 182.5,-49.5"/>
<text text-anchor="start" x="190.5" y="-67.5" font-family="Helvetica,sans-Serif" font-size="10.00">lemons::dsp::FX::Smoothed</text>
<text text-anchor="middle" x="259.5" y="-56.5" font-family="Helvetica,sans-Serif" font-size="10.00">Gain&lt; SampleType, channels &gt;</text>
</a>
</g>
</g>
<!-- Node1&#45;&gt;Node12 -->
<g id="edge11" class="edge">
<title>Node1&#45;&gt;Node12</title>
<path fill="none" stroke="midnightblue" d="M114.92,-118.13C134.94,-108.96 159.51,-98.14 182,-89.5 190.87,-86.09 200.42,-82.73 209.67,-79.63"/>
<polygon fill="midnightblue" stroke="midnightblue" points="113.39,-114.98 105.77,-122.35 116.32,-121.34 113.39,-114.98"/>
</g>
<!-- Node13 -->
<g id="node13" class="node">
<title>Node13</title>
<g id="a_node13"><a xlink:href="classlemons_1_1dsp_1_1_f_x_1_1_stereo_panner.html" target="_top" xlink:title=" ">
<polygon fill="none" stroke="black" points="182.5,-0.5 182.5,-30.5 336.5,-30.5 336.5,-0.5 182.5,-0.5"/>
<text text-anchor="start" x="190.5" y="-18.5" font-family="Helvetica,sans-Serif" font-size="10.00">lemons::dsp::FX::StereoPanner</text>
<text text-anchor="middle" x="259.5" y="-7.5" font-family="Helvetica,sans-Serif" font-size="10.00">&lt; SampleType &gt;</text>
</a>
</g>
</g>
<!-- Node1&#45;&gt;Node13 -->
<g id="edge12" class="edge">
<title>Node1&#45;&gt;Node13</title>
<path fill="none" stroke="midnightblue" d="M94,-114.71C114.24,-92.92 147.4,-60.48 182,-40.5 188.53,-36.73 195.71,-33.43 202.98,-30.58"/>
<polygon fill="midnightblue" stroke="midnightblue" points="91.31,-112.48 87.15,-122.22 96.48,-117.19 91.31,-112.48"/>
</g>
<!-- Node6 -->
<g id="node6" class="node">
<title>Node6</title>
<g id="a_node6"><a xlink:href="structlemons_1_1dsp_1_1_f_x_1_1_level_reporting_audio_effect.html" target="_top" xlink:title="Base class for audio effects that can report their level or gain reduction.">
<polygon fill="none" stroke="black" points="373,-98.5 373,-128.5 533,-128.5 533,-98.5 373,-98.5"/>
<text text-anchor="start" x="381" y="-116.5" font-family="Helvetica,sans-Serif" font-size="10.00">lemons::dsp::FX::LevelReporting</text>
<text text-anchor="middle" x="453" y="-105.5" font-family="Helvetica,sans-Serif" font-size="10.00">AudioEffect&lt; SampleType &gt;</text>
</a>
</g>
</g>
<!-- Node5&#45;&gt;Node6 -->
<g id="edge5" class="edge">
<title>Node5&#45;&gt;Node6</title>
<path fill="none" stroke="midnightblue" d="M347.02,-113.5C355.61,-113.5 364.29,-113.5 372.79,-113.5"/>
<polygon fill="midnightblue" stroke="midnightblue" points="347.01,-110 337.01,-113.5 347.01,-117 347.01,-110"/>
</g>
<!-- Node7 -->
<g id="node7" class="node">
<title>Node7</title>
<g id="a_node7"><a xlink:href="classlemons_1_1dsp_1_1_f_x_1_1_compressor.html" target="_top" xlink:title="A simple compressor effect class that allows you to optionally sidechain the signal.">
<polygon fill="none" stroke="black" points="569,-196.5 569,-226.5 717,-226.5 717,-196.5 569,-196.5"/>
<text text-anchor="start" x="577" y="-214.5" font-family="Helvetica,sans-Serif" font-size="10.00">lemons::dsp::FX::Compressor</text>
<text text-anchor="middle" x="643" y="-203.5" font-family="Helvetica,sans-Serif" font-size="10.00">&lt; SampleType &gt;</text>
</a>
</g>
</g>
<!-- Node6&#45;&gt;Node7 -->
<g id="edge6" class="edge">
<title>Node6&#45;&gt;Node7</title>
<path fill="none" stroke="midnightblue" d="M481.98,-134.39C504.57,-150.52 537.64,-172.56 569,-187.5 575.86,-190.77 583.29,-193.78 590.69,-196.47"/>
<polygon fill="midnightblue" stroke="midnightblue" points="484.01,-131.54 473.86,-128.52 479.91,-137.21 484.01,-131.54"/>
</g>
<!-- Node8 -->
<g id="node8" class="node">
<title>Node8</title>
<g id="a_node8"><a xlink:href="classlemons_1_1dsp_1_1_f_x_1_1_de_esser.html" target="_top" xlink:title="A basic &quot;de&#45;esser&quot; effect class.">
<polygon fill="none" stroke="black" points="576.5,-147.5 576.5,-177.5 709.5,-177.5 709.5,-147.5 576.5,-147.5"/>
<text text-anchor="start" x="584.5" y="-165.5" font-family="Helvetica,sans-Serif" font-size="10.00">lemons::dsp::FX::DeEsser</text>
<text text-anchor="middle" x="643" y="-154.5" font-family="Helvetica,sans-Serif" font-size="10.00">&lt; SampleType &gt;</text>
</a>
</g>
</g>
<!-- Node6&#45;&gt;Node8 -->
<g id="edge7" class="edge">
<title>Node6&#45;&gt;Node8</title>
<path fill="none" stroke="midnightblue" d="M521.61,-131.12C542.18,-136.48 564.58,-142.32 584.43,-147.49"/>
<polygon fill="midnightblue" stroke="midnightblue" points="522.24,-127.67 511.68,-128.53 520.48,-134.44 522.24,-127.67"/>
</g>
<!-- Node9 -->
<g id="node9" class="node">
<title>Node9</title>
<g id="a_node9"><a xlink:href="classlemons_1_1dsp_1_1_f_x_1_1_delay.html" target="_top" xlink:title=" ">
<polygon fill="none" stroke="black" points="583,-98.5 583,-128.5 703,-128.5 703,-98.5 583,-98.5"/>
<text text-anchor="start" x="591" y="-116.5" font-family="Helvetica,sans-Serif" font-size="10.00">lemons::dsp::FX::Delay</text>
<text text-anchor="middle" x="643" y="-105.5" font-family="Helvetica,sans-Serif" font-size="10.00">&lt; SampleType &gt;</text>
</a>
</g>
</g>
<!-- Node6&#45;&gt;Node9 -->
<g id="edge8" class="edge">
<title>Node6&#45;&gt;Node9</title>
<path fill="none" stroke="midnightblue" d="M543.4,-113.5C556.81,-113.5 570.34,-113.5 582.9,-113.5"/>
<polygon fill="midnightblue" stroke="midnightblue" points="543.18,-110 533.18,-113.5 543.18,-117 543.18,-110"/>
</g>
<!-- Node10 -->
<g id="node10" class="node">
<title>Node10</title>
<g id="a_node10"><a xlink:href="classlemons_1_1dsp_1_1_f_x_1_1_limiter.html" target="_top" xlink:title="A simple limiter effect class that allows you to optionally sidechain the signal.">
<polygon fill="none" stroke="black" points="581,-49.5 581,-79.5 705,-79.5 705,-49.5 581,-49.5"/>
<text text-anchor="start" x="589" y="-67.5" font-family="Helvetica,sans-Serif" font-size="10.00">lemons::dsp::FX::Limiter</text>
<text text-anchor="middle" x="643" y="-56.5" font-family="Helvetica,sans-Serif" font-size="10.00">&lt; SampleType &gt;</text>
</a>
</g>
</g>
<!-- Node6&#45;&gt;Node10 -->
<g id="edge9" class="edge">
<title>Node6&#45;&gt;Node10</title>
<path fill="none" stroke="midnightblue" d="M521.61,-95.88C542.18,-90.52 564.58,-84.68 584.43,-79.51"/>
<polygon fill="midnightblue" stroke="midnightblue" points="520.48,-92.56 511.68,-98.47 522.24,-99.33 520.48,-92.56"/>
</g>
<!-- Node11 -->
<g id="node11" class="node">
<title>Node11</title>
<g id="a_node11"><a xlink:href="classlemons_1_1dsp_1_1_f_x_1_1_noise_gate.html" target="_top" xlink:title="A simple noise gate effect class that allows you to optionally sidechain the signal.">
<polygon fill="none" stroke="black" points="572.5,-0.5 572.5,-30.5 713.5,-30.5 713.5,-0.5 572.5,-0.5"/>
<text text-anchor="start" x="580.5" y="-18.5" font-family="Helvetica,sans-Serif" font-size="10.00">lemons::dsp::FX::NoiseGate</text>
<text text-anchor="middle" x="643" y="-7.5" font-family="Helvetica,sans-Serif" font-size="10.00">&lt; SampleType &gt;</text>
</a>
</g>
</g>
<!-- Node6&#45;&gt;Node11 -->
<g id="edge10" class="edge">
<title>Node6&#45;&gt;Node11</title>
<path fill="none" stroke="midnightblue" d="M482.78,-92.53C505.4,-76.73 538.14,-55.32 569,-40.5 576.49,-36.9 584.63,-33.58 592.67,-30.62"/>
<polygon fill="midnightblue" stroke="midnightblue" points="480.48,-89.87 474.34,-98.5 484.52,-95.59 480.48,-89.87"/>
</g>
</g>
</svg>
