<?xml version="1.0" encoding="UTF-8" standalone="no"?>
<!DOCTYPE svg PUBLIC "-//W3C//DTD SVG 1.1//EN"
 "http://www.w3.org/Graphics/SVG/1.1/DTD/svg11.dtd">
<!-- Generated by graphviz version 2.49.1 (20210923.0004)
 -->
<!-- Title: lemons::serializing::LambdaContainerInterface&lt; ContainerType &gt; Pages: 1 -->
<svg width="833pt" height="302pt"
 viewBox="0.00 0.00 833.00 302.00" xmlns="http://www.w3.org/2000/svg" xmlns:xlink="http://www.w3.org/1999/xlink">
<g id="graph0" class="graph" transform="scale(1 1) rotate(0) translate(4 298)">
<title>lemons::serializing::LambdaContainerInterface&lt; ContainerType &gt;</title>
<!-- Node1 -->
<g id="node1" class="node">
<title>Node1</title>
<g id="a_node1"><a xlink:title="Provides a slightly slicker interface to ContainerInterface, allowing you to supply a lambda function...">
<polygon fill="#bfbfbf" stroke="black" points="141,-132.5 141,-173.5 281,-173.5 281,-132.5 141,-132.5"/>
<text text-anchor="start" x="149" y="-161.5" font-family="Helvetica,sans-Serif" font-size="10.00">lemons::serializing</text>
<text text-anchor="start" x="149" y="-150.5" font-family="Helvetica,sans-Serif" font-size="10.00">::LambdaContainerInterface</text>
<text text-anchor="middle" x="211" y="-139.5" font-family="Helvetica,sans-Serif" font-size="10.00">&lt; ContainerType &gt;</text>
</a>
</g>
</g>
<!-- Node3 -->
<g id="node3" class="node">
<title>Node3</title>
<g id="a_node3"><a xlink:href="structlemons_1_1serializing_1_1STLContainerInterface.html" target="_top" xlink:title="Container interface that provides support for serializing most STL containers with TreeReflector.">
<polygon fill="none" stroke="black" points="494,-252.5 494,-293.5 617,-293.5 617,-252.5 494,-252.5"/>
<text text-anchor="start" x="502" y="-281.5" font-family="Helvetica,sans-Serif" font-size="10.00">lemons::serializing</text>
<text text-anchor="start" x="502" y="-270.5" font-family="Helvetica,sans-Serif" font-size="10.00">::STLContainerInterface</text>
<text text-anchor="middle" x="555.5" y="-259.5" font-family="Helvetica,sans-Serif" font-size="10.00">&lt; ContainerType &gt;</text>
</a>
</g>
</g>
<!-- Node1&#45;&gt;Node3 -->
<g id="edge2" class="edge">
<title>Node1&#45;&gt;Node3</title>
<path fill="none" stroke="midnightblue" d="M242.95,-180.19C258.76,-192.79 278.87,-206.94 299,-216 362.2,-244.46 440.77,-259.24 493.97,-266.54"/>
<polygon fill="midnightblue" stroke="midnightblue" points="245.06,-177.39 235.1,-173.78 240.63,-182.81 245.06,-177.39"/>
</g>
<!-- Node4 -->
<g id="node4" class="node">
<title>Node4</title>
<g id="a_node4"><a xlink:href="structlemons_1_1serializing_1_1LambdaContainerInterface.html" target="_top" xlink:title=" ">
<polygon fill="none" stroke="black" points="477,-192.5 477,-233.5 634,-233.5 634,-192.5 477,-192.5"/>
<text text-anchor="start" x="485" y="-221.5" font-family="Helvetica,sans-Serif" font-size="10.00">lemons::serializing</text>
<text text-anchor="start" x="485" y="-210.5" font-family="Helvetica,sans-Serif" font-size="10.00">::LambdaContainerInterface</text>
<text text-anchor="middle" x="555.5" y="-199.5" font-family="Helvetica,sans-Serif" font-size="10.00">&lt; juce::Array&lt; ElementType &gt; &gt;</text>
</a>
</g>
</g>
<!-- Node1&#45;&gt;Node4 -->
<g id="edge3" class="edge">
<title>Node1&#45;&gt;Node4</title>
<path fill="none" stroke="orange" stroke-dasharray="5,2" d="M286.58,-176.12C290.76,-177.15 294.93,-178.13 299,-179 358.07,-191.67 425.89,-200.43 476.81,-205.89"/>
<polygon fill="orange" stroke="orange" points="287.35,-172.7 276.79,-173.58 285.6,-179.48 287.35,-172.7"/>
<text text-anchor="middle" x="371" y="-204" font-family="Helvetica,sans-Serif" font-size="10.00"> &lt; juce::Array&lt; ElementType &gt; &gt;</text>
</g>
<!-- Node6 -->
<g id="node6" class="node">
<title>Node6</title>
<g id="a_node6"><a xlink:href="structlemons_1_1serializing_1_1LambdaContainerInterface.html" target="_top" xlink:title=" ">
<polygon fill="none" stroke="black" points="461,-132.5 461,-173.5 650,-173.5 650,-132.5 461,-132.5"/>
<text text-anchor="start" x="469" y="-161.5" font-family="Helvetica,sans-Serif" font-size="10.00">lemons::serializing</text>
<text text-anchor="start" x="469" y="-150.5" font-family="Helvetica,sans-Serif" font-size="10.00">::LambdaContainerInterface</text>
<text text-anchor="middle" x="555.5" y="-139.5" font-family="Helvetica,sans-Serif" font-size="10.00">&lt; juce::OwnedArray&lt; ElementType &gt; &gt;</text>
</a>
</g>
</g>
<!-- Node1&#45;&gt;Node6 -->
<g id="edge5" class="edge">
<title>Node1&#45;&gt;Node6</title>
<path fill="none" stroke="orange" stroke-dasharray="5,2" d="M291.54,-153C342.13,-153 407.86,-153 460.95,-153"/>
<polygon fill="orange" stroke="orange" points="291.31,-149.5 281.31,-153 291.31,-156.5 291.31,-149.5"/>
<text text-anchor="start" x="325.5" y="-167" font-family="Helvetica,sans-Serif" font-size="10.00"> &lt; juce::OwnedArray</text>
<text text-anchor="middle" x="371" y="-156" font-family="Helvetica,sans-Serif" font-size="10.00">&lt; ElementType &gt; &gt;</text>
</g>
<!-- Node8 -->
<g id="node8" class="node">
<title>Node8</title>
<g id="a_node8"><a xlink:href="structlemons_1_1serializing_1_1LambdaContainerInterface.html" target="_top" xlink:title=" ">
<polygon fill="none" stroke="black" points="485.5,-61 485.5,-113 625.5,-113 625.5,-61 485.5,-61"/>
<text text-anchor="start" x="493.5" y="-101" font-family="Helvetica,sans-Serif" font-size="10.00">lemons::serializing</text>
<text text-anchor="start" x="493.5" y="-90" font-family="Helvetica,sans-Serif" font-size="10.00">::LambdaContainerInterface</text>
<text text-anchor="start" x="493.5" y="-79" font-family="Helvetica,sans-Serif" font-size="10.00">&lt; std::array&lt; ElementType,</text>
<text text-anchor="middle" x="555.5" y="-68" font-family="Helvetica,sans-Serif" font-size="10.00"> size &gt; &gt;</text>
</a>
</g>
</g>
<!-- Node1&#45;&gt;Node8 -->
<g id="edge7" class="edge">
<title>Node1&#45;&gt;Node8</title>
<path fill="none" stroke="orange" stroke-dasharray="5,2" d="M287.21,-129.84C291.18,-128.83 295.13,-127.88 299,-127 361.51,-112.84 433.75,-102.03 485.43,-95.24"/>
<polygon fill="orange" stroke="orange" points="286.08,-126.52 277.31,-132.45 287.87,-133.29 286.08,-126.52"/>
<text text-anchor="start" x="309.5" y="-141" font-family="Helvetica,sans-Serif" font-size="10.00"> &lt; std::array&lt; ElementType,</text>
<text text-anchor="middle" x="371" y="-130" font-family="Helvetica,sans-Serif" font-size="10.00"> size &gt; &gt;</text>
</g>
<!-- Node10 -->
<g id="node10" class="node">
<title>Node10</title>
<g id="a_node10"><a xlink:href="structlemons_1_1serializing_1_1LambdaContainerInterface.html" target="_top" xlink:title=" ">
<polygon fill="none" stroke="black" points="485.5,-0.5 485.5,-41.5 625.5,-41.5 625.5,-0.5 485.5,-0.5"/>
<text text-anchor="start" x="493.5" y="-29.5" font-family="Helvetica,sans-Serif" font-size="10.00">lemons::serializing</text>
<text text-anchor="start" x="493.5" y="-18.5" font-family="Helvetica,sans-Serif" font-size="10.00">::LambdaContainerInterface</text>
<text text-anchor="middle" x="555.5" y="-7.5" font-family="Helvetica,sans-Serif" font-size="10.00">&lt; juce::StringArray &gt;</text>
</a>
</g>
</g>
<!-- Node1&#45;&gt;Node10 -->
<g id="edge9" class="edge">
<title>Node1&#45;&gt;Node10</title>
<path fill="none" stroke="orange" stroke-dasharray="5,2" d="M241.87,-125.61C257.81,-112.27 278.37,-96.99 299,-87 358.69,-58.1 432.56,-40.78 485.5,-31.19"/>
<polygon fill="orange" stroke="orange" points="239.29,-123.21 233.98,-132.37 243.85,-128.52 239.29,-123.21"/>
<text text-anchor="middle" x="371" y="-90" font-family="Helvetica,sans-Serif" font-size="10.00"> &lt; juce::StringArray &gt;</text>
</g>
<!-- Node2 -->
<g id="node2" class="node">
<title>Node2</title>
<g id="a_node2"><a xlink:href="structlemons_1_1serializing_1_1ContainerInterface.html" target="_top" xlink:title="Interface that defines how a TreeReflector can resize a given container during deserialization.">
<polygon fill="none" stroke="black" points="0,-138 0,-168 104,-168 104,-138 0,-138"/>
<text text-anchor="start" x="8" y="-156" font-family="Helvetica,sans-Serif" font-size="10.00">lemons::serializing</text>
<text text-anchor="middle" x="52" y="-145" font-family="Helvetica,sans-Serif" font-size="10.00">::ContainerInterface</text>
</a>
</g>
</g>
<!-- Node2&#45;&gt;Node1 -->
<g id="edge1" class="edge">
<title>Node2&#45;&gt;Node1</title>
<path fill="none" stroke="midnightblue" d="M114.69,-153C123.25,-153 132.1,-153 140.79,-153"/>
<polygon fill="midnightblue" stroke="midnightblue" points="114.41,-149.5 104.41,-153 114.41,-156.5 114.41,-149.5"/>
</g>
<!-- Node5 -->
<g id="node5" class="node">
<title>Node5</title>
<g id="a_node5"><a xlink:href="structlemons_1_1serializing_1_1JuceArrayInterface.html" target="_top" xlink:title="Container interface that provides support for serializing juce::Arrays with TreeReflector.">
<polygon fill="none" stroke="black" points="703,-192.5 703,-233.5 809,-233.5 809,-192.5 703,-192.5"/>
<text text-anchor="start" x="711" y="-221.5" font-family="Helvetica,sans-Serif" font-size="10.00">lemons::serializing</text>
<text text-anchor="start" x="711" y="-210.5" font-family="Helvetica,sans-Serif" font-size="10.00">::JuceArrayInterface</text>
<text text-anchor="middle" x="756" y="-199.5" font-family="Helvetica,sans-Serif" font-size="10.00">&lt; ElementType &gt;</text>
</a>
</g>
</g>
<!-- Node4&#45;&gt;Node5 -->
<g id="edge4" class="edge">
<title>Node4&#45;&gt;Node5</title>
<path fill="none" stroke="midnightblue" d="M644.18,-213C664.21,-213 684.88,-213 702.86,-213"/>
<polygon fill="midnightblue" stroke="midnightblue" points="644.1,-209.5 634.1,-213 644.1,-216.5 644.1,-209.5"/>
</g>
<!-- Node7 -->
<g id="node7" class="node">
<title>Node7</title>
<g id="a_node7"><a xlink:href="structlemons_1_1serializing_1_1JuceOwnedArrayInterface.html" target="_top" xlink:title="Container interface that provides support for serializing juce::OwnedArrays with TreeReflector.">
<polygon fill="none" stroke="black" points="687,-132.5 687,-173.5 825,-173.5 825,-132.5 687,-132.5"/>
<text text-anchor="start" x="695" y="-161.5" font-family="Helvetica,sans-Serif" font-size="10.00">lemons::serializing</text>
<text text-anchor="start" x="695" y="-150.5" font-family="Helvetica,sans-Serif" font-size="10.00">::JuceOwnedArrayInterface</text>
<text text-anchor="middle" x="756" y="-139.5" font-family="Helvetica,sans-Serif" font-size="10.00">&lt; ElementType &gt;</text>
</a>
</g>
</g>
<!-- Node6&#45;&gt;Node7 -->
<g id="edge6" class="edge">
<title>Node6&#45;&gt;Node7</title>
<path fill="none" stroke="midnightblue" d="M660.37,-153C669.34,-153 678.26,-153 686.84,-153"/>
<polygon fill="midnightblue" stroke="midnightblue" points="660.23,-149.5 650.23,-153 660.23,-156.5 660.23,-149.5"/>
</g>
<!-- Node9 -->
<g id="node9" class="node">
<title>Node9</title>
<g id="a_node9"><a xlink:href="structlemons_1_1serializing_1_1StdArrayInterface.html" target="_top" xlink:title="Container interface that provides support for serializing std::arrays with TreeReflector.">
<polygon fill="none" stroke="black" points="698.5,-66.5 698.5,-107.5 813.5,-107.5 813.5,-66.5 698.5,-66.5"/>
<text text-anchor="start" x="706.5" y="-95.5" font-family="Helvetica,sans-Serif" font-size="10.00">lemons::serializing</text>
<text text-anchor="start" x="706.5" y="-84.5" font-family="Helvetica,sans-Serif" font-size="10.00">::StdArrayInterface</text>
<text text-anchor="middle" x="756" y="-73.5" font-family="Helvetica,sans-Serif" font-size="10.00">&lt; ElementType, size &gt;</text>
</a>
</g>
</g>
<!-- Node8&#45;&gt;Node9 -->
<g id="edge8" class="edge">
<title>Node8&#45;&gt;Node9</title>
<path fill="none" stroke="midnightblue" d="M635.79,-87C656.68,-87 678.8,-87 698.24,-87"/>
<polygon fill="midnightblue" stroke="midnightblue" points="635.65,-83.5 625.65,-87 635.65,-90.5 635.65,-83.5"/>
</g>
<!-- Node11 -->
<g id="node11" class="node">
<title>Node11</title>
<g id="a_node11"><a xlink:href="structlemons_1_1serializing_1_1StringArrayInterface.html" target="_top" xlink:title="Container interface that provides support for serializing juce::StringArrays with TreeReflector.">
<polygon fill="none" stroke="black" points="700.5,-6 700.5,-36 811.5,-36 811.5,-6 700.5,-6"/>
<text text-anchor="start" x="708.5" y="-24" font-family="Helvetica,sans-Serif" font-size="10.00">lemons::serializing</text>
<text text-anchor="middle" x="756" y="-13" font-family="Helvetica,sans-Serif" font-size="10.00">::StringArrayInterface</text>
</a>
</g>
</g>
<!-- Node10&#45;&gt;Node11 -->
<g id="edge10" class="edge">
<title>Node10&#45;&gt;Node11</title>
<path fill="none" stroke="midnightblue" d="M635.83,-21C657.51,-21 680.52,-21 700.47,-21"/>
<polygon fill="midnightblue" stroke="midnightblue" points="635.65,-17.5 625.65,-21 635.65,-24.5 635.65,-17.5"/>
</g>
</g>
</svg>
