<?xml version="1.0" encoding="UTF-8" standalone="no"?>
<!DOCTYPE svg PUBLIC "-//W3C//DTD SVG 1.1//EN"
 "http://www.w3.org/Graphics/SVG/1.1/DTD/svg11.dtd">
<!-- Generated by graphviz version 2.43.0 (0)
 -->
<!-- Title: lemons::plugin::ParamHolderBase Pages: 1 -->
<svg width="917pt" height="67pt"
 viewBox="0.00 0.00 917.00 67.00" xmlns="http://www.w3.org/2000/svg" xmlns:xlink="http://www.w3.org/1999/xlink">
<g id="graph0" class="graph" transform="scale(1 1) rotate(0) translate(4 63)">
<title>lemons::plugin::ParamHolderBase</title>
<!-- Node1 -->
<g id="node1" class="node">
<title>Node1</title>
<g id="a_node1"><a xlink:title="Base class for ParameterHolder that allows any kind of parameter to be accessed without knowing the f...">
<polygon fill="#bfbfbf" stroke="black" points="176,-2 176,-21 358,-21 358,-2 176,-2"/>
<text text-anchor="middle" x="267" y="-9" font-family="Helvetica,sans-Serif" font-size="10.00">lemons::plugin::ParamHolderBase</text>
</a>
</g>
</g>
<!-- Node3 -->
<g id="node3" class="node">
<title>Node3</title>
<g id="a_node3"><a xlink:href="classlemons_1_1plugin_1_1ParameterHolder.html" target="_top" xlink:title="Class that holds a parameter object, and can retain a reference to it after it has been added to an A...">
<polygon fill="none" stroke="black" points="395,-28.5 395,-58.5 540,-58.5 540,-28.5 395,-28.5"/>
<text text-anchor="start" x="403" y="-46.5" font-family="Helvetica,sans-Serif" font-size="10.00">lemons::plugin::Parameter</text>
<text text-anchor="middle" x="467.5" y="-35.5" font-family="Helvetica,sans-Serif" font-size="10.00">Holder&lt; ParameterType &gt;</text>
</a>
</g>
</g>
<!-- Node1&#45;&gt;Node3 -->
<g id="edge2" class="edge">
<title>Node1&#45;&gt;Node3</title>
<path fill="none" stroke="midnightblue" d="M336.92,-22.61C355.61,-25.62 375.88,-28.89 394.72,-31.93"/>
<polygon fill="midnightblue" stroke="midnightblue" points="337.45,-19.15 327.02,-21.01 336.33,-26.06 337.45,-19.15"/>
</g>
<!-- Node4 -->
<g id="node4" class="node">
<title>Node4</title>
<g id="a_node4"><a xlink:href="classlemons_1_1plugin_1_1ParameterHolder.html" target="_top" xlink:title=" ">
<polygon fill="none" stroke="black" points="720,-0.5 720,-30.5 909,-30.5 909,-0.5 720,-0.5"/>
<text text-anchor="start" x="728" y="-18.5" font-family="Helvetica,sans-Serif" font-size="10.00">lemons::plugin::Parameter</text>
<text text-anchor="middle" x="814.5" y="-7.5" font-family="Helvetica,sans-Serif" font-size="10.00">Holder&lt; plugin::ToggleParameter &gt;</text>
</a>
</g>
</g>
<!-- Node1&#45;&gt;Node4 -->
<g id="edge4" class="edge">
<title>Node1&#45;&gt;Node4</title>
<path fill="none" stroke="midnightblue" d="M368.22,-12.23C468.52,-12.97 621.63,-14.09 719.63,-14.81"/>
<polygon fill="midnightblue" stroke="midnightblue" points="368.1,-8.73 358.08,-12.16 368.05,-15.73 368.1,-8.73"/>
</g>
<!-- Node2 -->
<g id="node2" class="node">
<title>Node2</title>
<g id="a_node2"><a xlink:href="structlemons_1_1SerializableData.html" target="_top" xlink:title="Base class for any C++ object that needs to be serialized to binary and back.">
<polygon fill="none" stroke="black" points="0,-2 0,-21 139,-21 139,-2 0,-2"/>
<text text-anchor="middle" x="69.5" y="-9" font-family="Helvetica,sans-Serif" font-size="10.00">lemons::SerializableData</text>
</a>
</g>
</g>
<!-- Node2&#45;&gt;Node1 -->
<g id="edge1" class="edge">
<title>Node2&#45;&gt;Node1</title>
<path fill="none" stroke="midnightblue" d="M149.31,-11.5C158.06,-11.5 167.02,-11.5 175.9,-11.5"/>
<polygon fill="midnightblue" stroke="midnightblue" points="149.15,-8 139.15,-11.5 149.15,-15 149.15,-8"/>
</g>
<!-- Node3&#45;&gt;Node4 -->
<g id="edge3" class="edge">
<title>Node3&#45;&gt;Node4</title>
<path fill="none" stroke="orange" stroke-dasharray="5,2" d="M550.37,-36.86C601.23,-32.73 666.78,-27.41 719.72,-23.11"/>
<polygon fill="orange" stroke="orange" points="550.09,-33.37 540.4,-37.66 550.65,-40.34 550.09,-33.37"/>
<text text-anchor="middle" x="630" y="-39.5" font-family="Helvetica,sans-Serif" font-size="10.00"> &lt; plugin::ToggleParameter &gt;</text>
</g>
</g>
</svg>
