<?xml version="1.0" encoding="UTF-8" standalone="no"?>
<!DOCTYPE svg PUBLIC "-//W3C//DTD SVG 1.1//EN"
 "http://www.w3.org/Graphics/SVG/1.1/DTD/svg11.dtd">
<!-- Generated by graphviz version 2.43.0 (0)
 -->
<!-- Title: lemons::ConstructedArray&lt; ObjectType &gt; Pages: 1 -->
<svg width="517pt" height="868pt"
 viewBox="0.00 0.00 517.00 867.52" xmlns="http://www.w3.org/2000/svg" xmlns:xlink="http://www.w3.org/1999/xlink">
<g id="graph0" class="graph" transform="scale(1 1) rotate(0) translate(4 863.52)">
<title>lemons::ConstructedArray&lt; ObjectType &gt;</title>
<!-- Node1 -->
<g id="node1" class="node">
<title>Node1</title>
<g id="a_node1"><a xlink:title="A wrapper around juce::OwnedArray that automatically deletes or creates objects when you resize it.">
<polygon fill="#bfbfbf" stroke="black" points="0,-422.52 0,-452.52 143,-452.52 143,-422.52 0,-422.52"/>
<text text-anchor="start" x="8" y="-440.52" font-family="Helvetica,sans-Serif" font-size="10.00">lemons::ConstructedArray</text>
<text text-anchor="middle" x="71.5" y="-429.52" font-family="Helvetica,sans-Serif" font-size="10.00">&lt; ObjectType &gt;</text>
</a>
</g>
</g>
<!-- Node2 -->
<g id="node2" class="node">
<title>Node2</title>
<g id="a_node2"><a xlink:href="structlemons_1_1_constructed_array.html" target="_top" xlink:title=" ">
<polygon fill="none" stroke="black" points="336,-800.02 336,-841.02 500,-841.02 500,-800.02 336,-800.02"/>
<text text-anchor="start" x="344" y="-829.02" font-family="Helvetica,sans-Serif" font-size="10.00">lemons::ConstructedArray</text>
<text text-anchor="start" x="344" y="-818.02" font-family="Helvetica,sans-Serif" font-size="10.00">&lt; lemons::dsp::osc::SuperSaw</text>
<text text-anchor="middle" x="418" y="-807.02" font-family="Helvetica,sans-Serif" font-size="10.00">&lt; SampleType &gt; &gt;</text>
</a>
</g>
</g>
<!-- Node1&#45;&gt;Node2 -->
<g id="edge1" class="edge">
<title>Node1&#45;&gt;Node2</title>
<path fill="none" stroke="orange" stroke-dasharray="5,2" d="M74.98,-463.3C82.78,-538.37 109.36,-754.32 161,-798.52 208.36,-839.07 280.3,-841.9 335.87,-836.12"/>
<polygon fill="orange" stroke="orange" points="78.42,-462.49 73.93,-452.89 71.46,-463.2 78.42,-462.49"/>
<text text-anchor="start" x="161" y="-851.52" font-family="Helvetica,sans-Serif" font-size="10.00"> &lt; lemons::dsp::osc</text>
<text text-anchor="middle" x="235" y="-840.52" font-family="Helvetica,sans-Serif" font-size="10.00">::SuperSaw&lt; SampleType &gt; &gt;</text>
</g>
<!-- Node3 -->
<g id="node3" class="node">
<title>Node3</title>
<g id="a_node3"><a xlink:href="structlemons_1_1_constructed_array.html" target="_top" xlink:title=" ">
<polygon fill="none" stroke="black" points="346.5,-740.02 346.5,-781.02 489.5,-781.02 489.5,-740.02 346.5,-740.02"/>
<text text-anchor="start" x="354.5" y="-769.02" font-family="Helvetica,sans-Serif" font-size="10.00">lemons::ConstructedArray</text>
<text text-anchor="start" x="354.5" y="-758.02" font-family="Helvetica,sans-Serif" font-size="10.00">&lt; lemons::dsp::osc::Saw</text>
<text text-anchor="middle" x="418" y="-747.02" font-family="Helvetica,sans-Serif" font-size="10.00">&lt; SampleType &gt; &gt;</text>
</a>
</g>
</g>
<!-- Node1&#45;&gt;Node3 -->
<g id="edge2" class="edge">
<title>Node1&#45;&gt;Node3</title>
<path fill="none" stroke="orange" stroke-dasharray="5,2" d="M76.41,-462.97C86.99,-528.28 118.29,-699.18 161,-734.52 212.03,-776.74 289.81,-778.78 346.24,-773.02"/>
<polygon fill="orange" stroke="orange" points="79.81,-462.07 74.78,-452.74 72.9,-463.17 79.81,-462.07"/>
<text text-anchor="start" x="175" y="-788.52" font-family="Helvetica,sans-Serif" font-size="10.00"> &lt; lemons::dsp::osc</text>
<text text-anchor="middle" x="235" y="-777.52" font-family="Helvetica,sans-Serif" font-size="10.00">::Saw&lt; SampleType &gt; &gt;</text>
</g>
<!-- Node4 -->
<g id="node4" class="node">
<title>Node4</title>
<g id="a_node4"><a xlink:href="structlemons_1_1_constructed_array.html" target="_top" xlink:title=" ">
<polygon fill="none" stroke="black" points="337.5,-690.52 337.5,-720.52 498.5,-720.52 498.5,-690.52 337.5,-690.52"/>
<text text-anchor="start" x="345.5" y="-708.52" font-family="Helvetica,sans-Serif" font-size="10.00">lemons::ConstructedArray</text>
<text text-anchor="middle" x="418" y="-697.52" font-family="Helvetica,sans-Serif" font-size="10.00">&lt; Osctype&lt; SampleType &gt; &gt;</text>
</a>
</g>
</g>
<!-- Node1&#45;&gt;Node4 -->
<g id="edge3" class="edge">
<title>Node1&#45;&gt;Node4</title>
<path fill="none" stroke="orange" stroke-dasharray="5,2" d="M73.31,-462.83C76.42,-513.59 91.25,-627.6 161,-681.52 210.44,-719.75 282.37,-723.34 337.4,-718.75"/>
<polygon fill="orange" stroke="orange" points="76.8,-462.53 72.79,-452.72 69.81,-462.89 76.8,-462.53"/>
<text text-anchor="middle" x="235" y="-722.52" font-family="Helvetica,sans-Serif" font-size="10.00"> &lt; Osctype&lt; SampleType &gt; &gt;</text>
</g>
<!-- Node5 -->
<g id="node5" class="node">
<title>Node5</title>
<g id="a_node5"><a xlink:href="structlemons_1_1_constructed_array.html" target="_top" xlink:title=" ">
<polygon fill="none" stroke="black" points="338,-630.02 338,-671.02 498,-671.02 498,-630.02 338,-630.02"/>
<text text-anchor="start" x="346" y="-659.02" font-family="Helvetica,sans-Serif" font-size="10.00">lemons::ConstructedArray</text>
<text text-anchor="start" x="346" y="-648.02" font-family="Helvetica,sans-Serif" font-size="10.00">&lt; lemons::dsp::CircularBuffer</text>
<text text-anchor="middle" x="418" y="-637.02" font-family="Helvetica,sans-Serif" font-size="10.00">&lt; SampleType &gt; &gt;</text>
</a>
</g>
</g>
<!-- Node1&#45;&gt;Node5 -->
<g id="edge4" class="edge">
<title>Node1&#45;&gt;Node5</title>
<path fill="none" stroke="orange" stroke-dasharray="5,2" d="M77.42,-462.61C86.51,-501.76 109.89,-576.71 161,-613.52 211.83,-650.14 283.28,-657.83 337.78,-657.26"/>
<polygon fill="orange" stroke="orange" points="80.78,-461.6 75.22,-452.58 73.94,-463.1 80.78,-461.6"/>
<text text-anchor="start" x="161.5" y="-669.52" font-family="Helvetica,sans-Serif" font-size="10.00"> &lt; lemons::dsp::CircularBuffer</text>
<text text-anchor="middle" x="235" y="-658.52" font-family="Helvetica,sans-Serif" font-size="10.00">&lt; SampleType &gt; &gt;</text>
</g>
<!-- Node6 -->
<g id="node6" class="node">
<title>Node6</title>
<g id="a_node6"><a xlink:href="structlemons_1_1_constructed_array.html" target="_top" xlink:title=" ">
<polygon fill="none" stroke="black" points="343.5,-570.02 343.5,-611.02 492.5,-611.02 492.5,-570.02 343.5,-570.02"/>
<text text-anchor="start" x="351.5" y="-599.02" font-family="Helvetica,sans-Serif" font-size="10.00">lemons::ConstructedArray</text>
<text text-anchor="start" x="351.5" y="-588.02" font-family="Helvetica,sans-Serif" font-size="10.00">&lt; lemons::dsp::osc::Square</text>
<text text-anchor="middle" x="418" y="-577.02" font-family="Helvetica,sans-Serif" font-size="10.00">&lt; float &gt; &gt;</text>
</a>
</g>
</g>
<!-- Node1&#45;&gt;Node6 -->
<g id="edge5" class="edge">
<title>Node1&#45;&gt;Node6</title>
<path fill="none" stroke="orange" stroke-dasharray="5,2" d="M85.58,-461.71C100.42,-486.67 127.04,-524.68 161,-544.52 216.56,-576.99 289.59,-587.56 343.42,-590.56"/>
<polygon fill="orange" stroke="orange" points="88.5,-459.77 80.48,-452.85 82.43,-463.26 88.5,-459.77"/>
<text text-anchor="start" x="186.5" y="-601.52" font-family="Helvetica,sans-Serif" font-size="10.00"> &lt; lemons::dsp::osc</text>
<text text-anchor="middle" x="235" y="-590.52" font-family="Helvetica,sans-Serif" font-size="10.00">::Square&lt; float &gt; &gt;</text>
</g>
<!-- Node7 -->
<g id="node7" class="node">
<title>Node7</title>
<g id="a_node7"><a xlink:href="structlemons_1_1_constructed_array.html" target="_top" xlink:title=" ">
<polygon fill="none" stroke="black" points="346.5,-520.52 346.5,-550.52 489.5,-550.52 489.5,-520.52 346.5,-520.52"/>
<text text-anchor="start" x="354.5" y="-538.52" font-family="Helvetica,sans-Serif" font-size="10.00">lemons::ConstructedArray</text>
<text text-anchor="middle" x="418" y="-527.52" font-family="Helvetica,sans-Serif" font-size="10.00">&lt; InterpolatorType &gt;</text>
</a>
</g>
</g>
<!-- Node1&#45;&gt;Node7 -->
<g id="edge6" class="edge">
<title>Node1&#45;&gt;Node7</title>
<path fill="none" stroke="orange" stroke-dasharray="5,2" d="M97.57,-459.5C114.37,-472.98 137.62,-489.36 161,-498.52 220.79,-521.96 293.66,-530.76 346.34,-533.96"/>
<polygon fill="orange" stroke="orange" points="99.35,-456.43 89.41,-452.77 94.9,-461.83 99.35,-456.43"/>
<text text-anchor="middle" x="235" y="-532.52" font-family="Helvetica,sans-Serif" font-size="10.00"> &lt; InterpolatorType &gt;</text>
</g>
<!-- Node8 -->
<g id="node8" class="node">
<title>Node8</title>
<g id="a_node8"><a xlink:href="structlemons_1_1_constructed_array.html" target="_top" xlink:title=" ">
<polygon fill="none" stroke="black" points="327,-471.52 327,-501.52 509,-501.52 509,-471.52 327,-471.52"/>
<text text-anchor="start" x="335" y="-489.52" font-family="Helvetica,sans-Serif" font-size="10.00">lemons::ConstructedArray</text>
<text text-anchor="middle" x="418" y="-478.52" font-family="Helvetica,sans-Serif" font-size="10.00">&lt; lemons::dsp::SynthVoiceBase &gt;</text>
</a>
</g>
</g>
<!-- Node1&#45;&gt;Node8 -->
<g id="edge7" class="edge">
<title>Node1&#45;&gt;Node8</title>
<path fill="none" stroke="orange" stroke-dasharray="5,2" d="M153.42,-451.36C155.97,-451.76 158.51,-452.15 161,-452.52 215.97,-460.83 277.75,-469.07 326.85,-475.35"/>
<polygon fill="orange" stroke="orange" points="153.9,-447.89 143.47,-449.78 152.8,-454.81 153.9,-447.89"/>
<text text-anchor="start" x="168" y="-486.52" font-family="Helvetica,sans-Serif" font-size="10.00"> &lt; lemons::dsp::SynthVoice</text>
<text text-anchor="middle" x="235" y="-475.52" font-family="Helvetica,sans-Serif" font-size="10.00">Base &gt;</text>
</g>
<!-- Node9 -->
<g id="node9" class="node">
<title>Node9</title>
<g id="a_node9"><a xlink:href="structlemons_1_1_constructed_array.html" target="_top" xlink:title=" ">
<polygon fill="none" stroke="black" points="346.5,-422.52 346.5,-452.52 489.5,-452.52 489.5,-422.52 346.5,-422.52"/>
<text text-anchor="start" x="354.5" y="-440.52" font-family="Helvetica,sans-Serif" font-size="10.00">lemons::ConstructedArray</text>
<text text-anchor="middle" x="418" y="-429.52" font-family="Helvetica,sans-Serif" font-size="10.00">&lt; lemons::plugin::LFO &gt;</text>
</a>
</g>
</g>
<!-- Node1&#45;&gt;Node9 -->
<g id="edge8" class="edge">
<title>Node1&#45;&gt;Node9</title>
<path fill="none" stroke="orange" stroke-dasharray="5,2" d="M153.36,-437.52C211.88,-437.52 290.21,-437.52 346.25,-437.52"/>
<polygon fill="orange" stroke="orange" points="153.05,-434.02 143.05,-437.52 153.05,-441.02 153.05,-434.02"/>
<text text-anchor="middle" x="235" y="-440.52" font-family="Helvetica,sans-Serif" font-size="10.00"> &lt; lemons::plugin::LFO &gt;</text>
</g>
<!-- Node10 -->
<g id="node10" class="node">
<title>Node10</title>
<g id="a_node10"><a xlink:href="structlemons_1_1_constructed_array.html" target="_top" xlink:title=" ">
<polygon fill="none" stroke="black" points="346.5,-362.02 346.5,-403.02 489.5,-403.02 489.5,-362.02 346.5,-362.02"/>
<text text-anchor="start" x="354.5" y="-391.02" font-family="Helvetica,sans-Serif" font-size="10.00">lemons::ConstructedArray</text>
<text text-anchor="start" x="354.5" y="-380.02" font-family="Helvetica,sans-Serif" font-size="10.00">&lt; lemons::dsp::osc::Sine</text>
<text text-anchor="middle" x="418" y="-369.02" font-family="Helvetica,sans-Serif" font-size="10.00">&lt; float &gt; &gt;</text>
</a>
</g>
</g>
<!-- Node1&#45;&gt;Node10 -->
<g id="edge9" class="edge">
<title>Node1&#45;&gt;Node10</title>
<path fill="none" stroke="orange" stroke-dasharray="5,2" d="M127.88,-419.66C138.78,-416.6 150.18,-413.71 161,-411.52 223.04,-399 294.71,-391.46 346.41,-387.22"/>
<polygon fill="orange" stroke="orange" points="126.69,-416.36 118.06,-422.5 128.63,-423.09 126.69,-416.36"/>
<text text-anchor="start" x="186.5" y="-425.52" font-family="Helvetica,sans-Serif" font-size="10.00"> &lt; lemons::dsp::osc</text>
<text text-anchor="middle" x="235" y="-414.52" font-family="Helvetica,sans-Serif" font-size="10.00">::Sine&lt; float &gt; &gt;</text>
</g>
<!-- Node11 -->
<g id="node11" class="node">
<title>Node11</title>
<g id="a_node11"><a xlink:href="structlemons_1_1_constructed_array.html" target="_top" xlink:title=" ">
<polygon fill="none" stroke="black" points="341,-302.02 341,-343.02 495,-343.02 495,-302.02 341,-302.02"/>
<text text-anchor="start" x="349" y="-331.02" font-family="Helvetica,sans-Serif" font-size="10.00">lemons::ConstructedArray</text>
<text text-anchor="start" x="349" y="-320.02" font-family="Helvetica,sans-Serif" font-size="10.00">&lt; lemons::dsp::osc::Triangle</text>
<text text-anchor="middle" x="418" y="-309.02" font-family="Helvetica,sans-Serif" font-size="10.00">&lt; float &gt; &gt;</text>
</a>
</g>
</g>
<!-- Node1&#45;&gt;Node11 -->
<g id="edge10" class="edge">
<title>Node1&#45;&gt;Node11</title>
<path fill="none" stroke="orange" stroke-dasharray="5,2" d="M92.92,-415.22C109.57,-398.5 134.58,-376.52 161,-364.52 217.9,-338.69 288.32,-328.52 340.9,-324.63"/>
<polygon fill="orange" stroke="orange" points="90.33,-412.86 85.88,-422.48 95.36,-417.74 90.33,-412.86"/>
<text text-anchor="start" x="185" y="-378.52" font-family="Helvetica,sans-Serif" font-size="10.00"> &lt; lemons::dsp::osc</text>
<text text-anchor="middle" x="235" y="-367.52" font-family="Helvetica,sans-Serif" font-size="10.00">::Triangle&lt; float &gt; &gt;</text>
</g>
<!-- Node12 -->
<g id="node12" class="node">
<title>Node12</title>
<g id="a_node12"><a xlink:href="structlemons_1_1_constructed_array.html" target="_top" xlink:title=" ">
<polygon fill="none" stroke="black" points="341,-242.02 341,-283.02 495,-283.02 495,-242.02 341,-242.02"/>
<text text-anchor="start" x="349" y="-271.02" font-family="Helvetica,sans-Serif" font-size="10.00">lemons::ConstructedArray</text>
<text text-anchor="start" x="349" y="-260.02" font-family="Helvetica,sans-Serif" font-size="10.00">&lt; lemons::dsp::osc::Triangle</text>
<text text-anchor="middle" x="418" y="-249.02" font-family="Helvetica,sans-Serif" font-size="10.00">&lt; SampleType &gt; &gt;</text>
</a>
</g>
</g>
<!-- Node1&#45;&gt;Node12 -->
<g id="edge11" class="edge">
<title>Node1&#45;&gt;Node12</title>
<path fill="none" stroke="orange" stroke-dasharray="5,2" d="M81.21,-412.86C93.68,-381.46 119.76,-328.1 161,-301.52 214.38,-267.12 286.79,-258.81 340.98,-258.27"/>
<polygon fill="orange" stroke="orange" points="77.93,-411.63 77.64,-422.22 84.47,-414.12 77.93,-411.63"/>
<text text-anchor="start" x="166" y="-315.52" font-family="Helvetica,sans-Serif" font-size="10.00"> &lt; lemons::dsp::osc</text>
<text text-anchor="middle" x="235" y="-304.52" font-family="Helvetica,sans-Serif" font-size="10.00">::Triangle&lt; SampleType &gt; &gt;</text>
</g>
<!-- Node13 -->
<g id="node13" class="node">
<title>Node13</title>
<g id="a_node13"><a xlink:href="structlemons_1_1_constructed_array.html" target="_top" xlink:title=" ">
<polygon fill="none" stroke="black" points="346.5,-182.02 346.5,-223.02 489.5,-223.02 489.5,-182.02 346.5,-182.02"/>
<text text-anchor="start" x="354.5" y="-211.02" font-family="Helvetica,sans-Serif" font-size="10.00">lemons::ConstructedArray</text>
<text text-anchor="start" x="354.5" y="-200.02" font-family="Helvetica,sans-Serif" font-size="10.00">&lt; lemons::dsp::osc::Sine</text>
<text text-anchor="middle" x="418" y="-189.02" font-family="Helvetica,sans-Serif" font-size="10.00">&lt; SampleType &gt; &gt;</text>
</a>
</g>
</g>
<!-- Node1&#45;&gt;Node13 -->
<g id="edge12" class="edge">
<title>Node1&#45;&gt;Node13</title>
<path fill="none" stroke="orange" stroke-dasharray="5,2" d="M75.45,-412.2C82.05,-367.98 102.38,-277.26 161,-233.52 213.84,-194.1 290.59,-189.78 346.26,-193.21"/>
<polygon fill="orange" stroke="orange" points="71.94,-412 74.05,-422.38 78.88,-412.95 71.94,-412"/>
<text text-anchor="start" x="174.5" y="-247.52" font-family="Helvetica,sans-Serif" font-size="10.00"> &lt; lemons::dsp::osc</text>
<text text-anchor="middle" x="235" y="-236.52" font-family="Helvetica,sans-Serif" font-size="10.00">::Sine&lt; SampleType &gt; &gt;</text>
</g>
<!-- Node14 -->
<g id="node14" class="node">
<title>Node14</title>
<g id="a_node14"><a xlink:href="structlemons_1_1_constructed_array.html" target="_top" xlink:title=" ">
<polygon fill="none" stroke="black" points="346.5,-122.02 346.5,-163.02 489.5,-163.02 489.5,-122.02 346.5,-122.02"/>
<text text-anchor="start" x="354.5" y="-151.02" font-family="Helvetica,sans-Serif" font-size="10.00">lemons::ConstructedArray</text>
<text text-anchor="start" x="354.5" y="-140.02" font-family="Helvetica,sans-Serif" font-size="10.00">&lt; lemons::dsp::osc::Saw</text>
<text text-anchor="middle" x="418" y="-129.02" font-family="Helvetica,sans-Serif" font-size="10.00">&lt; float &gt; &gt;</text>
</a>
</g>
</g>
<!-- Node1&#45;&gt;Node14 -->
<g id="edge13" class="edge">
<title>Node1&#45;&gt;Node14</title>
<path fill="none" stroke="orange" stroke-dasharray="5,2" d="M72.22,-412.07C73.13,-357.06 83.8,-227.06 161,-165.52 212.65,-124.36 290.14,-123.11 346.33,-129.37"/>
<polygon fill="orange" stroke="orange" points="68.72,-412.31 72.15,-422.33 75.72,-412.35 68.72,-412.31"/>
<text text-anchor="start" x="186.5" y="-179.52" font-family="Helvetica,sans-Serif" font-size="10.00"> &lt; lemons::dsp::osc</text>
<text text-anchor="middle" x="235" y="-168.52" font-family="Helvetica,sans-Serif" font-size="10.00">::Saw&lt; float &gt; &gt;</text>
</g>
<!-- Node15 -->
<g id="node15" class="node">
<title>Node15</title>
<g id="a_node15"><a xlink:href="structlemons_1_1_constructed_array.html" target="_top" xlink:title=" ">
<polygon fill="none" stroke="black" points="343.5,-62.02 343.5,-103.02 492.5,-103.02 492.5,-62.02 343.5,-62.02"/>
<text text-anchor="start" x="351.5" y="-91.02" font-family="Helvetica,sans-Serif" font-size="10.00">lemons::ConstructedArray</text>
<text text-anchor="start" x="351.5" y="-80.02" font-family="Helvetica,sans-Serif" font-size="10.00">&lt; lemons::dsp::osc::Square</text>
<text text-anchor="middle" x="418" y="-69.02" font-family="Helvetica,sans-Serif" font-size="10.00">&lt; SampleType &gt; &gt;</text>
</a>
</g>
</g>
<!-- Node1&#45;&gt;Node15 -->
<g id="edge14" class="edge">
<title>Node1&#45;&gt;Node15</title>
<path fill="none" stroke="orange" stroke-dasharray="5,2" d="M75.39,-412.01C84.06,-340.53 112.26,-140.92 161,-100.52 211,-59.08 287.04,-59 343.27,-66.61"/>
<polygon fill="orange" stroke="orange" points="71.87,-411.99 74.17,-422.34 78.82,-412.82 71.87,-411.99"/>
<text text-anchor="start" x="168.5" y="-114.52" font-family="Helvetica,sans-Serif" font-size="10.00"> &lt; lemons::dsp::osc</text>
<text text-anchor="middle" x="235" y="-103.52" font-family="Helvetica,sans-Serif" font-size="10.00">::Square&lt; SampleType &gt; &gt;</text>
</g>
<!-- Node16 -->
<g id="node16" class="node">
<title>Node16</title>
<g id="a_node16"><a xlink:href="structlemons_1_1_constructed_array.html" target="_top" xlink:title=" ">
<polygon fill="none" stroke="black" points="336,-2.02 336,-43.02 500,-43.02 500,-2.02 336,-2.02"/>
<text text-anchor="start" x="344" y="-31.02" font-family="Helvetica,sans-Serif" font-size="10.00">lemons::ConstructedArray</text>
<text text-anchor="start" x="344" y="-20.02" font-family="Helvetica,sans-Serif" font-size="10.00">&lt; lemons::dsp::osc::SuperSaw</text>
<text text-anchor="middle" x="418" y="-9.02" font-family="Helvetica,sans-Serif" font-size="10.00">&lt; float &gt; &gt;</text>
</a>
</g>
</g>
<!-- Node1&#45;&gt;Node16 -->
<g id="edge15" class="edge">
<title>Node1&#45;&gt;Node16</title>
<path fill="none" stroke="orange" stroke-dasharray="5,2" d="M74.23,-412.14C80.27,-332 103.22,-86.76 161,-37.52 208.35,2.83 280.3,3.6 335.87,-4.03"/>
<polygon fill="orange" stroke="orange" points="70.73,-412.09 73.49,-422.31 77.71,-412.59 70.73,-412.09"/>
<text text-anchor="start" x="180" y="-51.52" font-family="Helvetica,sans-Serif" font-size="10.00"> &lt; lemons::dsp::osc</text>
<text text-anchor="middle" x="235" y="-40.52" font-family="Helvetica,sans-Serif" font-size="10.00">::SuperSaw&lt; float &gt; &gt;</text>
</g>
</g>
</svg>
