<?xml version="1.0" encoding="UTF-8" standalone="no"?>
<!DOCTYPE svg PUBLIC "-//W3C//DTD SVG 1.1//EN"
 "http://www.w3.org/Graphics/SVG/1.1/DTD/svg11.dtd">
<!-- Generated by graphviz version 2.50.0 (20211204.2007)
 -->
<!-- Title: lemons::ConstructedArray&lt; ObjectType &gt; Pages: 1 -->
<svg width="488pt" height="971pt"
 viewBox="0.00 0.00 488.00 971.44" xmlns="http://www.w3.org/2000/svg" xmlns:xlink="http://www.w3.org/1999/xlink">
<g id="graph0" class="graph" transform="scale(1 1) rotate(0) translate(4 967.44)">
<title>lemons::ConstructedArray&lt; ObjectType &gt;</title>
<!-- Node1 -->
<g id="node1" class="node">
<title>Node1</title>
<g id="a_node1"><a xlink:title="A wrapper around juce::OwnedArray that automatically deletes or creates objects when you resize it.">
<polygon fill="#bfbfbf" stroke="black" points="0,-480.44 0,-510.44 131,-510.44 131,-480.44 0,-480.44"/>
<text text-anchor="start" x="8" y="-498.44" font-family="Helvetica,sans-Serif" font-size="10.00">lemons::ConstructedArray</text>
<text text-anchor="middle" x="65.5" y="-487.44" font-family="Helvetica,sans-Serif" font-size="10.00">&lt; ObjectType &gt;</text>
</a>
</g>
</g>
<!-- Node2 -->
<g id="node2" class="node">
<title>Node2</title>
<g id="a_node2"><a xlink:href="structlemons_1_1_constructed_array.html" target="_top" xlink:title=" ">
<polygon fill="none" stroke="black" points="323.5,-923.44 323.5,-953.44 469.5,-953.44 469.5,-923.44 323.5,-923.44"/>
<text text-anchor="start" x="331.5" y="-941.44" font-family="Helvetica,sans-Serif" font-size="10.00">lemons::ConstructedArray</text>
<text text-anchor="middle" x="396.5" y="-930.44" font-family="Helvetica,sans-Serif" font-size="10.00">&lt; OscType&lt; SampleType &gt; &gt;</text>
</a>
</g>
</g>
<!-- Node1&#45;&gt;Node2 -->
<g id="edge1" class="edge">
<title>Node1&#45;&gt;Node2</title>
<path fill="none" stroke="orange" stroke-dasharray="5,2" d="M67.75,-520.81C72.34,-602.61 91.12,-857.18 149,-910.44 195.19,-952.94 268.69,-956.13 323.43,-950.98"/>
<polygon fill="orange" stroke="orange" points="71.24,-520.46 67.21,-510.66 64.25,-520.83 71.24,-520.46"/>
<text text-anchor="middle" x="222" y="-955.44" font-family="Helvetica,sans-Serif" font-size="10.00"> &lt; OscType&lt; SampleType &gt; &gt;</text>
</g>
<!-- Node3 -->
<g id="node3" class="node">
<title>Node3</title>
<g id="a_node3"><a xlink:href="structlemons_1_1_constructed_array.html" target="_top" xlink:title=" ">
<polygon fill="none" stroke="black" points="324,-862.94 324,-903.94 469,-903.94 469,-862.94 324,-862.94"/>
<text text-anchor="start" x="332" y="-891.94" font-family="Helvetica,sans-Serif" font-size="10.00">lemons::ConstructedArray</text>
<text text-anchor="start" x="332" y="-880.94" font-family="Helvetica,sans-Serif" font-size="10.00">&lt; lemons::dsp::CircularBuffer</text>
<text text-anchor="middle" x="396.5" y="-869.94" font-family="Helvetica,sans-Serif" font-size="10.00">&lt; SampleType &gt; &gt;</text>
</a>
</g>
</g>
<!-- Node1&#45;&gt;Node3 -->
<g id="edge2" class="edge">
<title>Node1&#45;&gt;Node3</title>
<path fill="none" stroke="orange" stroke-dasharray="5,2" d="M68.48,-520.86C74.89,-595.94 97.68,-814.2 149,-859.44 174.2,-881.65 260.47,-885.69 323.87,-885.46"/>
<polygon fill="orange" stroke="orange" points="71.94,-520.16 67.62,-510.48 64.96,-520.73 71.94,-520.16"/>
<text text-anchor="start" x="156" y="-898.44" font-family="Helvetica,sans-Serif" font-size="10.00"> &lt; lemons::dsp::CircularBuffer</text>
<text text-anchor="middle" x="222" y="-887.44" font-family="Helvetica,sans-Serif" font-size="10.00">&lt; SampleType &gt; &gt;</text>
</g>
<!-- Node4 -->
<g id="node4" class="node">
<title>Node4</title>
<g id="a_node4"><a xlink:href="structlemons_1_1_constructed_array.html" target="_top" xlink:title=" ">
<polygon fill="none" stroke="black" points="331,-813.44 331,-843.44 462,-843.44 462,-813.44 331,-813.44"/>
<text text-anchor="start" x="339" y="-831.44" font-family="Helvetica,sans-Serif" font-size="10.00">lemons::ConstructedArray</text>
<text text-anchor="middle" x="396.5" y="-820.44" font-family="Helvetica,sans-Serif" font-size="10.00">&lt; InterpolatorType &gt;</text>
</a>
</g>
</g>
<!-- Node1&#45;&gt;Node4 -->
<g id="edge3" class="edge">
<title>Node1&#45;&gt;Node4</title>
<path fill="none" stroke="orange" stroke-dasharray="5,2" d="M69.5,-520.72C78.02,-588.05 104.69,-769.1 149,-806.44 198.86,-848.45 276.22,-848.39 330.96,-841.37"/>
<polygon fill="orange" stroke="orange" points="72.94,-520.07 68.24,-510.58 66,-520.93 72.94,-520.07"/>
<text text-anchor="middle" x="222" y="-847.44" font-family="Helvetica,sans-Serif" font-size="10.00"> &lt; InterpolatorType &gt;</text>
</g>
<!-- Node5 -->
<g id="node5" class="node">
<title>Node5</title>
<g id="a_node5"><a xlink:href="structlemons_1_1_constructed_array.html" target="_top" xlink:title=" ">
<polygon fill="none" stroke="black" points="317,-764.44 317,-794.44 476,-794.44 476,-764.44 317,-764.44"/>
<text text-anchor="start" x="325" y="-782.44" font-family="Helvetica,sans-Serif" font-size="10.00">lemons::ConstructedArray</text>
<text text-anchor="middle" x="396.5" y="-771.44" font-family="Helvetica,sans-Serif" font-size="10.00">&lt; StreamType&lt; SampleType &gt; &gt;</text>
</a>
</g>
</g>
<!-- Node1&#45;&gt;Node5 -->
<g id="edge4" class="edge">
<title>Node1&#45;&gt;Node5</title>
<path fill="none" stroke="orange" stroke-dasharray="5,2" d="M66.07,-520.78C66.67,-573.86 76.31,-696.62 149,-755.44 195.38,-792.97 263.89,-796.86 316.93,-792.56"/>
<polygon fill="orange" stroke="orange" points="69.57,-520.56 66.05,-510.56 62.57,-520.57 69.57,-520.56"/>
<text text-anchor="middle" x="222" y="-796.44" font-family="Helvetica,sans-Serif" font-size="10.00"> &lt; StreamType&lt; SampleType &gt; &gt;</text>
</g>
<!-- Node6 -->
<g id="node6" class="node">
<title>Node6</title>
<g id="a_node6"><a xlink:href="structlemons_1_1_constructed_array.html" target="_top" xlink:title=" ">
<polygon fill="none" stroke="black" points="313,-715.44 313,-745.44 480,-745.44 480,-715.44 313,-715.44"/>
<text text-anchor="start" x="321" y="-733.44" font-family="Helvetica,sans-Serif" font-size="10.00">lemons::ConstructedArray</text>
<text text-anchor="middle" x="396.5" y="-722.44" font-family="Helvetica,sans-Serif" font-size="10.00">&lt; lemons::dsp::SynthVoiceBase &gt;</text>
</a>
</g>
</g>
<!-- Node1&#45;&gt;Node6 -->
<g id="edge5" class="edge">
<title>Node1&#45;&gt;Node6</title>
<path fill="none" stroke="orange" stroke-dasharray="5,2" d="M68.39,-520.65C73.23,-565.49 90.2,-658.63 149,-703.44 174.13,-722.58 251.45,-728.65 312.87,-730.34"/>
<polygon fill="orange" stroke="orange" points="71.87,-520.21 67.43,-510.59 64.9,-520.88 71.87,-520.21"/>
<text text-anchor="start" x="161" y="-743.44" font-family="Helvetica,sans-Serif" font-size="10.00"> &lt; lemons::dsp::SynthVoice</text>
<text text-anchor="middle" x="222" y="-732.44" font-family="Helvetica,sans-Serif" font-size="10.00">Base &gt;</text>
</g>
<!-- Node7 -->
<g id="node7" class="node">
<title>Node7</title>
<g id="a_node7"><a xlink:href="structlemons_1_1_constructed_array.html" target="_top" xlink:title=" ">
<polygon fill="none" stroke="black" points="331,-654.94 331,-695.94 462,-695.94 462,-654.94 331,-654.94"/>
<text text-anchor="start" x="339" y="-683.94" font-family="Helvetica,sans-Serif" font-size="10.00">lemons::ConstructedArray</text>
<text text-anchor="start" x="339" y="-672.94" font-family="Helvetica,sans-Serif" font-size="10.00">&lt; lemons::dsp::osc::Sine</text>
<text text-anchor="middle" x="396.5" y="-661.94" font-family="Helvetica,sans-Serif" font-size="10.00">&lt; SampleType &gt; &gt;</text>
</a>
</g>
</g>
<!-- Node1&#45;&gt;Node7 -->
<g id="edge6" class="edge">
<title>Node1&#45;&gt;Node7</title>
<path fill="none" stroke="orange" stroke-dasharray="5,2" d="M74.01,-520.44C84.99,-552.38 108.63,-606.82 149,-634.44 202.53,-671.06 277.6,-678.89 330.8,-679.07"/>
<polygon fill="orange" stroke="orange" points="77.21,-518.95 70.77,-510.54 70.55,-521.13 77.21,-518.95"/>
<text text-anchor="start" x="168.5" y="-691.44" font-family="Helvetica,sans-Serif" font-size="10.00"> &lt; lemons::dsp::osc</text>
<text text-anchor="middle" x="222" y="-680.44" font-family="Helvetica,sans-Serif" font-size="10.00">::Sine&lt; SampleType &gt; &gt;</text>
</g>
<!-- Node8 -->
<g id="node8" class="node">
<title>Node8</title>
<g id="a_node8"><a xlink:href="structlemons_1_1_constructed_array.html" target="_top" xlink:title=" ">
<polygon fill="none" stroke="black" points="331,-594.94 331,-635.94 462,-635.94 462,-594.94 331,-594.94"/>
<text text-anchor="start" x="339" y="-623.94" font-family="Helvetica,sans-Serif" font-size="10.00">lemons::ConstructedArray</text>
<text text-anchor="start" x="339" y="-612.94" font-family="Helvetica,sans-Serif" font-size="10.00">&lt; lemons::dsp::osc::Saw</text>
<text text-anchor="middle" x="396.5" y="-601.94" font-family="Helvetica,sans-Serif" font-size="10.00">&lt; SampleType &gt; &gt;</text>
</a>
</g>
</g>
<!-- Node1&#45;&gt;Node8 -->
<g id="edge7" class="edge">
<title>Node1&#45;&gt;Node8</title>
<path fill="none" stroke="orange" stroke-dasharray="5,2" d="M85.32,-518.41C100.64,-535.52 123.8,-557.98 149,-570.44 206.42,-598.83 279.34,-609.45 330.93,-613.35"/>
<polygon fill="orange" stroke="orange" points="87.65,-515.76 78.45,-510.51 82.37,-520.36 87.65,-515.76"/>
<text text-anchor="start" x="168.5" y="-622.44" font-family="Helvetica,sans-Serif" font-size="10.00"> &lt; lemons::dsp::osc</text>
<text text-anchor="middle" x="222" y="-611.44" font-family="Helvetica,sans-Serif" font-size="10.00">::Saw&lt; SampleType &gt; &gt;</text>
</g>
<!-- Node9 -->
<g id="node9" class="node">
<title>Node9</title>
<g id="a_node9"><a xlink:href="structlemons_1_1_constructed_array.html" target="_top" xlink:title=" ">
<polygon fill="none" stroke="black" points="328,-534.94 328,-575.94 465,-575.94 465,-534.94 328,-534.94"/>
<text text-anchor="start" x="336" y="-563.94" font-family="Helvetica,sans-Serif" font-size="10.00">lemons::ConstructedArray</text>
<text text-anchor="start" x="336" y="-552.94" font-family="Helvetica,sans-Serif" font-size="10.00">&lt; lemons::dsp::osc::Square</text>
<text text-anchor="middle" x="396.5" y="-541.94" font-family="Helvetica,sans-Serif" font-size="10.00">&lt; SampleType &gt; &gt;</text>
</a>
</g>
</g>
<!-- Node1&#45;&gt;Node9 -->
<g id="edge8" class="edge">
<title>Node1&#45;&gt;Node9</title>
<path fill="none" stroke="orange" stroke-dasharray="5,2" d="M119.06,-513.45C128.93,-516.42 139.22,-519.24 149,-521.44 208.85,-534.9 278.15,-543.89 328,-549.22"/>
<polygon fill="orange" stroke="orange" points="119.96,-510.07 109.37,-510.45 117.89,-516.75 119.96,-510.07"/>
<text text-anchor="start" x="163" y="-558.44" font-family="Helvetica,sans-Serif" font-size="10.00"> &lt; lemons::dsp::osc</text>
<text text-anchor="middle" x="222" y="-547.44" font-family="Helvetica,sans-Serif" font-size="10.00">::Square&lt; SampleType &gt; &gt;</text>
</g>
<!-- Node10 -->
<g id="node10" class="node">
<title>Node10</title>
<g id="a_node10"><a xlink:href="structlemons_1_1_constructed_array.html" target="_top" xlink:title=" ">
<polygon fill="none" stroke="black" points="326,-474.94 326,-515.94 467,-515.94 467,-474.94 326,-474.94"/>
<text text-anchor="start" x="334" y="-503.94" font-family="Helvetica,sans-Serif" font-size="10.00">lemons::ConstructedArray</text>
<text text-anchor="start" x="334" y="-492.94" font-family="Helvetica,sans-Serif" font-size="10.00">&lt; lemons::dsp::osc::Triangle</text>
<text text-anchor="middle" x="396.5" y="-481.94" font-family="Helvetica,sans-Serif" font-size="10.00">&lt; SampleType &gt; &gt;</text>
</a>
</g>
</g>
<!-- Node1&#45;&gt;Node10 -->
<g id="edge9" class="edge">
<title>Node1&#45;&gt;Node10</title>
<path fill="none" stroke="orange" stroke-dasharray="5,2" d="M141.22,-495.44C196.67,-495.44 271.74,-495.44 325.93,-495.44"/>
<polygon fill="orange" stroke="orange" points="141.11,-491.94 131.11,-495.44 141.11,-498.94 141.11,-491.94"/>
<text text-anchor="start" x="161" y="-509.44" font-family="Helvetica,sans-Serif" font-size="10.00"> &lt; lemons::dsp::osc</text>
<text text-anchor="middle" x="222" y="-498.44" font-family="Helvetica,sans-Serif" font-size="10.00">::Triangle&lt; SampleType &gt; &gt;</text>
</g>
<!-- Node11 -->
<g id="node11" class="node">
<title>Node11</title>
<g id="a_node11"><a xlink:href="structlemons_1_1_constructed_array.html" target="_top" xlink:title=" ">
<polygon fill="none" stroke="black" points="321,-414.94 321,-455.94 472,-455.94 472,-414.94 321,-414.94"/>
<text text-anchor="start" x="329" y="-443.94" font-family="Helvetica,sans-Serif" font-size="10.00">lemons::ConstructedArray</text>
<text text-anchor="start" x="329" y="-432.94" font-family="Helvetica,sans-Serif" font-size="10.00">&lt; lemons::dsp::osc::Detunable</text>
<text text-anchor="middle" x="396.5" y="-421.94" font-family="Helvetica,sans-Serif" font-size="10.00">&lt; SampleType &gt; &gt;</text>
</a>
</g>
</g>
<!-- Node1&#45;&gt;Node11 -->
<g id="edge10" class="edge">
<title>Node1&#45;&gt;Node11</title>
<path fill="none" stroke="orange" stroke-dasharray="5,2" d="M119.06,-477.42C128.93,-474.46 139.22,-471.64 149,-469.44 206.01,-456.62 271.58,-447.86 320.76,-442.44"/>
<polygon fill="orange" stroke="orange" points="117.89,-474.12 109.37,-480.42 119.96,-480.81 117.89,-474.12"/>
<text text-anchor="start" x="156" y="-483.44" font-family="Helvetica,sans-Serif" font-size="10.00"> &lt; lemons::dsp::osc</text>
<text text-anchor="middle" x="222" y="-472.44" font-family="Helvetica,sans-Serif" font-size="10.00">::Detunable&lt; SampleType &gt; &gt;</text>
</g>
<!-- Node12 -->
<g id="node12" class="node">
<title>Node12</title>
<g id="a_node12"><a xlink:href="structlemons_1_1_constructed_array.html" target="_top" xlink:title=" ">
<polygon fill="none" stroke="black" points="331,-354.94 331,-395.94 462,-395.94 462,-354.94 331,-354.94"/>
<text text-anchor="start" x="339" y="-383.94" font-family="Helvetica,sans-Serif" font-size="10.00">lemons::ConstructedArray</text>
<text text-anchor="start" x="339" y="-372.94" font-family="Helvetica,sans-Serif" font-size="10.00">&lt; lemons::dsp::Oscillator</text>
<text text-anchor="middle" x="396.5" y="-361.94" font-family="Helvetica,sans-Serif" font-size="10.00">&lt; SampleType &gt; &gt;</text>
</a>
</g>
</g>
<!-- Node1&#45;&gt;Node12 -->
<g id="edge11" class="edge">
<title>Node1&#45;&gt;Node12</title>
<path fill="none" stroke="orange" stroke-dasharray="5,2" d="M85.24,-472.13C100.52,-454.78 123.66,-432.01 149,-419.44 206.34,-390.99 279.27,-380.71 330.89,-377.11"/>
<polygon fill="orange" stroke="orange" points="82.23,-470.26 78.39,-480.14 87.55,-474.81 82.23,-470.26"/>
<text text-anchor="start" x="165.5" y="-433.44" font-family="Helvetica,sans-Serif" font-size="10.00"> &lt; lemons::dsp::Oscillator</text>
<text text-anchor="middle" x="222" y="-422.44" font-family="Helvetica,sans-Serif" font-size="10.00">&lt; SampleType &gt; &gt;</text>
</g>
<!-- Node13 -->
<g id="node13" class="node">
<title>Node13</title>
<g id="a_node13"><a xlink:href="structlemons_1_1_constructed_array.html" target="_top" xlink:title=" ">
<polygon fill="none" stroke="black" points="331,-294.94 331,-335.94 462,-335.94 462,-294.94 331,-294.94"/>
<text text-anchor="start" x="339" y="-323.94" font-family="Helvetica,sans-Serif" font-size="10.00">lemons::ConstructedArray</text>
<text text-anchor="start" x="339" y="-312.94" font-family="Helvetica,sans-Serif" font-size="10.00">&lt; lemons::dsp::osc::Sine</text>
<text text-anchor="middle" x="396.5" y="-301.94" font-family="Helvetica,sans-Serif" font-size="10.00">&lt; float &gt; &gt;</text>
</a>
</g>
</g>
<!-- Node1&#45;&gt;Node13 -->
<g id="edge12" class="edge">
<title>Node1&#45;&gt;Node13</title>
<path fill="none" stroke="orange" stroke-dasharray="5,2" d="M73.73,-470.46C84.5,-438.07 108,-382.44 149,-354.44 202.49,-317.91 277.57,-310.74 330.78,-311.11"/>
<polygon fill="orange" stroke="orange" points="70.36,-469.5 70.68,-480.09 77.04,-471.62 70.36,-469.5"/>
<text text-anchor="start" x="178" y="-368.44" font-family="Helvetica,sans-Serif" font-size="10.00"> &lt; lemons::dsp::osc</text>
<text text-anchor="middle" x="222" y="-357.44" font-family="Helvetica,sans-Serif" font-size="10.00">::Sine&lt; float &gt; &gt;</text>
</g>
<!-- Node14 -->
<g id="node14" class="node">
<title>Node14</title>
<g id="a_node14"><a xlink:href="structlemons_1_1_constructed_array.html" target="_top" xlink:title=" ">
<polygon fill="none" stroke="black" points="331,-234.94 331,-275.94 462,-275.94 462,-234.94 331,-234.94"/>
<text text-anchor="start" x="339" y="-263.94" font-family="Helvetica,sans-Serif" font-size="10.00">lemons::ConstructedArray</text>
<text text-anchor="start" x="339" y="-252.94" font-family="Helvetica,sans-Serif" font-size="10.00">&lt; lemons::dsp::osc::Saw</text>
<text text-anchor="middle" x="396.5" y="-241.94" font-family="Helvetica,sans-Serif" font-size="10.00">&lt; float &gt; &gt;</text>
</a>
</g>
</g>
<!-- Node1&#45;&gt;Node14 -->
<g id="edge13" class="edge">
<title>Node1&#45;&gt;Node14</title>
<path fill="none" stroke="orange" stroke-dasharray="5,2" d="M68.36,-470.07C73.16,-424.91 90.05,-331.07 149,-285.44 200.39,-245.65 276.73,-242.32 330.82,-246.31"/>
<polygon fill="orange" stroke="orange" points="64.86,-469.9 67.41,-480.19 71.83,-470.56 64.86,-469.9"/>
<text text-anchor="start" x="178" y="-299.44" font-family="Helvetica,sans-Serif" font-size="10.00"> &lt; lemons::dsp::osc</text>
<text text-anchor="middle" x="222" y="-288.44" font-family="Helvetica,sans-Serif" font-size="10.00">::Saw&lt; float &gt; &gt;</text>
</g>
<!-- Node15 -->
<g id="node15" class="node">
<title>Node15</title>
<g id="a_node15"><a xlink:href="structlemons_1_1_constructed_array.html" target="_top" xlink:title=" ">
<polygon fill="none" stroke="black" points="328,-174.94 328,-215.94 465,-215.94 465,-174.94 328,-174.94"/>
<text text-anchor="start" x="336" y="-203.94" font-family="Helvetica,sans-Serif" font-size="10.00">lemons::ConstructedArray</text>
<text text-anchor="start" x="336" y="-192.94" font-family="Helvetica,sans-Serif" font-size="10.00">&lt; lemons::dsp::osc::Square</text>
<text text-anchor="middle" x="396.5" y="-181.94" font-family="Helvetica,sans-Serif" font-size="10.00">&lt; float &gt; &gt;</text>
</a>
</g>
</g>
<!-- Node1&#45;&gt;Node15 -->
<g id="edge14" class="edge">
<title>Node1&#45;&gt;Node15</title>
<path fill="none" stroke="orange" stroke-dasharray="5,2" d="M70.4,-470.03C80.47,-407.89 109.39,-250.94 149,-218.44 198.42,-177.88 273.64,-176.69 327.98,-182.81"/>
<polygon fill="orange" stroke="orange" points="66.9,-469.72 68.79,-480.15 73.81,-470.82 66.9,-469.72"/>
<text text-anchor="start" x="178" y="-232.44" font-family="Helvetica,sans-Serif" font-size="10.00"> &lt; lemons::dsp::osc</text>
<text text-anchor="middle" x="222" y="-221.44" font-family="Helvetica,sans-Serif" font-size="10.00">::Square&lt; float &gt; &gt;</text>
</g>
<!-- Node16 -->
<g id="node16" class="node">
<title>Node16</title>
<g id="a_node16"><a xlink:href="structlemons_1_1_constructed_array.html" target="_top" xlink:title=" ">
<polygon fill="none" stroke="black" points="326,-114.94 326,-155.94 467,-155.94 467,-114.94 326,-114.94"/>
<text text-anchor="start" x="334" y="-143.94" font-family="Helvetica,sans-Serif" font-size="10.00">lemons::ConstructedArray</text>
<text text-anchor="start" x="334" y="-132.94" font-family="Helvetica,sans-Serif" font-size="10.00">&lt; lemons::dsp::osc::Triangle</text>
<text text-anchor="middle" x="396.5" y="-121.94" font-family="Helvetica,sans-Serif" font-size="10.00">&lt; float &gt; &gt;</text>
</a>
</g>
</g>
<!-- Node1&#45;&gt;Node16 -->
<g id="edge15" class="edge">
<title>Node1&#45;&gt;Node16</title>
<path fill="none" stroke="orange" stroke-dasharray="5,2" d="M68.82,-470.02C75.97,-397.97 100.16,-194.87 149,-153.44 197.18,-112.57 271.49,-112.76 325.93,-120.3"/>
<polygon fill="orange" stroke="orange" points="65.33,-469.76 67.86,-480.05 72.3,-470.43 65.33,-469.76"/>
<text text-anchor="start" x="178" y="-167.44" font-family="Helvetica,sans-Serif" font-size="10.00"> &lt; lemons::dsp::osc</text>
<text text-anchor="middle" x="222" y="-156.44" font-family="Helvetica,sans-Serif" font-size="10.00">::Triangle&lt; float &gt; &gt;</text>
</g>
<!-- Node17 -->
<g id="node17" class="node">
<title>Node17</title>
<g id="a_node17"><a xlink:href="structlemons_1_1_constructed_array.html" target="_top" xlink:title=" ">
<polygon fill="none" stroke="black" points="321,-54.94 321,-95.94 472,-95.94 472,-54.94 321,-54.94"/>
<text text-anchor="start" x="329" y="-83.94" font-family="Helvetica,sans-Serif" font-size="10.00">lemons::ConstructedArray</text>
<text text-anchor="start" x="329" y="-72.94" font-family="Helvetica,sans-Serif" font-size="10.00">&lt; lemons::dsp::osc::Detunable</text>
<text text-anchor="middle" x="396.5" y="-61.94" font-family="Helvetica,sans-Serif" font-size="10.00">&lt; float &gt; &gt;</text>
</a>
</g>
</g>
<!-- Node1&#45;&gt;Node17 -->
<g id="edge16" class="edge">
<title>Node1&#45;&gt;Node17</title>
<path fill="none" stroke="orange" stroke-dasharray="5,2" d="M67.77,-469.69C72.35,-388.42 90.96,-139.68 149,-89.44 195.34,-49.32 266.83,-49.65 320.9,-57.76"/>
<polygon fill="orange" stroke="orange" points="64.26,-469.84 67.21,-480.01 71.25,-470.22 64.26,-469.84"/>
<text text-anchor="start" x="173.5" y="-103.44" font-family="Helvetica,sans-Serif" font-size="10.00"> &lt; lemons::dsp::osc</text>
<text text-anchor="middle" x="222" y="-92.44" font-family="Helvetica,sans-Serif" font-size="10.00">::Detunable&lt; float &gt; &gt;</text>
</g>
<!-- Node18 -->
<g id="node18" class="node">
<title>Node18</title>
<g id="a_node18"><a xlink:href="structlemons_1_1_constructed_array.html" target="_top" xlink:title=" ">
<polygon fill="none" stroke="black" points="331,-5.44 331,-35.44 462,-35.44 462,-5.44 331,-5.44"/>
<text text-anchor="start" x="339" y="-23.44" font-family="Helvetica,sans-Serif" font-size="10.00">lemons::ConstructedArray</text>
<text text-anchor="middle" x="396.5" y="-12.44" font-family="Helvetica,sans-Serif" font-size="10.00">&lt; lemons::plugin::LFO &gt;</text>
</a>
</g>
</g>
<!-- Node1&#45;&gt;Node18 -->
<g id="edge17" class="edge">
<title>Node1&#45;&gt;Node18</title>
<path fill="none" stroke="orange" stroke-dasharray="5,2" d="M67.16,-470.02C70,-382.64 84.19,-96.74 149,-38.44 197.65,5.32 275.81,3.33 331.06,-5.43"/>
<polygon fill="orange" stroke="orange" points="63.66,-470.01 66.86,-480.11 70.66,-470.22 63.66,-470.01"/>
<text text-anchor="middle" x="222" y="-41.44" font-family="Helvetica,sans-Serif" font-size="10.00"> &lt; lemons::plugin::LFO &gt;</text>
</g>
</g>
</svg>
