<?xml version="1.0" encoding="UTF-8" standalone="no"?>
<!DOCTYPE svg PUBLIC "-//W3C//DTD SVG 1.1//EN"
 "http://www.w3.org/Graphics/SVG/1.1/DTD/svg11.dtd">
<!-- Generated by graphviz version 2.43.0 (0)
 -->
<!-- Title: lemons::ConstructedArray&lt; ObjectType &gt; Pages: 1 -->
<svg width="499pt" height="816pt"
 viewBox="0.00 0.00 499.00 816.00" xmlns="http://www.w3.org/2000/svg" xmlns:xlink="http://www.w3.org/1999/xlink">
<g id="graph0" class="graph" transform="scale(1 1) rotate(0) translate(4 812)">
<title>lemons::ConstructedArray&lt; ObjectType &gt;</title>
<!-- Node1 -->
<g id="node1" class="node">
<title>Node1</title>
<g id="a_node1"><a xlink:title="A wrapper around juce::OwnedArray that automatically deletes or creates objects when you resize it.">
<polygon fill="#bfbfbf" stroke="black" points="0,-393 0,-423 143,-423 143,-393 0,-393"/>
<text text-anchor="start" x="8" y="-411" font-family="Helvetica,sans-Serif" font-size="10.00">lemons::ConstructedArray</text>
<text text-anchor="middle" x="71.5" y="-400" font-family="Helvetica,sans-Serif" font-size="10.00">&lt; ObjectType &gt;</text>
</a>
</g>
</g>
<!-- Node2 -->
<g id="node2" class="node">
<title>Node2</title>
<g id="a_node2"><a xlink:href="structlemons_1_1_constructed_array.html" target="_top" xlink:title=" ">
<polygon fill="none" stroke="black" points="327,-749.5 327,-790.5 491,-790.5 491,-749.5 327,-749.5"/>
<text text-anchor="start" x="335" y="-778.5" font-family="Helvetica,sans-Serif" font-size="10.00">lemons::ConstructedArray</text>
<text text-anchor="start" x="335" y="-767.5" font-family="Helvetica,sans-Serif" font-size="10.00">&lt; lemons::dsp::osc::SuperSaw</text>
<text text-anchor="middle" x="409" y="-756.5" font-family="Helvetica,sans-Serif" font-size="10.00">&lt; SampleType &gt; &gt;</text>
</a>
</g>
</g>
<!-- Node1&#45;&gt;Node2 -->
<g id="edge1" class="edge">
<title>Node1&#45;&gt;Node2</title>
<path fill="none" stroke="orange" stroke-dasharray="5,2" d="M75.42,-433.61C84.14,-505.36 112.48,-705.79 161,-747 206.05,-785.27 273.79,-789.11 326.95,-784.45"/>
<polygon fill="orange" stroke="orange" points="78.84,-432.76 74.18,-423.24 71.89,-433.59 78.84,-432.76"/>
<text text-anchor="start" x="161" y="-800" font-family="Helvetica,sans-Serif" font-size="10.00"> &lt; lemons::dsp::osc</text>
<text text-anchor="middle" x="235" y="-789" font-family="Helvetica,sans-Serif" font-size="10.00">::SuperSaw&lt; SampleType &gt; &gt;</text>
</g>
<!-- Node3 -->
<g id="node3" class="node">
<title>Node3</title>
<g id="a_node3"><a xlink:href="structlemons_1_1_constructed_array.html" target="_top" xlink:title=" ">
<polygon fill="none" stroke="black" points="337.5,-689.5 337.5,-730.5 480.5,-730.5 480.5,-689.5 337.5,-689.5"/>
<text text-anchor="start" x="345.5" y="-718.5" font-family="Helvetica,sans-Serif" font-size="10.00">lemons::ConstructedArray</text>
<text text-anchor="start" x="345.5" y="-707.5" font-family="Helvetica,sans-Serif" font-size="10.00">&lt; lemons::dsp::osc::Saw</text>
<text text-anchor="middle" x="409" y="-696.5" font-family="Helvetica,sans-Serif" font-size="10.00">&lt; SampleType &gt; &gt;</text>
</a>
</g>
</g>
<!-- Node1&#45;&gt;Node3 -->
<g id="edge2" class="edge">
<title>Node1&#45;&gt;Node3</title>
<path fill="none" stroke="orange" stroke-dasharray="5,2" d="M72.36,-433.27C73.56,-487.93 84.77,-617.27 161,-680 209.7,-720.07 283.19,-724.2 337.35,-720.34"/>
<polygon fill="orange" stroke="orange" points="75.86,-433.04 72.24,-423.08 68.86,-433.13 75.86,-433.04"/>
<text text-anchor="start" x="175" y="-735" font-family="Helvetica,sans-Serif" font-size="10.00"> &lt; lemons::dsp::osc</text>
<text text-anchor="middle" x="235" y="-724" font-family="Helvetica,sans-Serif" font-size="10.00">::Saw&lt; SampleType &gt; &gt;</text>
</g>
<!-- Node4 -->
<g id="node4" class="node">
<title>Node4</title>
<g id="a_node4"><a xlink:href="structlemons_1_1_constructed_array.html" target="_top" xlink:title=" ">
<polygon fill="none" stroke="black" points="328.5,-640 328.5,-670 489.5,-670 489.5,-640 328.5,-640"/>
<text text-anchor="start" x="336.5" y="-658" font-family="Helvetica,sans-Serif" font-size="10.00">lemons::ConstructedArray</text>
<text text-anchor="middle" x="409" y="-647" font-family="Helvetica,sans-Serif" font-size="10.00">&lt; Osctype&lt; SampleType &gt; &gt;</text>
</a>
</g>
</g>
<!-- Node1&#45;&gt;Node4 -->
<g id="edge3" class="edge">
<title>Node1&#45;&gt;Node4</title>
<path fill="none" stroke="orange" stroke-dasharray="5,2" d="M74.66,-433.42C80.1,-479.99 98.73,-578.56 161,-626 208.14,-661.91 275.73,-667.65 328.29,-665.25"/>
<polygon fill="orange" stroke="orange" points="78.12,-432.85 73.59,-423.27 71.16,-433.58 78.12,-432.85"/>
<text text-anchor="middle" x="235" y="-668" font-family="Helvetica,sans-Serif" font-size="10.00"> &lt; Osctype&lt; SampleType &gt; &gt;</text>
</g>
<!-- Node5 -->
<g id="node5" class="node">
<title>Node5</title>
<g id="a_node5"><a xlink:href="structlemons_1_1_constructed_array.html" target="_top" xlink:title=" ">
<polygon fill="none" stroke="black" points="329,-579.5 329,-620.5 489,-620.5 489,-579.5 329,-579.5"/>
<text text-anchor="start" x="337" y="-608.5" font-family="Helvetica,sans-Serif" font-size="10.00">lemons::ConstructedArray</text>
<text text-anchor="start" x="337" y="-597.5" font-family="Helvetica,sans-Serif" font-size="10.00">&lt; lemons::dsp::CircularBuffer</text>
<text text-anchor="middle" x="409" y="-586.5" font-family="Helvetica,sans-Serif" font-size="10.00">&lt; SampleType &gt; &gt;</text>
</a>
</g>
</g>
<!-- Node1&#45;&gt;Node5 -->
<g id="edge4" class="edge">
<title>Node1&#45;&gt;Node5</title>
<path fill="none" stroke="orange" stroke-dasharray="5,2" d="M80.24,-432.95C92,-466.42 117.69,-525.08 161,-555 209.95,-588.82 276.92,-599.37 328.78,-601.84"/>
<polygon fill="orange" stroke="orange" points="83.55,-431.8 77.04,-423.44 76.91,-434.03 83.55,-431.8"/>
<text text-anchor="start" x="161.5" y="-614" font-family="Helvetica,sans-Serif" font-size="10.00"> &lt; lemons::dsp::CircularBuffer</text>
<text text-anchor="middle" x="235" y="-603" font-family="Helvetica,sans-Serif" font-size="10.00">&lt; SampleType &gt; &gt;</text>
</g>
<!-- Node6 -->
<g id="node6" class="node">
<title>Node6</title>
<g id="a_node6"><a xlink:href="structlemons_1_1_constructed_array.html" target="_top" xlink:title=" ">
<polygon fill="none" stroke="black" points="334.5,-519.5 334.5,-560.5 483.5,-560.5 483.5,-519.5 334.5,-519.5"/>
<text text-anchor="start" x="342.5" y="-548.5" font-family="Helvetica,sans-Serif" font-size="10.00">lemons::ConstructedArray</text>
<text text-anchor="start" x="342.5" y="-537.5" font-family="Helvetica,sans-Serif" font-size="10.00">&lt; lemons::dsp::osc::Square</text>
<text text-anchor="middle" x="409" y="-526.5" font-family="Helvetica,sans-Serif" font-size="10.00">&lt; float &gt; &gt;</text>
</a>
</g>
</g>
<!-- Node1&#45;&gt;Node6 -->
<g id="edge5" class="edge">
<title>Node1&#45;&gt;Node6</title>
<path fill="none" stroke="orange" stroke-dasharray="5,2" d="M92.22,-430.83C108.8,-448.56 134.07,-472.36 161,-486 215.43,-513.57 283.57,-527.12 334.49,-533.75"/>
<polygon fill="orange" stroke="orange" points="94.56,-428.2 85.24,-423.17 89.39,-432.92 94.56,-428.2"/>
<text text-anchor="start" x="186.5" y="-543" font-family="Helvetica,sans-Serif" font-size="10.00"> &lt; lemons::dsp::osc</text>
<text text-anchor="middle" x="235" y="-532" font-family="Helvetica,sans-Serif" font-size="10.00">::Square&lt; float &gt; &gt;</text>
</g>
<!-- Node7 -->
<g id="node7" class="node">
<title>Node7</title>
<g id="a_node7"><a xlink:href="structlemons_1_1_constructed_array.html" target="_top" xlink:title=" ">
<polygon fill="none" stroke="black" points="337.5,-470 337.5,-500 480.5,-500 480.5,-470 337.5,-470"/>
<text text-anchor="start" x="345.5" y="-488" font-family="Helvetica,sans-Serif" font-size="10.00">lemons::ConstructedArray</text>
<text text-anchor="middle" x="409" y="-477" font-family="Helvetica,sans-Serif" font-size="10.00">&lt; InterpolatorType &gt;</text>
</a>
</g>
</g>
<!-- Node1&#45;&gt;Node7 -->
<g id="edge6" class="edge">
<title>Node1&#45;&gt;Node7</title>
<path fill="none" stroke="orange" stroke-dasharray="5,2" d="M116.67,-426.91C130.66,-432.37 146.31,-437.94 161,-442 219.53,-458.17 287.61,-469.49 337.46,-476.44"/>
<polygon fill="orange" stroke="orange" points="117.87,-423.62 107.29,-423.17 115.28,-430.12 117.87,-423.62"/>
<text text-anchor="middle" x="235" y="-474" font-family="Helvetica,sans-Serif" font-size="10.00"> &lt; InterpolatorType &gt;</text>
</g>
<!-- Node8 -->
<g id="node8" class="node">
<title>Node8</title>
<g id="a_node8"><a xlink:href="structlemons_1_1_constructed_array.html" target="_top" xlink:title=" ">
<polygon fill="none" stroke="black" points="337.5,-421 337.5,-451 480.5,-451 480.5,-421 337.5,-421"/>
<text text-anchor="start" x="345.5" y="-439" font-family="Helvetica,sans-Serif" font-size="10.00">lemons::ConstructedArray</text>
<text text-anchor="middle" x="409" y="-428" font-family="Helvetica,sans-Serif" font-size="10.00">&lt; lemons::plugin::LFO &gt;</text>
</a>
</g>
</g>
<!-- Node1&#45;&gt;Node8 -->
<g id="edge7" class="edge">
<title>Node1&#45;&gt;Node8</title>
<path fill="none" stroke="orange" stroke-dasharray="5,2" d="M153.5,-414.76C209.63,-419.44 283.63,-425.62 337.36,-430.1"/>
<polygon fill="orange" stroke="orange" points="153.5,-411.25 143.24,-413.9 152.92,-418.22 153.5,-411.25"/>
<text text-anchor="middle" x="235" y="-430" font-family="Helvetica,sans-Serif" font-size="10.00"> &lt; lemons::plugin::LFO &gt;</text>
</g>
<!-- Node9 -->
<g id="node9" class="node">
<title>Node9</title>
<g id="a_node9"><a xlink:href="structlemons_1_1_constructed_array.html" target="_top" xlink:title=" ">
<polygon fill="none" stroke="black" points="337.5,-360.5 337.5,-401.5 480.5,-401.5 480.5,-360.5 337.5,-360.5"/>
<text text-anchor="start" x="345.5" y="-389.5" font-family="Helvetica,sans-Serif" font-size="10.00">lemons::ConstructedArray</text>
<text text-anchor="start" x="345.5" y="-378.5" font-family="Helvetica,sans-Serif" font-size="10.00">&lt; lemons::dsp::osc::Sine</text>
<text text-anchor="middle" x="409" y="-367.5" font-family="Helvetica,sans-Serif" font-size="10.00">&lt; float &gt; &gt;</text>
</a>
</g>
</g>
<!-- Node1&#45;&gt;Node9 -->
<g id="edge8" class="edge">
<title>Node1&#45;&gt;Node9</title>
<path fill="none" stroke="orange" stroke-dasharray="5,2" d="M153.37,-392.93C155.94,-392.59 158.49,-392.28 161,-392 220.19,-385.36 287.77,-382.69 337.27,-381.63"/>
<polygon fill="orange" stroke="orange" points="152.8,-389.47 143.38,-394.32 153.77,-396.4 152.8,-389.47"/>
<text text-anchor="start" x="186.5" y="-406" font-family="Helvetica,sans-Serif" font-size="10.00"> &lt; lemons::dsp::osc</text>
<text text-anchor="middle" x="235" y="-395" font-family="Helvetica,sans-Serif" font-size="10.00">::Sine&lt; float &gt; &gt;</text>
</g>
<!-- Node10 -->
<g id="node10" class="node">
<title>Node10</title>
<g id="a_node10"><a xlink:href="structlemons_1_1_constructed_array.html" target="_top" xlink:title=" ">
<polygon fill="none" stroke="black" points="332,-300.5 332,-341.5 486,-341.5 486,-300.5 332,-300.5"/>
<text text-anchor="start" x="340" y="-329.5" font-family="Helvetica,sans-Serif" font-size="10.00">lemons::ConstructedArray</text>
<text text-anchor="start" x="340" y="-318.5" font-family="Helvetica,sans-Serif" font-size="10.00">&lt; lemons::dsp::osc::Triangle</text>
<text text-anchor="middle" x="409" y="-307.5" font-family="Helvetica,sans-Serif" font-size="10.00">&lt; float &gt; &gt;</text>
</a>
</g>
</g>
<!-- Node1&#45;&gt;Node10 -->
<g id="edge9" class="edge">
<title>Node1&#45;&gt;Node10</title>
<path fill="none" stroke="orange" stroke-dasharray="5,2" d="M101.5,-387.04C118.13,-376.06 139.85,-363.39 161,-356 216.3,-336.69 282.11,-328.01 331.89,-324.12"/>
<polygon fill="orange" stroke="orange" points="99.13,-384.42 92.82,-392.93 103.06,-390.21 99.13,-384.42"/>
<text text-anchor="start" x="185" y="-370" font-family="Helvetica,sans-Serif" font-size="10.00"> &lt; lemons::dsp::osc</text>
<text text-anchor="middle" x="235" y="-359" font-family="Helvetica,sans-Serif" font-size="10.00">::Triangle&lt; float &gt; &gt;</text>
</g>
<!-- Node11 -->
<g id="node11" class="node">
<title>Node11</title>
<g id="a_node11"><a xlink:href="structlemons_1_1_constructed_array.html" target="_top" xlink:title=" ">
<polygon fill="none" stroke="black" points="332,-240.5 332,-281.5 486,-281.5 486,-240.5 332,-240.5"/>
<text text-anchor="start" x="340" y="-269.5" font-family="Helvetica,sans-Serif" font-size="10.00">lemons::ConstructedArray</text>
<text text-anchor="start" x="340" y="-258.5" font-family="Helvetica,sans-Serif" font-size="10.00">&lt; lemons::dsp::osc::Triangle</text>
<text text-anchor="middle" x="409" y="-247.5" font-family="Helvetica,sans-Serif" font-size="10.00">&lt; SampleType &gt; &gt;</text>
</a>
</g>
</g>
<!-- Node1&#45;&gt;Node11 -->
<g id="edge10" class="edge">
<title>Node1&#45;&gt;Node11</title>
<path fill="none" stroke="orange" stroke-dasharray="5,2" d="M85.2,-383.86C99.87,-358.55 126.5,-319.77 161,-300 212.88,-270.26 280.45,-261.24 331.79,-259.24"/>
<polygon fill="orange" stroke="orange" points="82.01,-382.4 80.17,-392.83 88.11,-385.82 82.01,-382.4"/>
<text text-anchor="start" x="166" y="-314" font-family="Helvetica,sans-Serif" font-size="10.00"> &lt; lemons::dsp::osc</text>
<text text-anchor="middle" x="235" y="-303" font-family="Helvetica,sans-Serif" font-size="10.00">::Triangle&lt; SampleType &gt; &gt;</text>
</g>
<!-- Node12 -->
<g id="node12" class="node">
<title>Node12</title>
<g id="a_node12"><a xlink:href="structlemons_1_1_constructed_array.html" target="_top" xlink:title=" ">
<polygon fill="none" stroke="black" points="337.5,-180.5 337.5,-221.5 480.5,-221.5 480.5,-180.5 337.5,-180.5"/>
<text text-anchor="start" x="345.5" y="-209.5" font-family="Helvetica,sans-Serif" font-size="10.00">lemons::ConstructedArray</text>
<text text-anchor="start" x="345.5" y="-198.5" font-family="Helvetica,sans-Serif" font-size="10.00">&lt; lemons::dsp::osc::Sine</text>
<text text-anchor="middle" x="409" y="-187.5" font-family="Helvetica,sans-Serif" font-size="10.00">&lt; SampleType &gt; &gt;</text>
</a>
</g>
</g>
<!-- Node1&#45;&gt;Node12 -->
<g id="edge11" class="edge">
<title>Node1&#45;&gt;Node12</title>
<path fill="none" stroke="orange" stroke-dasharray="5,2" d="M77.53,-382.83C86.73,-343.95 110.2,-270 161,-234 212,-197.85 284.13,-192 337.27,-193.76"/>
<polygon fill="orange" stroke="orange" points="74.07,-382.29 75.3,-392.81 80.9,-383.81 74.07,-382.29"/>
<text text-anchor="start" x="174.5" y="-248" font-family="Helvetica,sans-Serif" font-size="10.00"> &lt; lemons::dsp::osc</text>
<text text-anchor="middle" x="235" y="-237" font-family="Helvetica,sans-Serif" font-size="10.00">::Sine&lt; SampleType &gt; &gt;</text>
</g>
<!-- Node13 -->
<g id="node13" class="node">
<title>Node13</title>
<g id="a_node13"><a xlink:href="structlemons_1_1_constructed_array.html" target="_top" xlink:title=" ">
<polygon fill="none" stroke="black" points="337.5,-120.5 337.5,-161.5 480.5,-161.5 480.5,-120.5 337.5,-120.5"/>
<text text-anchor="start" x="345.5" y="-149.5" font-family="Helvetica,sans-Serif" font-size="10.00">lemons::ConstructedArray</text>
<text text-anchor="start" x="345.5" y="-138.5" font-family="Helvetica,sans-Serif" font-size="10.00">&lt; lemons::dsp::osc::Saw</text>
<text text-anchor="middle" x="409" y="-127.5" font-family="Helvetica,sans-Serif" font-size="10.00">&lt; float &gt; &gt;</text>
</a>
</g>
</g>
<!-- Node1&#45;&gt;Node13 -->
<g id="edge12" class="edge">
<title>Node1&#45;&gt;Node13</title>
<path fill="none" stroke="orange" stroke-dasharray="5,2" d="M73.49,-382.71C76.95,-332.49 92.37,-220.47 161,-167 210.49,-128.44 283.51,-125.31 337.33,-129.8"/>
<polygon fill="orange" stroke="orange" points="70,-382.53 72.91,-392.71 76.98,-382.94 70,-382.53"/>
<text text-anchor="start" x="186.5" y="-181" font-family="Helvetica,sans-Serif" font-size="10.00"> &lt; lemons::dsp::osc</text>
<text text-anchor="middle" x="235" y="-170" font-family="Helvetica,sans-Serif" font-size="10.00">::Saw&lt; float &gt; &gt;</text>
</g>
<!-- Node14 -->
<g id="node14" class="node">
<title>Node14</title>
<g id="a_node14"><a xlink:href="structlemons_1_1_constructed_array.html" target="_top" xlink:title=" ">
<polygon fill="none" stroke="black" points="334.5,-60.5 334.5,-101.5 483.5,-101.5 483.5,-60.5 334.5,-60.5"/>
<text text-anchor="start" x="342.5" y="-89.5" font-family="Helvetica,sans-Serif" font-size="10.00">lemons::ConstructedArray</text>
<text text-anchor="start" x="342.5" y="-78.5" font-family="Helvetica,sans-Serif" font-size="10.00">&lt; lemons::dsp::osc::Square</text>
<text text-anchor="middle" x="409" y="-67.5" font-family="Helvetica,sans-Serif" font-size="10.00">&lt; SampleType &gt; &gt;</text>
</a>
</g>
</g>
<!-- Node1&#45;&gt;Node14 -->
<g id="edge13" class="edge">
<title>Node1&#45;&gt;Node14</title>
<path fill="none" stroke="orange" stroke-dasharray="5,2" d="M76.13,-382.63C86.2,-315.93 116.75,-138.3 161,-102 208.75,-62.83 280.58,-60.97 334.49,-66.91"/>
<polygon fill="orange" stroke="orange" points="72.64,-382.29 74.63,-392.69 79.56,-383.31 72.64,-382.29"/>
<text text-anchor="start" x="168.5" y="-116" font-family="Helvetica,sans-Serif" font-size="10.00"> &lt; lemons::dsp::osc</text>
<text text-anchor="middle" x="235" y="-105" font-family="Helvetica,sans-Serif" font-size="10.00">::Square&lt; SampleType &gt; &gt;</text>
</g>
<!-- Node15 -->
<g id="node15" class="node">
<title>Node15</title>
<g id="a_node15"><a xlink:href="structlemons_1_1_constructed_array.html" target="_top" xlink:title=" ">
<polygon fill="none" stroke="black" points="327,-0.5 327,-41.5 491,-41.5 491,-0.5 327,-0.5"/>
<text text-anchor="start" x="335" y="-29.5" font-family="Helvetica,sans-Serif" font-size="10.00">lemons::ConstructedArray</text>
<text text-anchor="start" x="335" y="-18.5" font-family="Helvetica,sans-Serif" font-size="10.00">&lt; lemons::dsp::osc::SuperSaw</text>
<text text-anchor="middle" x="409" y="-7.5" font-family="Helvetica,sans-Serif" font-size="10.00">&lt; float &gt; &gt;</text>
</a>
</g>
</g>
<!-- Node1&#45;&gt;Node15 -->
<g id="edge14" class="edge">
<title>Node1&#45;&gt;Node15</title>
<path fill="none" stroke="orange" stroke-dasharray="5,2" d="M74.77,-382.62C82.11,-306.74 107.88,-84.12 161,-39 205.98,-0.8 273.73,1.61 326.9,-4.37"/>
<polygon fill="orange" stroke="orange" points="71.27,-382.42 73.82,-392.71 78.24,-383.08 71.27,-382.42"/>
<text text-anchor="start" x="180" y="-53" font-family="Helvetica,sans-Serif" font-size="10.00"> &lt; lemons::dsp::osc</text>
<text text-anchor="middle" x="235" y="-42" font-family="Helvetica,sans-Serif" font-size="10.00">::SuperSaw&lt; float &gt; &gt;</text>
</g>
</g>
</svg>
