<?xml version="1.0" encoding="UTF-8" standalone="no"?>
<!DOCTYPE svg PUBLIC "-//W3C//DTD SVG 1.1//EN"
 "http://www.w3.org/Graphics/SVG/1.1/DTD/svg11.dtd">
<!-- Generated by graphviz version 2.50.0 (20211204.2007)
 -->
<!-- Title: lemons::music::scales::Scale Pages: 1 -->
<svg width="274pt" height="235pt"
 viewBox="0.00 0.00 274.00 235.00" xmlns="http://www.w3.org/2000/svg" xmlns:xlink="http://www.w3.org/1999/xlink">
<g id="graph0" class="graph" transform="scale(1 1) rotate(0) translate(4 231)">
<title>lemons::music::scales::Scale</title>
<!-- Node1 -->
<g id="node1" class="node">
<title>Node1</title>
<g id="a_node1"><a xlink:title=" ">
<polygon fill="#bfbfbf" stroke="black" points="0,-98.5 0,-128.5 115,-128.5 115,-98.5 0,-98.5"/>
<text text-anchor="start" x="8" y="-116.5" font-family="Helvetica,sans-Serif" font-size="10.00">lemons::music::scales</text>
<text text-anchor="middle" x="57.5" y="-105.5" font-family="Helvetica,sans-Serif" font-size="10.00">::Scale</text>
</a>
</g>
</g>
<!-- Node2 -->
<g id="node2" class="node">
<title>Node2</title>
<g id="a_node2"><a xlink:href="classlemons_1_1music_1_1scales_1_1_chromatic.html" target="_top" xlink:title=" ">
<polygon fill="none" stroke="black" points="151,-196.5 151,-226.5 266,-226.5 266,-196.5 151,-196.5"/>
<text text-anchor="start" x="159" y="-214.5" font-family="Helvetica,sans-Serif" font-size="10.00">lemons::music::scales</text>
<text text-anchor="middle" x="208.5" y="-203.5" font-family="Helvetica,sans-Serif" font-size="10.00">::Chromatic</text>
</a>
</g>
</g>
<!-- Node1&#45;&gt;Node2 -->
<g id="edge1" class="edge">
<title>Node1&#45;&gt;Node2</title>
<path fill="none" stroke="midnightblue" d="M82.19,-135.48C100.13,-151.33 125.89,-172.51 151,-187.5 156.4,-190.72 162.31,-193.74 168.21,-196.46"/>
<polygon fill="midnightblue" stroke="midnightblue" points="84.31,-132.68 74.53,-128.6 79.64,-137.89 84.31,-132.68"/>
</g>
<!-- Node3 -->
<g id="node3" class="node">
<title>Node3</title>
<g id="a_node3"><a xlink:href="classlemons_1_1music_1_1scales_1_1_key_signature.html" target="_top" xlink:title=" ">
<polygon fill="none" stroke="black" points="151,-147.5 151,-177.5 266,-177.5 266,-147.5 151,-147.5"/>
<text text-anchor="start" x="159" y="-165.5" font-family="Helvetica,sans-Serif" font-size="10.00">lemons::music::scales</text>
<text text-anchor="middle" x="208.5" y="-154.5" font-family="Helvetica,sans-Serif" font-size="10.00">::KeySignature</text>
</a>
</g>
</g>
<!-- Node1&#45;&gt;Node3 -->
<g id="edge2" class="edge">
<title>Node1&#45;&gt;Node3</title>
<path fill="none" stroke="midnightblue" d="M114.02,-131.76C129.74,-136.93 146.66,-142.49 161.73,-147.45"/>
<polygon fill="midnightblue" stroke="midnightblue" points="115.01,-128.4 104.42,-128.6 112.83,-135.05 115.01,-128.4"/>
</g>
<!-- Node4 -->
<g id="node4" class="node">
<title>Node4</title>
<g id="a_node4"><a xlink:href="classlemons_1_1music_1_1scales_1_1_mode.html" target="_top" xlink:title=" ">
<polygon fill="none" stroke="black" points="151,-98.5 151,-128.5 266,-128.5 266,-98.5 151,-98.5"/>
<text text-anchor="start" x="159" y="-116.5" font-family="Helvetica,sans-Serif" font-size="10.00">lemons::music::scales</text>
<text text-anchor="middle" x="208.5" y="-105.5" font-family="Helvetica,sans-Serif" font-size="10.00">::Mode</text>
</a>
</g>
</g>
<!-- Node1&#45;&gt;Node4 -->
<g id="edge3" class="edge">
<title>Node1&#45;&gt;Node4</title>
<path fill="none" stroke="midnightblue" d="M125.51,-113.5C133.99,-113.5 142.6,-113.5 150.9,-113.5"/>
<polygon fill="midnightblue" stroke="midnightblue" points="125.26,-110 115.26,-113.5 125.26,-117 125.26,-110"/>
</g>
<!-- Node5 -->
<g id="node5" class="node">
<title>Node5</title>
<g id="a_node5"><a xlink:href="classlemons_1_1music_1_1scales_1_1_octatonic.html" target="_top" xlink:title=" ">
<polygon fill="none" stroke="black" points="151,-49.5 151,-79.5 266,-79.5 266,-49.5 151,-49.5"/>
<text text-anchor="start" x="159" y="-67.5" font-family="Helvetica,sans-Serif" font-size="10.00">lemons::music::scales</text>
<text text-anchor="middle" x="208.5" y="-56.5" font-family="Helvetica,sans-Serif" font-size="10.00">::Octatonic</text>
</a>
</g>
</g>
<!-- Node1&#45;&gt;Node5 -->
<g id="edge4" class="edge">
<title>Node1&#45;&gt;Node5</title>
<path fill="none" stroke="midnightblue" d="M114.02,-95.24C129.74,-90.07 146.66,-84.51 161.73,-79.55"/>
<polygon fill="midnightblue" stroke="midnightblue" points="112.83,-91.95 104.42,-98.4 115.01,-98.6 112.83,-91.95"/>
</g>
<!-- Node6 -->
<g id="node6" class="node">
<title>Node6</title>
<g id="a_node6"><a xlink:href="classlemons_1_1music_1_1scales_1_1_whole_tone.html" target="_top" xlink:title=" ">
<polygon fill="none" stroke="black" points="151,-0.5 151,-30.5 266,-30.5 266,-0.5 151,-0.5"/>
<text text-anchor="start" x="159" y="-18.5" font-family="Helvetica,sans-Serif" font-size="10.00">lemons::music::scales</text>
<text text-anchor="middle" x="208.5" y="-7.5" font-family="Helvetica,sans-Serif" font-size="10.00">::WholeTone</text>
</a>
</g>
</g>
<!-- Node1&#45;&gt;Node6 -->
<g id="edge5" class="edge">
<title>Node1&#45;&gt;Node6</title>
<path fill="none" stroke="midnightblue" d="M82.64,-91.67C100.62,-76.12 126.23,-55.43 151,-40.5 156.88,-36.96 163.35,-33.62 169.75,-30.61"/>
<polygon fill="midnightblue" stroke="midnightblue" points="80.16,-89.19 74.95,-98.41 84.77,-94.45 80.16,-89.19"/>
</g>
</g>
</svg>
