<?xml version="1.0" encoding="UTF-8" standalone="no"?>
<!DOCTYPE svg PUBLIC "-//W3C//DTD SVG 1.1//EN"
 "http://www.w3.org/Graphics/SVG/1.1/DTD/svg11.dtd">
<!-- Generated by graphviz version 2.43.0 (0)
 -->
<!-- Title: lemons::plugin::SecondsParameter Pages: 1 -->
<svg width="286pt" height="220pt"
 viewBox="0.00 0.00 286.00 220.00" xmlns="http://www.w3.org/2000/svg" xmlns:xlink="http://www.w3.org/1999/xlink">
<g id="graph0" class="graph" transform="scale(1 1) rotate(0) translate(4 216)">
<title>lemons::plugin::SecondsParameter</title>
<!-- Node1 -->
<g id="node1" class="node">
<title>Node1</title>
<g id="a_node1"><a xlink:title="A parameter that represents a time value in seconds, expressed as a float.">
<polygon fill="#bfbfbf" stroke="black" points="0,-0.5 0,-19.5 185,-19.5 185,-0.5 0,-0.5"/>
<text text-anchor="middle" x="92.5" y="-7.5" font-family="Helvetica,sans-Serif" font-size="10.00">lemons::plugin::SecondsParameter</text>
</a>
</g>
</g>
<!-- Node2 -->
<g id="node2" class="node">
<title>Node2</title>
<g id="a_node2"><a xlink:href="classlemons_1_1plugin_1_1_typed_parameter.html" target="_top" xlink:title=" ">
<polygon fill="none" stroke="black" points="46.5,-57.5 46.5,-76.5 138.5,-76.5 138.5,-57.5 46.5,-57.5"/>
<text text-anchor="middle" x="92.5" y="-64.5" font-family="Helvetica,sans-Serif" font-size="10.00">FloatParameter</text>
</a>
</g>
</g>
<!-- Node2&#45;&gt;Node1 -->
<g id="edge1" class="edge">
<title>Node2&#45;&gt;Node1</title>
<path fill="none" stroke="midnightblue" d="M92.5,-47.12C92.5,-37.82 92.5,-27.06 92.5,-19.71"/>
<polygon fill="midnightblue" stroke="midnightblue" points="89,-47.41 92.5,-57.41 96,-47.41 89,-47.41"/>
</g>
<!-- Node3 -->
<g id="node3" class="node">
<title>Node3</title>
<g id="a_node3"><a xlink:href="classlemons_1_1plugin_1_1_parameter.html" target="_top" xlink:title="A plugin parameter class.">
<polygon fill="none" stroke="black" points="16,-192.5 16,-211.5 161,-211.5 161,-192.5 16,-192.5"/>
<text text-anchor="middle" x="88.5" y="-199.5" font-family="Helvetica,sans-Serif" font-size="10.00">lemons::plugin::Parameter</text>
</a>
</g>
</g>
<!-- Node3&#45;&gt;Node2 -->
<g id="edge2" class="edge">
<title>Node3&#45;&gt;Node2</title>
<path fill="none" stroke="midnightblue" d="M89.07,-182.13C89.95,-152.88 91.6,-97.76 92.24,-76.59"/>
<polygon fill="midnightblue" stroke="midnightblue" points="85.56,-182.17 88.76,-192.27 92.56,-182.38 85.56,-182.17"/>
</g>
<!-- Node4 -->
<g id="node4" class="node">
<title>Node4</title>
<g id="a_node4"><a xlink:href="classlemons_1_1plugin_1_1_typed_parameter.html" target="_top" xlink:title="A parameter that can be stored as a type other than a float, but still inherits from my Parameter bas...">
<polygon fill="none" stroke="black" points="105,-124.5 105,-154.5 278,-154.5 278,-124.5 105,-124.5"/>
<text text-anchor="start" x="113" y="-142.5" font-family="Helvetica,sans-Serif" font-size="10.00">lemons::plugin::TypedParameter</text>
<text text-anchor="middle" x="191.5" y="-131.5" font-family="Helvetica,sans-Serif" font-size="10.00">&lt; ValueType &gt;</text>
</a>
</g>
</g>
<!-- Node3&#45;&gt;Node4 -->
<g id="edge4" class="edge">
<title>Node3&#45;&gt;Node4</title>
<path fill="none" stroke="midnightblue" d="M112.32,-187.01C128.93,-177.25 151,-164.29 167.62,-154.53"/>
<polygon fill="midnightblue" stroke="midnightblue" points="110.11,-184.25 103.26,-192.33 113.65,-190.28 110.11,-184.25"/>
</g>
<!-- Node4&#45;&gt;Node2 -->
<g id="edge3" class="edge">
<title>Node4&#45;&gt;Node2</title>
<path fill="none" stroke="orange" stroke-dasharray="5,2" d="M163.28,-118.4C143.93,-104.62 119.22,-87.03 104.7,-76.69"/>
<polygon fill="orange" stroke="orange" points="161.29,-121.28 171.47,-124.23 165.35,-115.58 161.29,-121.28"/>
<text text-anchor="middle" x="168.5" y="-98" font-family="Helvetica,sans-Serif" font-size="10.00"> &lt; float &gt;</text>
</g>
</g>
</svg>
