<?xml version="1.0" encoding="UTF-8" standalone="no"?>
<!DOCTYPE svg PUBLIC "-//W3C//DTD SVG 1.1//EN"
 "http://www.w3.org/Graphics/SVG/1.1/DTD/svg11.dtd">
<!-- Generated by graphviz version 2.43.0 (0)
 -->
<!-- Title: lemons::plugin::TypedParameter&lt; ValueType &gt;::Listener Pages: 1 -->
<svg width="571pt" height="116pt"
 viewBox="0.00 0.00 571.00 115.50" xmlns="http://www.w3.org/2000/svg" xmlns:xlink="http://www.w3.org/1999/xlink">
<g id="graph0" class="graph" transform="scale(1 1) rotate(0) translate(4 111.5)">
<title>lemons::plugin::TypedParameter&lt; ValueType &gt;::Listener</title>
<!-- Node1 -->
<g id="node1" class="node">
<title>Node1</title>
<g id="a_node1"><a xlink:title="A class that will recieve updates when aspects of a TypedParameter change.">
<polygon fill="#bfbfbf" stroke="black" points="181,-44.5 181,-74.5 354,-74.5 354,-44.5 181,-44.5"/>
<text text-anchor="start" x="189" y="-62.5" font-family="Helvetica,sans-Serif" font-size="10.00">lemons::plugin::TypedParameter</text>
<text text-anchor="middle" x="267.5" y="-51.5" font-family="Helvetica,sans-Serif" font-size="10.00">&lt; ValueType &gt;::Listener</text>
</a>
</g>
</g>
<!-- Node3 -->
<g id="node3" class="node">
<title>Node3</title>
<g id="a_node3"><a xlink:href="classlemons_1_1gui_1_1_float_slider.html" target="_top" xlink:title="Plugin slider that attaches to a float parameter.">
<polygon fill="none" stroke="black" points="410.5,-88 410.5,-107 542.5,-107 542.5,-88 410.5,-88"/>
<text text-anchor="middle" x="476.5" y="-95" font-family="Helvetica,sans-Serif" font-size="10.00">lemons::gui::FloatSlider</text>
</a>
</g>
</g>
<!-- Node1&#45;&gt;Node3 -->
<g id="edge2" class="edge">
<title>Node1&#45;&gt;Node3</title>
<path fill="none" stroke="#8b1a1a" d="M360.25,-76.34C382.02,-80.34 404.49,-84.46 423.74,-88"/>
<polygon fill="#8b1a1a" stroke="#8b1a1a" points="360.78,-72.88 350.31,-74.52 359.52,-79.77 360.78,-72.88"/>
</g>
<!-- Node4 -->
<g id="node4" class="node">
<title>Node4</title>
<g id="a_node4"><a xlink:href="classlemons_1_1gui_1_1_int_slider.html" target="_top" xlink:title="Plugin slider that attaches to an integer parameter.">
<polygon fill="none" stroke="black" points="416.5,-50 416.5,-69 536.5,-69 536.5,-50 416.5,-50"/>
<text text-anchor="middle" x="476.5" y="-57" font-family="Helvetica,sans-Serif" font-size="10.00">lemons::gui::IntSlider</text>
</a>
</g>
</g>
<!-- Node1&#45;&gt;Node4 -->
<g id="edge3" class="edge">
<title>Node1&#45;&gt;Node4</title>
<path fill="none" stroke="#8b1a1a" d="M364.55,-59.5C382.22,-59.5 400.19,-59.5 416.37,-59.5"/>
<polygon fill="#8b1a1a" stroke="#8b1a1a" points="364.19,-56 354.19,-59.5 364.19,-63 364.19,-56"/>
</g>
<!-- Node5 -->
<g id="node5" class="node">
<title>Node5</title>
<g id="a_node5"><a xlink:href="structlemons_1_1plugin_1_1_typed_parameter_1_1_lambda_listener.html" target="_top" xlink:title="A listener that fires lambdas for each callback.">
<polygon fill="none" stroke="black" points="390,-0.5 390,-30.5 563,-30.5 563,-0.5 390,-0.5"/>
<text text-anchor="start" x="398" y="-18.5" font-family="Helvetica,sans-Serif" font-size="10.00">lemons::plugin::TypedParameter</text>
<text text-anchor="middle" x="476.5" y="-7.5" font-family="Helvetica,sans-Serif" font-size="10.00">&lt; ValueType &gt;::LambdaListener</text>
</a>
</g>
</g>
<!-- Node1&#45;&gt;Node5 -->
<g id="edge4" class="edge">
<title>Node1&#45;&gt;Node5</title>
<path fill="none" stroke="midnightblue" d="M348.98,-42.39C367.39,-38.48 386.84,-34.35 404.81,-30.53"/>
<polygon fill="midnightblue" stroke="midnightblue" points="348.21,-38.98 339.16,-44.48 349.67,-45.83 348.21,-38.98"/>
</g>
<!-- Node2 -->
<g id="node2" class="node">
<title>Node2</title>
<g id="a_node2"><a xlink:href="structlemons_1_1plugin_1_1_parameter_1_1_listener.html" target="_top" xlink:title="A Listener class that will be notified when aspects of a Parameter change.">
<polygon fill="none" stroke="black" points="0,-44.5 0,-74.5 145,-74.5 145,-44.5 0,-44.5"/>
<text text-anchor="start" x="8" y="-62.5" font-family="Helvetica,sans-Serif" font-size="10.00">lemons::plugin::Parameter</text>
<text text-anchor="middle" x="72.5" y="-51.5" font-family="Helvetica,sans-Serif" font-size="10.00">::Listener</text>
</a>
</g>
</g>
<!-- Node2&#45;&gt;Node1 -->
<g id="edge1" class="edge">
<title>Node2&#45;&gt;Node1</title>
<path fill="none" stroke="midnightblue" d="M155.35,-59.5C163.83,-59.5 172.47,-59.5 180.99,-59.5"/>
<polygon fill="midnightblue" stroke="midnightblue" points="155.09,-56 145.09,-59.5 155.09,-63 155.09,-56"/>
</g>
</g>
</svg>
