<?xml version="1.0" encoding="UTF-8" standalone="no"?>
<!DOCTYPE svg PUBLIC "-//W3C//DTD SVG 1.1//EN"
 "http://www.w3.org/Graphics/SVG/1.1/DTD/svg11.dtd">
<!-- Generated by graphviz version 2.43.0 (0)
 -->
<!-- Title: lemons::dsp::FX::FilterEngine&lt; SampleType &gt; Pages: 1 -->
<svg width="853pt" height="81pt"
 viewBox="0.00 0.00 853.00 80.50" xmlns="http://www.w3.org/2000/svg" xmlns:xlink="http://www.w3.org/1999/xlink">
<g id="graph0" class="graph" transform="scale(1 1) rotate(0) translate(4 76.5)">
<title>lemons::dsp::FX::FilterEngine&lt; SampleType &gt;</title>
<!-- Node1 -->
<g id="node1" class="node">
<title>Node1</title>
<g id="a_node1"><a xlink:title="A class that represents an audio engine holding a filter effect.">
<polygon fill="#bfbfbf" stroke="black" points="687,-18 687,-48 845,-48 845,-18 687,-18"/>
<text text-anchor="start" x="695" y="-36" font-family="Helvetica,sans-Serif" font-size="10.00">lemons::dsp::FX::FilterEngine</text>
<text text-anchor="middle" x="766" y="-25" font-family="Helvetica,sans-Serif" font-size="10.00">&lt; SampleType &gt;</text>
</a>
</g>
</g>
<!-- Node2 -->
<g id="node2" class="node">
<title>Node2</title>
<g id="a_node2"><a xlink:href="classlemons_1_1dsp_1_1_f_x_1_1_effect_engine.html" target="_top" xlink:title=" ">
<polygon fill="none" stroke="black" points="489,-18 489,-48 650,-48 650,-18 489,-18"/>
<text text-anchor="start" x="497" y="-36" font-family="Helvetica,sans-Serif" font-size="10.00">lemons::dsp::FX::EffectEngine</text>
<text text-anchor="middle" x="569.5" y="-25" font-family="Helvetica,sans-Serif" font-size="10.00">&lt; Filter, SampleType &gt;</text>
</a>
</g>
</g>
<!-- Node2&#45;&gt;Node1 -->
<g id="edge1" class="edge">
<title>Node2&#45;&gt;Node1</title>
<path fill="none" stroke="midnightblue" d="M660.42,-33C669.2,-33 678.06,-33 686.71,-33"/>
<polygon fill="midnightblue" stroke="midnightblue" points="660.17,-29.5 650.17,-33 660.17,-36.5 660.17,-29.5"/>
</g>
<!-- Node3 -->
<g id="node3" class="node">
<title>Node3</title>
<g id="a_node3"><a xlink:href="classlemons_1_1dsp_1_1_engine.html" target="_top" xlink:title="Base class for an audio engine.">
<polygon fill="none" stroke="black" points="12,-42 12,-72 127,-72 127,-42 12,-42"/>
<text text-anchor="start" x="20" y="-60" font-family="Helvetica,sans-Serif" font-size="10.00">lemons::dsp::Engine</text>
<text text-anchor="middle" x="69.5" y="-49" font-family="Helvetica,sans-Serif" font-size="10.00">&lt; SampleType &gt;</text>
</a>
</g>
</g>
<!-- Node3&#45;&gt;Node2 -->
<g id="edge2" class="edge">
<title>Node3&#45;&gt;Node2</title>
<path fill="none" stroke="midnightblue" d="M137.53,-58.88C144.45,-58.97 151.36,-59.02 158,-59 297.2,-58.61 332.7,-63.77 471,-48 476.79,-47.34 482.75,-46.59 488.75,-45.79"/>
<polygon fill="midnightblue" stroke="midnightblue" points="137.5,-55.38 127.45,-58.72 137.39,-62.38 137.5,-55.38"/>
</g>
<!-- Node5 -->
<g id="node5" class="node">
<title>Node5</title>
<g id="a_node5"><a xlink:href="classlemons_1_1dsp_1_1_f_x_1_1_effect_engine.html" target="_top" xlink:title="A class that wraps an AudioEffect into a dsp::Engine.">
<polygon fill="none" stroke="black" points="176,-18 176,-48 337,-48 337,-18 176,-18"/>
<text text-anchor="start" x="184" y="-36" font-family="Helvetica,sans-Serif" font-size="10.00">lemons::dsp::FX::EffectEngine</text>
<text text-anchor="middle" x="256.5" y="-25" font-family="Helvetica,sans-Serif" font-size="10.00">&lt; EffectType, SampleType, &gt;</text>
</a>
</g>
</g>
<!-- Node3&#45;&gt;Node5 -->
<g id="edge5" class="edge">
<title>Node3&#45;&gt;Node5</title>
<path fill="none" stroke="midnightblue" d="M136.95,-48.38C149.56,-46.74 162.87,-45.02 175.84,-43.33"/>
<polygon fill="midnightblue" stroke="midnightblue" points="136.48,-44.91 127.01,-49.67 137.38,-51.85 136.48,-44.91"/>
</g>
<!-- Node4 -->
<g id="node4" class="node">
<title>Node4</title>
<g id="a_node4"><a xlink:href="structlemons_1_1_serializable_data.html" target="_top" xlink:title="Base class for any C++ object that needs to be serialized to binary and back.">
<polygon fill="none" stroke="black" points="0,-0.5 0,-19.5 139,-19.5 139,-0.5 0,-0.5"/>
<text text-anchor="middle" x="69.5" y="-7.5" font-family="Helvetica,sans-Serif" font-size="10.00">lemons::SerializableData</text>
</a>
</g>
</g>
<!-- Node4&#45;&gt;Node2 -->
<g id="edge3" class="edge">
<title>Node4&#45;&gt;Node2</title>
<path fill="none" stroke="midnightblue" d="M149.29,-9.17C158.3,-9.1 167.35,-9.04 176,-9 247.55,-8.66 265.54,-5.31 337,-9 387.64,-11.62 444.27,-17.44 488.84,-22.69"/>
<polygon fill="midnightblue" stroke="midnightblue" points="149.14,-5.67 139.17,-9.25 149.2,-12.67 149.14,-5.67"/>
</g>
<!-- Node4&#45;&gt;Node5 -->
<g id="edge6" class="edge">
<title>Node4&#45;&gt;Node5</title>
<path fill="none" stroke="midnightblue" d="M149.3,-19.8C158.06,-20.89 166.98,-21.99 175.75,-23.08"/>
<polygon fill="midnightblue" stroke="midnightblue" points="149.48,-16.29 139.12,-18.53 148.62,-23.24 149.48,-16.29"/>
</g>
<!-- Node5&#45;&gt;Node2 -->
<g id="edge4" class="edge">
<title>Node5&#45;&gt;Node2</title>
<path fill="none" stroke="orange" stroke-dasharray="5,2" d="M347.45,-33C392.1,-33 445.58,-33 488.75,-33"/>
<polygon fill="orange" stroke="orange" points="347.19,-29.5 337.19,-33 347.19,-36.5 347.19,-29.5"/>
<text text-anchor="middle" x="413" y="-36" font-family="Helvetica,sans-Serif" font-size="10.00"> &lt; Filter, SampleType &gt;</text>
</g>
</g>
</svg>
