<?xml version="1.0" encoding="UTF-8" standalone="no"?>
<!DOCTYPE svg PUBLIC "-//W3C//DTD SVG 1.1//EN"
 "http://www.w3.org/Graphics/SVG/1.1/DTD/svg11.dtd">
<!-- Generated by graphviz version 2.43.0 (0)
 -->
<!-- Title: lemons::ConstructedArray&lt; ObjectType &gt; Pages: 1 -->
<!--zoomable 984 -->
<svg id="main" version="1.1" xmlns="http://www.w3.org/2000/svg" xmlns:xlink="http://www.w3.org/1999/xlink" xml:space="preserve" onload="init(evt)">
<style type="text/css"><![CDATA[
.edge:hover path { stroke: red; }
.edge:hover polygon { stroke: red; fill: red; }
]]></style>
<script type="text/javascript"><![CDATA[
var edges = document.getElementsByTagName('g');
if (edges && edges.length) {
  for (var i=0;i<edges.length;i++) {
    if (edges[i].id.substr(0,4)=='edge') {
      edges[i].setAttribute('class','edge');
    }
  }
}
]]></script>
        <defs>
                <circle id="rim" cx="0" cy="0" r="7"/>
                <circle id="rim2" cx="0" cy="0" r="3.5"/>
                <g id="zoomPlus">
                        <use xlink:href="#rim" fill="#404040">
                                <set attributeName="fill" to="#808080" begin="zoomplus.mouseover" end="zoomplus.mouseout"/>
                        </use>
                        <path d="M-4,0h8M0,-4v8" fill="none" stroke="white" stroke-width="1.5" pointer-events="none"/>
                </g>
                <g id="zoomMin">
                        <use xlink:href="#rim" fill="#404040">
                                <set attributeName="fill" to="#808080" begin="zoomminus.mouseover" end="zoomminus.mouseout"/>
                        </use>
                        <path d="M-4,0h8" fill="none" stroke="white" stroke-width="1.5" pointer-events="none"/>
                </g>
                <g id="dirArrow">
                        <path fill="none" stroke="white" stroke-width="1.5" d="M0,-3.0v7 M-2.5,-0.5L0,-3.0L2.5,-0.5"/>
                </g>
               <g id="resetDef">
                       <use xlink:href="#rim2" fill="#404040">
                               <set attributeName="fill" to="#808080" begin="reset.mouseover" end="reset.mouseout"/>
                       </use>
               </g>
        </defs>

<script type="text/javascript">
var viewWidth = 535;
var viewHeight = 984;
var sectionId = 'dynsection-0';
</script>
<script xlink:href="svgpan.js"/>
<svg id="graph" class="graph">
<g id="viewport">
<title>lemons::ConstructedArray&lt; ObjectType &gt;</title>
<!-- Node1 -->
<g id="node1" class="node">
<title>Node1</title>
<g id="a_node1"><a xlink:title=" ">
<polygon fill="#bfbfbf" stroke="black" points="0,-476.11 0,-506.11 143,-506.11 143,-476.11 0,-476.11"/>
<text text-anchor="start" x="8" y="-494.11" font-family="Helvetica,sans-Serif" font-size="10.00">lemons::ConstructedArray</text>
<text text-anchor="middle" x="71.5" y="-483.11" font-family="Helvetica,sans-Serif" font-size="10.00">&lt; ObjectType &gt;</text>
</a>
</g>
</g>
<!-- Node2 -->
<g id="node2" class="node">
<title>Node2</title>
<g id="a_node2"><a xlink:href="structlemons_1_1_constructed_array.html" target="_top" xlink:title=" ">
<polygon fill="none" stroke="black" points="353,-918.61 353,-959.61 519,-959.61 519,-918.61 353,-918.61"/>
<text text-anchor="start" x="361" y="-947.61" font-family="Helvetica,sans-Serif" font-size="10.00">lemons::ConstructedArray</text>
<text text-anchor="start" x="361" y="-936.61" font-family="Helvetica,sans-Serif" font-size="10.00">&lt; lemons::dsp::osc::Detunable</text>
<text text-anchor="middle" x="436" y="-925.61" font-family="Helvetica,sans-Serif" font-size="10.00">&lt; SampleType &gt; &gt;</text>
</a>
</g>
</g>
<!-- Node1&#45;&gt;Node2 -->
<g id="edge1" class="edge">
<title>Node1&#45;&gt;Node2</title>
<path fill="none" stroke="orange" stroke-dasharray="5,2" d="M74.12,-516.62C79.89,-598.87 102.33,-854.84 161,-908.11 212.04,-954.45 292.35,-958.46 352.86,-953.11"/>
<polygon fill="orange" stroke="orange" points="77.59,-516.15 73.43,-506.41 70.61,-516.63 77.59,-516.15"/>
<text text-anchor="start" x="169" y="-968.11" font-family="Helvetica,sans-Serif" font-size="10.00"> &lt; lemons::dsp::osc</text>
<text text-anchor="middle" x="244" y="-957.11" font-family="Helvetica,sans-Serif" font-size="10.00">::Detunable&lt; SampleType &gt; &gt;</text>
</g>
<!-- Node3 -->
<g id="node3" class="node">
<title>Node3</title>
<g id="a_node3"><a xlink:href="structlemons_1_1_constructed_array.html" target="_top" xlink:title=" ">
<polygon fill="none" stroke="black" points="364.5,-858.61 364.5,-899.61 507.5,-899.61 507.5,-858.61 364.5,-858.61"/>
<text text-anchor="start" x="372.5" y="-887.61" font-family="Helvetica,sans-Serif" font-size="10.00">lemons::ConstructedArray</text>
<text text-anchor="start" x="372.5" y="-876.61" font-family="Helvetica,sans-Serif" font-size="10.00">&lt; lemons::dsp::Oscillator</text>
<text text-anchor="middle" x="436" y="-865.61" font-family="Helvetica,sans-Serif" font-size="10.00">&lt; SampleType &gt; &gt;</text>
</a>
</g>
</g>
<!-- Node1&#45;&gt;Node3 -->
<g id="edge2" class="edge">
<title>Node1&#45;&gt;Node3</title>
<path fill="none" stroke="orange" stroke-dasharray="5,2" d="M74.82,-516.27C82.29,-591.49 108.41,-812.19 161,-857.11 190.53,-882.33 293.26,-884.37 364.17,-882.51"/>
<polygon fill="orange" stroke="orange" points="78.3,-515.88 73.85,-506.27 71.33,-516.56 78.3,-515.88"/>
<text text-anchor="start" x="180.5" y="-896.11" font-family="Helvetica,sans-Serif" font-size="10.00"> &lt; lemons::dsp::Oscillator</text>
<text text-anchor="middle" x="244" y="-885.11" font-family="Helvetica,sans-Serif" font-size="10.00">&lt; SampleType &gt; &gt;</text>
</g>
<!-- Node4 -->
<g id="node4" class="node">
<title>Node4</title>
<g id="a_node4"><a xlink:href="structlemons_1_1_constructed_array.html" target="_top" xlink:title=" ">
<polygon fill="none" stroke="black" points="364.5,-798.61 364.5,-839.61 507.5,-839.61 507.5,-798.61 364.5,-798.61"/>
<text text-anchor="start" x="372.5" y="-827.61" font-family="Helvetica,sans-Serif" font-size="10.00">lemons::ConstructedArray</text>
<text text-anchor="start" x="372.5" y="-816.61" font-family="Helvetica,sans-Serif" font-size="10.00">&lt; lemons::dsp::osc::Saw</text>
<text text-anchor="middle" x="436" y="-805.61" font-family="Helvetica,sans-Serif" font-size="10.00">&lt; SampleType &gt; &gt;</text>
</a>
</g>
</g>
<!-- Node1&#45;&gt;Node4 -->
<g id="edge3" class="edge">
<title>Node1&#45;&gt;Node4</title>
<path fill="none" stroke="orange" stroke-dasharray="5,2" d="M71.61,-516.48C71.11,-574.45 78.75,-716.89 161,-786.11 216.9,-833.16 303.44,-835.86 364.27,-830.36"/>
<polygon fill="orange" stroke="orange" points="75.11,-516.43 71.8,-506.37 68.12,-516.31 75.11,-516.43"/>
<text text-anchor="start" x="184" y="-846.11" font-family="Helvetica,sans-Serif" font-size="10.00"> &lt; lemons::dsp::osc</text>
<text text-anchor="middle" x="244" y="-835.11" font-family="Helvetica,sans-Serif" font-size="10.00">::Saw&lt; SampleType &gt; &gt;</text>
</g>
<!-- Node5 -->
<g id="node5" class="node">
<title>Node5</title>
<g id="a_node5"><a xlink:href="structlemons_1_1_constructed_array.html" target="_top" xlink:title=" ">
<polygon fill="none" stroke="black" points="356,-738.61 356,-779.61 516,-779.61 516,-738.61 356,-738.61"/>
<text text-anchor="start" x="364" y="-767.61" font-family="Helvetica,sans-Serif" font-size="10.00">lemons::ConstructedArray</text>
<text text-anchor="start" x="364" y="-756.61" font-family="Helvetica,sans-Serif" font-size="10.00">&lt; lemons::dsp::CircularBuffer</text>
<text text-anchor="middle" x="436" y="-745.61" font-family="Helvetica,sans-Serif" font-size="10.00">&lt; SampleType &gt; &gt;</text>
</a>
</g>
</g>
<!-- Node1&#45;&gt;Node5 -->
<g id="edge4" class="edge">
<title>Node1&#45;&gt;Node5</title>
<path fill="none" stroke="orange" stroke-dasharray="5,2" d="M73.33,-516.32C76.5,-566.91 91.41,-680.51 161,-734.11 190.52,-756.84 285.81,-761.15 355.75,-761.05"/>
<polygon fill="orange" stroke="orange" points="76.82,-516.06 72.81,-506.25 69.83,-516.42 76.82,-516.06"/>
<text text-anchor="start" x="170.5" y="-774.11" font-family="Helvetica,sans-Serif" font-size="10.00"> &lt; lemons::dsp::CircularBuffer</text>
<text text-anchor="middle" x="244" y="-763.11" font-family="Helvetica,sans-Serif" font-size="10.00">&lt; SampleType &gt; &gt;</text>
</g>
<!-- Node6 -->
<g id="node6" class="node">
<title>Node6</title>
<g id="a_node6"><a xlink:href="structlemons_1_1_constructed_array.html" target="_top" xlink:title=" ">
<polygon fill="none" stroke="black" points="361.5,-678.61 361.5,-719.61 510.5,-719.61 510.5,-678.61 361.5,-678.61"/>
<text text-anchor="start" x="369.5" y="-707.61" font-family="Helvetica,sans-Serif" font-size="10.00">lemons::ConstructedArray</text>
<text text-anchor="start" x="369.5" y="-696.61" font-family="Helvetica,sans-Serif" font-size="10.00">&lt; lemons::dsp::osc::Square</text>
<text text-anchor="middle" x="436" y="-685.61" font-family="Helvetica,sans-Serif" font-size="10.00">&lt; float &gt; &gt;</text>
</a>
</g>
</g>
<!-- Node1&#45;&gt;Node6 -->
<g id="edge5" class="edge">
<title>Node1&#45;&gt;Node6</title>
<path fill="none" stroke="orange" stroke-dasharray="5,2" d="M77.49,-516.33C86.64,-555.29 110.03,-629.34 161,-665.11 219.27,-705.99 302.13,-710.89 361.45,-707.78"/>
<polygon fill="orange" stroke="orange" points="80.86,-515.34 75.28,-506.33 74.02,-516.85 80.86,-515.34"/>
<text text-anchor="start" x="195.5" y="-722.11" font-family="Helvetica,sans-Serif" font-size="10.00"> &lt; lemons::dsp::osc</text>
<text text-anchor="middle" x="244" y="-711.11" font-family="Helvetica,sans-Serif" font-size="10.00">::Square&lt; float &gt; &gt;</text>
</g>
<!-- Node7 -->
<g id="node7" class="node">
<title>Node7</title>
<g id="a_node7"><a xlink:href="structlemons_1_1_constructed_array.html" target="_top" xlink:title=" ">
<polygon fill="none" stroke="black" points="364.5,-629.11 364.5,-659.11 507.5,-659.11 507.5,-629.11 364.5,-629.11"/>
<text text-anchor="start" x="372.5" y="-647.11" font-family="Helvetica,sans-Serif" font-size="10.00">lemons::ConstructedArray</text>
<text text-anchor="middle" x="436" y="-636.11" font-family="Helvetica,sans-Serif" font-size="10.00">&lt; InterpolatorType &gt;</text>
</a>
</g>
</g>
<!-- Node1&#45;&gt;Node7 -->
<g id="edge6" class="edge">
<title>Node1&#45;&gt;Node7</title>
<path fill="none" stroke="orange" stroke-dasharray="5,2" d="M83.1,-515.6C96.72,-543.8 123.19,-589.07 161,-611.11 222.89,-647.17 305.94,-652.37 364.33,-650.45"/>
<polygon fill="orange" stroke="orange" points="86.22,-513.99 78.83,-506.4 79.87,-516.94 86.22,-513.99"/>
<text text-anchor="middle" x="244" y="-653.11" font-family="Helvetica,sans-Serif" font-size="10.00"> &lt; InterpolatorType &gt;</text>
</g>
<!-- Node8 -->
<g id="node8" class="node">
<title>Node8</title>
<g id="a_node8"><a xlink:href="structlemons_1_1_constructed_array.html" target="_top" xlink:title=" ">
<polygon fill="none" stroke="black" points="355.5,-580.11 355.5,-610.11 516.5,-610.11 516.5,-580.11 355.5,-580.11"/>
<text text-anchor="start" x="363.5" y="-598.11" font-family="Helvetica,sans-Serif" font-size="10.00">lemons::ConstructedArray</text>
<text text-anchor="middle" x="436" y="-587.11" font-family="Helvetica,sans-Serif" font-size="10.00">&lt; OscType&lt; SampleType &gt; &gt;</text>
</a>
</g>
</g>
<!-- Node1&#45;&gt;Node8 -->
<g id="edge7" class="edge">
<title>Node1&#45;&gt;Node8</title>
<path fill="none" stroke="orange" stroke-dasharray="5,2" d="M92.46,-513.48C109.02,-530.44 134.13,-552.71 161,-564.11 222.7,-590.28 298.86,-597.1 355.21,-597.9"/>
<polygon fill="orange" stroke="orange" points="94.9,-510.96 85.48,-506.11 89.82,-515.78 94.9,-510.96"/>
<text text-anchor="middle" x="244" y="-599.11" font-family="Helvetica,sans-Serif" font-size="10.00"> &lt; OscType&lt; SampleType &gt; &gt;</text>
</g>
<!-- Node9 -->
<g id="node9" class="node">
<title>Node9</title>
<g id="a_node9"><a xlink:href="structlemons_1_1_constructed_array.html" target="_top" xlink:title=" ">
<polygon fill="none" stroke="black" points="345,-531.11 345,-561.11 527,-561.11 527,-531.11 345,-531.11"/>
<text text-anchor="start" x="353" y="-549.11" font-family="Helvetica,sans-Serif" font-size="10.00">lemons::ConstructedArray</text>
<text text-anchor="middle" x="436" y="-538.11" font-family="Helvetica,sans-Serif" font-size="10.00">&lt; lemons::dsp::SynthVoiceBase &gt;</text>
</a>
</g>
</g>
<!-- Node1&#45;&gt;Node9 -->
<g id="edge8" class="edge">
<title>Node1&#45;&gt;Node9</title>
<path fill="none" stroke="orange" stroke-dasharray="5,2" d="M127.87,-509.03C138.77,-512.09 150.18,-514.96 161,-517.11 221.77,-529.15 291.17,-536.43 344.92,-540.68"/>
<polygon fill="orange" stroke="orange" points="128.62,-505.61 118.04,-506.19 126.68,-512.33 128.62,-505.61"/>
<text text-anchor="start" x="177" y="-552.11" font-family="Helvetica,sans-Serif" font-size="10.00"> &lt; lemons::dsp::SynthVoice</text>
<text text-anchor="middle" x="244" y="-541.11" font-family="Helvetica,sans-Serif" font-size="10.00">Base &gt;</text>
</g>
<!-- Node10 -->
<g id="node10" class="node">
<title>Node10</title>
<g id="a_node10"><a xlink:href="structlemons_1_1_constructed_array.html" target="_top" xlink:title=" ">
<polygon fill="none" stroke="black" points="353,-470.61 353,-511.61 519,-511.61 519,-470.61 353,-470.61"/>
<text text-anchor="start" x="361" y="-499.61" font-family="Helvetica,sans-Serif" font-size="10.00">lemons::ConstructedArray</text>
<text text-anchor="start" x="361" y="-488.61" font-family="Helvetica,sans-Serif" font-size="10.00">&lt; lemons::dsp::osc::Detunable</text>
<text text-anchor="middle" x="436" y="-477.61" font-family="Helvetica,sans-Serif" font-size="10.00">&lt; float &gt; &gt;</text>
</a>
</g>
</g>
<!-- Node1&#45;&gt;Node10 -->
<g id="edge9" class="edge">
<title>Node1&#45;&gt;Node10</title>
<path fill="none" stroke="orange" stroke-dasharray="5,2" d="M153.33,-491.11C212.68,-491.11 293.01,-491.11 352.69,-491.11"/>
<polygon fill="orange" stroke="orange" points="153.25,-487.61 143.25,-491.11 153.25,-494.61 153.25,-487.61"/>
<text text-anchor="start" x="188" y="-505.11" font-family="Helvetica,sans-Serif" font-size="10.00"> &lt; lemons::dsp::osc</text>
<text text-anchor="middle" x="244" y="-494.11" font-family="Helvetica,sans-Serif" font-size="10.00">::Detunable&lt; float &gt; &gt;</text>
</g>
<!-- Node11 -->
<g id="node11" class="node">
<title>Node11</title>
<g id="a_node11"><a xlink:href="structlemons_1_1_constructed_array.html" target="_top" xlink:title=" ">
<polygon fill="none" stroke="black" points="364.5,-421.11 364.5,-451.11 507.5,-451.11 507.5,-421.11 364.5,-421.11"/>
<text text-anchor="start" x="372.5" y="-439.11" font-family="Helvetica,sans-Serif" font-size="10.00">lemons::ConstructedArray</text>
<text text-anchor="middle" x="436" y="-428.11" font-family="Helvetica,sans-Serif" font-size="10.00">&lt; lemons::plugin::LFO &gt;</text>
</a>
</g>
</g>
<!-- Node1&#45;&gt;Node11 -->
<g id="edge10" class="edge">
<title>Node1&#45;&gt;Node11</title>
<path fill="none" stroke="orange" stroke-dasharray="5,2" d="M152.93,-477.39C155.66,-476.95 158.35,-476.52 161,-476.11 229.97,-465.23 308.89,-453.82 364.25,-445.98"/>
<polygon fill="orange" stroke="orange" points="152.31,-473.95 143,-479.01 153.44,-480.86 152.31,-473.95"/>
<text text-anchor="middle" x="244" y="-479.11" font-family="Helvetica,sans-Serif" font-size="10.00"> &lt; lemons::plugin::LFO &gt;</text>
</g>
<!-- Node12 -->
<g id="node12" class="node">
<title>Node12</title>
<g id="a_node12"><a xlink:href="structlemons_1_1_constructed_array.html" target="_top" xlink:title=" ">
<polygon fill="none" stroke="black" points="364.5,-360.61 364.5,-401.61 507.5,-401.61 507.5,-360.61 364.5,-360.61"/>
<text text-anchor="start" x="372.5" y="-389.61" font-family="Helvetica,sans-Serif" font-size="10.00">lemons::ConstructedArray</text>
<text text-anchor="start" x="372.5" y="-378.61" font-family="Helvetica,sans-Serif" font-size="10.00">&lt; lemons::dsp::osc::Sine</text>
<text text-anchor="middle" x="436" y="-367.61" font-family="Helvetica,sans-Serif" font-size="10.00">&lt; float &gt; &gt;</text>
</a>
</g>
</g>
<!-- Node1&#45;&gt;Node12 -->
<g id="edge11" class="edge">
<title>Node1&#45;&gt;Node12</title>
<path fill="none" stroke="orange" stroke-dasharray="5,2" d="M95.6,-468.92C112.4,-454.11 136.42,-435.5 161,-425.11 226.45,-397.43 307.44,-387.04 364.34,-383.2"/>
<polygon fill="orange" stroke="orange" points="93.03,-466.53 87.97,-475.84 97.73,-471.72 93.03,-466.53"/>
<text text-anchor="start" x="195.5" y="-439.11" font-family="Helvetica,sans-Serif" font-size="10.00"> &lt; lemons::dsp::osc</text>
<text text-anchor="middle" x="244" y="-428.11" font-family="Helvetica,sans-Serif" font-size="10.00">::Sine&lt; float &gt; &gt;</text>
</g>
<!-- Node13 -->
<g id="node13" class="node">
<title>Node13</title>
<g id="a_node13"><a xlink:href="structlemons_1_1_constructed_array.html" target="_top" xlink:title=" ">
<polygon fill="none" stroke="black" points="359,-300.61 359,-341.61 513,-341.61 513,-300.61 359,-300.61"/>
<text text-anchor="start" x="367" y="-329.61" font-family="Helvetica,sans-Serif" font-size="10.00">lemons::ConstructedArray</text>
<text text-anchor="start" x="367" y="-318.61" font-family="Helvetica,sans-Serif" font-size="10.00">&lt; lemons::dsp::osc::Triangle</text>
<text text-anchor="middle" x="436" y="-307.61" font-family="Helvetica,sans-Serif" font-size="10.00">&lt; float &gt; &gt;</text>
</a>
</g>
</g>
<!-- Node1&#45;&gt;Node13 -->
<g id="edge12" class="edge">
<title>Node1&#45;&gt;Node13</title>
<path fill="none" stroke="orange" stroke-dasharray="5,2" d="M81.86,-466.61C94.77,-436.43 121.07,-386.09 161,-361.11 220.2,-324.07 300.43,-316.19 358.76,-316.29"/>
<polygon fill="orange" stroke="orange" points="78.56,-465.43 78,-476.01 85.04,-468.09 78.56,-465.43"/>
<text text-anchor="start" x="194" y="-375.11" font-family="Helvetica,sans-Serif" font-size="10.00"> &lt; lemons::dsp::osc</text>
<text text-anchor="middle" x="244" y="-364.11" font-family="Helvetica,sans-Serif" font-size="10.00">::Triangle&lt; float &gt; &gt;</text>
</g>
<!-- Node14 -->
<g id="node14" class="node">
<title>Node14</title>
<g id="a_node14"><a xlink:href="structlemons_1_1_constructed_array.html" target="_top" xlink:title=" ">
<polygon fill="none" stroke="black" points="359,-240.61 359,-281.61 513,-281.61 513,-240.61 359,-240.61"/>
<text text-anchor="start" x="367" y="-269.61" font-family="Helvetica,sans-Serif" font-size="10.00">lemons::ConstructedArray</text>
<text text-anchor="start" x="367" y="-258.61" font-family="Helvetica,sans-Serif" font-size="10.00">&lt; lemons::dsp::osc::Triangle</text>
<text text-anchor="middle" x="436" y="-247.61" font-family="Helvetica,sans-Serif" font-size="10.00">&lt; SampleType &gt; &gt;</text>
</a>
</g>
</g>
<!-- Node1&#45;&gt;Node14 -->
<g id="edge13" class="edge">
<title>Node1&#45;&gt;Node14</title>
<path fill="none" stroke="orange" stroke-dasharray="5,2" d="M75.61,-465.88C82.45,-422.28 103.09,-333.48 161,-291.11 217.68,-249.64 299.41,-245.86 358.85,-250.18"/>
<polygon fill="orange" stroke="orange" points="72.13,-465.53 74.16,-475.93 79.05,-466.53 72.13,-465.53"/>
<text text-anchor="start" x="175" y="-305.11" font-family="Helvetica,sans-Serif" font-size="10.00"> &lt; lemons::dsp::osc</text>
<text text-anchor="middle" x="244" y="-294.11" font-family="Helvetica,sans-Serif" font-size="10.00">::Triangle&lt; SampleType &gt; &gt;</text>
</g>
<!-- Node15 -->
<g id="node15" class="node">
<title>Node15</title>
<g id="a_node15"><a xlink:href="structlemons_1_1_constructed_array.html" target="_top" xlink:title=" ">
<polygon fill="none" stroke="black" points="364.5,-180.61 364.5,-221.61 507.5,-221.61 507.5,-180.61 364.5,-180.61"/>
<text text-anchor="start" x="372.5" y="-209.61" font-family="Helvetica,sans-Serif" font-size="10.00">lemons::ConstructedArray</text>
<text text-anchor="start" x="372.5" y="-198.61" font-family="Helvetica,sans-Serif" font-size="10.00">&lt; lemons::dsp::osc::Sine</text>
<text text-anchor="middle" x="436" y="-187.61" font-family="Helvetica,sans-Serif" font-size="10.00">&lt; SampleType &gt; &gt;</text>
</a>
</g>
</g>
<!-- Node1&#45;&gt;Node15 -->
<g id="edge14" class="edge">
<title>Node1&#45;&gt;Node15</title>
<path fill="none" stroke="orange" stroke-dasharray="5,2" d="M72.26,-465.85C73.25,-411.27 84.07,-282.4 161,-222.11 218.08,-177.37 303.97,-178.36 364.34,-186.54"/>
<polygon fill="orange" stroke="orange" points="68.76,-466 72.17,-476.03 75.76,-466.06 68.76,-466"/>
<text text-anchor="start" x="183.5" y="-236.11" font-family="Helvetica,sans-Serif" font-size="10.00"> &lt; lemons::dsp::osc</text>
<text text-anchor="middle" x="244" y="-225.11" font-family="Helvetica,sans-Serif" font-size="10.00">::Sine&lt; SampleType &gt; &gt;</text>
</g>
<!-- Node16 -->
<g id="node16" class="node">
<title>Node16</title>
<g id="a_node16"><a xlink:href="structlemons_1_1_constructed_array.html" target="_top" xlink:title=" ">
<polygon fill="none" stroke="black" points="364.5,-120.61 364.5,-161.61 507.5,-161.61 507.5,-120.61 364.5,-120.61"/>
<text text-anchor="start" x="372.5" y="-149.61" font-family="Helvetica,sans-Serif" font-size="10.00">lemons::ConstructedArray</text>
<text text-anchor="start" x="372.5" y="-138.61" font-family="Helvetica,sans-Serif" font-size="10.00">&lt; lemons::dsp::osc::Saw</text>
<text text-anchor="middle" x="436" y="-127.61" font-family="Helvetica,sans-Serif" font-size="10.00">&lt; float &gt; &gt;</text>
</a>
</g>
</g>
<!-- Node1&#45;&gt;Node16 -->
<g id="edge15" class="edge">
<title>Node1&#45;&gt;Node16</title>
<path fill="none" stroke="orange" stroke-dasharray="5,2" d="M75.39,-465.7C84.04,-394.54 112.19,-195.87 161,-156.11 217.33,-110.22 303.78,-113.68 364.47,-123.98"/>
<polygon fill="orange" stroke="orange" points="71.87,-465.64 74.17,-475.98 78.82,-466.47 71.87,-465.64"/>
<text text-anchor="start" x="195.5" y="-170.11" font-family="Helvetica,sans-Serif" font-size="10.00"> &lt; lemons::dsp::osc</text>
<text text-anchor="middle" x="244" y="-159.11" font-family="Helvetica,sans-Serif" font-size="10.00">::Saw&lt; float &gt; &gt;</text>
</g>
<!-- Node17 -->
<g id="node17" class="node">
<title>Node17</title>
<g id="a_node17"><a xlink:href="structlemons_1_1_constructed_array.html" target="_top" xlink:title=" ">
<polygon fill="none" stroke="black" points="346.5,-71.11 346.5,-101.11 525.5,-101.11 525.5,-71.11 346.5,-71.11"/>
<text text-anchor="start" x="354.5" y="-89.11" font-family="Helvetica,sans-Serif" font-size="10.00">lemons::ConstructedArray</text>
<text text-anchor="middle" x="436" y="-78.11" font-family="Helvetica,sans-Serif" font-size="10.00">&lt; StreamType&lt; SampleType &gt; &gt;</text>
</a>
</g>
</g>
<!-- Node1&#45;&gt;Node17 -->
<g id="edge16" class="edge">
<title>Node1&#45;&gt;Node17</title>
<path fill="none" stroke="orange" stroke-dasharray="5,2" d="M74.39,-465.88C80.83,-387.38 104.72,-149.77 161,-102.11 220.36,-51.83 315.44,-59.17 376.54,-71.09"/>
<polygon fill="orange" stroke="orange" points="70.9,-465.62 73.59,-475.87 77.88,-466.18 70.9,-465.62"/>
<text text-anchor="middle" x="244" y="-105.11" font-family="Helvetica,sans-Serif" font-size="10.00"> &lt; StreamType&lt; SampleType &gt; &gt;</text>
</g>
<!-- Node18 -->
<g id="node18" class="node">
<title>Node18</title>
<g id="a_node18"><a xlink:href="structlemons_1_1_constructed_array.html" target="_top" xlink:title=" ">
<polygon fill="none" stroke="black" points="361.5,-10.61 361.5,-51.61 510.5,-51.61 510.5,-10.61 361.5,-10.61"/>
<text text-anchor="start" x="369.5" y="-39.61" font-family="Helvetica,sans-Serif" font-size="10.00">lemons::ConstructedArray</text>
<text text-anchor="start" x="369.5" y="-28.61" font-family="Helvetica,sans-Serif" font-size="10.00">&lt; lemons::dsp::osc::Square</text>
<text text-anchor="middle" x="436" y="-17.61" font-family="Helvetica,sans-Serif" font-size="10.00">&lt; SampleType &gt; &gt;</text>
</a>
</g>
</g>
<!-- Node1&#45;&gt;Node18 -->
<g id="edge17" class="edge">
<title>Node1&#45;&gt;Node18</title>
<path fill="none" stroke="orange" stroke-dasharray="5,2" d="M73.44,-465.72C77.23,-378.44 94.6,-93.05 161,-37.11 216.86,9.95 304.24,2.73 365.26,-10.59"/>
<polygon fill="orange" stroke="orange" points="69.93,-465.66 73.02,-475.79 76.93,-465.95 69.93,-465.66"/>
<text text-anchor="start" x="177.5" y="-51.11" font-family="Helvetica,sans-Serif" font-size="10.00"> &lt; lemons::dsp::osc</text>
<text text-anchor="middle" x="244" y="-40.11" font-family="Helvetica,sans-Serif" font-size="10.00">::Square&lt; SampleType &gt; &gt;</text>
</g>
</g>
</svg>
        <g id="navigator" transform="translate(0 0)" fill="#404254">
                <rect fill="#f2f5e9" fill-opacity="0.5" stroke="#606060" stroke-width=".5" x="0" y="0" width="60" height="60"/>
                <use id="zoomplus" xlink:href="#zoomPlus" x="17" y="9" onmousedown="handleZoom(evt,'in')"/>
                <use id="zoomminus" xlink:href="#zoomMin" x="42" y="9" onmousedown="handleZoom(evt,'out')"/>
                <use id="reset" xlink:href="#resetDef" x="30" y="36" onmousedown="handleReset()"/>
                <g id="arrowUp" xlink:href="#dirArrow" transform="translate(30 24)" onmousedown="handlePan(0,-1)">
                  <use xlink:href="#rim" fill="#404040">
                        <set attributeName="fill" to="#808080" begin="arrowUp.mouseover" end="arrowUp.mouseout"/>
                  </use>
                  <path fill="none" stroke="white" stroke-width="1.5" d="M0,-3.0v7 M-2.5,-0.5L0,-3.0L2.5,-0.5"/>
                </g>
                <g id="arrowRight" xlink:href="#dirArrow" transform="rotate(90) translate(36 -43)" onmousedown="handlePan(1,0)">
                  <use xlink:href="#rim" fill="#404040">
                        <set attributeName="fill" to="#808080" begin="arrowRight.mouseover" end="arrowRight.mouseout"/>
                  </use>
                  <path fill="none" stroke="white" stroke-width="1.5" d="M0,-3.0v7 M-2.5,-0.5L0,-3.0L2.5,-0.5"/>
                </g>
                <g id="arrowDown" xlink:href="#dirArrow" transform="rotate(180) translate(-30 -48)" onmousedown="handlePan(0,1)">
                  <use xlink:href="#rim" fill="#404040">
                        <set attributeName="fill" to="#808080" begin="arrowDown.mouseover" end="arrowDown.mouseout"/>
                  </use>
                  <path fill="none" stroke="white" stroke-width="1.5" d="M0,-3.0v7 M-2.5,-0.5L0,-3.0L2.5,-0.5"/>
                </g>
                <g id="arrowLeft" xlink:href="#dirArrow" transform="rotate(270) translate(-36 17)" onmousedown="handlePan(-1,0)">
                  <use xlink:href="#rim" fill="#404040">
                        <set attributeName="fill" to="#808080" begin="arrowLeft.mouseover" end="arrowLeft.mouseout"/>
                  </use>
                  <path fill="none" stroke="white" stroke-width="1.5" d="M0,-3.0v7 M-2.5,-0.5L0,-3.0L2.5,-0.5"/>
                </g>
        </g>
        <svg viewBox="0 0 15 15" width="100%" height="30px" preserveAspectRatio="xMaxYMin meet">
         <g id="arrow_out" transform="scale(0.3 0.3)">
          <a xlink:href="structlemons_1_1_constructed_array__inherit__graph_org.svg" target="_base">
           <rect id="button" ry="5" rx="5" y="6" x="6" height="38" width="38"
                fill="#f2f5e9" fill-opacity="0.5" stroke="#606060" stroke-width="1.0"/>
           <path id="arrow"
             d="M 11.500037,31.436501 C 11.940474,20.09759 22.043105,11.32322 32.158766,21.979434 L 37.068811,17.246167 C 37.068811,17.246167 37.088388,32 37.088388,32 L 22.160133,31.978069 C 22.160133,31.978069 26.997745,27.140456 26.997745,27.140456 C 18.528582,18.264221 13.291696,25.230495 11.500037,31.436501 z"
             style="fill:#404040;"/>
          </a>
         </g>
        </svg>
</svg>
