<?xml version="1.0" encoding="UTF-8" standalone="no"?>
<!DOCTYPE svg PUBLIC "-//W3C//DTD SVG 1.1//EN"
 "http://www.w3.org/Graphics/SVG/1.1/DTD/svg11.dtd">
<!-- Generated by graphviz version 2.49.3 (20211023.0002)
 -->
<!-- Title: lemons::ConstructedArray&lt; ObjectType &gt; Pages: 1 -->
<!--zoomable 971 -->
<svg id="main" version="1.1" xmlns="http://www.w3.org/2000/svg" xmlns:xlink="http://www.w3.org/1999/xlink" xml:space="preserve" onload="init(evt)">
<style type="text/css"><![CDATA[
.edge:hover path { stroke: red; }
.edge:hover polygon { stroke: red; fill: red; }
]]></style>
<script type="text/javascript"><![CDATA[
var edges = document.getElementsByTagName('g');
if (edges && edges.length) {
  for (var i=0;i<edges.length;i++) {
    if (edges[i].id.substr(0,4)=='edge') {
      edges[i].setAttribute('class','edge');
    }
  }
}
]]></script>
        <defs>
                <circle id="rim" cx="0" cy="0" r="7"/>
                <circle id="rim2" cx="0" cy="0" r="3.5"/>
                <g id="zoomPlus">
                        <use xlink:href="#rim" fill="#404040">
                                <set attributeName="fill" to="#808080" begin="zoomplus.mouseover" end="zoomplus.mouseout"/>
                        </use>
                        <path d="M-4,0h8M0,-4v8" fill="none" stroke="white" stroke-width="1.5" pointer-events="none"/>
                </g>
                <g id="zoomMin">
                        <use xlink:href="#rim" fill="#404040">
                                <set attributeName="fill" to="#808080" begin="zoomminus.mouseover" end="zoomminus.mouseout"/>
                        </use>
                        <path d="M-4,0h8" fill="none" stroke="white" stroke-width="1.5" pointer-events="none"/>
                </g>
                <g id="dirArrow">
                        <path fill="none" stroke="white" stroke-width="1.5" d="M0,-3.0v7 M-2.5,-0.5L0,-3.0L2.5,-0.5"/>
                </g>
               <g id="resetDef">
                       <use xlink:href="#rim2" fill="#404040">
                               <set attributeName="fill" to="#808080" begin="reset.mouseover" end="reset.mouseout"/>
                       </use>
               </g>
        </defs>

<script type="text/javascript">
var viewWidth = 487;
var viewHeight = 971;
var sectionId = 'dynsection-0';
</script>
<script xlink:href="svgpan.js"/>
<svg id="graph" class="graph">
<g id="viewport">
<title>lemons::ConstructedArray&lt; ObjectType &gt;</title>
<!-- Node1 -->
<g id="node1" class="node">
<title>Node1</title>
<g id="a_node1"><a xlink:title="A wrapper around juce::OwnedArray that automatically deletes or creates objects when you resize it.">
<polygon fill="#bfbfbf" stroke="black" points="0,-480.46 0,-510.46 130,-510.46 130,-480.46 0,-480.46"/>
<text text-anchor="start" x="8" y="-498.46" font-family="Helvetica,sans-Serif" font-size="10.00">lemons::ConstructedArray</text>
<text text-anchor="middle" x="65" y="-487.46" font-family="Helvetica,sans-Serif" font-size="10.00">&lt; ObjectType &gt;</text>
</a>
</g>
</g>
<!-- Node2 -->
<g id="node2" class="node">
<title>Node2</title>
<g id="a_node2"><a xlink:href="structlemons_1_1_constructed_array.html" target="_top" xlink:title=" ">
<polygon fill="none" stroke="black" points="322.5,-923.46 322.5,-953.46 468.5,-953.46 468.5,-923.46 322.5,-923.46"/>
<text text-anchor="start" x="330.5" y="-941.46" font-family="Helvetica,sans-Serif" font-size="10.00">lemons::ConstructedArray</text>
<text text-anchor="middle" x="395.5" y="-930.46" font-family="Helvetica,sans-Serif" font-size="10.00">&lt; OscType&lt; SampleType &gt; &gt;</text>
</a>
</g>
</g>
<!-- Node1&#45;&gt;Node2 -->
<g id="edge1" class="edge">
<title>Node1&#45;&gt;Node2</title>
<path fill="none" stroke="orange" stroke-dasharray="5,2" d="M67.22,-520.82C71.71,-602.62 90.16,-857.18 148,-910.46 194.17,-952.99 267.67,-956.17 322.41,-951.02"/>
<polygon fill="orange" stroke="orange" points="70.71,-520.48 66.69,-510.68 63.72,-520.85 70.71,-520.48"/>
<text text-anchor="middle" x="221" y="-955.46" font-family="Helvetica,sans-Serif" font-size="10.00"> &lt; OscType&lt; SampleType &gt; &gt;</text>
</g>
<!-- Node3 -->
<g id="node3" class="node">
<title>Node3</title>
<g id="a_node3"><a xlink:href="structlemons_1_1_constructed_array.html" target="_top" xlink:title=" ">
<polygon fill="none" stroke="black" points="324,-862.96 324,-903.96 467,-903.96 467,-862.96 324,-862.96"/>
<text text-anchor="start" x="332" y="-891.96" font-family="Helvetica,sans-Serif" font-size="10.00">lemons::ConstructedArray</text>
<text text-anchor="start" x="332" y="-880.96" font-family="Helvetica,sans-Serif" font-size="10.00">&lt; lemons::dsp::CircularBuffer</text>
<text text-anchor="middle" x="395.5" y="-869.96" font-family="Helvetica,sans-Serif" font-size="10.00">&lt; SampleType &gt; &gt;</text>
</a>
</g>
</g>
<!-- Node1&#45;&gt;Node3 -->
<g id="edge2" class="edge">
<title>Node1&#45;&gt;Node3</title>
<path fill="none" stroke="orange" stroke-dasharray="5,2" d="M67.95,-520.88C74.25,-595.95 96.72,-814.2 148,-859.46 173.31,-881.79 260.28,-885.76 323.77,-885.49"/>
<polygon fill="orange" stroke="orange" points="71.4,-520.18 67.1,-510.5 64.42,-520.75 71.4,-520.18"/>
<text text-anchor="start" x="156" y="-898.46" font-family="Helvetica,sans-Serif" font-size="10.00"> &lt; lemons::dsp::CircularBuffer</text>
<text text-anchor="middle" x="221" y="-887.46" font-family="Helvetica,sans-Serif" font-size="10.00">&lt; SampleType &gt; &gt;</text>
</g>
<!-- Node4 -->
<g id="node4" class="node">
<title>Node4</title>
<g id="a_node4"><a xlink:href="structlemons_1_1_constructed_array.html" target="_top" xlink:title=" ">
<polygon fill="none" stroke="black" points="330.5,-813.46 330.5,-843.46 460.5,-843.46 460.5,-813.46 330.5,-813.46"/>
<text text-anchor="start" x="338.5" y="-831.46" font-family="Helvetica,sans-Serif" font-size="10.00">lemons::ConstructedArray</text>
<text text-anchor="middle" x="395.5" y="-820.46" font-family="Helvetica,sans-Serif" font-size="10.00">&lt; InterpolatorType &gt;</text>
</a>
</g>
</g>
<!-- Node1&#45;&gt;Node4 -->
<g id="edge3" class="edge">
<title>Node1&#45;&gt;Node4</title>
<path fill="none" stroke="orange" stroke-dasharray="5,2" d="M68.95,-520.74C77.36,-588.06 103.74,-769.1 148,-806.46 197.99,-848.65 275.71,-848.44 330.49,-841.34"/>
<polygon fill="orange" stroke="orange" points="72.4,-520.1 67.72,-510.6 65.45,-520.95 72.4,-520.1"/>
<text text-anchor="middle" x="221" y="-847.46" font-family="Helvetica,sans-Serif" font-size="10.00"> &lt; InterpolatorType &gt;</text>
</g>
<!-- Node5 -->
<g id="node5" class="node">
<title>Node5</title>
<g id="a_node5"><a xlink:href="structlemons_1_1_constructed_array.html" target="_top" xlink:title=" ">
<polygon fill="none" stroke="black" points="316,-764.46 316,-794.46 475,-794.46 475,-764.46 316,-764.46"/>
<text text-anchor="start" x="324" y="-782.46" font-family="Helvetica,sans-Serif" font-size="10.00">lemons::ConstructedArray</text>
<text text-anchor="middle" x="395.5" y="-771.46" font-family="Helvetica,sans-Serif" font-size="10.00">&lt; StreamType&lt; SampleType &gt; &gt;</text>
</a>
</g>
</g>
<!-- Node1&#45;&gt;Node5 -->
<g id="edge4" class="edge">
<title>Node1&#45;&gt;Node5</title>
<path fill="none" stroke="orange" stroke-dasharray="5,2" d="M65.51,-520.8C66.01,-573.86 75.4,-696.61 148,-755.46 194.35,-793.03 262.86,-796.92 315.91,-792.61"/>
<polygon fill="orange" stroke="orange" points="69.01,-520.58 65.52,-510.58 62.01,-520.58 69.01,-520.58"/>
<text text-anchor="middle" x="221" y="-796.46" font-family="Helvetica,sans-Serif" font-size="10.00"> &lt; StreamType&lt; SampleType &gt; &gt;</text>
</g>
<!-- Node6 -->
<g id="node6" class="node">
<title>Node6</title>
<g id="a_node6"><a xlink:href="structlemons_1_1_constructed_array.html" target="_top" xlink:title=" ">
<polygon fill="none" stroke="black" points="312,-715.46 312,-745.46 479,-745.46 479,-715.46 312,-715.46"/>
<text text-anchor="start" x="320" y="-733.46" font-family="Helvetica,sans-Serif" font-size="10.00">lemons::ConstructedArray</text>
<text text-anchor="middle" x="395.5" y="-722.46" font-family="Helvetica,sans-Serif" font-size="10.00">&lt; lemons::dsp::SynthVoiceBase &gt;</text>
</a>
</g>
</g>
<!-- Node1&#45;&gt;Node6 -->
<g id="edge5" class="edge">
<title>Node1&#45;&gt;Node6</title>
<path fill="none" stroke="orange" stroke-dasharray="5,2" d="M67.83,-520.66C72.55,-565.5 89.29,-658.62 148,-703.46 173.11,-722.63 250.43,-728.69 311.85,-730.38"/>
<polygon fill="orange" stroke="orange" points="71.31,-520.24 66.89,-510.61 64.34,-520.89 71.31,-520.24"/>
<text text-anchor="start" x="160" y="-743.46" font-family="Helvetica,sans-Serif" font-size="10.00"> &lt; lemons::dsp::SynthVoice</text>
<text text-anchor="middle" x="221" y="-732.46" font-family="Helvetica,sans-Serif" font-size="10.00">Base &gt;</text>
</g>
<!-- Node7 -->
<g id="node7" class="node">
<title>Node7</title>
<g id="a_node7"><a xlink:href="structlemons_1_1_constructed_array.html" target="_top" xlink:title=" ">
<polygon fill="none" stroke="black" points="330.5,-654.96 330.5,-695.96 460.5,-695.96 460.5,-654.96 330.5,-654.96"/>
<text text-anchor="start" x="338.5" y="-683.96" font-family="Helvetica,sans-Serif" font-size="10.00">lemons::ConstructedArray</text>
<text text-anchor="start" x="338.5" y="-672.96" font-family="Helvetica,sans-Serif" font-size="10.00">&lt; lemons::dsp::osc::Sine</text>
<text text-anchor="middle" x="395.5" y="-661.96" font-family="Helvetica,sans-Serif" font-size="10.00">&lt; SampleType &gt; &gt;</text>
</a>
</g>
</g>
<!-- Node1&#45;&gt;Node7 -->
<g id="edge6" class="edge">
<title>Node1&#45;&gt;Node7</title>
<path fill="none" stroke="orange" stroke-dasharray="5,2" d="M73.21,-520.24C83.94,-552.36 107.33,-607.58 148,-635.46 201.64,-672.23 277.05,-679.64 330.3,-679.47"/>
<polygon fill="orange" stroke="orange" points="76.54,-519.15 70.17,-510.68 69.87,-521.27 76.54,-519.15"/>
<text text-anchor="start" x="167.5" y="-691.46" font-family="Helvetica,sans-Serif" font-size="10.00"> &lt; lemons::dsp::osc</text>
<text text-anchor="middle" x="221" y="-680.46" font-family="Helvetica,sans-Serif" font-size="10.00">::Sine&lt; SampleType &gt; &gt;</text>
</g>
<!-- Node8 -->
<g id="node8" class="node">
<title>Node8</title>
<g id="a_node8"><a xlink:href="structlemons_1_1_constructed_array.html" target="_top" xlink:title=" ">
<polygon fill="none" stroke="black" points="330.5,-594.96 330.5,-635.96 460.5,-635.96 460.5,-594.96 330.5,-594.96"/>
<text text-anchor="start" x="338.5" y="-623.96" font-family="Helvetica,sans-Serif" font-size="10.00">lemons::ConstructedArray</text>
<text text-anchor="start" x="338.5" y="-612.96" font-family="Helvetica,sans-Serif" font-size="10.00">&lt; lemons::dsp::osc::Saw</text>
<text text-anchor="middle" x="395.5" y="-601.96" font-family="Helvetica,sans-Serif" font-size="10.00">&lt; SampleType &gt; &gt;</text>
</a>
</g>
</g>
<!-- Node1&#45;&gt;Node8 -->
<g id="edge7" class="edge">
<title>Node1&#45;&gt;Node8</title>
<path fill="none" stroke="orange" stroke-dasharray="5,2" d="M84.6,-518.77C99.77,-536.12 122.77,-558.89 148,-571.46 205.49,-600.09 278.73,-610.33 330.39,-613.87"/>
<polygon fill="orange" stroke="orange" points="86.94,-516.12 77.8,-510.76 81.6,-520.65 86.94,-516.12"/>
<text text-anchor="start" x="168" y="-623.46" font-family="Helvetica,sans-Serif" font-size="10.00"> &lt; lemons::dsp::osc</text>
<text text-anchor="middle" x="221" y="-612.46" font-family="Helvetica,sans-Serif" font-size="10.00">::Saw&lt; SampleType &gt; &gt;</text>
</g>
<!-- Node9 -->
<g id="node9" class="node">
<title>Node9</title>
<g id="a_node9"><a xlink:href="structlemons_1_1_constructed_array.html" target="_top" xlink:title=" ">
<polygon fill="none" stroke="black" points="327,-534.96 327,-575.96 464,-575.96 464,-534.96 327,-534.96"/>
<text text-anchor="start" x="335" y="-563.96" font-family="Helvetica,sans-Serif" font-size="10.00">lemons::ConstructedArray</text>
<text text-anchor="start" x="335" y="-552.96" font-family="Helvetica,sans-Serif" font-size="10.00">&lt; lemons::dsp::osc::Square</text>
<text text-anchor="middle" x="395.5" y="-541.96" font-family="Helvetica,sans-Serif" font-size="10.00">&lt; SampleType &gt; &gt;</text>
</a>
</g>
</g>
<!-- Node1&#45;&gt;Node9 -->
<g id="edge8" class="edge">
<title>Node1&#45;&gt;Node9</title>
<path fill="none" stroke="orange" stroke-dasharray="5,2" d="M118.24,-513.48C128.05,-516.44 138.28,-519.26 148,-521.46 207.84,-534.97 277.14,-543.95 326.99,-549.27"/>
<polygon fill="orange" stroke="orange" points="119.19,-510.11 108.61,-510.48 117.11,-516.79 119.19,-510.11"/>
<text text-anchor="start" x="162" y="-559.46" font-family="Helvetica,sans-Serif" font-size="10.00"> &lt; lemons::dsp::osc</text>
<text text-anchor="middle" x="221" y="-548.46" font-family="Helvetica,sans-Serif" font-size="10.00">::Square&lt; SampleType &gt; &gt;</text>
</g>
<!-- Node10 -->
<g id="node10" class="node">
<title>Node10</title>
<g id="a_node10"><a xlink:href="structlemons_1_1_constructed_array.html" target="_top" xlink:title=" ">
<polygon fill="none" stroke="black" points="325.5,-474.96 325.5,-515.96 465.5,-515.96 465.5,-474.96 325.5,-474.96"/>
<text text-anchor="start" x="333.5" y="-503.96" font-family="Helvetica,sans-Serif" font-size="10.00">lemons::ConstructedArray</text>
<text text-anchor="start" x="333.5" y="-492.96" font-family="Helvetica,sans-Serif" font-size="10.00">&lt; lemons::dsp::osc::Triangle</text>
<text text-anchor="middle" x="395.5" y="-481.96" font-family="Helvetica,sans-Serif" font-size="10.00">&lt; SampleType &gt; &gt;</text>
</a>
</g>
</g>
<!-- Node1&#45;&gt;Node10 -->
<g id="edge9" class="edge">
<title>Node1&#45;&gt;Node10</title>
<path fill="none" stroke="orange" stroke-dasharray="5,2" d="M140.25,-495.46C195.79,-495.46 271.19,-495.46 325.44,-495.46"/>
<polygon fill="orange" stroke="orange" points="140.12,-491.96 130.12,-495.46 140.12,-498.96 140.12,-491.96"/>
<text text-anchor="start" x="160.5" y="-509.46" font-family="Helvetica,sans-Serif" font-size="10.00"> &lt; lemons::dsp::osc</text>
<text text-anchor="middle" x="221" y="-498.46" font-family="Helvetica,sans-Serif" font-size="10.00">::Triangle&lt; SampleType &gt; &gt;</text>
</g>
<!-- Node11 -->
<g id="node11" class="node">
<title>Node11</title>
<g id="a_node11"><a xlink:href="structlemons_1_1_constructed_array.html" target="_top" xlink:title=" ">
<polygon fill="none" stroke="black" points="320.5,-414.96 320.5,-455.96 470.5,-455.96 470.5,-414.96 320.5,-414.96"/>
<text text-anchor="start" x="328.5" y="-443.96" font-family="Helvetica,sans-Serif" font-size="10.00">lemons::ConstructedArray</text>
<text text-anchor="start" x="328.5" y="-432.96" font-family="Helvetica,sans-Serif" font-size="10.00">&lt; lemons::dsp::osc::Detunable</text>
<text text-anchor="middle" x="395.5" y="-421.96" font-family="Helvetica,sans-Serif" font-size="10.00">&lt; SampleType &gt; &gt;</text>
</a>
</g>
</g>
<!-- Node1&#45;&gt;Node11 -->
<g id="edge10" class="edge">
<title>Node1&#45;&gt;Node11</title>
<path fill="none" stroke="orange" stroke-dasharray="5,2" d="M118.24,-477.44C128.05,-474.47 138.28,-471.65 148,-469.46 205.2,-456.54 271.05,-447.76 320.3,-442.37"/>
<polygon fill="orange" stroke="orange" points="117.11,-474.12 108.61,-480.44 119.19,-480.81 117.11,-474.12"/>
<text text-anchor="start" x="155.5" y="-483.46" font-family="Helvetica,sans-Serif" font-size="10.00"> &lt; lemons::dsp::osc</text>
<text text-anchor="middle" x="221" y="-472.46" font-family="Helvetica,sans-Serif" font-size="10.00">::Detunable&lt; SampleType &gt; &gt;</text>
</g>
<!-- Node12 -->
<g id="node12" class="node">
<title>Node12</title>
<g id="a_node12"><a xlink:href="structlemons_1_1_constructed_array.html" target="_top" xlink:title=" ">
<polygon fill="none" stroke="black" points="330.5,-354.96 330.5,-395.96 460.5,-395.96 460.5,-354.96 330.5,-354.96"/>
<text text-anchor="start" x="338.5" y="-383.96" font-family="Helvetica,sans-Serif" font-size="10.00">lemons::ConstructedArray</text>
<text text-anchor="start" x="338.5" y="-372.96" font-family="Helvetica,sans-Serif" font-size="10.00">&lt; lemons::dsp::Oscillator</text>
<text text-anchor="middle" x="395.5" y="-361.96" font-family="Helvetica,sans-Serif" font-size="10.00">&lt; SampleType &gt; &gt;</text>
</a>
</g>
</g>
<!-- Node1&#45;&gt;Node12 -->
<g id="edge11" class="edge">
<title>Node1&#45;&gt;Node12</title>
<path fill="none" stroke="orange" stroke-dasharray="5,2" d="M84.25,-472.12C99.38,-454.48 122.48,-431.21 148,-418.46 205.42,-389.77 278.67,-379.87 330.35,-376.63"/>
<polygon fill="orange" stroke="orange" points="81.19,-470.32 77.49,-480.25 86.57,-474.8 81.19,-470.32"/>
<text text-anchor="start" x="164.5" y="-432.46" font-family="Helvetica,sans-Serif" font-size="10.00"> &lt; lemons::dsp::Oscillator</text>
<text text-anchor="middle" x="221" y="-421.46" font-family="Helvetica,sans-Serif" font-size="10.00">&lt; SampleType &gt; &gt;</text>
</g>
<!-- Node13 -->
<g id="node13" class="node">
<title>Node13</title>
<g id="a_node13"><a xlink:href="structlemons_1_1_constructed_array.html" target="_top" xlink:title=" ">
<polygon fill="none" stroke="black" points="330.5,-294.96 330.5,-335.96 460.5,-335.96 460.5,-294.96 330.5,-294.96"/>
<text text-anchor="start" x="338.5" y="-323.96" font-family="Helvetica,sans-Serif" font-size="10.00">lemons::ConstructedArray</text>
<text text-anchor="start" x="338.5" y="-312.96" font-family="Helvetica,sans-Serif" font-size="10.00">&lt; lemons::dsp::osc::Sine</text>
<text text-anchor="middle" x="395.5" y="-301.96" font-family="Helvetica,sans-Serif" font-size="10.00">&lt; float &gt; &gt;</text>
</a>
</g>
</g>
<!-- Node1&#45;&gt;Node13 -->
<g id="edge12" class="edge">
<title>Node1&#45;&gt;Node13</title>
<path fill="none" stroke="orange" stroke-dasharray="5,2" d="M72.91,-470.79C83.41,-438.23 106.66,-381.74 148,-353.46 201.61,-316.78 277.02,-310.04 330.28,-310.74"/>
<polygon fill="orange" stroke="orange" points="69.53,-469.87 69.94,-480.45 76.23,-471.92 69.53,-469.87"/>
<text text-anchor="start" x="177" y="-367.46" font-family="Helvetica,sans-Serif" font-size="10.00"> &lt; lemons::dsp::osc</text>
<text text-anchor="middle" x="221" y="-356.46" font-family="Helvetica,sans-Serif" font-size="10.00">::Sine&lt; float &gt; &gt;</text>
</g>
<!-- Node14 -->
<g id="node14" class="node">
<title>Node14</title>
<g id="a_node14"><a xlink:href="structlemons_1_1_constructed_array.html" target="_top" xlink:title=" ">
<polygon fill="none" stroke="black" points="330.5,-234.96 330.5,-275.96 460.5,-275.96 460.5,-234.96 330.5,-234.96"/>
<text text-anchor="start" x="338.5" y="-263.96" font-family="Helvetica,sans-Serif" font-size="10.00">lemons::ConstructedArray</text>
<text text-anchor="start" x="338.5" y="-252.96" font-family="Helvetica,sans-Serif" font-size="10.00">&lt; lemons::dsp::osc::Saw</text>
<text text-anchor="middle" x="395.5" y="-241.96" font-family="Helvetica,sans-Serif" font-size="10.00">&lt; float &gt; &gt;</text>
</a>
</g>
</g>
<!-- Node1&#45;&gt;Node14 -->
<g id="edge13" class="edge">
<title>Node1&#45;&gt;Node14</title>
<path fill="none" stroke="orange" stroke-dasharray="5,2" d="M67.8,-470.09C72.48,-424.94 89.15,-331.12 148,-285.46 199.52,-245.49 276.21,-242.28 330.34,-246.34"/>
<polygon fill="orange" stroke="orange" points="64.3,-469.93 66.87,-480.21 71.27,-470.57 64.3,-469.93"/>
<text text-anchor="start" x="177" y="-299.46" font-family="Helvetica,sans-Serif" font-size="10.00"> &lt; lemons::dsp::osc</text>
<text text-anchor="middle" x="221" y="-288.46" font-family="Helvetica,sans-Serif" font-size="10.00">::Saw&lt; float &gt; &gt;</text>
</g>
<!-- Node15 -->
<g id="node15" class="node">
<title>Node15</title>
<g id="a_node15"><a xlink:href="structlemons_1_1_constructed_array.html" target="_top" xlink:title=" ">
<polygon fill="none" stroke="black" points="327,-174.96 327,-215.96 464,-215.96 464,-174.96 327,-174.96"/>
<text text-anchor="start" x="335" y="-203.96" font-family="Helvetica,sans-Serif" font-size="10.00">lemons::ConstructedArray</text>
<text text-anchor="start" x="335" y="-192.96" font-family="Helvetica,sans-Serif" font-size="10.00">&lt; lemons::dsp::osc::Square</text>
<text text-anchor="middle" x="395.5" y="-181.96" font-family="Helvetica,sans-Serif" font-size="10.00">&lt; float &gt; &gt;</text>
</a>
</g>
</g>
<!-- Node1&#45;&gt;Node15 -->
<g id="edge14" class="edge">
<title>Node1&#45;&gt;Node15</title>
<path fill="none" stroke="orange" stroke-dasharray="5,2" d="M69.85,-470.05C79.81,-407.92 108.44,-250.98 148,-218.46 197.39,-177.86 272.61,-176.68 326.96,-182.81"/>
<polygon fill="orange" stroke="orange" points="66.35,-469.75 68.26,-480.17 73.27,-470.84 66.35,-469.75"/>
<text text-anchor="start" x="177" y="-232.46" font-family="Helvetica,sans-Serif" font-size="10.00"> &lt; lemons::dsp::osc</text>
<text text-anchor="middle" x="221" y="-221.46" font-family="Helvetica,sans-Serif" font-size="10.00">::Square&lt; float &gt; &gt;</text>
</g>
<!-- Node16 -->
<g id="node16" class="node">
<title>Node16</title>
<g id="a_node16"><a xlink:href="structlemons_1_1_constructed_array.html" target="_top" xlink:title=" ">
<polygon fill="none" stroke="black" points="325.5,-114.96 325.5,-155.96 465.5,-155.96 465.5,-114.96 325.5,-114.96"/>
<text text-anchor="start" x="333.5" y="-143.96" font-family="Helvetica,sans-Serif" font-size="10.00">lemons::ConstructedArray</text>
<text text-anchor="start" x="333.5" y="-132.96" font-family="Helvetica,sans-Serif" font-size="10.00">&lt; lemons::dsp::osc::Triangle</text>
<text text-anchor="middle" x="395.5" y="-121.96" font-family="Helvetica,sans-Serif" font-size="10.00">&lt; float &gt; &gt;</text>
</a>
</g>
</g>
<!-- Node1&#45;&gt;Node16 -->
<g id="edge15" class="edge">
<title>Node1&#45;&gt;Node16</title>
<path fill="none" stroke="orange" stroke-dasharray="5,2" d="M68.29,-470.05C75.32,-397.99 99.2,-194.91 148,-153.46 196.32,-112.41 270.97,-112.75 325.47,-120.37"/>
<polygon fill="orange" stroke="orange" points="64.79,-469.78 67.33,-480.07 71.76,-470.44 64.79,-469.78"/>
<text text-anchor="start" x="177" y="-167.46" font-family="Helvetica,sans-Serif" font-size="10.00"> &lt; lemons::dsp::osc</text>
<text text-anchor="middle" x="221" y="-156.46" font-family="Helvetica,sans-Serif" font-size="10.00">::Triangle&lt; float &gt; &gt;</text>
</g>
<!-- Node17 -->
<g id="node17" class="node">
<title>Node17</title>
<g id="a_node17"><a xlink:href="structlemons_1_1_constructed_array.html" target="_top" xlink:title=" ">
<polygon fill="none" stroke="black" points="320.5,-54.96 320.5,-95.96 470.5,-95.96 470.5,-54.96 320.5,-54.96"/>
<text text-anchor="start" x="328.5" y="-83.96" font-family="Helvetica,sans-Serif" font-size="10.00">lemons::ConstructedArray</text>
<text text-anchor="start" x="328.5" y="-72.96" font-family="Helvetica,sans-Serif" font-size="10.00">&lt; lemons::dsp::osc::Detunable</text>
<text text-anchor="middle" x="395.5" y="-61.96" font-family="Helvetica,sans-Serif" font-size="10.00">&lt; float &gt; &gt;</text>
</a>
</g>
</g>
<!-- Node1&#45;&gt;Node17 -->
<g id="edge16" class="edge">
<title>Node1&#45;&gt;Node17</title>
<path fill="none" stroke="orange" stroke-dasharray="5,2" d="M67.24,-469.71C71.71,-388.44 90,-139.72 148,-89.46 194.48,-49.17 266.31,-49.65 320.46,-57.85"/>
<polygon fill="orange" stroke="orange" points="63.72,-469.86 66.69,-480.03 70.71,-470.23 63.72,-469.86"/>
<text text-anchor="start" x="173.5" y="-103.46" font-family="Helvetica,sans-Serif" font-size="10.00"> &lt; lemons::dsp::osc</text>
<text text-anchor="middle" x="221" y="-92.46" font-family="Helvetica,sans-Serif" font-size="10.00">::Detunable&lt; float &gt; &gt;</text>
</g>
<!-- Node18 -->
<g id="node18" class="node">
<title>Node18</title>
<g id="a_node18"><a xlink:href="structlemons_1_1_constructed_array.html" target="_top" xlink:title=" ">
<polygon fill="none" stroke="black" points="330.5,-5.46 330.5,-35.46 460.5,-35.46 460.5,-5.46 330.5,-5.46"/>
<text text-anchor="start" x="338.5" y="-23.46" font-family="Helvetica,sans-Serif" font-size="10.00">lemons::ConstructedArray</text>
<text text-anchor="middle" x="395.5" y="-12.46" font-family="Helvetica,sans-Serif" font-size="10.00">&lt; lemons::plugin::LFO &gt;</text>
</a>
</g>
</g>
<!-- Node1&#45;&gt;Node18 -->
<g id="edge17" class="edge">
<title>Node1&#45;&gt;Node18</title>
<path fill="none" stroke="orange" stroke-dasharray="5,2" d="M66.63,-470.04C69.37,-382.67 83.23,-96.78 148,-38.46 196.71,5.4 275.05,3.33 330.32,-5.48"/>
<polygon fill="orange" stroke="orange" points="63.13,-470.03 66.34,-480.13 70.13,-470.24 63.13,-470.03"/>
<text text-anchor="middle" x="221" y="-41.46" font-family="Helvetica,sans-Serif" font-size="10.00"> &lt; lemons::plugin::LFO &gt;</text>
</g>
</g>
</svg>
        <g id="navigator" transform="translate(0 0)" fill="#404254">
                <rect fill="#f2f5e9" fill-opacity="0.5" stroke="#606060" stroke-width=".5" x="0" y="0" width="60" height="60"/>
                <use id="zoomplus" xlink:href="#zoomPlus" x="17" y="9" onmousedown="handleZoom(evt,'in')"/>
                <use id="zoomminus" xlink:href="#zoomMin" x="42" y="9" onmousedown="handleZoom(evt,'out')"/>
                <use id="reset" xlink:href="#resetDef" x="30" y="36" onmousedown="handleReset()"/>
                <g id="arrowUp" xlink:href="#dirArrow" transform="translate(30 24)" onmousedown="handlePan(0,-1)">
                  <use xlink:href="#rim" fill="#404040">
                        <set attributeName="fill" to="#808080" begin="arrowUp.mouseover" end="arrowUp.mouseout"/>
                  </use>
                  <path fill="none" stroke="white" stroke-width="1.5" d="M0,-3.0v7 M-2.5,-0.5L0,-3.0L2.5,-0.5"/>
                </g>
                <g id="arrowRight" xlink:href="#dirArrow" transform="rotate(90) translate(36 -43)" onmousedown="handlePan(1,0)">
                  <use xlink:href="#rim" fill="#404040">
                        <set attributeName="fill" to="#808080" begin="arrowRight.mouseover" end="arrowRight.mouseout"/>
                  </use>
                  <path fill="none" stroke="white" stroke-width="1.5" d="M0,-3.0v7 M-2.5,-0.5L0,-3.0L2.5,-0.5"/>
                </g>
                <g id="arrowDown" xlink:href="#dirArrow" transform="rotate(180) translate(-30 -48)" onmousedown="handlePan(0,1)">
                  <use xlink:href="#rim" fill="#404040">
                        <set attributeName="fill" to="#808080" begin="arrowDown.mouseover" end="arrowDown.mouseout"/>
                  </use>
                  <path fill="none" stroke="white" stroke-width="1.5" d="M0,-3.0v7 M-2.5,-0.5L0,-3.0L2.5,-0.5"/>
                </g>
                <g id="arrowLeft" xlink:href="#dirArrow" transform="rotate(270) translate(-36 17)" onmousedown="handlePan(-1,0)">
                  <use xlink:href="#rim" fill="#404040">
                        <set attributeName="fill" to="#808080" begin="arrowLeft.mouseover" end="arrowLeft.mouseout"/>
                  </use>
                  <path fill="none" stroke="white" stroke-width="1.5" d="M0,-3.0v7 M-2.5,-0.5L0,-3.0L2.5,-0.5"/>
                </g>
        </g>
        <svg viewBox="0 0 15 15" width="100%" height="30px" preserveAspectRatio="xMaxYMin meet">
         <g id="arrow_out" transform="scale(0.3 0.3)">
          <a xlink:href="structlemons_1_1_constructed_array__inherit__graph_org.svg" target="_base">
           <rect id="button" ry="5" rx="5" y="6" x="6" height="38" width="38"
                fill="#f2f5e9" fill-opacity="0.5" stroke="#606060" stroke-width="1.0"/>
           <path id="arrow"
             d="M 11.500037,31.436501 C 11.940474,20.09759 22.043105,11.32322 32.158766,21.979434 L 37.068811,17.246167 C 37.068811,17.246167 37.088388,32 37.088388,32 L 22.160133,31.978069 C 22.160133,31.978069 26.997745,27.140456 26.997745,27.140456 C 18.528582,18.264221 13.291696,25.230495 11.500037,31.436501 z"
             style="fill:#404040;"/>
          </a>
         </g>
        </svg>
</svg>
