<?xml version="1.0" encoding="UTF-8" standalone="no"?>
<!DOCTYPE svg PUBLIC "-//W3C//DTD SVG 1.1//EN"
 "http://www.w3.org/Graphics/SVG/1.1/DTD/svg11.dtd">
<!-- Generated by graphviz version 2.43.0 (0)
 -->
<!-- Title: lemons::dsp::filters::MultiFilter&lt; SampleType, numChannels &gt; Pages: 1 -->
<svg width="453pt" height="88pt"
 viewBox="0.00 0.00 453.00 88.00" xmlns="http://www.w3.org/2000/svg" xmlns:xlink="http://www.w3.org/1999/xlink">
<g id="graph0" class="graph" transform="scale(1 1) rotate(0) translate(4 84)">
<title>lemons::dsp::filters::MultiFilter&lt; SampleType, numChannels &gt;</title>
<!-- Node1 -->
<g id="node1" class="node">
<title>Node1</title>
<g id="a_node1"><a xlink:title="A class that holds an array of filters and keeps their coefficients in sync, for processing multichan...">
<polygon fill="#bfbfbf" stroke="black" points="0,-19 0,-60 146,-60 146,-19 0,-19"/>
<text text-anchor="start" x="8" y="-48" font-family="Helvetica,sans-Serif" font-size="10.00">lemons::dsp::filters</text>
<text text-anchor="start" x="8" y="-37" font-family="Helvetica,sans-Serif" font-size="10.00">::MultiFilter&lt; SampleType,</text>
<text text-anchor="middle" x="73" y="-26" font-family="Helvetica,sans-Serif" font-size="10.00"> numChannels &gt;</text>
</a>
</g>
</g>
<!-- Node2 -->
<g id="node2" class="node">
<title>Node2</title>
<g id="a_node2"><a xlink:href="structlemons_1_1dsp_1_1filters_1_1_multi_filter.html" target="_top" xlink:title=" ">
<polygon fill="none" stroke="black" points="279,-49.5 279,-79.5 445,-79.5 445,-49.5 279,-49.5"/>
<text text-anchor="start" x="287" y="-67.5" font-family="Helvetica,sans-Serif" font-size="10.00">lemons::dsp::filters</text>
<text text-anchor="middle" x="362" y="-56.5" font-family="Helvetica,sans-Serif" font-size="10.00">::MultiFilter&lt; SampleType, 2 &gt;</text>
</a>
</g>
</g>
<!-- Node1&#45;&gt;Node2 -->
<g id="edge1" class="edge">
<title>Node1&#45;&gt;Node2</title>
<path fill="none" stroke="orange" stroke-dasharray="5,2" d="M156.18,-46.66C194.62,-50.01 240.3,-53.99 278.76,-57.34"/>
<polygon fill="orange" stroke="orange" points="156.32,-43.16 146.05,-45.78 155.71,-50.13 156.32,-43.16"/>
<text text-anchor="middle" x="212.5" y="-58.5" font-family="Helvetica,sans-Serif" font-size="10.00"> &lt; SampleType, 2 &gt;</text>
</g>
<!-- Node3 -->
<g id="node3" class="node">
<title>Node3</title>
<g id="a_node3"><a xlink:href="structlemons_1_1dsp_1_1filters_1_1_multi_filter.html" target="_top" xlink:title=" ">
<polygon fill="none" stroke="black" points="304,-0.5 304,-30.5 420,-30.5 420,-0.5 304,-0.5"/>
<text text-anchor="start" x="312" y="-18.5" font-family="Helvetica,sans-Serif" font-size="10.00">lemons::dsp::filters</text>
<text text-anchor="middle" x="362" y="-7.5" font-family="Helvetica,sans-Serif" font-size="10.00">::MultiFilter&lt; float &gt;</text>
</a>
</g>
</g>
<!-- Node1&#45;&gt;Node3 -->
<g id="edge2" class="edge">
<title>Node1&#45;&gt;Node3</title>
<path fill="none" stroke="orange" stroke-dasharray="5,2" d="M156.31,-32.16C158.9,-31.94 161.47,-31.72 164,-31.5 211.01,-27.5 264.35,-23.18 303.67,-20.04"/>
<polygon fill="orange" stroke="orange" points="155.87,-28.68 146.21,-33.03 156.47,-35.66 155.87,-28.68"/>
<text text-anchor="middle" x="212.5" y="-34.5" font-family="Helvetica,sans-Serif" font-size="10.00"> &lt; float &gt;</text>
</g>
</g>
</svg>
