<?xml version="1.0" encoding="UTF-8" standalone="no"?>
<!DOCTYPE svg PUBLIC "-//W3C//DTD SVG 1.1//EN"
 "http://www.w3.org/Graphics/SVG/1.1/DTD/svg11.dtd">
<!-- Generated by graphviz version 2.50.0 (20211204.2007)
 -->
<!-- Title: lemons::dsp::FX::LevelReportingAudioEffect&lt; SampleType &gt; Pages: 1 -->
<!--zoomable 284 -->
<svg id="main" version="1.1" xmlns="http://www.w3.org/2000/svg" xmlns:xlink="http://www.w3.org/1999/xlink" xml:space="preserve" onload="init(evt)">
<style type="text/css"><![CDATA[
.edge:hover path { stroke: red; }
.edge:hover polygon { stroke: red; fill: red; }
]]></style>
<script type="text/javascript"><![CDATA[
var edges = document.getElementsByTagName('g');
if (edges && edges.length) {
  for (var i=0;i<edges.length;i++) {
    if (edges[i].id.substr(0,4)=='edge') {
      edges[i].setAttribute('class','edge');
    }
  }
}
]]></script>
        <defs>
                <circle id="rim" cx="0" cy="0" r="7"/>
                <circle id="rim2" cx="0" cy="0" r="3.5"/>
                <g id="zoomPlus">
                        <use xlink:href="#rim" fill="#404040">
                                <set attributeName="fill" to="#808080" begin="zoomplus.mouseover" end="zoomplus.mouseout"/>
                        </use>
                        <path d="M-4,0h8M0,-4v8" fill="none" stroke="white" stroke-width="1.5" pointer-events="none"/>
                </g>
                <g id="zoomMin">
                        <use xlink:href="#rim" fill="#404040">
                                <set attributeName="fill" to="#808080" begin="zoomminus.mouseover" end="zoomminus.mouseout"/>
                        </use>
                        <path d="M-4,0h8" fill="none" stroke="white" stroke-width="1.5" pointer-events="none"/>
                </g>
                <g id="dirArrow">
                        <path fill="none" stroke="white" stroke-width="1.5" d="M0,-3.0v7 M-2.5,-0.5L0,-3.0L2.5,-0.5"/>
                </g>
               <g id="resetDef">
                       <use xlink:href="#rim2" fill="#404040">
                               <set attributeName="fill" to="#808080" begin="reset.mouseover" end="reset.mouseout"/>
                       </use>
               </g>
        </defs>

<script type="text/javascript">
var viewWidth = 1003;
var viewHeight = 284;
var sectionId = 'dynsection-0';
</script>
<script xlink:href="svgpan.js"/>
<svg id="graph" class="graph">
<g id="viewport">
<title>lemons::dsp::FX::LevelReportingAudioEffect&lt; SampleType &gt;</title>
<!-- Node1 -->
<g id="node1" class="node">
<title>Node1</title>
<g id="a_node1"><a xlink:title="Base class for audio effects that can report their level or gain reduction.">
<polygon fill="#bfbfbf" stroke="black" points="375,-122.5 375,-152.5 535,-152.5 535,-122.5 375,-122.5"/>
<text text-anchor="start" x="383" y="-140.5" font-family="Helvetica,sans-Serif" font-size="10.00">lemons::dsp::FX::LevelReporting</text>
<text text-anchor="middle" x="455" y="-129.5" font-family="Helvetica,sans-Serif" font-size="10.00">AudioEffect&lt; SampleType &gt;</text>
</a>
</g>
</g>
<!-- Node4 -->
<g id="node4" class="node">
<title>Node4</title>
<g id="a_node4"><a xlink:href="classlemons_1_1dsp_1_1_f_x_1_1_compressor.html" target="_top" xlink:title="A simple compressor effect class that allows you to optionally sidechain the signal.">
<polygon fill="none" stroke="black" points="617,-245.5 617,-275.5 765,-275.5 765,-245.5 617,-245.5"/>
<text text-anchor="start" x="625" y="-263.5" font-family="Helvetica,sans-Serif" font-size="10.00">lemons::dsp::FX::Compressor</text>
<text text-anchor="middle" x="691" y="-252.5" font-family="Helvetica,sans-Serif" font-size="10.00">&lt; SampleType &gt;</text>
</a>
</g>
</g>
<!-- Node1&#45;&gt;Node4 -->
<g id="edge3" class="edge">
<title>Node1&#45;&gt;Node4</title>
<path fill="none" stroke="midnightblue" d="M484.34,-158.98C514.42,-180.96 564.02,-214.86 611,-236.5 618.16,-239.8 625.89,-242.79 633.62,-245.45"/>
<polygon fill="midnightblue" stroke="midnightblue" points="486.15,-155.97 476.02,-152.85 481.99,-161.6 486.15,-155.97"/>
</g>
<!-- Node6 -->
<g id="node6" class="node">
<title>Node6</title>
<g id="a_node6"><a xlink:href="classlemons_1_1dsp_1_1_f_x_1_1_de_esser.html" target="_top" xlink:title="A basic &quot;de&#45;esser&quot; effect class.">
<polygon fill="none" stroke="black" points="624.5,-196.5 624.5,-226.5 757.5,-226.5 757.5,-196.5 624.5,-196.5"/>
<text text-anchor="start" x="632.5" y="-214.5" font-family="Helvetica,sans-Serif" font-size="10.00">lemons::dsp::FX::DeEsser</text>
<text text-anchor="middle" x="691" y="-203.5" font-family="Helvetica,sans-Serif" font-size="10.00">&lt; SampleType &gt;</text>
</a>
</g>
</g>
<!-- Node1&#45;&gt;Node6 -->
<g id="edge5" class="edge">
<title>Node1&#45;&gt;Node6</title>
<path fill="none" stroke="midnightblue" d="M511.75,-155.74C541.22,-165.32 578.03,-177.18 611,-187.5 620.3,-190.41 630.24,-193.47 639.81,-196.39"/>
<polygon fill="midnightblue" stroke="midnightblue" points="512.65,-152.35 502.05,-152.58 510.48,-159.01 512.65,-152.35"/>
</g>
<!-- Node7 -->
<g id="node7" class="node">
<title>Node7</title>
<g id="a_node7"><a xlink:href="classlemons_1_1dsp_1_1_f_x_1_1_delay.html" target="_top" xlink:title=" ">
<polygon fill="none" stroke="black" points="631,-147.5 631,-177.5 751,-177.5 751,-147.5 631,-147.5"/>
<text text-anchor="start" x="639" y="-165.5" font-family="Helvetica,sans-Serif" font-size="10.00">lemons::dsp::FX::Delay</text>
<text text-anchor="middle" x="691" y="-154.5" font-family="Helvetica,sans-Serif" font-size="10.00">&lt; SampleType &gt;</text>
</a>
</g>
</g>
<!-- Node1&#45;&gt;Node7 -->
<g id="edge6" class="edge">
<title>Node1&#45;&gt;Node7</title>
<path fill="none" stroke="midnightblue" d="M545.24,-147.03C573.89,-150.1 604.9,-153.41 630.84,-156.18"/>
<polygon fill="midnightblue" stroke="midnightblue" points="545.54,-143.55 535.22,-145.96 544.79,-150.51 545.54,-143.55"/>
</g>
<!-- Node8 -->
<g id="node8" class="node">
<title>Node8</title>
<g id="a_node8"><a xlink:href="classlemons_1_1dsp_1_1_f_x_1_1_limiter.html" target="_top" xlink:title="A simple limiter effect class that allows you to optionally sidechain the signal.">
<polygon fill="none" stroke="black" points="629,-98.5 629,-128.5 753,-128.5 753,-98.5 629,-98.5"/>
<text text-anchor="start" x="637" y="-116.5" font-family="Helvetica,sans-Serif" font-size="10.00">lemons::dsp::FX::Limiter</text>
<text text-anchor="middle" x="691" y="-105.5" font-family="Helvetica,sans-Serif" font-size="10.00">&lt; SampleType &gt;</text>
</a>
</g>
</g>
<!-- Node1&#45;&gt;Node8 -->
<g id="edge7" class="edge">
<title>Node1&#45;&gt;Node8</title>
<path fill="none" stroke="midnightblue" d="M545.4,-128.33C573.33,-125.47 603.48,-122.37 628.99,-119.76"/>
<polygon fill="midnightblue" stroke="midnightblue" points="544.81,-124.87 535.22,-129.37 545.53,-131.84 544.81,-124.87"/>
</g>
<!-- Node9 -->
<g id="node9" class="node">
<title>Node9</title>
<g id="a_node9"><a xlink:href="classlemons_1_1dsp_1_1_f_x_1_1_noise_gate.html" target="_top" xlink:title="A simple noise gate effect class that allows you to optionally sidechain the signal.">
<polygon fill="none" stroke="black" points="620.5,-49.5 620.5,-79.5 761.5,-79.5 761.5,-49.5 620.5,-49.5"/>
<text text-anchor="start" x="628.5" y="-67.5" font-family="Helvetica,sans-Serif" font-size="10.00">lemons::dsp::FX::NoiseGate</text>
<text text-anchor="middle" x="691" y="-56.5" font-family="Helvetica,sans-Serif" font-size="10.00">&lt; SampleType &gt;</text>
</a>
</g>
</g>
<!-- Node1&#45;&gt;Node9 -->
<g id="edge8" class="edge">
<title>Node1&#45;&gt;Node9</title>
<path fill="none" stroke="midnightblue" d="M512.76,-119.39C542.07,-110.08 578.43,-98.6 611,-88.5 620.45,-85.57 630.54,-82.48 640.25,-79.52"/>
<polygon fill="midnightblue" stroke="midnightblue" points="511.57,-116.09 503.1,-122.46 513.69,-122.76 511.57,-116.09"/>
</g>
<!-- Node10 -->
<g id="node10" class="node">
<title>Node10</title>
<g id="a_node10"><a xlink:href="structlemons_1_1dsp_1_1_f_x_1_1_level_reporting_audio_effect.html" target="_top" xlink:title=" ">
<polygon fill="none" stroke="black" points="611,-0.5 611,-30.5 771,-30.5 771,-0.5 611,-0.5"/>
<text text-anchor="start" x="619" y="-18.5" font-family="Helvetica,sans-Serif" font-size="10.00">lemons::dsp::FX::LevelReporting</text>
<text text-anchor="middle" x="691" y="-7.5" font-family="Helvetica,sans-Serif" font-size="10.00">AudioEffect&lt; float &gt;</text>
</a>
</g>
</g>
<!-- Node1&#45;&gt;Node10 -->
<g id="edge9" class="edge">
<title>Node1&#45;&gt;Node10</title>
<path fill="none" stroke="orange" stroke-dasharray="5,2" d="M484.38,-116.25C514.49,-94.52 564.1,-60.97 611,-39.5 618.17,-36.22 625.9,-33.24 633.63,-30.58"/>
<polygon fill="orange" stroke="orange" points="482.07,-113.6 476.05,-122.32 486.19,-119.26 482.07,-113.6"/>
<text text-anchor="middle" x="573" y="-73.5" font-family="Helvetica,sans-Serif" font-size="10.00"> &lt; float &gt;</text>
</g>
<!-- Node2 -->
<g id="node2" class="node">
<title>Node2</title>
<g id="a_node2"><a xlink:href="structlemons_1_1dsp_1_1_f_x_1_1_sidechainable_audio_effect.html" target="_top" xlink:title="Base class for audio effects that accept a sidechain signal.">
<polygon fill="none" stroke="black" points="183,-122.5 183,-152.5 338,-152.5 338,-122.5 183,-122.5"/>
<text text-anchor="start" x="191" y="-140.5" font-family="Helvetica,sans-Serif" font-size="10.00">lemons::dsp::FX::Sidechainable</text>
<text text-anchor="middle" x="260.5" y="-129.5" font-family="Helvetica,sans-Serif" font-size="10.00">AudioEffect&lt; SampleType &gt;</text>
</a>
</g>
</g>
<!-- Node2&#45;&gt;Node1 -->
<g id="edge1" class="edge">
<title>Node2&#45;&gt;Node1</title>
<path fill="none" stroke="midnightblue" d="M348.39,-137.5C357.19,-137.5 366.09,-137.5 374.79,-137.5"/>
<polygon fill="midnightblue" stroke="midnightblue" points="348.13,-134 338.13,-137.5 348.13,-141 348.13,-134"/>
</g>
<!-- Node3 -->
<g id="node3" class="node">
<title>Node3</title>
<g id="a_node3"><a xlink:href="structlemons_1_1dsp_1_1_f_x_1_1_audio_effect.html" target="_top" xlink:title="Base class for any kind of audio effect.">
<polygon fill="none" stroke="black" points="0,-122.5 0,-152.5 146,-152.5 146,-122.5 0,-122.5"/>
<text text-anchor="start" x="8" y="-140.5" font-family="Helvetica,sans-Serif" font-size="10.00">lemons::dsp::FX::AudioEffect</text>
<text text-anchor="middle" x="73" y="-129.5" font-family="Helvetica,sans-Serif" font-size="10.00">&lt; SampleType &gt;</text>
</a>
</g>
</g>
<!-- Node3&#45;&gt;Node2 -->
<g id="edge2" class="edge">
<title>Node3&#45;&gt;Node2</title>
<path fill="none" stroke="midnightblue" d="M156.47,-137.5C165.25,-137.5 174.15,-137.5 182.85,-137.5"/>
<polygon fill="midnightblue" stroke="midnightblue" points="156.25,-134 146.25,-137.5 156.25,-141 156.25,-134"/>
</g>
<!-- Node5 -->
<g id="node5" class="node">
<title>Node5</title>
<g id="a_node5"><a xlink:href="classlemons_1_1dsp_1_1_f_x_1_1_compressor.html" target="_top" xlink:title=" ">
<polygon fill="none" stroke="black" points="847,-122.5 847,-152.5 995,-152.5 995,-122.5 847,-122.5"/>
<text text-anchor="start" x="855" y="-140.5" font-family="Helvetica,sans-Serif" font-size="10.00">lemons::dsp::FX::Compressor</text>
<text text-anchor="middle" x="921" y="-129.5" font-family="Helvetica,sans-Serif" font-size="10.00">&lt; float &gt;</text>
</a>
</g>
</g>
<!-- Node4&#45;&gt;Node5 -->
<g id="edge4" class="edge">
<title>Node4&#45;&gt;Node5</title>
<path fill="none" stroke="orange" stroke-dasharray="5,2" d="M758.4,-241.9C762.72,-240.21 766.95,-238.41 771,-236.5 821.28,-212.79 874.09,-173.83 901.32,-152.55"/>
<polygon fill="orange" stroke="orange" points="757.03,-238.67 748.86,-245.42 759.45,-245.24 757.03,-238.67"/>
<text text-anchor="middle" x="809" y="-227.5" font-family="Helvetica,sans-Serif" font-size="10.00"> &lt; float &gt;</text>
</g>
<!-- Node10&#45;&gt;Node5 -->
<g id="edge10" class="edge">
<title>Node10&#45;&gt;Node5</title>
<path fill="none" stroke="midnightblue" d="M758.39,-34.12C762.71,-35.81 766.95,-37.6 771,-39.5 820.9,-62.89 873.44,-101.13 900.83,-122.27"/>
<polygon fill="midnightblue" stroke="midnightblue" points="759.44,-30.78 748.85,-30.61 757.02,-37.35 759.44,-30.78"/>
</g>
</g>
</svg>
        <g id="navigator" transform="translate(0 0)" fill="#404254">
                <rect fill="#f2f5e9" fill-opacity="0.5" stroke="#606060" stroke-width=".5" x="0" y="0" width="60" height="60"/>
                <use id="zoomplus" xlink:href="#zoomPlus" x="17" y="9" onmousedown="handleZoom(evt,'in')"/>
                <use id="zoomminus" xlink:href="#zoomMin" x="42" y="9" onmousedown="handleZoom(evt,'out')"/>
                <use id="reset" xlink:href="#resetDef" x="30" y="36" onmousedown="handleReset()"/>
                <g id="arrowUp" xlink:href="#dirArrow" transform="translate(30 24)" onmousedown="handlePan(0,-1)">
                  <use xlink:href="#rim" fill="#404040">
                        <set attributeName="fill" to="#808080" begin="arrowUp.mouseover" end="arrowUp.mouseout"/>
                  </use>
                  <path fill="none" stroke="white" stroke-width="1.5" d="M0,-3.0v7 M-2.5,-0.5L0,-3.0L2.5,-0.5"/>
                </g>
                <g id="arrowRight" xlink:href="#dirArrow" transform="rotate(90) translate(36 -43)" onmousedown="handlePan(1,0)">
                  <use xlink:href="#rim" fill="#404040">
                        <set attributeName="fill" to="#808080" begin="arrowRight.mouseover" end="arrowRight.mouseout"/>
                  </use>
                  <path fill="none" stroke="white" stroke-width="1.5" d="M0,-3.0v7 M-2.5,-0.5L0,-3.0L2.5,-0.5"/>
                </g>
                <g id="arrowDown" xlink:href="#dirArrow" transform="rotate(180) translate(-30 -48)" onmousedown="handlePan(0,1)">
                  <use xlink:href="#rim" fill="#404040">
                        <set attributeName="fill" to="#808080" begin="arrowDown.mouseover" end="arrowDown.mouseout"/>
                  </use>
                  <path fill="none" stroke="white" stroke-width="1.5" d="M0,-3.0v7 M-2.5,-0.5L0,-3.0L2.5,-0.5"/>
                </g>
                <g id="arrowLeft" xlink:href="#dirArrow" transform="rotate(270) translate(-36 17)" onmousedown="handlePan(-1,0)">
                  <use xlink:href="#rim" fill="#404040">
                        <set attributeName="fill" to="#808080" begin="arrowLeft.mouseover" end="arrowLeft.mouseout"/>
                  </use>
                  <path fill="none" stroke="white" stroke-width="1.5" d="M0,-3.0v7 M-2.5,-0.5L0,-3.0L2.5,-0.5"/>
                </g>
        </g>
        <svg viewBox="0 0 15 15" width="100%" height="30px" preserveAspectRatio="xMaxYMin meet">
         <g id="arrow_out" transform="scale(0.3 0.3)">
          <a xlink:href="structlemons_1_1dsp_1_1_f_x_1_1_level_reporting_audio_effect__inherit__graph_org.svg" target="_base">
           <rect id="button" ry="5" rx="5" y="6" x="6" height="38" width="38"
                fill="#f2f5e9" fill-opacity="0.5" stroke="#606060" stroke-width="1.0"/>
           <path id="arrow"
             d="M 11.500037,31.436501 C 11.940474,20.09759 22.043105,11.32322 32.158766,21.979434 L 37.068811,17.246167 C 37.068811,17.246167 37.088388,32 37.088388,32 L 22.160133,31.978069 C 22.160133,31.978069 26.997745,27.140456 26.997745,27.140456 C 18.528582,18.264221 13.291696,25.230495 11.500037,31.436501 z"
             style="fill:#404040;"/>
          </a>
         </g>
        </svg>
</svg>
