<?xml version="1.0" encoding="UTF-8" standalone="no"?>
<!DOCTYPE svg PUBLIC "-//W3C//DTD SVG 1.1//EN"
 "http://www.w3.org/Graphics/SVG/1.1/DTD/svg11.dtd">
<!-- Generated by graphviz version 2.43.0 (0)
 -->
<!-- Title: lemons::SystemInitializer Pages: 1 -->
<svg width="392pt" height="162pt"
 viewBox="0.00 0.00 392.00 162.00" xmlns="http://www.w3.org/2000/svg" xmlns:xlink="http://www.w3.org/1999/xlink">
<g id="graph0" class="graph" transform="scale(1 1) rotate(0) translate(4 158)">
<title>lemons::SystemInitializer</title>
<!-- Node1 -->
<g id="node1" class="node">
<title>Node1</title>
<g id="a_node1"><a xlink:title=" ">
<polygon fill="#bfbfbf" stroke="black" points="129.5,-134.5 129.5,-153.5 270.5,-153.5 270.5,-134.5 129.5,-134.5"/>
<text text-anchor="middle" x="200" y="-141.5" font-family="Helvetica,sans-Serif" font-size="10.00">lemons::SystemInitializer</text>
</a>
</g>
</g>
<!-- Node2 -->
<g id="node2" class="node">
<title>Node2</title>
<g id="a_node2"><a xlink:href="classlemons_1_1GuiApp.html" target="_top" xlink:title="Represents the base for a generic GUI app.">
<polygon fill="none" stroke="black" points="0,-67.5 0,-97.5 200,-97.5 200,-67.5 0,-67.5"/>
<text text-anchor="start" x="8" y="-85.5" font-family="Helvetica,sans-Serif" font-size="10.00">lemons::GuiApp&lt; ContentComponent</text>
<text text-anchor="middle" x="100" y="-74.5" font-family="Helvetica,sans-Serif" font-size="10.00">Type, &gt;</text>
</a>
</g>
</g>
<!-- Node1&#45;&gt;Node2 -->
<g id="edge1" class="edge">
<title>Node1&#45;&gt;Node2</title>
<path fill="none" stroke="#8b1a1a" d="M176.93,-129.28C160.93,-119.75 139.68,-107.11 123.57,-97.52"/>
<polygon fill="#8b1a1a" stroke="#8b1a1a" points="175.29,-132.37 185.67,-134.48 178.87,-126.35 175.29,-132.37"/>
</g>
<!-- Node3 -->
<g id="node3" class="node">
<title>Node3</title>
<g id="a_node3"><a xlink:href="classlemons_1_1plugin_1_1ProcessorBase.html" target="_top" xlink:title="Base class for a plugin processor.">
<polygon fill="none" stroke="black" points="218,-73 218,-92 384,-92 384,-73 218,-73"/>
<text text-anchor="middle" x="301" y="-80" font-family="Helvetica,sans-Serif" font-size="10.00">lemons::plugin::ProcessorBase</text>
</a>
</g>
</g>
<!-- Node1&#45;&gt;Node3 -->
<g id="edge2" class="edge">
<title>Node1&#45;&gt;Node3</title>
<path fill="none" stroke="#8b1a1a" d="M223.35,-129.24C242.86,-117.75 270.07,-101.72 286.56,-92.01"/>
<polygon fill="#8b1a1a" stroke="#8b1a1a" points="221.31,-126.38 214.47,-134.48 224.86,-132.41 221.31,-126.38"/>
</g>
<!-- Node4 -->
<g id="node4" class="node">
<title>Node4</title>
<g id="a_node4"><a xlink:href="classlemons_1_1plugin_1_1Processor.html" target="_top" xlink:title="A processor class for a plugin that can simply be told the state type and engine type,...">
<polygon fill="none" stroke="black" points="223.5,-0.5 223.5,-30.5 378.5,-30.5 378.5,-0.5 223.5,-0.5"/>
<text text-anchor="start" x="231.5" y="-18.5" font-family="Helvetica,sans-Serif" font-size="10.00">lemons::plugin::Processor</text>
<text text-anchor="middle" x="301" y="-7.5" font-family="Helvetica,sans-Serif" font-size="10.00">&lt; StateType, EngineType,, &gt;</text>
</a>
</g>
</g>
<!-- Node3&#45;&gt;Node4 -->
<g id="edge3" class="edge">
<title>Node3&#45;&gt;Node4</title>
<path fill="none" stroke="midnightblue" d="M301,-62.41C301,-52.22 301,-39.9 301,-30.59"/>
<polygon fill="midnightblue" stroke="midnightblue" points="297.5,-62.73 301,-72.73 304.5,-62.73 297.5,-62.73"/>
</g>
</g>
</svg>
