<?xml version="1.0" encoding="UTF-8" standalone="no"?>
<!DOCTYPE svg PUBLIC "-//W3C//DTD SVG 1.1//EN"
 "http://www.w3.org/Graphics/SVG/1.1/DTD/svg11.dtd">
<!-- Generated by graphviz version 2.43.0 (0)
 -->
<!-- Title: lemons::plugin::BoolParameter Pages: 1 -->
<svg width="282pt" height="345pt"
 viewBox="0.00 0.00 281.50 345.00" xmlns="http://www.w3.org/2000/svg" xmlns:xlink="http://www.w3.org/1999/xlink">
<g id="graph0" class="graph" transform="scale(1 1) rotate(0) translate(4 341)">
<title>lemons::plugin::BoolParameter</title>
<!-- Node1 -->
<g id="node1" class="node">
<title>Node1</title>
<g id="a_node1"><a xlink:title=" ">
<polygon fill="#bfbfbf" stroke="black" points="4.5,-57.5 4.5,-76.5 171.5,-76.5 171.5,-57.5 4.5,-57.5"/>
<text text-anchor="middle" x="88" y="-64.5" font-family="Helvetica,sans-Serif" font-size="10.00">lemons::plugin::BoolParameter</text>
</a>
</g>
</g>
<!-- Node6 -->
<g id="node6" class="node">
<title>Node6</title>
<g id="a_node6"><a xlink:href="structlemons_1_1plugin_1_1ToggleParameter.html" target="_top" xlink:title=" ">
<polygon fill="none" stroke="black" points="0,-0.5 0,-19.5 176,-19.5 176,-0.5 0,-0.5"/>
<text text-anchor="middle" x="88" y="-7.5" font-family="Helvetica,sans-Serif" font-size="10.00">lemons::plugin::ToggleParameter</text>
</a>
</g>
</g>
<!-- Node1&#45;&gt;Node6 -->
<g id="edge6" class="edge">
<title>Node1&#45;&gt;Node6</title>
<path fill="none" stroke="midnightblue" d="M88,-47.12C88,-37.82 88,-27.06 88,-19.71"/>
<polygon fill="midnightblue" stroke="midnightblue" points="84.5,-47.41 88,-57.41 91.5,-47.41 84.5,-47.41"/>
</g>
<!-- Node2 -->
<g id="node2" class="node">
<title>Node2</title>
<g id="a_node2"><a xlink:href="classlemons_1_1plugin_1_1TypedParameter.html" target="_top" xlink:title=" ">
<polygon fill="none" stroke="black" points="1.5,-114.5 1.5,-144.5 174.5,-144.5 174.5,-114.5 1.5,-114.5"/>
<text text-anchor="start" x="9.5" y="-132.5" font-family="Helvetica,sans-Serif" font-size="10.00">lemons::plugin::TypedParameter</text>
<text text-anchor="middle" x="88" y="-121.5" font-family="Helvetica,sans-Serif" font-size="10.00">&lt; bool &gt;</text>
</a>
</g>
</g>
<!-- Node2&#45;&gt;Node1 -->
<g id="edge1" class="edge">
<title>Node2&#45;&gt;Node1</title>
<path fill="none" stroke="midnightblue" d="M88,-104.35C88,-94.51 88,-83.78 88,-76.54"/>
<polygon fill="midnightblue" stroke="midnightblue" points="84.5,-104.47 88,-114.47 91.5,-104.47 84.5,-104.47"/>
</g>
<!-- Node3 -->
<g id="node3" class="node">
<title>Node3</title>
<g id="a_node3"><a xlink:href="classlemons_1_1plugin_1_1Parameter.html" target="_top" xlink:title="A plugin parameter class that allows you to use my Serializing API, and has a few other cool bells an...">
<polygon fill="none" stroke="black" points="11.5,-260.5 11.5,-279.5 156.5,-279.5 156.5,-260.5 11.5,-260.5"/>
<text text-anchor="middle" x="84" y="-267.5" font-family="Helvetica,sans-Serif" font-size="10.00">lemons::plugin::Parameter</text>
</a>
</g>
</g>
<!-- Node3&#45;&gt;Node2 -->
<g id="edge2" class="edge">
<title>Node3&#45;&gt;Node2</title>
<path fill="none" stroke="midnightblue" d="M84.54,-250.25C85.35,-222.19 86.86,-169.88 87.59,-144.73"/>
<polygon fill="midnightblue" stroke="midnightblue" points="81.04,-250.24 84.25,-260.34 88.04,-250.44 81.04,-250.24"/>
</g>
<!-- Node5 -->
<g id="node5" class="node">
<title>Node5</title>
<g id="a_node5"><a xlink:href="classlemons_1_1plugin_1_1TypedParameter.html" target="_top" xlink:title=" ">
<polygon fill="none" stroke="black" points="100.5,-192.5 100.5,-222.5 273.5,-222.5 273.5,-192.5 100.5,-192.5"/>
<text text-anchor="start" x="108.5" y="-210.5" font-family="Helvetica,sans-Serif" font-size="10.00">lemons::plugin::TypedParameter</text>
<text text-anchor="middle" x="187" y="-199.5" font-family="Helvetica,sans-Serif" font-size="10.00">&lt; ValueType &gt;</text>
</a>
</g>
</g>
<!-- Node3&#45;&gt;Node5 -->
<g id="edge5" class="edge">
<title>Node3&#45;&gt;Node5</title>
<path fill="none" stroke="midnightblue" d="M107.82,-255.01C124.43,-245.25 146.5,-232.29 163.12,-222.53"/>
<polygon fill="midnightblue" stroke="midnightblue" points="105.61,-252.25 98.76,-260.33 109.15,-258.28 105.61,-252.25"/>
</g>
<!-- Node4 -->
<g id="node4" class="node">
<title>Node4</title>
<g id="a_node4"><a xlink:href="structlemons_1_1SerializableData.html" target="_top" xlink:title="Base class for any C++ object that needs to be serialized to binary and back.">
<polygon fill="none" stroke="black" points="14.5,-317.5 14.5,-336.5 153.5,-336.5 153.5,-317.5 14.5,-317.5"/>
<text text-anchor="middle" x="84" y="-324.5" font-family="Helvetica,sans-Serif" font-size="10.00">lemons::SerializableData</text>
</a>
</g>
</g>
<!-- Node4&#45;&gt;Node3 -->
<g id="edge3" class="edge">
<title>Node4&#45;&gt;Node3</title>
<path fill="none" stroke="midnightblue" d="M84,-307.12C84,-297.82 84,-287.06 84,-279.71"/>
<polygon fill="midnightblue" stroke="midnightblue" points="80.5,-307.41 84,-317.41 87.5,-307.41 80.5,-307.41"/>
</g>
<!-- Node5&#45;&gt;Node2 -->
<g id="edge4" class="edge">
<title>Node5&#45;&gt;Node2</title>
<path fill="none" stroke="orange" stroke-dasharray="5,2" d="M160.44,-186.11C143.41,-173.04 121.72,-156.39 106.54,-144.73"/>
<polygon fill="orange" stroke="orange" points="158.32,-188.89 168.38,-192.2 162.58,-183.34 158.32,-188.89"/>
<text text-anchor="middle" x="166.5" y="-166" font-family="Helvetica,sans-Serif" font-size="10.00"> &lt; bool &gt;</text>
</g>
</g>
</svg>
