<?xml version="1.0" encoding="UTF-8" standalone="no"?>
<!DOCTYPE svg PUBLIC "-//W3C//DTD SVG 1.1//EN"
 "http://www.w3.org/Graphics/SVG/1.1/DTD/svg11.dtd">
<!-- Generated by graphviz version 2.49.1 (20210923.0004)
 -->
<!-- Title: lemons::plugin::CustomState&lt; ParamListType, CustomDataType,, &gt; Pages: 1 -->
<svg width="197pt" height="151pt"
 viewBox="0.00 0.00 197.00 151.00" xmlns="http://www.w3.org/2000/svg" xmlns:xlink="http://www.w3.org/1999/xlink">
<g id="graph0" class="graph" transform="scale(1 1) rotate(0) translate(4 147)">
<title>lemons::plugin::CustomState&lt; ParamListType, CustomDataType,, &gt;</title>
<!-- Node1 -->
<g id="node1" class="node">
<title>Node1</title>
<g id="a_node1"><a xlink:title="A plugin state class that instantiates the appropriate ParameterList and custom serializable object a...">
<polygon fill="#bfbfbf" stroke="black" points="0,-0.5 0,-30.5 189,-30.5 189,-0.5 0,-0.5"/>
<text text-anchor="start" x="8" y="-18.5" font-family="Helvetica,sans-Serif" font-size="10.00">lemons::plugin::CustomState</text>
<text text-anchor="middle" x="94.5" y="-7.5" font-family="Helvetica,sans-Serif" font-size="10.00">&lt; ParamListType, CustomDataType,, &gt;</text>
</a>
</g>
</g>
<!-- Node2 -->
<g id="node2" class="node">
<title>Node2</title>
<g id="a_node2"><a xlink:href="classlemons_1_1plugin_1_1StateBase.html" target="_top" xlink:title="Base class for a plugin&#39;s state.">
<polygon fill="none" stroke="black" points="28,-67.5 28,-86.5 161,-86.5 161,-67.5 28,-67.5"/>
<text text-anchor="middle" x="94.5" y="-74.5" font-family="Helvetica,sans-Serif" font-size="10.00">lemons::plugin::StateBase</text>
</a>
</g>
</g>
<!-- Node2&#45;&gt;Node1 -->
<g id="edge1" class="edge">
<title>Node2&#45;&gt;Node1</title>
<path fill="none" stroke="midnightblue" d="M94.5,-57.23C94.5,-48.59 94.5,-38.5 94.5,-30.52"/>
<polygon fill="midnightblue" stroke="midnightblue" points="91,-57.48 94.5,-67.48 98,-57.48 91,-57.48"/>
</g>
<!-- Node3 -->
<g id="node3" class="node">
<title>Node3</title>
<g id="a_node3"><a xlink:href="structlemons_1_1SerializableData.html" target="_top" xlink:title="Base class for any C++ object that needs to be serialized to binary and back.">
<polygon fill="none" stroke="black" points="31,-123.5 31,-142.5 158,-142.5 158,-123.5 31,-123.5"/>
<text text-anchor="middle" x="94.5" y="-130.5" font-family="Helvetica,sans-Serif" font-size="10.00">lemons::SerializableData</text>
</a>
</g>
</g>
<!-- Node3&#45;&gt;Node2 -->
<g id="edge2" class="edge">
<title>Node3&#45;&gt;Node2</title>
<path fill="none" stroke="midnightblue" d="M94.5,-112.8C94.5,-103.91 94.5,-93.78 94.5,-86.75"/>
<polygon fill="midnightblue" stroke="midnightblue" points="91,-113.08 94.5,-123.08 98,-113.08 91,-113.08"/>
</g>
</g>
</svg>
