<?xml version="1.0" encoding="UTF-8" standalone="no"?>
<!DOCTYPE svg PUBLIC "-//W3C//DTD SVG 1.1//EN"
 "http://www.w3.org/Graphics/SVG/1.1/DTD/svg11.dtd">
<!-- Generated by graphviz version 2.43.0 (0)
 -->
<!-- Title: lemons::dsp::FX::AudioEffect&lt; SampleType &gt; Pages: 1 -->
<svg width="787pt" height="274pt"
 viewBox="0.00 0.00 787.00 273.50" xmlns="http://www.w3.org/2000/svg" xmlns:xlink="http://www.w3.org/1999/xlink">
<g id="graph0" class="graph" transform="scale(1 1) rotate(0) translate(4 269.5)">
<title>lemons::dsp::FX::AudioEffect&lt; SampleType &gt;</title>
<!-- Node1 -->
<g id="node1" class="node">
<title>Node1</title>
<g id="a_node1"><a xlink:title=" ">
<polygon fill="#bfbfbf" stroke="black" points="0,-112 0,-142 156,-142 156,-112 0,-112"/>
<text text-anchor="start" x="8" y="-130" font-family="Helvetica,sans-Serif" font-size="10.00">lemons::dsp::FX::AudioEffect</text>
<text text-anchor="middle" x="78" y="-119" font-family="Helvetica,sans-Serif" font-size="10.00">&lt; SampleType &gt;</text>
</a>
</g>
</g>
<!-- Node2 -->
<g id="node2" class="node">
<title>Node2</title>
<g id="a_node2"><a xlink:href="classlemons_1_1dsp_1_1FX_1_1EQ.html" target="_top" xlink:title=" ">
<polygon fill="none" stroke="black" points="226,-235 226,-265 340,-265 340,-235 226,-235"/>
<text text-anchor="start" x="234" y="-253" font-family="Helvetica,sans-Serif" font-size="10.00">lemons::dsp::FX::EQ</text>
<text text-anchor="middle" x="283" y="-242" font-family="Helvetica,sans-Serif" font-size="10.00">&lt; SampleType &gt;</text>
</a>
</g>
</g>
<!-- Node1&#45;&gt;Node2 -->
<g id="edge1" class="edge">
<title>Node1&#45;&gt;Node2</title>
<path fill="none" stroke="midnightblue" d="M98.82,-149.61C119.8,-172.17 154.95,-206.23 192,-226 202.42,-231.56 214.21,-235.89 225.75,-239.26"/>
<polygon fill="midnightblue" stroke="midnightblue" points="101.34,-147.18 92.01,-142.15 96.17,-151.9 101.34,-147.18"/>
</g>
<!-- Node3 -->
<g id="node3" class="node">
<title>Node3</title>
<g id="a_node3"><a xlink:href="classlemons_1_1dsp_1_1FX_1_1Filter.html" target="_top" xlink:title=" ">
<polygon fill="none" stroke="black" points="220.5,-186 220.5,-216 345.5,-216 345.5,-186 220.5,-186"/>
<text text-anchor="start" x="228.5" y="-204" font-family="Helvetica,sans-Serif" font-size="10.00">lemons::dsp::FX::Filter</text>
<text text-anchor="middle" x="283" y="-193" font-family="Helvetica,sans-Serif" font-size="10.00">&lt; SampleType &gt;</text>
</a>
</g>
</g>
<!-- Node1&#45;&gt;Node3 -->
<g id="edge2" class="edge">
<title>Node1&#45;&gt;Node3</title>
<path fill="none" stroke="midnightblue" d="M118.75,-146.41C140.13,-156.38 167.15,-168.25 192,-177 201,-180.17 210.63,-183.15 220.13,-185.87"/>
<polygon fill="midnightblue" stroke="midnightblue" points="120.19,-143.22 109.65,-142.12 117.2,-149.55 120.19,-143.22"/>
</g>
<!-- Node4 -->
<g id="node4" class="node">
<title>Node4</title>
<g id="a_node4"><a xlink:href="structlemons_1_1dsp_1_1FX_1_1SidechainableAudioEffect.html" target="_top" xlink:title=" ">
<polygon fill="none" stroke="black" points="198.5,-137 198.5,-167 367.5,-167 367.5,-137 198.5,-137"/>
<text text-anchor="start" x="206.5" y="-155" font-family="Helvetica,sans-Serif" font-size="10.00">lemons::dsp::FX::Sidechainable</text>
<text text-anchor="middle" x="283" y="-144" font-family="Helvetica,sans-Serif" font-size="10.00">AudioEffect&lt; SampleType &gt;</text>
</a>
</g>
</g>
<!-- Node1&#45;&gt;Node4 -->
<g id="edge3" class="edge">
<title>Node1&#45;&gt;Node4</title>
<path fill="none" stroke="midnightblue" d="M166.16,-137.73C176.8,-139.04 187.65,-140.38 198.24,-141.69"/>
<polygon fill="midnightblue" stroke="midnightblue" points="166.39,-134.24 156.04,-136.49 165.53,-141.18 166.39,-134.24"/>
</g>
<!-- Node11 -->
<g id="node11" class="node">
<title>Node11</title>
<g id="a_node11"><a xlink:href="classlemons_1_1dsp_1_1FX_1_1SmoothedGain.html" target="_top" xlink:title=" ">
<polygon fill="none" stroke="black" points="208,-88 208,-118 358,-118 358,-88 208,-88"/>
<text text-anchor="start" x="216" y="-106" font-family="Helvetica,sans-Serif" font-size="10.00">lemons::dsp::FX::Smoothed</text>
<text text-anchor="middle" x="283" y="-95" font-family="Helvetica,sans-Serif" font-size="10.00">Gain&lt; SampleType &gt;</text>
</a>
</g>
</g>
<!-- Node1&#45;&gt;Node11 -->
<g id="edge10" class="edge">
<title>Node1&#45;&gt;Node11</title>
<path fill="none" stroke="midnightblue" d="M166.05,-116.71C179.92,-115.07 194.16,-113.38 207.7,-111.78"/>
<polygon fill="midnightblue" stroke="midnightblue" points="165.55,-113.24 156.04,-117.89 166.38,-120.19 165.55,-113.24"/>
</g>
<!-- Node12 -->
<g id="node12" class="node">
<title>Node12</title>
<g id="a_node12"><a xlink:href="classlemons_1_1dsp_1_1FX_1_1StereoPanner.html" target="_top" xlink:title=" ">
<polygon fill="none" stroke="black" points="200.5,-39 200.5,-69 365.5,-69 365.5,-39 200.5,-39"/>
<text text-anchor="start" x="208.5" y="-57" font-family="Helvetica,sans-Serif" font-size="10.00">lemons::dsp::FX::StereoPanner</text>
<text text-anchor="middle" x="283" y="-46" font-family="Helvetica,sans-Serif" font-size="10.00">&lt; SampleType &gt;</text>
</a>
</g>
</g>
<!-- Node1&#45;&gt;Node12 -->
<g id="edge11" class="edge">
<title>Node1&#45;&gt;Node12</title>
<path fill="none" stroke="midnightblue" d="M120.52,-107.82C141.66,-98.45 167.92,-87.42 192,-79 202.1,-75.47 212.98,-72.1 223.56,-69.03"/>
<polygon fill="midnightblue" stroke="midnightblue" points="118.89,-104.72 111.19,-111.99 121.75,-111.11 118.89,-104.72"/>
</g>
<!-- Node13 -->
<g id="node13" class="node">
<title>Node13</title>
<g id="a_node13"><a xlink:href="classlemons_1_1dsp_1_1FX_1_1SmoothedGain.html" target="_top" xlink:title=" ">
<polygon fill="none" stroke="black" points="192,-0.5 192,-19.5 374,-19.5 374,-0.5 192,-0.5"/>
<text text-anchor="middle" x="283" y="-7.5" font-family="Helvetica,sans-Serif" font-size="10.00">SmoothedGain&lt; SampleType, 1 &gt;</text>
</a>
</g>
</g>
<!-- Node1&#45;&gt;Node13 -->
<g id="edge12" class="edge">
<title>Node1&#45;&gt;Node13</title>
<path fill="none" stroke="midnightblue" d="M98.75,-104.54C119.67,-82.2 154.77,-48.63 192,-30 200.73,-25.63 210.41,-22.21 220.09,-19.53"/>
<polygon fill="midnightblue" stroke="midnightblue" points="96.15,-102.2 91.96,-111.94 101.3,-106.94 96.15,-102.2"/>
</g>
<!-- Node5 -->
<g id="node5" class="node">
<title>Node5</title>
<g id="a_node5"><a xlink:href="structlemons_1_1dsp_1_1FX_1_1LevelReportingAudioEffect.html" target="_top" xlink:title=" ">
<polygon fill="none" stroke="black" points="410,-137 410,-167 584,-167 584,-137 410,-137"/>
<text text-anchor="start" x="418" y="-155" font-family="Helvetica,sans-Serif" font-size="10.00">lemons::dsp::FX::LevelReporting</text>
<text text-anchor="middle" x="497" y="-144" font-family="Helvetica,sans-Serif" font-size="10.00">AudioEffect&lt; SampleType &gt;</text>
</a>
</g>
</g>
<!-- Node4&#45;&gt;Node5 -->
<g id="edge4" class="edge">
<title>Node4&#45;&gt;Node5</title>
<path fill="none" stroke="midnightblue" d="M377.87,-152C388.46,-152 399.21,-152 409.69,-152"/>
<polygon fill="midnightblue" stroke="midnightblue" points="377.79,-148.5 367.79,-152 377.79,-155.5 377.79,-148.5"/>
</g>
<!-- Node6 -->
<g id="node6" class="node">
<title>Node6</title>
<g id="a_node6"><a xlink:href="classlemons_1_1dsp_1_1FX_1_1Compressor.html" target="_top" xlink:title=" ">
<polygon fill="none" stroke="black" points="620,-235 620,-265 779,-265 779,-235 620,-235"/>
<text text-anchor="start" x="628" y="-253" font-family="Helvetica,sans-Serif" font-size="10.00">lemons::dsp::FX::Compressor</text>
<text text-anchor="middle" x="699.5" y="-242" font-family="Helvetica,sans-Serif" font-size="10.00">&lt; SampleType &gt;</text>
</a>
</g>
</g>
<!-- Node5&#45;&gt;Node6 -->
<g id="edge5" class="edge">
<title>Node5&#45;&gt;Node6</title>
<path fill="none" stroke="midnightblue" d="M527.46,-172.74C551.49,-188.94 586.77,-211.12 620,-226 627.28,-229.26 635.14,-232.24 642.96,-234.91"/>
<polygon fill="midnightblue" stroke="midnightblue" points="529.38,-169.81 519.15,-167.07 525.44,-175.6 529.38,-169.81"/>
</g>
<!-- Node7 -->
<g id="node7" class="node">
<title>Node7</title>
<g id="a_node7"><a xlink:href="classlemons_1_1dsp_1_1FX_1_1DeEsser.html" target="_top" xlink:title=" ">
<polygon fill="none" stroke="black" points="629.5,-186 629.5,-216 769.5,-216 769.5,-186 629.5,-186"/>
<text text-anchor="start" x="637.5" y="-204" font-family="Helvetica,sans-Serif" font-size="10.00">lemons::dsp::FX::DeEsser</text>
<text text-anchor="middle" x="699.5" y="-193" font-family="Helvetica,sans-Serif" font-size="10.00">&lt; SampleType &gt;</text>
</a>
</g>
</g>
<!-- Node5&#45;&gt;Node7 -->
<g id="edge6" class="edge">
<title>Node5&#45;&gt;Node7</title>
<path fill="none" stroke="midnightblue" d="M569.51,-169.48C591.61,-174.88 615.74,-180.78 637.1,-185.99"/>
<polygon fill="midnightblue" stroke="midnightblue" points="570.06,-166.01 559.52,-167.03 568.4,-172.81 570.06,-166.01"/>
</g>
<!-- Node8 -->
<g id="node8" class="node">
<title>Node8</title>
<g id="a_node8"><a xlink:href="classlemons_1_1dsp_1_1FX_1_1Delay.html" target="_top" xlink:title=" ">
<polygon fill="none" stroke="black" points="635,-137 635,-167 764,-167 764,-137 635,-137"/>
<text text-anchor="start" x="643" y="-155" font-family="Helvetica,sans-Serif" font-size="10.00">lemons::dsp::FX::Delay</text>
<text text-anchor="middle" x="699.5" y="-144" font-family="Helvetica,sans-Serif" font-size="10.00">&lt; SampleType &gt;</text>
</a>
</g>
</g>
<!-- Node5&#45;&gt;Node8 -->
<g id="edge7" class="edge">
<title>Node5&#45;&gt;Node8</title>
<path fill="none" stroke="midnightblue" d="M594.59,-152C608.24,-152 621.97,-152 634.79,-152"/>
<polygon fill="midnightblue" stroke="midnightblue" points="594.19,-148.5 584.19,-152 594.19,-155.5 594.19,-148.5"/>
</g>
<!-- Node9 -->
<g id="node9" class="node">
<title>Node9</title>
<g id="a_node9"><a xlink:href="classlemons_1_1dsp_1_1FX_1_1Limiter.html" target="_top" xlink:title=" ">
<polygon fill="none" stroke="black" points="632,-88 632,-118 767,-118 767,-88 632,-88"/>
<text text-anchor="start" x="640" y="-106" font-family="Helvetica,sans-Serif" font-size="10.00">lemons::dsp::FX::Limiter</text>
<text text-anchor="middle" x="699.5" y="-95" font-family="Helvetica,sans-Serif" font-size="10.00">&lt; SampleType &gt;</text>
</a>
</g>
</g>
<!-- Node5&#45;&gt;Node9 -->
<g id="edge8" class="edge">
<title>Node5&#45;&gt;Node9</title>
<path fill="none" stroke="midnightblue" d="M569.51,-134.52C591.61,-129.12 615.74,-123.22 637.1,-118.01"/>
<polygon fill="midnightblue" stroke="midnightblue" points="568.4,-131.19 559.52,-136.97 570.06,-137.99 568.4,-131.19"/>
</g>
<!-- Node10 -->
<g id="node10" class="node">
<title>Node10</title>
<g id="a_node10"><a xlink:href="classlemons_1_1dsp_1_1FX_1_1NoiseGate.html" target="_top" xlink:title=" ">
<polygon fill="none" stroke="black" points="623.5,-39 623.5,-69 775.5,-69 775.5,-39 623.5,-39"/>
<text text-anchor="start" x="631.5" y="-57" font-family="Helvetica,sans-Serif" font-size="10.00">lemons::dsp::FX::NoiseGate</text>
<text text-anchor="middle" x="699.5" y="-46" font-family="Helvetica,sans-Serif" font-size="10.00">&lt; SampleType &gt;</text>
</a>
</g>
</g>
<!-- Node5&#45;&gt;Node10 -->
<g id="edge9" class="edge">
<title>Node5&#45;&gt;Node10</title>
<path fill="none" stroke="midnightblue" d="M527.99,-131.38C552.06,-115.5 587.14,-93.82 620,-79 628.08,-75.35 636.86,-72.01 645.51,-69.03"/>
<polygon fill="midnightblue" stroke="midnightblue" points="526.03,-128.48 519.65,-136.94 529.91,-134.3 526.03,-128.48"/>
</g>
</g>
</svg>
