<?xml version="1.0" encoding="UTF-8" standalone="no"?>
<!DOCTYPE svg PUBLIC "-//W3C//DTD SVG 1.1//EN"
 "http://www.w3.org/Graphics/SVG/1.1/DTD/svg11.dtd">
<!-- Generated by graphviz version 2.43.0 (0)
 -->
<!-- Title: lemons::dsp::osc::Oscillator&lt; SampleType &gt; Pages: 1 -->
<svg width="347pt" height="235pt"
 viewBox="0.00 0.00 347.00 235.00" xmlns="http://www.w3.org/2000/svg" xmlns:xlink="http://www.w3.org/1999/xlink">
<g id="graph0" class="graph" transform="scale(1 1) rotate(0) translate(4 231)">
<title>lemons::dsp::osc::Oscillator&lt; SampleType &gt;</title>
<!-- Node1 -->
<g id="node1" class="node">
<title>Node1</title>
<g id="a_node1"><a xlink:title=" ">
<polygon fill="#bfbfbf" stroke="black" points="0,-98.5 0,-128.5 151,-128.5 151,-98.5 0,-98.5"/>
<text text-anchor="start" x="8" y="-116.5" font-family="Helvetica,sans-Serif" font-size="10.00">lemons::dsp::osc::Oscillator</text>
<text text-anchor="middle" x="75.5" y="-105.5" font-family="Helvetica,sans-Serif" font-size="10.00">&lt; SampleType &gt;</text>
</a>
</g>
</g>
<!-- Node2 -->
<g id="node2" class="node">
<title>Node2</title>
<g id="a_node2"><a xlink:href="structlemons_1_1dsp_1_1osc_1_1Saw.html" target="_top" xlink:title=" ">
<polygon fill="none" stroke="black" points="200.5,-196.5 200.5,-226.5 325.5,-226.5 325.5,-196.5 200.5,-196.5"/>
<text text-anchor="start" x="208.5" y="-214.5" font-family="Helvetica,sans-Serif" font-size="10.00">lemons::dsp::osc::Saw</text>
<text text-anchor="middle" x="263" y="-203.5" font-family="Helvetica,sans-Serif" font-size="10.00">&lt; SampleType &gt;</text>
</a>
</g>
</g>
<!-- Node1&#45;&gt;Node2 -->
<g id="edge1" class="edge">
<title>Node1&#45;&gt;Node2</title>
<path fill="none" stroke="midnightblue" d="M103.51,-134.74C125.12,-150.93 156.71,-172.87 187,-187.5 193.77,-190.77 201.09,-193.74 208.42,-196.39"/>
<polygon fill="midnightblue" stroke="midnightblue" points="105.54,-131.89 95.46,-128.62 101.3,-137.46 105.54,-131.89"/>
</g>
<!-- Node3 -->
<g id="node3" class="node">
<title>Node3</title>
<g id="a_node3"><a xlink:href="structlemons_1_1dsp_1_1osc_1_1Sine.html" target="_top" xlink:title=" ">
<polygon fill="none" stroke="black" points="200.5,-147.5 200.5,-177.5 325.5,-177.5 325.5,-147.5 200.5,-147.5"/>
<text text-anchor="start" x="208.5" y="-165.5" font-family="Helvetica,sans-Serif" font-size="10.00">lemons::dsp::osc::Sine</text>
<text text-anchor="middle" x="263" y="-154.5" font-family="Helvetica,sans-Serif" font-size="10.00">&lt; SampleType &gt;</text>
</a>
</g>
</g>
<!-- Node1&#45;&gt;Node3 -->
<g id="edge2" class="edge">
<title>Node1&#45;&gt;Node3</title>
<path fill="none" stroke="midnightblue" d="M143.22,-131.12C163.51,-136.48 185.61,-142.32 205.19,-147.49"/>
<polygon fill="midnightblue" stroke="midnightblue" points="143.98,-127.7 133.42,-128.53 142.19,-134.47 143.98,-127.7"/>
</g>
<!-- Node4 -->
<g id="node4" class="node">
<title>Node4</title>
<g id="a_node4"><a xlink:href="structlemons_1_1dsp_1_1osc_1_1Square.html" target="_top" xlink:title=" ">
<polygon fill="none" stroke="black" points="194,-98.5 194,-128.5 332,-128.5 332,-98.5 194,-98.5"/>
<text text-anchor="start" x="202" y="-116.5" font-family="Helvetica,sans-Serif" font-size="10.00">lemons::dsp::osc::Square</text>
<text text-anchor="middle" x="263" y="-105.5" font-family="Helvetica,sans-Serif" font-size="10.00">&lt; SampleType &gt;</text>
</a>
</g>
</g>
<!-- Node1&#45;&gt;Node4 -->
<g id="edge3" class="edge">
<title>Node1&#45;&gt;Node4</title>
<path fill="none" stroke="midnightblue" d="M161.47,-113.5C172.3,-113.5 183.28,-113.5 193.8,-113.5"/>
<polygon fill="midnightblue" stroke="midnightblue" points="161.15,-110 151.15,-113.5 161.15,-117 161.15,-110"/>
</g>
<!-- Node5 -->
<g id="node5" class="node">
<title>Node5</title>
<g id="a_node5"><a xlink:href="classlemons_1_1dsp_1_1osc_1_1SuperSaw.html" target="_top" xlink:title=" ">
<polygon fill="none" stroke="black" points="187,-49.5 187,-79.5 339,-79.5 339,-49.5 187,-49.5"/>
<text text-anchor="start" x="195" y="-67.5" font-family="Helvetica,sans-Serif" font-size="10.00">lemons::dsp::osc::SuperSaw</text>
<text text-anchor="middle" x="263" y="-56.5" font-family="Helvetica,sans-Serif" font-size="10.00">&lt; SampleType &gt;</text>
</a>
</g>
</g>
<!-- Node1&#45;&gt;Node5 -->
<g id="edge4" class="edge">
<title>Node1&#45;&gt;Node5</title>
<path fill="none" stroke="midnightblue" d="M143.22,-95.88C163.51,-90.52 185.61,-84.68 205.19,-79.51"/>
<polygon fill="midnightblue" stroke="midnightblue" points="142.19,-92.53 133.42,-98.47 143.98,-99.3 142.19,-92.53"/>
</g>
<!-- Node6 -->
<g id="node6" class="node">
<title>Node6</title>
<g id="a_node6"><a xlink:href="structlemons_1_1dsp_1_1osc_1_1Triangle.html" target="_top" xlink:title=" ">
<polygon fill="none" stroke="black" points="191.5,-0.5 191.5,-30.5 334.5,-30.5 334.5,-0.5 191.5,-0.5"/>
<text text-anchor="start" x="199.5" y="-18.5" font-family="Helvetica,sans-Serif" font-size="10.00">lemons::dsp::osc::Triangle</text>
<text text-anchor="middle" x="263" y="-7.5" font-family="Helvetica,sans-Serif" font-size="10.00">&lt; SampleType &gt;</text>
</a>
</g>
</g>
<!-- Node1&#45;&gt;Node6 -->
<g id="edge5" class="edge">
<title>Node1&#45;&gt;Node6</title>
<path fill="none" stroke="midnightblue" d="M104,-92.38C125.65,-76.5 157.07,-55.06 187,-40.5 194.53,-36.84 202.73,-33.5 210.85,-30.54"/>
<polygon fill="midnightblue" stroke="midnightblue" points="101.86,-89.61 95.92,-98.38 106.03,-95.23 101.86,-89.61"/>
</g>
</g>
</svg>
