<?xml version="1.0" encoding="UTF-8" standalone="no"?>
<!DOCTYPE svg PUBLIC "-//W3C//DTD SVG 1.1//EN"
 "http://www.w3.org/Graphics/SVG/1.1/DTD/svg11.dtd">
<!-- Generated by graphviz version 2.43.0 (0)
 -->
<!-- Title: lemons::dsp::FX::AudioEffect&lt; SampleType &gt; Pages: 1 -->
<svg width="787pt" height="323pt"
 viewBox="0.00 0.00 787.00 322.50" xmlns="http://www.w3.org/2000/svg" xmlns:xlink="http://www.w3.org/1999/xlink">
<g id="graph0" class="graph" transform="scale(1 1) rotate(0) translate(4 318.5)">
<title>lemons::dsp::FX::AudioEffect&lt; SampleType &gt;</title>
<!-- Node1 -->
<g id="node1" class="node">
<title>Node1</title>
<g id="a_node1"><a xlink:title=" ">
<polygon fill="#bfbfbf" stroke="black" points="0,-137 0,-167 156,-167 156,-137 0,-137"/>
<text text-anchor="start" x="8" y="-155" font-family="Helvetica,sans-Serif" font-size="10.00">lemons::dsp::FX::AudioEffect</text>
<text text-anchor="middle" x="78" y="-144" font-family="Helvetica,sans-Serif" font-size="10.00">&lt; SampleType &gt;</text>
</a>
</g>
</g>
<!-- Node2 -->
<g id="node2" class="node">
<title>Node2</title>
<g id="a_node2"><a xlink:href="classlemons_1_1dsp_1_1FX_1_1EQ.html" target="_top" xlink:title=" ">
<polygon fill="none" stroke="black" points="226,-284 226,-314 340,-314 340,-284 226,-284"/>
<text text-anchor="start" x="234" y="-302" font-family="Helvetica,sans-Serif" font-size="10.00">lemons::dsp::FX::EQ</text>
<text text-anchor="middle" x="283" y="-291" font-family="Helvetica,sans-Serif" font-size="10.00">&lt; SampleType &gt;</text>
</a>
</g>
</g>
<!-- Node1&#45;&gt;Node2 -->
<g id="edge1" class="edge">
<title>Node1&#45;&gt;Node2</title>
<path fill="none" stroke="midnightblue" d="M94.22,-175.41C113.6,-203.32 149.69,-249.4 192,-275 202.24,-281.2 214.08,-285.81 225.74,-289.25"/>
<polygon fill="midnightblue" stroke="midnightblue" points="97.05,-173.34 88.53,-167.03 91.26,-177.27 97.05,-173.34"/>
</g>
<!-- Node3 -->
<g id="node3" class="node">
<title>Node3</title>
<g id="a_node3"><a xlink:href="classlemons_1_1dsp_1_1FX_1_1Filter.html" target="_top" xlink:title=" ">
<polygon fill="none" stroke="black" points="220.5,-235 220.5,-265 345.5,-265 345.5,-235 220.5,-235"/>
<text text-anchor="start" x="228.5" y="-253" font-family="Helvetica,sans-Serif" font-size="10.00">lemons::dsp::FX::Filter</text>
<text text-anchor="middle" x="283" y="-242" font-family="Helvetica,sans-Serif" font-size="10.00">&lt; SampleType &gt;</text>
</a>
</g>
</g>
<!-- Node1&#45;&gt;Node3 -->
<g id="edge2" class="edge">
<title>Node1&#45;&gt;Node3</title>
<path fill="none" stroke="midnightblue" d="M106.1,-173.33C128.14,-189.76 160.62,-211.98 192,-226 200.86,-229.96 210.51,-233.38 220.09,-236.3"/>
<polygon fill="midnightblue" stroke="midnightblue" points="107.99,-170.37 97.9,-167.12 103.76,-175.95 107.99,-170.37"/>
</g>
<!-- Node4 -->
<g id="node4" class="node">
<title>Node4</title>
<g id="a_node4"><a xlink:href="classlemons_1_1dsp_1_1FX_1_1Saturator.html" target="_top" xlink:title=" ">
<polygon fill="none" stroke="black" points="210,-186 210,-216 356,-216 356,-186 210,-186"/>
<text text-anchor="start" x="218" y="-204" font-family="Helvetica,sans-Serif" font-size="10.00">lemons::dsp::FX::Saturator</text>
<text text-anchor="middle" x="283" y="-193" font-family="Helvetica,sans-Serif" font-size="10.00">&lt; SampleType &gt;</text>
</a>
</g>
</g>
<!-- Node1&#45;&gt;Node4 -->
<g id="edge3" class="edge">
<title>Node1&#45;&gt;Node4</title>
<path fill="none" stroke="#8b1a1a" d="M151.1,-169.4C173.56,-174.82 198.12,-180.75 219.83,-185.99"/>
<polygon fill="#8b1a1a" stroke="#8b1a1a" points="151.83,-165.98 141.29,-167.03 150.19,-172.78 151.83,-165.98"/>
</g>
<!-- Node5 -->
<g id="node5" class="node">
<title>Node5</title>
<g id="a_node5"><a xlink:href="structlemons_1_1dsp_1_1FX_1_1SidechainableAudioEffect.html" target="_top" xlink:title=" ">
<polygon fill="none" stroke="black" points="198.5,-137 198.5,-167 367.5,-167 367.5,-137 198.5,-137"/>
<text text-anchor="start" x="206.5" y="-155" font-family="Helvetica,sans-Serif" font-size="10.00">lemons::dsp::FX::Sidechainable</text>
<text text-anchor="middle" x="283" y="-144" font-family="Helvetica,sans-Serif" font-size="10.00">AudioEffect&lt; SampleType &gt;</text>
</a>
</g>
</g>
<!-- Node1&#45;&gt;Node5 -->
<g id="edge4" class="edge">
<title>Node1&#45;&gt;Node5</title>
<path fill="none" stroke="midnightblue" d="M166.16,-152C176.8,-152 187.65,-152 198.24,-152"/>
<polygon fill="midnightblue" stroke="midnightblue" points="166.04,-148.5 156.04,-152 166.04,-155.5 166.04,-148.5"/>
</g>
<!-- Node12 -->
<g id="node12" class="node">
<title>Node12</title>
<g id="a_node12"><a xlink:href="classlemons_1_1dsp_1_1FX_1_1SmoothedGain.html" target="_top" xlink:title=" ">
<polygon fill="none" stroke="black" points="208,-88 208,-118 358,-118 358,-88 208,-88"/>
<text text-anchor="start" x="216" y="-106" font-family="Helvetica,sans-Serif" font-size="10.00">lemons::dsp::FX::Smoothed</text>
<text text-anchor="middle" x="283" y="-95" font-family="Helvetica,sans-Serif" font-size="10.00">Gain&lt; SampleType &gt;</text>
</a>
</g>
</g>
<!-- Node1&#45;&gt;Node12 -->
<g id="edge11" class="edge">
<title>Node1&#45;&gt;Node12</title>
<path fill="none" stroke="midnightblue" d="M151.1,-134.6C173.56,-129.18 198.12,-123.25 219.83,-118.01"/>
<polygon fill="midnightblue" stroke="midnightblue" points="150.19,-131.22 141.29,-136.97 151.83,-138.02 150.19,-131.22"/>
</g>
<!-- Node13 -->
<g id="node13" class="node">
<title>Node13</title>
<g id="a_node13"><a xlink:href="classlemons_1_1dsp_1_1FX_1_1StereoPanner.html" target="_top" xlink:title=" ">
<polygon fill="none" stroke="black" points="200.5,-39 200.5,-69 365.5,-69 365.5,-39 200.5,-39"/>
<text text-anchor="start" x="208.5" y="-57" font-family="Helvetica,sans-Serif" font-size="10.00">lemons::dsp::FX::StereoPanner</text>
<text text-anchor="middle" x="283" y="-46" font-family="Helvetica,sans-Serif" font-size="10.00">&lt; SampleType &gt;</text>
</a>
</g>
</g>
<!-- Node1&#45;&gt;Node13 -->
<g id="edge12" class="edge">
<title>Node1&#45;&gt;Node13</title>
<path fill="none" stroke="midnightblue" d="M106.58,-130.78C128.66,-114.65 160.97,-92.94 192,-79 200.28,-75.28 209.25,-71.99 218.2,-69.12"/>
<polygon fill="midnightblue" stroke="midnightblue" points="104.31,-128.11 98.36,-136.87 108.48,-133.73 104.31,-128.11"/>
</g>
<!-- Node14 -->
<g id="node14" class="node">
<title>Node14</title>
<g id="a_node14"><a xlink:href="classlemons_1_1dsp_1_1FX_1_1SmoothedGain.html" target="_top" xlink:title=" ">
<polygon fill="none" stroke="black" points="192,-0.5 192,-19.5 374,-19.5 374,-0.5 192,-0.5"/>
<text text-anchor="middle" x="283" y="-7.5" font-family="Helvetica,sans-Serif" font-size="10.00">SmoothedGain&lt; SampleType, 1 &gt;</text>
</a>
</g>
</g>
<!-- Node1&#45;&gt;Node14 -->
<g id="edge13" class="edge">
<title>Node1&#45;&gt;Node14</title>
<path fill="none" stroke="midnightblue" d="M94.09,-128.49C113.34,-100.51 149.3,-54.51 192,-30 199.63,-25.62 208.14,-22.19 216.8,-19.52"/>
<polygon fill="midnightblue" stroke="midnightblue" points="91.12,-126.64 88.45,-136.89 96.93,-130.54 91.12,-126.64"/>
</g>
<!-- Node6 -->
<g id="node6" class="node">
<title>Node6</title>
<g id="a_node6"><a xlink:href="structlemons_1_1dsp_1_1FX_1_1LevelReportingAudioEffect.html" target="_top" xlink:title=" ">
<polygon fill="none" stroke="black" points="410,-137 410,-167 584,-167 584,-137 410,-137"/>
<text text-anchor="start" x="418" y="-155" font-family="Helvetica,sans-Serif" font-size="10.00">lemons::dsp::FX::LevelReporting</text>
<text text-anchor="middle" x="497" y="-144" font-family="Helvetica,sans-Serif" font-size="10.00">AudioEffect&lt; SampleType &gt;</text>
</a>
</g>
</g>
<!-- Node5&#45;&gt;Node6 -->
<g id="edge5" class="edge">
<title>Node5&#45;&gt;Node6</title>
<path fill="none" stroke="midnightblue" d="M377.87,-152C388.46,-152 399.21,-152 409.69,-152"/>
<polygon fill="midnightblue" stroke="midnightblue" points="377.79,-148.5 367.79,-152 377.79,-155.5 377.79,-148.5"/>
</g>
<!-- Node7 -->
<g id="node7" class="node">
<title>Node7</title>
<g id="a_node7"><a xlink:href="classlemons_1_1dsp_1_1FX_1_1Compressor.html" target="_top" xlink:title=" ">
<polygon fill="none" stroke="black" points="620,-235 620,-265 779,-265 779,-235 620,-235"/>
<text text-anchor="start" x="628" y="-253" font-family="Helvetica,sans-Serif" font-size="10.00">lemons::dsp::FX::Compressor</text>
<text text-anchor="middle" x="699.5" y="-242" font-family="Helvetica,sans-Serif" font-size="10.00">&lt; SampleType &gt;</text>
</a>
</g>
</g>
<!-- Node6&#45;&gt;Node7 -->
<g id="edge6" class="edge">
<title>Node6&#45;&gt;Node7</title>
<path fill="none" stroke="midnightblue" d="M527.46,-172.74C551.49,-188.94 586.77,-211.12 620,-226 627.28,-229.26 635.14,-232.24 642.96,-234.91"/>
<polygon fill="midnightblue" stroke="midnightblue" points="529.38,-169.81 519.15,-167.07 525.44,-175.6 529.38,-169.81"/>
</g>
<!-- Node8 -->
<g id="node8" class="node">
<title>Node8</title>
<g id="a_node8"><a xlink:href="classlemons_1_1dsp_1_1FX_1_1DeEsser.html" target="_top" xlink:title=" ">
<polygon fill="none" stroke="black" points="629.5,-186 629.5,-216 769.5,-216 769.5,-186 629.5,-186"/>
<text text-anchor="start" x="637.5" y="-204" font-family="Helvetica,sans-Serif" font-size="10.00">lemons::dsp::FX::DeEsser</text>
<text text-anchor="middle" x="699.5" y="-193" font-family="Helvetica,sans-Serif" font-size="10.00">&lt; SampleType &gt;</text>
</a>
</g>
</g>
<!-- Node6&#45;&gt;Node8 -->
<g id="edge7" class="edge">
<title>Node6&#45;&gt;Node8</title>
<path fill="none" stroke="midnightblue" d="M569.51,-169.48C591.61,-174.88 615.74,-180.78 637.1,-185.99"/>
<polygon fill="midnightblue" stroke="midnightblue" points="570.06,-166.01 559.52,-167.03 568.4,-172.81 570.06,-166.01"/>
</g>
<!-- Node9 -->
<g id="node9" class="node">
<title>Node9</title>
<g id="a_node9"><a xlink:href="classlemons_1_1dsp_1_1FX_1_1Delay.html" target="_top" xlink:title=" ">
<polygon fill="none" stroke="black" points="635,-137 635,-167 764,-167 764,-137 635,-137"/>
<text text-anchor="start" x="643" y="-155" font-family="Helvetica,sans-Serif" font-size="10.00">lemons::dsp::FX::Delay</text>
<text text-anchor="middle" x="699.5" y="-144" font-family="Helvetica,sans-Serif" font-size="10.00">&lt; SampleType &gt;</text>
</a>
</g>
</g>
<!-- Node6&#45;&gt;Node9 -->
<g id="edge8" class="edge">
<title>Node6&#45;&gt;Node9</title>
<path fill="none" stroke="midnightblue" d="M594.59,-152C608.24,-152 621.97,-152 634.79,-152"/>
<polygon fill="midnightblue" stroke="midnightblue" points="594.19,-148.5 584.19,-152 594.19,-155.5 594.19,-148.5"/>
</g>
<!-- Node10 -->
<g id="node10" class="node">
<title>Node10</title>
<g id="a_node10"><a xlink:href="classlemons_1_1dsp_1_1FX_1_1Limiter.html" target="_top" xlink:title=" ">
<polygon fill="none" stroke="black" points="632,-88 632,-118 767,-118 767,-88 632,-88"/>
<text text-anchor="start" x="640" y="-106" font-family="Helvetica,sans-Serif" font-size="10.00">lemons::dsp::FX::Limiter</text>
<text text-anchor="middle" x="699.5" y="-95" font-family="Helvetica,sans-Serif" font-size="10.00">&lt; SampleType &gt;</text>
</a>
</g>
</g>
<!-- Node6&#45;&gt;Node10 -->
<g id="edge9" class="edge">
<title>Node6&#45;&gt;Node10</title>
<path fill="none" stroke="midnightblue" d="M569.51,-134.52C591.61,-129.12 615.74,-123.22 637.1,-118.01"/>
<polygon fill="midnightblue" stroke="midnightblue" points="568.4,-131.19 559.52,-136.97 570.06,-137.99 568.4,-131.19"/>
</g>
<!-- Node11 -->
<g id="node11" class="node">
<title>Node11</title>
<g id="a_node11"><a xlink:href="classlemons_1_1dsp_1_1FX_1_1NoiseGate.html" target="_top" xlink:title=" ">
<polygon fill="none" stroke="black" points="623.5,-39 623.5,-69 775.5,-69 775.5,-39 623.5,-39"/>
<text text-anchor="start" x="631.5" y="-57" font-family="Helvetica,sans-Serif" font-size="10.00">lemons::dsp::FX::NoiseGate</text>
<text text-anchor="middle" x="699.5" y="-46" font-family="Helvetica,sans-Serif" font-size="10.00">&lt; SampleType &gt;</text>
</a>
</g>
</g>
<!-- Node6&#45;&gt;Node11 -->
<g id="edge10" class="edge">
<title>Node6&#45;&gt;Node11</title>
<path fill="none" stroke="midnightblue" d="M527.99,-131.38C552.06,-115.5 587.14,-93.82 620,-79 628.08,-75.35 636.86,-72.01 645.51,-69.03"/>
<polygon fill="midnightblue" stroke="midnightblue" points="526.03,-128.48 519.65,-136.94 529.91,-134.3 526.03,-128.48"/>
</g>
</g>
</svg>
