<?xml version="1.0" encoding="UTF-8" standalone="no"?>
<!DOCTYPE svg PUBLIC "-//W3C//DTD SVG 1.1//EN"
 "http://www.w3.org/Graphics/SVG/1.1/DTD/svg11.dtd">
<!-- Generated by graphviz version 2.49.1 (20210923.0004)
 -->
<!-- Title: lemons::SystemInitializer Pages: 1 -->
<svg width="364pt" height="162pt"
 viewBox="0.00 0.00 363.50 162.00" xmlns="http://www.w3.org/2000/svg" xmlns:xlink="http://www.w3.org/1999/xlink">
<g id="graph0" class="graph" transform="scale(1 1) rotate(0) translate(4 158)">
<title>lemons::SystemInitializer</title>
<!-- Node1 -->
<g id="node1" class="node">
<title>Node1</title>
<g id="a_node1"><a xlink:title=" ">
<polygon fill="#bfbfbf" stroke="black" points="121,-134.5 121,-153.5 248,-153.5 248,-134.5 121,-134.5"/>
<text text-anchor="middle" x="184.5" y="-141.5" font-family="Helvetica,sans-Serif" font-size="10.00">lemons::SystemInitializer</text>
</a>
</g>
</g>
<!-- Node2 -->
<g id="node2" class="node">
<title>Node2</title>
<g id="a_node2"><a xlink:href="classlemons_1_1GuiApp.html" target="_top" xlink:title="Represents the base for a generic GUI app.">
<polygon fill="none" stroke="black" points="0,-67.5 0,-97.5 183,-97.5 183,-67.5 0,-67.5"/>
<text text-anchor="start" x="8" y="-85.5" font-family="Helvetica,sans-Serif" font-size="10.00">lemons::GuiApp&lt; ContentComponent</text>
<text text-anchor="middle" x="91.5" y="-74.5" font-family="Helvetica,sans-Serif" font-size="10.00">Type, &gt;</text>
</a>
</g>
</g>
<!-- Node1&#45;&gt;Node2 -->
<g id="edge1" class="edge">
<title>Node1&#45;&gt;Node2</title>
<path fill="none" stroke="#8b1a1a" d="M162.63,-129.01C147.8,-119.52 128.26,-107.02 113.42,-97.52"/>
<polygon fill="#8b1a1a" stroke="#8b1a1a" points="160.87,-132.03 171.18,-134.48 164.64,-126.14 160.87,-132.03"/>
</g>
<!-- Node3 -->
<g id="node3" class="node">
<title>Node3</title>
<g id="a_node3"><a xlink:href="classlemons_1_1plugin_1_1ProcessorBase.html" target="_top" xlink:title="Base class for a plugin processor.">
<polygon fill="none" stroke="black" points="201.5,-73 201.5,-92 355.5,-92 355.5,-73 201.5,-73"/>
<text text-anchor="middle" x="278.5" y="-80" font-family="Helvetica,sans-Serif" font-size="10.00">lemons::plugin::ProcessorBase</text>
</a>
</g>
</g>
<!-- Node1&#45;&gt;Node3 -->
<g id="edge2" class="edge">
<title>Node1&#45;&gt;Node3</title>
<path fill="none" stroke="#8b1a1a" d="M206.73,-128.93C224.85,-117.46 249.85,-101.63 265.06,-92.01"/>
<polygon fill="#8b1a1a" stroke="#8b1a1a" points="204.55,-126.17 197.97,-134.48 208.29,-132.08 204.55,-126.17"/>
</g>
<!-- Node4 -->
<g id="node4" class="node">
<title>Node4</title>
<g id="a_node4"><a xlink:href="classlemons_1_1plugin_1_1Processor.html" target="_top" xlink:title="A processor class for a plugin that can simply be told the state type and engine type,...">
<polygon fill="none" stroke="black" points="207,-0.5 207,-30.5 350,-30.5 350,-0.5 207,-0.5"/>
<text text-anchor="start" x="215" y="-18.5" font-family="Helvetica,sans-Serif" font-size="10.00">lemons::plugin::Processor</text>
<text text-anchor="middle" x="278.5" y="-7.5" font-family="Helvetica,sans-Serif" font-size="10.00">&lt; StateType, EngineType,, &gt;</text>
</a>
</g>
</g>
<!-- Node3&#45;&gt;Node4 -->
<g id="edge3" class="edge">
<title>Node3&#45;&gt;Node4</title>
<path fill="none" stroke="midnightblue" d="M278.5,-62.41C278.5,-52.22 278.5,-39.9 278.5,-30.59"/>
<polygon fill="midnightblue" stroke="midnightblue" points="275,-62.73 278.5,-72.73 282,-62.73 275,-62.73"/>
</g>
</g>
</svg>
