<?xml version="1.0" encoding="UTF-8" standalone="no"?>
<!DOCTYPE svg PUBLIC "-//W3C//DTD SVG 1.1//EN"
 "http://www.w3.org/Graphics/SVG/1.1/DTD/svg11.dtd">
<!-- Generated by graphviz version 2.43.0 (0)
 -->
<!-- Title: lemons::dsp::FX::LevelReportingAudioEffect&lt; SampleType &gt; Pages: 1 -->
<svg width="1082pt" height="284pt"
 viewBox="0.00 0.00 1082.00 284.00" xmlns="http://www.w3.org/2000/svg" xmlns:xlink="http://www.w3.org/1999/xlink">
<g id="graph0" class="graph" transform="scale(1 1) rotate(0) translate(4 280)">
<title>lemons::dsp::FX::LevelReportingAudioEffect&lt; SampleType &gt;</title>
<!-- Node1 -->
<g id="node1" class="node">
<title>Node1</title>
<g id="a_node1"><a xlink:title="Base class for audio effects that can report their level or gain reduction.">
<polygon fill="#bfbfbf" stroke="black" points="399,-122.5 399,-152.5 573,-152.5 573,-122.5 399,-122.5"/>
<text text-anchor="start" x="407" y="-140.5" font-family="Helvetica,sans-Serif" font-size="10.00">lemons::dsp::FX::LevelReporting</text>
<text text-anchor="middle" x="486" y="-129.5" font-family="Helvetica,sans-Serif" font-size="10.00">AudioEffect&lt; SampleType &gt;</text>
</a>
</g>
</g>
<!-- Node4 -->
<g id="node4" class="node">
<title>Node4</title>
<g id="a_node4"><a xlink:href="classlemons_1_1dsp_1_1FX_1_1Compressor.html" target="_top" xlink:title=" ">
<polygon fill="none" stroke="black" points="664.5,-245.5 664.5,-275.5 823.5,-275.5 823.5,-245.5 664.5,-245.5"/>
<text text-anchor="start" x="672.5" y="-263.5" font-family="Helvetica,sans-Serif" font-size="10.00">lemons::dsp::FX::Compressor</text>
<text text-anchor="middle" x="744" y="-252.5" font-family="Helvetica,sans-Serif" font-size="10.00">&lt; SampleType &gt;</text>
</a>
</g>
</g>
<!-- Node1&#45;&gt;Node4 -->
<g id="edge3" class="edge">
<title>Node1&#45;&gt;Node4</title>
<path fill="none" stroke="midnightblue" d="M517.33,-158.38C550.41,-180.36 605.52,-214.75 657,-236.5 664.85,-239.82 673.3,-242.82 681.73,-245.48"/>
<polygon fill="midnightblue" stroke="midnightblue" points="518.86,-155.19 508.6,-152.52 514.96,-161 518.86,-155.19"/>
</g>
<!-- Node6 -->
<g id="node6" class="node">
<title>Node6</title>
<g id="a_node6"><a xlink:href="classlemons_1_1dsp_1_1FX_1_1DeEsser.html" target="_top" xlink:title=" ">
<polygon fill="none" stroke="black" points="674,-196.5 674,-226.5 814,-226.5 814,-196.5 674,-196.5"/>
<text text-anchor="start" x="682" y="-214.5" font-family="Helvetica,sans-Serif" font-size="10.00">lemons::dsp::FX::DeEsser</text>
<text text-anchor="middle" x="744" y="-203.5" font-family="Helvetica,sans-Serif" font-size="10.00">&lt; SampleType &gt;</text>
</a>
</g>
</g>
<!-- Node1&#45;&gt;Node6 -->
<g id="edge5" class="edge">
<title>Node1&#45;&gt;Node6</title>
<path fill="none" stroke="midnightblue" d="M547.33,-155.46C579.79,-165.08 620.55,-177.05 657,-187.5 667.13,-190.4 677.95,-193.46 688.37,-196.38"/>
<polygon fill="midnightblue" stroke="midnightblue" points="548.11,-152.05 537.53,-152.56 546.12,-158.76 548.11,-152.05"/>
</g>
<!-- Node7 -->
<g id="node7" class="node">
<title>Node7</title>
<g id="a_node7"><a xlink:href="classlemons_1_1dsp_1_1FX_1_1Delay.html" target="_top" xlink:title=" ">
<polygon fill="none" stroke="black" points="679.5,-147.5 679.5,-177.5 808.5,-177.5 808.5,-147.5 679.5,-147.5"/>
<text text-anchor="start" x="687.5" y="-165.5" font-family="Helvetica,sans-Serif" font-size="10.00">lemons::dsp::FX::Delay</text>
<text text-anchor="middle" x="744" y="-154.5" font-family="Helvetica,sans-Serif" font-size="10.00">&lt; SampleType &gt;</text>
</a>
</g>
</g>
<!-- Node1&#45;&gt;Node7 -->
<g id="edge6" class="edge">
<title>Node1&#45;&gt;Node7</title>
<path fill="none" stroke="midnightblue" d="M583.6,-146.93C615.61,-150.06 650.41,-153.46 679.31,-156.28"/>
<polygon fill="midnightblue" stroke="midnightblue" points="583.61,-143.42 573.31,-145.93 582.93,-150.38 583.61,-143.42"/>
</g>
<!-- Node8 -->
<g id="node8" class="node">
<title>Node8</title>
<g id="a_node8"><a xlink:href="classlemons_1_1dsp_1_1FX_1_1Limiter.html" target="_top" xlink:title=" ">
<polygon fill="none" stroke="black" points="676.5,-98.5 676.5,-128.5 811.5,-128.5 811.5,-98.5 676.5,-98.5"/>
<text text-anchor="start" x="684.5" y="-116.5" font-family="Helvetica,sans-Serif" font-size="10.00">lemons::dsp::FX::Limiter</text>
<text text-anchor="middle" x="744" y="-105.5" font-family="Helvetica,sans-Serif" font-size="10.00">&lt; SampleType &gt;</text>
</a>
</g>
</g>
<!-- Node1&#45;&gt;Node8 -->
<g id="edge7" class="edge">
<title>Node1&#45;&gt;Node8</title>
<path fill="none" stroke="midnightblue" d="M583.29,-128.47C614.35,-125.56 648.06,-122.4 676.48,-119.74"/>
<polygon fill="midnightblue" stroke="midnightblue" points="582.94,-124.99 573.31,-129.41 583.6,-131.96 582.94,-124.99"/>
</g>
<!-- Node9 -->
<g id="node9" class="node">
<title>Node9</title>
<g id="a_node9"><a xlink:href="classlemons_1_1dsp_1_1FX_1_1NoiseGate.html" target="_top" xlink:title=" ">
<polygon fill="none" stroke="black" points="668,-49.5 668,-79.5 820,-79.5 820,-49.5 668,-49.5"/>
<text text-anchor="start" x="676" y="-67.5" font-family="Helvetica,sans-Serif" font-size="10.00">lemons::dsp::FX::NoiseGate</text>
<text text-anchor="middle" x="744" y="-56.5" font-family="Helvetica,sans-Serif" font-size="10.00">&lt; SampleType &gt;</text>
</a>
</g>
</g>
<!-- Node1&#45;&gt;Node9 -->
<g id="edge8" class="edge">
<title>Node1&#45;&gt;Node9</title>
<path fill="none" stroke="midnightblue" d="M548.43,-119.66C580.72,-110.31 620.98,-98.72 657,-88.5 667.29,-85.58 678.28,-82.49 688.85,-79.54"/>
<polygon fill="midnightblue" stroke="midnightblue" points="547.31,-116.34 538.67,-122.48 549.25,-123.06 547.31,-116.34"/>
</g>
<!-- Node10 -->
<g id="node10" class="node">
<title>Node10</title>
<g id="a_node10"><a xlink:href="structlemons_1_1dsp_1_1FX_1_1LevelReportingAudioEffect.html" target="_top" xlink:title=" ">
<polygon fill="none" stroke="black" points="657,-0.5 657,-30.5 831,-30.5 831,-0.5 657,-0.5"/>
<text text-anchor="start" x="665" y="-18.5" font-family="Helvetica,sans-Serif" font-size="10.00">lemons::dsp::FX::LevelReporting</text>
<text text-anchor="middle" x="744" y="-7.5" font-family="Helvetica,sans-Serif" font-size="10.00">AudioEffect&lt; float &gt;</text>
</a>
</g>
</g>
<!-- Node1&#45;&gt;Node10 -->
<g id="edge9" class="edge">
<title>Node1&#45;&gt;Node10</title>
<path fill="none" stroke="orange" stroke-dasharray="5,2" d="M517.64,-116.67C550.77,-94.92 605.75,-61.02 657,-39.5 664.86,-36.2 673.31,-33.21 681.74,-30.55"/>
<polygon fill="orange" stroke="orange" points="515.3,-114.03 508.89,-122.47 519.16,-119.86 515.3,-114.03"/>
<text text-anchor="middle" x="615" y="-73.5" font-family="Helvetica,sans-Serif" font-size="10.00"> &lt; float &gt;</text>
</g>
<!-- Node2 -->
<g id="node2" class="node">
<title>Node2</title>
<g id="a_node2"><a xlink:href="structlemons_1_1dsp_1_1FX_1_1SidechainableAudioEffect.html" target="_top" xlink:title="Base class for audio effects that accept a sidechain signal.">
<polygon fill="none" stroke="black" points="193,-122.5 193,-152.5 362,-152.5 362,-122.5 193,-122.5"/>
<text text-anchor="start" x="201" y="-140.5" font-family="Helvetica,sans-Serif" font-size="10.00">lemons::dsp::FX::Sidechainable</text>
<text text-anchor="middle" x="277.5" y="-129.5" font-family="Helvetica,sans-Serif" font-size="10.00">AudioEffect&lt; SampleType &gt;</text>
</a>
</g>
</g>
<!-- Node2&#45;&gt;Node1 -->
<g id="edge1" class="edge">
<title>Node2&#45;&gt;Node1</title>
<path fill="none" stroke="midnightblue" d="M372.45,-137.5C381.24,-137.5 390.12,-137.5 398.83,-137.5"/>
<polygon fill="midnightblue" stroke="midnightblue" points="372.19,-134 362.19,-137.5 372.19,-141 372.19,-134"/>
</g>
<!-- Node3 -->
<g id="node3" class="node">
<title>Node3</title>
<g id="a_node3"><a xlink:href="structlemons_1_1dsp_1_1FX_1_1AudioEffect.html" target="_top" xlink:title="Base class for any kind of audio effect.">
<polygon fill="none" stroke="black" points="0,-122.5 0,-152.5 156,-152.5 156,-122.5 0,-122.5"/>
<text text-anchor="start" x="8" y="-140.5" font-family="Helvetica,sans-Serif" font-size="10.00">lemons::dsp::FX::AudioEffect</text>
<text text-anchor="middle" x="78" y="-129.5" font-family="Helvetica,sans-Serif" font-size="10.00">&lt; SampleType &gt;</text>
</a>
</g>
</g>
<!-- Node3&#45;&gt;Node2 -->
<g id="edge2" class="edge">
<title>Node3&#45;&gt;Node2</title>
<path fill="none" stroke="midnightblue" d="M166.43,-137.5C175.2,-137.5 184.09,-137.5 192.82,-137.5"/>
<polygon fill="midnightblue" stroke="midnightblue" points="166.21,-134 156.21,-137.5 166.21,-141 166.21,-134"/>
</g>
<!-- Node5 -->
<g id="node5" class="node">
<title>Node5</title>
<g id="a_node5"><a xlink:href="classlemons_1_1dsp_1_1FX_1_1Compressor.html" target="_top" xlink:title=" ">
<polygon fill="none" stroke="black" points="915,-122.5 915,-152.5 1074,-152.5 1074,-122.5 915,-122.5"/>
<text text-anchor="start" x="923" y="-140.5" font-family="Helvetica,sans-Serif" font-size="10.00">lemons::dsp::FX::Compressor</text>
<text text-anchor="middle" x="994.5" y="-129.5" font-family="Helvetica,sans-Serif" font-size="10.00">&lt; float &gt;</text>
</a>
</g>
</g>
<!-- Node4&#45;&gt;Node5 -->
<g id="edge4" class="edge">
<title>Node4&#45;&gt;Node5</title>
<path fill="none" stroke="orange" stroke-dasharray="5,2" d="M816.44,-242.22C821.42,-240.44 826.32,-238.53 831,-236.5 885.24,-212.95 943.08,-173.93 972.96,-152.59"/>
<polygon fill="orange" stroke="orange" points="815.14,-238.96 806.79,-245.48 817.39,-245.59 815.14,-238.96"/>
<text text-anchor="middle" x="873" y="-230.5" font-family="Helvetica,sans-Serif" font-size="10.00"> &lt; float &gt;</text>
</g>
<!-- Node10&#45;&gt;Node5 -->
<g id="edge10" class="edge">
<title>Node10&#45;&gt;Node5</title>
<path fill="none" stroke="midnightblue" d="M816.43,-33.81C821.42,-35.58 826.32,-37.48 831,-39.5 884.99,-62.8 942.7,-101.25 972.68,-122.4"/>
<polygon fill="midnightblue" stroke="midnightblue" points="817.37,-30.43 806.78,-30.55 815.14,-37.06 817.37,-30.43"/>
</g>
</g>
</svg>
