<?xml version="1.0" encoding="UTF-8" standalone="no"?>
<!DOCTYPE svg PUBLIC "-//W3C//DTD SVG 1.1//EN"
 "http://www.w3.org/Graphics/SVG/1.1/DTD/svg11.dtd">
<!-- Generated by graphviz version 2.50.0 (20211204.2007)
 -->
<!-- Title: lemons::dsp::factory::EngineCreator Pages: 1 -->
<svg width="282pt" height="110pt"
 viewBox="0.00 0.00 282.00 110.00" xmlns="http://www.w3.org/2000/svg" xmlns:xlink="http://www.w3.org/1999/xlink">
<g id="graph0" class="graph" transform="scale(1 1) rotate(0) translate(4 106)">
<title>lemons::dsp::factory::EngineCreator</title>
<!-- Node1 -->
<g id="node1" class="node">
<title>Node1</title>
<g id="a_node1"><a xlink:title=" ">
<polygon fill="#bfbfbf" stroke="black" points="0,-36 0,-66 106,-66 106,-36 0,-36"/>
<text text-anchor="start" x="8" y="-54" font-family="Helvetica,sans-Serif" font-size="10.00">lemons::dsp::factory</text>
<text text-anchor="middle" x="53" y="-43" font-family="Helvetica,sans-Serif" font-size="10.00">::EngineCreator</text>
</a>
</g>
</g>
<!-- Node2 -->
<g id="node2" class="node">
<title>Node2</title>
<g id="a_node2"><a xlink:href="structlemons_1_1dsp_1_1factory_1_1_arguments_engine_creator.html" target="_top" xlink:title=" ">
<polygon fill="none" stroke="black" points="142,-60.5 142,-101.5 274,-101.5 274,-60.5 142,-60.5"/>
<text text-anchor="start" x="150" y="-89.5" font-family="Helvetica,sans-Serif" font-size="10.00">lemons::dsp::factory</text>
<text text-anchor="start" x="150" y="-78.5" font-family="Helvetica,sans-Serif" font-size="10.00">::ArgumentsEngineCreator</text>
<text text-anchor="middle" x="208" y="-67.5" font-family="Helvetica,sans-Serif" font-size="10.00">&lt; EngineType, Args &gt;</text>
</a>
</g>
</g>
<!-- Node1&#45;&gt;Node2 -->
<g id="edge1" class="edge">
<title>Node1&#45;&gt;Node2</title>
<path fill="none" stroke="midnightblue" d="M116.31,-63.22C124.69,-64.86 133.32,-66.55 141.75,-68.21"/>
<polygon fill="midnightblue" stroke="midnightblue" points="116.71,-59.73 106.23,-61.24 115.37,-66.6 116.71,-59.73"/>
</g>
<!-- Node3 -->
<g id="node3" class="node">
<title>Node3</title>
<g id="a_node3"><a xlink:href="structlemons_1_1dsp_1_1factory_1_1_default_engine_creator.html" target="_top" xlink:title=" ">
<polygon fill="none" stroke="black" points="150,-0.5 150,-41.5 266,-41.5 266,-0.5 150,-0.5"/>
<text text-anchor="start" x="158" y="-29.5" font-family="Helvetica,sans-Serif" font-size="10.00">lemons::dsp::factory</text>
<text text-anchor="start" x="158" y="-18.5" font-family="Helvetica,sans-Serif" font-size="10.00">::DefaultEngineCreator</text>
<text text-anchor="middle" x="208" y="-7.5" font-family="Helvetica,sans-Serif" font-size="10.00">&lt; EngineType, &gt;</text>
</a>
</g>
</g>
<!-- Node1&#45;&gt;Node3 -->
<g id="edge2" class="edge">
<title>Node1&#45;&gt;Node3</title>
<path fill="none" stroke="midnightblue" d="M116.26,-38.79C127.34,-36.62 138.84,-34.37 149.77,-32.22"/>
<polygon fill="midnightblue" stroke="midnightblue" points="115.37,-35.4 106.23,-40.76 116.71,-42.27 115.37,-35.4"/>
</g>
</g>
</svg>
