<?xml version="1.0" encoding="UTF-8" standalone="no"?>
<!DOCTYPE svg PUBLIC "-//W3C//DTD SVG 1.1//EN"
 "http://www.w3.org/Graphics/SVG/1.1/DTD/svg11.dtd">
<!-- Generated by graphviz version 2.43.0 (0)
 -->
<!-- Title: lemons::serializing::MapInterface&lt; KeyType, ValueType &gt; Pages: 1 -->
<svg width="168pt" height="275pt"
 viewBox="0.00 0.00 168.00 275.00" xmlns="http://www.w3.org/2000/svg" xmlns:xlink="http://www.w3.org/1999/xlink">
<g id="graph0" class="graph" transform="scale(1 1) rotate(0) translate(4 271)">
<title>lemons::serializing::MapInterface&lt; KeyType, ValueType &gt;</title>
<!-- Node1 -->
<g id="node1" class="node">
<title>Node1</title>
<g id="a_node1"><a xlink:title=" ">
<polygon fill="#bfbfbf" stroke="black" points="0,-157.5 0,-198.5 142,-198.5 142,-157.5 0,-157.5"/>
<text text-anchor="start" x="8" y="-186.5" font-family="Helvetica,sans-Serif" font-size="10.00">lemons::serializing</text>
<text text-anchor="start" x="8" y="-175.5" font-family="Helvetica,sans-Serif" font-size="10.00">::MapInterface&lt; KeyType,</text>
<text text-anchor="middle" x="71" y="-164.5" font-family="Helvetica,sans-Serif" font-size="10.00"> ValueType &gt;</text>
</a>
</g>
</g>
<!-- Node3 -->
<g id="node3" class="node">
<title>Node3</title>
<g id="a_node3"><a xlink:href="structlemons_1_1serializing_1_1_map_interface.html" target="_top" xlink:title=" ">
<polygon fill="none" stroke="black" points="6,-68.5 6,-109.5 136,-109.5 136,-68.5 6,-68.5"/>
<text text-anchor="start" x="14" y="-97.5" font-family="Helvetica,sans-Serif" font-size="10.00">lemons::serializing</text>
<text text-anchor="start" x="14" y="-86.5" font-family="Helvetica,sans-Serif" font-size="10.00">::MapInterface&lt; String,</text>
<text text-anchor="middle" x="71" y="-75.5" font-family="Helvetica,sans-Serif" font-size="10.00"> String &gt;</text>
</a>
</g>
</g>
<!-- Node1&#45;&gt;Node3 -->
<g id="edge2" class="edge">
<title>Node1&#45;&gt;Node3</title>
<path fill="none" stroke="orange" stroke-dasharray="5,2" d="M71,-146.94C71,-134.6 71,-120.66 71,-109.66"/>
<polygon fill="orange" stroke="orange" points="67.5,-147.26 71,-157.26 74.5,-147.26 67.5,-147.26"/>
<text text-anchor="middle" x="115.5" y="-131" font-family="Helvetica,sans-Serif" font-size="10.00"> &lt; String, String &gt;</text>
</g>
<!-- Node2 -->
<g id="node2" class="node">
<title>Node2</title>
<g id="a_node2"><a xlink:href="structlemons_1_1serializing_1_1_map_interface_base.html" target="_top" xlink:title=" ">
<polygon fill="none" stroke="black" points="15.5,-236.5 15.5,-266.5 126.5,-266.5 126.5,-236.5 15.5,-236.5"/>
<text text-anchor="start" x="23.5" y="-254.5" font-family="Helvetica,sans-Serif" font-size="10.00">lemons::serializing</text>
<text text-anchor="middle" x="71" y="-243.5" font-family="Helvetica,sans-Serif" font-size="10.00">::MapInterfaceBase</text>
</a>
</g>
</g>
<!-- Node2&#45;&gt;Node1 -->
<g id="edge1" class="edge">
<title>Node2&#45;&gt;Node1</title>
<path fill="none" stroke="midnightblue" d="M71,-226.1C71,-217.1 71,-207.02 71,-198.51"/>
<polygon fill="midnightblue" stroke="midnightblue" points="67.5,-226.37 71,-236.37 74.5,-226.37 67.5,-226.37"/>
</g>
<!-- Node4 -->
<g id="node4" class="node">
<title>Node4</title>
<g id="a_node4"><a xlink:href="structlemons_1_1serializing_1_1_string_pair_array_interface.html" target="_top" xlink:title=" ">
<polygon fill="none" stroke="black" points="1.5,-0.5 1.5,-30.5 140.5,-30.5 140.5,-0.5 1.5,-0.5"/>
<text text-anchor="start" x="9.5" y="-18.5" font-family="Helvetica,sans-Serif" font-size="10.00">lemons::serializing</text>
<text text-anchor="middle" x="71" y="-7.5" font-family="Helvetica,sans-Serif" font-size="10.00">::StringPairArrayInterface</text>
</a>
</g>
</g>
<!-- Node3&#45;&gt;Node4 -->
<g id="edge3" class="edge">
<title>Node3&#45;&gt;Node4</title>
<path fill="none" stroke="midnightblue" d="M71,-58.16C71,-48.69 71,-38.65 71,-30.8"/>
<polygon fill="midnightblue" stroke="midnightblue" points="67.5,-58.46 71,-68.46 74.5,-58.46 67.5,-58.46"/>
</g>
</g>
</svg>
