<?xml version="1.0" encoding="UTF-8" standalone="no"?>
<!DOCTYPE svg PUBLIC "-//W3C//DTD SVG 1.1//EN"
 "http://www.w3.org/Graphics/SVG/1.1/DTD/svg11.dtd">
<!-- Generated by graphviz version 2.49.3 (20211023.0002)
 -->
<!-- Title: lemons::plugin::SecondsParameter Pages: 1 -->
<svg width="262pt" height="277pt"
 viewBox="0.00 0.00 262.00 277.00" xmlns="http://www.w3.org/2000/svg" xmlns:xlink="http://www.w3.org/1999/xlink">
<g id="graph0" class="graph" transform="scale(1 1) rotate(0) translate(4 273)">
<title>lemons::plugin::SecondsParameter</title>
<!-- Node1 -->
<g id="node1" class="node">
<title>Node1</title>
<g id="a_node1"><a xlink:title="A parameter that represents a time value in seconds, expressed as a float.">
<polygon fill="#bfbfbf" stroke="black" points="0,-0.5 0,-19.5 169,-19.5 169,-0.5 0,-0.5"/>
<text text-anchor="middle" x="84.5" y="-7.5" font-family="Helvetica,sans-Serif" font-size="10.00">lemons::plugin::SecondsParameter</text>
</a>
</g>
</g>
<!-- Node2 -->
<g id="node2" class="node">
<title>Node2</title>
<g id="a_node2"><a xlink:href="classlemons_1_1plugin_1_1_typed_parameter.html" target="_top" xlink:title=" ">
<polygon fill="none" stroke="black" points="43,-57.5 43,-76.5 126,-76.5 126,-57.5 43,-57.5"/>
<text text-anchor="middle" x="84.5" y="-64.5" font-family="Helvetica,sans-Serif" font-size="10.00">FloatParameter</text>
</a>
</g>
</g>
<!-- Node2&#45;&gt;Node1 -->
<g id="edge1" class="edge">
<title>Node2&#45;&gt;Node1</title>
<path fill="none" stroke="midnightblue" d="M84.5,-47.12C84.5,-37.82 84.5,-27.06 84.5,-19.71"/>
<polygon fill="midnightblue" stroke="midnightblue" points="81,-47.41 84.5,-57.41 88,-47.41 81,-47.41"/>
</g>
<!-- Node3 -->
<g id="node3" class="node">
<title>Node3</title>
<g id="a_node3"><a xlink:href="classlemons_1_1plugin_1_1_parameter.html" target="_top" xlink:title="A plugin parameter class.">
<polygon fill="none" stroke="black" points="15,-192.5 15,-211.5 146,-211.5 146,-192.5 15,-192.5"/>
<text text-anchor="middle" x="80.5" y="-199.5" font-family="Helvetica,sans-Serif" font-size="10.00">lemons::plugin::Parameter</text>
</a>
</g>
</g>
<!-- Node3&#45;&gt;Node2 -->
<g id="edge2" class="edge">
<title>Node3&#45;&gt;Node2</title>
<path fill="none" stroke="midnightblue" d="M81.07,-182.13C81.95,-152.88 83.6,-97.76 84.24,-76.59"/>
<polygon fill="midnightblue" stroke="midnightblue" points="77.56,-182.17 80.76,-192.27 84.56,-182.38 77.56,-182.17"/>
</g>
<!-- Node5 -->
<g id="node5" class="node">
<title>Node5</title>
<g id="a_node5"><a xlink:href="classlemons_1_1plugin_1_1_typed_parameter.html" target="_top" xlink:title="A parameter that can be stored as a type other than a float, but still inherits from my Parameter bas...">
<polygon fill="none" stroke="black" points="97,-124.5 97,-154.5 254,-154.5 254,-124.5 97,-124.5"/>
<text text-anchor="start" x="105" y="-142.5" font-family="Helvetica,sans-Serif" font-size="10.00">lemons::plugin::TypedParameter</text>
<text text-anchor="middle" x="175.5" y="-131.5" font-family="Helvetica,sans-Serif" font-size="10.00">&lt; ValueType &gt;</text>
</a>
</g>
</g>
<!-- Node3&#45;&gt;Node5 -->
<g id="edge5" class="edge">
<title>Node3&#45;&gt;Node5</title>
<path fill="none" stroke="midnightblue" d="M102.9,-186.73C118.17,-177.01 138.29,-164.2 153.48,-154.53"/>
<polygon fill="midnightblue" stroke="midnightblue" points="100.67,-184.01 94.11,-192.33 104.43,-189.91 100.67,-184.01"/>
</g>
<!-- Node4 -->
<g id="node4" class="node">
<title>Node4</title>
<g id="a_node4"><a xlink:title=" ">
<polygon fill="none" stroke="black" points="9,-249.5 9,-268.5 152,-268.5 152,-249.5 9,-249.5"/>
<text text-anchor="middle" x="80.5" y="-256.5" font-family="Helvetica,sans-Serif" font-size="10.00">juce::RangedAudioParameter</text>
</a>
</g>
</g>
<!-- Node4&#45;&gt;Node3 -->
<g id="edge3" class="edge">
<title>Node4&#45;&gt;Node3</title>
<path fill="none" stroke="midnightblue" d="M80.5,-239.12C80.5,-229.82 80.5,-219.06 80.5,-211.71"/>
<polygon fill="midnightblue" stroke="midnightblue" points="77,-239.41 80.5,-249.41 84,-239.41 77,-239.41"/>
</g>
<!-- Node5&#45;&gt;Node2 -->
<g id="edge4" class="edge">
<title>Node5&#45;&gt;Node2</title>
<path fill="none" stroke="orange" stroke-dasharray="5,2" d="M148.84,-117.84C131.16,-104.15 108.88,-86.89 95.72,-76.69"/>
<polygon fill="orange" stroke="orange" points="147.04,-120.88 157.08,-124.23 151.32,-115.34 147.04,-120.88"/>
<text text-anchor="middle" x="152.5" y="-98" font-family="Helvetica,sans-Serif" font-size="10.00"> &lt; float &gt;</text>
</g>
</g>
</svg>
