<?xml version="1.0" encoding="UTF-8" standalone="no"?>
<!DOCTYPE svg PUBLIC "-//W3C//DTD SVG 1.1//EN"
 "http://www.w3.org/Graphics/SVG/1.1/DTD/svg11.dtd">
<!-- Generated by graphviz version 2.49.1 (20210923.0004)
 -->
<!-- Title: lemons::dsp::FX::FilterEngine&lt; SampleType &gt; Pages: 1 -->
<svg width="798pt" height="81pt"
 viewBox="0.00 0.00 798.00 80.50" xmlns="http://www.w3.org/2000/svg" xmlns:xlink="http://www.w3.org/1999/xlink">
<g id="graph0" class="graph" transform="scale(1 1) rotate(0) translate(4 76.5)">
<title>lemons::dsp::FX::FilterEngine&lt; SampleType &gt;</title>
<!-- Node1 -->
<g id="node1" class="node">
<title>Node1</title>
<g id="a_node1"><a xlink:title="A class that represents an audio engine holding a filter effect.">
<polygon fill="#bfbfbf" stroke="black" points="642,-18 642,-48 790,-48 790,-18 642,-18"/>
<text text-anchor="start" x="650" y="-36" font-family="Helvetica,sans-Serif" font-size="10.00">lemons::dsp::FX::FilterEngine</text>
<text text-anchor="middle" x="716" y="-25" font-family="Helvetica,sans-Serif" font-size="10.00">&lt; SampleType &gt;</text>
</a>
</g>
</g>
<!-- Node2 -->
<g id="node2" class="node">
<title>Node2</title>
<g id="a_node2"><a xlink:href="classlemons_1_1dsp_1_1FX_1_1EffectEngine.html" target="_top" xlink:title=" ">
<polygon fill="none" stroke="black" points="454,-18 454,-48 605,-48 605,-18 454,-18"/>
<text text-anchor="start" x="462" y="-36" font-family="Helvetica,sans-Serif" font-size="10.00">lemons::dsp::FX::EffectEngine</text>
<text text-anchor="middle" x="529.5" y="-25" font-family="Helvetica,sans-Serif" font-size="10.00">&lt; Filter, SampleType &gt;</text>
</a>
</g>
</g>
<!-- Node2&#45;&gt;Node1 -->
<g id="edge1" class="edge">
<title>Node2&#45;&gt;Node1</title>
<path fill="none" stroke="midnightblue" d="M615.02,-33C623.93,-33 632.94,-33 641.71,-33"/>
<polygon fill="midnightblue" stroke="midnightblue" points="615.01,-29.5 605.01,-33 615.01,-36.5 615.01,-29.5"/>
</g>
<!-- Node3 -->
<g id="node3" class="node">
<title>Node3</title>
<g id="a_node3"><a xlink:href="classlemons_1_1dsp_1_1Engine.html" target="_top" xlink:title="Base class for an audio engine.">
<polygon fill="none" stroke="black" points="10,-42 10,-72 117,-72 117,-42 10,-42"/>
<text text-anchor="start" x="18" y="-60" font-family="Helvetica,sans-Serif" font-size="10.00">lemons::dsp::Engine</text>
<text text-anchor="middle" x="63.5" y="-49" font-family="Helvetica,sans-Serif" font-size="10.00">&lt; SampleType &gt;</text>
</a>
</g>
</g>
<!-- Node3&#45;&gt;Node2 -->
<g id="edge2" class="edge">
<title>Node3&#45;&gt;Node2</title>
<path fill="none" stroke="midnightblue" d="M127.55,-58.89C133.79,-58.98 140.02,-59.02 146,-59 274.98,-58.62 307.97,-63.65 436,-48 441.81,-47.29 447.82,-46.48 453.85,-45.62"/>
<polygon fill="midnightblue" stroke="midnightblue" points="127.16,-55.38 117.11,-58.72 127.04,-62.38 127.16,-55.38"/>
</g>
<!-- Node5 -->
<g id="node5" class="node">
<title>Node5</title>
<g id="a_node5"><a xlink:href="classlemons_1_1dsp_1_1FX_1_1EffectEngine.html" target="_top" xlink:title="A class that wraps an AudioEffect into a dsp::Engine.">
<polygon fill="none" stroke="black" points="164,-18 164,-48 315,-48 315,-18 164,-18"/>
<text text-anchor="start" x="172" y="-36" font-family="Helvetica,sans-Serif" font-size="10.00">lemons::dsp::FX::EffectEngine</text>
<text text-anchor="middle" x="239.5" y="-25" font-family="Helvetica,sans-Serif" font-size="10.00">&lt; EffectType, SampleType, &gt;</text>
</a>
</g>
</g>
<!-- Node3&#45;&gt;Node5 -->
<g id="edge5" class="edge">
<title>Node3&#45;&gt;Node5</title>
<path fill="none" stroke="midnightblue" d="M127.39,-48.33C139.22,-46.69 151.7,-44.97 163.86,-43.3"/>
<polygon fill="midnightblue" stroke="midnightblue" points="126.61,-44.9 117.18,-49.73 127.56,-51.83 126.61,-44.9"/>
</g>
<!-- Node4 -->
<g id="node4" class="node">
<title>Node4</title>
<g id="a_node4"><a xlink:href="structlemons_1_1SerializableData.html" target="_top" xlink:title="Base class for any C++ object that needs to be serialized to binary and back.">
<polygon fill="none" stroke="black" points="0,-0.5 0,-19.5 127,-19.5 127,-0.5 0,-0.5"/>
<text text-anchor="middle" x="63.5" y="-7.5" font-family="Helvetica,sans-Serif" font-size="10.00">lemons::SerializableData</text>
</a>
</g>
</g>
<!-- Node4&#45;&gt;Node2 -->
<g id="edge3" class="edge">
<title>Node4&#45;&gt;Node2</title>
<path fill="none" stroke="midnightblue" d="M137.24,-8.37C146.25,-8.22 155.34,-8.09 164,-8 231.11,-7.33 248,-4.09 315,-8 361.2,-10.7 412.73,-16.65 453.6,-22.06"/>
<polygon fill="midnightblue" stroke="midnightblue" points="137.06,-4.87 127.13,-8.55 137.19,-11.87 137.06,-4.87"/>
</g>
<!-- Node4&#45;&gt;Node5 -->
<g id="edge6" class="edge">
<title>Node4&#45;&gt;Node5</title>
<path fill="none" stroke="midnightblue" d="M137.47,-19.65C146.22,-20.8 155.15,-21.98 163.92,-23.14"/>
<polygon fill="midnightblue" stroke="midnightblue" points="137.69,-16.14 127.32,-18.3 136.77,-23.08 137.69,-16.14"/>
</g>
<!-- Node5&#45;&gt;Node2 -->
<g id="edge4" class="edge">
<title>Node5&#45;&gt;Node2</title>
<path fill="none" stroke="orange" stroke-dasharray="5,2" d="M325.23,-33C365.98,-33 414.41,-33 453.77,-33"/>
<polygon fill="orange" stroke="orange" points="325.04,-29.5 315.04,-33 325.04,-36.5 325.04,-29.5"/>
<text text-anchor="middle" x="384.5" y="-36" font-family="Helvetica,sans-Serif" font-size="10.00"> &lt; Filter, SampleType &gt;</text>
</g>
</g>
</svg>
