<?xml version="1.0" encoding="UTF-8" standalone="no"?>
<!DOCTYPE svg PUBLIC "-//W3C//DTD SVG 1.1//EN"
 "http://www.w3.org/Graphics/SVG/1.1/DTD/svg11.dtd">
<!-- Generated by graphviz version 2.43.0 (0)
 -->
<!-- Title: lemons::dsp::TemplateSynth&lt; SampleType, VoiceType &gt; Pages: 1 -->
<svg width="243pt" height="275pt"
 viewBox="0.00 0.00 242.50 275.00" xmlns="http://www.w3.org/2000/svg" xmlns:xlink="http://www.w3.org/1999/xlink">
<g id="graph0" class="graph" transform="scale(1 1) rotate(0) translate(4 271)">
<title>lemons::dsp::TemplateSynth&lt; SampleType, VoiceType &gt;</title>
<!-- Node1 -->
<g id="node1" class="node">
<title>Node1</title>
<g id="a_node1"><a xlink:title=" ">
<polygon fill="#bfbfbf" stroke="black" points="5,-168.5 5,-198.5 160,-198.5 160,-168.5 5,-168.5"/>
<text text-anchor="start" x="13" y="-186.5" font-family="Helvetica,sans-Serif" font-size="10.00">lemons::dsp::TemplateSynth</text>
<text text-anchor="middle" x="82.5" y="-175.5" font-family="Helvetica,sans-Serif" font-size="10.00">&lt; SampleType, VoiceType &gt;</text>
</a>
</g>
</g>
<!-- Node3 -->
<g id="node3" class="node">
<title>Node3</title>
<g id="a_node3"><a xlink:href="structlemons_1_1dsp_1_1_template_synth.html" target="_top" xlink:title=" ">
<polygon fill="none" stroke="black" points="0,-68.5 0,-109.5 165,-109.5 165,-68.5 0,-68.5"/>
<text text-anchor="start" x="8" y="-97.5" font-family="Helvetica,sans-Serif" font-size="10.00">lemons::dsp::TemplateSynth</text>
<text text-anchor="start" x="8" y="-86.5" font-family="Helvetica,sans-Serif" font-size="10.00">&lt; SampleType, OscSynthVoice</text>
<text text-anchor="middle" x="82.5" y="-75.5" font-family="Helvetica,sans-Serif" font-size="10.00">&lt; SampleType, OscType &gt; &gt;</text>
</a>
</g>
</g>
<!-- Node1&#45;&gt;Node3 -->
<g id="edge2" class="edge">
<title>Node1&#45;&gt;Node3</title>
<path fill="none" stroke="orange" stroke-dasharray="5,2" d="M82.5,-158.28C82.5,-143.14 82.5,-123.88 82.5,-109.68"/>
<polygon fill="orange" stroke="orange" points="79,-158.45 82.5,-168.45 86,-158.45 79,-158.45"/>
<text text-anchor="start" x="82.5" y="-142" font-family="Helvetica,sans-Serif" font-size="10.00"> &lt; SampleType, OscSynthVoice</text>
<text text-anchor="middle" x="158.5" y="-131" font-family="Helvetica,sans-Serif" font-size="10.00">&lt; SampleType, OscType &gt; &gt;</text>
</g>
<!-- Node2 -->
<g id="node2" class="node">
<title>Node2</title>
<g id="a_node2"><a xlink:href="classlemons_1_1dsp_1_1_synth_base.html" target="_top" xlink:title=" ">
<polygon fill="none" stroke="black" points="15.5,-236.5 15.5,-266.5 149.5,-266.5 149.5,-236.5 15.5,-236.5"/>
<text text-anchor="start" x="23.5" y="-254.5" font-family="Helvetica,sans-Serif" font-size="10.00">lemons::dsp::SynthBase</text>
<text text-anchor="middle" x="82.5" y="-243.5" font-family="Helvetica,sans-Serif" font-size="10.00">&lt; SampleType &gt;</text>
</a>
</g>
</g>
<!-- Node2&#45;&gt;Node1 -->
<g id="edge1" class="edge">
<title>Node2&#45;&gt;Node1</title>
<path fill="none" stroke="midnightblue" d="M82.5,-226.03C82.5,-216.86 82.5,-206.74 82.5,-198.79"/>
<polygon fill="midnightblue" stroke="midnightblue" points="79,-226.18 82.5,-236.18 86,-226.18 79,-226.18"/>
</g>
<!-- Node4 -->
<g id="node4" class="node">
<title>Node4</title>
<g id="a_node4"><a xlink:href="structlemons_1_1dsp_1_1_osc_synth.html" target="_top" xlink:title=" ">
<polygon fill="none" stroke="black" points="10,-0.5 10,-30.5 155,-30.5 155,-0.5 10,-0.5"/>
<text text-anchor="start" x="18" y="-18.5" font-family="Helvetica,sans-Serif" font-size="10.00">lemons::dsp::OscSynth</text>
<text text-anchor="middle" x="82.5" y="-7.5" font-family="Helvetica,sans-Serif" font-size="10.00">&lt; SampleType, OscType &gt;</text>
</a>
</g>
</g>
<!-- Node3&#45;&gt;Node4 -->
<g id="edge3" class="edge">
<title>Node3&#45;&gt;Node4</title>
<path fill="none" stroke="midnightblue" d="M82.5,-58.16C82.5,-48.69 82.5,-38.65 82.5,-30.8"/>
<polygon fill="midnightblue" stroke="midnightblue" points="79,-58.46 82.5,-68.46 86,-58.46 79,-58.46"/>
</g>
</g>
</svg>
