<?xml version="1.0" encoding="UTF-8" standalone="no"?>
<!DOCTYPE svg PUBLIC "-//W3C//DTD SVG 1.1//EN"
 "http://www.w3.org/Graphics/SVG/1.1/DTD/svg11.dtd">
<!-- Generated by graphviz version 2.43.0 (0)
 -->
<!-- Title: lemons::SerializableData Pages: 1 -->
<svg width="1308pt" height="1090pt"
 viewBox="0.00 0.00 1308.00 1090.00" xmlns="http://www.w3.org/2000/svg" xmlns:xlink="http://www.w3.org/1999/xlink">
<g id="graph0" class="graph" transform="scale(1 1) rotate(0) translate(4 1086)">
<title>lemons::SerializableData</title>
<!-- Node1 -->
<g id="node1" class="node">
<title>Node1</title>
<g id="a_node1"><a xlink:title="Base class for any C++ object that needs to be serialized to binary and back.">
<polygon fill="#bfbfbf" stroke="black" points="0,-377.5 0,-396.5 139,-396.5 139,-377.5 0,-377.5"/>
<text text-anchor="middle" x="69.5" y="-384.5" font-family="Helvetica,sans-Serif" font-size="10.00">lemons::SerializableData</text>
</a>
</g>
</g>
<!-- Node2 -->
<g id="node2" class="node">
<title>Node2</title>
<g id="a_node2"><a xlink:href="structlemons_1_1dsp_1_1FX_1_1AudioEffect.html" target="_top" xlink:title=" ">
<polygon fill="none" stroke="black" points="492.5,-964 492.5,-994 648.5,-994 648.5,-964 492.5,-964"/>
<text text-anchor="start" x="500.5" y="-982" font-family="Helvetica,sans-Serif" font-size="10.00">lemons::dsp::FX::AudioEffect</text>
<text text-anchor="middle" x="570.5" y="-971" font-family="Helvetica,sans-Serif" font-size="10.00">&lt; float &gt;</text>
</a>
</g>
</g>
<!-- Node1&#45;&gt;Node2 -->
<g id="edge1" class="edge">
<title>Node1&#45;&gt;Node2</title>
<path fill="none" stroke="midnightblue" d="M71.84,-406.91C77.99,-492.82 106.36,-830.77 176,-906 256.01,-992.42 402.57,-996.41 492.49,-989.23"/>
<polygon fill="midnightblue" stroke="midnightblue" points="75.33,-406.64 71.14,-396.91 68.34,-407.13 75.33,-406.64"/>
</g>
<!-- Node7 -->
<g id="node6" class="node">
<title>Node7</title>
<g id="a_node6"><a xlink:href="classlemons_1_1dsp_1_1osc_1_1ChoosableOscillator.html" target="_top" xlink:title=" ">
<polygon fill="none" stroke="black" points="493,-670 493,-700 648,-700 648,-670 493,-670"/>
<text text-anchor="start" x="501" y="-688" font-family="Helvetica,sans-Serif" font-size="10.00">lemons::dsp::osc::Choosable</text>
<text text-anchor="middle" x="570.5" y="-677" font-family="Helvetica,sans-Serif" font-size="10.00">Oscillator&lt; float &gt;</text>
</a>
</g>
</g>
<!-- Node1&#45;&gt;Node7 -->
<g id="edge5" class="edge">
<title>Node1&#45;&gt;Node7</title>
<path fill="none" stroke="midnightblue" d="M71.73,-406.86C76.02,-456.91 94.85,-588.34 176,-646 225.25,-680.99 392.77,-686.31 492.66,-686.21"/>
<polygon fill="midnightblue" stroke="midnightblue" points="75.21,-406.43 70.97,-396.71 68.23,-406.95 75.21,-406.43"/>
</g>
<!-- Node8 -->
<g id="node7" class="node">
<title>Node8</title>
<g id="a_node7"><a xlink:href="structlemons_1_1dsp_1_1FX_1_1AudioEffect.html" target="_top" xlink:title="Base class for any kind of audio effect.">
<polygon fill="none" stroke="black" points="189,-866 189,-896 345,-896 345,-866 189,-866"/>
<text text-anchor="start" x="197" y="-884" font-family="Helvetica,sans-Serif" font-size="10.00">lemons::dsp::FX::AudioEffect</text>
<text text-anchor="middle" x="267" y="-873" font-family="Helvetica,sans-Serif" font-size="10.00">&lt; SampleType &gt;</text>
</a>
</g>
</g>
<!-- Node1&#45;&gt;Node8 -->
<g id="edge6" class="edge">
<title>Node1&#45;&gt;Node8</title>
<path fill="none" stroke="midnightblue" d="M73.65,-406.76C82.98,-461.6 113.77,-619.23 176,-735 202.36,-784.05 238.23,-839.34 255.66,-865.59"/>
<polygon fill="midnightblue" stroke="midnightblue" points="77.07,-405.97 71.98,-396.68 70.16,-407.11 77.07,-405.97"/>
</g>
<!-- Node23 -->
<g id="node17" class="node">
<title>Node23</title>
<g id="a_node17"><a xlink:href="classlemons_1_1dsp_1_1FX_1_1Reverb.html" target="_top" xlink:title="Reverb effect class that wraps juce::Reverb with some other useful bells and whistles,...">
<polygon fill="none" stroke="black" points="199.5,-617.5 199.5,-636.5 334.5,-636.5 334.5,-617.5 199.5,-617.5"/>
<text text-anchor="middle" x="267" y="-624.5" font-family="Helvetica,sans-Serif" font-size="10.00">lemons::dsp::FX::Reverb</text>
</a>
</g>
</g>
<!-- Node1&#45;&gt;Node23 -->
<g id="edge20" class="edge">
<title>Node1&#45;&gt;Node23</title>
<path fill="none" stroke="midnightblue" d="M73.89,-406.8C82.47,-450.5 109.3,-555.51 176,-608 182.9,-613.43 190.99,-617.41 199.44,-620.3"/>
<polygon fill="midnightblue" stroke="midnightblue" points="77.31,-406.05 72.05,-396.85 70.43,-407.32 77.31,-406.05"/>
</g>
<!-- Node24 -->
<g id="node18" class="node">
<title>Node24</title>
<g id="a_node18"><a xlink:href="classlemons_1_1dsp_1_1osc_1_1ChoosableOscillator.html" target="_top" xlink:title="A class that encapsulates together all the kinds of oscillators, and allows you to seamlessly switch ...">
<polygon fill="none" stroke="black" points="189.5,-695 189.5,-725 344.5,-725 344.5,-695 189.5,-695"/>
<text text-anchor="start" x="197.5" y="-713" font-family="Helvetica,sans-Serif" font-size="10.00">lemons::dsp::osc::Choosable</text>
<text text-anchor="middle" x="267" y="-702" font-family="Helvetica,sans-Serif" font-size="10.00">Oscillator&lt; SampleType &gt;</text>
</a>
</g>
</g>
<!-- Node1&#45;&gt;Node24 -->
<g id="edge21" class="edge">
<title>Node1&#45;&gt;Node24</title>
<path fill="none" stroke="midnightblue" d="M70.18,-406.77C70.47,-459.23 78.72,-603.15 157,-680 166.03,-688.87 177.44,-695.17 189.44,-699.64"/>
<polygon fill="midnightblue" stroke="midnightblue" points="73.68,-406.78 70.23,-396.77 66.68,-406.75 73.68,-406.78"/>
</g>
<!-- Node25 -->
<g id="node19" class="node">
<title>Node25</title>
<g id="a_node19"><a xlink:href="classlemons_1_1plugin_1_1ModulationManager.html" target="_top" xlink:title=" ">
<polygon fill="none" stroke="black" points="192.5,-568 192.5,-598 341.5,-598 341.5,-568 192.5,-568"/>
<text text-anchor="start" x="200.5" y="-586" font-family="Helvetica,sans-Serif" font-size="10.00">lemons::plugin::Modulation</text>
<text text-anchor="middle" x="267" y="-575" font-family="Helvetica,sans-Serif" font-size="10.00">Manager</text>
</a>
</g>
</g>
<!-- Node1&#45;&gt;Node25 -->
<g id="edge23" class="edge">
<title>Node1&#45;&gt;Node25</title>
<path fill="none" stroke="midnightblue" d="M76.85,-406.27C89.65,-442.05 122.04,-518.77 176,-559 180.93,-562.67 186.37,-565.78 192.08,-568.42"/>
<polygon fill="midnightblue" stroke="midnightblue" points="80.07,-404.88 73.5,-396.56 73.45,-407.16 80.07,-404.88"/>
</g>
<!-- Node26 -->
<g id="node20" class="node">
<title>Node26</title>
<g id="a_node20"><a xlink:href="structlemons_1_1plugin_1_1ModulationManager_1_1LFO.html" target="_top" xlink:title=" ">
<polygon fill="none" stroke="black" points="192.5,-519 192.5,-549 341.5,-549 341.5,-519 192.5,-519"/>
<text text-anchor="start" x="200.5" y="-537" font-family="Helvetica,sans-Serif" font-size="10.00">lemons::plugin::Modulation</text>
<text text-anchor="middle" x="267" y="-526" font-family="Helvetica,sans-Serif" font-size="10.00">Manager::LFO</text>
</a>
</g>
</g>
<!-- Node1&#45;&gt;Node26 -->
<g id="edge24" class="edge">
<title>Node1&#45;&gt;Node26</title>
<path fill="none" stroke="midnightblue" d="M81.39,-405.39C98.25,-432.24 133.22,-481.92 176,-509 182.03,-512.82 188.64,-516.06 195.47,-518.81"/>
<polygon fill="midnightblue" stroke="midnightblue" points="84.22,-403.31 76.02,-396.61 78.25,-406.97 84.22,-403.31"/>
</g>
<!-- Node27 -->
<g id="node21" class="node">
<title>Node27</title>
<g id="a_node21"><a xlink:href="classlemons_1_1plugin_1_1Parameter.html" target="_top" xlink:title="A plugin parameter class that allows you to use my Serializing API, and has a few other cool bells an...">
<polygon fill="none" stroke="black" points="194.5,-480.5 194.5,-499.5 339.5,-499.5 339.5,-480.5 194.5,-480.5"/>
<text text-anchor="middle" x="267" y="-487.5" font-family="Helvetica,sans-Serif" font-size="10.00">lemons::plugin::Parameter</text>
</a>
</g>
</g>
<!-- Node1&#45;&gt;Node27 -->
<g id="edge25" class="edge">
<title>Node1&#45;&gt;Node27</title>
<path fill="none" stroke="midnightblue" d="M86.46,-403.75C105.8,-423.02 140.26,-454.16 176,-471 184.23,-474.88 193.26,-477.97 202.33,-480.44"/>
<polygon fill="midnightblue" stroke="midnightblue" points="88.87,-401.21 79.36,-396.53 83.87,-406.12 88.87,-401.21"/>
</g>
<!-- Node42 -->
<g id="node34" class="node">
<title>Node42</title>
<g id="a_node34"><a xlink:href="classlemons_1_1plugin_1_1ParameterList.html" target="_top" xlink:title="This class manages a list of a plugin&#39;s parameters.">
<polygon fill="none" stroke="black" points="186,-442.5 186,-461.5 348,-461.5 348,-442.5 186,-442.5"/>
<text text-anchor="middle" x="267" y="-449.5" font-family="Helvetica,sans-Serif" font-size="10.00">lemons::plugin::ParameterList</text>
</a>
</g>
</g>
<!-- Node1&#45;&gt;Node42 -->
<g id="edge39" class="edge">
<title>Node1&#45;&gt;Node42</title>
<path fill="none" stroke="midnightblue" d="M98.74,-401.19C119.65,-411.23 149.06,-424.38 176,-433 187.41,-436.65 199.86,-439.79 211.76,-442.41"/>
<polygon fill="midnightblue" stroke="midnightblue" points="100.01,-397.92 89.49,-396.68 96.95,-404.21 100.01,-397.92"/>
</g>
<!-- Node43 -->
<g id="node35" class="node">
<title>Node43</title>
<g id="a_node35"><a xlink:href="structlemons_1_1plugin_1_1ParamHolderBase.html" target="_top" xlink:title="Base class for ParameterHolder that allows any kind of parameter to be accessed without knowing the f...">
<polygon fill="none" stroke="black" points="176,-404.5 176,-423.5 358,-423.5 358,-404.5 176,-404.5"/>
<text text-anchor="middle" x="267" y="-411.5" font-family="Helvetica,sans-Serif" font-size="10.00">lemons::plugin::ParamHolderBase</text>
</a>
</g>
</g>
<!-- Node1&#45;&gt;Node43 -->
<g id="edge40" class="edge">
<title>Node1&#45;&gt;Node43</title>
<path fill="none" stroke="midnightblue" d="M149.43,-397.9C165.24,-400.08 181.74,-402.36 197.18,-404.5"/>
<polygon fill="midnightblue" stroke="midnightblue" points="149.54,-394.38 139.15,-396.48 148.58,-401.32 149.54,-394.38"/>
</g>
<!-- Node46 -->
<g id="node38" class="node">
<title>Node46</title>
<g id="a_node38"><a xlink:href="structlemons_1_1plugin_1_1PluginState.html" target="_top" xlink:title="Represents the top&#45;level state of a plugin as a whole.">
<polygon fill="none" stroke="black" points="192,-355 192,-385 342,-385 342,-355 192,-355"/>
<text text-anchor="start" x="200" y="-373" font-family="Helvetica,sans-Serif" font-size="10.00">lemons::plugin::PluginState</text>
<text text-anchor="middle" x="267" y="-362" font-family="Helvetica,sans-Serif" font-size="10.00">&lt; StateType, &gt;</text>
</a>
</g>
</g>
<!-- Node1&#45;&gt;Node46 -->
<g id="edge44" class="edge">
<title>Node1&#45;&gt;Node46</title>
<path fill="none" stroke="midnightblue" d="M149.27,-380.15C163.33,-378.93 177.94,-377.66 191.86,-376.45"/>
<polygon fill="midnightblue" stroke="midnightblue" points="148.81,-376.68 139.15,-381.03 149.42,-383.65 148.81,-376.68"/>
</g>
<!-- Node47 -->
<g id="node39" class="node">
<title>Node47</title>
<g id="a_node39"><a xlink:href="structlemons_1_1plugin_1_1PluginState.html" target="_top" xlink:title=" ">
<polygon fill="none" stroke="black" points="495.5,-303 495.5,-333 645.5,-333 645.5,-303 495.5,-303"/>
<text text-anchor="start" x="503.5" y="-321" font-family="Helvetica,sans-Serif" font-size="10.00">lemons::plugin::PluginState</text>
<text text-anchor="middle" x="570.5" y="-310" font-family="Helvetica,sans-Serif" font-size="10.00">&lt; StateType &gt;</text>
</a>
</g>
</g>
<!-- Node1&#45;&gt;Node47 -->
<g id="edge56" class="edge">
<title>Node1&#45;&gt;Node47</title>
<path fill="none" stroke="midnightblue" d="M99,-373.23C119.83,-363.84 149.02,-352.06 176,-346 285.26,-321.47 415.47,-316.85 495.3,-316.72"/>
<polygon fill="midnightblue" stroke="midnightblue" points="97.4,-370.11 89.78,-377.48 100.33,-376.47 97.4,-370.11"/>
</g>
<!-- Node48 -->
<g id="node40" class="node">
<title>Node48</title>
<g id="a_node40"><a xlink:href="structlemons_1_1plugin_1_1Preset.html" target="_top" xlink:title=" ">
<polygon fill="none" stroke="black" points="204.5,-278.5 204.5,-297.5 329.5,-297.5 329.5,-278.5 204.5,-278.5"/>
<text text-anchor="middle" x="267" y="-285.5" font-family="Helvetica,sans-Serif" font-size="10.00">lemons::plugin::Preset</text>
</a>
</g>
</g>
<!-- Node1&#45;&gt;Node48 -->
<g id="edge46" class="edge">
<title>Node1&#45;&gt;Node48</title>
<path fill="none" stroke="midnightblue" d="M85.41,-369.8C101.38,-352.51 128.3,-326.41 157,-312 171.63,-304.65 188.48,-299.54 204.49,-295.99"/>
<polygon fill="midnightblue" stroke="midnightblue" points="82.58,-367.71 78.5,-377.49 87.79,-372.39 82.58,-367.71"/>
</g>
<!-- Node49 -->
<g id="node41" class="node">
<title>Node49</title>
<g id="a_node41"><a xlink:href="classlemons_1_1plugin_1_1StateBase.html" target="_top" xlink:title="Base class for a plugin&#39;s state.">
<polygon fill="none" stroke="black" points="195,-240.5 195,-259.5 339,-259.5 339,-240.5 195,-240.5"/>
<text text-anchor="middle" x="267" y="-247.5" font-family="Helvetica,sans-Serif" font-size="10.00">lemons::plugin::StateBase</text>
</a>
</g>
</g>
<!-- Node1&#45;&gt;Node49 -->
<g id="edge47" class="edge">
<title>Node1&#45;&gt;Node49</title>
<path fill="none" stroke="midnightblue" d="M81.58,-368.49C98.46,-342 133.21,-293.76 176,-269 182.63,-265.16 189.94,-262.09 197.44,-259.64"/>
<polygon fill="midnightblue" stroke="midnightblue" points="78.49,-366.83 76.19,-377.18 84.44,-370.52 78.49,-366.83"/>
</g>
<!-- Node52 -->
<g id="node44" class="node">
<title>Node52</title>
<g id="a_node44"><a xlink:href="structlemons_1_1serializing_1_1Toggler.html" target="_top" xlink:title="Class that manages several versions of the state of a serializable object and allows you to switch be...">
<polygon fill="none" stroke="black" points="200.5,-191 200.5,-221 333.5,-221 333.5,-191 200.5,-191"/>
<text text-anchor="start" x="208.5" y="-209" font-family="Helvetica,sans-Serif" font-size="10.00">lemons::serializing</text>
<text text-anchor="middle" x="267" y="-198" font-family="Helvetica,sans-Serif" font-size="10.00">::Toggler&lt; numStates &gt;</text>
</a>
</g>
</g>
<!-- Node1&#45;&gt;Node52 -->
<g id="edge50" class="edge">
<title>Node1&#45;&gt;Node52</title>
<path fill="none" stroke="midnightblue" d="M78.18,-367.74C92.38,-334.62 125.94,-267 176,-231 183.24,-225.79 191.52,-221.67 200.07,-218.4"/>
<polygon fill="midnightblue" stroke="midnightblue" points="74.86,-366.61 74.25,-377.19 81.32,-369.3 74.86,-366.61"/>
</g>
<!-- Node53 -->
<g id="node45" class="node">
<title>Node53</title>
<g id="a_node45"><a xlink:href="structlemons_1_1serializing_1_1Toggler.html" target="_top" xlink:title=" ">
<polygon fill="none" stroke="black" points="516,-152 516,-182 625,-182 625,-152 516,-152"/>
<text text-anchor="start" x="524" y="-170" font-family="Helvetica,sans-Serif" font-size="10.00">lemons::serializing</text>
<text text-anchor="middle" x="570.5" y="-159" font-family="Helvetica,sans-Serif" font-size="10.00">::Toggler&lt; 3 &gt;</text>
</a>
</g>
</g>
<!-- Node1&#45;&gt;Node53 -->
<g id="edge57" class="edge">
<title>Node1&#45;&gt;Node53</title>
<path fill="none" stroke="midnightblue" d="M73.84,-367.52C82.27,-325.12 108.74,-224.81 176,-182 230.86,-147.08 421.51,-155.78 515.82,-162.55"/>
<polygon fill="midnightblue" stroke="midnightblue" points="70.39,-366.95 72,-377.42 77.27,-368.23 70.39,-366.95"/>
</g>
<!-- Node54 -->
<g id="node46" class="node">
<title>Node54</title>
<g id="a_node46"><a xlink:href="structlemons_1_1spline_1_1Knot.html" target="_top" xlink:title=" ">
<polygon fill="none" stroke="black" points="209,-114.5 209,-133.5 325,-133.5 325,-114.5 209,-114.5"/>
<text text-anchor="middle" x="267" y="-121.5" font-family="Helvetica,sans-Serif" font-size="10.00">lemons::spline::Knot</text>
</a>
</g>
</g>
<!-- Node1&#45;&gt;Node54 -->
<g id="edge52" class="edge">
<title>Node1&#45;&gt;Node54</title>
<path fill="none" stroke="midnightblue" d="M71.48,-367.36C74.89,-321.48 90.03,-206.75 157,-148 171.2,-135.54 190.4,-129.09 208.72,-125.88"/>
<polygon fill="midnightblue" stroke="midnightblue" points="67.98,-367.26 70.85,-377.46 74.97,-367.7 67.98,-367.26"/>
</g>
<!-- Node55 -->
<g id="node47" class="node">
<title>Node55</title>
<g id="a_node47"><a xlink:href="structlemons_1_1spline_1_1Knots.html" target="_top" xlink:title=" ">
<polygon fill="none" stroke="black" points="206,-76.5 206,-95.5 328,-95.5 328,-76.5 206,-76.5"/>
<text text-anchor="middle" x="267" y="-83.5" font-family="Helvetica,sans-Serif" font-size="10.00">lemons::spline::Knots</text>
</a>
</g>
</g>
<!-- Node1&#45;&gt;Node55 -->
<g id="edge53" class="edge">
<title>Node1&#45;&gt;Node55</title>
<path fill="none" stroke="midnightblue" d="M71.25,-367.17C74.39,-314.66 90.76,-171.53 176,-105 184.69,-98.22 195.23,-93.71 205.99,-90.75"/>
<polygon fill="midnightblue" stroke="midnightblue" points="67.74,-367.29 70.74,-377.45 74.73,-367.64 67.74,-367.29"/>
</g>
<!-- Node56 -->
<g id="node48" class="node">
<title>Node56</title>
<g id="a_node48"><a xlink:href="structlemons_1_1spline_1_1Spline.html" target="_top" xlink:title=" ">
<polygon fill="none" stroke="black" points="205,-38.5 205,-57.5 329,-57.5 329,-38.5 205,-38.5"/>
<text text-anchor="middle" x="267" y="-45.5" font-family="Helvetica,sans-Serif" font-size="10.00">lemons::spline::Spline</text>
</a>
</g>
</g>
<!-- Node1&#45;&gt;Node56 -->
<g id="edge54" class="edge">
<title>Node1&#45;&gt;Node56</title>
<path fill="none" stroke="midnightblue" d="M70.46,-367.1C71.51,-310.35 82.86,-146.71 176,-67 184.13,-60.04 194.17,-55.43 204.56,-52.4"/>
<polygon fill="midnightblue" stroke="midnightblue" points="66.96,-367.21 70.37,-377.24 73.96,-367.28 66.96,-367.21"/>
</g>
<!-- Node57 -->
<g id="node49" class="node">
<title>Node57</title>
<g id="a_node49"><a xlink:href="structlemons_1_1Version.html" target="_top" xlink:title="A class that represents a version of something, with major, minor, and patch numbers.">
<polygon fill="none" stroke="black" points="219.5,-0.5 219.5,-19.5 314.5,-19.5 314.5,-0.5 219.5,-0.5"/>
<text text-anchor="middle" x="267" y="-7.5" font-family="Helvetica,sans-Serif" font-size="10.00">lemons::Version</text>
</a>
</g>
</g>
<!-- Node1&#45;&gt;Node57 -->
<g id="edge55" class="edge">
<title>Node1&#45;&gt;Node57</title>
<path fill="none" stroke="midnightblue" d="M73.54,-366.86C84.32,-298.15 122.98,-74.67 176,-29 187.98,-18.68 204.15,-13.5 219.48,-11.03"/>
<polygon fill="midnightblue" stroke="midnightblue" points="70.01,-366.75 71.95,-377.17 76.93,-367.82 70.01,-366.75"/>
</g>
<!-- Node3 -->
<g id="node3" class="node">
<title>Node3</title>
<g id="a_node3"><a xlink:href="structlemons_1_1dsp_1_1FX_1_1SidechainableAudioEffect.html" target="_top" xlink:title=" ">
<polygon fill="none" stroke="black" points="863,-974 863,-1004 1032,-1004 1032,-974 863,-974"/>
<text text-anchor="start" x="871" y="-992" font-family="Helvetica,sans-Serif" font-size="10.00">lemons::dsp::FX::Sidechainable</text>
<text text-anchor="middle" x="947.5" y="-981" font-family="Helvetica,sans-Serif" font-size="10.00">AudioEffect&lt; float &gt;</text>
</a>
</g>
</g>
<!-- Node2&#45;&gt;Node3 -->
<g id="edge2" class="edge">
<title>Node2&#45;&gt;Node3</title>
<path fill="none" stroke="midnightblue" d="M658.82,-981.33C720.32,-982.97 802.17,-985.15 862.84,-986.77"/>
<polygon fill="midnightblue" stroke="midnightblue" points="658.84,-977.83 648.75,-981.06 658.65,-984.83 658.84,-977.83"/>
</g>
<!-- Node6 -->
<g id="node5" class="node">
<title>Node6</title>
<g id="a_node5"><a xlink:href="classlemons_1_1dsp_1_1FX_1_1SmoothedGain.html" target="_top" xlink:title=" ">
<polygon fill="none" stroke="black" points="872.5,-888 872.5,-918 1022.5,-918 1022.5,-888 872.5,-888"/>
<text text-anchor="start" x="880.5" y="-906" font-family="Helvetica,sans-Serif" font-size="10.00">lemons::dsp::FX::Smoothed</text>
<text text-anchor="middle" x="947.5" y="-895" font-family="Helvetica,sans-Serif" font-size="10.00">Gain&lt; float, 2 &gt;</text>
</a>
</g>
</g>
<!-- Node2&#45;&gt;Node6 -->
<g id="edge4" class="edge">
<title>Node2&#45;&gt;Node6</title>
<path fill="none" stroke="midnightblue" d="M655.41,-961.99C720.46,-948.81 809.77,-930.71 872.25,-918.05"/>
<polygon fill="midnightblue" stroke="midnightblue" points="654.69,-958.57 645.59,-963.98 656.08,-965.43 654.69,-958.57"/>
</g>
<!-- Node4 -->
<g id="node4" class="node">
<title>Node4</title>
<g id="a_node4"><a xlink:href="structlemons_1_1dsp_1_1FX_1_1LevelReportingAudioEffect.html" target="_top" xlink:title=" ">
<polygon fill="none" stroke="red" points="1126,-994 1126,-1024 1300,-1024 1300,-994 1126,-994"/>
<text text-anchor="start" x="1134" y="-1012" font-family="Helvetica,sans-Serif" font-size="10.00">lemons::dsp::FX::LevelReporting</text>
<text text-anchor="middle" x="1213" y="-1001" font-family="Helvetica,sans-Serif" font-size="10.00">AudioEffect&lt; float &gt;</text>
</a>
</g>
</g>
<!-- Node3&#45;&gt;Node4 -->
<g id="edge3" class="edge">
<title>Node3&#45;&gt;Node4</title>
<path fill="none" stroke="midnightblue" d="M1042.51,-996.14C1069.65,-998.2 1099.12,-1000.43 1125.76,-1002.45"/>
<polygon fill="midnightblue" stroke="midnightblue" points="1042.47,-992.62 1032.24,-995.36 1041.94,-999.6 1042.47,-992.62"/>
</g>
<!-- Node8&#45;&gt;Node2 -->
<g id="edge19" class="edge">
<title>Node8&#45;&gt;Node2</title>
<path fill="none" stroke="orange" stroke-dasharray="5,2" d="M313.92,-899.82C354.11,-915.84 414.3,-938.78 468,-955 478.57,-958.19 489.87,-961.23 500.95,-964"/>
<polygon fill="orange" stroke="orange" points="314.99,-896.47 304.4,-896 312.38,-902.97 314.99,-896.47"/>
<text text-anchor="middle" x="413" y="-951" font-family="Helvetica,sans-Serif" font-size="10.00"> &lt; float &gt;</text>
</g>
<!-- Node9 -->
<g id="node8" class="node">
<title>Node9</title>
<g id="a_node8"><a xlink:href="classlemons_1_1dsp_1_1FX_1_1EQ.html" target="_top" xlink:title="An equalizer effect class.">
<polygon fill="none" stroke="black" points="513.5,-915 513.5,-945 627.5,-945 627.5,-915 513.5,-915"/>
<text text-anchor="start" x="521.5" y="-933" font-family="Helvetica,sans-Serif" font-size="10.00">lemons::dsp::FX::EQ</text>
<text text-anchor="middle" x="570.5" y="-922" font-family="Helvetica,sans-Serif" font-size="10.00">&lt; SampleType &gt;</text>
</a>
</g>
</g>
<!-- Node8&#45;&gt;Node9 -->
<g id="edge7" class="edge">
<title>Node8&#45;&gt;Node9</title>
<path fill="none" stroke="midnightblue" d="M355.27,-895.18C406.22,-903.46 469,-913.67 513.39,-920.88"/>
<polygon fill="midnightblue" stroke="midnightblue" points="355.68,-891.7 345.25,-893.56 354.56,-898.61 355.68,-891.7"/>
</g>
<!-- Node10 -->
<g id="node9" class="node">
<title>Node10</title>
<g id="a_node9"><a xlink:href="classlemons_1_1dsp_1_1FX_1_1Filter.html" target="_top" xlink:title="A filter audio effect class that wraps the more low&#45;level filters::Filter.">
<polygon fill="none" stroke="black" points="508,-866 508,-896 633,-896 633,-866 508,-866"/>
<text text-anchor="start" x="516" y="-884" font-family="Helvetica,sans-Serif" font-size="10.00">lemons::dsp::FX::Filter</text>
<text text-anchor="middle" x="570.5" y="-873" font-family="Helvetica,sans-Serif" font-size="10.00">&lt; SampleType &gt;</text>
</a>
</g>
</g>
<!-- Node8&#45;&gt;Node10 -->
<g id="edge8" class="edge">
<title>Node8&#45;&gt;Node10</title>
<path fill="none" stroke="midnightblue" d="M355.48,-881C404.22,-881 463.74,-881 507.63,-881"/>
<polygon fill="midnightblue" stroke="midnightblue" points="355.25,-877.5 345.25,-881 355.25,-884.5 355.25,-877.5"/>
</g>
<!-- Node11 -->
<g id="node10" class="node">
<title>Node11</title>
<g id="a_node10"><a xlink:href="classlemons_1_1dsp_1_1FX_1_1Saturator.html" target="_top" xlink:title=" ">
<polygon fill="none" stroke="black" points="497.5,-817 497.5,-847 643.5,-847 643.5,-817 497.5,-817"/>
<text text-anchor="start" x="505.5" y="-835" font-family="Helvetica,sans-Serif" font-size="10.00">lemons::dsp::FX::Saturator</text>
<text text-anchor="middle" x="570.5" y="-824" font-family="Helvetica,sans-Serif" font-size="10.00">&lt; SampleType &gt;</text>
</a>
</g>
</g>
<!-- Node8&#45;&gt;Node11 -->
<g id="edge9" class="edge">
<title>Node8&#45;&gt;Node11</title>
<path fill="none" stroke="#8b1a1a" d="M355.31,-866.81C400.38,-859.49 454.71,-850.66 497.37,-843.72"/>
<polygon fill="#8b1a1a" stroke="#8b1a1a" points="354.56,-863.39 345.25,-868.44 355.68,-870.3 354.56,-863.39"/>
</g>
<!-- Node12 -->
<g id="node11" class="node">
<title>Node12</title>
<g id="a_node11"><a xlink:href="structlemons_1_1dsp_1_1FX_1_1SidechainableAudioEffect.html" target="_top" xlink:title="Base class for audio effects that accept a sidechain signal.">
<polygon fill="none" stroke="black" points="486,-1013 486,-1043 655,-1043 655,-1013 486,-1013"/>
<text text-anchor="start" x="494" y="-1031" font-family="Helvetica,sans-Serif" font-size="10.00">lemons::dsp::FX::Sidechainable</text>
<text text-anchor="middle" x="570.5" y="-1020" font-family="Helvetica,sans-Serif" font-size="10.00">AudioEffect&lt; SampleType &gt;</text>
</a>
</g>
</g>
<!-- Node8&#45;&gt;Node12 -->
<g id="edge10" class="edge">
<title>Node8&#45;&gt;Node12</title>
<path fill="none" stroke="midnightblue" d="M292.66,-903.03C313.68,-920.96 345.27,-945.99 376,-963 406.77,-980.03 419.03,-974.34 450,-991 458.69,-995.68 459.03,-999.9 468,-1004 475.49,-1007.43 483.53,-1010.39 491.68,-1012.95"/>
<polygon fill="midnightblue" stroke="midnightblue" points="294.74,-900.19 284.88,-896.3 290.16,-905.49 294.74,-900.19"/>
</g>
<!-- Node19 -->
<g id="node13" class="node">
<title>Node19</title>
<g id="a_node13"><a xlink:href="classlemons_1_1dsp_1_1FX_1_1SmoothedGain.html" target="_top" xlink:title="A handy effect class that allows you to change the gain of a stream of audio, and will smooth the cha...">
<polygon fill="none" stroke="black" points="495.5,-768 495.5,-798 645.5,-798 645.5,-768 495.5,-768"/>
<text text-anchor="start" x="503.5" y="-786" font-family="Helvetica,sans-Serif" font-size="10.00">lemons::dsp::FX::Smoothed</text>
<text text-anchor="middle" x="570.5" y="-775" font-family="Helvetica,sans-Serif" font-size="10.00">Gain&lt; SampleType &gt;</text>
</a>
</g>
</g>
<!-- Node8&#45;&gt;Node19 -->
<g id="edge14" class="edge">
<title>Node8&#45;&gt;Node19</title>
<path fill="none" stroke="midnightblue" d="M315.1,-862.17C355.32,-846.48 414.92,-824.17 468,-808 479.54,-804.48 491.94,-801.11 503.97,-798.03"/>
<polygon fill="midnightblue" stroke="midnightblue" points="313.59,-859 305.56,-865.9 316.14,-865.52 313.59,-859"/>
</g>
<!-- Node21 -->
<g id="node15" class="node">
<title>Node21</title>
<g id="a_node15"><a xlink:href="classlemons_1_1dsp_1_1FX_1_1StereoPanner.html" target="_top" xlink:title=" ">
<polygon fill="none" stroke="black" points="488,-719 488,-749 653,-749 653,-719 488,-719"/>
<text text-anchor="start" x="496" y="-737" font-family="Helvetica,sans-Serif" font-size="10.00">lemons::dsp::FX::StereoPanner</text>
<text text-anchor="middle" x="570.5" y="-726" font-family="Helvetica,sans-Serif" font-size="10.00">&lt; SampleType &gt;</text>
</a>
</g>
</g>
<!-- Node8&#45;&gt;Node21 -->
<g id="edge17" class="edge">
<title>Node8&#45;&gt;Node21</title>
<path fill="none" stroke="midnightblue" d="M295.81,-859.66C333,-832.19 401.92,-784.92 468,-759 477.55,-755.26 487.82,-751.95 498.04,-749.06"/>
<polygon fill="midnightblue" stroke="midnightblue" points="293.42,-857.08 287.5,-865.87 297.6,-862.69 293.42,-857.08"/>
</g>
<!-- Node22 -->
<g id="node16" class="node">
<title>Node22</title>
<g id="a_node16"><a xlink:href="classlemons_1_1dsp_1_1FX_1_1SmoothedGain.html" target="_top" xlink:title=" ">
<polygon fill="none" stroke="black" points="479.5,-1062.5 479.5,-1081.5 661.5,-1081.5 661.5,-1062.5 479.5,-1062.5"/>
<text text-anchor="middle" x="570.5" y="-1069.5" font-family="Helvetica,sans-Serif" font-size="10.00">SmoothedGain&lt; SampleType, 1 &gt;</text>
</a>
</g>
</g>
<!-- Node8&#45;&gt;Node22 -->
<g id="edge18" class="edge">
<title>Node8&#45;&gt;Node22</title>
<path fill="none" stroke="midnightblue" d="M286.39,-904.27C318.51,-942.97 388.98,-1019.59 468,-1053 477.25,-1056.91 487.3,-1060.02 497.38,-1062.49"/>
<polygon fill="midnightblue" stroke="midnightblue" points="288.82,-901.71 279.78,-896.18 283.4,-906.14 288.82,-901.71"/>
</g>
<!-- Node12&#45;&gt;Node3 -->
<g id="edge13" class="edge">
<title>Node12&#45;&gt;Node3</title>
<path fill="none" stroke="orange" stroke-dasharray="5,2" d="M665.15,-1018.26C725.82,-1011.95 804.14,-1003.81 862.74,-997.71"/>
<polygon fill="orange" stroke="orange" points="664.77,-1014.78 655.19,-1019.3 665.5,-1021.74 664.77,-1014.78"/>
<text text-anchor="middle" x="763" y="-1018" font-family="Helvetica,sans-Serif" font-size="10.00"> &lt; float &gt;</text>
</g>
<!-- Node13 -->
<g id="node12" class="node">
<title>Node13</title>
<g id="a_node12"><a xlink:href="structlemons_1_1dsp_1_1FX_1_1LevelReportingAudioEffect.html" target="_top" xlink:title="Base class for audio effects that can report their level or gain reduction.">
<polygon fill="none" stroke="red" points="860.5,-1023 860.5,-1053 1034.5,-1053 1034.5,-1023 860.5,-1023"/>
<text text-anchor="start" x="868.5" y="-1041" font-family="Helvetica,sans-Serif" font-size="10.00">lemons::dsp::FX::LevelReporting</text>
<text text-anchor="middle" x="947.5" y="-1030" font-family="Helvetica,sans-Serif" font-size="10.00">AudioEffect&lt; SampleType &gt;</text>
</a>
</g>
</g>
<!-- Node12&#45;&gt;Node13 -->
<g id="edge11" class="edge">
<title>Node12&#45;&gt;Node13</title>
<path fill="none" stroke="midnightblue" d="M665.4,-1030.5C725.25,-1032.1 802.21,-1034.15 860.46,-1035.71"/>
<polygon fill="midnightblue" stroke="midnightblue" points="665.28,-1027 655.19,-1030.23 665.09,-1034 665.28,-1027"/>
</g>
<!-- Node13&#45;&gt;Node4 -->
<g id="edge12" class="edge">
<title>Node13&#45;&gt;Node4</title>
<path fill="none" stroke="orange" stroke-dasharray="5,2" d="M1044.85,-1027.4C1071.41,-1024.47 1100.04,-1021.32 1125.98,-1018.47"/>
<polygon fill="orange" stroke="orange" points="1044.34,-1023.93 1034.78,-1028.5 1045.1,-1030.89 1044.34,-1023.93"/>
<text text-anchor="middle" x="1084" y="-1028" font-family="Helvetica,sans-Serif" font-size="10.00"> &lt; float &gt;</text>
</g>
<!-- Node19&#45;&gt;Node6 -->
<g id="edge16" class="edge">
<title>Node19&#45;&gt;Node6</title>
<path fill="none" stroke="orange" stroke-dasharray="5,2" d="M646.23,-800.57C655.28,-802.94 664.37,-805.45 673,-808 757.34,-832.98 854.18,-868.2 907.02,-887.99"/>
<polygon fill="orange" stroke="orange" points="647,-797.15 636.45,-798.04 645.26,-803.93 647,-797.15"/>
<text text-anchor="middle" x="763" y="-862" font-family="Helvetica,sans-Serif" font-size="10.00"> &lt; float, 2 &gt;</text>
</g>
<!-- Node20 -->
<g id="node14" class="node">
<title>Node20</title>
<g id="a_node14"><a xlink:href="classlemons_1_1dsp_1_1FX_1_1SmoothedGain.html" target="_top" xlink:title=" ">
<polygon fill="none" stroke="black" points="872.5,-769 872.5,-799 1022.5,-799 1022.5,-769 872.5,-769"/>
<text text-anchor="start" x="880.5" y="-787" font-family="Helvetica,sans-Serif" font-size="10.00">lemons::dsp::FX::Smoothed</text>
<text text-anchor="middle" x="947.5" y="-776" font-family="Helvetica,sans-Serif" font-size="10.00">Gain&lt; SampleType, 1 &gt;</text>
</a>
</g>
</g>
<!-- Node19&#45;&gt;Node20 -->
<g id="edge15" class="edge">
<title>Node19&#45;&gt;Node20</title>
<path fill="none" stroke="orange" stroke-dasharray="5,2" d="M655.81,-783.22C720.83,-783.4 809.9,-783.64 872.25,-783.8"/>
<polygon fill="orange" stroke="orange" points="655.6,-779.72 645.59,-783.2 655.58,-786.72 655.6,-779.72"/>
<text text-anchor="middle" x="763" y="-786" font-family="Helvetica,sans-Serif" font-size="10.00"> &lt; SampleType, 1 &gt;</text>
</g>
<!-- Node24&#45;&gt;Node7 -->
<g id="edge22" class="edge">
<title>Node24&#45;&gt;Node7</title>
<path fill="none" stroke="orange" stroke-dasharray="5,2" d="M354.87,-702.8C398.43,-699.18 450.72,-694.85 492.78,-691.36"/>
<polygon fill="orange" stroke="orange" points="354.54,-699.31 344.86,-703.63 355.12,-706.29 354.54,-699.31"/>
<text text-anchor="middle" x="413" y="-703" font-family="Helvetica,sans-Serif" font-size="10.00"> &lt; float &gt;</text>
</g>
<!-- Node28 -->
<g id="node22" class="node">
<title>Node28</title>
<g id="a_node22"><a xlink:href="classlemons_1_1plugin_1_1TypedParameter.html" target="_top" xlink:title="A parameter that can be stored as a type other than a float, but still inherits from my Parameter bas...">
<polygon fill="none" stroke="black" points="484,-475 484,-505 657,-505 657,-475 484,-475"/>
<text text-anchor="start" x="492" y="-493" font-family="Helvetica,sans-Serif" font-size="10.00">lemons::plugin::TypedParameter</text>
<text text-anchor="middle" x="570.5" y="-482" font-family="Helvetica,sans-Serif" font-size="10.00">&lt; ValueType &gt;</text>
</a>
</g>
</g>
<!-- Node27&#45;&gt;Node28 -->
<g id="edge26" class="edge">
<title>Node27&#45;&gt;Node28</title>
<path fill="none" stroke="midnightblue" d="M349.9,-490C391.39,-490 441.73,-490 483.74,-490"/>
<polygon fill="midnightblue" stroke="midnightblue" points="349.83,-486.5 339.83,-490 349.83,-493.5 349.83,-486.5"/>
</g>
<!-- Node39 -->
<g id="node32" class="node">
<title>Node39</title>
<g id="a_node32"><a xlink:href="classlemons_1_1plugin_1_1TypedParameter.html" target="_top" xlink:title=" ">
<polygon fill="none" stroke="black" points="861,-720 861,-750 1034,-750 1034,-720 861,-720"/>
<text text-anchor="start" x="869" y="-738" font-family="Helvetica,sans-Serif" font-size="10.00">lemons::plugin::TypedParameter</text>
<text text-anchor="middle" x="947.5" y="-727" font-family="Helvetica,sans-Serif" font-size="10.00">&lt; bool &gt;</text>
</a>
</g>
</g>
<!-- Node27&#45;&gt;Node39 -->
<g id="edge38" class="edge">
<title>Node27&#45;&gt;Node39</title>
<path fill="none" stroke="midnightblue" d="M330.18,-501.87C339.6,-504.22 349.13,-506.93 358,-510 504.73,-560.73 535.08,-589.71 673,-661 681.13,-665.2 682.49,-667.64 691,-671 746.93,-693.1 812.81,-709.38 863.67,-719.99"/>
<polygon fill="midnightblue" stroke="midnightblue" points="330.98,-498.46 320.44,-499.54 329.35,-505.27 330.98,-498.46"/>
</g>
<!-- Node29 -->
<g id="node23" class="node">
<title>Node29</title>
<g id="a_node23"><a xlink:href="structlemons_1_1plugin_1_1FloatAmountParameter.html" target="_top" xlink:title="A parameter that represents a value in a normalized 0&#45;1 range.">
<polygon fill="none" stroke="black" points="868.5,-426 868.5,-456 1026.5,-456 1026.5,-426 868.5,-426"/>
<text text-anchor="start" x="876.5" y="-444" font-family="Helvetica,sans-Serif" font-size="10.00">lemons::plugin::FloatAmount</text>
<text text-anchor="middle" x="947.5" y="-433" font-family="Helvetica,sans-Serif" font-size="10.00">Parameter&lt; float &gt;</text>
</a>
</g>
</g>
<!-- Node28&#45;&gt;Node29 -->
<g id="edge27" class="edge">
<title>Node28&#45;&gt;Node29</title>
<path fill="none" stroke="midnightblue" d="M667.3,-477.48C729.62,-469.34 809.87,-458.85 868.33,-451.21"/>
<polygon fill="midnightblue" stroke="midnightblue" points="666.52,-474.05 657.06,-478.82 667.43,-480.99 666.52,-474.05"/>
</g>
<!-- Node30 -->
<g id="node24" class="node">
<title>Node30</title>
<g id="a_node24"><a xlink:href="structlemons_1_1plugin_1_1FrequencyParameter.html" target="_top" xlink:title="A parameter that represents a frequency in Hz.">
<polygon fill="none" stroke="black" points="875,-377 875,-407 1020,-407 1020,-377 875,-377"/>
<text text-anchor="start" x="883" y="-395" font-family="Helvetica,sans-Serif" font-size="10.00">lemons::plugin::Frequency</text>
<text text-anchor="middle" x="947.5" y="-384" font-family="Helvetica,sans-Serif" font-size="10.00">Parameter&lt; float &gt;</text>
</a>
</g>
</g>
<!-- Node28&#45;&gt;Node30 -->
<g id="edge28" class="edge">
<title>Node28&#45;&gt;Node30</title>
<path fill="none" stroke="midnightblue" d="M625.81,-471.75C646.15,-465.18 669.54,-457.92 691,-452 753.04,-434.88 824.4,-418.38 875.91,-407.04"/>
<polygon fill="midnightblue" stroke="midnightblue" points="624.51,-468.5 616.09,-474.92 626.68,-475.15 624.51,-468.5"/>
</g>
<!-- Node31 -->
<g id="node25" class="node">
<title>Node31</title>
<g id="a_node25"><a xlink:href="structlemons_1_1plugin_1_1GainParameter.html" target="_top" xlink:title="A parameter that represents a gain value in decibels.">
<polygon fill="none" stroke="black" points="864,-328 864,-358 1031,-358 1031,-328 864,-328"/>
<text text-anchor="start" x="872" y="-346" font-family="Helvetica,sans-Serif" font-size="10.00">lemons::plugin::GainParameter</text>
<text text-anchor="middle" x="947.5" y="-335" font-family="Helvetica,sans-Serif" font-size="10.00">&lt; float &gt;</text>
</a>
</g>
</g>
<!-- Node28&#45;&gt;Node31 -->
<g id="edge29" class="edge">
<title>Node28&#45;&gt;Node31</title>
<path fill="none" stroke="midnightblue" d="M603.81,-469.52C623.8,-456.8 649.96,-440.06 673,-425 681.05,-419.74 682.26,-417 691,-413 758.94,-381.88 780.9,-387.65 853,-368 864.83,-364.77 877.52,-361.36 889.61,-358.12"/>
<polygon fill="midnightblue" stroke="midnightblue" points="601.93,-466.57 595.37,-474.89 605.69,-472.48 601.93,-466.57"/>
</g>
<!-- Node32 -->
<g id="node26" class="node">
<title>Node32</title>
<g id="a_node26"><a xlink:href="structlemons_1_1plugin_1_1MeterParameter.html" target="_top" xlink:title="A parameter that represents a general kind of meter, used for reporting things like level or gain red...">
<polygon fill="none" stroke="red" points="861,-279 861,-309 1034,-309 1034,-279 861,-279"/>
<text text-anchor="start" x="869" y="-297" font-family="Helvetica,sans-Serif" font-size="10.00">lemons::plugin::MeterParameter</text>
<text text-anchor="middle" x="947.5" y="-286" font-family="Helvetica,sans-Serif" font-size="10.00">&lt; float &gt;</text>
</a>
</g>
</g>
<!-- Node28&#45;&gt;Node32 -->
<g id="edge30" class="edge">
<title>Node28&#45;&gt;Node32</title>
<path fill="none" stroke="midnightblue" d="M615.98,-470.26C635.89,-459.44 658.17,-444.27 673,-425 688.95,-404.28 671.51,-386.42 691,-369 739.68,-325.5 778.69,-373.03 835,-340 845.6,-333.78 842.6,-325.55 853,-319 859.12,-315.15 865.81,-311.89 872.73,-309.13"/>
<polygon fill="midnightblue" stroke="midnightblue" points="614.28,-467.19 607.03,-474.92 617.52,-473.4 614.28,-467.19"/>
</g>
<!-- Node34 -->
<g id="node27" class="node">
<title>Node34</title>
<g id="a_node27"><a xlink:href="structlemons_1_1plugin_1_1MidiPanParameter.html" target="_top" xlink:title="A parameter that represents a MIDI panning value in the range 0 to 127.">
<polygon fill="none" stroke="black" points="856,-671 856,-701 1039,-701 1039,-671 856,-671"/>
<text text-anchor="start" x="864" y="-689" font-family="Helvetica,sans-Serif" font-size="10.00">lemons::plugin::MidiPanParameter</text>
<text text-anchor="middle" x="947.5" y="-678" font-family="Helvetica,sans-Serif" font-size="10.00">&lt; int &gt;</text>
</a>
</g>
</g>
<!-- Node28&#45;&gt;Node34 -->
<g id="edge31" class="edge">
<title>Node28&#45;&gt;Node34</title>
<path fill="none" stroke="midnightblue" d="M591.1,-512.7C613.12,-536.87 651.05,-574.64 691,-597 749.29,-629.62 779.41,-602.97 835,-640 845.51,-647 842.35,-655.2 853,-662 858.37,-665.43 864.2,-668.36 870.25,-670.88"/>
<polygon fill="midnightblue" stroke="midnightblue" points="593.54,-510.18 584.26,-505.07 588.33,-514.85 593.54,-510.18"/>
</g>
<!-- Node35 -->
<g id="node28" class="node">
<title>Node35</title>
<g id="a_node28"><a xlink:href="structlemons_1_1plugin_1_1MidiPitchParameter.html" target="_top" xlink:title="A parameter that represents a MIDI pitch.">
<polygon fill="none" stroke="black" points="877.5,-622 877.5,-652 1017.5,-652 1017.5,-622 877.5,-622"/>
<text text-anchor="start" x="885.5" y="-640" font-family="Helvetica,sans-Serif" font-size="10.00">lemons::plugin::MidiPitch</text>
<text text-anchor="middle" x="947.5" y="-629" font-family="Helvetica,sans-Serif" font-size="10.00">Parameter&lt; int &gt;</text>
</a>
</g>
</g>
<!-- Node28&#45;&gt;Node35 -->
<g id="edge32" class="edge">
<title>Node28&#45;&gt;Node35</title>
<path fill="none" stroke="midnightblue" d="M603.09,-510.6C626.66,-525.38 660,-545.06 691,-559 760.21,-590.13 780.2,-591.55 853,-613 863.45,-616.08 874.62,-619.14 885.47,-622"/>
<polygon fill="midnightblue" stroke="midnightblue" points="604.88,-507.59 594.56,-505.2 601.14,-513.51 604.88,-507.59"/>
</g>
<!-- Node36 -->
<g id="node29" class="node">
<title>Node36</title>
<g id="a_node29"><a xlink:href="structlemons_1_1plugin_1_1PercentParameter.html" target="_top" xlink:title="A parameter that represents an integer value in the range 0&#45;100.">
<polygon fill="none" stroke="black" points="856.5,-573 856.5,-603 1038.5,-603 1038.5,-573 856.5,-573"/>
<text text-anchor="start" x="864.5" y="-591" font-family="Helvetica,sans-Serif" font-size="10.00">lemons::plugin::PercentParameter</text>
<text text-anchor="middle" x="947.5" y="-580" font-family="Helvetica,sans-Serif" font-size="10.00">&lt; int &gt;</text>
</a>
</g>
</g>
<!-- Node28&#45;&gt;Node36 -->
<g id="edge33" class="edge">
<title>Node28&#45;&gt;Node36</title>
<path fill="none" stroke="midnightblue" d="M625.81,-508.25C646.15,-514.82 669.54,-522.08 691,-528 753.04,-545.12 824.4,-561.62 875.91,-572.96"/>
<polygon fill="midnightblue" stroke="midnightblue" points="626.68,-504.85 616.09,-505.08 624.51,-511.5 626.68,-504.85"/>
</g>
<!-- Node37 -->
<g id="node30" class="node">
<title>Node37</title>
<g id="a_node30"><a xlink:href="structlemons_1_1plugin_1_1SecondsParameter.html" target="_top" xlink:title="A parameter that represents a time value in seconds, expressed as a float.">
<polygon fill="none" stroke="black" points="855,-524 855,-554 1040,-554 1040,-524 855,-524"/>
<text text-anchor="start" x="863" y="-542" font-family="Helvetica,sans-Serif" font-size="10.00">lemons::plugin::SecondsParameter</text>
<text text-anchor="middle" x="947.5" y="-531" font-family="Helvetica,sans-Serif" font-size="10.00">&lt; float &gt;</text>
</a>
</g>
</g>
<!-- Node28&#45;&gt;Node37 -->
<g id="edge34" class="edge">
<title>Node28&#45;&gt;Node37</title>
<path fill="none" stroke="midnightblue" d="M667.27,-502.51C724.9,-510.04 797.86,-519.58 854.75,-527.01"/>
<polygon fill="midnightblue" stroke="midnightblue" points="667.43,-499.01 657.06,-501.18 666.52,-505.95 667.43,-499.01"/>
</g>
<!-- Node38 -->
<g id="node31" class="node">
<title>Node38</title>
<g id="a_node31"><a xlink:href="structlemons_1_1plugin_1_1SemitonesParameter.html" target="_top" xlink:title="A parameter that represents a number of semitones, as an integer.">
<polygon fill="none" stroke="black" points="874.5,-475 874.5,-505 1020.5,-505 1020.5,-475 874.5,-475"/>
<text text-anchor="start" x="882.5" y="-493" font-family="Helvetica,sans-Serif" font-size="10.00">lemons::plugin::Semitones</text>
<text text-anchor="middle" x="947.5" y="-482" font-family="Helvetica,sans-Serif" font-size="10.00">Parameter&lt; int &gt;</text>
</a>
</g>
</g>
<!-- Node28&#45;&gt;Node38 -->
<g id="edge35" class="edge">
<title>Node28&#45;&gt;Node38</title>
<path fill="none" stroke="midnightblue" d="M667.24,-490C731.69,-490 815.35,-490 874.24,-490"/>
<polygon fill="midnightblue" stroke="midnightblue" points="667.06,-486.5 657.06,-490 667.06,-493.5 667.06,-486.5"/>
</g>
<!-- Node28&#45;&gt;Node39 -->
<g id="edge36" class="edge">
<title>Node28&#45;&gt;Node39</title>
<path fill="none" stroke="orange" stroke-dasharray="5,2" d="M584.71,-514.2C603.72,-546.55 641.96,-603.16 691,-632 747.2,-665.05 785.63,-617.41 835,-660 853.2,-675.7 835.27,-694.77 853,-711 856.71,-714.4 860.83,-717.32 865.22,-719.85"/>
<polygon fill="orange" stroke="orange" points="587.66,-512.31 579.65,-505.38 581.59,-515.79 587.66,-512.31"/>
<text text-anchor="middle" x="763" y="-663" font-family="Helvetica,sans-Serif" font-size="10.00"> &lt; bool &gt;</text>
</g>
<!-- Node40 -->
<g id="node33" class="node">
<title>Node40</title>
<g id="a_node33"><a xlink:href="structlemons_1_1plugin_1_1BoolParameter.html" target="_top" xlink:title="Helper struct that simplifies the constructor for boolean parameters.">
<polygon fill="none" stroke="red" points="1129.5,-725.5 1129.5,-744.5 1296.5,-744.5 1296.5,-725.5 1129.5,-725.5"/>
<text text-anchor="middle" x="1213" y="-732.5" font-family="Helvetica,sans-Serif" font-size="10.00">lemons::plugin::BoolParameter</text>
</a>
</g>
</g>
<!-- Node39&#45;&gt;Node40 -->
<g id="edge37" class="edge">
<title>Node39&#45;&gt;Node40</title>
<path fill="none" stroke="midnightblue" d="M1044.19,-735C1072.01,-735 1102.16,-735 1129.12,-735"/>
<polygon fill="midnightblue" stroke="midnightblue" points="1044.05,-731.5 1034.05,-735 1044.05,-738.5 1044.05,-731.5"/>
</g>
<!-- Node44 -->
<g id="node36" class="node">
<title>Node44</title>
<g id="a_node36"><a xlink:href="classlemons_1_1plugin_1_1ParameterHolder.html" target="_top" xlink:title="Class that holds a parameter object, and can retain a reference to it after it has been added to an A...">
<polygon fill="none" stroke="black" points="498,-352 498,-382 643,-382 643,-352 498,-352"/>
<text text-anchor="start" x="506" y="-370" font-family="Helvetica,sans-Serif" font-size="10.00">lemons::plugin::Parameter</text>
<text text-anchor="middle" x="570.5" y="-359" font-family="Helvetica,sans-Serif" font-size="10.00">Holder&lt; ParameterType &gt;</text>
</a>
</g>
</g>
<!-- Node43&#45;&gt;Node44 -->
<g id="edge41" class="edge">
<title>Node43&#45;&gt;Node44</title>
<path fill="none" stroke="midnightblue" d="M339,-402.93C386.92,-395.46 449.94,-385.64 497.98,-378.15"/>
<polygon fill="midnightblue" stroke="midnightblue" points="338.35,-399.49 329.01,-404.49 339.43,-406.41 338.35,-399.49"/>
</g>
<!-- Node45 -->
<g id="node37" class="node">
<title>Node45</title>
<g id="a_node37"><a xlink:href="classlemons_1_1plugin_1_1ParameterHolder.html" target="_top" xlink:title=" ">
<polygon fill="none" stroke="black" points="853,-230 853,-260 1042,-260 1042,-230 853,-230"/>
<text text-anchor="start" x="861" y="-248" font-family="Helvetica,sans-Serif" font-size="10.00">lemons::plugin::Parameter</text>
<text text-anchor="middle" x="947.5" y="-237" font-family="Helvetica,sans-Serif" font-size="10.00">Holder&lt; plugin::ToggleParameter &gt;</text>
</a>
</g>
</g>
<!-- Node43&#45;&gt;Node45 -->
<g id="edge43" class="edge">
<title>Node43&#45;&gt;Node45</title>
<path fill="none" stroke="midnightblue" d="M368.34,-420.77C472.44,-425.69 626.42,-426.43 673,-392 691.66,-378.21 673.34,-358.04 691,-343 740.64,-300.73 784.76,-356.56 835,-315 851.6,-301.27 836.89,-284.3 853,-270 857.27,-266.21 862.06,-262.98 867.15,-260.24"/>
<polygon fill="midnightblue" stroke="midnightblue" points="368.27,-417.26 358.11,-420.26 367.93,-424.25 368.27,-417.26"/>
</g>
<!-- Node44&#45;&gt;Node45 -->
<g id="edge42" class="edge">
<title>Node44&#45;&gt;Node45</title>
<path fill="none" stroke="orange" stroke-dasharray="5,2" d="M652.55,-355.17C659.91,-351.99 666.89,-348 673,-343 687.78,-330.92 676.19,-316.04 691,-304 736.3,-267.17 800.34,-252.43 852.97,-246.9"/>
<polygon fill="orange" stroke="orange" points="651.15,-351.96 643.05,-358.78 653.64,-358.5 651.15,-351.96"/>
<text text-anchor="middle" x="763" y="-307" font-family="Helvetica,sans-Serif" font-size="10.00"> &lt; plugin::ToggleParameter &gt;</text>
</g>
<!-- Node46&#45;&gt;Node47 -->
<g id="edge45" class="edge">
<title>Node46&#45;&gt;Node47</title>
<path fill="none" stroke="orange" stroke-dasharray="5,2" d="M352.17,-355.48C397.15,-347.73 452.03,-338.26 495.38,-330.78"/>
<polygon fill="orange" stroke="orange" points="351.4,-352.06 342.14,-357.21 352.59,-358.96 351.4,-352.06"/>
<text text-anchor="middle" x="413" y="-353" font-family="Helvetica,sans-Serif" font-size="10.00"> &lt; StateType &gt;</text>
</g>
<!-- Node50 -->
<g id="node42" class="node">
<title>Node50</title>
<g id="a_node42"><a xlink:href="structlemons_1_1plugin_1_1CustomState.html" target="_top" xlink:title="A plugin state class that instantiates the appropriate ParameterList and custom serializable object a...">
<polygon fill="none" stroke="black" points="468,-205 468,-235 673,-235 673,-205 468,-205"/>
<text text-anchor="start" x="476" y="-223" font-family="Helvetica,sans-Serif" font-size="10.00">lemons::plugin::CustomState</text>
<text text-anchor="middle" x="570.5" y="-212" font-family="Helvetica,sans-Serif" font-size="10.00">&lt; ParamListType, CustomDataType,, &gt;</text>
</a>
</g>
</g>
<!-- Node49&#45;&gt;Node50 -->
<g id="edge48" class="edge">
<title>Node49&#45;&gt;Node50</title>
<path fill="none" stroke="midnightblue" d="M349.17,-241.92C385.68,-238.29 429.15,-233.96 467.8,-230.12"/>
<polygon fill="midnightblue" stroke="midnightblue" points="348.67,-238.46 339.07,-242.93 349.37,-245.42 348.67,-238.46"/>
</g>
<!-- Node51 -->
<g id="node43" class="node">
<title>Node51</title>
<g id="a_node43"><a xlink:href="structlemons_1_1plugin_1_1State.html" target="_top" xlink:title="A plugin state class that instantiates the appropriate ParameterList and passes it to the StateBase c...">
<polygon fill="none" stroke="black" points="510.5,-254 510.5,-284 630.5,-284 630.5,-254 510.5,-254"/>
<text text-anchor="start" x="518.5" y="-272" font-family="Helvetica,sans-Serif" font-size="10.00">lemons::plugin::State</text>
<text text-anchor="middle" x="570.5" y="-261" font-family="Helvetica,sans-Serif" font-size="10.00">&lt; ParamListType, &gt;</text>
</a>
</g>
</g>
<!-- Node49&#45;&gt;Node51 -->
<g id="edge49" class="edge">
<title>Node49&#45;&gt;Node51</title>
<path fill="none" stroke="midnightblue" d="M349.35,-255.13C400.04,-258.32 464.13,-262.36 510.07,-265.25"/>
<polygon fill="midnightblue" stroke="midnightblue" points="349.27,-251.61 339.07,-254.48 348.83,-258.6 349.27,-251.61"/>
</g>
<!-- Node52&#45;&gt;Node53 -->
<g id="edge51" class="edge">
<title>Node52&#45;&gt;Node53</title>
<path fill="none" stroke="orange" stroke-dasharray="5,2" d="M343.94,-196.18C397.56,-189.24 468.09,-180.12 515.91,-173.93"/>
<polygon fill="orange" stroke="orange" points="343.26,-192.74 333.79,-197.49 344.16,-199.68 343.26,-192.74"/>
<text text-anchor="middle" x="413" y="-194" font-family="Helvetica,sans-Serif" font-size="10.00"> &lt; 3 &gt;</text>
</g>
</g>
</svg>
