<?xml version="1.0" encoding="UTF-8" standalone="no"?>
<!DOCTYPE svg PUBLIC "-//W3C//DTD SVG 1.1//EN"
 "http://www.w3.org/Graphics/SVG/1.1/DTD/svg11.dtd">
<!-- Generated by graphviz version 2.43.0 (0)
 -->
<!-- Title: lemons::plugin::GainMeterParameter Pages: 1 -->
<svg width="1060pt" height="88pt"
 viewBox="0.00 0.00 1060.00 88.00" xmlns="http://www.w3.org/2000/svg" xmlns:xlink="http://www.w3.org/1999/xlink">
<g id="graph0" class="graph" transform="scale(1 1) rotate(0) translate(4 84)">
<title>lemons::plugin::GainMeterParameter</title>
<!-- Node1 -->
<g id="node1" class="node">
<title>Node1</title>
<g id="a_node1"><a xlink:title="A parameter that represents a meter displaying values in decibels.">
<polygon fill="#bfbfbf" stroke="black" points="906,-27.5 906,-57.5 1052,-57.5 1052,-27.5 906,-27.5"/>
<text text-anchor="start" x="914" y="-45.5" font-family="Helvetica,sans-Serif" font-size="10.00">lemons::plugin::GainMeter</text>
<text text-anchor="middle" x="979" y="-34.5" font-family="Helvetica,sans-Serif" font-size="10.00">Parameter</text>
</a>
</g>
</g>
<!-- Node2 -->
<g id="node2" class="node">
<title>Node2</title>
<g id="a_node2"><a xlink:href="structlemons_1_1plugin_1_1_meter_parameter.html" target="_top" xlink:title=" ">
<polygon fill="none" stroke="black" points="696,-27.5 696,-57.5 869,-57.5 869,-27.5 696,-27.5"/>
<text text-anchor="start" x="704" y="-45.5" font-family="Helvetica,sans-Serif" font-size="10.00">lemons::plugin::MeterParameter</text>
<text text-anchor="middle" x="782.5" y="-34.5" font-family="Helvetica,sans-Serif" font-size="10.00">&lt; float &gt;</text>
</a>
</g>
</g>
<!-- Node2&#45;&gt;Node1 -->
<g id="edge1" class="edge">
<title>Node2&#45;&gt;Node1</title>
<path fill="none" stroke="midnightblue" d="M879.17,-42.5C888.11,-42.5 897.07,-42.5 905.74,-42.5"/>
<polygon fill="midnightblue" stroke="midnightblue" points="879.09,-39 869.09,-42.5 879.09,-46 879.09,-39"/>
</g>
<!-- Node3 -->
<g id="node3" class="node">
<title>Node3</title>
<g id="a_node3"><a xlink:href="classlemons_1_1plugin_1_1_typed_parameter.html" target="_top" xlink:title=" ">
<polygon fill="none" stroke="black" points="439,-49.5 439,-79.5 612,-79.5 612,-49.5 439,-49.5"/>
<text text-anchor="start" x="447" y="-67.5" font-family="Helvetica,sans-Serif" font-size="10.00">lemons::plugin::TypedParameter</text>
<text text-anchor="middle" x="525.5" y="-56.5" font-family="Helvetica,sans-Serif" font-size="10.00">&lt; float &gt;</text>
</a>
</g>
</g>
<!-- Node3&#45;&gt;Node2 -->
<g id="edge2" class="edge">
<title>Node3&#45;&gt;Node2</title>
<path fill="none" stroke="midnightblue" d="M622.33,-56.23C646.42,-54.15 672.11,-51.94 695.67,-49.9"/>
<polygon fill="midnightblue" stroke="midnightblue" points="621.78,-52.77 612.12,-57.11 622.38,-59.74 621.78,-52.77"/>
</g>
<!-- Node4 -->
<g id="node4" class="node">
<title>Node4</title>
<g id="a_node4"><a xlink:href="classlemons_1_1plugin_1_1_parameter.html" target="_top" xlink:title="A plugin parameter class.">
<polygon fill="none" stroke="black" points="0,-43 0,-62 145,-62 145,-43 0,-43"/>
<text text-anchor="middle" x="72.5" y="-50" font-family="Helvetica,sans-Serif" font-size="10.00">lemons::plugin::Parameter</text>
</a>
</g>
</g>
<!-- Node4&#45;&gt;Node3 -->
<g id="edge3" class="edge">
<title>Node4&#45;&gt;Node3</title>
<path fill="none" stroke="midnightblue" d="M155.35,-56.23C157.93,-56.33 160.48,-56.42 163,-56.5 257.27,-59.65 365.41,-61.86 438.66,-63.14"/>
<polygon fill="midnightblue" stroke="midnightblue" points="155.43,-52.73 145.3,-55.85 155.16,-59.73 155.43,-52.73"/>
</g>
<!-- Node5 -->
<g id="node5" class="node">
<title>Node5</title>
<g id="a_node5"><a xlink:href="classlemons_1_1plugin_1_1_typed_parameter.html" target="_top" xlink:title="A parameter that can be stored as a type other than a float, but still inherits from my Parameter bas...">
<polygon fill="none" stroke="black" points="182,-15.5 182,-45.5 355,-45.5 355,-15.5 182,-15.5"/>
<text text-anchor="start" x="190" y="-33.5" font-family="Helvetica,sans-Serif" font-size="10.00">lemons::plugin::TypedParameter</text>
<text text-anchor="middle" x="268.5" y="-22.5" font-family="Helvetica,sans-Serif" font-size="10.00">&lt; ValueType &gt;</text>
</a>
</g>
</g>
<!-- Node4&#45;&gt;Node5 -->
<g id="edge5" class="edge">
<title>Node4&#45;&gt;Node5</title>
<path fill="none" stroke="midnightblue" d="M155.41,-43.21C164.2,-42.21 173.16,-41.2 181.99,-40.2"/>
<polygon fill="midnightblue" stroke="midnightblue" points="154.73,-39.77 145.19,-44.37 155.52,-46.72 154.73,-39.77"/>
</g>
<!-- Node5&#45;&gt;Node3 -->
<g id="edge4" class="edge">
<title>Node5&#45;&gt;Node3</title>
<path fill="none" stroke="orange" stroke-dasharray="5,2" d="M365.43,-42.25C383.88,-44.59 403.05,-47.07 421,-49.5 426.85,-50.29 432.88,-51.12 438.95,-51.97"/>
<polygon fill="orange" stroke="orange" points="365.63,-38.75 355.27,-40.97 364.75,-45.69 365.63,-38.75"/>
<text text-anchor="middle" x="397" y="-52.5" font-family="Helvetica,sans-Serif" font-size="10.00"> &lt; float &gt;</text>
</g>
<!-- Node6 -->
<g id="node6" class="node">
<title>Node6</title>
<g id="a_node6"><a xlink:href="structlemons_1_1plugin_1_1_meter_parameter.html" target="_top" xlink:title="A parameter that represents a general kind of meter, used for reporting things like level or gain red...">
<polygon fill="none" stroke="black" points="439,-0.5 439,-30.5 612,-30.5 612,-0.5 439,-0.5"/>
<text text-anchor="start" x="447" y="-18.5" font-family="Helvetica,sans-Serif" font-size="10.00">lemons::plugin::MeterParameter</text>
<text text-anchor="middle" x="525.5" y="-7.5" font-family="Helvetica,sans-Serif" font-size="10.00">&lt; ValueType &gt;</text>
</a>
</g>
</g>
<!-- Node5&#45;&gt;Node6 -->
<g id="edge7" class="edge">
<title>Node5&#45;&gt;Node6</title>
<path fill="none" stroke="midnightblue" d="M365.33,-24.86C389.42,-23.45 415.11,-21.93 438.67,-20.55"/>
<polygon fill="midnightblue" stroke="midnightblue" points="364.9,-21.38 355.12,-25.46 365.31,-28.37 364.9,-21.38"/>
</g>
<!-- Node6&#45;&gt;Node2 -->
<g id="edge6" class="edge">
<title>Node6&#45;&gt;Node2</title>
<path fill="none" stroke="orange" stroke-dasharray="5,2" d="M622.33,-25.65C646.42,-28.2 672.11,-30.92 695.67,-33.41"/>
<polygon fill="orange" stroke="orange" points="622.43,-22.14 612.12,-24.57 621.7,-29.1 622.43,-22.14"/>
<text text-anchor="middle" x="654" y="-34.5" font-family="Helvetica,sans-Serif" font-size="10.00"> &lt; float &gt;</text>
</g>
</g>
</svg>
