<?xml version="1.0" encoding="UTF-8" standalone="no"?>
<!DOCTYPE svg PUBLIC "-//W3C//DTD SVG 1.1//EN"
 "http://www.w3.org/Graphics/SVG/1.1/DTD/svg11.dtd">
<!-- Generated by graphviz version 2.43.0 (0)
 -->
<!-- Title: lemons::TreeReflectorHelpers::ContainerInterface Pages: 1 -->
<svg width="389pt" height="110pt"
 viewBox="0.00 0.00 389.00 110.00" xmlns="http://www.w3.org/2000/svg" xmlns:xlink="http://www.w3.org/1999/xlink">
<g id="graph0" class="graph" transform="scale(1 1) rotate(0) translate(4 106)">
<title>lemons::TreeReflectorHelpers::ContainerInterface</title>
<!-- Node1 -->
<g id="node1" class="node">
<title>Node1</title>
<g id="a_node1"><a xlink:title=" ">
<polygon fill="#bfbfbf" stroke="black" points="0,-36 0,-66 160,-66 160,-36 0,-36"/>
<text text-anchor="start" x="8" y="-54" font-family="Helvetica,sans-Serif" font-size="10.00">lemons::TreeReflectorHelpers</text>
<text text-anchor="middle" x="80" y="-43" font-family="Helvetica,sans-Serif" font-size="10.00">::ContainerInterface</text>
</a>
</g>
</g>
<!-- Node2 -->
<g id="node2" class="node">
<title>Node2</title>
<g id="a_node2"><a xlink:href="structlemons_1_1TreeReflectorHelpers_1_1JuceOwnedArrayInterface.html" target="_top" xlink:title=" ">
<polygon fill="none" stroke="black" points="208.5,-60.5 208.5,-101.5 368.5,-101.5 368.5,-60.5 208.5,-60.5"/>
<text text-anchor="start" x="216.5" y="-89.5" font-family="Helvetica,sans-Serif" font-size="10.00">lemons::TreeReflectorHelpers</text>
<text text-anchor="start" x="216.5" y="-78.5" font-family="Helvetica,sans-Serif" font-size="10.00">::JuceOwnedArrayInterface</text>
<text text-anchor="middle" x="288.5" y="-67.5" font-family="Helvetica,sans-Serif" font-size="10.00">&lt; ElementType &gt;</text>
</a>
</g>
</g>
<!-- Node1&#45;&gt;Node2 -->
<g id="edge1" class="edge">
<title>Node1&#45;&gt;Node2</title>
<path fill="none" stroke="midnightblue" d="M170.34,-63.98C183.03,-65.82 196,-67.71 208.46,-69.52"/>
<polygon fill="midnightblue" stroke="midnightblue" points="170.65,-60.49 160.25,-62.51 169.64,-67.41 170.65,-60.49"/>
</g>
<!-- Node3 -->
<g id="node3" class="node">
<title>Node3</title>
<g id="a_node3"><a xlink:href="structlemons_1_1TreeReflectorHelpers_1_1StdArrayInterface.html" target="_top" xlink:title=" ">
<polygon fill="none" stroke="black" points="196,-0.5 196,-41.5 381,-41.5 381,-0.5 196,-0.5"/>
<text text-anchor="start" x="204" y="-29.5" font-family="Helvetica,sans-Serif" font-size="10.00">lemons::TreeReflectorHelpers</text>
<text text-anchor="start" x="204" y="-18.5" font-family="Helvetica,sans-Serif" font-size="10.00">::StdArrayInterface&lt; ElementType,</text>
<text text-anchor="middle" x="288.5" y="-7.5" font-family="Helvetica,sans-Serif" font-size="10.00"> size &gt;</text>
</a>
</g>
</g>
<!-- Node1&#45;&gt;Node3 -->
<g id="edge2" class="edge">
<title>Node1&#45;&gt;Node3</title>
<path fill="none" stroke="midnightblue" d="M170.4,-38.01C178.79,-36.79 187.3,-35.56 195.7,-34.34"/>
<polygon fill="midnightblue" stroke="midnightblue" points="169.64,-34.59 160.25,-39.49 170.65,-41.51 169.64,-34.59"/>
</g>
</g>
</svg>
