<?xml version="1.0" encoding="UTF-8" standalone="no"?>
<!DOCTYPE svg PUBLIC "-//W3C//DTD SVG 1.1//EN"
 "http://www.w3.org/Graphics/SVG/1.1/DTD/svg11.dtd">
<!-- Generated by graphviz version 2.43.0 (0)
 -->
<!-- Title: lemons::dsp::FX::SmoothedGain&lt; SampleType, channels &gt; Pages: 1 -->
<svg width="830pt" height="88pt"
 viewBox="0.00 0.00 830.00 88.00" xmlns="http://www.w3.org/2000/svg" xmlns:xlink="http://www.w3.org/1999/xlink">
<g id="graph0" class="graph" transform="scale(1 1) rotate(0) translate(4 84)">
<title>lemons::dsp::FX::SmoothedGain&lt; SampleType, channels &gt;</title>
<!-- Node1 -->
<g id="node1" class="node">
<title>Node1</title>
<g id="a_node1"><a xlink:title="A handy effect class that allows you to change the gain of a stream of audio, and will smooth the cha...">
<polygon fill="#bfbfbf" stroke="black" points="369,-24.5 369,-54.5 539,-54.5 539,-24.5 369,-24.5"/>
<text text-anchor="start" x="377" y="-42.5" font-family="Helvetica,sans-Serif" font-size="10.00">lemons::dsp::FX::Smoothed</text>
<text text-anchor="middle" x="454" y="-31.5" font-family="Helvetica,sans-Serif" font-size="10.00">Gain&lt; SampleType, channels &gt;</text>
</a>
</g>
</g>
<!-- Node4 -->
<g id="node4" class="node">
<title>Node4</title>
<g id="a_node4"><a xlink:href="classlemons_1_1dsp_1_1FX_1_1SmoothedGain.html" target="_top" xlink:title=" ">
<polygon fill="none" stroke="black" points="672,-49.5 672,-79.5 822,-79.5 822,-49.5 672,-49.5"/>
<text text-anchor="start" x="680" y="-67.5" font-family="Helvetica,sans-Serif" font-size="10.00">lemons::dsp::FX::Smoothed</text>
<text text-anchor="middle" x="747" y="-56.5" font-family="Helvetica,sans-Serif" font-size="10.00">Gain&lt; SampleType, 1 &gt;</text>
</a>
</g>
</g>
<!-- Node1&#45;&gt;Node4 -->
<g id="edge3" class="edge">
<title>Node1&#45;&gt;Node4</title>
<path fill="none" stroke="orange" stroke-dasharray="5,2" d="M549.15,-47.59C588.93,-51.01 634.59,-54.93 671.92,-58.14"/>
<polygon fill="orange" stroke="orange" points="549.43,-44.1 539.17,-46.73 548.83,-51.07 549.43,-44.1"/>
<text text-anchor="middle" x="605.5" y="-58.5" font-family="Helvetica,sans-Serif" font-size="10.00"> &lt; SampleType, 1 &gt;</text>
</g>
<!-- Node5 -->
<g id="node5" class="node">
<title>Node5</title>
<g id="a_node5"><a xlink:href="classlemons_1_1dsp_1_1FX_1_1SmoothedGain.html" target="_top" xlink:title=" ">
<polygon fill="none" stroke="black" points="672,-0.5 672,-30.5 822,-30.5 822,-0.5 672,-0.5"/>
<text text-anchor="start" x="680" y="-18.5" font-family="Helvetica,sans-Serif" font-size="10.00">lemons::dsp::FX::Smoothed</text>
<text text-anchor="middle" x="747" y="-7.5" font-family="Helvetica,sans-Serif" font-size="10.00">Gain&lt; float, 2 &gt;</text>
</a>
</g>
</g>
<!-- Node1&#45;&gt;Node5 -->
<g id="edge4" class="edge">
<title>Node1&#45;&gt;Node5</title>
<path fill="none" stroke="orange" stroke-dasharray="5,2" d="M549.15,-31.74C588.93,-28.45 634.59,-24.69 671.92,-21.61"/>
<polygon fill="orange" stroke="orange" points="548.85,-28.25 539.17,-32.56 549.42,-35.22 548.85,-28.25"/>
<text text-anchor="middle" x="605.5" y="-34.5" font-family="Helvetica,sans-Serif" font-size="10.00"> &lt; float, 2 &gt;</text>
</g>
<!-- Node2 -->
<g id="node2" class="node">
<title>Node2</title>
<g id="a_node2"><a xlink:href="structlemons_1_1dsp_1_1FX_1_1AudioEffect.html" target="_top" xlink:title="Base class for any kind of audio effect.">
<polygon fill="none" stroke="black" points="176,-24.5 176,-54.5 332,-54.5 332,-24.5 176,-24.5"/>
<text text-anchor="start" x="184" y="-42.5" font-family="Helvetica,sans-Serif" font-size="10.00">lemons::dsp::FX::AudioEffect</text>
<text text-anchor="middle" x="254" y="-31.5" font-family="Helvetica,sans-Serif" font-size="10.00">&lt; SampleType &gt;</text>
</a>
</g>
</g>
<!-- Node2&#45;&gt;Node1 -->
<g id="edge1" class="edge">
<title>Node2&#45;&gt;Node1</title>
<path fill="none" stroke="midnightblue" d="M342.38,-39.5C351.18,-39.5 360.11,-39.5 368.88,-39.5"/>
<polygon fill="midnightblue" stroke="midnightblue" points="342.12,-36 332.12,-39.5 342.12,-43 342.12,-36"/>
</g>
<!-- Node3 -->
<g id="node3" class="node">
<title>Node3</title>
<g id="a_node3"><a xlink:href="structlemons_1_1SerializableData.html" target="_top" xlink:title="Base class for any C++ object that needs to be serialized to binary and back.">
<polygon fill="none" stroke="black" points="0,-30 0,-49 139,-49 139,-30 0,-30"/>
<text text-anchor="middle" x="69.5" y="-37" font-family="Helvetica,sans-Serif" font-size="10.00">lemons::SerializableData</text>
</a>
</g>
</g>
<!-- Node3&#45;&gt;Node2 -->
<g id="edge2" class="edge">
<title>Node3&#45;&gt;Node2</title>
<path fill="none" stroke="midnightblue" d="M149.41,-39.5C158.15,-39.5 167.04,-39.5 175.76,-39.5"/>
<polygon fill="midnightblue" stroke="midnightblue" points="149.24,-36 139.24,-39.5 149.24,-43 149.24,-36"/>
</g>
</g>
</svg>
