<?xml version="1.0" encoding="UTF-8" standalone="no"?>
<!DOCTYPE svg PUBLIC "-//W3C//DTD SVG 1.1//EN"
 "http://www.w3.org/Graphics/SVG/1.1/DTD/svg11.dtd">
<!-- Generated by graphviz version 2.43.0 (0)
 -->
<!-- Title: lemons::serializing::MapInterfaceBase Pages: 1 -->
<svg width="729pt" height="83pt"
 viewBox="0.00 0.00 729.00 83.00" xmlns="http://www.w3.org/2000/svg" xmlns:xlink="http://www.w3.org/1999/xlink">
<g id="graph0" class="graph" transform="scale(1 1) rotate(0) translate(4 79)">
<title>lemons::serializing::MapInterfaceBase</title>
<!-- Node1 -->
<g id="node1" class="node">
<title>Node1</title>
<g id="a_node1"><a xlink:title=" ">
<polygon fill="#bfbfbf" stroke="black" points="0,-2 0,-32 111,-32 111,-2 0,-2"/>
<text text-anchor="start" x="8" y="-20" font-family="Helvetica,sans-Serif" font-size="10.00">lemons::serializing</text>
<text text-anchor="middle" x="55.5" y="-9" font-family="Helvetica,sans-Serif" font-size="10.00">::MapInterfaceBase</text>
</a>
</g>
</g>
<!-- Node2 -->
<g id="node2" class="node">
<title>Node2</title>
<g id="a_node2"><a xlink:href="structlemons_1_1serializing_1_1MapInterface.html" target="_top" xlink:title=" ">
<polygon fill="none" stroke="black" points="148,-33.5 148,-74.5 290,-74.5 290,-33.5 148,-33.5"/>
<text text-anchor="start" x="156" y="-62.5" font-family="Helvetica,sans-Serif" font-size="10.00">lemons::serializing</text>
<text text-anchor="start" x="156" y="-51.5" font-family="Helvetica,sans-Serif" font-size="10.00">::MapInterface&lt; KeyType,</text>
<text text-anchor="middle" x="219" y="-40.5" font-family="Helvetica,sans-Serif" font-size="10.00"> ValueType &gt;</text>
</a>
</g>
</g>
<!-- Node1&#45;&gt;Node2 -->
<g id="edge1" class="edge">
<title>Node1&#45;&gt;Node2</title>
<path fill="none" stroke="midnightblue" d="M121.02,-31.78C129.87,-33.81 138.98,-35.9 147.92,-37.94"/>
<polygon fill="midnightblue" stroke="midnightblue" points="121.71,-28.35 111.18,-29.53 120.14,-35.17 121.71,-28.35"/>
</g>
<!-- Node3 -->
<g id="node3" class="node">
<title>Node3</title>
<g id="a_node3"><a xlink:href="structlemons_1_1serializing_1_1MapInterface.html" target="_top" xlink:title=" ">
<polygon fill="none" stroke="black" points="415,-0.5 415,-41.5 545,-41.5 545,-0.5 415,-0.5"/>
<text text-anchor="start" x="423" y="-29.5" font-family="Helvetica,sans-Serif" font-size="10.00">lemons::serializing</text>
<text text-anchor="start" x="423" y="-18.5" font-family="Helvetica,sans-Serif" font-size="10.00">::MapInterface&lt; String,</text>
<text text-anchor="middle" x="480" y="-7.5" font-family="Helvetica,sans-Serif" font-size="10.00"> String &gt;</text>
</a>
</g>
</g>
<!-- Node1&#45;&gt;Node3 -->
<g id="edge4" class="edge">
<title>Node1&#45;&gt;Node3</title>
<path fill="none" stroke="midnightblue" d="M121.71,-17.62C201.5,-18.37 335.73,-19.64 414.98,-20.39"/>
<polygon fill="midnightblue" stroke="midnightblue" points="121.33,-14.11 111.3,-17.52 121.27,-21.11 121.33,-14.11"/>
</g>
<!-- Node2&#45;&gt;Node3 -->
<g id="edge2" class="edge">
<title>Node2&#45;&gt;Node3</title>
<path fill="none" stroke="orange" stroke-dasharray="5,2" d="M300.28,-43.77C337.05,-39.09 380.03,-33.61 414.63,-29.2"/>
<polygon fill="orange" stroke="orange" points="299.57,-40.33 290.09,-45.07 300.45,-47.28 299.57,-40.33"/>
<text text-anchor="middle" x="352.5" y="-45" font-family="Helvetica,sans-Serif" font-size="10.00"> &lt; String, String &gt;</text>
</g>
<!-- Node4 -->
<g id="node4" class="node">
<title>Node4</title>
<g id="a_node4"><a xlink:href="structlemons_1_1serializing_1_1StringPairArrayInterface.html" target="_top" xlink:title=" ">
<polygon fill="none" stroke="black" points="582,-6 582,-36 721,-36 721,-6 582,-6"/>
<text text-anchor="start" x="590" y="-24" font-family="Helvetica,sans-Serif" font-size="10.00">lemons::serializing</text>
<text text-anchor="middle" x="651.5" y="-13" font-family="Helvetica,sans-Serif" font-size="10.00">::StringPairArrayInterface</text>
</a>
</g>
</g>
<!-- Node3&#45;&gt;Node4 -->
<g id="edge3" class="edge">
<title>Node3&#45;&gt;Node4</title>
<path fill="none" stroke="midnightblue" d="M555.32,-21C564.13,-21 573.08,-21 581.8,-21"/>
<polygon fill="midnightblue" stroke="midnightblue" points="555.08,-17.5 545.08,-21 555.08,-24.5 555.08,-17.5"/>
</g>
</g>
</svg>
