<?xml version="1.0" encoding="UTF-8" standalone="no"?>
<!DOCTYPE svg PUBLIC "-//W3C//DTD SVG 1.1//EN"
 "http://www.w3.org/Graphics/SVG/1.1/DTD/svg11.dtd">
<!-- Generated by graphviz version 2.43.0 (0)
 -->
<!-- Title: lemons::dsp::osc::Oscillator&lt; SampleType &gt; Pages: 1 -->
<!--zoomable 237 -->
<svg id="main" version="1.1" xmlns="http://www.w3.org/2000/svg" xmlns:xlink="http://www.w3.org/1999/xlink" xml:space="preserve" onload="init(evt)">
<style type="text/css"><![CDATA[
.edge:hover path { stroke: red; }
.edge:hover polygon { stroke: red; fill: red; }
]]></style>
<script type="text/javascript"><![CDATA[
var edges = document.getElementsByTagName('g');
if (edges && edges.length) {
  for (var i=0;i<edges.length;i++) {
    if (edges[i].id.substr(0,4)=='edge') {
      edges[i].setAttribute('class','edge');
    }
  }
}
]]></script>
        <defs>
                <circle id="rim" cx="0" cy="0" r="7"/>
                <circle id="rim2" cx="0" cy="0" r="3.5"/>
                <g id="zoomPlus">
                        <use xlink:href="#rim" fill="#404040">
                                <set attributeName="fill" to="#808080" begin="zoomplus.mouseover" end="zoomplus.mouseout"/>
                        </use>
                        <path d="M-4,0h8M0,-4v8" fill="none" stroke="white" stroke-width="1.5" pointer-events="none"/>
                </g>
                <g id="zoomMin">
                        <use xlink:href="#rim" fill="#404040">
                                <set attributeName="fill" to="#808080" begin="zoomminus.mouseover" end="zoomminus.mouseout"/>
                        </use>
                        <path d="M-4,0h8" fill="none" stroke="white" stroke-width="1.5" pointer-events="none"/>
                </g>
                <g id="dirArrow">
                        <path fill="none" stroke="white" stroke-width="1.5" d="M0,-3.0v7 M-2.5,-0.5L0,-3.0L2.5,-0.5"/>
                </g>
               <g id="resetDef">
                       <use xlink:href="#rim2" fill="#404040">
                               <set attributeName="fill" to="#808080" begin="reset.mouseover" end="reset.mouseout"/>
                       </use>
               </g>
        </defs>

<script type="text/javascript">
var viewWidth = 631;
var viewHeight = 237;
var sectionId = 'dynsection-0';
</script>
<script xlink:href="svgpan.js"/>
<svg id="graph" class="graph">
<g id="viewport">
<title>lemons::dsp::osc::Oscillator&lt; SampleType &gt;</title>
<!-- Node1 -->
<g id="node1" class="node">
<title>Node1</title>
<g id="a_node1"><a xlink:title="Base class for any kind of oscillator.">
<polygon fill="#bfbfbf" stroke="black" points="0,-100.5 0,-130.5 151,-130.5 151,-100.5 0,-100.5"/>
<text text-anchor="start" x="8" y="-118.5" font-family="Helvetica,sans-Serif" font-size="10.00">lemons::dsp::osc::Oscillator</text>
<text text-anchor="middle" x="75.5" y="-107.5" font-family="Helvetica,sans-Serif" font-size="10.00">&lt; SampleType &gt;</text>
</a>
</g>
</g>
<!-- Node2 -->
<g id="node2" class="node">
<title>Node2</title>
<g id="a_node2"><a xlink:href="structlemons_1_1dsp_1_1osc_1_1Saw.html" target="_top" xlink:title="A basic sawtooth wave oscillator.">
<polygon fill="none" stroke="black" points="248.5,-149.5 248.5,-179.5 373.5,-179.5 373.5,-149.5 248.5,-149.5"/>
<text text-anchor="start" x="256.5" y="-167.5" font-family="Helvetica,sans-Serif" font-size="10.00">lemons::dsp::osc::Saw</text>
<text text-anchor="middle" x="311" y="-156.5" font-family="Helvetica,sans-Serif" font-size="10.00">&lt; SampleType &gt;</text>
</a>
</g>
</g>
<!-- Node1&#45;&gt;Node2 -->
<g id="edge1" class="edge">
<title>Node1&#45;&gt;Node2</title>
<path fill="none" stroke="midnightblue" d="M158.06,-132.62C187.71,-138.84 220.71,-145.76 248.35,-151.56"/>
<polygon fill="midnightblue" stroke="midnightblue" points="158.65,-129.16 148.14,-130.53 157.21,-136.01 158.65,-129.16"/>
</g>
<!-- Node4 -->
<g id="node4" class="node">
<title>Node4</title>
<g id="a_node4"><a xlink:href="structlemons_1_1dsp_1_1osc_1_1Sine.html" target="_top" xlink:title="A basic sine wave oscillator.">
<polygon fill="none" stroke="black" points="248.5,-198.5 248.5,-228.5 373.5,-228.5 373.5,-198.5 248.5,-198.5"/>
<text text-anchor="start" x="256.5" y="-216.5" font-family="Helvetica,sans-Serif" font-size="10.00">lemons::dsp::osc::Sine</text>
<text text-anchor="middle" x="311" y="-205.5" font-family="Helvetica,sans-Serif" font-size="10.00">&lt; SampleType &gt;</text>
</a>
</g>
</g>
<!-- Node1&#45;&gt;Node4 -->
<g id="edge3" class="edge">
<title>Node1&#45;&gt;Node4</title>
<path fill="none" stroke="midnightblue" d="M114.75,-135.03C146.49,-150.83 193.05,-173.07 235,-189.5 242.89,-192.59 251.36,-195.59 259.66,-198.37"/>
<polygon fill="midnightblue" stroke="midnightblue" points="116.32,-131.9 105.81,-130.56 113.18,-138.16 116.32,-131.9"/>
</g>
<!-- Node6 -->
<g id="node6" class="node">
<title>Node6</title>
<g id="a_node6"><a xlink:href="structlemons_1_1dsp_1_1osc_1_1Square.html" target="_top" xlink:title="A basic square wave oscillator.">
<polygon fill="none" stroke="black" points="242,-0.5 242,-30.5 380,-30.5 380,-0.5 242,-0.5"/>
<text text-anchor="start" x="250" y="-18.5" font-family="Helvetica,sans-Serif" font-size="10.00">lemons::dsp::osc::Square</text>
<text text-anchor="middle" x="311" y="-7.5" font-family="Helvetica,sans-Serif" font-size="10.00">&lt; SampleType &gt;</text>
</a>
</g>
</g>
<!-- Node1&#45;&gt;Node6 -->
<g id="edge5" class="edge">
<title>Node1&#45;&gt;Node6</title>
<path fill="none" stroke="midnightblue" d="M114.48,-95.94C146.24,-79.98 192.96,-57.38 235,-40.5 243.66,-37.02 253.01,-33.63 262.08,-30.52"/>
<polygon fill="midnightblue" stroke="midnightblue" points="112.88,-92.83 105.54,-100.47 116.04,-99.08 112.88,-92.83"/>
</g>
<!-- Node8 -->
<g id="node8" class="node">
<title>Node8</title>
<g id="a_node8"><a xlink:href="classlemons_1_1dsp_1_1osc_1_1SuperSaw.html" target="_top" xlink:title="A basic &quot;super saw&quot; oscillator.">
<polygon fill="none" stroke="black" points="235,-50.5 235,-80.5 387,-80.5 387,-50.5 235,-50.5"/>
<text text-anchor="start" x="243" y="-68.5" font-family="Helvetica,sans-Serif" font-size="10.00">lemons::dsp::osc::SuperSaw</text>
<text text-anchor="middle" x="311" y="-57.5" font-family="Helvetica,sans-Serif" font-size="10.00">&lt; SampleType &gt;</text>
</a>
</g>
</g>
<!-- Node1&#45;&gt;Node8 -->
<g id="edge7" class="edge">
<title>Node1&#45;&gt;Node8</title>
<path fill="none" stroke="midnightblue" d="M156.37,-98.4C183.39,-92.61 213.35,-86.2 239.59,-80.58"/>
<polygon fill="midnightblue" stroke="midnightblue" points="155.6,-94.98 146.56,-100.5 157.07,-101.83 155.6,-94.98"/>
</g>
<!-- Node10 -->
<g id="node10" class="node">
<title>Node10</title>
<g id="a_node10"><a xlink:href="structlemons_1_1dsp_1_1osc_1_1Oscillator.html" target="_top" xlink:title=" ">
<polygon fill="none" stroke="black" points="235.5,-100.5 235.5,-130.5 386.5,-130.5 386.5,-100.5 235.5,-100.5"/>
<text text-anchor="start" x="243.5" y="-118.5" font-family="Helvetica,sans-Serif" font-size="10.00">lemons::dsp::osc::Oscillator</text>
<text text-anchor="middle" x="311" y="-107.5" font-family="Helvetica,sans-Serif" font-size="10.00">&lt; float &gt;</text>
</a>
</g>
</g>
<!-- Node1&#45;&gt;Node10 -->
<g id="edge9" class="edge">
<title>Node1&#45;&gt;Node10</title>
<path fill="none" stroke="orange" stroke-dasharray="5,2" d="M161.28,-115.5C185.54,-115.5 211.79,-115.5 235.38,-115.5"/>
<polygon fill="orange" stroke="orange" points="161.02,-112 151.02,-115.5 161.02,-119 161.02,-112"/>
<text text-anchor="middle" x="193" y="-118.5" font-family="Helvetica,sans-Serif" font-size="10.00"> &lt; float &gt;</text>
</g>
<!-- Node3 -->
<g id="node3" class="node">
<title>Node3</title>
<g id="a_node3"><a xlink:href="structlemons_1_1dsp_1_1osc_1_1Saw.html" target="_top" xlink:title=" ">
<polygon fill="none" stroke="black" points="484.5,-120.5 484.5,-150.5 609.5,-150.5 609.5,-120.5 484.5,-120.5"/>
<text text-anchor="start" x="492.5" y="-138.5" font-family="Helvetica,sans-Serif" font-size="10.00">lemons::dsp::osc::Saw</text>
<text text-anchor="middle" x="547" y="-127.5" font-family="Helvetica,sans-Serif" font-size="10.00">&lt; float &gt;</text>
</a>
</g>
</g>
<!-- Node2&#45;&gt;Node3 -->
<g id="edge2" class="edge">
<title>Node2&#45;&gt;Node3</title>
<path fill="none" stroke="orange" stroke-dasharray="5,2" d="M384,-155.58C416.08,-151.6 453.49,-146.96 484.27,-143.15"/>
<polygon fill="orange" stroke="orange" points="383.28,-152.14 373.79,-156.84 384.14,-159.09 383.28,-152.14"/>
<text text-anchor="middle" x="429" y="-155.5" font-family="Helvetica,sans-Serif" font-size="10.00"> &lt; float &gt;</text>
</g>
<!-- Node5 -->
<g id="node5" class="node">
<title>Node5</title>
<g id="a_node5"><a xlink:href="structlemons_1_1dsp_1_1osc_1_1Sine.html" target="_top" xlink:title=" ">
<polygon fill="none" stroke="black" points="484.5,-184.5 484.5,-214.5 609.5,-214.5 609.5,-184.5 484.5,-184.5"/>
<text text-anchor="start" x="492.5" y="-202.5" font-family="Helvetica,sans-Serif" font-size="10.00">lemons::dsp::osc::Sine</text>
<text text-anchor="middle" x="547" y="-191.5" font-family="Helvetica,sans-Serif" font-size="10.00">&lt; float &gt;</text>
</a>
</g>
</g>
<!-- Node4&#45;&gt;Node5 -->
<g id="edge4" class="edge">
<title>Node4&#45;&gt;Node5</title>
<path fill="none" stroke="orange" stroke-dasharray="5,2" d="M384,-209.19C416.08,-207.27 453.49,-205.03 484.27,-203.19"/>
<polygon fill="orange" stroke="orange" points="383.56,-205.71 373.79,-209.8 383.98,-212.7 383.56,-205.71"/>
<text text-anchor="middle" x="429" y="-210.5" font-family="Helvetica,sans-Serif" font-size="10.00"> &lt; float &gt;</text>
</g>
<!-- Node7 -->
<g id="node7" class="node">
<title>Node7</title>
<g id="a_node7"><a xlink:href="structlemons_1_1dsp_1_1osc_1_1Square.html" target="_top" xlink:title=" ">
<polygon fill="none" stroke="black" points="478,-13.5 478,-43.5 616,-43.5 616,-13.5 478,-13.5"/>
<text text-anchor="start" x="486" y="-31.5" font-family="Helvetica,sans-Serif" font-size="10.00">lemons::dsp::osc::Square</text>
<text text-anchor="middle" x="547" y="-20.5" font-family="Helvetica,sans-Serif" font-size="10.00">&lt; float &gt;</text>
</a>
</g>
</g>
<!-- Node6&#45;&gt;Node7 -->
<g id="edge6" class="edge">
<title>Node6&#45;&gt;Node7</title>
<path fill="none" stroke="orange" stroke-dasharray="5,2" d="M390.41,-11.77C410.81,-11.52 432.75,-11.88 453,-13.5 461.07,-14.15 469.5,-15.1 477.84,-16.23"/>
<polygon fill="orange" stroke="orange" points="390.15,-8.27 380.22,-11.95 390.28,-15.27 390.15,-8.27"/>
<text text-anchor="middle" x="429" y="-16.5" font-family="Helvetica,sans-Serif" font-size="10.00"> &lt; float &gt;</text>
</g>
<!-- Node9 -->
<g id="node9" class="node">
<title>Node9</title>
<g id="a_node9"><a xlink:href="classlemons_1_1dsp_1_1osc_1_1SuperSaw.html" target="_top" xlink:title=" ">
<polygon fill="none" stroke="black" points="471,-68.5 471,-98.5 623,-98.5 623,-68.5 471,-68.5"/>
<text text-anchor="start" x="479" y="-86.5" font-family="Helvetica,sans-Serif" font-size="10.00">lemons::dsp::osc::SuperSaw</text>
<text text-anchor="middle" x="547" y="-75.5" font-family="Helvetica,sans-Serif" font-size="10.00">&lt; float &gt;</text>
</a>
</g>
</g>
<!-- Node8&#45;&gt;Node9 -->
<g id="edge8" class="edge">
<title>Node8&#45;&gt;Node9</title>
<path fill="none" stroke="orange" stroke-dasharray="5,2" d="M397.19,-68.79C415.61,-69.77 434.97,-70.99 453,-72.5 458.83,-72.99 464.86,-73.56 470.92,-74.18"/>
<polygon fill="orange" stroke="orange" points="397.23,-65.29 387.07,-68.28 396.88,-72.28 397.23,-65.29"/>
<text text-anchor="middle" x="429" y="-75.5" font-family="Helvetica,sans-Serif" font-size="10.00"> &lt; float &gt;</text>
</g>
<!-- Node10&#45;&gt;Node3 -->
<g id="edge10" class="edge">
<title>Node10&#45;&gt;Node3</title>
<path fill="none" stroke="midnightblue" d="M396.77,-122.75C425.67,-125.22 457.41,-127.93 484.16,-130.21"/>
<polygon fill="midnightblue" stroke="midnightblue" points="396.94,-119.25 386.68,-121.88 396.35,-126.22 396.94,-119.25"/>
</g>
<!-- Node10&#45;&gt;Node5 -->
<g id="edge11" class="edge">
<title>Node10&#45;&gt;Node5</title>
<path fill="none" stroke="midnightblue" d="M371.08,-133.72C396.45,-141.82 426.32,-151.71 453,-161.5 472.32,-168.59 493.59,-177.22 510.91,-184.46"/>
<polygon fill="midnightblue" stroke="midnightblue" points="371.83,-130.29 361.24,-130.6 369.71,-136.96 371.83,-130.29"/>
</g>
<!-- Node10&#45;&gt;Node7 -->
<g id="edge12" class="edge">
<title>Node10&#45;&gt;Node7</title>
<path fill="none" stroke="midnightblue" d="M368.38,-97.05C374.68,-94.88 380.99,-92.67 387,-90.5 429.08,-75.29 476.83,-56.46 508.93,-43.56"/>
<polygon fill="midnightblue" stroke="midnightblue" points="366.88,-93.86 358.53,-100.39 369.13,-100.49 366.88,-93.86"/>
</g>
<!-- Node10&#45;&gt;Node9 -->
<g id="edge13" class="edge">
<title>Node10&#45;&gt;Node9</title>
<path fill="none" stroke="midnightblue" d="M396.91,-103.89C421.1,-100.58 447.26,-97 470.82,-93.78"/>
<polygon fill="midnightblue" stroke="midnightblue" points="396.12,-100.46 386.68,-105.29 397.06,-107.4 396.12,-100.46"/>
</g>
</g>
</svg>
        <g id="navigator" transform="translate(0 0)" fill="#404254">
                <rect fill="#f2f5e9" fill-opacity="0.5" stroke="#606060" stroke-width=".5" x="0" y="0" width="60" height="60"/>
                <use id="zoomplus" xlink:href="#zoomPlus" x="17" y="9" onmousedown="handleZoom(evt,'in')"/>
                <use id="zoomminus" xlink:href="#zoomMin" x="42" y="9" onmousedown="handleZoom(evt,'out')"/>
                <use id="reset" xlink:href="#resetDef" x="30" y="36" onmousedown="handleReset()"/>
                <g id="arrowUp" xlink:href="#dirArrow" transform="translate(30 24)" onmousedown="handlePan(0,-1)">
                  <use xlink:href="#rim" fill="#404040">
                        <set attributeName="fill" to="#808080" begin="arrowUp.mouseover" end="arrowUp.mouseout"/>
                  </use>
                  <path fill="none" stroke="white" stroke-width="1.5" d="M0,-3.0v7 M-2.5,-0.5L0,-3.0L2.5,-0.5"/>
                </g>
                <g id="arrowRight" xlink:href="#dirArrow" transform="rotate(90) translate(36 -43)" onmousedown="handlePan(1,0)">
                  <use xlink:href="#rim" fill="#404040">
                        <set attributeName="fill" to="#808080" begin="arrowRight.mouseover" end="arrowRight.mouseout"/>
                  </use>
                  <path fill="none" stroke="white" stroke-width="1.5" d="M0,-3.0v7 M-2.5,-0.5L0,-3.0L2.5,-0.5"/>
                </g>
                <g id="arrowDown" xlink:href="#dirArrow" transform="rotate(180) translate(-30 -48)" onmousedown="handlePan(0,1)">
                  <use xlink:href="#rim" fill="#404040">
                        <set attributeName="fill" to="#808080" begin="arrowDown.mouseover" end="arrowDown.mouseout"/>
                  </use>
                  <path fill="none" stroke="white" stroke-width="1.5" d="M0,-3.0v7 M-2.5,-0.5L0,-3.0L2.5,-0.5"/>
                </g>
                <g id="arrowLeft" xlink:href="#dirArrow" transform="rotate(270) translate(-36 17)" onmousedown="handlePan(-1,0)">
                  <use xlink:href="#rim" fill="#404040">
                        <set attributeName="fill" to="#808080" begin="arrowLeft.mouseover" end="arrowLeft.mouseout"/>
                  </use>
                  <path fill="none" stroke="white" stroke-width="1.5" d="M0,-3.0v7 M-2.5,-0.5L0,-3.0L2.5,-0.5"/>
                </g>
        </g>
        <svg viewBox="0 0 15 15" width="100%" height="30px" preserveAspectRatio="xMaxYMin meet">
         <g id="arrow_out" transform="scale(0.3 0.3)">
          <a xlink:href="structlemons_1_1dsp_1_1osc_1_1Oscillator__inherit__graph_org.svg" target="_base">
           <rect id="button" ry="5" rx="5" y="6" x="6" height="38" width="38"
                fill="#f2f5e9" fill-opacity="0.5" stroke="#606060" stroke-width="1.0"/>
           <path id="arrow"
             d="M 11.500037,31.436501 C 11.940474,20.09759 22.043105,11.32322 32.158766,21.979434 L 37.068811,17.246167 C 37.068811,17.246167 37.088388,32 37.088388,32 L 22.160133,31.978069 C 22.160133,31.978069 26.997745,27.140456 26.997745,27.140456 C 18.528582,18.264221 13.291696,25.230495 11.500037,31.436501 z"
             style="fill:#404040;"/>
          </a>
         </g>
        </svg>
</svg>
